%FSTAX26Y26*%
%MOIN*%
%SFA1B1*%

%IPPOS*%
%ADD9500C,0.028000*%
%ADD9501C,0.030000*%
%ADD9502C,0.035430*%
%ADD9503C,0.047240*%
%ADD9504C,0.125200*%
%ADD9505C,0.157480*%
%LNunisolder_sensor-1*%
%LPD*%
G54D9500*
X016Y0245D03*
X0164Y02569D03*
X0172Y02623D03*
X01851Y02622D03*
X0192Y02537D03*
X02Y0245D03*
X021Y0255D03*
X02233Y02685D03*
X021Y02828D03*
X02061Y02969D03*
X02246Y03065D03*
X02414Y03018D03*
X02625Y03022D03*
X0256Y02872D03*
X026Y0245D03*
X024D03*
X01969Y02726D03*
X01722Y02861D03*
X01626Y02957D03*
X01423Y0295D03*
X01247Y02949D03*
X0116Y02783D03*
X01015Y02805D03*
X00993Y02615D03*
X01105Y0266D03*
X01215Y02635D03*
X0129921Y0271654D03*
X0138Y027D03*
X014Y0245D03*
X012D03*
X01D03*
X01042Y03101D03*
X0155Y026D03*
X01183Y0313D03*
X0127Y03241D03*
X0105Y0335D03*
X02456Y03321D03*
X025Y032D03*
X02645Y03239D03*
G54D9501*
X0114173Y033752D03*
Y034752D03*
X0257874Y034252D03*
Y033252D03*
Y035252D03*
G54D9502*
X01055Y02555D03*
X01155D03*
X01255D03*
X01355D03*
X01455D03*
G54D9503*
X02495Y02615D03*
Y02715D03*
Y02815D03*
X02595Y02765D03*
Y02665D03*
Y02565D03*
G54D9504*
X02245Y0249D03*
Y0289D03*
G54D9505*
X0236221Y0224472D03*
X0133858Y022441D03*
M02*