%FSTAX23Y23*%
%MOIN*%
%SFA1B1*%

%IPPOS*%
%AMD12*
4,1,8,0.039400,-0.020500,0.039400,0.020500,0.034200,0.025600,-0.034200,0.025600,-0.039400,0.020500,-0.039400,-0.020500,-0.034200,-0.025600,0.034200,-0.025600,0.039400,-0.020500,0.0*
1,1,0.010240,0.034200,-0.020500*
1,1,0.010240,0.034200,0.020500*
1,1,0.010240,-0.034200,0.020500*
1,1,0.010240,-0.034200,-0.020500*
%
%AMD13*
4,1,8,0.039400,-0.031500,0.039400,0.031500,0.031500,0.039400,-0.031500,0.039400,-0.039400,0.031500,-0.039400,-0.031500,-0.031500,-0.039400,0.031500,-0.039400,0.039400,-0.031500,0.0*
1,1,0.015740,0.031500,-0.031500*
1,1,0.015740,0.031500,0.031500*
1,1,0.015740,-0.031500,0.031500*
1,1,0.015740,-0.031500,-0.031500*
%
%AMD14*
4,1,4,-0.017000,0.025000,-0.025000,0.017000,0.017000,-0.025000,0.025000,-0.017000,-0.017000,0.025000,0.0*
1,1,0.011420,-0.021000,0.021000*
1,1,0.011420,0.021000,-0.021000*
%
%AMD15*
4,1,4,0.025000,0.017000,0.017000,0.025000,-0.025000,-0.017000,-0.017000,-0.025000,0.025000,0.017000,0.0*
1,1,0.011420,0.021000,0.021000*
1,1,0.011420,-0.021000,-0.021000*
%
%AMD16*
4,1,8,0.053100,-0.048400,0.053100,0.048400,0.042500,0.059100,-0.042500,0.059100,-0.053100,0.048400,-0.053100,-0.048400,-0.042500,-0.059100,0.042500,-0.059100,0.053100,-0.048400,0.0*
1,1,0.021260,0.042500,-0.048400*
1,1,0.021260,0.042500,0.048400*
1,1,0.021260,-0.042500,0.048400*
1,1,0.021260,-0.042500,-0.048400*
%
%AMD17*
4,1,8,0.010200,0.021700,-0.010200,0.021700,-0.012800,0.019100,-0.012800,-0.019100,-0.010200,-0.021700,0.010200,-0.021700,0.012800,-0.019100,0.012800,0.019100,0.010200,0.021700,0.0*
1,1,0.005120,0.010200,0.019100*
1,1,0.005120,-0.010200,0.019100*
1,1,0.005120,-0.010200,-0.019100*
1,1,0.005120,0.010200,-0.019100*
%
%AMD18*
4,1,8,0.025600,-0.008300,0.025600,0.008300,0.022000,0.011800,-0.022000,0.011800,-0.025600,0.008300,-0.025600,-0.008300,-0.022000,-0.011800,0.022000,-0.011800,0.025600,-0.008300,0.0*
1,1,0.007080,0.022000,-0.008300*
1,1,0.007080,0.022000,0.008300*
1,1,0.007080,-0.022000,0.008300*
1,1,0.007080,-0.022000,-0.008300*
%
%AMD21*
4,1,8,-0.008300,-0.037400,0.008300,-0.037400,0.011800,-0.033900,0.011800,0.033900,0.008300,0.037400,-0.008300,0.037400,-0.011800,0.033900,-0.011800,-0.033900,-0.008300,-0.037400,0.0*
1,1,0.007080,-0.008300,-0.033900*
1,1,0.007080,0.008300,-0.033900*
1,1,0.007080,0.008300,0.033900*
1,1,0.007080,-0.008300,0.033900*
%
%AMD23*
4,1,8,-0.024600,0.026100,-0.024600,-0.026100,-0.017200,-0.033500,0.017200,-0.033500,0.024600,-0.026100,0.024600,0.026100,0.017200,0.033500,-0.017200,0.033500,-0.024600,0.026100,0.0*
1,1,0.014760,-0.017200,0.026100*
1,1,0.014760,-0.017200,-0.026100*
1,1,0.014760,0.017200,-0.026100*
1,1,0.014760,0.017200,0.026100*
%
%AMD25*
4,1,8,-0.035400,0.056300,-0.035400,-0.056300,-0.024800,-0.066900,0.024800,-0.066900,0.035400,-0.056300,0.035400,0.056300,0.024800,0.066900,-0.024800,0.066900,-0.035400,0.056300,0.0*
1,1,0.021260,-0.024800,0.056300*
1,1,0.021260,-0.024800,-0.056300*
1,1,0.021260,0.024800,-0.056300*
1,1,0.021260,0.024800,0.056300*
%
%AMD26*
4,1,8,0.021800,0.025600,-0.021800,0.025600,-0.029500,0.017900,-0.029500,-0.017900,-0.021800,-0.025600,0.021800,-0.025600,0.029500,-0.017900,0.029500,0.017900,0.021800,0.025600,0.0*
1,1,0.015360,0.021800,0.017900*
1,1,0.015360,-0.021800,0.017900*
1,1,0.015360,-0.021800,-0.017900*
1,1,0.015360,0.021800,-0.017900*
%
%AMD27*
4,1,8,-0.029100,0.020800,-0.029100,-0.020800,-0.020400,-0.029500,0.020400,-0.029500,0.029100,-0.020800,0.029100,0.020800,0.020400,0.029500,-0.020400,0.029500,-0.029100,0.020800,0.0*
1,1,0.017480,-0.020400,0.020800*
1,1,0.017480,-0.020400,-0.020800*
1,1,0.017480,0.020400,-0.020800*
1,1,0.017480,0.020400,0.020800*
%
%AMD28*
4,1,8,-0.025600,0.021800,-0.025600,-0.021800,-0.017900,-0.029500,0.017900,-0.029500,0.025600,-0.021800,0.025600,0.021800,0.017900,0.029500,-0.017900,0.029500,-0.025600,0.021800,0.0*
1,1,0.015360,-0.017900,0.021800*
1,1,0.015360,-0.017900,-0.021800*
1,1,0.015360,0.017900,-0.021800*
1,1,0.015360,0.017900,0.021800*
%
%AMD29*
4,1,8,-0.017100,0.012600,-0.017100,-0.012600,-0.012000,-0.017700,0.012000,-0.017700,0.017100,-0.012600,0.017100,0.012600,0.012000,0.017700,-0.012000,0.017700,-0.017100,0.012600,0.0*
1,1,0.010280,-0.012000,0.012600*
1,1,0.010280,-0.012000,-0.012600*
1,1,0.010280,0.012000,-0.012600*
1,1,0.010280,0.012000,0.012600*
%
%AMD30*
4,1,8,-0.009000,0.016100,-0.009000,-0.016100,-0.008100,-0.017000,0.008100,-0.017000,0.009000,-0.016100,0.009000,0.016100,0.008100,0.017000,-0.008100,0.017000,-0.009000,0.016100,0.0*
1,1,0.001800,-0.008100,0.016100*
1,1,0.001800,-0.008100,-0.016100*
1,1,0.001800,0.008100,-0.016100*
1,1,0.001800,0.008100,0.016100*
%
%AMD31*
4,1,8,-0.012600,-0.017100,0.012600,-0.017100,0.017700,-0.012000,0.017700,0.012000,0.012600,0.017100,-0.012600,0.017100,-0.017700,0.012000,-0.017700,-0.012000,-0.012600,-0.017100,0.0*
1,1,0.010280,-0.012600,-0.012000*
1,1,0.010280,0.012600,-0.012000*
1,1,0.010280,0.012600,0.012000*
1,1,0.010280,-0.012600,0.012000*
%
%AMD32*
4,1,8,0.003200,-0.021000,0.021000,-0.003200,0.021000,0.004000,0.004000,0.021000,-0.003200,0.021000,-0.021000,0.003200,-0.021000,-0.004000,-0.004000,-0.021000,0.003200,-0.021000,0.0*
1,1,0.010280,-0.000400,-0.017400*
1,1,0.010280,0.017400,0.000400*
1,1,0.010280,0.000400,0.017400*
1,1,0.010280,-0.017400,-0.000400*
%
%AMD34*
4,1,8,-0.008300,-0.025600,0.008300,-0.025600,0.011800,-0.022000,0.011800,0.022000,0.008300,0.025600,-0.008300,0.025600,-0.011800,0.022000,-0.011800,-0.022000,-0.008300,-0.025600,0.0*
1,1,0.007080,-0.008300,-0.022000*
1,1,0.007080,0.008300,-0.022000*
1,1,0.007080,0.008300,0.022000*
1,1,0.007080,-0.008300,0.022000*
%
%AMD35*
4,1,8,0.037400,-0.008300,0.037400,0.008300,0.033900,0.011800,-0.033900,0.011800,-0.037400,0.008300,-0.037400,-0.008300,-0.033900,-0.011800,0.033900,-0.011800,0.037400,-0.008300,0.0*
1,1,0.007080,0.033900,-0.008300*
1,1,0.007080,0.033900,0.008300*
1,1,0.007080,-0.033900,0.008300*
1,1,0.007080,-0.033900,-0.008300*
%
%AMD36*
4,1,8,0.033500,0.002700,0.002700,0.033500,-0.008200,0.033500,-0.033500,0.008200,-0.033500,-0.002700,-0.002700,-0.033500,0.008200,-0.033500,0.033500,-0.008200,0.033500,0.002700,0.0*
1,1,0.015360,0.028100,-0.002800*
1,1,0.015360,-0.002800,0.028100*
1,1,0.015360,-0.028100,0.002800*
1,1,0.015360,0.002800,-0.028100*
%
%AMD64*
4,1,8,-0.007500,0.042600,-0.042600,0.007500,-0.042600,-0.007500,-0.007500,-0.042600,0.007500,-0.042600,0.042600,-0.007500,0.042600,0.007500,0.007500,0.042600,-0.007500,0.042600,0.0*
1,1,0.021260,0.000000,0.035100*
1,1,0.021260,-0.035100,0.000000*
1,1,0.021260,0.000000,-0.035100*
1,1,0.021260,0.035100,0.000000*
%
%ADD10O,0.013780X0.066930*%
%ADD11O,0.066930X0.013780*%
G04~CAMADD=12~8~0.0~0.0~511.8~787.4~51.2~0.0~15~0.0~0.0~0.0~0.0~0~0.0~0.0~0.0~0.0~0~0.0~0.0~0.0~270.0~788.0~512.0*
%ADD12D12*%
G04~CAMADD=13~8~0.0~0.0~787.4~787.4~78.7~0.0~15~0.0~0.0~0.0~0.0~0~0.0~0.0~0.0~0.0~0~0.0~0.0~0.0~270.0~788.0~788.0*
%ADD13D13*%
G04~CAMADD=14~3~0.0~0.0~114.2~708.7~0.0~0.0~0~0.0~0.0~0.0~0.0~0~0.0~0.0~0.0~0.0~0~0.0~0.0~0.0~45.0~534.0~534.0*
%ADD14D14*%
G04~CAMADD=15~3~0.0~0.0~114.2~708.7~0.0~0.0~0~0.0~0.0~0.0~0.0~0~0.0~0.0~0.0~0.0~0~0.0~0.0~0.0~315.0~534.0~534.0*
%ADD15D15*%
G04~CAMADD=16~8~0.0~0.0~1181.1~1063.0~106.3~0.0~15~0.0~0.0~0.0~0.0~0~0.0~0.0~0.0~0.0~0~0.0~0.0~0.0~270.0~1064.0~1181.0*
%ADD16D16*%
G04~CAMADD=17~8~0.0~0.0~255.9~433.1~25.6~0.0~15~0.0~0.0~0.0~0.0~0~0.0~0.0~0.0~0.0~0~0.0~0.0~0.0~0.0~255.9~433.1*
%ADD17D17*%
G04~CAMADD=18~8~0.0~0.0~236.2~511.8~35.4~0.0~15~0.0~0.0~0.0~0.0~0~0.0~0.0~0.0~0.0~0~0.0~0.0~0.0~270.0~512.0~236.0*
%ADD18D18*%
%ADD19O,0.078740X0.023620*%
%ADD20O,0.086610X0.023620*%
G04~CAMADD=21~8~0.0~0.0~236.2~748.0~35.4~0.0~15~0.0~0.0~0.0~0.0~0~0.0~0.0~0.0~0.0~0~0.0~0.0~0.0~180.0~236.0~748.0*
%ADD21D21*%
%ADD22O,0.023620X0.074800*%
G04~CAMADD=23~8~0.0~0.0~669.3~492.1~73.8~0.0~15~0.0~0.0~0.0~0.0~0~0.0~0.0~0.0~0.0~0~0.0~0.0~0.0~90.0~492.0~670.0*
%ADD23D23*%
%ADD24O,0.016000X0.066930*%
G04~CAMADD=25~8~0.0~0.0~1338.6~708.7~106.3~0.0~15~0.0~0.0~0.0~0.0~0~0.0~0.0~0.0~0.0~0~0.0~0.0~0.0~90.0~708.0~1338.0*
%ADD25D25*%
G04~CAMADD=26~8~0.0~0.0~590.6~511.8~76.8~0.0~15~0.0~0.0~0.0~0.0~0~0.0~0.0~0.0~0.0~0~0.0~0.0~0.0~0.0~590.6~511.8*
%ADD26D26*%
G04~CAMADD=27~8~0.0~0.0~590.6~582.7~87.4~0.0~15~0.0~0.0~0.0~0.0~0~0.0~0.0~0.0~0.0~0~0.0~0.0~0.0~90.0~582.0~590.0*
%ADD27D27*%
G04~CAMADD=28~8~0.0~0.0~590.6~511.8~76.8~0.0~15~0.0~0.0~0.0~0.0~0~0.0~0.0~0.0~0.0~0~0.0~0.0~0.0~90.0~512.0~591.0*
%ADD28D28*%
G04~CAMADD=29~8~0.0~0.0~354.3~342.5~51.4~0.0~15~0.0~0.0~0.0~0.0~0~0.0~0.0~0.0~0.0~0~0.0~0.0~0.0~90.0~343.0~354.0*
%ADD29D29*%
G04~CAMADD=30~8~0.0~0.0~340.0~180.0~9.0~0.0~15~0.0~0.0~0.0~0.0~0~0.0~0.0~0.0~0.0~0~0.0~0.0~0.0~90.0~180.0~340.0*
%ADD30D30*%
G04~CAMADD=31~8~0.0~0.0~354.3~342.5~51.4~0.0~15~0.0~0.0~0.0~0.0~0~0.0~0.0~0.0~0.0~0~0.0~0.0~0.0~180.0~354.0~343.0*
%ADD31D31*%
G04~CAMADD=32~8~0.0~0.0~354.3~342.5~51.4~0.0~15~0.0~0.0~0.0~0.0~0~0.0~0.0~0.0~0.0~0~0.0~0.0~0.0~225.0~451.0~449.0*
%ADD32D32*%
%ADD33O,0.074800X0.023620*%
G04~CAMADD=34~8~0.0~0.0~236.2~511.8~35.4~0.0~15~0.0~0.0~0.0~0.0~0~0.0~0.0~0.0~0.0~0~0.0~0.0~0.0~180.0~236.0~512.0*
%ADD34D34*%
G04~CAMADD=35~8~0.0~0.0~236.2~748.0~35.4~0.0~15~0.0~0.0~0.0~0.0~0~0.0~0.0~0.0~0.0~0~0.0~0.0~0.0~270.0~748.0~236.0*
%ADD35D35*%
G04~CAMADD=36~8~0.0~0.0~590.6~511.8~76.8~0.0~15~0.0~0.0~0.0~0.0~0~0.0~0.0~0.0~0.0~0~0.0~0.0~0.0~315.0~716.0~716.0*
%ADD36D36*%
%ADD37C,0.012000*%
%ADD38C,0.022000*%
%ADD39C,0.050000*%
%ADD40C,0.035000*%
%ADD41C,0.020000*%
%ADD42C,0.025000*%
%ADD43C,0.014000*%
%ADD44C,0.015000*%
%ADD45C,0.010000*%
%ADD46C,0.048000*%
%ADD47C,0.032000*%
%ADD48C,0.052000*%
%ADD49C,0.034000*%
%ADD50C,0.023000*%
%ADD51C,0.018000*%
%ADD52C,0.019000*%
%ADD53C,0.030000*%
%ADD54C,0.011000*%
%ADD55C,0.016000*%
%ADD56O,0.043310X0.051180*%
%ADD57O,0.104330X0.196850*%
%ADD58C,0.078740*%
%ADD59C,0.059060*%
%ADD60O,0.078740X0.118110*%
%ADD61R,0.059060X0.059060*%
%ADD62C,0.055120*%
%ADD63R,0.059060X0.059060*%
G04~CAMADD=64~8~0.0~0.0~708.7~708.7~106.3~0.0~15~0.0~0.0~0.0~0.0~0~0.0~0.0~0.0~0.0~0~0.0~0.0~0.0~45.0~914.0~913.0*
%ADD64D64*%
%ADD65C,0.070870*%
%ADD66C,0.255900*%
%ADD67C,0.236220*%
%ADD68C,0.050000*%
%LNunisolder52_front-1*%
%LPD*%
G36*
X-00249Y00157D02*
X-00248Y0015D01*
X-00244Y00141*
X-00238Y00133*
X-0023Y00127*
X-00221Y00123*
X-00211Y00122*
X-002Y00123*
X-00191Y00127*
X-00183Y00133*
X-00177Y00141*
X-00173Y0015*
X-00172Y0016*
X-00141Y0019*
X-00132*
X-00129Y00185*
X-00133Y0018*
X-00137Y00171*
X-00137Y00168*
X-00062*
X-00062Y00171*
X-00066Y0018*
X-0007Y00185*
X-00067Y0019*
X00032*
X00061Y00161*
X00061Y00161*
X00062Y0015*
X00066Y00141*
X00072Y00133*
X0008Y00127*
X00089Y00123*
X001Y00122*
X0011Y00123*
X00119Y00127*
X00127Y00133*
X00133Y00141*
X00137Y0015*
X00138Y00161*
X00137Y00169*
X00158Y0019*
X00178*
X00181Y00185*
X00177Y0018*
X00173Y00171*
X00173Y00168*
X00211*
Y00153*
X00173*
X00173Y0015*
X00177Y00141*
X00182Y00134*
X00182Y00132*
X00182Y0013*
X00181Y00128*
X00175Y00124*
X00135Y00084*
X0013Y00084*
X00127Y00088*
X00119Y00094*
X0011Y00098*
X001Y00099*
X00089Y00098*
X0008Y00094*
X00072Y00088*
X00067Y00081*
X-00021*
X-00065Y00125*
X-0007Y00128*
X-0007Y0013*
X-00071Y00133*
X-00071Y00134*
X-00066Y00141*
X-00062Y0015*
X-00062Y00153*
X-00137*
X-00137Y0015*
X-00133Y00141*
X-00128Y00134*
X-00128Y00133*
X-00128Y0013*
X-00129Y00128*
X-00134Y00125*
X-00175Y00084*
X-0018Y00084*
X-00183Y00088*
X-00191Y00094*
X-002Y00098*
X-00211Y00099*
X-00221Y00098*
X-0023Y00094*
X-00238Y00088*
X-00243Y00081*
X-00332*
X-00375Y00124*
X-00381Y00128*
X-00382Y0013*
X-00382Y00131*
X-00382Y00134*
X-00377Y00141*
X-00373Y0015*
X-00373Y00153*
X-00411*
Y00168*
X-00373*
X-00373Y00171*
X-00377Y0018*
X-00381Y00186*
X-00379Y00191*
X-00282*
X-00249Y00157*
G37*
G36*
X01276Y00662D02*
X01284Y00657D01*
X01289Y00655*
X01289Y00654*
X0129Y00649*
X01284Y00645*
X01279Y00638*
X01275Y00629*
X01274Y00621*
X01275Y00612*
X01279Y00603*
X01282Y006*
X01282Y00598*
X0128Y00595*
X01275Y00594*
X0127Y00597*
X01264Y00598*
X0126*
Y00572*
X01245*
Y00598*
X0124*
X01235Y00597*
X0123Y00594*
X0123Y00594*
X01225Y00595*
Y00677*
X01256*
X01261Y00678*
X01276Y00662*
G37*
G36*
X00558Y00248D02*
X00562Y00242D01*
X00561Y00236*
X00558Y00232*
X00554Y00223*
X00553Y00215*
X00554Y00206*
X00558Y00197*
X00563Y0019*
X0057Y00185*
X00579Y00181*
X00588Y0018*
X00596Y00181*
X00605Y00185*
X00605Y00185*
X00612Y00184*
X00613Y00183*
X00614Y00183*
Y00176*
X00613Y00176*
X0061Y00171*
X00609Y00165*
Y00161*
X00636*
Y00146*
X00609*
Y00141*
X0061Y00136*
X0061Y00136*
X00607Y00131*
X00574*
X00548Y00157*
Y00249*
X00552Y0025*
X00558Y00248*
G37*
G36*
X-00904Y0022D02*
X-00908Y00215D01*
X-0091Y00207*
X-00908Y00198*
X-00906Y00196*
X-00925Y00177*
X-00928Y00173*
X-00929Y00167*
Y00151*
X-00943Y00137*
X-00946Y00132*
X-00947Y00127*
Y00106*
X-00951Y00102*
X-00956Y00104*
Y00106*
X-00957Y00113*
X-00961Y00118*
X-00966Y00122*
X-00973Y00123*
Y00128*
X-00966Y00129*
X-00961Y00133*
X-00957Y00138*
X-00956Y00145*
Y00155*
X-00995*
Y00163*
X-01002*
Y00198*
X-01016*
X-01023Y00197*
X-01028Y00193*
X-01032Y00187*
X-01033Y00181*
Y0017*
X-01036Y00169*
X-01038Y00168*
X-01042Y00171*
X-01048Y00172*
X-01053*
Y00146*
X-01068*
Y00172*
X-01073*
X-01074Y00172*
X-01078Y00175*
Y00211*
X-01064Y00225*
X-00906*
X-00904Y0022*
G37*
G36*
X00449Y-00887D02*
X0054D01*
Y-00917*
X00541Y-00923*
X00545Y-00928*
X00559Y-00942*
X0056Y-00948*
X00559Y-00949*
X00544Y-00964*
X0054Y-0097*
X00539Y-00976*
Y-00992*
X00534Y-00994*
X00488Y-00948*
X00483Y-00945*
X00477Y-00943*
X00431*
X00429Y-00939*
X0044Y-00928*
X00443Y-00923*
X00444Y-00918*
Y-0089*
X00448Y-00887*
X00449Y-00887*
G37*
G36*
X-01146Y00221D02*
Y00202D01*
X-01145Y00197*
Y00102*
X-01183Y00064*
X-01186Y00059*
X-01187Y00053*
X-01186Y00048*
X-01183Y00043*
X-01178Y0004*
X-01173Y00039*
X-01172Y00034*
X-01169Y00029*
X-01164Y00026*
X-01159Y00025*
X-01158Y0002*
X-01155Y00015*
X-0115Y00012*
X-01145Y00011*
X-01145Y00006*
X-01141Y00001*
X-01136Y-00001*
X-01132Y-00002*
X-01131Y-00007*
X-01127Y-00012*
X-01122Y-00015*
X-01118Y-00016*
X-01117Y-00021*
X-01113Y-00026*
X-01109Y-00029*
X-01107Y-00029*
X-01106Y-00032*
X-01109Y-00037*
X-01143*
X-01148Y-00038*
X-01153Y-00042*
X-01172Y-0006*
X-01176Y-00057*
X-01185Y-00053*
X-01194Y-00052*
X-01202Y-00053*
X-01211Y-00057*
X-01218Y-00062*
X-01223Y-00069*
X-01227Y-00078*
X-01228Y-00087*
X-01227Y-00095*
X-01227Y-00096*
X-0123Y-001*
X-01298*
X-01315Y-00083*
X-01317Y-0008*
X-01323Y-00074*
X-01328Y-00071*
X-01328Y-0007*
X-0133Y-00065*
X-01328Y-00063*
X-01327Y-00058*
X-01322Y-00057*
X-01317Y-00054*
X-01317Y-00052*
X-01313Y-00049*
X-01309Y-00049*
X-01308Y-0005*
X-01278*
X-01271Y-00055*
X-01262Y-00059*
X-01254Y-0006*
X-01245Y-00059*
X-01236Y-00055*
X-01229Y-0005*
X-01224Y-00043*
X-0122Y-00034*
X-01219Y-00026*
X-0122Y-00017*
X-01224Y-00008*
X-01229Y-00001*
X-01236Y00003*
X-01245Y00007*
X-01251Y00007*
X-01251Y00013*
X-01248Y00015*
X-01245Y0002*
X-01244Y00025*
X-01239Y00026*
X-01234Y00029*
X-01231Y00034*
X-0123Y00039*
X-01225Y0004*
X-0122Y00043*
X-01217Y00048*
X-01216Y00053*
X-01217Y00059*
X-0122Y00064*
X-01258Y00102*
Y00116*
X-0115Y00223*
X-01146Y00221*
G37*
G36*
X-00273Y00811D02*
Y00757D01*
X-00272Y00751*
X-00268Y00746*
X-00136Y00613*
X-00138Y00608*
X-00145Y00605*
X-00148Y00603*
X-00151Y00603*
X-00154Y00604*
X-00157Y00608*
X-00193Y00645*
X-00198Y00648*
X-00199Y00649*
Y00652*
X-002Y00659*
X-00204Y00664*
X-00209Y00668*
X-00216Y00669*
X-00223*
X-00224Y00674*
X-00228Y00679*
X-00291Y00742*
Y00744*
X-0029Y00745*
X-00289Y00751*
Y00802*
X-0029Y00809*
X-00294Y00814*
X-00299Y00818*
X-00306Y00819*
X-00313Y00818*
X-00318Y00814*
X-00319*
X-00325Y00818*
X-00332Y00819*
X-00338Y00818*
X-00344Y00814*
X-00345*
X-0035Y00818*
Y00777*
X-00365*
Y00818*
X-0037Y00814*
X-00371*
X-00376Y00818*
X-00383Y00819*
X-00389Y00818*
X-00395Y00814*
X-00399Y00809*
X-004Y00802*
Y00792*
X-00417*
X-00436Y00811*
X-00439Y00815*
X-00445Y00819*
X-0045Y00826*
X-00457Y00831*
X-00466Y00835*
X-00475Y00836*
X-00477Y00836*
X-00483Y00836*
X-00527*
X-00528Y00837*
X-00552*
X-00558Y00835*
X-00562Y00832*
X-00563Y00831*
X-00569*
X-0057Y00832*
X-00575Y00835*
X-00581Y00837*
X-00585*
Y0081*
X-00593*
Y00802*
X-00619*
Y00797*
X-00618Y00791*
X-00615Y00787*
X-00611Y00784*
X-0061Y0078*
X-00611Y00779*
X-00615Y00776*
X-00619Y00769*
X-00621Y00761*
Y00741*
X-00625Y00739*
X-00634Y00748*
X-00634Y00749*
Y00785*
X-00635Y00792*
X-00639Y00797*
X-00644Y00801*
X-00651Y00802*
X-00694*
X-00701Y00801*
X-00704Y00799*
X-00712Y00806*
X-00712Y00808*
Y00844*
X-00712Y00847*
X-00708Y00852*
X-00314*
X-00273Y00811*
G37*
G36*
X-00867Y00791D02*
X-00866Y00784D01*
X-00862Y00779*
X-00857Y00775*
X-0085Y00774*
Y00769*
X-00857Y00767*
X-00862Y00764*
X-00866Y00758*
X-00867Y00752*
Y00741*
X-00828*
Y00734*
X-00821*
Y00699*
X-00806*
X-008Y007*
X-00794Y00704*
X-00791Y00709*
X-00789Y00716*
Y0072*
X-00784Y00722*
X-00784Y00722*
X-00779Y00718*
X-00772Y00717*
X-0077*
Y0071*
X-00772*
X-00779Y00708*
X-00784Y00705*
X-00788Y00699*
X-00789Y00693*
Y00657*
X-00788Y0065*
X-00784Y00645*
X-00779Y00641*
X-00772Y0064*
Y00635*
X-00777Y00634*
X-00825*
X-00828Y00637*
X-00831Y0064*
X-00836Y00641*
X-00856*
X-00859Y0064*
X-00861Y00644*
X-00861Y00645*
X-00858Y00649*
X-00857Y00655*
Y0066*
X-00883*
Y00668*
X-00891*
Y00695*
X-00895*
X-00901Y00693*
X-00901Y00693*
X-00905Y00694*
X-00906Y00695*
X-00906Y00696*
X-00906Y00697*
X-009Y00702*
X-00894Y00709*
X-00891Y00717*
X-00889Y00726*
X-00891Y00735*
X-00894Y00743*
X-009Y0075*
X-00907Y00756*
X-00915Y00759*
X-00924Y0076*
X-00933Y00759*
X-00941Y00756*
X-00948Y0075*
X-00953Y00743*
X-00957Y00735*
X-00958Y00726*
X-00957Y00717*
X-00953Y00709*
X-00953Y00709*
Y00693*
X-00957Y0069*
X-00961Y00686*
X-00962Y0068*
Y00655*
X-00961Y00649*
X-00957Y00645*
X-00953Y00642*
X-00952Y00642*
X-00952Y00638*
X-00947Y00631*
X-00943Y00627*
Y00591*
X-00942Y00586*
X-0094Y00582*
X-00936Y0058*
X-00931Y00579*
X-00911*
X-00906Y0058*
X-00902Y00582*
X-00902*
X-00898Y0058*
X-00894Y00579*
X-00891*
Y0061*
X-00876*
Y00579*
X-00873*
X-00869Y0058*
X-00865Y00582*
X-00865*
X-00861Y0058*
X-00856Y00579*
X-00836*
X-00831Y0058*
X-00828Y00582*
X-00825Y00586*
X-00824Y00591*
Y00603*
X-00789*
Y00582*
X-00788Y00575*
X-00784Y0057*
X-00779Y00566*
X-00772Y00565*
X-00729*
X-00722Y00566*
X-00717Y0057*
X-00715Y00572*
X-00711Y0057*
X-00711Y00567*
Y00556*
X-00634*
Y00567*
X-00635Y00573*
X-00639Y00579*
X-00644Y00582*
X-00651Y00584*
Y00588*
X-00644Y0059*
X-00639Y00593*
X-00635Y00599*
X-00634Y00605*
Y00641*
X-00634Y00643*
X-00631Y00647*
X-00598*
X-00565Y00614*
Y00591*
X-00569Y00584*
X-00571Y00576*
Y00525*
X-00569Y00517*
X-00565Y0051*
X-00558Y00505*
X-0055Y00504*
X-00541Y00505*
X-00535Y0051*
X-0053Y00517*
X-00528Y00525*
Y00576*
X-0053Y00584*
X-00534Y00591*
Y00621*
X-00535Y00626*
X-00539Y00631*
X-00571Y00663*
X-00569Y00668*
X-00538*
X-00533Y00669*
X-00528Y00672*
X-00509Y00691*
X-00508Y0069*
X-005Y00689*
X-00491Y0069*
X-00485Y00695*
X-0048Y00702*
X-00478Y0071*
Y00761*
X-00475Y00765*
X-00472Y00762*
X-00471Y00761*
Y0071*
X-00469Y00702*
X-00465Y00695*
X-00458Y0069*
X-0045Y00689*
X-00441Y0069*
X-00435Y00695*
X-0043Y00702*
X-00428Y0071*
Y0075*
X-00423Y00754*
X-0042Y00753*
X-004*
Y00751*
X-00399Y00745*
X-00395Y00739*
X-00389Y00735*
X-00383Y00734*
X-00376Y00735*
X-00371Y00739*
X-0037*
X-00364Y00735*
X-00362Y00735*
X-00361Y00729*
X-00372Y00718*
X-00384*
X-0039Y00717*
X-00395Y00713*
X-00432Y00676*
X-00443*
X-00449Y00675*
X-00454Y00671*
X-0051Y00615*
X-00514Y0061*
X-00515Y00604*
Y00591*
X-00519Y00584*
X-00521Y00576*
Y00525*
X-00519Y00517*
X-00515Y0051*
X-00508Y00505*
X-005Y00504*
X-00491Y00505*
X-00485Y0051*
X-0048Y00517*
X-00478Y00525*
Y00576*
X-0048Y00584*
X-00484Y00591*
Y00598*
X-00437Y00645*
X-00426*
X-0042Y00646*
X-00415Y0065*
X-00378Y00687*
X-00366*
X-0036Y00688*
X-00355Y00692*
X-00322Y00724*
X-00318Y00725*
X-00316Y00724*
X-00265Y00673*
X-00265Y0067*
X-00267Y00668*
X-00272Y00664*
X-00275Y00659*
X-00277Y00652*
Y00616*
X-00275Y0061*
X-00272Y00604*
X-00266Y00601*
X-0026Y00599*
Y00594*
X-00266Y00593*
X-00272Y00589*
X-00275Y00584*
X-00277Y00577*
Y00557*
X-00281Y00555*
X-00294Y00569*
X-00294Y00574*
X-00294Y00574*
X-0029Y00579*
X-00289Y00586*
Y00604*
X-00306*
Y00611*
X-00314*
Y00652*
X-00315Y00651*
X-00319Y00649*
X-00323Y00651*
X-00325Y00653*
X-00332Y00654*
X-00338Y00653*
X-00341Y00651*
X-00344Y00649*
X-00348Y00651*
X-00351Y00653*
X-00357Y00654*
X-00364Y00653*
X-00366Y00651*
X-0037Y00649*
X-00374Y00651*
X-00375Y00652*
Y00611*
Y0057*
X-00375Y00571*
X-00371Y00569*
X-0037Y00568*
X-00367Y00564*
X-0035Y00546*
X-0035Y00546*
X-00355Y00539*
X-00359Y0053*
X-0036Y00522*
X-00359Y00513*
X-00355Y00504*
X-0035Y00497*
X-00343Y00492*
X-00334Y00488*
X-00326Y00487*
X-00317Y00488*
X-00308Y00492*
X-00307Y00493*
X-00302Y0049*
X-00299Y00483*
X-00294Y00476*
X-00287Y00471*
X-00278Y00467*
X-0027Y00466*
X-00261Y00467*
X-00252Y00471*
X-00245Y00476*
X-0024Y00483*
X-00236Y00492*
X-00235Y00501*
X-00236Y00509*
X-0024Y00518*
X-00242Y0052*
X-0024Y00525*
X-00216*
X-00209Y00526*
X-00204Y0053*
X-002Y00535*
X-00199Y00542*
Y00552*
X-00238*
Y00567*
X-00199*
Y00577*
X-002Y00584*
X-00204Y00589*
X-00209Y00593*
X-00216Y00594*
Y00599*
X-00209Y00601*
X-00204Y00604*
X-00203Y00606*
X-00198Y00606*
X-00183Y00591*
Y00559*
X-00182Y00553*
X-00178Y00548*
X-00155Y00525*
X-0015Y00521*
X-00144Y0052*
X-00029*
Y00488*
X-00027Y00482*
X-00024Y00476*
X-00022Y00475*
X-00023Y0047*
X-0018*
X-00186Y00469*
X-00191Y00466*
X-00216Y00441*
X-00294*
X-00319Y00466*
X-00324Y00469*
X-0033Y0047*
X-00411*
X-00416Y00476*
X-00421Y00479*
X-00427Y0048*
X-00656*
X-00662Y00479*
X-00667Y00476*
X-00739Y00403*
X-00744Y00404*
X-00745Y00405*
X-00752Y0041*
X-00761Y00414*
X-0077Y00415*
X-00778Y00414*
X-00787Y0041*
X-00794Y00405*
X-00799Y00398*
X-00803Y00389*
X-00804Y00381*
X-00803Y00372*
X-00799Y00363*
X-00797Y00361*
X-008Y00356*
X-01111*
X-01117Y00355*
X-01122Y00351*
X-01197Y00277*
X-01201Y00279*
Y00343*
X-01152Y00392*
X-01035*
X-01029Y00393*
X-01024Y00397*
X-01007Y00413*
X-01005Y00413*
X-00969*
X-00963Y00414*
X-00957Y00418*
X-00954Y00424*
X-00952Y0043*
Y00436*
X-00949Y00437*
X-00947Y00437*
X-00941Y00432*
X-00932Y00428*
X-00924Y00427*
X-00915Y00428*
X-00906Y00432*
X-00899Y00437*
X-00898Y00439*
X-00891*
X-00889Y00436*
X-00882Y00431*
X-00873Y00427*
X-00865Y00426*
X-00856Y00427*
X-00847Y00431*
X-0084Y00436*
X-00835Y00443*
X-00831Y00452*
X-0083Y00461*
X-00831Y00469*
X-00835Y00478*
X-00837Y0048*
X-00834Y00485*
X-00834Y00485*
X-00824*
Y00471*
X-00823Y00466*
X-00819Y00461*
X-00815Y00458*
X-00809Y00457*
X-00785*
X-0078Y00458*
X-00775Y00461*
X-00774Y00462*
X-00768*
X-00767Y00461*
X-00763Y00458*
X-00757Y00457*
X-00753*
Y00484*
Y00511*
X-00757*
X-00763Y0051*
X-00767Y00507*
X-00768Y00505*
X-00774*
X-00775Y00507*
X-00776Y00513*
X-00774Y00515*
X-0077Y00524*
X-00769Y00533*
X-0077Y00541*
X-00774Y0055*
X-00779Y00557*
X-00786Y00562*
X-00795Y00566*
X-00803Y00567*
X-00812Y00566*
X-00821Y00562*
X-00828Y00557*
X-00833Y0055*
X-00835Y00546*
X-00836Y00546*
X-00856*
X-00861Y00545*
X-00865Y00543*
X-00865*
X-00869Y00545*
X-00873Y00546*
X-00876*
X-00893Y00563*
X-00898Y00566*
X-00903Y00567*
X-00964*
X-00964Y00568*
X-0097Y00569*
X-01006*
X-01008Y00569*
X-01025Y00585*
X-0103Y00589*
X-01036Y0059*
X-0109*
X-01096Y00589*
X-01101Y00585*
X-01115Y00571*
X-01119Y00566*
X-0112Y0056*
Y00523*
X-01144Y00499*
X-01144Y00499*
X-01167Y00476*
X-0117Y00471*
X-01172Y00465*
Y00444*
X-01207Y00409*
X-01212Y00411*
Y00431*
X-01207*
X-01201Y00432*
X-01197Y00435*
X-01194Y0044*
X-01193Y00445*
Y0047*
X-01194Y00476*
X-01197Y00481*
X-01201Y00484*
X-01207Y00485*
X-01212*
Y00511*
X-01199Y00524*
X-01195Y0053*
X-01194Y00536*
X-01195Y00543*
X-01199Y00548*
X-01195Y00552*
X-0119Y00548*
X-01183Y00547*
X-01177Y00548*
X-01171Y00552*
X-01146Y00577*
X-01142Y00583*
X-01141Y00589*
X-01139Y00591*
X-01134Y0059*
X-01125Y00591*
X-01116Y00595*
X-01109Y006*
X-01104Y00607*
X-011Y00616*
X-01099Y00625*
X-011Y00633*
X-01104Y00642*
X-01109Y00649*
X-01116Y00654*
X-01125Y00658*
X-01134Y00659*
X-01142Y00658*
X-01151Y00654*
X-01158Y00649*
X-01163Y00642*
X-01167Y00633*
X-01167Y00629*
X-01172Y00628*
X-01177Y00632*
X-01182Y00636*
X-01189Y00637*
X-01195Y00636*
X-01201Y00632*
X-01226Y00607*
X-0123Y00601*
X-01231Y00595*
X-0123Y00588*
X-01226Y00583*
X-0123Y00579*
X-01235Y00583*
X-01242Y00584*
X-01248Y00583*
X-01254Y00579*
X-01279Y00554*
X-01283Y00548*
X-01284Y00542*
X-01283Y00535*
X-01279Y0053*
X-01248Y00499*
X-01243Y00495*
X-01242Y00495*
Y00483*
X-01244Y00481*
X-01249Y00481*
X-01254Y00484*
X-01259Y00485*
X-01264*
Y00458*
Y00431*
X-01259*
X-01254Y00432*
X-01249Y00435*
X-01244Y00435*
X-01242Y00433*
Y00402*
X-01267Y00377*
X-01271Y00372*
X-01272Y00366*
Y00339*
X-01277Y00338*
X-01277Y00338*
X-01283Y00342*
X-01289Y00343*
X-013*
Y00305*
Y00265*
X-01298Y00261*
X-01387Y00172*
X-01391Y00167*
X-01392Y00161*
Y0012*
X-01396Y00117*
X-01397Y00117*
X-01402*
Y00091*
X-01417*
Y00117*
X-01422*
X-01423Y00117*
X-01427Y0012*
Y00246*
X-01406Y00267*
X-014Y00266*
X-01364*
X-01357Y00267*
X-01352Y00271*
X-01348Y00276*
X-01347Y00283*
X-01342*
X-01341Y00276*
X-01337Y00271*
X-01332Y00267*
X-01325Y00266*
X-01315*
Y00305*
Y00343*
X-01322*
X-01324Y00348*
X-01303Y0037*
X-01299Y00375*
X-01298Y00381*
Y00433*
X-01295Y00435*
X-01293Y00435*
X-01289Y00432*
X-01283Y00431*
X-01279*
Y00458*
Y00485*
X-01283*
X-01289Y00484*
X-01293Y00481*
X-01295Y00481*
X-01298Y00483*
Y00567*
X-01195Y0067*
X-01092*
X-01086Y00664*
X-01087Y00662*
Y00626*
X-01085Y0062*
X-01082Y00614*
X-01076Y00611*
X-0107Y00609*
X-01026*
X-01019Y00611*
X-01014Y00614*
X-0101Y0062*
X-01009Y00626*
Y00662*
X-0101Y00669*
X-01014Y00674*
X-01019Y00678*
X-01026Y00679*
Y00684*
X-01019Y00685*
X-01014Y00689*
X-0101Y00695*
X-01009Y00701*
Y00737*
X-0101Y00743*
X-01014Y00749*
X-0099Y00772*
X-00951*
X-00945Y00773*
X-0094Y00777*
X-00925Y00792*
X-00867*
Y00791*
G37*
G36*
X00724Y00429D02*
X00725Y00428D01*
X00721Y00423*
X0072Y00418*
Y00313*
X00716Y00309*
X00712Y00304*
X00711Y00298*
Y0023*
X0068*
X00673Y00229*
X00668Y00225*
X00666Y00223*
X00664*
X00661Y00224*
X00658Y00228*
X00654Y00231*
X00648Y00232*
X00648*
Y00248*
X00648Y00248*
X0065Y00257*
X00648Y00265*
X00644Y00272*
X00637Y00276*
X00629Y00278*
X00577*
X00576Y00281*
X0058Y00285*
X00629*
X00637Y00287*
X00644Y00292*
X00648Y00298*
X0065Y00307*
X00648Y00315*
X00647Y00316*
X00666Y00335*
X0067Y0034*
X00671Y00345*
Y00361*
X00686Y00376*
X0069Y00381*
X00691Y00387*
Y00431*
X00693Y00433*
X00722*
X00724Y00429*
G37*
G36*
X00889Y00521D02*
X0089Y00514D01*
X00894Y00509*
X00895Y00508*
X00893Y00504*
X00892Y00504*
X00883Y00502*
X00877Y00498*
X00875Y00496*
X0087Y00498*
Y005*
X00844*
Y00515*
X0087*
Y0052*
X0087Y00521*
X00873Y00524*
X00889*
Y00521*
G37*
G36*
X00817Y00507D02*
Y00496D01*
X00818Y0049*
X00821Y00485*
X00822Y00485*
Y00478*
X00821Y00478*
X00818Y00473*
X00817Y00467*
Y00443*
X00818Y00438*
X00821Y00433*
X0082Y00432*
X00819Y00428*
X00788*
X00784Y00428*
X0077*
X00766Y00432*
X00767Y00433*
Y00464*
X00812Y00509*
X00817Y00507*
G37*
G36*
X01036Y00617D02*
X01036Y00617D01*
X01037Y00608*
X01041Y00599*
X01046Y00592*
X01053Y00587*
X01062Y00583*
X01071Y00582*
X01079Y00583*
X01088Y00587*
X01095Y00592*
X011Y00593*
X01123Y00569*
Y00402*
X01124Y00396*
X01128Y00391*
X01131Y00387*
X01129Y00383*
X01128Y00383*
X01085*
X01079Y00382*
X01053Y00408*
Y00414*
X01057Y00416*
X01061Y00423*
X01063Y00431*
Y00483*
X01061Y00491*
X01057Y00498*
X0105Y00502*
X01042Y00504*
X01032Y00514*
X01033Y00514*
X01034Y00521*
Y00564*
X01033Y00571*
X01029Y00576*
X01023Y0058*
X01017Y00581*
X00981*
X00974Y0058*
X00969Y00576*
X00965Y00571*
X00964Y00564*
X00959*
X00958Y00571*
X00954Y00576*
X00949Y0058*
X00942Y00581*
X00906*
X009Y0058*
X00894Y00576*
X0089Y00571*
X00889Y00564*
Y00555*
X00821*
X00815Y00554*
X0081Y00551*
X00748Y00488*
X00743Y0049*
X00742Y00493*
X00738Y00498*
X00733Y00502*
X00726Y00503*
Y00508*
X00733Y00509*
X00738Y00513*
X00742Y00518*
X00743Y00525*
Y00555*
X00758Y0057*
X0076Y00572*
X00761Y00573*
X00768Y00578*
X00773Y00585*
X00777Y00594*
X00778Y00603*
X00777Y00611*
X00775Y00616*
X00778Y00621*
X01033*
X01036Y00617*
G37*
G36*
X-01024Y-00254D02*
X-01024Y-00254D01*
X-01025Y-00254*
X-0103Y-00258*
X-01033Y-00263*
X-01034Y-00267*
X-01039Y-00268*
X-01044Y-00272*
X-01047Y-00276*
X-01048Y-00281*
X-01053Y-00282*
X-01058Y-00286*
X-01061Y-0029*
X-01062Y-00295*
X-01065Y-00296*
X-01062Y-00299*
X-01061Y-00302*
X-01058Y-00307*
X-01037Y-00328*
X-01043Y-00334*
X-01064Y-00313*
X-01069Y-0031*
X-01072Y-0031*
X-01075Y-00306*
X-01076Y-00309*
X-01081Y-0031*
X-01086Y-00313*
X-01089Y-00318*
X-0109Y-00323*
X-01095Y-00324*
X-011Y-00327*
X-01101Y-0033*
X-01104Y-0033*
X-0111Y-00329*
X-01127*
X-01132Y-0033*
X-01137Y-00334*
X-01173Y-0037*
X-01177Y-00369*
X-01184Y-00364*
X-01193Y-0036*
X-01202Y-00359*
X-01209Y-0036*
X-01211Y-00355*
X-01207Y-00353*
X-01202Y-00346*
X-01198Y-00337*
X-01198Y-00336*
X-01189*
X-01183Y-00335*
X-01178Y-00331*
X-01096Y-00249*
X-01028*
X-01024Y-00254*
G37*
G36*
X01274Y00543D02*
X01274Y00541D01*
X0127Y00538*
X01266Y00538*
X0126Y00537*
X01259Y00537*
X01254Y00538*
X01253Y0054*
X01255Y00545*
X01264*
X0127Y00546*
X01274Y00543*
G37*
G36*
X00236Y-00974D02*
Y-01033D01*
X00275Y-01072*
Y-01129*
X0027Y-01132*
X00264Y-01131*
X00247*
Y-01208*
Y-01284*
X00264*
X0027Y-01283*
X00275Y-01286*
Y-01299*
X00227Y-01346*
X00222Y-01345*
X0022Y-01338*
X00214Y-01328*
X00206Y-01318*
X00197Y-01311*
X00186Y-01305*
X00175Y-01301*
X00163Y-013*
X00158Y-01301*
X00156Y-01296*
X0019Y-01262*
X00195Y-01265*
X00196Y-01271*
X00201Y-01278*
X00207Y-01282*
X00215Y-01284*
X00232*
Y-01208*
Y-01131*
X00215*
X00209Y-01132*
X00204Y-01129*
Y-011*
X00218Y-01085*
X00222Y-01081*
X00223Y-01075*
Y-01005*
X00222Y-00999*
X00218Y-00994*
X00202Y-00978*
Y-00947*
X00207Y-00945*
X00236Y-00974*
G37*
G36*
X00291Y00221D02*
D01*
X00298Y00217*
X00306Y00215*
X00386*
X00393Y00217*
X004Y00221*
X00402Y00223*
X00411Y00222*
X00421Y00223*
X0043Y00227*
X00435Y00231*
X0044Y00228*
Y00193*
X00435Y0019*
X0043Y00194*
X00421Y00198*
X00411Y00199*
X004Y00198*
X00391Y00194*
X00383Y00188*
X00377Y0018*
X00373Y00171*
X00372Y00161*
X00309*
X00275Y00195*
X00274Y00195*
X00245Y00225*
X0024Y00228*
X00239Y0023*
X00239Y00233*
X00239Y00234*
X00244Y00241*
X00248Y0025*
X00249Y00256*
X00254Y00258*
X00291Y00221*
G37*
G36*
X00064Y-00103D02*
X0007Y-00107D01*
X0007Y-00108*
X00071Y-00111*
X00071Y-00112*
X00066Y-00119*
X00062Y-00128*
X00061Y-00134*
X00056Y-00136*
X00044Y-00124*
X00037Y-0012*
X00029Y-00118*
X-00067*
X-00072Y-00111*
X-0008Y-00105*
X-00089Y-00101*
X-001Y-001*
X-0011Y-00101*
X-00119Y-00105*
X-00127Y-00111*
X-00132Y-00118*
X-0014*
X-00148Y-0012*
X-00155Y-00124*
X-00167Y-00136*
X-00172Y-00134*
X-00173Y-00128*
X-00177Y-00119*
X-00181Y-00113*
X-00181Y-00111*
X-00179Y-00108*
X-00172Y-00107*
X-00166Y-00102*
X-00129Y-00066*
X-00127Y-00066*
X-00119Y-00072*
X-0011Y-00076*
X-001Y-00077*
X-00089Y-00076*
X-0008Y-00072*
X-00072Y-00066*
X-00067Y-00059*
X0002*
X00064Y-00103*
G37*
G36*
X01242Y00867D02*
X01245Y00863D01*
X01245Y00863*
X01245Y00856*
X01241Y00851*
X01239Y00845*
X01238Y00845*
X01233Y00846*
X01232*
Y00811*
Y00776*
X01233*
X01237Y00773*
Y00755*
X0122*
X01213Y00754*
X01208Y0075*
X01204Y00744*
X01203Y00738*
X01198*
X01197Y00744*
X01193Y0075*
X01187Y00754*
X01181Y00755*
X01172*
X01172Y00756*
X0117Y0076*
X01172Y00763*
X01173Y00768*
Y00769*
X01103*
Y00768*
X01104Y00763*
X01107Y00759*
X01107Y00758*
X01105Y00754*
X01088*
X01087Y00756*
X01083Y00759*
X01078Y0076*
X01071*
Y00792*
X01078*
X01083Y00793*
X01087Y00796*
X01089Y008*
X0109Y00805*
Y00822*
X01089Y00827*
X01087Y00831*
X01083Y00834*
X01078Y00835*
X01034*
X01029Y00834*
X01026Y00832*
X01021Y00834*
X01022Y00836*
Y00851*
X01027Y00853*
X01032Y00849*
X01039Y00848*
X01074*
X01081Y00849*
X01086Y00853*
X0109Y00858*
X01091Y00865*
X01096*
X01098Y00858*
X01101Y00853*
X01107Y00849*
X01113Y00848*
X01149*
X01156Y00849*
X01161Y00853*
X01165Y00858*
X01165Y00861*
X01168Y00862*
X01171Y00862*
X01174Y0086*
X01179Y00859*
X01196*
X01201Y0086*
X01205Y00863*
X01208Y00867*
X01208Y00871*
X01241*
X01242Y00867*
G37*
G36*
X-00039Y-00879D02*
X00009D01*
Y-00887*
X00016*
Y-00908*
X00036*
X00044Y-00906*
X00051Y-00902*
X00056Y-00895*
X00057Y-00887*
X00058Y-00885*
X00147*
X00182Y-00921*
X0018Y-00926*
X00149*
X00142Y-00927*
X00137Y-00931*
X00133Y-00936*
X00132Y-00943*
X00127*
X00126Y-00936*
X00122Y-00931*
X00117Y-00927*
X0011Y-00926*
X00075*
X0007Y-00922*
X00064Y-00921*
X00051*
X00044Y-00917*
X00036Y-00915*
X-00018*
X-00026Y-00917*
X-00033Y-00922*
X-00038Y-00928*
X-00039Y-00937*
X-00038Y-00945*
X-00033Y-00952*
X-00026Y-00956*
X-00018Y-00958*
X00036*
X00044Y-00956*
X00051Y-00952*
X00057*
Y-00972*
X00052Y-00973*
X00051Y-00972*
X00044Y-00967*
X00036Y-00965*
X-00018*
X-00026Y-00967*
X-00033Y-00972*
X-00038Y-00978*
X-00039Y-00987*
X-00038Y-00995*
X-00033Y-01002*
X-00026Y-01006*
X-00018Y-01008*
X00035*
X00037Y-0101*
X00037Y-01012*
X00035Y-01015*
X00012*
X00009Y-01015*
X00005Y-01015*
X-00018*
X-00026Y-01017*
X-00033Y-01022*
X-00038Y-01028*
X-00039Y-01037*
X-00038Y-01045*
X-00033Y-01052*
X-00026Y-01056*
X-00018Y-01058*
X-00012*
Y-01065*
X-00018*
X-00026Y-01067*
X-00033Y-01072*
X-00038Y-01078*
X-00039Y-01087*
X-00038Y-01095*
X-00033Y-01102*
X-00026Y-01106*
X-00018Y-01108*
X-00012*
Y-01115*
X-00018*
X-00026Y-01117*
X-00033Y-01122*
X-00038Y-01128*
X-00039Y-01137*
X-00038Y-01145*
X-00033Y-01152*
X-00026Y-01156*
X-00018Y-01158*
X00005*
X00009Y-01158*
X00012Y-01158*
X00036*
X00044Y-01156*
X00051Y-01152*
X00056Y-01145*
X00057Y-01137*
X00057Y-01136*
X00062Y-01133*
X00065Y-01135*
X0007Y-01136*
X00094*
X001Y-01135*
X00105Y-01132*
X00105Y-01131*
X00112*
X00112Y-01132*
X00117Y-01135*
X00123Y-01136*
X00127*
Y-01109*
X00142*
Y-01136*
X00147*
X00148Y-01136*
X00153Y-0114*
Y-01183*
X00148Y-01187*
X00148Y-01187*
X00143*
Y-01214*
X00128*
Y-01187*
X00124*
X00118Y-01188*
X00113Y-01191*
X00113Y-01192*
X00106*
X00106Y-01191*
X00101Y-01188*
X00095Y-01187*
X00071*
X00066Y-01188*
X00062Y-0119*
X0006Y-0119*
X00057Y-01188*
X00057Y-01187*
X00056Y-01178*
X00051Y-01172*
X00044Y-01167*
X00036Y-01165*
X00016*
Y-01187*
Y-01208*
X0003*
X00033Y-01213*
X00031Y-01215*
X-00018*
X-00026Y-01217*
X-00033Y-01222*
X-00038Y-01228*
X-00039Y-01237*
X-00038Y-01241*
X-00085Y-01288*
X-0009Y-01294*
X-00091Y-01302*
Y-01385*
X-0009Y-01393*
X-00085Y-01399*
X-00082Y-01403*
Y-01424*
X-00084Y-01425*
X-00089Y-01432*
X-00092Y-01439*
X-00093Y-01447*
Y-01455*
X-00092Y-01463*
X-00089Y-01471*
X-00084Y-01477*
X-00078Y-01482*
X-0007Y-01485*
X-00062Y-01486*
X-00054Y-01485*
X-00047Y-01482*
X-00041Y-01477*
X-00036Y-01471*
X-00034Y-01466*
X-00028*
X-00026Y-01471*
X-00021Y-01477*
X-00015Y-01482*
X-00008Y-01485*
X0Y-01486*
X00008Y-01485*
X00015Y-01482*
X00021Y-01477*
X00026Y-01471*
X00028Y-01466*
X00034*
X00036Y-01471*
X00041Y-01477*
X00047Y-01482*
X00054Y-01485*
X00055Y-01485*
Y-01451*
X00062*
Y-01444*
X00093*
X00092Y-01439*
X00089Y-01432*
X00084Y-01425*
X00078Y-01421*
X0007Y-01417*
X00064Y-01417*
X00061Y-01412*
X00078Y-01395*
X00082Y-0139*
X00083Y-01384*
Y-0135*
X00107Y-01326*
X00111Y-01329*
X00106Y-01338*
X00103Y-0135*
X00101Y-01362*
Y-01454*
X00103Y-01466*
X00106Y-01478*
X00112Y-01488*
X00119Y-01498*
X00129Y-01505*
X00139Y-01511*
X00151Y-01515*
X00163Y-01516*
X00175Y-01515*
X00186Y-01511*
X00197Y-01505*
X00206Y-01498*
X00211Y-01492*
X00216Y-01494*
Y-01515*
X00196Y-01535*
X-00196*
X-00216Y-01515*
Y-01494*
X-00211Y-01492*
X-00206Y-01498*
X-00197Y-01505*
X-00186Y-01511*
X-00175Y-01515*
X-00163Y-01516*
X-00151Y-01515*
X-00139Y-01511*
X-00129Y-01505*
X-00119Y-01498*
X-00112Y-01488*
X-00106Y-01478*
X-00103Y-01466*
X-00101Y-01454*
Y-01362*
X-00103Y-0135*
X-00106Y-01338*
X-00112Y-01328*
X-00119Y-01318*
X-00129Y-01311*
X-00139Y-01305*
X-00151Y-01301*
X-00163Y-013*
X-00175Y-01301*
X-00186Y-01305*
X-00197Y-01311*
X-00206Y-01318*
X-00209Y-01322*
X-00215Y-01321*
X-00215Y-01318*
X-00098Y-012*
Y-00895*
X-00078Y-00875*
X-00041*
X-00039Y-00879*
G37*
G36*
X01037Y-00559D02*
X01044Y-00565D01*
X01052Y-00568*
X01061Y-00569*
X01079*
X01083Y-00573*
Y-00615*
Y-00617*
X01078Y-0062*
X01026*
X01026Y-00615*
X01022Y-0061*
X01018Y-00607*
X01017Y-00606*
Y-00602*
X01018Y-00601*
X01022Y-00598*
X01026Y-00593*
X01027Y-00586*
Y-00556*
X01031Y-00554*
X01037Y-00559*
G37*
G36*
X-00789Y00847D02*
X-00789Y00844D01*
Y0084*
X-00794Y00838*
X-00794Y00838*
X-008Y00842*
X-00806Y00843*
X-0085*
X-00857Y00842*
X-00862Y00838*
X-00866Y00833*
X-00867Y00826*
Y00823*
X-00931*
X-00937Y00822*
X-00942Y00818*
X-00957Y00803*
X-00996*
X-01002Y00802*
X-01007Y00798*
X-01052Y00754*
X-0107*
X-01076Y00753*
X-01082Y00749*
X-01085Y00743*
X-01087Y00737*
Y00701*
X-01087Y00701*
X-01202*
X-01207Y007*
X-01212Y00696*
X-01324Y00584*
X-01328Y00579*
X-01329Y00574*
Y00387*
X-01373Y00343*
X-014*
X-01406Y00342*
X-01412Y00338*
X-01416Y00333*
X-01417Y00326*
Y00299*
X-01453Y00263*
X-01457Y00258*
X-01458Y00252*
Y00001*
X-01462Y0*
X-01469Y00006*
Y00336*
X-01439*
X-01432Y00337*
X-01427Y00341*
X-01423Y00347*
X-01422Y00353*
Y00388*
X-01413Y00397*
X-01411Y00396*
X-01405Y00395*
X-01361*
X-01355Y00396*
X-01349Y004*
X-01345Y00406*
X-01344Y00412*
Y00448*
X-01345Y00454*
X-01349Y0046*
X-01355Y00464*
X-01361Y00465*
Y0047*
X-01355Y00471*
X-01349Y00475*
X-01345Y0048*
X-01344Y00487*
Y00523*
X-01345Y00529*
X-01349Y00535*
X-01355Y00538*
X-01361Y0054*
X-01368*
Y00563*
X-01217Y00714*
X-01145*
X-0114Y00715*
X-01135Y00719*
X-01082Y00771*
X-01066*
X-0106Y00772*
X-01055Y00775*
X-00979Y00852*
X-00793*
X-00789Y00847*
G37*
G36*
X00113Y-01236D02*
X00118Y-01239D01*
X00124Y-0124*
X00134*
X00136Y-01245*
X00123Y-01258*
X00109*
X00104Y-01259*
X00099Y-01263*
X00053Y-01309*
X00016*
X0001Y-0131*
X00005Y-01313*
X-00015Y-01334*
X-00016Y-01334*
X-00023Y-01331*
X-00031Y-0133*
X-00039Y-01331*
X-00046Y-01334*
X-00048Y-01335*
X-00052Y-01333*
Y-0131*
X0Y-01258*
X00036*
X00044Y-01256*
X00051Y-01252*
X00052Y-0125*
X00064Y-01238*
X00066Y-01239*
X00071Y-0124*
X00095*
X00101Y-01239*
X00106Y-01236*
X00106Y-01235*
X00113*
X00113Y-01236*
G37*
G36*
X008Y-00515D02*
X00798Y-00517D01*
X00792Y-00524*
X0079Y-0053*
X00787Y-00529*
X00743*
X00738Y-0053*
X00734Y-00533*
X00731Y-00537*
X0073Y-00542*
Y-00558*
X00731Y-00563*
X00734Y-00567*
X00738Y-0057*
X00743Y-00571*
X00787*
X00792Y-0057*
X00796Y-00567*
X00802Y-00568*
X00805Y-00571*
X0081Y-00573*
X00813Y-00574*
X00813Y-00579*
X00813Y-00579*
Y-00596*
X00814Y-00601*
X00817Y-00605*
X00821Y-00608*
X00826Y-00609*
X00853*
X00882Y-00637*
Y-00665*
X00883Y-00672*
X00887Y-00677*
X00893Y-00681*
X00899Y-00682*
X00935*
X00942Y-00681*
X00947Y-00677*
X00951Y-00672*
X00952Y-00665*
X00957*
X00958Y-00672*
X00962Y-00677*
X00967Y-00681*
X00974Y-00682*
X0101*
X01016Y-00681*
X01022Y-00677*
X01026Y-00672*
X01027Y-00665*
Y-00652*
X01042*
X01045Y-00656*
Y-007*
X00989Y-00756*
X00983Y-00755*
X00981Y-00752*
X00976Y-00748*
X00969Y-00747*
X00933*
X00927Y-00748*
X00921Y-00752*
X00918Y-00758*
X00916Y-00764*
X00911*
X0091Y-00758*
X00906Y-00752*
X00901Y-00748*
X00894Y-00747*
X00859*
X00852Y-00748*
X00847Y-00752*
X00846Y-00752*
X00841Y-00751*
Y-00746*
X0084Y-0074*
X00837Y-00736*
X00833Y-00733*
X00827Y-00731*
X00822*
Y-00758*
X00814*
Y-00765*
X00787*
Y-0077*
X00789Y-00775*
X00792Y-0078*
X00793Y-00781*
Y-00787*
X00792Y-00788*
X00789Y-00793*
X00787Y-00798*
Y-00816*
X00773*
Y-00656*
X00772Y-00651*
X00777Y-00646*
X00787*
X00792Y-00645*
X00796Y-00642*
X00799Y-00638*
X008Y-00633*
Y-00617*
X00799Y-00612*
X00796Y-00608*
X00792Y-00605*
X00787Y-00604*
X00743*
X00738Y-00605*
X00737Y-00605*
X00708Y-00576*
X0071Y-00573*
X00711Y-0056*
X0071Y-00547*
X00707Y-0054*
X00737Y-0051*
X00799*
X008Y-00515*
G37*
G36*
X-00261Y-00102D02*
X-00255Y-00107D01*
X-00247Y-00108*
X-00242*
X-0024Y-00113*
X-00244Y-00119*
X-00248Y-00128*
X-00249Y-00139*
X-00248Y-00149*
X-00247Y-00151*
X-00251Y-00154*
X-00281Y-00124*
X-00288Y-0012*
X-00296Y-00118*
X-00378*
X-00383Y-00111*
X-00391Y-00105*
X-004Y-00101*
X-00411Y-001*
X-00421Y-00101*
X-0043Y-00105*
X-00438Y-00111*
X-00443Y-00118*
X-00459*
X-00466Y-0012*
X-00469Y-00121*
X-00472Y-00118*
X-00471Y-00115*
X-00469Y-00108*
Y-00091*
X-00466*
X-00458Y-00089*
X-00452Y-00085*
X-00436Y-00069*
X-00433Y-00071*
X-0043Y-00072*
X-0043Y-00072*
X-00421Y-00076*
X-00411Y-00077*
X-004Y-00076*
X-00391Y-00072*
X-00383Y-00066*
X-00378Y-00059*
X-00305*
X-00261Y-00102*
G37*
G36*
X01503Y0086D02*
Y00687D01*
X01499Y00685*
X01476Y00708*
Y0081*
X01475Y00816*
X01472Y00821*
X01358Y00935*
X0136Y00939*
X01424*
X01503Y0086*
G37*
G36*
X-01517Y00682D02*
X-0151D01*
X-01506Y00681*
X-01505Y00677*
Y00646*
X-01537Y00614*
X-01541Y00609*
X-01542Y00603*
Y-00012*
X-01541Y-00017*
X-01537Y-00022*
X-01533Y-00025*
X-01476Y-00082*
X-01477Y-00087*
X-01478Y-00088*
X-01481Y-00093*
X-01482Y-00098*
X-01487Y-00099*
X-01492Y-00102*
X-01495Y-00107*
X-01496Y-00112*
X-01499Y-00115*
X-01504*
X-01512Y-00117*
X-01516Y-00119*
X-01533*
X-01539Y-0012*
X-01543Y-00123*
X-01546Y-00128*
X-01547Y-00133*
Y-00157*
X-01546Y-00163*
X-01543Y-00168*
X-01542Y-00168*
Y-00175*
X-01543Y-00175*
X-01546Y-0018*
X-01547Y-00186*
Y-0021*
X-01546Y-00215*
X-01543Y-0022*
X-01539Y-00223*
X-01533Y-00224*
X-01528*
Y-00198*
X-01521*
Y-0019*
X-01494*
Y-00186*
X-01495Y-0018*
X-01498Y-00175*
X-01499Y-00175*
Y-00168*
X-01498Y-00168*
X-01495Y-00163*
X-01494Y-00159*
X-01467*
X-01459Y-00157*
X-01458Y-00157*
X-0145Y-00165*
X-01447Y-00167*
X-01439Y-00175*
X-01438Y-00176*
X-01433Y-0018*
X-01427Y-00181*
X-01337*
X-01331Y-0018*
X-01326Y-00176*
X-01325Y-00175*
X-01223*
X-01221Y-00177*
X-01216Y-00181*
X-0121Y-00182*
X-01161*
X-01157Y-00188*
X-0115Y-00193*
X-01141Y-00197*
X-01133Y-00198*
X-01124Y-00197*
X-01115Y-00193*
X-01108Y-00188*
X-01103Y-00181*
X-01099Y-00172*
X-01098Y-00164*
X-01099Y-00155*
X-01103Y-00146*
X-01108Y-00139*
X-01115Y-00134*
X-01124Y-0013*
X-01133Y-00129*
X-01141Y-0013*
X-0115Y-00134*
X-01157Y-00139*
X-01162Y-00146*
X-01164Y-00151*
X-01204*
X-01206Y-00149*
X-01211Y-00145*
X-01217Y-00144*
X-01331*
X-01337Y-00145*
X-01342Y-00149*
X-01343Y-0015*
X-01409*
X-01411Y-00146*
X-01409Y-00141*
X-01406Y-0014*
X-01401Y-00137*
X-01398Y-00132*
X-01397Y-00127*
X-01392Y-00127*
X-01387Y-00123*
X-01384Y-00118*
X-01383Y-00114*
X-01378Y-00113*
X-01373Y-00109*
X-0137Y-00104*
X-01369Y-001*
X-01364Y-00099*
X-01359Y-00095*
X-01359Y-00095*
X-01353*
X-01353Y-00095*
X-01348Y-00099*
X-01342Y-001*
X-0134*
X-0134Y-001*
X-01338Y-00103*
X-01315Y-00126*
X-0131Y-0013*
X-01304Y-00131*
X-01206*
X-012Y-0013*
X-01195Y-00126*
X-01189Y-0012*
X-01185Y-0012*
X-01176Y-00116*
X-01169Y-00111*
X-01164Y-00104*
X-0116Y-00095*
X-0116Y-00091*
X-01136Y-00068*
X-01084*
X-01079Y-00067*
X-01077Y-00066*
X-01072Y-00067*
X-01072Y-00068*
X-01067Y-00071*
X-01062Y-00072*
X-01061Y-00077*
X-01058Y-00082*
X-01053Y-00085*
X-01048Y-00086*
X-01047Y-00091*
X-01044Y-00095*
X-01039Y-00099*
X-01034Y-001*
X-01033Y-00104*
X-0103Y-00109*
X-01025Y-00113*
X-0102Y-00114*
X-01019Y-00118*
X-01016Y-00123*
X-01011Y-00127*
X-01006Y-00127*
X-01005Y-00132*
X-01002Y-00137*
X-00997Y-0014*
X-00992Y-00141*
X-00991Y-00146*
X-00988Y-00151*
X-00983Y-00154*
X-00978Y-00155*
X-00977Y-0016*
X-00974Y-00165*
X-00969Y-00168*
X-00964Y-00169*
X-00958Y-00168*
X-00953Y-00165*
X-00911Y-00123*
X-0091Y-00121*
X-00899Y-0011*
X-00897Y-00112*
X-00889Y-00114*
X-00826*
X-00817Y-00112*
X-00817Y-00112*
X-0081*
X-00803Y-0011*
X-00796Y-00106*
X-00792Y-00102*
X-00791Y-00102*
X-00787Y-00104*
X-00784Y-00105*
X-00767*
X-00764Y-00104*
X-00763Y-00103*
X-00761Y-00104*
X-00758Y-00105*
X-00741*
X-00738Y-00104*
X-00734Y-00102*
X-00733Y-00102*
X-00728Y-00106*
X-00722Y-0011*
X-00715Y-00112*
X-00708*
X-00708Y-00112*
X-007Y-00114*
X-00649*
X-00647Y-00117*
X-00649Y-00121*
X-007*
X-00708Y-00123*
X-00715Y-00128*
X-00719Y-00134*
X-00721Y-00143*
X-0072Y-00149*
X-00722Y-00154*
X-00803*
X-00805Y-0015*
X-00908*
X-00908Y-00151*
X-00904Y-00158*
X-00897Y-00162*
X-00889Y-00164*
X-00858*
X-00856Y-00168*
X-00921Y-00234*
X-00953Y-00202*
X-00958Y-00199*
X-00964Y-00198*
X-00969Y-00199*
X-00974Y-00202*
X-00977Y-00207*
X-00978Y-00212*
X-00983Y-00213*
X-00988Y-00216*
X-0099Y-00219*
X-00993Y-00219*
X-00999Y-00218*
X-01102*
X-01108Y-00219*
X-01113Y-00223*
X-01195Y-00305*
X-01207*
X-01207Y-00304*
X-01214Y-00299*
X-01223Y-00295*
X-01232Y-00294*
X-0124Y-00295*
X-01249Y-00299*
X-01256Y-00304*
X-01261Y-00311*
X-01265Y-0032*
X-01266Y-00328*
X-0127Y-0033*
X-01281Y-0032*
X-01286Y-00316*
X-01292Y-00315*
X-01307*
X-01313Y-00316*
X-01313*
X-01318Y-0032*
X-0132Y-00324*
X-01322Y-00325*
X-01325Y-00327*
X-01346Y-00348*
X-01352Y-00342*
X-01331Y-00321*
X-01328Y-00316*
X-01328Y-00313*
X-01324Y-0031*
X-01327Y-00309*
X-01328Y-00304*
X-01331Y-00299*
X-01336Y-00296*
X-01341Y-00295*
X-01342Y-0029*
X-01345Y-00286*
X-0135Y-00282*
X-01355Y-00281*
X-01356Y-00276*
X-01359Y-00272*
X-01364Y-00268*
X-01369Y-00267*
X-0137Y-00263*
X-01373Y-00258*
X-01378Y-00254*
X-01383Y-00253*
X-01384Y-00249*
X-01387Y-00244*
X-01388Y-00243*
X-01389Y-00238*
X-01375Y-00224*
X-01334*
X-01298Y-0026*
X-01293Y-00263*
X-01287Y-00264*
X-01236*
X-01234Y-00268*
X-01229Y-00275*
X-01222Y-0028*
X-01213Y-00284*
X-01205Y-00285*
X-01196Y-00284*
X-01187Y-0028*
X-0118Y-00275*
X-01175Y-00268*
X-01171Y-00259*
X-0117Y-00251*
X-01171Y-00242*
X-01175Y-00233*
X-0118Y-00226*
X-01187Y-00221*
X-01196Y-00217*
X-01205Y-00216*
X-01213Y-00217*
X-01222Y-00221*
X-01229Y-00226*
X-01234Y-00233*
X-01234Y-00234*
X-01281*
X-01317Y-00198*
X-01322Y-00194*
X-01328Y-00193*
X-0138*
X-01385Y-00194*
X-0139Y-00198*
X-01393Y-00202*
X-01409Y-00218*
X-01414Y-00217*
X-01415Y-00216*
X-0142Y-00213*
X-01425Y-00212*
X-01426Y-00207*
X-01429Y-00202*
X-01434Y-00199*
X-01439Y-00198*
X-01445Y-00199*
X-0145Y-00202*
X-01488Y-0024*
X-01488*
X-01494Y-00241*
X-01499Y-00244*
X-0155Y-00295*
X-01555Y-00293*
Y00681*
X-0155Y00684*
X-01549Y00683*
X-01543Y00682*
X-01532*
Y0072*
X-01517*
Y00682*
G37*
G36*
X01555Y00876D02*
Y-01171D01*
X01446Y-01279*
X00524*
X00521Y-01274*
X00523Y-01271*
X00524Y-01264*
Y-01215*
X00435*
Y-01264*
X00436Y-01271*
X00438Y-01274*
X00435Y-01279*
X00393*
X00354Y-0124*
Y-01053*
X00315Y-01013*
Y-00944*
X00177Y-00806*
X00069*
X00059Y-00797*
X-00108*
X-00177Y-00866*
Y-01171*
X-00285Y-01279*
X-01456*
X-01555Y-01181*
Y-00355*
X-0155Y-00353*
X-01523Y-0038*
X-01523Y-00385*
X-01527Y-00388*
X-01533Y-00396*
X-01537Y-00405*
X-01538Y-00416*
X-01537Y-00426*
X-01533Y-00435*
X-01527Y-00443*
X-01519Y-00449*
X-0151Y-00453*
X-015Y-00454*
X-01489Y-00453*
X-0148Y-00449*
X-01475Y-00445*
X-0147Y-00448*
Y-00465*
X-01485Y-0048*
X-01489Y-00478*
X-015Y-00477*
X-0151Y-00478*
X-01519Y-00482*
X-01527Y-00488*
X-01533Y-00496*
X-01537Y-00505*
X-01538Y-00516*
X-01537Y-00526*
X-01533Y-00535*
X-01527Y-00543*
X-01519Y-00549*
X-0151Y-00553*
X-015Y-00554*
X-01489Y-00553*
X-0148Y-00549*
X-01472Y-00543*
X-01466Y-00535*
X-01462Y-00526*
X-01461Y-00516*
X-01462Y-00505*
X-01464Y-00501*
X-01444Y-00482*
X-01441Y-00477*
X-0144Y-00471*
Y-00397*
X-01441Y-00391*
X-0144Y-00391*
X-0144Y-00391*
X-01435Y-00388*
X-01432Y-00384*
X-0145Y-00365*
X-01445Y-0036*
X-0145Y-00355*
X-01431Y-00336*
X-01434Y-00332*
X-01439Y-00329*
X-01445Y-00328*
X-01446Y-00329*
X-01451Y-00324*
X-0145Y-00323*
X-01451Y-00317*
X-01454Y-00312*
X-01456Y-00311*
X-01455Y-00309*
X-01454Y-00309*
X-01449Y-00308*
X-01445Y-0031*
X-01441Y-00311*
X-0144Y-00316*
X-01436Y-00321*
X-01431Y-00324*
X-01427Y-00325*
X-01426Y-0033*
X-01422Y-00335*
X-01418Y-00338*
X-01413Y-00339*
X-01412Y-00344*
X-01409Y-00349*
X-01404Y-00352*
X-01399Y-00353*
X-01398Y-00358*
X-01395Y-00363*
X-0139Y-00366*
X-01385Y-00367*
X-01384Y-00372*
X-01381Y-00377*
X-0138Y-00377*
X-01379Y-00384*
X-01381Y-00386*
X-01382Y-00391*
Y-00405*
X-01396Y-00419*
X-01396Y-00419*
X-01397Y-0042*
X-014*
X-01406Y-00421*
X-0141Y-00424*
X-01413Y-00429*
X-01414Y-00434*
Y-00458*
X-01413Y-00464*
X-0141Y-00469*
X-01409Y-00469*
Y-00476*
X-0141Y-00476*
X-01413Y-00481*
X-01414Y-00487*
Y-00491*
X-01361*
Y-00487*
X-01362Y-00481*
X-01365Y-00476*
X-01366Y-00476*
Y-00469*
X-01365Y-00469*
X-01362Y-00464*
X-01361Y-00458*
Y-00446*
X-01347Y-00432*
X-01344Y-00434*
X-01343Y-00435*
Y-00467*
X-01341Y-00473*
X-01338Y-00478*
X-01333Y-00483*
X-01333Y-00488*
X-01334Y-00488*
X-01339Y-00496*
X-01343Y-00504*
X-01344Y-00513*
X-01343Y-00522*
X-01339Y-0053*
X-01334Y-00537*
X-01327Y-00542*
X-01319Y-00546*
X-0131Y-00547*
X-01301Y-00546*
X-01292Y-00542*
X-01285Y-00537*
X-0128Y-0053*
X-01277Y-00522*
X-01275Y-00513*
X-01276Y-00505*
X-01274Y-005*
X-01158*
X-01144Y-00513*
X-01145Y-00514*
X-01146Y-00523*
X-01145Y-00531*
X-01141Y-0054*
X-01136Y-00547*
X-01129Y-00552*
X-0112Y-00556*
X-01112Y-00557*
X-01103Y-00556*
X-01094Y-00552*
X-01087Y-00547*
X-01082Y-0054*
X-01078Y-00531*
X-01078Y-00528*
X-01073Y-00526*
X-01024Y-00574*
X-01019Y-00578*
X-01014Y-00579*
X-0099*
X-00955Y-00613*
X-0095Y-00617*
X-00945Y-00618*
X-00886*
X-00886Y-00618*
X-00877Y-00622*
X-00869Y-00623*
X-0086Y-00622*
X-00851Y-00618*
X-00844Y-00613*
X-00839Y-00606*
X-00835Y-00597*
X-00834Y-00589*
X-00835Y-0058*
X-00839Y-00571*
X-00844Y-00564*
X-00851Y-00559*
X-0086Y-00555*
X-00869Y-00554*
X-00877Y-00555*
X-00886Y-00559*
X-00893Y-00564*
X-00898Y-00571*
X-00902Y-0058*
X-00903Y-00587*
X-00938*
X-00973Y-00553*
X-00978Y-00549*
X-00984Y-00548*
X-01007*
X-01084Y-00472*
X-01089Y-00468*
X-01095Y-00467*
X-01101*
X-01104Y-00465*
X-01106Y-0046*
X-01103Y-00455*
X-01102Y-0045*
X-01097Y-00449*
X-01092Y-00446*
X-01006Y-00532*
X-01001Y-00536*
X-00995Y-00537*
X-0085*
X-00717Y-00669*
X-00712Y-00673*
X-00707Y-00674*
X-00636*
X-00566Y-00744*
Y-00812*
X-00565Y-00817*
X-00562Y-00822*
X-00407Y-00977*
X-00408Y-00978*
X-00409Y-00987*
X-00408Y-00995*
X-00403Y-01002*
X-00396Y-01006*
X-00388Y-01008*
X-00333*
X-00325Y-01006*
X-00318Y-01002*
X-00313Y-00995*
X-00312Y-00987*
X-00313Y-00978*
X-00318Y-00972*
X-00325Y-00967*
X-00333Y-00965*
X-00375*
X-00377Y-00962*
X-00375Y-00958*
X-00333*
X-00325Y-00956*
X-00318Y-00952*
X-00313Y-00945*
X-00312Y-00937*
X-00313Y-00928*
X-00318Y-00922*
X-00325Y-00917*
X-00333Y-00915*
X-00388*
X-00396Y-00917*
X-00516Y-00797*
Y-00729*
X-00517Y-00723*
X-0052Y-00718*
X-00611Y-00628*
X-00616Y-00624*
X-00622Y-00623*
X-00692*
X-00824Y-00491*
X-00829Y-00487*
X-00835Y-00486*
X-00907*
X-0091Y-00482*
X-0091Y-00481*
X-00905Y-00478*
X-00902Y-00474*
X-00901Y-00468*
Y-00463*
X-00927*
Y-00448*
X-00901*
Y-00443*
X-00901Y-00441*
X-00898Y-00436*
X-00854*
X-00838Y-00452*
X-00833Y-00455*
X-00828Y-00456*
X-0072*
X-00715Y-00455*
X-0071Y-00452*
X-00695Y-00437*
X-00678*
X-00672Y-00436*
X-00668Y-00433*
X-00665Y-00428*
X-00664Y-00426*
X-00646*
X-00642Y-00426*
X-00636Y-00428*
X-00626Y-00429*
X-00616Y-00428*
X-00608Y-00424*
X-006Y-00419*
X-00594Y-00411*
X-0059Y-00402*
X-00589Y-00393*
X-0059Y-00383*
X-00594Y-00374*
X-006Y-00366*
X-00608Y-00361*
X-00616Y-00357*
X-00626Y-00356*
X-00636Y-00357*
X-00644Y-00361*
X-00652Y-00366*
X-00658Y-00374*
X-00662Y-00383*
X-00662Y-00384*
X-00667Y-00386*
X-00667Y-00386*
X-00668Y-00381*
X-00665Y-00376*
X-00664Y-0037*
Y-00366*
X-00717*
Y-0037*
X-00716Y-00376*
X-00713Y-00381*
X-00712Y-00381*
Y-00388*
X-00713Y-00388*
X-00716Y-00393*
X-00717Y-00399*
Y-00419*
X-00723Y-00424*
X-00726Y-00423*
X-00728Y-00422*
Y-00399*
X-00729Y-00393*
X-00732Y-00388*
X-00733Y-00388*
Y-00381*
X-00732Y-00381*
X-00729Y-00376*
X-00728Y-0037*
Y-00366*
X-00781*
Y-0037*
X-00781Y-00374*
X-00786Y-00376*
X-00786Y-00374*
X-00792Y-00366*
X-008Y-00361*
X-00809Y-00357*
X-00818Y-00356*
X-00828Y-00357*
X-00837Y-00361*
X-00844Y-00366*
X-0085Y-00374*
X-00854Y-00383*
X-00855Y-00389*
X-0099*
X-0101Y-00369*
X-0101Y-00364*
X-01008Y-00363*
X-01008Y-00361*
X-01003Y-00361*
X-00994Y-0037*
X-00991Y-00374*
X-00986Y-00377*
X-0098Y-00378*
X-00888*
X-00882Y-00377*
X-00877Y-00374*
X-00788Y-00285*
X-00695*
X-00659Y-00321*
X-00654Y-00324*
X-00648Y-00325*
X-00569*
X-00537Y-00357*
Y-00607*
X-00536Y-00613*
X-00532Y-00618*
X-00465Y-00685*
X-0046Y-00688*
X-00454Y-0069*
X-00431*
X-0043Y-00695*
X-00431Y-00695*
X-00441Y-00703*
X-00449Y-00713*
X-00454Y-00724*
X-00455Y-00737*
X-00454Y-0075*
X-00449Y-00761*
X-00441Y-00772*
X-00431Y-00779*
X-00419Y-00784*
X-00407Y-00786*
X-00394Y-00784*
X-00382Y-00779*
X-00372Y-00772*
X-00364Y-00761*
X-00359Y-0075*
X-00358Y-00737*
X-00359Y-00724*
X-00364Y-00713*
X-00372Y-00703*
X-00382Y-00695*
X-00383Y-00695*
X-00382Y-0069*
X-0035*
Y-00699*
X-00349Y-00706*
X-00345Y-00711*
X-0034Y-00715*
X-00333Y-00716*
Y-00721*
X-0034Y-00723*
X-00345Y-00726*
X-00349Y-00732*
X-0035Y-00738*
Y-00749*
X-00273*
Y-00738*
X-00274Y-00732*
X-00278Y-00726*
X-00283Y-00723*
X-0029Y-00721*
Y-00716*
X-00283Y-00715*
X-00278Y-00711*
X-00274Y-00706*
X-00273Y-00699*
Y-00664*
X-00273Y-0066*
X-0027Y-00655*
X-00262*
Y-00679*
X-00261Y-00685*
X-00257Y-00691*
X-00252Y-00694*
X-00245Y-00696*
Y-00701*
X-00252Y-00702*
X-00257Y-00706*
X-00261Y-00711*
X-00262Y-00718*
Y-00728*
X-00185*
Y-00718*
X-00186Y-00711*
X-0019Y-00706*
X-00195Y-00702*
X-00202Y-00701*
Y-00696*
X-00195Y-00694*
X-00191Y-00691*
X-00169Y-00712*
X-0017Y-00713*
X-00175Y-00724*
X-00176Y-00737*
X-00175Y-0075*
X-0017Y-00761*
X-00162Y-00772*
X-00152Y-00779*
X-0014Y-00784*
X-00127Y-00786*
X-00115Y-00784*
X-00103Y-00779*
X-00093Y-00772*
X-00085Y-00761*
X-0008Y-0075*
X-00079Y-00737*
X-0008Y-00726*
X-00077Y-00721*
X00077*
X0008Y-00726*
X00079Y-00737*
X0008Y-0075*
X00085Y-00761*
X00093Y-00772*
X00103Y-00779*
X00115Y-00784*
X00127Y-00786*
X0014Y-00784*
X00152Y-00779*
X00162Y-00772*
X0017Y-00761*
X00175Y-0075*
X00176Y-00737*
X00175Y-00724*
X0017Y-00713*
X00162Y-00703*
X00152Y-00695*
X0014Y-0069*
X00127Y-00688*
X00115Y-0069*
X00105Y-00694*
X00102Y-00692*
X00097Y-00691*
X-00097*
X-00102Y-00692*
X-00105Y-00694*
X-00115Y-0069*
X-00127Y-00688*
X-0014Y-0069*
X-00146Y-00692*
X-00185Y-00654*
Y-00643*
X-00184Y-00643*
X-0018Y-00641*
X-00176Y-00645*
X-00171Y-00648*
X-00165Y-0065*
X-00097*
X-00091Y-00648*
X-00086Y-00645*
X-00076Y-00635*
X00076*
X00086Y-00645*
X00091Y-00648*
X00097Y-0065*
X00158*
X00164Y-00648*
X00169Y-00645*
X00179Y-00635*
X00189*
Y-00659*
X0019Y-00666*
X00194Y-00671*
X00199Y-00675*
X00206Y-00676*
Y-00681*
X00199Y-00683*
X00194Y-00686*
X0019Y-00692*
X00189Y-00698*
Y-00709*
X00266*
Y-00698*
X00265Y-00692*
X00261Y-00686*
X00256Y-00683*
X00249Y-00681*
Y-00676*
X00256Y-00675*
X00261Y-00671*
X00265Y-00666*
X00266Y-00659*
Y-00635*
X00355*
X00365Y-00645*
X0037Y-00648*
X00376Y-0065*
X00391*
Y-00691*
X00382Y-00695*
X00372Y-00703*
X00364Y-00713*
X00359Y-00724*
X00358Y-00737*
X00359Y-0075*
X00364Y-00761*
X00372Y-00772*
X00382Y-00779*
X00394Y-00784*
X00407Y-00786*
X00419Y-00784*
X00431Y-00779*
X00441Y-00772*
X00449Y-00761*
X00454Y-0075*
X00455Y-00737*
X00454Y-00724*
X00449Y-00713*
X00441Y-00703*
X00431Y-00695*
X00422Y-00691*
Y-0065*
X00437*
X00443Y-00648*
X00448Y-00645*
X00458Y-00635*
X00554*
X0059Y-00671*
X00595Y-00675*
X00601Y-00676*
X00662*
X00667Y-00681*
X00667Y-00684*
X00663Y-00688*
X00662Y-00688*
X0065Y-0069*
X00638Y-00695*
X00628Y-00703*
X0062Y-00713*
X00615Y-00724*
X00614Y-00737*
X00615Y-0075*
X0062Y-00761*
X00628Y-00772*
X00638Y-00779*
X0065Y-00784*
X00662Y-00786*
X00675Y-00784*
X00687Y-00779*
X00697Y-00772*
X00697Y-00771*
X00702Y-00773*
Y-00816*
X00635*
X00631Y-00816*
X00578*
X00575Y-00816*
X00449*
X00441Y-00817*
X00436Y-00814*
X00428Y-00812*
X00371*
X00346Y-00787*
Y-00782*
X00345Y-00776*
X00342Y-00771*
X00341Y-00771*
Y-00764*
X00342Y-00764*
X00345Y-00759*
X00346Y-00753*
Y-00749*
X00293*
Y-00753*
X00294Y-00759*
X00297Y-00764*
X00298Y-00764*
Y-00771*
X00297Y-00771*
X00294Y-00776*
X00293Y-0078*
X00289Y-00782*
X00288Y-00782*
X00285Y-0078*
X00276Y-00776*
X00268Y-00775*
X00259Y-00776*
X0025Y-0078*
X00243Y-00785*
X00238Y-00792*
X00234Y-00801*
X00233Y-0081*
X00234Y-00818*
X00238Y-00827*
X00243Y-00834*
X0025Y-00839*
X00259Y-00843*
X00259Y-00843*
Y-00862*
X0026Y-00868*
X00264Y-00873*
X00287Y-00896*
X00292Y-009*
X00298Y-00901*
X00332*
X00334Y-009*
X00335Y-009*
X00335Y-00901*
X0038*
Y-00916*
X0034*
X00342Y-0092*
Y-00923*
X00339Y-00928*
X00338Y-00934*
X00339Y-0094*
X00341Y-00943*
X00342Y-00947*
X00341Y-00951*
X00339Y-00953*
X00338Y-0096*
X00339Y-00966*
X00342Y-00971*
Y-00974*
X00339Y-00979*
X00338Y-00985*
X00339Y-00991*
X00342Y-00997*
X00348Y-01*
X00354Y-01001*
X00407*
X00411Y-01001*
X00425*
X00426Y-01002*
X00427Y-0101*
X00431Y-01019*
X00436Y-01026*
X00443Y-01031*
X00452Y-01035*
X00461Y-01036*
X00469Y-01035*
X00478Y-01031*
X00485Y-01026*
X0049Y-01019*
X00494Y-0101*
X00494Y-01007*
X00499Y-01005*
X00517Y-01023*
Y-01095*
X00518Y-01101*
X00522Y-01107*
X00634Y-01219*
X00639Y-01223*
X00646Y-01224*
X01013*
X0102Y-01223*
X01025Y-01219*
X01078Y-01166*
X01081Y-01161*
X01083Y-01155*
Y-00998*
X01081Y-00992*
X01078Y-00987*
X01055Y-00964*
Y-00925*
X01058Y-0092*
X0106Y-00912*
Y-00861*
X01058Y-00852*
X01054Y-00846*
X01047Y-00841*
X01039Y-00839*
X0103Y-00841*
X01024Y-00846*
X01019Y-00852*
X01017Y-00861*
Y-00912*
X01019Y-0092*
X01022Y-00925*
Y-00971*
X01023Y-00977*
X01027Y-00982*
X0105Y-01005*
Y-01023*
X01046Y-01025*
Y-01071*
Y-01117*
X0105Y-0112*
Y-01148*
X01007Y-01191*
X00943*
X00941Y-01187*
X01Y-01127*
X01004Y-01122*
X01005Y-01116*
Y-0111*
X01008Y-01105*
X0101Y-01097*
Y-01046*
X01008Y-01037*
X01004Y-01031*
X00997Y-01026*
X00996Y-01025*
X00995Y-01021*
X00996Y-01019*
X01Y-01011*
X01001Y-01002*
X01Y-00993*
X00996Y-00985*
X00991Y-00978*
X00984Y-00972*
X00975Y-00969*
X00967Y-00968*
X00958Y-00969*
X00949Y-00972*
X00942Y-00978*
X00937Y-00985*
X00933Y-00993*
X00932Y-01002*
X00933Y-01011*
X00937Y-01019*
X00938Y-01021*
X00934Y-01025*
X0093Y-01026*
X00924Y-01031*
X00919Y-01037*
X00917Y-01046*
Y-01097*
X00919Y-01105*
X00924Y-01112*
X0093Y-01116*
X00939Y-01118*
X00947Y-01116*
X00954Y-01112*
X00958Y-01105*
X0096Y-01097*
Y-01058*
X00963Y-01056*
X00967Y-01058*
Y-01097*
X00969Y-01105*
X00972Y-01109*
X00912Y-01169*
X00661*
X00572Y-01079*
Y-01005*
X00577Y-01001*
X00578Y-01001*
X00594*
X00596Y-01006*
X00594Y-01009*
X0059Y-01018*
X00589Y-01027*
X0059Y-01035*
X00594Y-01044*
X00599Y-01051*
X00606Y-01056*
X00615Y-0106*
X00624Y-01061*
X00632Y-0106*
X00641Y-01056*
X00645Y-01053*
X0065Y-01056*
Y-01057*
X00651Y-01064*
X00655Y-01069*
X0066Y-01073*
X00667Y-01074*
Y-01079*
X0066Y-0108*
X00655Y-01084*
X00651Y-01089*
X0065Y-01096*
Y-01106*
X00727*
Y-01096*
X00726Y-01089*
X00722Y-01084*
X00717Y-0108*
X0071Y-01079*
Y-01074*
X00717Y-01073*
X00722Y-01069*
X00726Y-01064*
X00727Y-01057*
Y-01021*
X00726Y-01015*
X00722Y-01009*
X00717Y-01005*
X0071Y-01004*
X00702*
X00701Y-01002*
X007Y-00999*
X00702Y-00995*
X00704Y-0099*
Y-00984*
X00712Y-00976*
X00713*
X00714Y-00976*
X00718Y-00977*
X00762*
X00767Y-00976*
X0077Y-00975*
X00771Y-00974*
X00777Y-0097*
X00808Y-0094*
X00841*
X00843Y-00945*
X0083Y-00958*
X00826Y-00964*
X00824Y-00971*
Y-00981*
X00802*
X00795Y-00982*
X0079Y-00986*
X00786Y-00991*
X00785Y-00998*
Y-01033*
X00786Y-0104*
X0079Y-01045*
X00795Y-01049*
X00802Y-0105*
Y-01055*
X00795Y-01057*
X0079Y-0106*
X00786Y-01066*
X00785Y-01072*
Y-01108*
X00786Y-01115*
X0079Y-0112*
X00795Y-01124*
X00802Y-01125*
X00845*
X00852Y-01124*
X00857Y-0112*
X00861Y-01115*
X00862Y-0111*
X00868*
X00868Y-0111*
X00871Y-01114*
X00875Y-01117*
X0088Y-01118*
X00897*
X00902Y-01117*
X00906Y-01114*
X00909Y-0111*
X0091Y-01105*
Y-01037*
X00909Y-01034*
Y-01027*
X00912Y-01025*
X00917Y-01018*
X00921Y-0101*
X00922Y-01001*
X00921Y-00992*
X00917Y-00983*
X00912Y-00976*
X00905Y-00971*
X00896Y-00968*
X00888Y-00966*
X00882Y-00967*
X0088Y-00962*
X00902Y-0094*
X00906Y-00934*
X00908Y-00926*
Y-0092*
X00908Y-0092*
X0091Y-00912*
Y-00861*
X00908Y-00852*
X00908Y-00852*
Y-00818*
X0091Y-00814*
X00911Y-00808*
X00916*
X00918Y-00814*
X00918Y-00815*
Y-00856*
X00917Y-00861*
Y-00912*
X00919Y-0092*
X00924Y-00927*
X0093Y-00931*
X00939Y-00933*
X00947Y-00931*
X00954Y-00927*
X00958Y-0092*
X0096Y-00912*
Y-00861*
X00959Y-00856*
Y-00825*
X00965*
X00968Y-00828*
Y-00856*
X00967Y-00861*
Y-00912*
X00969Y-0092*
X00974Y-00927*
X0098Y-00931*
X00989Y-00933*
X00997Y-00931*
X01004Y-00927*
X01008Y-0092*
X0101Y-00912*
Y-00861*
X01009Y-00856*
Y-00837*
X01133Y-00712*
X01149*
X01154Y-00712*
X01158Y-00709*
X01161Y-00705*
X01162Y-007*
Y-00656*
X01161Y-00651*
X01158Y-00647*
X01154Y-00644*
X01149Y-00643*
X01133*
X01128Y-00644*
X01124Y-00647*
X01123Y-00648*
X01117*
X01104Y-00634*
X01106Y-0063*
X01112*
X01117Y-00629*
X01121Y-00626*
X01124Y-00622*
X01125Y-00617*
Y-00602*
X01176*
X01184Y-006*
X0119Y-00596*
X01201Y-00585*
X01228*
X01233Y-00584*
X01237Y-00581*
X0124Y-00577*
X01241Y-00572*
Y-00555*
X01244Y-00552*
X01346*
X01355Y-00551*
X01363Y-00547*
X01371Y-00542*
X01424Y-00488*
X0147*
X01478Y-00487*
X01484Y-00482*
X01489Y-00476*
X0149Y-00468*
Y-00371*
X01489Y-00364*
X01484Y-00357*
X01478Y-00353*
X0147Y-00351*
X01434*
Y-00337*
X01435Y-00337*
X01442Y-00327*
X01447Y-00315*
X01449Y-00302*
Y-00263*
X01447Y-0025*
X01442Y-00239*
X01435Y-00229*
X01425Y-00221*
X01413Y-00216*
X014Y-00214*
X01388Y-00216*
X01376Y-00221*
X01366Y-00229*
X01358Y-00239*
X01353Y-0025*
X01351Y-00263*
Y-00302*
X01353Y-00315*
X01358Y-00327*
X01366Y-00337*
X01366Y-00337*
Y-00367*
X01365Y-00371*
Y-00451*
X01332Y-00483*
X01322*
X0132Y-00478*
X01323Y-00474*
X01324Y-00469*
Y-00453*
X01323Y-00448*
X0132Y-00444*
X01316Y-00441*
X01311Y-0044*
X01267*
X01262Y-00441*
X01258Y-00444*
X01255Y-00448*
X01254Y-00453*
Y-00469*
X01255Y-00474*
X01258Y-00478*
X01256Y-00483*
X0118*
X01177Y-00478*
X01178Y-00477*
X01179Y-00472*
Y-00456*
X01178Y-00451*
X01177Y-00449*
X01179Y-00444*
X01181*
X01184Y-00445*
X01228*
X01233Y-00444*
X01237Y-00441*
X0124Y-00437*
X01241Y-00432*
Y-00415*
X0124Y-00411*
X01237Y-00406*
X01233Y-00404*
X01228Y-00403*
X01184*
X01183Y-00403*
X01179Y-004*
X01179Y-00398*
X01179Y-00397*
Y-00381*
X01178Y-00376*
X01175Y-00372*
X01171Y-00369*
X01166Y-00368*
X01122*
X01119Y-00369*
X01095*
X01092Y-00363*
X01087Y-00356*
X0108Y-00351*
X01071Y-00347*
X01063Y-00346*
X01054Y-00347*
X01045Y-00351*
X01038Y-00356*
X01038Y-00357*
X01027*
Y-00338*
X01026Y-00332*
X01022Y-00326*
X01016Y-00322*
X0101Y-00321*
X00974*
X00967Y-00322*
X00962Y-00326*
X00958Y-00332*
X00957Y-00338*
X00952*
X00951Y-00332*
X00947Y-00326*
X00942Y-00322*
X00935Y-00321*
X00899*
X00893Y-00322*
X00887Y-00326*
X00883Y-00332*
X00882Y-00338*
Y-00366*
X00842Y-00406*
X00826*
X00821Y-00407*
X00817Y-0041*
X00814Y-00414*
X00813Y-00419*
Y-00436*
X0081Y-00439*
X00723*
X00714Y-0044*
X00705Y-00444*
X00703Y-00445*
X00682*
X00677Y-00446*
X00672Y-00449*
X00671Y-00451*
X00665*
X00664Y-00449*
X00659Y-00446*
X00654Y-00445*
X00649*
Y-00472*
X00642*
Y-00479*
X00615*
Y-00485*
X00617Y-0049*
X0062Y-00495*
X00624Y-00498*
X0063Y-00499*
X00642*
X00644Y-00504*
X00622Y-00525*
X0044*
X00435Y-00521*
Y-00461*
X00436Y-0046*
X00436Y-00459*
X00529*
X00537Y-00458*
X00544Y-00453*
X00566Y-00431*
X00571Y-00424*
X00573Y-00416*
Y-00365*
X00572Y-0036*
Y-00343*
X00571Y-00338*
X00568Y-00334*
X00564Y-00331*
X00559Y-0033*
X00543*
X00538Y-00331*
X00534Y-00334*
X00531Y-00338*
X0053Y-00343*
Y-0036*
X00529Y-00365*
Y-00406*
X0052Y-00416*
X00436*
X00436Y-00415*
X00435Y-00414*
Y-00365*
X00434Y-0036*
Y-00343*
X00433Y-00338*
X0043Y-00334*
X00426Y-00331*
X00421Y-0033*
X00405*
X004Y-00331*
X00396Y-00334*
X00393Y-00338*
X00392Y-00343*
Y-0036*
X00391Y-00365*
Y-00415*
X0039Y-00416*
X00384*
X00383Y-00415*
X00379Y-00412*
X00373Y-00411*
X00369*
Y-00437*
Y-00464*
X00373*
X00379Y-00463*
X00383Y-0046*
X00389Y-00461*
X00391Y-00464*
Y-00514*
X00382Y-00518*
X00373Y-00525*
X00161*
X00152Y-00518*
X0014Y-00513*
X00127Y-00511*
X00115Y-00513*
X00103Y-00518*
X00094Y-00525*
X-00081*
Y-00462*
X-0008Y-00462*
X-00079Y-00461*
X-00063*
X-00063Y-00461*
X-00055Y-00463*
X-00003*
X00004Y-00461*
X00011Y-00457*
X00015Y-0045*
X00017Y-00442*
X00015Y-00433*
X00011Y-00427*
X00004Y-00422*
X-00003Y-0042*
X-00055*
X-00063Y-00422*
X-00063Y-00422*
X-00077*
X-0008Y-00417*
X-00081Y-00417*
Y-0041*
X-0008Y-0041*
X-00077Y-00405*
X-00071Y-00404*
X-0007Y-00407*
X-00063Y-00411*
X-00055Y-00413*
X-00037*
Y-00392*
Y-0037*
X-00055*
X-00063Y-00372*
X-0007Y-00377*
X-00071Y-00378*
X-00076Y-00376*
Y-00375*
X-00077Y-0037*
X-0008Y-00365*
X-00084Y-00362*
X-0009Y-00361*
X-00095*
Y-00387*
X-00103*
Y-00395*
X-00129*
Y-00399*
X-00128Y-00405*
X-00125Y-0041*
X-00124Y-0041*
Y-00417*
X-00125Y-00417*
X-00128Y-00422*
X-00129Y-00428*
Y-00452*
X-00128Y-00457*
X-00125Y-00462*
X-00124Y-00462*
Y-00508*
X-00127Y-00511*
X-0014Y-00513*
X-00152Y-00518*
X-00161Y-00525*
X-00276*
Y-00432*
X-00275Y-00432*
X-00274Y-0043*
X-00268*
X-00267Y-00432*
X-00263Y-00435*
X-00257Y-00436*
X-00253*
Y-00409*
Y-00382*
X-00257*
X-00263Y-00383*
X-00267Y-00386*
X-00267Y-00387*
X-00273Y-00387*
X-00276Y-00383*
Y-00348*
X-00277Y-00343*
Y-00326*
X-00278Y-00321*
X-00281Y-00316*
X-00285Y-00314*
X-0029Y-00313*
X-00306*
X-00311Y-00314*
X-00315Y-00316*
X-00318Y-00321*
X-00319Y-00326*
Y-00343*
X-0032Y-00348*
Y-00387*
X-00323Y-00391*
X-00324Y-00396*
Y-00422*
X-00323Y-00427*
X-0032Y-00431*
Y-00525*
X-00373*
X-00382Y-00518*
X-00394Y-00513*
X-00406Y-00511*
X-00407Y-00511*
X-0041Y-00507*
X-00408Y-00503*
X-00407Y-00495*
X-00408Y-00486*
X-00412Y-00477*
X-00417Y-0047*
X-00424Y-00465*
X-00433Y-00461*
X-00442Y-0046*
X-0045Y-00461*
X-00459Y-00465*
X-00461Y-00467*
X-00466Y-00464*
Y-00334*
X-00467Y-00328*
X-00471Y-00323*
X-00524Y-0027*
X-00522Y-00265*
X-00458*
X-00394Y-00329*
Y-0037*
X-00393Y-00375*
X-0039Y-00379*
X-00386Y-00381*
X-00381Y-00382*
X-00365*
X-0036Y-00381*
X-00356Y-00379*
X-00353Y-00375*
X-00352Y-0037*
Y-00326*
X-00353Y-00321*
X-00356Y-00316*
X-0036Y-00314*
X-00365Y-00313*
X-00367*
X-0044Y-00239*
X-00442Y-00238*
X-00443Y-00231*
X-0043Y-00218*
X-00301*
X-00288Y-00231*
X-00291Y-00235*
X-00292Y-00235*
X-003Y-00236*
X-00309Y-0024*
X-0031Y-00241*
X-00315Y-00239*
X-00315Y-00238*
X-00318Y-00234*
X-00322Y-00231*
X-00327Y-0023*
X-00344*
X-00349Y-00231*
X-00353Y-00234*
X-00356Y-00238*
X-00357Y-00243*
Y-00287*
X-00356Y-00292*
X-00353Y-00296*
X-00349Y-00299*
X-00344Y-003*
X-00327*
X-00322Y-00299*
X-00318Y-00296*
X-00312Y-00296*
X-00309Y-00299*
X-003Y-00303*
X-00292Y-00304*
X-00283Y-00303*
X-00274Y-00299*
X-00267Y-00294*
X-00262Y-00287*
X-00258Y-00278*
X-00257Y-0027*
X-00258Y-00261*
X-00261Y-00253*
X-0026Y-0025*
X-00259Y-00248*
X-00167*
X-00161Y-00247*
X-00156Y-00244*
X-00131Y-00219*
X00024*
X0005Y-00244*
X00054Y-00247*
X0006Y-00248*
X00191*
X00229Y-00287*
Y-00369*
X0023Y-00375*
X00234Y-0038*
X00257Y-00403*
X00262Y-00407*
X00268Y-00408*
X0031*
X00316Y-00407*
X00321Y-00403*
X00326Y-00399*
X0033Y-004*
X00346*
X00351Y-00399*
X00355Y-00396*
X00358Y-00392*
X00359Y-00387*
Y-00343*
X00358Y-00338*
X00355Y-00334*
X00351Y-00331*
X00346Y-0033*
X00333*
X00333Y-00325*
X00335Y-00325*
X00344Y-00321*
X00351Y-00316*
X00353Y-00313*
X00358*
X00362Y-00316*
X00367Y-00317*
X00384*
X00389Y-00316*
X00393Y-00313*
X00396Y-00309*
X00397Y-00304*
Y-00287*
X00397Y-00282*
X00397Y-00278*
Y-0026*
X00396Y-00255*
X00393Y-00251*
X00389Y-00248*
X00384Y-00247*
X00367*
X00362Y-00248*
X00358Y-00251*
X00355Y-00255*
X00354Y-0026*
Y-00264*
X00354Y-00265*
X00349Y-00266*
X00344Y-00262*
X00335Y-00258*
X00327Y-00257*
X00318Y-00258*
X00309Y-00262*
X00302Y-00267*
X00297Y-00274*
X00293Y-00283*
X00292Y-00292*
X00293Y-003*
X00297Y-00309*
X00302Y-00316*
X00309Y-00321*
X00318Y-00325*
X00327Y-00326*
X00327Y-00331*
X00325Y-00331*
X00321Y-00334*
X00318Y-00338*
X00317Y-00343*
Y-00364*
X00304Y-00377*
X00274*
X0026Y-00363*
Y-00281*
X00259Y-00275*
X00255Y-0027*
X00208Y-00222*
X00203Y-00219*
X00197Y-00218*
X00154*
X00152Y-00213*
X00167Y-00198*
X00352*
X00461Y-00307*
Y-00332*
X00459Y-00334*
X00456Y-00338*
X00455Y-00343*
Y-00387*
X00456Y-00392*
X00459Y-00396*
X00463Y-00399*
X00468Y-004*
X00484*
X00489Y-00399*
X00493Y-00396*
X00496Y-00392*
X00497Y-00387*
Y-00343*
X00496Y-00338*
X00493Y-00334*
X00491Y-00332*
Y-00315*
X00495Y-00314*
X00496Y-00313*
X005Y-00316*
X00505Y-00317*
X00522*
X00527Y-00316*
X00531Y-00313*
X00534Y-00309*
X00535Y-00304*
Y-00287*
X00535Y-00282*
Y-0028*
X00535Y-00275*
Y-0026*
X00534Y-00255*
X00531Y-00251*
X00527Y-00248*
X00522Y-00247*
X00515*
X00511Y-00243*
X00511Y-00243*
X0051Y-00234*
X00506Y-00225*
X00501Y-00218*
X00494Y-00213*
X00485Y-00209*
X00477Y-00208*
X00468Y-00209*
X00459Y-00213*
X00452Y-00218*
X00447Y-00225*
X00443Y-00234*
X00443Y-00239*
X00437Y-00241*
X00369Y-00172*
X00364Y-00169*
X00358Y-00168*
X00243*
X0024Y-00163*
X00244Y-00158*
X00248Y-00149*
X00249Y-00139*
X00248Y-00128*
X00244Y-00119*
X00238Y-00111*
X0023Y-00105*
X00221Y-00101*
X00211Y-001*
X002Y-00101*
X00191Y-00105*
X00183Y-00111*
X00178Y-00118*
X0017*
X00162Y-0012*
X00155Y-00124*
X00143Y-00136*
X00138Y-00134*
X00137Y-00128*
X00133Y-00119*
X00128Y-00113*
X0013Y-00108*
X00131Y-00107*
X00138Y-00103*
X00177Y-00064*
X00182Y-00064*
X00183Y-00066*
X00191Y-00072*
X002Y-00076*
X00211Y-00077*
X00221Y-00076*
X0023Y-00072*
X00238Y-00066*
X00244Y-00058*
X00248Y-00049*
X00249Y-00039*
X00248Y-00028*
X00244Y-00019*
X00238Y-00011*
X0023Y-00005*
X00221Y-00001*
X00211Y0*
X002Y-00001*
X00191Y-00005*
X00183Y-00011*
X00178Y-00018*
X00174*
X00166Y-0002*
X00159Y-00024*
X00143Y-00041*
X00138Y-00038*
X00137Y-00028*
X00133Y-00019*
X00129Y-00013*
X00131Y-00008*
X00136*
X00144Y-00007*
X0015Y-00002*
X00185Y00031*
X00191Y00027*
X002Y00023*
X00211Y00022*
X00221Y00023*
X0023Y00027*
X00238Y00033*
X00244Y00041*
X00248Y0005*
X00249Y00056*
X00254Y00058*
X00283Y00029*
X0029Y00025*
X00298Y00023*
X00394*
X00398Y00024*
X004Y00023*
X00411Y00022*
X00421Y00023*
X0043Y00027*
X00438Y00033*
X00444Y00041*
X00448Y0005*
X00449Y00061*
X00448Y00071*
X00444Y0008*
X00438Y00088*
X0043Y00094*
X00421Y00098*
X00411Y00099*
X004Y00098*
X00391Y00094*
X00383Y00088*
X00377Y0008*
X00373Y00071*
X00372Y00064*
X00306*
X00245Y00124*
X0024Y00128*
X00239Y0013*
X00239Y00132*
X00239Y00134*
X00244Y00141*
X00248Y0015*
X00249Y00156*
X00254Y00158*
X00286Y00126*
X00293Y00122*
X00301Y0012*
X00391*
X00398Y00122*
X004Y00123*
X004Y00123*
X00411Y00122*
X00421Y00123*
X0043Y00127*
X00435Y00131*
X0044Y00128*
Y00104*
X00441Y00098*
X00444Y00093*
X00521Y00016*
X00519Y00012*
X00488*
X00481Y00011*
X00476Y00007*
X00472Y00001*
X00471Y-00004*
Y-00018*
X00443*
X00438Y-00011*
X0043Y-00005*
X00421Y-00001*
X00411Y0*
X004Y-00001*
X00391Y-00005*
X00383Y-00011*
X00377Y-00019*
X00373Y-00028*
X00372Y-00039*
X00373Y-00049*
X00377Y-00058*
X00383Y-00066*
X00391Y-00072*
X004Y-00076*
X00411Y-00077*
X00421Y-00076*
X0043Y-00072*
X00438Y-00066*
X00443Y-00059*
X0048*
X0048Y-00059*
X0048Y-00064*
X00476Y-00067*
X00472Y-00072*
X00471Y-00079*
Y-00115*
X00472Y-00121*
X00476Y-00127*
X00481Y-00131*
X00488Y-00132*
X00526*
X00529Y-00137*
X00528Y-00138*
X00527Y-00143*
Y-00158*
X00548*
Y-00165*
X00556*
Y-002*
X00556*
X0056Y-00199*
X00565Y-00202*
Y-00222*
X00564Y-00226*
Y-0027*
X00565Y-00275*
X00568Y-00279*
X00572Y-00282*
X00577Y-00283*
X00594*
X00599Y-00282*
X00603Y-00279*
X00606Y-00275*
X00607Y-0027*
Y-00226*
X00606Y-00222*
Y-00202*
X00611Y-00199*
X00615Y-002*
X00631*
X00636Y-00199*
X0064Y-00196*
X00643Y-00192*
X00644Y-00187*
Y-00157*
X00649Y-00155*
X00667Y-00174*
Y-00349*
X00668Y-00355*
X00672Y-0036*
X00713Y-00401*
X00718Y-00404*
X00724Y-00405*
X00733*
X00734Y-00407*
X00738Y-0041*
X00743Y-00411*
X00787*
X00792Y-0041*
X00796Y-00407*
X00799Y-00403*
X008Y-00398*
Y-00382*
X00799Y-00377*
X00796Y-00373*
X00792Y-0037*
X00787Y-00369*
X00743*
X00738Y-0037*
X00734Y-00373*
X00728Y-00373*
X00698Y-00343*
Y-00168*
X00697Y-00162*
X00693Y-00157*
X0059Y-00053*
Y00017*
X00588Y00023*
X00585Y00028*
X0049Y00122*
Y00287*
X00489Y00293*
X00486Y00298*
X00448Y00336*
X00443Y00339*
X00437Y0034*
X00328*
X00328Y00341*
X00326Y00345*
X00608Y00627*
X00654*
X00657Y00622*
X00655Y0062*
X00651Y00611*
X0065Y00603*
X00651Y00594*
X00654Y00588*
X00649Y00584*
X00646Y00579*
X00645Y00573*
Y00535*
X00644Y00535*
X00639Y00538*
Y00555*
X00638Y00561*
X00634Y00567*
X00629Y00571*
X00622Y00572*
X00608*
Y00537*
X00601*
Y00529*
X00562*
Y00519*
X00563Y00512*
X00567Y00507*
X00572Y00503*
X00579Y00502*
Y00497*
X00572Y00496*
X00567Y00492*
X00563Y00487*
X00563Y00485*
X00557Y00483*
X00554Y00485*
X00545Y00489*
X00537Y0049*
X00528Y00489*
X00519Y00485*
X00512Y0048*
X00507Y00473*
X00503Y00464*
X00502Y00456*
X00503Y00447*
X00507Y00438*
X00512Y00431*
X00519Y00426*
X00521Y00425*
Y00359*
X00522Y00354*
X00526Y00349*
X00555Y00319*
X00555Y00317*
X00549Y00314*
X00547Y00315*
X00539Y00316*
X0053Y00315*
X00521Y00311*
X00514Y00306*
X00509Y00299*
X00505Y0029*
X00504Y00282*
X00505Y00273*
X00509Y00264*
X00514Y00257*
X00517Y00255*
Y00151*
X00518Y00145*
X00522Y0014*
X00557Y00105*
X00562Y00101*
X00568Y001*
X00663*
X00664Y00096*
X00668Y0009*
X00673Y00086*
X0068Y00085*
X00723*
X0073Y00086*
X00735Y0009*
X00739Y00096*
X0074Y00102*
Y00137*
X00756Y00153*
X00757Y00153*
X00761Y0015*
Y00145*
X00757Y00142*
X00753Y00137*
X00752Y0013*
Y00087*
X00753Y0008*
X00757Y00075*
X00763Y00071*
X00769Y0007*
X00805*
X00812Y00071*
X00817Y00075*
X00821Y0008*
X00822Y00087*
X00827*
X00828Y0008*
X00832Y00075*
X00837Y00071*
X00844Y0007*
X00854*
Y00109*
X00862*
Y00116*
X00897*
Y0013*
X00898Y00131*
X00902Y00132*
X00909Y00125*
Y00098*
X00909Y00095*
Y00062*
X00848Y00001*
X00783*
X00777Y0*
X00772Y-00003*
X00759Y-00016*
X00755Y-00021*
X00754Y-00027*
Y-00082*
X00755Y-00087*
X00759Y-00092*
X00776Y-00109*
X00775Y-00111*
Y-00147*
X00777Y-00153*
X0078Y-00159*
X00783Y-0016*
Y-00167*
X0078Y-00168*
X00777Y-00174*
X00775Y-0018*
Y-00216*
X00777Y-00223*
X0078Y-00228*
X00786Y-00232*
X00792Y-00233*
Y-00238*
X00786Y-00239*
X0078Y-00243*
X00777Y-00248*
X00775Y-00255*
Y-00291*
X00777Y-00297*
X0078Y-00303*
X00786Y-00307*
X00792Y-00308*
X00836*
X00843Y-00307*
X00848Y-00303*
X00852Y-00297*
X00853Y-00291*
Y-00289*
X00959*
X00965Y-00288*
X0097Y-00285*
X01022Y-00232*
X01025Y-00233*
X01093*
X01099Y-00232*
X01104Y-00228*
X01107Y-00224*
X01108Y-00218*
Y-00177*
X01107Y-00172*
X01104Y-00167*
X01099Y-00164*
X01093Y-00163*
X01025*
X01019Y-00164*
X01015Y-00167*
X01012Y-00172*
X01011Y-00177*
Y-00201*
X00953Y-00259*
X00853*
Y-00255*
X00852Y-00248*
X00848Y-00243*
X00843Y-00239*
X00836Y-00238*
Y-00233*
X00843Y-00232*
X00848Y-00228*
X00852Y-00223*
X00853Y-00216*
Y-00198*
X00858Y-00196*
X00858Y-00196*
X00864Y-002*
X0087Y-00201*
X00933*
X0094Y-002*
X00945Y-00196*
X00949Y-00191*
X0095Y-00184*
Y-00128*
X00974Y-00104*
X01002*
X01005Y-00105*
X01006Y-00105*
X01011Y-00108*
Y-00128*
X01012Y-00133*
X01015Y-00138*
X01019Y-00141*
X01025Y-00142*
X01093*
X01099Y-00141*
X01104Y-00138*
X01107Y-00133*
X01108Y-00128*
Y-00087*
X01107Y-00081*
X01104Y-00077*
X01099Y-00073*
X01093Y-00072*
X01025*
X01024Y-00073*
X0102Y-00069*
Y00015*
X01105Y001*
X01109Y00105*
X0111Y00111*
Y00238*
X01128*
X01135Y00239*
X0114Y00243*
X01142Y00246*
X01146Y00245*
X01147Y00244*
X01148Y00239*
X01152Y00233*
X01157Y0023*
X01163Y00229*
X0117Y0023*
X01172Y00232*
X01176Y00233*
X0118Y00232*
X01183Y0023*
X01189Y00229*
X01195Y0023*
X012Y00233*
X01203*
X01208Y0023*
X01215Y00229*
X01221Y0023*
X01224Y00232*
X01227Y00233*
X01231Y0023*
X01231Y00225*
X01228Y00221*
X01224Y00212*
X01223Y00204*
X01224Y00195*
X01228Y00186*
X01233Y00179*
X0124Y00174*
X01249Y0017*
X01249Y0017*
X01249Y00165*
X01242*
Y0013*
X01235*
Y00123*
X01196*
Y00112*
X01197Y00106*
X01201Y001*
X01206Y00097*
X01213Y00095*
Y00091*
X01206Y00089*
X01201Y00086*
X01197Y0008*
X01196Y00074*
Y00038*
X01197Y00031*
X01201Y00026*
Y-00012*
X012Y-00012*
X01193Y-00022*
X01188Y-00034*
X01186Y-00047*
Y-00086*
X01188Y-00099*
X01193Y-0011*
X012Y-0012*
X0121Y-00128*
X01222Y-00133*
X01235Y-00135*
X01247Y-00133*
X01259Y-00128*
X01269Y-0012*
X01277Y-0011*
X01282Y-00099*
X01284Y-00086*
Y-00047*
X01282Y-00034*
X01277Y-00022*
X01269Y-00012*
X01269Y-00012*
Y00021*
X01288*
X01291Y00021*
X01334*
X01341Y00022*
X01346Y00026*
X0135Y00031*
X01351Y00038*
Y00074*
X0135Y0008*
X01346Y00086*
X01341Y00089*
X01334Y00091*
Y00095*
X01341Y00097*
X01346Y001*
X0135Y00106*
X01351Y00112*
Y00123*
X01312*
Y00138*
X01351*
Y00148*
X0135Y00155*
X01346Y0016*
X01341Y00164*
X01334Y00165*
X01326*
X01325Y0017*
X01329Y00173*
X01329Y00174*
X01336*
X01336Y00173*
X01341Y0017*
X01347Y00169*
X01351*
Y00196*
Y00222*
X01347*
X01341Y00221*
X01336Y00218*
X01336Y00217*
X01329*
X01329Y00218*
X01324Y00221*
X01318Y00222*
X01309*
X01308Y00227*
X01312Y0023*
X01317Y00229*
X01323Y0023*
X01328Y00233*
X01331*
X01336Y0023*
X01342Y00229*
X01349Y0023*
X01352Y00232*
X01355Y00233*
X01359Y00232*
X01362Y0023*
X01368Y00229*
X01374Y0023*
X0138Y00233*
X01382*
X01387Y0023*
X01394Y00229*
X014Y0023*
X01405Y00233*
X01409Y00239*
X0141Y00245*
Y00298*
X01409Y00302*
Y00432*
X01426Y00449*
X0143Y00454*
X01431Y0046*
Y0052*
X0146Y00549*
X01464Y00554*
X01465Y0056*
Y00593*
X01464Y00599*
X0146Y00604*
X01446Y00618*
X01446Y00618*
X0145Y00627*
X01451Y00636*
X0145Y00644*
X01446Y00653*
X01441Y0066*
X01434Y00665*
X01425Y00669*
X01417Y0067*
X01408Y00669*
X014Y00665*
X01395Y00667*
X01395Y00667*
Y00714*
X01394Y0072*
X0139Y00725*
X01374Y00741*
X01374Y00743*
Y00779*
X01373Y00786*
X01369Y00791*
X01363Y00795*
X01357Y00796*
X01327*
Y00851*
X01326Y00857*
X01322Y00862*
X01287Y00897*
X01283Y009*
Y00916*
X01286Y00919*
X0133*
X01445Y00804*
Y00702*
X01447Y00696*
X0145Y00691*
X01481Y0066*
Y00497*
X01453Y00468*
X01449Y00463*
X01448Y00458*
Y00037*
X01434Y00023*
X01378*
X01372Y00022*
X01368Y00018*
X01335Y-00013*
X01332Y-00018*
X01331Y-00024*
Y-0013*
X01278Y-00183*
X01275Y-00188*
X01274Y-00193*
Y-00227*
X01272Y-00228*
X01269Y-00228*
X01259Y-00221*
X01247Y-00216*
X01242Y-00215*
Y-00283*
Y-0035*
X01247Y-0035*
X01259Y-00345*
X01269Y-00337*
X01272Y-00338*
X01274Y-00339*
Y-00365*
X01267*
X01262Y-00366*
X01258Y-00369*
X01255Y-00373*
X01254Y-00378*
Y-00395*
X01255Y-00399*
X01258Y-00404*
X01262Y-00406*
X01267Y-00407*
X01311*
X01316Y-00406*
X0132Y-00404*
X01323Y-00399*
X01324Y-00395*
Y-00378*
X01323Y-00373*
X0132Y-00369*
X01316Y-00366*
X01311Y-00365*
X01304*
Y-002*
X01357Y-00148*
X0136Y-00143*
X01361Y-00137*
Y-00122*
X01363Y-00121*
X01366Y-00121*
X01376Y-00128*
X01388Y-00133*
X01393Y-00134*
Y-00066*
X014*
Y-00059*
X01449*
Y-00047*
X01447Y-00034*
X01442Y-00022*
X01435Y-00012*
X01434Y-00012*
X01436Y-00007*
X0144*
X01446Y-00006*
X01451Y-00002*
X01474Y0002*
X01478Y00025*
X01479Y00031*
Y00451*
X01499Y00471*
X01503Y00469*
Y-00064*
X0146Y-00108*
X01456Y-00113*
X01455Y-00119*
Y-00216*
X01456Y-00221*
X0146Y-00226*
X01503Y-0027*
Y-00495*
X01428Y-00571*
X01375*
X01369Y-00572*
X01364Y-00575*
X01353Y-00586*
X01321*
X0132Y-00584*
X01316Y-00581*
X01311Y-0058*
X01267*
X01262Y-00581*
X01258Y-00584*
X01255Y-00588*
X01254Y-00593*
Y-00609*
X01255Y-00614*
X01258Y-00618*
X01262Y-00621*
X01267Y-00622*
X01311*
X01316Y-00621*
X0132Y-00618*
X01321Y-00616*
X0136*
X01366Y-00615*
X01371Y-00612*
X01381Y-00601*
X01434*
X0144Y-006*
X01445Y-00597*
X01529Y-00512*
X01533Y-00507*
X01534Y-00502*
Y-00264*
X01533Y-00258*
X01529Y-00253*
X01486Y-00209*
Y-00125*
X01529Y-00081*
X01533Y-00076*
X01534Y-00071*
Y00867*
X01533Y00872*
X01529Y00877*
X01441Y00965*
X01436Y00969*
X01431Y0097*
X01053*
X01047Y00969*
X01042Y00965*
X01007Y0093*
X00907*
X00901Y00929*
X00896Y00926*
X0085Y0088*
X00847Y00875*
X00846Y00869*
Y00867*
X00841Y00866*
X00839Y0087*
X00833Y00878*
X00827Y00883*
Y00898*
X00845*
X00851Y00899*
X00857Y00903*
X00861Y00908*
X00862Y00915*
Y00958*
X00861Y00965*
X00857Y0097*
X00851Y00974*
X00845Y00975*
X00809*
X00802Y00974*
X00797Y0097*
X00793Y00965*
X00792Y00958*
X00787*
X00786Y00965*
X00782Y0097*
X00777Y00974*
X0077Y00975*
X00734*
X00728Y00974*
X00722Y0097*
X00719Y00966*
X00718Y00966*
X00715*
X00714Y00966*
X00711Y0097*
X00705Y00974*
X00699Y00975*
X00663*
X00656Y00974*
X00651Y0097*
X00647Y00965*
X00646Y00958*
X00641*
X0064Y00965*
X00636Y0097*
X00631Y00974*
X00624Y00975*
X00588*
X00582Y00974*
X00576Y0097*
X00572Y00965*
X00571Y00958*
Y00915*
X00572Y00908*
X00576Y00903*
X00582Y00899*
X00588Y00898*
X00623*
X00646Y00875*
Y00867*
X00641Y00866*
X00639Y0087*
X00633Y00878*
X00625Y00884*
X00616Y00888*
X00606Y00889*
X00595Y00888*
X00586Y00884*
X00578Y00878*
X00572Y0087*
X00568Y00861*
X00567Y00851*
X00568Y0084*
X00572Y00831*
X00578Y00823*
X00582Y0082*
Y00812*
X0055Y0078*
X00547Y00775*
X00546Y00769*
Y00767*
X00541Y00766*
X00539Y0077*
X00533Y00778*
X00525Y00784*
X00516Y00788*
X00506Y00789*
X00495Y00788*
X00486Y00784*
X00485Y00783*
X0047Y00798*
X00465Y00801*
X00459Y00802*
X00442*
X00434Y0081*
Y00846*
X00433Y00852*
X0043Y00857*
X00413Y00874*
Y00909*
X00412Y00915*
X00408Y00921*
X00403Y00925*
X00396Y00926*
X00353*
X00346Y00925*
X00341Y00921*
X00337Y00915*
X00336Y00909*
X00295*
Y00916*
X00294Y00921*
X00291Y00925*
X00287Y00928*
X00282Y00929*
X00265*
X0026Y00928*
X00256Y00925*
X00253Y00921*
X00252Y00916*
Y00872*
X00253Y00867*
X00256Y00863*
X00258Y00861*
Y00844*
X00254Y00843*
X00253Y00842*
X00249Y00845*
X00244Y00846*
X00244*
Y00811*
X00236*
Y00804*
X00215*
Y00789*
X00215Y00789*
X00213Y00786*
X00207Y00785*
X00202Y00781*
X00092Y00672*
X-00088*
X-002Y00784*
Y00889*
X-00201Y00895*
X-00205Y009*
X-00228Y00923*
X-00233Y00927*
X-00239Y00928*
X-01002*
X-01008Y00927*
X-01013Y00923*
X-01053Y00884*
X-01097*
X-01103Y00883*
X-01108Y00879*
X-01165Y00823*
X-01167Y00824*
X-01176Y00825*
X-01185Y00824*
X-01193Y0082*
X-012Y00815*
X-01206Y00808*
X-01209Y00799*
X-01211Y00791*
X-01209Y00782*
X-01206Y00773*
X-012Y00766*
X-01193Y00761*
X-01185Y00757*
X-01176Y00756*
X-01167Y00757*
X-01159Y00761*
X-01152Y00766*
X-01147Y00773*
X-01143Y00782*
X-01142Y00791*
X-01143Y00799*
X-01144Y00801*
X-01091Y00853*
X-01046*
X-0104Y00854*
X-01035Y00858*
X-00996Y00897*
X-00245*
X-00231Y00883*
Y00778*
X-0023Y00772*
X-00226Y00767*
X-00105Y00646*
X-001Y00642*
X-00095Y00641*
X00099*
X00104Y00642*
X00109Y00646*
X00219Y00755*
X00252*
X00258Y00756*
X00263Y0076*
X00266Y00763*
X0027Y0076*
X00267Y00756*
X00263Y00747*
X00262Y00739*
X00263Y0073*
X00267Y00721*
X00272Y00714*
X00279Y00709*
X00288Y00705*
X00297Y00704*
X00336*
X00339Y00704*
X00375*
X00382Y00705*
X00387Y00709*
X00391Y00714*
X00392Y00721*
X00397*
X00398Y00714*
X00402Y00709*
X00407Y00705*
X00414Y00704*
X0045*
X00456Y00705*
X00462Y00709*
X00462Y00709*
X00484Y00687*
X00307Y00511*
X00257*
X00251Y0051*
X00246Y00506*
X0021Y0047*
X0013*
X00124Y00469*
X00119Y00466*
X00094Y0044*
X00016*
X-00008Y00466*
X-00009Y00466*
X-00008Y00471*
X00023*
X0003Y00473*
X00035Y00476*
X00039Y00482*
X0004Y00488*
X00045*
X00047Y00482*
X0005Y00476*
X00056Y00473*
X00062Y00471*
X00098*
X00105Y00473*
X0011Y00476*
X00114Y00482*
X00115Y00488*
Y0052*
X0016*
X0016Y0052*
X00164Y00511*
X00169Y00504*
X00176Y00499*
X00185Y00495*
X00194Y00494*
X00202Y00495*
X00211Y00499*
X00218Y00504*
X00223Y00511*
X00227Y0052*
X00228Y00529*
X00227Y00537*
X00223Y00546*
X00221Y00548*
X00224Y00553*
X00279*
X00288Y00554*
X00296Y00558*
X00303Y00563*
X00309Y0057*
X00312Y00579*
X00313Y00588*
X00312Y00596*
X00309Y00605*
X00307Y00607*
X00309Y00612*
X00322*
X00326Y00613*
X0033Y00611*
X00339Y0061*
X00347Y00611*
X00356Y00615*
X00363Y0062*
X00368Y00627*
X00372Y00636*
X00373Y00645*
X00372Y00653*
X00368Y00662*
X00363Y00669*
X00356Y00674*
X00347Y00678*
X00339Y00679*
X0033Y00678*
X00321Y00674*
X00314Y00669*
X00309Y00662*
X00305Y00653*
X00304Y00645*
X00303Y00643*
X00154*
X00148Y00642*
X00143Y00638*
X00136Y00631*
X-0011*
X-00242Y00763*
Y00818*
X-00243Y00823*
X-00247Y00828*
X-00297Y00878*
X-00302Y00882*
X-00308Y00883*
X-00985*
X-00991Y00882*
X-00996Y00878*
X-01072Y00802*
X-01089*
X-01095Y008*
X-011Y00797*
X-01152Y00745*
X-01223*
X-01229Y00744*
X-01234Y0074*
X-01323Y00651*
X-01324Y00652*
X-01359*
Y00624*
X-01357*
X-01355Y0062*
X-01394Y0058*
X-01397Y00575*
X-01398Y0057*
Y0054*
X-01405*
X-01407Y00539*
X-0141Y00544*
X-01407Y00548*
X-01406Y00554*
Y00565*
X-01437*
Y00537*
X-01423*
X-01421Y00538*
X-01418Y00533*
X-0142Y00529*
X-01422Y00523*
Y00487*
X-0142Y0048*
X-01417Y00475*
X-01411Y00471*
X-01405Y0047*
Y00465*
X-01411Y00464*
X-01417Y0046*
X-01417Y0046*
X-01422Y00462*
Y00464*
X-01423Y0047*
X-01427Y00476*
X-01432Y0048*
X-01439Y00481*
X-01453*
Y00446*
X-01468*
Y00481*
X-01482*
X-01486Y0048*
X-01491Y00484*
Y00586*
X-01488Y00589*
X-01483Y00587*
Y0058*
X-01406*
Y0059*
X-01407Y00597*
X-01411Y00602*
X-01416Y00606*
X-01423Y00607*
Y00612*
X-01416Y00613*
X-01411Y00617*
X-01407Y00622*
X-01406Y00628*
X-01404Y00629*
X-01401Y0063*
X-014Y00629*
X-01395Y00625*
X-01388Y00624*
X-01374*
Y00659*
X-01367*
Y00667*
X-01328*
Y00677*
X-01329Y00684*
X-01333Y00689*
X-01338Y00693*
X-01345Y00694*
Y00699*
X-01338Y007*
X-01333Y00704*
X-01329Y00709*
X-01328Y00716*
Y00752*
X-01329Y00758*
X-01333Y00764*
X-01338Y00768*
X-01345Y00769*
X-01348*
X-01349Y00774*
X-01346Y00779*
X-01344Y00786*
X-01339*
X-01338Y00779*
X-01334Y00774*
X-01329Y0077*
X-01322Y00769*
X-01287*
X-0128Y0077*
X-01275Y00774*
X-01271Y00779*
X-0127Y00786*
Y00821*
X-01255Y00836*
X-01239*
X-01233Y00837*
X-01228Y0084*
X-01211Y00857*
X-01209Y00856*
X-01173*
X-01167Y00858*
X-01161Y00861*
X-01158Y00867*
X-01156Y00873*
Y00909*
X-01126Y00939*
X-00227*
X-0019Y00902*
Y00799*
X-00189Y00793*
X-00185Y00788*
X-00086Y00689*
X-00081Y00685*
X-00076Y00684*
X00078*
X00083Y00685*
X00088Y00689*
X00196Y00797*
X002Y00802*
X00201Y00808*
Y0091*
X00233Y00942*
X00422*
X00471Y00894*
X00469Y00889*
X00467*
Y00812*
X00544*
Y00889*
X00519*
X00439Y00968*
X00434Y00972*
X00429Y00973*
X00227*
X00221Y00972*
X00216Y00968*
X00175Y00927*
X00171Y00922*
X0017Y00916*
Y00814*
X00071Y00715*
X-00069*
X-00159Y00805*
Y00909*
X-0016Y00914*
X-00164Y00919*
X-0021Y00965*
X-00215Y00969*
X-00221Y0097*
X-01132*
X-01138Y00969*
X-01143Y00965*
X-01174Y00934*
X-01209*
X-01216Y00933*
X-01221Y00929*
X-01225Y00924*
X-01226Y00917*
X-01231*
X-01232Y00924*
X-01236Y00929*
X-01242Y00933*
X-01248Y00934*
X-01284*
X-0129Y00933*
X-01296Y00929*
X-01298Y00926*
X-01304Y00927*
X-01306Y0093*
X-01311Y00933*
X-01318Y00935*
X-01352*
X-01358Y00933*
X-01364Y0093*
X-01368Y00924*
X-01369Y00918*
Y00907*
X-01373Y00906*
X-01378Y00903*
X-01439Y00842*
X-01467*
X-01474Y0084*
X-01479Y00837*
X-01483Y00831*
X-01484Y00825*
X-01489*
X-01491Y00831*
X-01494Y00837*
X-015Y0084*
X-01506Y00842*
X-01517*
Y00803*
X-01532*
Y00842*
X-01542*
X-01549Y0084*
X-0155Y0084*
X-01555Y00842*
Y00876*
X-01514Y00917*
X-01509Y00914*
Y00899*
X-01482*
Y00935*
X-01488*
X-0149Y0094*
X-01446Y00984*
X-00106*
X-00105Y00979*
X-0012Y00962*
X-00132Y00942*
X-00141Y0092*
X-00146Y00898*
X-00148Y00875*
X-00146Y00851*
X-00141Y00829*
X-00132Y00807*
X-0012Y00787*
X-00105Y00769*
X-00087Y00754*
X-00067Y00742*
X-00045Y00733*
X-00023Y00728*
X0Y00726*
X00023Y00728*
X00045Y00733*
X00067Y00742*
X00087Y00754*
X00105Y00769*
X0012Y00787*
X00132Y00807*
X00141Y00829*
X00146Y00851*
X00148Y00875*
X00146Y00898*
X00141Y0092*
X00132Y00942*
X0012Y00962*
X00105Y00979*
X00106Y00984*
X01446*
X01555Y00876*
G37*
G36*
X00996Y00173D02*
X01005Y00169D01*
X01014Y00168*
X01022Y00169*
X01031Y00173*
X01034Y00175*
X01035Y00176*
X01037Y00175*
X01038Y00173*
X01038Y00168*
X01036Y00165*
X01035Y00159*
Y00155*
X01062*
Y00147*
X01069*
Y00121*
X01074*
X01076Y00116*
X01077Y00115*
X00994Y00032*
X00991Y00027*
X00989Y00021*
Y-00074*
X00968*
X00962Y-00075*
X00957Y-00078*
X00932Y-00104*
X00883*
X00853Y-00073*
X00853Y-00072*
Y-00036*
X00853Y-00034*
X00855Y-00029*
X00856Y-00028*
X0086Y-00028*
X00865Y-00024*
X00935Y00045*
X00939Y0005*
X0094Y00055*
Y00081*
X00969*
X00976Y00082*
X00981Y00086*
X00985Y00092*
X00986Y00098*
Y00134*
X00985Y00141*
X00981Y00146*
X00976Y0015*
X00969Y00151*
Y00156*
X00976Y00157*
X00981Y00161*
X00985Y00166*
X00986Y00173*
Y00174*
X00991Y00177*
X00996Y00173*
G37*
G36*
X00846Y00829D02*
Y00795D01*
X00847Y00789*
X0085Y00784*
X0087Y00765*
X00868Y00761*
X00867Y00751*
X00868Y0074*
X00872Y00731*
X00878Y00723*
X00886Y00717*
X00895Y00713*
X00906Y00712*
X00916Y00713*
X00925Y00717*
X00933Y00723*
X00939Y00731*
X00943Y0074*
X00944Y00747*
X00947Y00749*
X00949Y00749*
X00954Y00745*
X00961Y00744*
X01005*
X01011Y00745*
X01016Y00749*
X01019Y00748*
X01021Y00746*
Y0073*
X01022Y00726*
X01025Y00721*
X01029Y00719*
X01034Y00718*
X01078*
X01083Y00719*
X01087Y00721*
X01088Y00723*
X01128*
Y00694*
X01129Y00688*
X01132Y00684*
X01131Y00682*
X01127Y00679*
X01115*
X01106Y00687*
X01101Y00691*
X01095Y00692*
X0079*
X00788Y00693*
X00783Y00697*
X00778Y00698*
X00644*
X00642Y00702*
X00659Y00719*
X00683*
X00686Y00717*
X00695Y00713*
X00706Y00712*
X00716Y00713*
X00725Y00717*
X00733Y00723*
X00739Y00731*
X00743Y0074*
X00744Y00751*
X00743Y00761*
X00742Y00762*
X00744Y00765*
X00746Y00766*
X00754Y00767*
X00763Y00771*
X00766Y00774*
X00771Y00771*
Y00768*
X00768Y00761*
X00767Y00751*
X00768Y0074*
X00772Y00731*
X00778Y00723*
X00786Y00717*
X00795Y00713*
X00806Y00712*
X00816Y00713*
X00825Y00717*
X00833Y00723*
X00839Y00731*
X00843Y0074*
X00844Y00751*
X00843Y00761*
X0084Y00768*
Y0083*
X00841Y00831*
X00846Y00829*
G37*
%LNunisolder52_front-2*%
%LPC*%
G36*
X-00368Y-00894D02*
X-00408D01*
X-00408Y-00895*
X-00403Y-00902*
X-00396Y-00906*
X-00388Y-00908*
X-00368*
Y-00894*
G37*
G36*
X-00319Y-00764D02*
X-0035D01*
Y-00774*
X-00349Y-00781*
X-00345Y-00786*
X-0034Y-0079*
X-00333Y-00791*
X-00319*
Y-00764*
G37*
G36*
X00001Y-00894D02*
X-00038D01*
X-00038Y-00895*
X-00033Y-00902*
X-00026Y-00906*
X-00018Y-00908*
X00001*
Y-00894*
G37*
G36*
X-00368Y-00865D02*
X-00388D01*
X-00396Y-00867*
X-00403Y-00872*
X-00408Y-00878*
X-00408Y-00879*
X-00368*
Y-00865*
G37*
G36*
X-00333D02*
X-00353D01*
Y-00879*
X-00313*
X-00313Y-00878*
X-00318Y-00872*
X-00325Y-00867*
X-00333Y-00865*
G37*
G36*
X-00313Y-00894D02*
X-00353D01*
Y-00908*
X-00333*
X-00325Y-00906*
X-00318Y-00902*
X-00313Y-00895*
X-00313Y-00894*
G37*
G36*
X-00989Y-00793D02*
X-01009D01*
Y-00812*
X-01003*
X-00998Y-00811*
X-00993Y-00808*
X-0099Y-00803*
X-00989Y-00798*
Y-00793*
G37*
G36*
X-01024D02*
X-01043D01*
Y-00798*
X-01042Y-00803*
X-01039Y-00808*
X-01034Y-00811*
X-01029Y-00812*
X-01024*
Y-00793*
G37*
G36*
X-01507Y-00623D02*
X-01537D01*
X-01537Y-00626*
X-01533Y-00635*
X-01527Y-00643*
X-01519Y-00649*
X-0151Y-00653*
X-01507Y-00653*
Y-00623*
G37*
G36*
X-01204Y-00608D02*
X-01223D01*
Y-00613*
X-01221Y-00619*
X-01218Y-00623*
X-01214Y-00626*
X-01208Y-00627*
X-01204*
Y-00608*
G37*
G36*
X-01492Y-00578D02*
Y-00616D01*
Y-00653*
X-01489Y-00653*
X-0148Y-00649*
X-01472Y-00643*
X-01466Y-00635*
X-01465Y-00634*
X-0146Y-00635*
Y-00664*
X-01479Y-00683*
X-0148Y-00682*
X-01489Y-00678*
X-015Y-00677*
X-0151Y-00678*
X-01519Y-00682*
X-01527Y-00688*
X-01533Y-00696*
X-01537Y-00705*
X-01538Y-00716*
X-01537Y-00726*
X-01533Y-00735*
X-01527Y-00743*
X-01519Y-00749*
X-0151Y-00753*
X-015Y-00754*
X-01489Y-00753*
X-0148Y-00749*
X-01472Y-00743*
X-01466Y-00735*
X-01465Y-00734*
X-0146Y-00735*
Y-00739*
X-01459Y-00745*
X-01459Y-00745*
X-01491Y-00777*
X-01538*
Y-00854*
X-01461*
Y-00791*
X-01426Y-00756*
X-014*
X-01393Y-00755*
X-01388Y-00751*
X-01384Y-00745*
X-01383Y-00739*
Y-00703*
X-01384Y-00696*
X-01388Y-00691*
X-01393Y-00687*
X-01395Y-00687*
X-01396Y-00682*
X-01395Y-00681*
X-01393Y-00681*
X-01202*
X-0119Y-00693*
X-01184Y-00697*
X-01177Y-00699*
X-01071*
X-01071Y-00699*
X-01068Y-00703*
X-01064Y-00706*
X-01059Y-00707*
X-01042*
X-0104Y-00709*
X-01039Y-00712*
X-01042Y-00716*
X-01043Y-00721*
Y-00745*
X-01042Y-00751*
X-01039Y-00755*
X-01037Y-00756*
Y-00762*
X-01039Y-00763*
X-01042Y-00768*
X-01043Y-00774*
Y-00778*
X-00989*
Y-00774*
X-0099Y-00768*
X-00993Y-00763*
X-00995Y-00762*
Y-00756*
X-00993Y-00755*
X-0099Y-00751*
X-00989Y-00745*
Y-00721*
X-0099Y-00716*
X-00993Y-00711*
X-00994Y-00711*
Y-00699*
X-00989*
X-00981Y-00697*
X-00977Y-007*
X-00969Y-00704*
X-0096Y-00705*
X-00946*
Y-00753*
X-00944Y-0076*
X-0094Y-00767*
X-00934Y-00771*
X-00926Y-00773*
X-0092*
Y-00803*
X-00918Y-00812*
X-00915Y-0082*
X-00909Y-00828*
X-00902Y-00833*
X-00893Y-00837*
X-00884Y-00838*
X-00875Y-00837*
X-00867Y-00833*
X-00859Y-00828*
X-00854Y-0082*
X-0085Y-00812*
X-00849Y-00803*
Y-00773*
X-00841*
X-00833Y-00771*
X-00827Y-00767*
X-00822Y-0076*
X-00821Y-00753*
Y-00656*
X-00822Y-00648*
X-00827Y-00642*
X-00833Y-00637*
X-00841Y-00636*
X-00926*
X-00928Y-00636*
X-00946*
X-00953Y-00631*
X-00961Y-00628*
X-0097Y-00626*
X-00979Y-00628*
X-00987Y-00631*
X-00994Y-00637*
X-01Y-00644*
X-01003Y-00652*
X-01004Y-0066*
X-01082*
X-01085Y-00657*
Y-00656*
X-01154*
Y-00657*
X-01157Y-0066*
X-01169*
X-0118Y-00648*
X-01187Y-00644*
X-01194Y-00643*
X-01383*
Y-00628*
X-01384Y-00622*
X-01388Y-00616*
X-01393Y-00612*
X-014Y-00611*
X-01443*
X-0145Y-00612*
X-01455Y-00616*
X-01456Y-00617*
X-0146Y-00616*
X-01461Y-00615*
X-01462Y-00605*
X-01466Y-00596*
X-01472Y-00588*
X-0148Y-00582*
X-01489Y-00578*
X-01492Y-00578*
G37*
G36*
X0142Y-00635D02*
X01385D01*
X01377Y-00636*
X01371Y-00641*
X01366Y-00647*
X01365Y-00655*
Y-00696*
X0142*
Y-00635*
G37*
G36*
X0147D02*
X01435D01*
Y-00696*
X0149*
Y-00655*
X01489Y-00647*
X01484Y-00641*
X01478Y-00636*
X0147Y-00635*
G37*
G36*
X-01094Y-00567D02*
X-01102Y-00568D01*
X-01111Y-00572*
X-01117Y-00576*
X-01122Y-00578*
X-01126Y-00575*
X-01132Y-00574*
X-01156*
X-01161Y-00575*
X-01166Y-00578*
X-01167Y-00579*
X-01173*
X-01174Y-00578*
X-01179Y-00575*
X-01184Y-00574*
X-01189*
Y-006*
Y-00627*
X-01184*
X-01179Y-00626*
X-01174Y-00623*
X-01173Y-00622*
X-01167*
X-01166Y-00623*
X-01161Y-00626*
X-01156Y-00627*
X-01154*
X-01153Y-00628*
X-01152Y-00632*
X-01153Y-00635*
X-01154Y-0064*
Y-00641*
X-01085*
Y-0064*
X-01085Y-0064*
X-01085Y-00635*
X-01081Y-00633*
X-01081Y-00633*
X-01027*
X-01023Y-00632*
X-01015*
X-0101Y-00631*
X-01006Y-00628*
X-01003Y-00624*
X-01002Y-00619*
Y-00603*
X-01003Y-00598*
X-01006Y-00594*
X-0101Y-00591*
X-01015Y-0059*
X-01023*
X-01027Y-00589*
X-01062*
X-01064Y-00584*
X-01069Y-00577*
X-01076Y-00572*
X-01085Y-00568*
X-01094Y-00567*
G37*
G36*
X-01395Y-00506D02*
X-01414D01*
Y-00511*
X-01413Y-00516*
X-0141Y-00521*
X-01406Y-00524*
X-014Y-00525*
X-01395*
Y-00506*
G37*
G36*
X-01204Y-00574D02*
X-01208D01*
X-01214Y-00575*
X-01218Y-00578*
X-01221Y-00582*
X-01223Y-00588*
Y-00593*
X-01204*
Y-00574*
G37*
G36*
X-00662Y-00511D02*
X-00675Y-00513D01*
X-00687Y-00518*
X-00697Y-00525*
X-00705Y-00536*
X-0071Y-00547*
X-00711Y-0056*
X-0071Y-00573*
X-00705Y-00584*
X-00697Y-00594*
X-00687Y-00602*
X-00675Y-00607*
X-00662Y-00609*
X-0065Y-00607*
X-00638Y-00602*
X-00628Y-00594*
X-0062Y-00584*
X-00615Y-00573*
X-00614Y-0056*
X-00615Y-00547*
X-0062Y-00536*
X-00628Y-00525*
X-00638Y-00518*
X-0065Y-00513*
X-00662Y-00511*
G37*
G36*
X-01507Y-00578D02*
X-0151Y-00578D01*
X-01519Y-00582*
X-01527Y-00588*
X-01533Y-00596*
X-01537Y-00605*
X-01537Y-00608*
X-01507*
Y-00578*
G37*
G36*
X00332Y-00715D02*
X00327D01*
Y-00734*
X00346*
Y-00729*
X00345Y-00724*
X00342Y-00719*
X00338Y-00716*
X00332Y-00715*
G37*
G36*
X0149Y-00711D02*
X01435D01*
Y-00772*
X0147*
X01478Y-0077*
X01484Y-00766*
X01489Y-00759*
X0149Y-00752*
Y-00711*
G37*
G36*
X-00231Y-00743D02*
X-00262D01*
Y-00753*
X-00261Y-0076*
X-00257Y-00765*
X-00252Y-00769*
X-00245Y-0077*
X-00231*
Y-00743*
G37*
G36*
X0142Y-00711D02*
X01365D01*
Y-00752*
X01366Y-00759*
X01371Y-00766*
X01377Y-0077*
X01385Y-00772*
X0142*
Y-00711*
G37*
G36*
X-00273Y-00764D02*
X-00304D01*
Y-00791*
X-0029*
X-00283Y-0079*
X-00278Y-00786*
X-00274Y-00781*
X-00273Y-00774*
Y-00764*
G37*
G36*
X-00662Y-00688D02*
X-00675Y-0069D01*
X-00687Y-00695*
X-00697Y-00703*
X-00705Y-00713*
X-0071Y-00724*
X-00711Y-00737*
X-0071Y-0075*
X-00705Y-00761*
X-00697Y-00772*
X-00687Y-00779*
X-00675Y-00784*
X-00662Y-00786*
X-0065Y-00784*
X-00638Y-00779*
X-00628Y-00772*
X-0062Y-00761*
X-00615Y-0075*
X-00614Y-00737*
X-00615Y-00724*
X-0062Y-00713*
X-00628Y-00703*
X-00638Y-00695*
X-0065Y-0069*
X-00662Y-00688*
G37*
G36*
X00807Y-00731D02*
X00802D01*
X00796Y-00733*
X00792Y-00736*
X00789Y-0074*
X00787Y-00746*
Y-0075*
X00807*
Y-00731*
G37*
G36*
X00312Y-00715D02*
X00307D01*
X00301Y-00716*
X00297Y-00719*
X00294Y-00724*
X00293Y-00729*
Y-00734*
X00312*
Y-00715*
G37*
G36*
X00266Y-00724D02*
X00235D01*
Y-00751*
X00249*
X00256Y-0075*
X00261Y-00746*
X00265Y-00741*
X00266Y-00734*
Y-00724*
G37*
G36*
X-00185Y-00743D02*
X-00216D01*
Y-0077*
X-00202*
X-00195Y-00769*
X-0019Y-00765*
X-00186Y-0076*
X-00185Y-00753*
Y-00743*
G37*
G36*
X0022Y-00724D02*
X00189D01*
Y-00734*
X0019Y-00741*
X00194Y-00746*
X00199Y-0075*
X00206Y-00751*
X0022*
Y-00724*
G37*
G36*
X-00841Y-00919D02*
X-00876D01*
Y-0098*
X-00821*
Y-00939*
X-00822Y-00932*
X-00827Y-00925*
X-00833Y-00921*
X-00841Y-00919*
G37*
G36*
X00472Y-01131D02*
X00455D01*
X00447Y-01133*
X00441Y-01137*
X00436Y-01144*
X00435Y-01151*
Y-012*
X00472*
Y-01131*
G37*
G36*
X00504D02*
X00487D01*
Y-012*
X00524*
Y-01151*
X00523Y-01144*
X00518Y-01137*
X00512Y-01133*
X00504Y-01131*
G37*
G36*
X-00313Y-01194D02*
X-00353D01*
Y-01208*
X-00333*
X-00325Y-01206*
X-00318Y-01202*
X-00313Y-01195*
X-00313Y-01194*
G37*
G36*
X00001D02*
X-00038D01*
X-00038Y-01195*
X-00033Y-01202*
X-00026Y-01206*
X-00018Y-01208*
X00001*
Y-01194*
G37*
G36*
X-01484Y-00953D02*
X-01492Y-00954D01*
X-01501Y-00958*
X-01508Y-00963*
X-01513Y-0097*
X-01517Y-00979*
X-01518Y-00988*
X-01517Y-00996*
X-01513Y-01005*
X-01508Y-01012*
X-01501Y-01017*
X-01492Y-01021*
X-01486Y-01021*
Y-01103*
X-01486*
X-01491Y-01104*
X-01495Y-01107*
X-01498Y-01111*
X-01499Y-01116*
Y-01132*
X-01498Y-01137*
X-01495Y-01141*
X-01491Y-01144*
X-01486Y-01145*
X-01442*
X-01437Y-01144*
X-01433Y-01141*
X-01431Y-01139*
X-01414*
X-01413Y-01143*
X-01412Y-01144*
X-01415Y-01148*
X-01416Y-01153*
Y-0117*
X-01415Y-01175*
X-01412Y-01179*
X-01408Y-01182*
X-01403Y-01183*
X-01359*
X-01356Y-01182*
X-01346*
Y-01201*
X-01345Y-01208*
X-01341Y-01213*
X-01335Y-01217*
X-01329Y-01218*
X-01293*
X-01287Y-01217*
X-01281Y-01213*
X-01277Y-01208*
X-01276Y-01201*
X-01271*
X-0127Y-01208*
X-01266Y-01213*
X-01261Y-01217*
X-01254Y-01218*
X-01218*
X-01212Y-01217*
X-01206Y-01213*
X-01203Y-01208*
X-01201Y-01201*
Y-012*
X-00993*
X-00986Y-01198*
X-00979Y-01194*
X-00943Y-01157*
X-00938Y-01158*
X-00937Y-01158*
X-00928Y-01165*
X-00917Y-0117*
X-00906Y-01171*
X-00894Y-0117*
X-00883Y-01165*
X-00874Y-01158*
X-00867Y-01149*
X-00862Y-01138*
X-00861Y-01126*
X-00862Y-01115*
X-00867Y-01104*
X-00874Y-01095*
X-00883Y-01088*
X-00894Y-01083*
X-00902Y-01082*
X-00902Y-01077*
X-00872*
X-00742Y-01206*
X-00737Y-0121*
X-00732Y-01211*
X-00626*
X-0062Y-0121*
X-00615Y-01206*
X-00588Y-01179*
X-00584Y-0118*
X-00567*
X-00562Y-01179*
X-00558Y-01176*
X-00555Y-01172*
X-00554Y-01167*
Y-01123*
X-00555Y-01118*
X-00558Y-01114*
X-00562Y-01111*
X-00567Y-0111*
X-00584*
X-00588Y-01111*
X-00593Y-01114*
X-00595Y-01118*
X-00596Y-01123*
Y-01144*
X-00632Y-0118*
X-00725*
X-00845Y-01061*
X-00843Y-01056*
X-00841*
X-00833Y-01055*
X-00827Y-0105*
X-00822Y-01044*
X-00821Y-01036*
Y-00995*
X-00946*
Y-01036*
X-00945Y-01041*
X-00948Y-01046*
X-01044*
X-01045Y-01045*
X-0105Y-01038*
X-01057Y-01033*
X-01066Y-01029*
X-01075Y-01028*
X-01083Y-01029*
X-01092Y-01033*
X-01099Y-01038*
X-01104Y-01045*
X-01108Y-01054*
X-01109Y-01063*
X-01108Y-01071*
X-01104Y-0108*
X-01099Y-01087*
X-01092Y-01092*
X-01083Y-01096*
X-01075Y-01097*
X-01066Y-01096*
X-01057Y-01092*
X-0105Y-01087*
X-01045Y-0108*
X-01044Y-01077*
X-0091*
X-00909Y-01082*
X-00917Y-01083*
X-00928Y-01088*
X-00937Y-01095*
X-00945Y-01104*
X-00946Y-01107*
X-00948Y-01108*
X-00955Y-01112*
X-01002Y-01159*
X-01201*
Y-01158*
X-01203Y-01151*
X-01206Y-01146*
X-01212Y-01142*
X-01218Y-01141*
X-01248*
X-0125Y-01136*
X-01249Y-01135*
X-01245Y-0113*
X-01244Y-01123*
Y-0108*
X-01245Y-01073*
X-01249Y-01068*
X-01255Y-01064*
X-01261Y-01063*
X-01297*
X-01304Y-01064*
X-01309Y-01068*
X-01313Y-01073*
X-01314Y-0108*
X-01319*
X-0132Y-01073*
X-01324Y-01068*
X-01329Y-01064*
X-01336Y-01063*
X-01372*
X-01378Y-01064*
X-01384Y-01068*
X-01388Y-01073*
X-01389Y-0108*
Y-01109*
X-01431*
X-01433Y-01107*
X-01437Y-01104*
X-01442Y-01103*
X-01455*
Y-01015*
X-01456Y-01009*
X-01457Y-01008*
X-01454Y-01005*
X-0145Y-00996*
X-01449Y-00988*
X-0145Y-00979*
X-01454Y-0097*
X-01459Y-00963*
X-01466Y-00958*
X-01475Y-00954*
X-01484Y-00953*
G37*
G36*
X-00333Y-01165D02*
X-00353D01*
Y-01179*
X-00313*
X-00313Y-01178*
X-00318Y-01172*
X-00325Y-01167*
X-00333Y-01165*
G37*
G36*
X-01471Y-01178D02*
X-01486D01*
X-01491Y-01179*
X-01495Y-01182*
X-01498Y-01186*
X-01499Y-01191*
Y-01191*
X-01471*
Y-01178*
G37*
G36*
X-01442D02*
X-01456D01*
Y-01191*
X-01429*
Y-01191*
X-0143Y-01186*
X-01433Y-01182*
X-01437Y-01179*
X-01442Y-01178*
G37*
G36*
X-00517Y-01235D02*
X-0053D01*
Y-01262*
X-0053*
X-00525Y-01261*
X-00521Y-01259*
X-00518Y-01255*
X-00517Y-0125*
Y-01235*
G37*
G36*
X-00725Y-0089D02*
X-00732Y-00892D01*
X-00739Y-00896*
X-00774Y-00931*
X-00778Y-00938*
X-0078Y-00945*
X-00778Y-00953*
X-00774Y-0096*
X-00739Y-00995*
X-00732Y-00999*
X-00725Y-01001*
X-00717Y-00999*
X-00711Y-00995*
X-00698Y-00982*
X-00674Y-01005*
X-00676Y-01007*
X-00677Y-01012*
Y-01029*
X-00676Y-01033*
X-00673Y-01038*
X-00669Y-0104*
X-00664Y-01041*
X-00638*
X-00591Y-01088*
X-00584Y-01094*
X-00576Y-01097*
X-00567Y-01099*
X-00515*
Y-01112*
X-00518Y-01114*
X-00521Y-01118*
X-00522Y-01123*
Y-01167*
X-00521Y-01172*
X-00518Y-01176*
X-00514Y-01179*
X-00509Y-0118*
X-00492*
X-00487Y-01179*
X-00483Y-01176*
X-0048Y-01172*
X-00479Y-01167*
Y-01123*
X-0048Y-01118*
X-00483Y-01114*
X-00486Y-01112*
Y-01099*
X-00448*
X-00444Y-01098*
X-0044Y-01102*
X-00433Y-01107*
X-00425Y-01108*
X-00382*
Y-01115*
X-00385*
X-00394Y-01116*
X-00394Y-01116*
X-00396Y-01117*
X-00403Y-01122*
X-00407Y-01127*
X-00437Y-01157*
X-00442Y-01164*
X-00443Y-01173*
Y-012*
X-00442Y-01209*
X-00437Y-01216*
X-00407Y-01246*
X-00403Y-01252*
X-00396Y-01256*
X-00394Y-01257*
X-00394Y-01257*
X-00385Y-01258*
X-00361*
X-00357Y-01258*
X-00333*
X-00325Y-01256*
X-00318Y-01252*
X-00313Y-01245*
X-00312Y-01237*
X-00313Y-01228*
X-00318Y-01222*
X-00325Y-01217*
X-00333Y-01215*
X-00357*
X-00361Y-01215*
X-00374*
X-00375Y-01213*
X-00373Y-01208*
X-00368*
Y-01187*
Y-01165*
X-00373*
X-00375Y-0116*
X-00374Y-01158*
X-00361*
X-00357Y-01158*
X-00333*
X-00325Y-01156*
X-00318Y-01152*
X-00313Y-01145*
X-00312Y-01137*
X-00313Y-01128*
X-00318Y-01122*
X-00325Y-01117*
X-00333Y-01115*
X-00339*
Y-01108*
X-00333*
X-00325Y-01106*
X-00318Y-01102*
X-00313Y-01095*
X-00312Y-01087*
X-00313Y-01078*
X-00318Y-01072*
X-00325Y-01067*
X-00333Y-01065*
X-00339*
Y-01058*
X-00333*
X-00325Y-01056*
X-00318Y-01052*
X-00313Y-01045*
X-00312Y-01037*
X-00313Y-01028*
X-00318Y-01022*
X-00325Y-01017*
X-00333Y-01015*
X-00357*
X-00361Y-01015*
X-00364Y-01015*
X-00388*
X-00396Y-01017*
X-00403Y-01022*
X-00408Y-01028*
X-00409Y-01037*
X-00408Y-01045*
X-00403Y-01052*
X-00396Y-01056*
X-00388Y-01058*
X-00382*
Y-01065*
X-00413*
X-00413Y-01064*
X-00414Y-01055*
X-00418Y-01047*
X-00421Y-01044*
Y-01041*
X-00422Y-01035*
X-00425Y-0103*
X-00426Y-0103*
Y-01023*
X-00425Y-01023*
X-00422Y-01018*
X-00421Y-01012*
Y-01008*
X-00474*
Y-01012*
X-00473Y-01018*
X-0047Y-01023*
X-00471Y-01028*
X-00474Y-0103*
X-00503*
X-00503Y-0103*
Y-01024*
X-00502Y-01023*
X-00499Y-01018*
X-00498Y-01013*
Y-01008*
X-00552*
Y-01013*
X-00551Y-01018*
X-00547Y-01023*
X-00549Y-01028*
X-00551Y-0103*
X-00553*
X-00668Y-00914*
X-00675Y-00909*
X-00684Y-00905*
X-00693Y-00904*
X-00703*
X-00711Y-00896*
X-00717Y-00892*
X-00725Y-0089*
G37*
G36*
X00093Y-01459D02*
X0007D01*
Y-01485*
X0007Y-01485*
X00078Y-01482*
X00084Y-01477*
X00089Y-01471*
X00092Y-01463*
X00093Y-01459*
G37*
G36*
X-00545Y-01235D02*
X-00559D01*
Y-0125*
X-00558Y-01255*
X-00555Y-01259*
X-00551Y-01261*
X-00546Y-01262*
X-00545*
Y-01235*
G37*
G36*
X-01471Y-01206D02*
X-01499D01*
Y-01207*
X-01498Y-01212*
X-01495Y-01216*
X-01491Y-01219*
X-01486Y-0122*
X-01471*
Y-01206*
G37*
G36*
X-01429D02*
X-01456D01*
Y-0122*
X-01442*
X-01437Y-01219*
X-01433Y-01216*
X-0143Y-01212*
X-01429Y-01207*
Y-01206*
G37*
G36*
X-00545Y-01193D02*
X-00546D01*
X-00551Y-01194*
X-00555Y-01196*
X-00558Y-01201*
X-00559Y-01206*
Y-0122*
X-00545*
Y-01193*
G37*
G36*
X-0053D02*
X-0053D01*
Y-0122*
X-00517*
Y-01206*
X-00518Y-01201*
X-00521Y-01196*
X-00525Y-01194*
X-0053Y-01193*
G37*
G36*
X00001Y-01165D02*
X-00018D01*
X-00026Y-01167*
X-00033Y-01172*
X-00038Y-01178*
X-00038Y-01179*
X00001*
Y-01165*
G37*
G36*
X01245Y-00716D02*
X0122Y-00718D01*
X01196Y-00724*
X01173Y-00733*
X01151Y-00746*
X01132Y-00762*
X01116Y-00781*
X01103Y-00803*
X01094Y-00826*
X01088Y-0085*
X01086Y-00875*
X01088Y-00899*
X01094Y-00923*
X01103Y-00946*
X01116Y-00968*
X01132Y-00987*
X01151Y-01003*
X01173Y-01016*
X01196Y-01025*
X0122Y-01031*
X01245Y-01033*
X01269Y-01031*
X01293Y-01025*
X01316Y-01016*
X01338Y-01003*
X01357Y-00987*
X01373Y-00968*
X01386Y-00946*
X01395Y-00923*
X01401Y-00899*
X01403Y-00875*
X01401Y-0085*
X01395Y-00826*
X01386Y-00803*
X01373Y-00781*
X01357Y-00762*
X01338Y-00746*
X01316Y-00733*
X01293Y-00724*
X01269Y-00718*
X01245Y-00716*
G37*
G36*
X-00532Y-00974D02*
X-00537D01*
X-00543Y-00975*
X-00547Y-00979*
X-00551Y-00983*
X-00552Y-00989*
Y-00993*
X-00532*
Y-00974*
G37*
G36*
X01031Y-01026D02*
X0103Y-01026D01*
X01024Y-01031*
X01019Y-01037*
X01017Y-01046*
Y-01064*
X01031*
Y-01026*
G37*
G36*
X-01245Y-00716D02*
X-01269Y-00718D01*
X-01293Y-00724*
X-01316Y-00733*
X-01338Y-00746*
X-01357Y-00762*
X-01373Y-00781*
X-01386Y-00803*
X-01395Y-00826*
X-01401Y-0085*
X-01403Y-00875*
X-01401Y-00899*
X-01395Y-00923*
X-01386Y-00946*
X-01373Y-00968*
X-01357Y-00987*
X-01338Y-01003*
X-01316Y-01016*
X-01293Y-01025*
X-01269Y-01031*
X-01245Y-01033*
X-0122Y-01031*
X-01196Y-01025*
X-01173Y-01016*
X-01151Y-01003*
X-01132Y-00987*
X-01116Y-00968*
X-01103Y-00946*
X-01094Y-00923*
X-01088Y-00899*
X-01086Y-00875*
X-01088Y-0085*
X-01094Y-00826*
X-01103Y-00803*
X-01116Y-00781*
X-01132Y-00762*
X-01151Y-00746*
X-01173Y-00733*
X-01196Y-00724*
X-0122Y-00718*
X-01245Y-00716*
G37*
G36*
X-00435Y-00974D02*
X-0044D01*
Y-00993*
X-00421*
Y-00988*
X-00422Y-00983*
X-00425Y-00978*
X-00429Y-00975*
X-00435Y-00974*
G37*
G36*
X-00891Y-00919D02*
X-00926D01*
X-00934Y-00921*
X-0094Y-00925*
X-00944Y-00932*
X-00946Y-00939*
Y-0098*
X-00891*
Y-00919*
G37*
G36*
X-00512Y-00974D02*
X-00517D01*
Y-00993*
X-00498*
Y-00989*
X-00499Y-00983*
X-00502Y-00979*
X-00507Y-00975*
X-00512Y-00974*
G37*
G36*
X-00455Y-00974D02*
X-0046D01*
X-00466Y-00975*
X-0047Y-00978*
X-00473Y-00983*
X-00474Y-00988*
Y-00993*
X-00455*
Y-00974*
G37*
G36*
X-00736Y-01035D02*
X-00742Y-01037D01*
X-00747*
X-00752Y-01038*
X-00756Y-0104*
X-00759Y-01045*
X-0076Y-01049*
Y-01066*
X-00759Y-01071*
X-00756Y-01075*
Y-01075*
X-0076Y-01078*
X-00765Y-01085*
X-00769Y-01093*
X-0077Y-01102*
X-00769Y-01111*
X-00765Y-01119*
X-0076Y-01126*
X-00753Y-01132*
X-00745Y-01135*
X-00736Y-01136*
X-00727Y-01135*
X-00719Y-01132*
X-00711Y-01126*
X-00706Y-01119*
X-00703Y-01111*
X-00701Y-01102*
X-00703Y-01093*
X-00706Y-01085*
X-00707Y-01083*
X-00705Y-01079*
X-00703*
X-00698Y-01078*
X-00694Y-01075*
X-00691Y-01071*
X-0069Y-01066*
Y-01049*
X-00691Y-01045*
X-00694Y-0104*
X-00698Y-01038*
X-00703Y-01037*
X-00729*
X-00736Y-01035*
G37*
G36*
X01031Y-01079D02*
X01017D01*
Y-01097*
X01019Y-01105*
X01024Y-01112*
X0103Y-01116*
X01031Y-01116*
Y-01079*
G37*
G36*
X00681Y-01121D02*
X0065D01*
Y-01132*
X00651Y-01138*
X00655Y-01144*
X0066Y-01148*
X00667Y-01149*
X00681*
Y-01121*
G37*
G36*
X00727D02*
X00696D01*
Y-01149*
X0071*
X00717Y-01148*
X00722Y-01144*
X00726Y-01138*
X00727Y-01132*
Y-01121*
G37*
G36*
X-0065Y-01074D02*
X-00664D01*
X-00669Y-01075*
X-00673Y-01078*
X-00676Y-01082*
X-00677Y-01087*
Y-01088*
X-0065*
Y-01074*
G37*
G36*
X-0062D02*
X-00635D01*
Y-01088*
X-00607*
Y-01087*
X-00608Y-01082*
X-00611Y-01078*
X-00615Y-01075*
X-0062Y-01074*
G37*
G36*
X-0065Y-01103D02*
X-00677D01*
Y-01103*
X-00676Y-01108*
X-00673Y-01112*
X-00669Y-01115*
X-00664Y-01116*
X-0065*
Y-01103*
G37*
G36*
X-00607D02*
X-00635D01*
Y-01116*
X-0062*
X-00615Y-01115*
X-00611Y-01112*
X-00608Y-01108*
X-00607Y-01103*
Y-01103*
G37*
G36*
X-01361Y-00506D02*
X-0138D01*
Y-00525*
X-01375*
X-01369Y-00524*
X-01365Y-00521*
X-01362Y-00516*
X-01361Y-00511*
Y-00506*
G37*
G36*
X-00591Y00597D02*
X-00608D01*
X-00613Y00596*
X-00617Y00593*
X-0062Y00589*
X-00621Y00584*
Y00517*
X-0062Y00512*
X-00617Y00508*
X-00613Y00505*
X-00608Y00504*
X-00591*
X-00586Y00505*
X-00582Y00508*
X-00579Y00512*
X-00578Y00517*
Y00584*
X-00579Y00589*
X-00582Y00593*
X-00586Y00596*
X-00591Y00597*
G37*
G36*
X-00457Y00543D02*
X-00471D01*
Y00525*
X-00469Y00517*
X-00465Y0051*
X-00458Y00505*
X-00457Y00505*
Y00543*
G37*
G36*
X-00719Y00476D02*
X-00738D01*
Y00457*
X-00733*
X-00728Y00458*
X-00723Y00461*
X-0072Y00466*
X-00719Y00471*
Y00476*
G37*
G36*
X-00733Y00511D02*
X-00738D01*
Y00491*
X-00719*
Y00496*
X-0072Y00502*
X-00723Y00507*
X-00728Y0051*
X-00733Y00511*
G37*
G36*
X-00634Y00541D02*
X-00665D01*
Y00514*
X-00651*
X-00644Y00515*
X-00639Y00519*
X-00635Y00524*
X-00634Y00531*
Y00541*
G37*
G36*
X-01452Y00565D02*
X-01483D01*
Y00554*
X-01482Y00548*
X-01478Y00542*
X-01473Y00538*
X-01466Y00537*
X-01452*
Y00565*
G37*
G36*
X-00428Y00543D02*
X-00442D01*
Y00505*
X-00441Y00505*
X-00435Y0051*
X-0043Y00517*
X-00428Y00525*
Y00543*
G37*
G36*
X-0068Y00541D02*
X-00711D01*
Y00531*
X-0071Y00524*
X-00706Y00519*
X-00701Y00515*
X-00694Y00514*
X-0068*
Y00541*
G37*
G36*
X01371Y00222D02*
X01366D01*
Y00203*
X01385*
Y00208*
X01384Y00214*
X01381Y00218*
X01376Y00221*
X01371Y00222*
G37*
G36*
X01449Y-00074D02*
X01408D01*
Y-00134*
X01413Y-00133*
X01425Y-00128*
X01435Y-0012*
X01442Y-0011*
X01447Y-00099*
X01449Y-00086*
Y-00074*
G37*
G36*
X00897Y00101D02*
X00869D01*
Y0007*
X0088*
X00886Y00071*
X00892Y00075*
X00896Y0008*
X00897Y00087*
Y00101*
G37*
G36*
X-00865Y-00121D02*
X-00889D01*
X-00897Y-00123*
X-00904Y-00128*
X-00908Y-00134*
X-00908Y-00135*
X-00865*
Y-00121*
G37*
G36*
X-00826D02*
X-0085D01*
Y-00135*
X-00806*
X-00806Y-00134*
X-00811Y-00128*
X-00817Y-00123*
X-00826Y-00121*
G37*
G36*
X01385Y00188D02*
X01366D01*
Y00169*
X01371*
X01376Y0017*
X01381Y00173*
X01384Y00177*
X01385Y00183*
Y00188*
G37*
G36*
X-00973Y00198D02*
X-00987D01*
Y0017*
X-00956*
Y00181*
X-00957Y00187*
X-00961Y00193*
X-00966Y00197*
X-00973Y00198*
G37*
G36*
X01054Y0014D02*
X01035D01*
Y00135*
X01036Y0013*
X01039Y00125*
X01043Y00122*
X01049Y00121*
X01054*
Y0014*
G37*
G36*
X01227Y00165D02*
X01213D01*
X01206Y00164*
X01201Y0016*
X01197Y00155*
X01196Y00148*
Y00138*
X01227*
Y00165*
G37*
G36*
X-006Y00837D02*
X-00605D01*
X-0061Y00835*
X-00615Y00832*
X-00618Y00828*
X-00619Y00822*
Y00817*
X-006*
Y00837*
G37*
G36*
X00229Y00846D02*
X00228D01*
X00223Y00845*
X00219Y00842*
X00216Y00838*
X00215Y00833*
Y00819*
X00229*
Y00846*
G37*
G36*
X01131Y00797D02*
X01116D01*
X01111Y00796*
X01107Y00793*
X01104Y00789*
X01103Y00784*
Y00784*
X01131*
Y00797*
G37*
G36*
X0116D02*
X01146D01*
Y00784*
X01173*
Y00784*
X01172Y00789*
X01169Y00793*
X01165Y00796*
X0116Y00797*
G37*
G36*
X-01441Y00884D02*
X-01467D01*
Y00849*
X-01457*
X-01451Y0085*
X-01446Y00854*
X-01442Y00859*
X-01441Y00866*
Y00884*
G37*
G36*
X-01457Y00935D02*
X-01467D01*
Y00899*
X-01441*
Y00918*
X-01442Y00924*
X-01446Y0093*
X-01451Y00933*
X-01457Y00935*
G37*
G36*
X01217Y00846D02*
X01217D01*
X01212Y00845*
X01208Y00842*
X01205Y00838*
X01204Y00833*
Y00819*
X01217*
Y00846*
G37*
G36*
X-01482Y00884D02*
X-01509D01*
Y00866*
X-01507Y00859*
X-01504Y00854*
X-01498Y0085*
X-01492Y00849*
X-01482*
Y00884*
G37*
G36*
X01217Y00804D02*
X01204D01*
Y00789*
X01205Y00784*
X01208Y0078*
X01212Y00777*
X01217Y00776*
X01217*
Y00804*
G37*
G36*
X-00442Y00596D02*
Y00558D01*
X-00428*
Y00576*
X-0043Y00584*
X-00435Y00591*
X-00441Y00596*
X-00442Y00596*
G37*
G36*
X-0039Y00604D02*
X-004D01*
Y00586*
X-00399Y00579*
X-00395Y00574*
X-0039Y0057*
Y00604*
G37*
G36*
X00593Y00572D02*
X00579D01*
X00572Y00571*
X00567Y00567*
X00563Y00561*
X00562Y00555*
Y00544*
X00593*
Y00572*
G37*
G36*
X-00457Y00596D02*
X-00458Y00596D01*
X-00465Y00591*
X-00469Y00584*
X-00471Y00576*
Y00558*
X-00457*
Y00596*
G37*
G36*
X-00871Y00695D02*
X-00876D01*
Y00675*
X-00857*
Y0068*
X-00858Y00686*
X-00861Y0069*
X-00866Y00693*
X-00871Y00695*
G37*
G36*
X-00836Y00726D02*
X-00867D01*
Y00716*
X-00866Y00709*
X-00862Y00704*
X-00857Y007*
X-0085Y00699*
X-00836*
Y00726*
G37*
G36*
X-0039Y00652D02*
X-00395Y00649D01*
X-00399Y00643*
X-004Y00637*
Y00619*
X-0039*
Y00652*
G37*
G36*
X-00299D02*
Y00619D01*
X-00289*
Y00637*
X-0029Y00643*
X-00294Y00649*
X-00299Y00652*
G37*
G36*
X00411Y-001D02*
X004Y-00101D01*
X00391Y-00105*
X00383Y-00111*
X00377Y-00119*
X00373Y-00128*
X00372Y-00139*
X00373Y-00149*
X00377Y-00158*
X00383Y-00166*
X00391Y-00172*
X004Y-00176*
X00411Y-00177*
X00421Y-00176*
X0043Y-00172*
X00438Y-00166*
X00444Y-00158*
X00448Y-00149*
X00449Y-00139*
X00448Y-00128*
X00444Y-00119*
X00438Y-00111*
X0043Y-00105*
X00421Y-00101*
X00411Y-001*
G37*
G36*
X-00233Y-00382D02*
X-00238D01*
Y-00401*
X-00219*
Y-00396*
X-0022Y-00391*
X-00223Y-00386*
X-00228Y-00383*
X-00233Y-00382*
G37*
G36*
X-00003Y-0037D02*
X-00022D01*
Y-00384*
X00015*
X00015Y-00383*
X00011Y-00377*
X00004Y-00372*
X-00003Y-0037*
G37*
G36*
X00148Y-00399D02*
X0011D01*
X0011Y-004*
X00114Y-00407*
X00121Y-00411*
X00129Y-00413*
X00148*
Y-00399*
G37*
G36*
X002D02*
X00163D01*
Y-00413*
X00181*
X00189Y-00411*
X00196Y-00407*
X002Y-004*
X002Y-00399*
G37*
G36*
X-0011Y-00361D02*
X-00115D01*
X-00121Y-00362*
X-00125Y-00365*
X-00128Y-0037*
X-00129Y-00375*
Y-0038*
X-0011*
Y-00361*
G37*
G36*
X-01421Y-00346D02*
X-01434Y-0036D01*
X-01421Y-00373*
X-01417Y-0037*
X-01414Y-00365*
X-01413Y-0036*
X-01414Y-00354*
X-01417Y-00349*
X-01421Y-00346*
G37*
G36*
X00148Y-0037D02*
X00129D01*
X00121Y-00372*
X00114Y-00377*
X0011Y-00383*
X0011Y-00384*
X00148*
Y-0037*
G37*
G36*
X00181D02*
X00163D01*
Y-00384*
X002*
X002Y-00383*
X00196Y-00377*
X00189Y-00372*
X00181Y-0037*
G37*
G36*
X00015Y-00399D02*
X-00022D01*
Y-00413*
X-00003*
X00004Y-00411*
X00011Y-00407*
X00015Y-004*
X00015Y-00399*
G37*
G36*
X00148Y-00449D02*
X0011D01*
X0011Y-0045*
X00114Y-00457*
X00121Y-00461*
X00129Y-00463*
X00148*
Y-00449*
G37*
G36*
X002D02*
X00163D01*
Y-00463*
X00181*
X00189Y-00461*
X00196Y-00457*
X002Y-0045*
X002Y-00449*
G37*
G36*
X00354Y-00445D02*
X00335D01*
Y-0045*
X00336Y-00456*
X00339Y-0046*
X00344Y-00463*
X00349Y-00464*
X00354*
Y-00445*
G37*
G36*
X00634Y-00445D02*
X0063D01*
X00624Y-00446*
X0062Y-00449*
X00617Y-00454*
X00615Y-00459*
Y-00464*
X00634*
Y-00445*
G37*
G36*
X00181Y-0042D02*
X00163D01*
Y-00434*
X002*
X002Y-00433*
X00196Y-00427*
X00189Y-00422*
X00181Y-0042*
G37*
G36*
X00354Y-00411D02*
X00349D01*
X00344Y-00412*
X00339Y-00415*
X00336Y-00419*
X00335Y-00425*
Y-0043*
X00354*
Y-00411*
G37*
G36*
X-00219Y-00416D02*
X-00238D01*
Y-00436*
X-00233*
X-00228Y-00435*
X-00223Y-00432*
X-0022Y-00427*
X-00219Y-00422*
Y-00416*
G37*
G36*
X00148Y-0042D02*
X00129D01*
X00121Y-00422*
X00114Y-00427*
X0011Y-00433*
X0011Y-00434*
X00148*
Y-0042*
G37*
G36*
Y-0027D02*
X00129D01*
X00121Y-00272*
X00114Y-00277*
X0011Y-00283*
X0011Y-00284*
X00148*
Y-0027*
G37*
G36*
X00181D02*
X00163D01*
Y-00284*
X002*
X002Y-00283*
X00196Y-00277*
X00189Y-00272*
X00181Y-0027*
G37*
G36*
X00148Y-00299D02*
X0011D01*
X0011Y-003*
X00114Y-00307*
X00121Y-00311*
X00129Y-00313*
X00148*
Y-00299*
G37*
G36*
X002D02*
X00163D01*
Y-00313*
X00181*
X00189Y-00311*
X00196Y-00307*
X002Y-003*
X002Y-00299*
G37*
G36*
X-01494Y-00205D02*
X-01513D01*
Y-00224*
X-01508*
X-01502Y-00223*
X-01498Y-0022*
X-01495Y-00215*
X-01494Y-0021*
Y-00205*
G37*
G36*
X00541Y-00173D02*
X00527D01*
Y-00187*
X00528Y-00192*
X00531Y-00196*
X00535Y-00199*
X0054Y-002*
X00541*
Y-00173*
G37*
G36*
X-00003Y-0027D02*
X-00055D01*
X-00063Y-00272*
X-00069Y-00276*
X-0007*
X-00075Y-00277*
X-0008Y-0028*
X-00082Y-00279*
X-00091Y-00278*
X-00099Y-00279*
X-00108Y-00283*
X-00115Y-00288*
X-0012Y-00295*
X-00124Y-00304*
X-00125Y-00313*
X-00124Y-00321*
X-0012Y-0033*
X-00115Y-00337*
X-00108Y-00342*
X-00099Y-00346*
X-00091Y-00347*
X-00082Y-00346*
X-00079Y-00345*
X-00075Y-00347*
X-00074Y-0035*
X-0007Y-00357*
X-00063Y-00361*
X-00055Y-00363*
X-00003*
X00004Y-00361*
X0001Y-00357*
X00011*
X00016Y-00356*
X00021Y-00353*
X00023Y-00354*
X00032Y-00355*
X0004Y-00354*
X00049Y-0035*
X00056Y-00345*
X00061Y-00338*
X00065Y-00329*
X00066Y-00321*
X00065Y-00312*
X00061Y-00303*
X00056Y-00296*
X00049Y-00291*
X0004Y-00287*
X00032Y-00286*
X00023Y-00287*
X0002Y-00288*
X00016Y-00286*
X00015Y-00283*
X00011Y-00277*
X00004Y-00272*
X-00003Y-0027*
G37*
G36*
X01227Y-00215D02*
X01222Y-00216D01*
X0121Y-00221*
X012Y-00229*
X01193Y-00239*
X01188Y-0025*
X01186Y-00263*
Y-00275*
X01227*
Y-00215*
G37*
G36*
X00181Y-0032D02*
X00163D01*
Y-00334*
X002*
X002Y-00333*
X00196Y-00327*
X00189Y-00322*
X00181Y-0032*
G37*
G36*
X-00762Y-00332D02*
X-00767D01*
X-00773Y-00333*
X-00777Y-00336*
X-0078Y-00341*
X-00781Y-00346*
Y-00351*
X-00762*
Y-00332*
G37*
G36*
X-00742D02*
X-00747D01*
Y-00351*
X-00728*
Y-00346*
X-00729Y-00341*
X-00732Y-00336*
X-00736Y-00333*
X-00742Y-00332*
G37*
G36*
X00148Y-00349D02*
X0011D01*
X0011Y-0035*
X00114Y-00357*
X00121Y-00361*
X00129Y-00363*
X00148*
Y-00349*
G37*
G36*
X002D02*
X00163D01*
Y-00363*
X00181*
X00189Y-00361*
X00196Y-00357*
X002Y-0035*
X002Y-00349*
G37*
G36*
X01227Y-0029D02*
X01186D01*
Y-00302*
X01188Y-00315*
X01193Y-00327*
X012Y-00337*
X0121Y-00345*
X01222Y-0035*
X01227Y-0035*
Y-0029*
G37*
G36*
X00148Y-0032D02*
X00129D01*
X00121Y-00322*
X00114Y-00327*
X0011Y-00333*
X0011Y-00334*
X00148*
Y-0032*
G37*
G36*
X-00698Y-00332D02*
X-00703D01*
X-00709Y-00333*
X-00713Y-00336*
X-00716Y-00341*
X-00717Y-00346*
Y-00351*
X-00698*
Y-00332*
G37*
G36*
X-00678D02*
X-00683D01*
Y-00351*
X-00664*
Y-00346*
X-00665Y-00341*
X-00668Y-00336*
X-00672Y-00333*
X-00678Y-00332*
G37*
%LNunisolder52_front-3*%
%LPD*%
G54D10*
X01394Y00271D03*
X01368D03*
X01342D03*
X01317D03*
X01189Y00496D03*
X01163D03*
Y00271D03*
X01189D03*
X01215D03*
X0124D03*
X01266D03*
X01291D03*
X01215Y00496D03*
X0124D03*
X01266D03*
X01291D03*
X01317D03*
X01342D03*
X01368D03*
X01394D03*
G54D11*
X00605Y-00985D03*
Y-0096D03*
Y-00934D03*
Y-00909D03*
Y-00883D03*
Y-00857D03*
Y-00832D03*
X0038Y-00985D03*
Y-0096D03*
Y-00934D03*
Y-00909D03*
Y-00883D03*
Y-00857D03*
Y-00832D03*
G54D12*
X01059Y-00198D03*
Y-00107D03*
G54D13*
X00902Y-00153D03*
G54D14*
X-01252Y00074D03*
X-01266Y0006D03*
X-01279Y00047D03*
X-01293Y00033D03*
X-01307Y00019D03*
X-01321Y00005D03*
X-01335Y-00008D03*
X-01349Y-00022D03*
X-01363Y-00036D03*
X-01377Y-0005D03*
X-01391Y-00064D03*
X-01405Y-00078D03*
X-01419Y-00092D03*
X-01433Y-00106D03*
X-01446Y-00119D03*
X-0146Y-00133D03*
X-01151Y-00442D03*
X-01137Y-00428D03*
X-01124Y-00415D03*
X-0111Y-00401D03*
X-01096Y-00387D03*
X-01082Y-00373D03*
X-01068Y-00359D03*
X-01054Y-00345D03*
X-0104Y-00331D03*
X-01026Y-00317D03*
X-01012Y-00303D03*
X-00998Y-00289D03*
X-00984Y-00275D03*
X-0097Y-00261D03*
X-00957Y-00248D03*
X-00943Y-00234D03*
G54D15*
X-0146Y-00234D03*
X-01446Y-00248D03*
X-01433Y-00261D03*
X-01419Y-00275D03*
X-01405Y-00289D03*
X-01391Y-00303D03*
X-01377Y-00317D03*
X-01363Y-00331D03*
X-01349Y-00345D03*
X-01335Y-00359D03*
X-01321Y-00373D03*
X-01307Y-00387D03*
X-01293Y-00401D03*
X-01279Y-00415D03*
X-01266Y-00428D03*
X-01252Y-00442D03*
X-00943Y-00133D03*
X-00957Y-00119D03*
X-0097Y-00106D03*
X-00984Y-00092D03*
X-00998Y-00078D03*
X-01012Y-00064D03*
X-01026Y-0005D03*
X-0104Y-00036D03*
X-01054Y-00022D03*
X-01068Y-00008D03*
X-01082Y00005D03*
X-01096Y00019D03*
X-0111Y00033D03*
X-01124Y00047D03*
X-01137Y0006D03*
X-01151Y00074D03*
G54D16*
X-00883Y-00988D03*
Y-00704D03*
X01428Y-0042D03*
Y-00703D03*
G54D17*
X-00846Y00515D03*
X-00884D03*
X-00921D03*
Y0061D03*
X-00884D03*
X-00846D03*
G54D18*
X-00642Y-01095D03*
Y-0102D03*
X-00725Y-01058D03*
X00823Y-00919D03*
X0074Y-00956D03*
Y-00881D03*
X01061Y-00427D03*
X01144Y-00389D03*
Y-00464D03*
X00848Y-00428D03*
X00765Y-00465D03*
Y-0039D03*
X00848Y-00588D03*
X00765Y-00625D03*
Y-0055D03*
X-01381Y-01162D03*
X-01464Y-01199D03*
Y-01124D03*
X01056Y00813D03*
Y00739D03*
X01138Y00776D03*
X-0112Y-00648D03*
X-01037Y-00611D03*
Y-00686D03*
X01206Y-00563D03*
X01289Y-00526D03*
Y-00601D03*
X01206Y-00424D03*
X01289Y-00386D03*
Y-00461D03*
G54D19*
X00009Y-01237D03*
Y-01187D03*
Y-01137D03*
Y-01087D03*
Y-01037D03*
Y-00987D03*
Y-00937D03*
Y-00887D03*
X-00361Y-01237D03*
Y-01187D03*
Y-01137D03*
Y-01087D03*
Y-01037D03*
Y-00987D03*
Y-00937D03*
Y-00887D03*
G54D20*
X-00857Y00207D03*
Y00157D03*
Y00107D03*
Y00057D03*
Y00007D03*
Y-00043D03*
Y-00093D03*
Y-00143D03*
X-00668Y00207D03*
Y00157D03*
Y00107D03*
Y00057D03*
Y00007D03*
Y-00043D03*
Y-00093D03*
Y-00143D03*
G54D21*
X-006Y0055D03*
X00889Y-01071D03*
G54D22*
X-0055Y0055D03*
X-005D03*
X-0045D03*
X-006Y00736D03*
X-0055D03*
X-005D03*
X-0045D03*
X01042Y00457D03*
X00992D03*
X00942D03*
X00892D03*
X01042Y00272D03*
X00992D03*
X00942D03*
X00892D03*
X00939Y-01071D03*
X00989D03*
X01039D03*
X00889Y-00886D03*
X00939D03*
X00989D03*
X01039D03*
G54D23*
X-01335Y00892D03*
X-01475D03*
G54D24*
X-00383Y00611D03*
X-00357D03*
X-00332D03*
X-00306D03*
X-00383Y00777D03*
X-00357D03*
X-00332D03*
X-00306D03*
G54D25*
X0048Y-01208D03*
X0024D03*
G54D26*
X-0075Y00826D03*
Y00751D03*
X01335Y00687D03*
Y00761D03*
X-00238Y0056D03*
Y00634D03*
X01235Y00056D03*
Y0013D03*
X-01383Y0043D03*
Y00505D03*
X-01461Y00446D03*
Y00371D03*
X01107Y00273D03*
Y00348D03*
X00814Y-00273D03*
Y-00198D03*
X-01445Y00572D03*
Y00647D03*
X00689Y-01039D03*
Y-01114D03*
X-00995Y00163D03*
Y00088D03*
X-01367Y00734D03*
Y00659D03*
X-01422Y-00721D03*
Y-00646D03*
X00228Y-00641D03*
Y-00716D03*
X-00224Y-00661D03*
Y-00736D03*
X-00312Y-00681D03*
Y-00756D03*
X00948Y00116D03*
Y00191D03*
X00983Y00779D03*
Y00854D03*
X00375Y00816D03*
Y00891D03*
X0051Y-00097D03*
Y-00022D03*
X-0075Y006D03*
Y00675D03*
X-00673Y00693D03*
Y00767D03*
X-01048Y00719D03*
Y00644D03*
X-00673Y00549D03*
Y00623D03*
X00814Y-00129D03*
Y-00054D03*
X-00828Y00809D03*
Y00734D03*
X01312Y00056D03*
Y0013D03*
X00702Y0012D03*
Y00195D03*
X00824Y-01015D03*
Y-0109D03*
X00705Y00468D03*
Y00543D03*
X00601Y00462D03*
Y00537D03*
G54D27*
X-00508Y00301D03*
X-00575D03*
X-00508Y-0001D03*
X-00575D03*
X-00508Y00068D03*
X-00575D03*
X-00508Y-00088D03*
X-00575D03*
X-00507Y-00165D03*
X-00575D03*
X-00508Y00145D03*
X-00575D03*
X-00508Y00223D03*
X-00575D03*
G54D28*
X00357Y00743D03*
X00432D03*
X-01279Y-01102D03*
X-01354D03*
X00005Y0051D03*
X0008D03*
X01238Y00716D03*
X01163D03*
X-01307Y00305D03*
X-01382D03*
X00917Y-0036D03*
X00992D03*
X00917Y-00644D03*
X00992D03*
X00917Y-00439D03*
X00992D03*
X00917Y-00565D03*
X00992D03*
X-01063Y0053D03*
X-00988D03*
X-01062Y00452D03*
X-00987D03*
X-01305Y00808D03*
X-01379D03*
X-01311Y-0118D03*
X-01236D03*
X-0145Y0072D03*
X-01525D03*
X00924Y00543D03*
X00999D03*
X-01191Y00895D03*
X-01266D03*
X01131Y00887D03*
X01056D03*
X-01524Y00803D03*
X-0145D03*
X00787Y00187D03*
X00862D03*
Y00109D03*
X00787D03*
X00092Y-01043D03*
X00167D03*
X00092Y-00965D03*
X00167D03*
X00876Y-00786D03*
X00951D03*
X00752Y00937D03*
X00827D03*
X00606D03*
X00681D03*
G54D29*
X00413Y-00437D03*
X00361D03*
X01306Y00196D03*
X01359D03*
X-0098Y-00456D03*
X-00927D03*
X00642Y-00472D03*
X00694D03*
X-01219Y00458D03*
X-01271D03*
X-01196Y-006D03*
X-01144D03*
X-00935Y00668D03*
X-00883D03*
X-00593Y0081D03*
X-0054D03*
X-00797Y00484D03*
X-00745D03*
X01252Y00572D03*
X01305D03*
X00083Y-01214D03*
X00136D03*
X00135Y-01109D03*
X00082D03*
X-00297Y-00409D03*
X-00245D03*
G54D30*
X-0075Y00182D03*
X-00776D03*
X-00776Y00129D03*
X-0075D03*
Y00077D03*
X-00776D03*
Y-00078D03*
X-0075D03*
Y-00026D03*
X-00776D03*
Y00025D03*
X-0075D03*
G54D31*
X-01521Y-00198D03*
Y-00145D03*
X-01388Y-00499D03*
Y-00446D03*
X00677Y-00925D03*
Y-00978D03*
X-00103Y-00387D03*
Y-0044D03*
X0032Y-00794D03*
Y-00741D03*
X01062Y00147D03*
Y002D03*
X00636Y00206D03*
Y00153D03*
X-01061Y00146D03*
Y00093D03*
X-0141Y00038D03*
Y00091D03*
X00814Y-00758D03*
Y-0081D03*
X-01016Y-00733D03*
Y-00786D03*
X-00525Y-01001D03*
Y-01053D03*
X-00755Y-00411D03*
Y-00358D03*
X-00691D03*
Y-00411D03*
X00844Y00455D03*
Y00508D03*
X-00448Y-01D03*
Y-01053D03*
G54D32*
X-01482Y-00323D03*
X-01445Y-0036D03*
G54D33*
X-00029Y-00292D03*
Y-00342D03*
Y-00392D03*
Y-00442D03*
X00155Y-00292D03*
Y-00342D03*
Y-00392D03*
Y-00442D03*
X00603Y00407D03*
Y00357D03*
Y00307D03*
Y00257D03*
X00788Y00407D03*
Y00357D03*
Y00307D03*
G54D34*
X01104Y-00595D03*
X01141Y-00678D03*
X01066D03*
X00514Y-00282D03*
X00551Y-00365D03*
X00476D03*
X00376Y-00282D03*
X00413Y-00365D03*
X00338D03*
X-00373Y-00348D03*
X-00298D03*
X-00336Y-00265D03*
X00274Y00894D03*
X00311Y00811D03*
X00236D03*
X01225D03*
X01187Y00894D03*
X01262D03*
X00586Y-00248D03*
X00548Y-00165D03*
X00623D03*
X-00538Y-01228D03*
X-00575Y-01145D03*
X-00501D03*
G54D35*
X00788Y00257D03*
G54D36*
X-01186Y00592D03*
X-01239Y00539D03*
G54D37*
X-00019Y00455D02*
X0001Y00425D01*
X-0018Y00455D02*
X-00019D01*
X-0021Y00426D02*
X-0018Y00455D01*
X-00027Y00435D02*
X00002Y00405D01*
X-00172Y00435D02*
X-00027D01*
X-00202Y00405D02*
X-00172Y00435D01*
X-00035Y00415D02*
X-00005Y00385D01*
X-00164Y00415D02*
X-00035D01*
X-00194Y00385D02*
X-00164Y00415D01*
X-00044Y00395D02*
X-00014Y00365D01*
X-00155Y00395D02*
X-00044D01*
X-00185Y00365D02*
X-00155Y00395D01*
X-00052Y00375D02*
X-00022Y00345D01*
X-00147Y00375D02*
X-00052D01*
X-00177Y00345D02*
X-00147Y00375D01*
X-0006Y00355D02*
X-0003Y00325D01*
X-00139Y00355D02*
X-0006D01*
X-00169Y00325D02*
X-00139Y00355D01*
X-00069Y00335D02*
X-00039Y00305D01*
X-0013Y00335D02*
X-00069D01*
X-0016Y00305D02*
X-0013Y00335D01*
X0138Y00659D02*
Y00714D01*
X01369Y00648D02*
X0138Y00659D01*
X01369Y00496D02*
Y00648D01*
X01335Y00757D02*
X01336D01*
X0138Y00714*
X00938Y00809D02*
X00983Y00854D01*
X00938Y00783D02*
Y00809D01*
X00906Y00751D02*
X00938Y00783D01*
X01013Y00915D02*
X01053Y00955D01*
X00861Y00869D02*
X00907Y00915D01*
X01461Y00702D02*
Y0081D01*
X01336Y00935D02*
X01461Y0081D01*
X01089Y00935D02*
X01336D01*
X01497Y00491D02*
Y00666D01*
X01461Y00702D02*
X01497Y00666D01*
X01464Y00458D02*
X01497Y00491D01*
X01417Y00626D02*
Y00636D01*
X01312Y00781D02*
X01335Y00757D01*
X01368Y00496D02*
X01369Y00496D01*
X01276Y00887D02*
X01312Y00851D01*
Y00781D02*
Y00851D01*
X01131Y00887D02*
X01276D01*
X0121Y00688D02*
X01238Y00716D01*
X01349Y0056D02*
Y00675D01*
X01056Y00739D02*
Y00813D01*
X0103D02*
X01056D01*
X00996Y00779D02*
X0103Y00813D01*
X01056Y00739D02*
X01137D01*
X01189Y00687*
Y00496D02*
Y00687D01*
X00983Y00779D02*
X00996D01*
X00274Y00894D02*
X00372D01*
X00375Y00891*
X00419Y00846*
X00496Y00751D02*
X00506D01*
X00459Y00787D02*
X00496Y00751D01*
X00436Y00787D02*
X00459D01*
X00907Y00915D02*
X01013D01*
X00861Y00795D02*
Y00869D01*
X0105Y00895D02*
X01089Y00935D01*
X0095Y00895D02*
X0105D01*
X00906Y00851D02*
X0095Y00895D01*
X00906Y00751D02*
X00917D01*
X01053Y00955D02*
X01431D01*
X00812Y00921D02*
X00827Y00937D01*
X00812Y00857D02*
Y00921D01*
X00806Y00851D02*
X00812Y00857D01*
X00661Y00805D02*
Y00882D01*
X00606Y00937D02*
X00661Y00882D01*
X00681Y00937D02*
X00699Y00919D01*
X-01227Y00395D02*
Y00454D01*
X-01257Y00366D02*
X-01227Y00395D01*
X-0131Y-00513D02*
Y-00485D01*
X-01327Y-00467D02*
X-0131Y-00485D01*
X-01281Y-00485D02*
X-01152D01*
X-01307Y-00458D02*
X-01281Y-00485D01*
X-01307Y-00458D02*
Y-00442D01*
X-00988Y0053D02*
X-00966Y00552D01*
X-00951Y00788D02*
X-00931Y00808D01*
X-00996Y00788D02*
X-00951D01*
X-01047Y00737D02*
X-00996Y00788D01*
X-00735Y00808D02*
X-00695Y00767D01*
X-00931Y00808D02*
X-00735D01*
X-00695Y00767D02*
X-00673D01*
X-00769Y00619D02*
X-0075Y006D01*
X00802Y00357D02*
X00841Y00318D01*
X00788Y00357D02*
X00802D01*
X00603Y00407D02*
Y00468D01*
X00533Y00276D02*
X00539Y00282D01*
X-01471Y-01117D02*
X-01464Y-01124D01*
X-01377D02*
X-01354Y-01102D01*
X-01464Y-01124D02*
X-01377D01*
X-00837Y00619D02*
X-00769D01*
X-00331Y00737D02*
Y00774D01*
X-00366Y00702D02*
X-00331Y00737D01*
X-00384Y00702D02*
X-00366D01*
X-005Y00548D02*
Y00604D01*
X-00426Y00661D02*
X-00384Y00702D01*
X-00443Y00661D02*
X-00426D01*
X-005Y00604D02*
X-00443Y00661D01*
X-00473Y-0021D02*
X-00446Y-00183D01*
X-00607Y-0021D02*
X-00473D01*
X-00647Y-0017D02*
X-00607Y-0021D01*
X00925Y00055D02*
Y00131D01*
X00855Y-00014D02*
X00925Y00055D01*
X01375Y-00586D02*
X01434D01*
X0136Y-00601D02*
X01375Y-00586D01*
X01289Y-00601D02*
X0136D01*
X01471Y-00119D02*
X01519Y-00071D01*
X01471Y-00216D02*
X01519Y-00264D01*
X01471Y-00216D02*
Y-00119D01*
X01431Y00955D02*
X01519Y00867D01*
X00652Y00735D02*
X0069D01*
X00699Y00853D02*
Y00919D01*
X00511Y00846D02*
Y00875D01*
X00429Y00958D02*
X00511Y00875D01*
X00227Y00958D02*
X00429D01*
X00419Y00804D02*
X00436Y00787D01*
X00419Y00804D02*
Y00846D01*
X00432Y00743D02*
X0045D01*
X00503Y00689*
X-00929Y-00275D02*
X-00913D01*
X-00827Y-0019*
X-00783Y00378D02*
X-00744D01*
X00476Y-00365D02*
Y-00301D01*
X-00095Y00657D02*
X00099D01*
X-00216Y00778D02*
X-00095Y00657D01*
X00099D02*
X00213Y00771D01*
X00197Y00533D02*
X00203Y00539D01*
X00589Y00307D02*
X00603D01*
X00537Y00359D02*
Y00456D01*
Y00359D02*
X00589Y00307D01*
X00697Y00116D02*
X00702Y0012D01*
X00533Y00151D02*
X00568Y00116D01*
X00533Y00151D02*
Y00276D01*
X00568Y00116D02*
X00697D01*
X00322Y00628D02*
X00339Y00645D01*
X00683Y-00349D02*
Y-00168D01*
X00574Y-00059D02*
X00683Y-00168D01*
X00574Y-00059D02*
Y00017D01*
X00475Y00116D02*
X00574Y00017D01*
X00475Y00116D02*
Y00287D01*
X00554Y-00072D02*
Y00005D01*
X00455Y00104D02*
X00554Y00005D01*
X00455Y00104D02*
Y00279D01*
X00623Y-00165D02*
Y-00141D01*
X00554Y-00072D02*
X00623Y-00141D01*
X00257Y00496D02*
X00314D01*
X00265Y00476D02*
X00322D01*
X00213Y00771D02*
X00252D01*
X00274Y00792*
X-01191Y00895D02*
X-01132Y00955D01*
X00274Y00792D02*
Y00894D01*
X00186Y00916D02*
X00227Y00958D01*
X00186Y00808D02*
Y00916D01*
X00078Y007D02*
X00186Y00808D01*
X-00076Y007D02*
X00078D01*
X-01239Y00539D02*
X-01227Y00527D01*
Y00458D02*
Y00527D01*
X-01166Y00592D02*
X-01134Y00625D01*
X-01186Y00592D02*
X-01166D01*
X-01314Y00574D02*
X-01202Y00686D01*
X-01314Y00381D02*
Y00574D01*
X-01383Y0057D02*
X-01223Y0073D01*
X-01383Y00505D02*
Y0057D01*
X-01239Y00851D02*
X-01194Y00895D01*
X-01261Y00851D02*
X-01239D01*
X-01305Y00808D02*
X-01261Y00851D01*
X-01194Y00895D02*
X-01191D01*
X-01257Y00366D02*
X-01255Y00368D01*
X-01257Y00281D02*
Y00366D01*
X-01377Y00161D02*
X-01257Y00281D01*
X-01443Y-00012D02*
Y00252D01*
X-01314Y00381*
X-01485Y00347D02*
X-01392Y00439D01*
X-01485Y00001D02*
Y00347D01*
X-01379Y00747D02*
Y00808D01*
Y00747D02*
X-01367Y00734D01*
X-01445Y00654D02*
X-01379Y00719D01*
X-01445Y00647D02*
Y00654D01*
X-01452Y00648D02*
X-01445D01*
X-01507Y00594D02*
X-01452Y00648D01*
X-01507Y-00004D02*
Y00594D01*
X-0149Y0064D02*
Y00681D01*
X-01527Y00603D02*
X-0149Y0064D01*
X-01527Y-00012D02*
Y00603D01*
X-01367Y00892D02*
X-01335D01*
X-0145Y00809D02*
X-01367Y00892D01*
X-0145Y00803D02*
Y00809D01*
X-0149Y00681D02*
X-0145Y0072D01*
X-01328Y00895D02*
X-01266D01*
X-0145Y0072D02*
X-0145Y00721D01*
Y00803*
X-00309Y00562D02*
X-00286Y00538D01*
Y00517D02*
Y00538D01*
Y00517D02*
X-0027Y00501D01*
X-005Y00722D02*
Y00736D01*
X-01237Y00358D02*
X-01156Y00438D01*
X-01237Y00273D02*
Y00358D01*
X-01217Y00349D02*
X-01158Y00407D01*
X-01217Y00264D02*
Y00349D01*
X-01158Y00407D02*
X-01035D01*
X-00981Y00462*
X00707Y00543D02*
Y00543D01*
X00709*
X00705D02*
X00707D01*
X0066Y00525D02*
Y00573D01*
X00603Y00468D02*
X0066Y00525D01*
X00367Y00305D02*
X00429D01*
X00752Y00433D02*
Y0047D01*
X00736Y00418D02*
X00752Y00433D01*
X00736Y00307D02*
Y00418D01*
X00884Y00378D02*
X00917D01*
X00988Y00307*
X00738Y00307D02*
X00788D01*
X00921Y0054D02*
X00924Y00543D01*
X00841Y0024D02*
Y00318D01*
X00702Y0012D02*
X00747Y00165D01*
X00787Y00187D02*
X00841Y0024D01*
X01009Y00372D02*
X01095Y00286D01*
Y00111D02*
Y00286D01*
X01251Y00572D02*
X01266Y00557D01*
X01108Y00664D02*
X01147D01*
X0145Y0056D02*
Y00593D01*
X01426Y00617D02*
X0145Y00593D01*
X01426Y00617D02*
X01426D01*
X01417Y00626D02*
X01426Y00617D01*
X01416Y0046D02*
Y00526D01*
X0145Y0056*
X01163Y00496D02*
Y0058D01*
X01139Y00402D02*
Y00575D01*
X01147Y00664D02*
X01158Y00653D01*
X-01133Y00489D02*
X-01104Y00518D01*
X-01133Y00488D02*
Y00489D01*
X-01156Y00438D02*
Y00465D01*
X-01105Y00519D02*
X-01104Y00518D01*
X-01156Y00465D02*
X-01133Y00488D01*
X-01377Y00021D02*
Y00161D01*
X-01337Y00048D02*
Y00144D01*
X-01357Y0004D02*
Y00153D01*
X-01316Y00083D02*
Y00136D01*
X-01294Y00088D02*
Y0013D01*
X-01274Y00098D02*
Y00122D01*
X01325Y00447D02*
X01342Y00464D01*
X01245Y00447D02*
X01325D01*
X01256Y00401D02*
X01262Y00407D01*
X01219Y00421D02*
X01245Y00447D01*
X01219Y00405D02*
Y00421D01*
X01294Y00382D02*
X01313Y00401D01*
X01294Y00331D02*
Y00382D01*
X01314Y00374D02*
X01357Y00418D01*
X01314Y00341D02*
Y00374D01*
X01394Y00271D02*
Y00438D01*
X01354Y00358D02*
X01368Y00343D01*
X01139Y00402D02*
X01156Y00385D01*
Y00307D02*
Y00385D01*
Y00307D02*
X01163Y00299D01*
X01176Y0032D02*
X01189Y00307D01*
X01176Y0032D02*
Y00362D01*
X01219Y00405*
X01313Y00401D02*
Y00446D01*
X01354Y00418D02*
X01357D01*
X00861Y00202D02*
Y00354D01*
X00884Y00378*
X00988Y00242D02*
Y00307D01*
X00632Y-01025D02*
Y-00985D01*
X00948Y00191D02*
Y00202D01*
X-0138Y-00209D02*
X-01328D01*
X-01292Y-00331D02*
X-01229Y-00394D01*
X-01307Y-00331D02*
X-01292D01*
X01464Y00031D02*
Y00458D01*
X01378Y00008D02*
X0144D01*
X01464Y00031*
X01346Y-00024D02*
X01378Y00008D01*
X01346Y-00137D02*
Y-00024D01*
X00942Y00413D02*
X0096Y00395D01*
X00942Y00413D02*
Y00447D01*
X-00924Y00462D02*
X-00921D01*
X-00981D02*
X-00924D01*
X-00921D02*
Y00506D01*
X-00987Y-00502D02*
X-00835D01*
X-00906Y-00522D02*
X-00844D01*
X-00995D02*
X-00906D01*
X-00407Y-00737D02*
Y-00677D01*
X-00877Y-00603D02*
X-00868Y-00594D01*
X-00984Y-00564D02*
X-00945Y-00603D01*
X-00877*
X-00868Y-00594D02*
X-00862D01*
X-01014Y-00564D02*
X-00984D01*
X-01095Y-00483D02*
X-01014Y-00564D01*
X-00835Y-00502D02*
X-00698Y-00639D01*
X-01064Y-00425D02*
X-00987Y-00502D01*
X-00844Y-00522D02*
X-00707Y-00659D01*
X-01081Y-00435D02*
X-00995Y-00522D01*
X-01152Y-00485D02*
X-01114Y-00523D01*
X-01107Y-00516*
X-01111Y-00483D02*
X-01095D01*
X-01116Y-00478D02*
X-01111Y-00483D01*
X-0098Y-00363D02*
X-00888D01*
X-00957Y-00303D02*
X-00913D01*
X-00461Y-00514D02*
X-00442Y-00495D01*
X-00461Y-00582D02*
Y-00514D01*
X-00482Y-0059D02*
X-00437Y-00634D01*
X-00502Y-00598D02*
X-00446Y-00654D01*
X-00522Y-00607D02*
X-00454Y-00674D01*
X-00461Y-00582D02*
X-00429Y-00614D01*
X00813Y-0055D02*
X00822Y-00541D01*
X00765Y-0055D02*
X00813D01*
X00597Y-006D02*
X00618Y-00621D01*
X-00454Y-00674D02*
X-00323D01*
X-00367Y-00654D02*
X-00353Y-0064D01*
X-00361Y-0062D02*
X-00179D01*
X-0037Y-006D02*
X-00164D01*
X-00446Y-00654D02*
X-00367D01*
X-00376Y-00634D02*
X-00361Y-0062D01*
X-00437Y-00634D02*
X-00376D01*
X-00384Y-00614D02*
X-0037Y-006D01*
X-00429Y-00614D02*
X-00384D01*
X00685Y-00715D02*
Y-00677D01*
X00669Y-00661D02*
X00685Y-00677D01*
X00601Y-00661D02*
X00669D01*
X0056Y-0062D02*
X00601Y-00661D01*
X00452Y-0062D02*
X0056D01*
X00437Y-00634D02*
X00452Y-0062D01*
X00376Y-00634D02*
X00437D01*
X00429Y-00614D02*
X00443Y-006D01*
X00384Y-00614D02*
X00429D01*
X00443Y-006D02*
X00597D01*
X00361Y-0062D02*
X00376Y-00634D01*
X0037Y-006D02*
X00384Y-00614D01*
X00173Y-0062D02*
X00361D01*
X00158Y-00634D02*
X00173Y-0062D01*
X00164Y-006D02*
X0037D01*
X00097Y-00634D02*
X00158D01*
X0015Y-00614D02*
X00164Y-006D01*
X00105Y-00614D02*
X0015D01*
X00082Y-0062D02*
X00097Y-00634D01*
X00091Y-006D02*
X00105Y-00614D01*
X-00082Y-0062D02*
X00082D01*
X-00091Y-006D02*
X00091D01*
X-00165Y-00634D02*
X-00097D01*
X-00082Y-0062*
X-00179Y-0062D02*
X-00165Y-00634D01*
X-00105Y-00614D02*
X-00091Y-006D01*
X-00164Y-006D02*
X-0015Y-00614D01*
X-00105*
X-0022Y-0064D02*
X-00127Y-00733D01*
X-00353Y-0064D02*
X-0022D01*
X-00551Y-00812D02*
Y-00737D01*
X-0063Y-00659D02*
X-00551Y-00737D01*
X-00707Y-00659D02*
X-0063D01*
X-00531Y-00803D02*
Y-00729D01*
X-00622Y-00639D02*
X-00531Y-00729D01*
X-00698Y-00639D02*
X-00622D01*
X-00531Y-00803D02*
X-00398Y-00937D01*
X-00551Y-00812D02*
X-00376Y-00987D01*
X00988Y00441D02*
X01009Y0042D01*
Y00372D02*
Y0042D01*
X00903Y00153D02*
X00925Y00131D01*
X00903Y00219D02*
X00938Y00254D01*
X00903Y00153D02*
Y00219D01*
X00938Y00254D02*
Y00272D01*
X00948Y00202D02*
X00988Y00242D01*
Y00441D02*
Y00457D01*
X00994Y0053D02*
Y00543D01*
Y0053D02*
X01038Y00487D01*
Y00402D02*
Y00487D01*
Y00402D02*
X01097Y00343D01*
X01163Y00271D02*
Y00299D01*
X01245Y00196D02*
X01247D01*
X-00966Y00552D02*
X-00903D01*
X-01036Y00575D02*
X-0099Y00529D01*
X-0109Y00575D02*
X-01036D01*
X-01105Y0056D02*
X-0109Y00575D01*
X00011Y-00342D02*
X00032Y-00321D01*
X-00029Y-00342D02*
X00011D01*
X-00091Y-00313D02*
X-0007Y-00292D01*
X-00029*
X-00903Y00552D02*
X-00884Y00532D01*
X01519Y-00502D02*
Y-00264D01*
X01434Y-00586D02*
X01519Y-00502D01*
X-0121Y-00167D02*
X-01138D01*
X-01217Y-0016D02*
X-0121Y-00167D01*
X-01138D02*
X-01135Y-00164D01*
X-01334Y-00065D02*
X-01297D01*
X-01342Y-00085D02*
X-01334D01*
X-01127Y-00345D02*
X-0111D01*
X-01176Y-00394D02*
X-01127Y-00345D01*
X-01202Y-00394D02*
X-01176D01*
X-01229D02*
X-01202D01*
X-01498Y-00988D02*
X-01471Y-01015D01*
Y-01117D02*
Y-01015D01*
X-01327Y-00467D02*
Y-00434D01*
X-01143Y-00053D02*
X-01084D01*
X-01102Y-00234D02*
X-00999D01*
X-01189Y-00321D02*
X-01102Y-00234D01*
X-01232Y-00326D02*
X-01227Y-00321D01*
X-01189*
X-012Y-00249D02*
X-01195Y-00255D01*
X-01287Y-00249D02*
X-012D01*
X-01328Y-00209D02*
X-01287Y-00249D01*
X-01483Y-00312D02*
X-0146Y-00289D01*
X-01483Y-00322D02*
Y-00312D01*
X-01327Y-00434D02*
X-01322Y-00428D01*
X-00972Y-00343D02*
X-00896D01*
X-00964Y-00323D02*
X-00904D01*
X-01388Y-00445D02*
Y-00432D01*
X-01488Y-00255D02*
X-01484D01*
X-01541Y-00307D02*
X-01488Y-00255D01*
X-01541Y-00341D02*
Y-00307D01*
X-01484Y-00255D02*
Y-00255D01*
X-01541Y-00341D02*
X-015Y-00382D01*
X-01521Y-00316D02*
X-01481Y-00276D01*
X-01521Y-00332D02*
Y-00317D01*
Y-00332D02*
X-01455Y-00397D01*
X-00097Y-00706D02*
X00097D01*
X00765Y-0039D02*
X00783D01*
X00407Y-00737D02*
Y-00637D01*
X00097Y-00706D02*
X00127Y-00737D01*
X-00127D02*
X-00097Y-00706D01*
X00724Y-0039D02*
X00765D01*
X-00127Y-00737D02*
Y-00733D01*
X-015Y-00516D02*
X-01455Y-00471D01*
Y-00397*
X-015Y-00416D02*
Y-00382D01*
Y-00716D02*
X-01485D01*
Y-0071D02*
X-01432Y-00657D01*
X-015Y-00816D02*
Y-00808D01*
X-01421Y-00729*
X-01432Y-00663D02*
X-0141D01*
X00959Y-00274D02*
X01035Y-00198D01*
X00814Y-00274D02*
X00959D01*
X01289Y-00193D02*
X01346Y-00137D01*
X01289Y-00379D02*
Y-00193D01*
X00683Y-00349D02*
X00724Y-0039D01*
X0013Y-00213D02*
X0016Y-00183D01*
X00358*
X-00156Y-0019D02*
D01*
X-0018Y-00213D02*
X-00156Y-0019D01*
X-00286Y-00183D02*
X-00256Y-00213D01*
X-0018*
X-00295Y-00203D02*
X-00265Y-00233D01*
X0031Y-00393D02*
X00338Y-00365D01*
X00245Y-00369D02*
X00268Y-00393D01*
X0031*
X-00265Y-00233D02*
X-00167D01*
X-00156Y-0019D02*
X-0015Y-00183D01*
X00039*
X-00167Y-00233D02*
X-00137Y-00204D01*
X00031*
X0006Y-00233*
X00039Y-00183D02*
X00069Y-00213D01*
X0013*
X0006Y-00233D02*
X00197D01*
X00245Y-00281*
Y-00369D02*
Y-00281D01*
X00358Y-00183D02*
X00476Y-00301D01*
X-00068Y-01446D02*
X-00062Y-01451D01*
X0D02*
X0D01*
X00068Y-01384*
X-00031Y-01365D02*
X-00024D01*
X00016Y-01324*
X00009Y-00937D02*
X00064D01*
X00016Y-01324D02*
X00059D01*
X00068Y-01384D02*
Y-01344D01*
X00118Y-01294*
X-00626Y-01195D02*
X-00574Y-01144D01*
X-00376Y-00987D02*
X-00361D01*
X-00398Y-00937D02*
X-00361D01*
X-00846Y0061D02*
X-00837Y00619D01*
X-01105Y00519D02*
Y0056D01*
X01317Y00496D02*
Y00528D01*
X0124Y00496D02*
Y00528D01*
X01189Y00496D02*
X0119Y00496D01*
X01519Y-00071D02*
Y00867D01*
X01215Y00462D02*
Y00496D01*
X01189Y00271D02*
Y00307D01*
X01182Y00429D02*
X01215Y00462D01*
X01342Y00464D02*
Y00496D01*
X0124Y00271D02*
Y00305D01*
X01256Y0032*
Y00401*
X01394Y00438D02*
X01416Y0046D01*
X00892Y00273D02*
Y00341D01*
X0121Y00559D02*
X0124Y00528D01*
X01317D02*
X01349Y0056D01*
X0121Y00559D02*
Y00688D01*
X01368Y00271D02*
Y00343D01*
X01314Y00341D02*
X01342Y00312D01*
Y00271D02*
Y00312D01*
X01317Y00271D02*
Y00307D01*
X01294Y00331D02*
X01317Y00307D01*
X-01334Y-00085D02*
X-01328Y-00091D01*
Y-00092D02*
Y-00091D01*
Y-00092D02*
X-01304Y-00116D01*
X-01331Y-0016D02*
X-01217D01*
X-01337Y-00166D02*
X-01331Y-0016D01*
X-01304Y-00116D02*
X-01206D01*
X-01143Y-00053*
X-01427Y-00166D02*
X-01337D01*
X01394Y00496D02*
Y00559D01*
X01412Y00577*
X00787Y00109D02*
Y00187D01*
X00774D02*
X00787D01*
X00789*
X01291Y00496D02*
Y00557D01*
X01306Y00572*
X01266Y00496D02*
Y00557D01*
X01215Y00271D02*
Y00336D01*
X01291Y00199D02*
Y00271D01*
X00189Y-01094D02*
X00207Y-01075D01*
Y-01005*
X00167Y-00965D02*
X00207Y-01005D01*
X00036Y-00987D02*
X00092Y-01043D01*
X00009Y-00987D02*
X00036D01*
X00038*
X00064Y-00937D02*
X00092Y-00965D01*
X00059Y-01324D02*
X00109Y-01274D01*
X00137Y-01294D02*
X00189Y-01242D01*
X00109Y-01274D02*
X00129D01*
X00169Y-01234*
Y-01022*
X00118Y-01294D02*
X00137D01*
X00189Y-01242D02*
Y-01094D01*
X00268Y-00811D02*
X00275Y-00818D01*
X00326Y-00857D02*
X0038D01*
X00315Y-00846D02*
X00326Y-00857D01*
X00275Y-00862D02*
X00298Y-00886D01*
X00275Y-00862D02*
Y-00818D01*
X00556Y-00917D02*
Y-00852D01*
Y-00917D02*
X00573Y-00934D01*
X00605*
X00429Y-00918D02*
Y-00871D01*
X00449Y-00852*
X0038Y-00934D02*
X00412D01*
X00429Y-00918*
X0038Y-00985D02*
X00444D01*
X00461Y-01002*
X-00884Y00499D02*
X-00865Y0048D01*
X-00884Y00499D02*
Y00532D01*
X00429Y00305D02*
X00455Y00279D01*
X00437Y00325D02*
X00475Y00287D01*
X00605Y-00985D02*
X00632D01*
X00675*
X-01444Y-00361D02*
Y-00321D01*
X-01447Y-00313D02*
Y-00305D01*
X-01357Y00153D02*
X-01237Y00273D01*
X-01337Y00144D02*
X-01217Y00264D01*
X-00239Y00634D02*
Y00668D01*
X-00258Y00757D02*
Y00818D01*
X00154Y00628D02*
X00322D01*
X00142Y00616D02*
X00154Y00628D01*
X-00522Y-00607D02*
Y-00351D01*
X-00502Y-00598D02*
Y-00342D01*
X-00482Y-0059D02*
Y-00334D01*
X-00674Y00766D02*
X-00626Y00718D01*
Y00695D02*
Y00718D01*
X-00913Y-00303D02*
X-00819Y-0021D01*
X-00904Y-00323D02*
X-00811Y-0023D01*
X-00896Y-00343D02*
X-00802Y-0025D01*
X-00888Y-00363D02*
X-00794Y-0027D01*
X-0092Y-00254D02*
X-00835Y-0017D01*
X-00865Y00461D02*
Y0048D01*
X-0113Y00098D02*
Y00201D01*
X-01131Y00202D02*
X-0113Y00201D01*
X-01093Y00218D02*
X-0107Y00241D01*
X-01111Y00228D02*
X-01078Y00261D01*
X-01131Y00202D02*
Y00237D01*
X-01087Y00281*
X-01274Y00122D02*
X-01095Y00301D01*
X-01294Y0013D02*
X-01103Y00321D01*
X-01316Y00136D02*
X-01111Y00341D01*
X-01132Y00955D02*
X-00221D01*
X-00239Y00913D02*
X-00216Y00889D01*
Y00778D02*
Y00889D01*
X-00175Y00799D02*
X-00076Y007D01*
X-00175Y00799D02*
Y00909D01*
X-00221Y00955D02*
X-00175Y00909D01*
X-0055Y00552D02*
Y00621D01*
X-00538Y00683D02*
X-005Y00722D01*
X-00626Y00695D02*
X-00614Y00683D01*
X-00538*
X-00592Y00663D02*
X-0055Y00621D01*
X-00664Y00678D02*
X-00654D01*
X-00639Y00663*
X-00592*
X-0046Y00385D02*
X-0045Y00375D01*
X-00452Y00405D02*
X-00442Y00395D01*
X-00444Y00425D02*
X-00434Y00415D01*
X-00435Y00445D02*
X-00425Y00435D01*
X-00711Y00241D02*
X-00606Y00345D01*
X-00719Y00261D02*
X-00615Y00365D01*
X-00727Y00281D02*
X-00623Y00385D01*
X-00736Y00301D02*
X-00631Y00405D01*
X-00744Y00321D02*
X-00639Y00425D01*
X-00752Y00341D02*
X-00648Y00445D01*
X-00606Y00345D02*
X-00477D01*
X-00615Y00365D02*
X-00469D01*
X-00623Y00385D02*
X-0046D01*
X-00631Y00405D02*
X-00452D01*
X-00639Y00425D02*
X-00444D01*
X-00648Y00445D02*
X-00435D01*
X-00744Y00378D02*
X-00656Y00465D01*
X-00427*
X-0107Y00241D02*
X-00711D01*
X-01078Y00261D02*
X-00719D01*
X-01087Y00281D02*
X-00727D01*
X-01095Y00301D02*
X-00736D01*
X-01103Y00321D02*
X-00744D01*
X-01111Y00341D02*
X-00752D01*
X-00436Y-00203D02*
X-00295D01*
X-00446Y-00183D02*
X-00286D01*
X-00562Y-0031D02*
X-00522Y-00351D01*
X-00554Y-0029D02*
X-00502Y-00342D01*
X-00546Y-0027D02*
X-00482Y-00334D01*
X-00463Y-0023D02*
X-00436Y-00203D01*
X-00794Y-0027D02*
X-00689D01*
X-00648Y-0031*
X-00562*
X-0068Y-0025D02*
X-0064Y-0029D01*
X-00554*
X-00672Y-0023D02*
X-00632Y-0027D01*
X-00546*
X-00664Y-0021D02*
X-00623Y-0025D01*
X-00655Y-0019D02*
X-00615Y-0023D01*
X-00463*
X-00623Y-0025D02*
X-00451D01*
X-00802Y-0025D02*
X-0068D01*
X-00811Y-0023D02*
X-00672D01*
X-00819Y-0021D02*
X-00664D01*
X-00827Y-0019D02*
X-00655D01*
X-00835Y-0017D02*
X-00647D01*
X-00373Y-0035D02*
Y-00328D01*
X-00451Y-0025D02*
X-00373Y-00328D01*
X00298Y-00886D02*
X00332D01*
X00334Y-00883*
X0038*
X00765Y00257D02*
X00781D01*
X00747Y00165D02*
Y00239D01*
X00765Y00257*
X00702Y00195D02*
X00727Y0022D01*
Y00298*
X00736Y00307*
X00616Y00307D02*
X00655Y00345D01*
X00603Y00357D02*
X00616D01*
X00603Y00307D02*
X00616D01*
X00655Y00492D02*
X00707Y00543D01*
X00655Y00345D02*
Y00367D01*
X00675Y00387*
X00655Y00395D02*
Y00492D01*
X00616Y00357D02*
X00655Y00395D01*
X00675Y00387D02*
Y00437D01*
X00707Y00468*
X00746Y00801D02*
X0075Y00805D01*
X00561Y00769D02*
X00598Y00806D01*
Y00851*
X00861Y00795D02*
X00906Y00751D01*
X0075Y00805D02*
Y00937D01*
X00577Y00703D02*
X0062D01*
X00652Y00735*
X00685Y00592D02*
X00693Y00583D01*
X00314Y00496D02*
X00561Y00743D01*
Y00769*
X00322Y00476D02*
X00597Y00751D01*
X01077Y00637D02*
X01139Y00575D01*
X00752Y0047D02*
X00821Y0054D01*
X00921*
X00709Y00543D02*
X00747Y00581D01*
X01087Y00657D02*
X01163Y0058D01*
X01095Y00677D02*
X01108Y00664D01*
X00766Y00637D02*
X01077D01*
X00774Y00657D02*
X01087D01*
X00602Y00643D02*
X0076D01*
X00766Y00637*
X00594Y00663D02*
X00768D01*
X00774Y00657*
X00585Y00683D02*
X00778D01*
X00784Y00677*
X01095*
X0066Y00573D02*
X00685Y00598D01*
X00687Y006*
X00685Y00592D02*
Y00598D01*
Y00603*
X-01079Y-01062D02*
X-00865D01*
X-00732Y-01195*
X-00626*
X00251Y00325D02*
X00437D01*
X00224Y00435D02*
X00265Y00476D01*
X0018Y00335D02*
X00241D01*
X00171Y00355D02*
X00314D01*
X00138Y00435D02*
X00224D01*
X0013Y00455D02*
X00216D01*
X00257Y00496*
X00133Y00345D02*
X00163Y00375D01*
X00125Y00365D02*
X00155Y00395D01*
X-00005Y00385D02*
X00116D01*
X00146Y00415*
X00002Y00405D02*
X00108D01*
X00138Y00435*
X0001Y00425D02*
X001D01*
X0013Y00455*
X00163Y00375D02*
X00306D01*
X-00022Y00345D02*
X00133D01*
X-00014Y00365D02*
X00125D01*
X-00039Y00305D02*
X0015D01*
X0018Y00335*
X-0003Y00325D02*
X00141D01*
X00171Y00355*
X00241Y00335D02*
X00251Y00325D01*
X00314Y00355D02*
X00602Y00643D01*
X00306Y00375D02*
X00594Y00663D01*
X00155Y00395D02*
X00298D01*
X00585Y00683*
X00146Y00415D02*
X0029D01*
X00577Y00703*
X-00019Y00536D02*
X00005Y0051D01*
X-00258Y00757D02*
X-00117Y00616D01*
X00142*
X-00144Y00536D02*
X-00019D01*
X-00168Y00559D02*
X-00144Y00536D01*
X-00168Y00559D02*
Y00598D01*
X-00204Y00634D02*
X-00168Y00598D01*
X-00238Y00634D02*
X-00204D01*
X-00306Y00736D02*
X-00239Y00668D01*
X-00306Y00736D02*
Y00777D01*
X-00314Y00562D02*
X-00309D01*
X-00332Y00579D02*
X-00314Y00562D01*
X-00332Y00579D02*
Y00611D01*
X00187Y00536D02*
X00194Y00529D01*
X00105Y00536D02*
X00187D01*
X0008Y0051D02*
X00105Y00536D01*
X-00308Y00405D02*
X-00202D01*
X-00316Y00385D02*
X-00194D01*
X-00325Y00365D02*
X-00185D01*
X-00333Y00345D02*
X-00177D01*
X-0035Y00305D02*
X-0016D01*
X-00341Y00325D02*
X-00169D01*
X-003Y00426D02*
X-0021D01*
X-00469Y00365D02*
X-00459Y00355D01*
X-00477Y00345D02*
X-00467Y00335D01*
X-0038*
X-0035Y00305*
X-00459Y00355D02*
X-00371D01*
X-00341Y00325*
X-0045Y00375D02*
X-00363D01*
X-00333Y00345*
X-00442Y00395D02*
X-00355D01*
X-00325Y00365*
X-00434Y00415D02*
X-00346D01*
X-00316Y00385*
X-00425Y00435D02*
X-00338D01*
X-00308Y00405*
X-0033Y00455D02*
X-003Y00426D01*
X-00427Y00465D02*
X-00417Y00455D01*
X-0033*
X-00308Y00868D02*
X-00258Y00818D01*
X-00985Y00868D02*
X-00308D01*
X-01202Y00686D02*
X-01086D01*
X-01046Y00646*
X-01177Y0079D02*
X-01097Y00869D01*
X-01046*
X-01223Y0073D02*
X-01145D01*
X-01089Y00786*
X-01066*
X-00985Y00868*
X-01046Y00869D02*
X-01002Y00913D01*
X-00239*
X01035Y-00198D02*
X01059D01*
X01041Y-00089D02*
X01059Y-00107D01*
X00936Y-00122D02*
X00968Y-00089D01*
X01041*
X00813Y-00055D02*
X0088Y-00122D01*
X00936*
X00814Y-00198D02*
Y-00129D01*
X00783Y-00014D02*
X00855D01*
X0077Y-00027D02*
X00783Y-00014D01*
X0077Y-00082D02*
Y-00027D01*
Y-00082D02*
X00814Y-00126D01*
Y-00129D02*
Y-00126D01*
X01005Y-0009D02*
Y00021D01*
X01095Y00111*
X00347Y00285D02*
X00367Y00305D01*
G54D38*
X-0005Y0028D02*
X-00049D01*
X-0005D02*
Y00281D01*
X-00079Y0031D02*
X-0005Y00281D01*
X-0012Y0031D02*
X-00079D01*
X-00149Y00281D02*
X-0012Y0031D01*
X-00149Y0028D02*
Y00281D01*
X-0015Y0028D02*
X-00149D01*
X-00049D02*
X-00029Y00261D01*
X-0017Y0026D02*
X-0015Y0028D01*
X00298Y00044D02*
X00394D01*
X00231Y0011D02*
X00298Y00044D01*
X0019Y0011D02*
X00231D01*
X-00029Y00061D02*
X0014D01*
X-0005Y00011D02*
X00136D01*
X-001Y00061D02*
X-0005Y00011D01*
X-0034Y00061D02*
X-0017D01*
X-0039Y0011D02*
X-0034Y00061D01*
X-00449Y0011D02*
X-0039D01*
X-00365Y00011D02*
X-00149D01*
X-00415Y00061D02*
X-00365Y00011D01*
X-00492Y00161D02*
X-00411D01*
X-00508Y00145D02*
X-00492Y00161D01*
X-00223D02*
X-002D01*
X-00274Y00211D02*
X-00223Y00161D01*
X-00496Y00211D02*
X-00274D01*
X0009Y00161D02*
X001D01*
X0004Y00211D02*
X0009Y00161D01*
X0015Y00211D02*
X00231D01*
X001Y00161D02*
X0015Y00211D01*
X0014Y00061D02*
X0019Y0011D01*
X00186Y00061D02*
X00211D01*
X00136Y00011D02*
X00186Y00061D01*
X-01329Y-01162D02*
X-01311Y-0118D01*
X-00508Y00301D02*
X-00498Y0031D01*
X-00508Y00223D02*
X-00496Y00211D01*
X-00507Y-00165D02*
X-00485D01*
X-00508Y-00088D02*
X-00491Y-00071D01*
X-00466*
X-00508Y-0001D02*
X-00486D01*
X-00508Y00068D02*
X-00492D01*
X00968Y-01021D02*
Y-01001D01*
X00939Y-0105D02*
X00968Y-01021D01*
X00939Y-01059D02*
Y-0105D01*
X01066Y-00707D02*
Y-00678D01*
X00995Y-00779D02*
X01066Y-00707D01*
X00951Y-00779D02*
X00995D01*
X00989Y-00828D02*
X0114Y-00677D01*
X01063Y-0038D02*
X01071Y-00389D01*
X01144*
X01061Y-00377D02*
X01063Y-00379D01*
X01005Y-00377D02*
X01061D01*
X01132Y-00427D02*
X01135Y-00424D01*
X01206*
X01061Y-00427D02*
X01132D01*
X01089Y-00464D02*
X01144D01*
X01077Y-00476D02*
X01089Y-00464D01*
X01193Y-00563D02*
X01206D01*
X00989Y-00874D02*
Y-00828D01*
X0051Y-00097D02*
X00543D01*
X00493Y-00039D02*
X0051Y-00022D01*
X00411Y-00039D02*
X00493D01*
X0026Y00181D02*
Y00181D01*
X00231Y00211D02*
X0026Y00181D01*
X00848Y-00588D02*
X00861D01*
X00917Y-00643*
X00939Y-00874D02*
Y-00787D01*
X-00736Y-01102D02*
Y-01056D01*
Y-01095D02*
Y-01078D01*
X-01236Y-0118D02*
X-00993D01*
X-00411Y-00039D02*
Y-00038D01*
X-00426Y-00053D02*
X-00411Y-00038D01*
X-00149Y00011D02*
X-001Y00061D01*
X-0014Y-00139D02*
X-001D01*
X-00131Y-00039D02*
X00029D01*
X-0018Y-00088D02*
X-00131Y-00039D01*
X-00247Y-00088D02*
X-0018D01*
X00889Y-01059D02*
Y-01001D01*
X01109Y-00581D02*
X01176D01*
X0017Y-00139D02*
X00211D01*
X00174Y-00039D02*
X00211D01*
X00124Y-00089D02*
X00174Y-00039D01*
X-00297D02*
X-00247Y-00088D01*
X00029Y-00039D02*
X00079Y-00089D01*
X00124*
X00851Y-00426D02*
X00906Y-00371D01*
X-00434Y-00039D02*
X-00411D01*
X-00297*
X01176Y-00581D02*
X01193Y-00563D01*
X-00633Y0081D02*
X-00595D01*
X00394Y00044D02*
X00411Y00061D01*
X0026Y00181D02*
X00301Y00141D01*
X00391*
X00411Y00161*
X00386Y00236D02*
X00411Y00261D01*
X0015Y-00158D02*
X0017Y-00139D01*
X0012Y-00188D02*
X00149Y-00159D01*
Y-00158*
X0015*
X-00411Y-00139D02*
X-00296D01*
X-00246Y-00188*
X-0019D02*
X-0014Y-00139D01*
X-00246Y-00188D02*
X-0019D01*
X00079D02*
X0012D01*
X-001Y-00139D02*
X00029D01*
X00079Y-00188*
X-00211Y00261D02*
X-0021Y0026D01*
X-0017*
X-00492Y00068D02*
X-00449Y0011D01*
X-00459Y-00139D02*
X-00411D01*
X-00466Y-00071D02*
X-00434Y-00039D01*
X-00485Y-00165D02*
X-00459Y-00139D01*
X-00486Y-0001D02*
X-00415Y00061D01*
X00586Y-00248D02*
Y-00139D01*
X00543Y-00097D02*
X00586Y-00139D01*
X-01378Y-01162D02*
X-01329D01*
X-01311Y-0118D02*
X-01296Y-01164D01*
Y-01118*
X-01279Y-01102*
X-00993Y-0118D02*
X-0094Y-01126D01*
X-00911*
X001Y00261D02*
X0014D01*
X-0017Y00061D02*
X-0012Y00111D01*
X-00079*
X-00029Y00061*
X-002Y00161D02*
X-0015Y00211D01*
X0004*
X-00029Y00261D02*
X001D01*
X0019Y0031D02*
X00231D01*
X0014Y00261D02*
X0019Y0031D01*
X-0034Y00261D02*
X-00211D01*
X-00498Y0031D02*
X-0039D01*
X-0034Y00261*
X00231Y0031D02*
X00306Y00236D01*
X00386*
G54D39*
X01271Y00716D02*
Y00834D01*
X01301Y00687D02*
X01335D01*
X01271Y00716D02*
X01301Y00687D01*
X01254Y00716D02*
X01271D01*
X-00134Y00161D02*
X-00062D01*
X-00411D02*
X-00347D01*
X-00567Y-01064D02*
X-00448D01*
X01028Y-00502D02*
X01061Y-00535D01*
X01151*
X01346Y-00518D02*
X014Y-00464D01*
X01289Y-00518D02*
X01346D01*
X01169D02*
X01289D01*
X01151Y-00535D02*
X01169Y-00518D01*
X00297Y00739D02*
X00353D01*
X01235Y-00066D02*
X01248Y-00053D01*
X-01116Y00449D02*
X-01065D01*
X00226Y00588D02*
X00279D01*
X-0097Y-00661D02*
X-0096Y-00671D01*
X-0091*
X-01065Y00449D02*
X-01062Y00452D01*
X014Y-00464D02*
Y-00283D01*
Y-0017D02*
Y-00066D01*
X01461*
X01235Y-00282D02*
X01235Y-00283D01*
Y-00199*
X01153Y-00283D02*
X01235D01*
Y-00343D02*
Y-00283D01*
X01428Y-00703D02*
Y-00628D01*
X0135Y-00703D02*
X01428D01*
Y-00798D02*
Y-00703D01*
X01499*
X-00723Y-00938D02*
X-00693D01*
X-00567Y-01064*
X00169Y00588D02*
X00226D01*
X-00128Y00575D02*
X00156D01*
X00169Y00588*
X00806Y00751D02*
Y00851D01*
X0116Y0013D02*
X01307D01*
X0139*
X01235Y00056D02*
X01307D01*
X01235Y-00066D02*
Y00056D01*
G54D40*
X00364Y00749D02*
Y00805D01*
X-0054Y0081D02*
X-00483D01*
X-00475Y00802*
G54D41*
X-00682Y00684D02*
X-00673Y00693D01*
X-00742Y00684D02*
X-00682D01*
X-0075Y00675D02*
X-00742Y00684D01*
X-00673Y00623D02*
Y00693D01*
X-0075Y00675D02*
Y00751D01*
X-00707Y00207D02*
X-00673D01*
X-00715Y-00093D02*
X-00668D01*
X-00729Y-00078D02*
X-00715Y-00093D01*
X-00748Y-00078D02*
X-00729D01*
X-00796D02*
X-00778D01*
X-0081Y-00093D02*
X-00796Y-00078D01*
X-00857Y-00093D02*
X-0081D01*
X-00715Y-00043D02*
X-00668D01*
X-00731Y-00026D02*
X-00715Y-00043D01*
X-00748Y-00026D02*
X-00731D01*
X-00794D02*
X-00778D01*
X-0081Y-00043D02*
X-00794Y-00026D01*
X-00857Y-00043D02*
X-0081D01*
X-00713Y00007D02*
X-00668D01*
X-00731Y00025D02*
X-00713Y00007D01*
X-00748Y00025D02*
X-00731D01*
X-00793D02*
X-00778D01*
X-00811Y00007D02*
X-00793Y00025D01*
X-00857Y00007D02*
X-00811D01*
X-00712Y00057D02*
X-00668D01*
X-00732Y00077D02*
X-00712Y00057D01*
X-00748Y00077D02*
X-00732D01*
X-0079D02*
X-00778D01*
X-00811Y00057D02*
X-0079Y00077D01*
X-00857Y00057D02*
X-00811D01*
X-00794Y0013D02*
X-00778D01*
X-0082Y00157D02*
X-00794Y0013D01*
X-00857Y00157D02*
X-0082D01*
X-00788Y00182D02*
X-00778D01*
X-00813Y00207D02*
X-00788Y00182D01*
X-00857Y00207D02*
X-00813D01*
X-00704Y00157D02*
X-00668D01*
X-00729Y00131D02*
X-00704Y00157D01*
X-00747Y00131D02*
X-00729D01*
X-00748Y00182D02*
X-00732D01*
X-00707Y00207*
X-00547Y00781D02*
Y00803D01*
X-0055Y00778D02*
X-00547Y00781D01*
X-0055Y00736D02*
Y00778D01*
X-00547Y00803D02*
X-0054Y0081D01*
X00801Y-00919D02*
X00819D01*
X00764Y-00956D02*
X00801Y-00919D01*
X00704Y-00956D02*
X00764D01*
X00844Y-00971D02*
X00889Y-00926D01*
X00844Y-00995D02*
Y-00971D01*
X00889Y-00926D02*
Y-00886D01*
X00677Y-00978D02*
X00683D01*
X00704Y-00956*
X00675Y-01031D02*
Y-00979D01*
X00629Y00216D02*
Y00257D01*
X00627Y00215D02*
X00629Y00216D01*
X00603Y00257D02*
X00629D01*
X00824Y-0109D02*
X0089D01*
X00824Y-01015D02*
X00844Y-00995D01*
X00046Y-00887D02*
X00062Y-00903D01*
X00009Y-00887D02*
X00046D01*
X00889Y-00886D02*
Y-00791D01*
X-01177Y-00679D02*
X-00989D01*
X-0097Y-00661*
X-01194Y-00662D02*
X-01177Y-00679D01*
X-01393Y-00662D02*
X-01194D01*
X-01411Y-00645D02*
X-01393Y-00662D01*
X-00061Y-01187D02*
X00009D01*
X0005D02*
X00075Y-01162D01*
X00009Y-01187D02*
X0005D01*
X-00052Y-00887D02*
X00009D01*
X00104Y-0125D02*
X00119D01*
X00137Y-01231*
Y-01214*
X-0141Y-00002D02*
Y00031D01*
X-0141Y00093D02*
Y0013D01*
X-01059Y00151D02*
X-01018D01*
X-00995Y00164D02*
X-00951D01*
X-00995D02*
Y00215D01*
X-00926Y-00456D02*
X-00878D01*
X-00872Y-00462*
X-015Y-00665D02*
Y-00616D01*
Y-00564*
X-00347Y-00753D02*
X-00312D01*
Y-00798D02*
Y-00753D01*
X-00274*
X-00224Y-00778D02*
Y-00733D01*
X-00262D02*
X-00224D01*
X-00097Y-00442D02*
X-00029D01*
X-00062Y-01451D02*
Y-01395D01*
X-00072Y-01385D02*
X-00062Y-01395D01*
X-00072Y-01385D02*
Y-01302D01*
X-00006Y-01237*
X0032Y-00795D02*
X00327D01*
X00363Y-00831*
X00428*
X00449Y-00852*
X-00006Y-01237D02*
X00038D01*
X00056Y-01219*
X00083*
X-00388Y00773D02*
X-00385Y00776D01*
X-0042Y00773D02*
X-00388D01*
X-00477Y00802D02*
X-00453D01*
G54D42*
X-008Y00484D02*
Y00535D01*
X-00931Y00647D02*
Y00718D01*
X00413Y-00554D02*
Y-00447D01*
X00407Y-0056D02*
X00413Y-00554D01*
X00529Y-00437D02*
X00551Y-00416D01*
X00413Y-00437D02*
X00529D01*
X00413D02*
Y-00365D01*
X-00884Y00662D02*
X-00878Y00668D01*
X-00823*
X-00879D02*
X-00878D01*
X-00829Y00674D02*
Y00725D01*
X-00842Y00507D02*
X-00804D01*
X00551Y-00416D02*
Y-00365D01*
X00477Y-00243D02*
X00514Y-0028D01*
Y-00282D02*
Y-0028D01*
X-01418Y00572D02*
X-01303Y00688D01*
X-01445Y00572D02*
X-01418D01*
X00804Y00466D02*
Y00478D01*
X00792Y00454D02*
X00804Y00466D01*
X00627Y00215D02*
X00636Y00206D01*
X00588Y00215D02*
X00627D01*
X01014Y00203D02*
X01015Y00201D01*
X00844Y00455D02*
X0089D01*
X00844Y0042D02*
Y00455D01*
Y0042D02*
X00856Y00408D01*
X00855Y00407D02*
X00856Y00408D01*
X00788Y00407D02*
X00855D01*
X01042Y00257D02*
X01062Y00237D01*
Y00201D02*
Y00237D01*
X01015Y00201D02*
X01062D01*
X01042Y00257D02*
Y00272D01*
X0125Y00621D02*
X01252Y00618D01*
Y00572D02*
Y00618D01*
X-01091Y-00611D02*
X-01027D01*
X-01132Y-006D02*
X-01131Y-00602D01*
X-01139D02*
X-01094D01*
X-01153Y-00649D02*
X-01068D01*
X-01062Y00452D02*
Y00516D01*
X-0092Y0061D02*
Y00636D01*
X-00294Y-0027D02*
X-00292D01*
X-00333D02*
X-00294D01*
X-00296Y-00267D02*
X-00294Y-0027D01*
X-01474Y00855D02*
Y00935D01*
X-01521Y00892D02*
X-01436D01*
X-00969Y-00992D02*
X-00797D01*
X-01521Y-00144D02*
X-01511D01*
X-01504Y-00137*
X-01467*
X-00995Y00029D02*
Y00089D01*
X-01381Y-00435D02*
X-0136Y-00414D01*
X00327Y-00292D02*
X00366D01*
X00376Y-00282*
X-00127Y-0056D02*
X-00127Y-0056D01*
X-00361Y-01137D02*
Y-01087D01*
Y-01037*
X-00421Y-012D02*
Y-01173D01*
Y-012D02*
X-00385Y-01237D01*
X-00361*
X-00421Y-01173D02*
X-00385Y-01137D01*
X-00361*
X00009D02*
Y-01087D01*
Y-01037*
X-00425Y-01087D02*
X-00361D01*
X-00448Y-01064D02*
X-00425Y-01087D01*
X01306Y00572D02*
X01309Y00574D01*
Y00621*
X01266Y00196D02*
X01305D01*
X01258Y00204D02*
X01266Y00196D01*
X-01529Y00678D02*
Y00856D01*
X-00931Y00647D02*
X-0092Y00636D01*
X-01016Y-00732D02*
Y-0069D01*
X00236Y-01303D02*
Y-01095D01*
X00009Y-01087D02*
X00045D01*
X00067Y-01109*
X00081*
X-00884Y0061D02*
Y00662D01*
X-00887Y-00879D02*
X-00883Y-00883D01*
Y-00988D02*
Y-00883D01*
X-00298Y-0056D02*
Y-00348D01*
X-00127Y-0056D02*
X-00103Y-00535D01*
Y-00441*
Y-00386D02*
X-00097Y-00392D01*
X-00029*
X00804Y00478D02*
X00834Y00508D01*
X00844*
X00062Y-01503D02*
Y-01451D01*
X-00244Y0056D02*
X-00238D01*
X-00273Y00588D02*
X-00244Y0056D01*
X-00238D02*
X-00237D01*
X-00186Y00508*
X-00931Y00718D02*
X-00924Y00726D01*
G54D43*
X-00625Y00107D02*
X-00586Y00145D01*
X-00668Y00107D02*
X-00625D01*
X-00586Y00145D02*
X-00575D01*
X-00668Y-00093D02*
X-00647D01*
X-00668Y-00043D02*
X-00628D01*
X-00673Y00207D02*
X-00577Y00302D01*
X-00592Y00007D02*
X-00575Y-0001D01*
X-00668Y00007D02*
X-00592D01*
X-00668Y00057D02*
X-00586D01*
X-00575Y00068*
X-00583Y-00088D02*
X-00575D01*
X-00668Y00157D02*
X-0064D01*
X-00647Y-00093D02*
X-00575Y-00165D01*
X-0064Y00157D02*
X-00575Y00222D01*
X01039Y-00971D02*
Y-00886D01*
Y-00971D02*
X01066Y-00998D01*
Y-01155D02*
Y-00998D01*
X00555Y-01086D02*
Y-00976D01*
X00655Y-01186D02*
X00919D01*
X00555Y-01086D02*
X00655Y-01186D01*
X00646Y-01208D02*
X01013D01*
X00533Y-01095D02*
X00646Y-01208D01*
X00533Y-01095D02*
Y-01016D01*
X01111Y-00664D02*
X0114D01*
X01083Y-00636D02*
X01111Y-00664D01*
X01012Y-00636D02*
X01083D01*
X00999Y-00623D02*
X01012Y-00636D01*
X01013Y-01208D02*
X01066Y-01155D01*
X00919Y-01186D02*
X00989Y-01116D01*
X00477Y-0096D02*
X00533Y-01016D01*
X-00628Y-00043D02*
X-00583Y-00088D01*
X00571Y-0096D02*
X00605D01*
X00555Y-00976D02*
X00571Y-0096D01*
X0038D02*
X00477D01*
X00989Y-01116D02*
Y-01071D01*
X-0045Y00802D02*
X-00421Y00773D01*
G54D44*
X-00371Y00729D02*
X-00357Y00742D01*
Y00777*
G54D45*
X-00871Y00211D02*
X-00857D01*
X-00501Y-01145D02*
Y-01065D01*
X-01172Y-00394D02*
X-01159Y-00407D01*
X-00897Y-00089D02*
X-00857D01*
X-00876Y-00039D02*
X-00857D01*
X-00871Y00011D02*
X-00857D01*
X-00871Y00061D02*
X-00857D01*
X-00871Y00161D02*
X-00857D01*
X-01507Y-00004D02*
X-01441Y-0007D01*
X-01485Y00001D02*
X-01427Y-00056D01*
X-01527Y-00012D02*
X-01455Y-00084D01*
X-01377Y00004D02*
Y00021D01*
Y00004D02*
X-01371Y0D01*
X-01357Y0004D02*
X-01343Y00027D01*
X-01337Y00048D02*
X-01329Y00041D01*
X-01316Y00083D02*
X-01302Y00069D01*
X-01294Y00088D02*
X-01288Y00082D01*
X-01115D02*
X-01111Y00087D01*
X-01093Y00078D02*
Y00218D01*
X-01102Y00069D02*
X-01093Y00078D01*
X-01129Y-00464D02*
X-01116Y-00478D01*
X-01004Y-00339D02*
X-0098Y-00363D01*
X-00962Y-00297D02*
X-00957Y-00303D01*
X-01398Y-00001D02*
Y00036D01*
X-01405Y-00008D02*
X-01398Y-00001D01*
X-01422Y-00005D02*
Y0004D01*
Y-00005D02*
X-01399Y-00028D01*
X-01443Y-00012D02*
X-01413Y-00042D01*
X-01379Y-00235D02*
X-01362D01*
X-0141Y-00239D02*
X-0138Y-00209D01*
X-01438Y-00155D02*
X-01427Y-00167D01*
X-01419Y-00147D02*
X-01346D01*
X-01424Y-00141D02*
X-01419Y-00147D01*
X-01483Y-00083D02*
X-01468Y-00097D01*
X-01491Y-00093D02*
X-01473D01*
X-01341Y-00058D02*
X-01334Y-00065D01*
X-01355Y-00072D02*
X-01342Y-00085D01*
X-0111Y-00345D02*
X-01104Y-00351D01*
X-0116Y-00379D02*
X-01146Y-00393D01*
X-00646Y-00412D02*
X-00626Y-00393D01*
X-00691Y-00412D02*
X-00646D01*
X-01084Y-00053D02*
X-01076Y-00044D01*
X-00999Y-00234D02*
X-00993Y-00239D01*
X-01397Y-00253D02*
X-01379Y-00235D01*
X-01407Y-00395D02*
X-01399D01*
X-01371Y-00367*
X-01308Y-00036D02*
X-01254D01*
X-01313Y-0003D02*
X-01309Y-00035D01*
X-01313Y-00337D02*
X-01307Y-00331D01*
X-0146Y-00289D02*
D01*
X-01455Y-00283*
X-01322Y-00428D02*
X-01321D01*
X-01315Y-00423*
X-01307Y-00442D02*
D01*
X-01301Y-00437*
X-0106Y-00395D02*
X-01042Y-00412D01*
X-01086Y-00424D02*
X-01083Y-00427D01*
Y-00434D02*
Y-00427D01*
X-01074Y-00409D02*
X-01064Y-00419D01*
X-0072Y-00442D02*
X-00691Y-00412D01*
X-00828Y-00442D02*
X-0072D01*
X-00848Y-00422D02*
X-00828Y-00442D01*
X-00776Y-00412D02*
X-00755D01*
X-0079Y-00399D02*
X-00776Y-00412D01*
X-00812Y-00399D02*
X-0079D01*
X-00818Y-00393D02*
X-00812Y-00399D01*
X-00829Y-00404D02*
X-00818Y-00393D01*
X-01018Y-00353D02*
X-01Y-00372D01*
X-0099Y-00325D02*
X-00972Y-00343D01*
X-00929Y-00275D02*
D01*
X-00935Y-0027D02*
X-00929Y-00275D01*
X-00976Y-00311D02*
X-00964Y-00323D01*
X-01474Y-00276D02*
X-01468Y-00269D01*
X-01481Y-00276D02*
X-01474D01*
X-01018Y-00014D02*
X-01005Y-00001D01*
X-01004Y-00028D02*
X-00986Y-0001D01*
X-0099Y-00042D02*
X-00968Y-0002D01*
X-00961Y-00068D02*
X-00932Y-00039D01*
X-00948Y-00083D02*
X-00914Y-00049D01*
X-00976Y-00056D02*
X-0095Y-0003D01*
X-01005Y00008D02*
X-00986Y00026D01*
Y00081*
X-01005Y-00001D02*
Y00008D01*
Y00089*
X-01032Y0D02*
X-01024Y00007D01*
Y00019D02*
Y00044D01*
Y00007D02*
Y00019D01*
X-01039Y00034D02*
X-01024Y00019D01*
X-01362Y-00402D02*
X-01355Y-00408D01*
X-01362Y-00402D02*
Y-00386D01*
X-01367Y-0042D02*
Y-00391D01*
X-01362Y-00386*
X-01358Y-00382*
X-01032Y-00367D02*
X-00995Y-00404D01*
X-00832*
X-01046Y-00381D02*
X-01005Y-00422D01*
X-00851*
X-01083Y-00434D02*
X-01081Y-00435D01*
X-01064Y-00425D02*
Y-00419D01*
X-01445Y-0036D02*
X-01445Y-00359D01*
X-01451Y-00309D02*
X-01442Y-00298D01*
X-01111Y00087D02*
Y00209D01*
X-01112Y0021D02*
X-01111Y00209D01*
X-01112Y00227D02*
X-01111Y00228D01*
X-01112Y0021D02*
Y00227D01*
X-00932Y00127D02*
X-00914Y00145D01*
Y00167*
X-00871Y00211*
X-00935Y-00097D02*
X-00876Y-00039D01*
X-00871Y00111D02*
X-00857D01*
X-00914Y00117D02*
X-00871Y00161D01*
X-00932Y00075D02*
X-00914Y00093D01*
X-0095Y00082D02*
X-00932Y001D01*
Y00127*
X-00914Y00067D02*
X-00871Y00111D01*
X-00914Y00093D02*
Y00117D01*
Y00043D02*
Y00067D01*
X-00932Y0005D02*
Y00075D01*
Y00025D02*
X-00914Y00043D01*
X-0095Y00032D02*
X-00932Y0005D01*
X-00968Y0004D02*
X-0095Y00058D01*
Y00082*
X-00914Y-00006D02*
Y00017D01*
X-00932Y0D02*
Y00025D01*
X-00914Y00017D02*
X-00871Y00061D01*
X-00914Y-00032D02*
X-00871Y00011D01*
X-00914Y-00049D02*
Y-00032D01*
X-00932Y-00039D02*
Y-00024D01*
X-00914Y-00006*
X-0095Y-0003D02*
Y-00017D01*
X-00932Y0*
X-00968Y-0002D02*
Y-00009D01*
X-0095Y00008*
Y00032*
X-00986Y-0001D02*
Y-00002D01*
X-00968Y00015*
Y0004*
X-00939Y-00131D02*
X-00897Y-00089D01*
X-00326Y00522D02*
Y00542D01*
X-00357Y00574D02*
X-00326Y00542D01*
X-00357Y00574D02*
Y00611D01*
G54D46*
X00954Y-00502D02*
X01027D01*
G54D47*
X01289Y-00518D02*
Y-00466D01*
X00921Y-00454D02*
X00964Y-00498D01*
X00931Y-00539D02*
X00955Y-00514D01*
G54D48*
X00738Y-00852D02*
Y-00656D01*
X00556Y-00852D02*
X00738D01*
Y-00851D02*
X00873D01*
X-00127Y-0056D02*
X00127D01*
X00127Y-0056*
X00407D02*
X00642D01*
X00738Y-00656*
X00645Y-00552D02*
X00723Y-00474D01*
X-00298Y-0056D02*
X-00127D01*
X-00407D02*
X-00298D01*
X-00884Y-00803D02*
Y-00753D01*
X00127Y-0056D02*
X00407D01*
X00723Y-00474D02*
X009D01*
X00917Y-00542D02*
Y-00443D01*
X00449Y-00852D02*
X00556D01*
G54D49*
X00677Y-00925D02*
Y-00853D01*
G54D50*
X00311Y00745D02*
Y00811D01*
X-0091Y-00143D02*
X-00794D01*
G54D51*
X00933Y-00624D02*
X00984Y-00573D01*
X00932Y-00377D02*
X00993Y-00438D01*
G54D52*
X01039Y-01118D02*
Y-01059D01*
G54D53*
X-0106Y00069D02*
Y00095D01*
Y00069D02*
X-01033Y00042D01*
G54D54*
X-01405Y-00021D02*
Y-00007D01*
G54D55*
X-01042Y-00414D02*
X-01014Y-00443D01*
X-01009Y-00447D02*
X-00976D01*
X-01014Y-00443D02*
X-00991Y-00466D01*
X-00977*
G54D56*
X-00031Y-01365D03*
X-00062Y-01451D03*
X00031Y-01365D03*
X00062Y-01451D03*
X0D03*
G54D57*
X00163Y-01408D03*
X-00163D03*
G54D58*
X00662Y-00737D03*
Y-0056D03*
X00407D03*
Y-00737D03*
X-00407D03*
Y-0056D03*
X-00662D03*
Y-00737D03*
X00127D03*
Y-0056D03*
X-00127D03*
Y-00737D03*
G54D59*
X00211Y00261D03*
Y00161D03*
Y00061D03*
Y-00039D03*
Y-00139D03*
X00411Y00261D03*
Y00161D03*
Y00061D03*
Y-00039D03*
Y-00139D03*
X-015Y-00716D03*
Y-00616D03*
Y-00516D03*
Y-00416D03*
X00506Y00751D03*
X00606Y00851D03*
Y00751D03*
X00706Y00851D03*
Y00751D03*
X00806Y00851D03*
Y00751D03*
X00906Y00851D03*
Y00751D03*
X-00411Y00261D03*
Y00161D03*
Y00061D03*
Y-00039D03*
Y-00139D03*
X-00211Y00261D03*
Y00161D03*
Y00061D03*
Y-00039D03*
Y-00139D03*
X001D03*
Y-00039D03*
Y00061D03*
Y00161D03*
Y00261D03*
X-001Y-00139D03*
Y-00039D03*
Y00061D03*
Y00161D03*
Y00261D03*
G54D60*
X014Y-00283D03*
Y-00066D03*
X01235D03*
Y-00283D03*
G54D61*
X-015Y-00816D03*
G54D62*
X-00626Y-00393D03*
X-00818D03*
G54D63*
X00506Y00851D03*
G54D64*
X-00725Y-00945D03*
G54D65*
X-00906Y-01126D03*
G54D66*
X-01245Y-00875D03*
X01245D03*
G54D67*
X0Y00875D03*
G54D68*
X01417Y00636D03*
X0142Y00707D03*
X01271Y00834D03*
X01177Y00827D03*
X01116Y00822D03*
X-0131Y-00513D03*
X01169Y00002D03*
X-00645Y00827D03*
X-00924Y00726D03*
X00585Y-00487D03*
X00439Y00886D03*
X00756Y-01141D03*
X00927Y-00956D03*
X00622Y-01088D03*
X01003Y-01159D03*
X01332Y-00689D03*
X00996Y-00707D03*
X01063Y-0038D03*
X01056Y-00595D03*
X01082Y-00473D03*
X01066Y-00819D03*
X00297Y00739D03*
X00961Y00718D03*
X0063Y-0005D03*
X-01171Y00517D03*
X-00981Y00744D03*
X-00256Y00873D03*
X00141Y00496D03*
X00339Y00645D03*
X00539Y00282D03*
X00537Y00456D03*
X00194Y00529D03*
X00279Y00588D03*
X00282Y00436D03*
X00226Y00588D03*
X-0027Y00501D03*
X-00968Y00828D03*
X-01083Y00826D03*
X00226Y00876D03*
X-01134Y00625D03*
X-01187Y0096D03*
X-01176Y00791D03*
X-01303Y00744D03*
X-01455Y00511D03*
X-0153Y00657D03*
X-00319Y00692D03*
X-00186Y00508D03*
X-00161Y00958D03*
X-01397Y0037D03*
X-01177Y00333D03*
X00845Y00596D03*
X00536Y00517D03*
X01014Y00203D03*
X00588Y00215D03*
X00405Y00369D03*
X00792Y00454D03*
X00856Y00408D03*
X01071Y00617D03*
X01149Y00653D03*
X-01002Y00384D03*
X-01054Y00201D03*
X-00937D03*
X01354Y00358D03*
X00753Y-01006D03*
X01447Y0088D03*
X00776Y00038D03*
X00585Y00156D03*
X-01437Y-0054D03*
X-01279Y-00293D03*
X-01349Y-00249D03*
X-00803Y00533D03*
X00405Y00665D03*
X-00427Y00618D03*
X-00925Y-00563D03*
X-00869Y-00589D03*
X-01112Y-00523D03*
X-01094Y-00602D03*
X-00442Y-00495D03*
X00618Y-00621D03*
X-00052Y-00495D03*
X01258Y00204D03*
X00623Y00599D03*
X0106Y00558D03*
X01417Y00209D03*
X01194Y00204D03*
X-00924Y00462D03*
X-01058Y00914D03*
X00081Y-00277D03*
X00032Y-00321D03*
X-00162Y-00298D03*
X00201Y-00789D03*
X00363Y-00674D03*
X0074Y-00329D03*
X00732Y-00141D03*
X00614Y00056D03*
X01475Y-00321D03*
X01427Y-0053D03*
X01501Y-00829D03*
X01525Y-00587D03*
X0119Y-00694D03*
X00815Y-00679D03*
X01339Y-00423D03*
X-01194Y-00087D03*
X-015Y-00901D03*
X-01484Y-00988D03*
X-01359Y-00609D03*
X-01119Y-01014D03*
X-01075Y-01063D03*
X-01079Y-00733D03*
X-01036Y-0018D03*
X-01108Y-00096D03*
X-01202Y-00394D03*
X-01232Y-00329D03*
X-01205Y-00251D03*
X-01089Y-00277D03*
X-01254Y-00026D03*
X-01276Y-00202D03*
X-01133Y-00164D03*
X-00432Y-00824D03*
X-00499Y-00926D03*
X-00872Y-00462D03*
X-00924Y-00183D03*
X-00777Y-0031D03*
X-00465Y-00294D03*
X-01407Y-00395D03*
X-01445Y00312D03*
X-01524Y-00088D03*
X-00244Y-00352D03*
X-00243Y-00496D03*
X-00384Y-00449D03*
X-00064Y-00664D03*
X-00639Y-00909D03*
X-00728Y-00831D03*
X-00669Y-01146D03*
X-00736Y-01102D03*
X-0097Y-00661D03*
X-01275Y-0057D03*
X00474Y-00784D03*
X00039Y-00757D03*
X00888Y-01001D03*
X-00515Y00651D03*
X00358Y-00002D03*
X00197Y00681D03*
X-00292Y-0027D03*
X00155Y00958D03*
X00292Y-00499D03*
X-00047Y-00089D03*
X-00887Y-00879D03*
X006Y-00782D03*
X00522Y00958D03*
X00403Y-01053D03*
X01429Y-00945D03*
X-0141Y00917D03*
X-00745Y00539D03*
X00461Y-00677D03*
X01112Y-01012D03*
X00562Y-01234D03*
X00981Y-01251D03*
X00778D03*
X-00471Y-01249D03*
X-01409Y-00976D03*
X-01166Y-01237D03*
X-01421Y-01248D03*
X-01525Y-0116D03*
X-01029Y-01119D03*
X-0121Y-01112D03*
X-00566Y-00458D03*
X-01358Y-00717D03*
X-01027Y-00866D03*
X-00933Y-0124D03*
X-00389Y-00247D03*
X-01403Y00192D03*
X-00884Y-00803D03*
X-01008Y-00997D03*
X-00704Y-01244D03*
X00638Y-00232D03*
X-00358Y-0009D03*
X-00763Y-0013D03*
X-00508Y-00696D03*
X-00977Y00595D03*
X00822Y-00541D03*
X00462Y-00492D03*
X-01469Y-00184D03*
X01424Y00048D03*
X01045Y-00288D03*
X01406Y-00176D03*
X00355Y00091D03*
X00306Y-00132D03*
X0089Y-0007D03*
X01045Y-00018D03*
X01305Y-00122D03*
X01511Y-00167D03*
X00877Y-00231D03*
X005Y-00166D03*
X00477Y-00243D03*
X00327Y-00292D03*
X00328Y-00227D03*
X00285Y-00353D03*
X-00091Y-00313D03*
X00059Y-00417D03*
X-00034Y-00245D03*
X00032Y-01284D03*
X00075Y-01162D03*
X00129D03*
X-00108Y-01259D03*
X-00068Y-01151D03*
X-00092Y-01507D03*
X-00049Y-00757D03*
X-00206Y-00807D03*
X-00759Y-00731D03*
X-00762Y-00503D03*
X-00583Y-00621D03*
X-00455Y-01123D03*
X-00251Y-00976D03*
X-00254Y-01157D03*
X00063Y-00663D03*
X00692Y-00419D03*
X-00604Y-00797D03*
X-01116Y00448D03*
X01351Y00862D03*
X00901Y00338D03*
X00969Y00392D03*
X01309Y00621D03*
X0141Y00577D03*
X01354Y00418D03*
X01457Y00508D03*
X01017Y00101D03*
X01094Y00411D03*
X01262Y00407D03*
X0125Y00621D03*
X01179Y00425D03*
X01216Y00337D03*
X-01288Y-00076D03*
X-01353Y-00125D03*
X-0117Y00113D03*
X-0077Y00381D03*
X-01274Y00406D03*
X00314Y-00926D03*
X00967Y-01002D03*
X00624Y-01027D03*
X00461Y-01002D03*
X00502Y-00918D03*
X00393Y-012D03*
X01181Y-0123D03*
X0141Y-01234D03*
X01171Y-00126D03*
X-00128Y00576D03*
X-00865Y00461D03*
X-00899Y00384D03*
X-00609Y00623D03*
X00315Y-00846D03*
X00268Y-0081D03*
X00689Y0032D03*
X00746Y00801D03*
X00666D03*
X00986Y00956D03*
X00685Y00603D03*
X00744D03*
X-01421Y-01079D03*
X00243Y-01104D03*
X00231Y-01308D03*
X00091Y-01507D03*
X0018Y-00499D03*
X-00406Y00508D03*
X-00326Y00522D03*
X-00055Y00495D03*
X-00417Y00827D03*
X-00475Y00802D03*
X-00821Y00666D03*
X00984Y-00155D03*
X00355Y00191D03*
X00347Y00285D03*
M02*