%FSTAX23Y23*%
%MOIN*%
%SFA1B1*%

%IPPOS*%
%AMD81*
4,1,8,0.029600,-0.027800,0.029600,0.027800,0.017900,0.039400,-0.017900,0.039400,-0.029600,0.027800,-0.029600,-0.027800,-0.017900,-0.039400,0.017900,-0.039400,0.029600,-0.027800,0.0*
1,1,0.023360,0.017900,-0.027800*
1,1,0.023360,0.017900,0.027800*
1,1,0.023360,-0.017900,0.027800*
1,1,0.023360,-0.017900,-0.027800*
%
%AMD82*
4,1,8,-0.041400,0.015000,-0.041400,-0.015000,-0.033700,-0.022700,0.033700,-0.022700,0.041400,-0.015000,0.041400,0.015000,0.033700,0.022700,-0.033700,0.022700,-0.041400,0.015000,0.0*
1,1,0.015480,-0.033700,0.015000*
1,1,0.015480,-0.033700,-0.015000*
1,1,0.015480,0.033700,-0.015000*
1,1,0.015480,0.033700,0.015000*
%
%AMD83*
4,1,8,-0.149700,0.102900,-0.149700,-0.102900,-0.140300,-0.112300,0.140300,-0.112300,0.149700,-0.102900,0.149700,0.102900,0.140300,0.112300,-0.140300,0.112300,-0.149700,0.102900,0.0*
1,1,0.018820,-0.140300,0.102900*
1,1,0.018820,-0.140300,-0.102900*
1,1,0.018820,0.140300,-0.102900*
1,1,0.018820,0.140300,0.102900*
%
%AMD84*
4,1,8,-0.018700,-0.069000,0.018700,-0.069000,0.041400,-0.046300,0.041400,0.046300,0.018700,0.069000,-0.018700,0.069000,-0.041400,0.046300,-0.041400,-0.046300,-0.018700,-0.069000,0.0*
1,1,0.045400,-0.018700,-0.046300*
1,1,0.045400,0.018700,-0.046300*
1,1,0.045400,0.018700,0.046300*
1,1,0.045400,-0.018700,0.046300*
%
%AMD85*
4,1,8,-0.006900,-0.044400,0.006900,-0.044400,0.017800,-0.033500,0.017800,0.033500,0.006900,0.044400,-0.006900,0.044400,-0.017800,0.033500,-0.017800,-0.033500,-0.006900,-0.044400,0.0*
1,1,0.021780,-0.006900,-0.033500*
1,1,0.021780,0.006900,-0.033500*
1,1,0.021780,0.006900,0.033500*
1,1,0.021780,-0.006900,0.033500*
%
%AMD86*
4,1,8,-0.006900,-0.030600,0.006900,-0.030600,0.017800,-0.019700,0.017800,0.019700,0.006900,0.030600,-0.006900,0.030600,-0.017800,0.019700,-0.017800,-0.019700,-0.006900,-0.030600,0.0*
1,1,0.021780,-0.006900,-0.019700*
1,1,0.021780,0.006900,-0.019700*
1,1,0.021780,0.006900,0.019700*
1,1,0.021780,-0.006900,0.019700*
%
%AMD87*
4,1,8,-0.029600,0.008300,-0.029600,-0.008300,-0.022000,-0.015800,0.022000,-0.015800,0.029600,-0.008300,0.029600,0.008300,0.022000,0.015800,-0.022000,0.015800,-0.029600,0.008300,0.0*
1,1,0.015080,-0.022000,0.008300*
1,1,0.015080,-0.022000,-0.008300*
1,1,0.015080,0.022000,-0.008300*
1,1,0.015080,0.022000,0.008300*
%
%AMD88*
4,1,8,0.013800,0.049000,-0.013800,0.049000,-0.023700,0.039100,-0.023700,-0.039100,-0.013800,-0.049000,0.013800,-0.049000,0.023700,-0.039100,0.023700,0.039100,0.013800,0.049000,0.0*
1,1,0.019820,0.013800,0.039100*
1,1,0.019820,-0.013800,0.039100*
1,1,0.019820,-0.013800,-0.039100*
1,1,0.019820,0.013800,-0.039100*
%
%AMD89*
4,1,8,0.104700,0.151600,-0.104700,0.151600,-0.114200,0.142100,-0.114200,-0.142100,-0.104700,-0.151600,0.104700,-0.151600,0.114200,-0.142100,0.114200,0.142100,0.104700,0.151600,0.0*
1,1,0.019020,0.104700,0.142100*
1,1,0.019020,-0.104700,0.142100*
1,1,0.019020,-0.104700,-0.142100*
1,1,0.019020,0.104700,-0.142100*
%
%AMD90*
4,1,8,-0.041400,0.008300,-0.041400,-0.008300,-0.033900,-0.015800,0.033900,-0.015800,0.041400,-0.008300,0.041400,0.008300,0.033900,0.015800,-0.033900,0.015800,-0.041400,0.008300,0.0*
1,1,0.015080,-0.033900,0.008300*
1,1,0.015080,-0.033900,-0.008300*
1,1,0.015080,0.033900,-0.008300*
1,1,0.015080,0.033900,0.008300*
%
%AMD93*
4,1,8,0.026100,0.028600,-0.026100,0.028600,-0.037500,0.017200,-0.037500,-0.017200,-0.026100,-0.028600,0.026100,-0.028600,0.037500,-0.017200,0.037500,0.017200,0.026100,0.028600,0.0*
1,1,0.022760,0.026100,0.017200*
1,1,0.022760,-0.026100,0.017200*
1,1,0.022760,-0.026100,-0.017200*
1,1,0.022760,0.026100,-0.017200*
%
%AMD94*
4,1,8,-0.142000,-0.088100,0.142000,-0.088100,0.154400,-0.075600,0.154400,0.075600,0.142000,0.088100,-0.142000,0.088100,-0.154400,0.075600,-0.154400,-0.075600,-0.142000,-0.088100,0.0*
1,1,0.024820,-0.142000,-0.075600*
1,1,0.024820,0.142000,-0.075600*
1,1,0.024820,0.142000,0.075600*
1,1,0.024820,-0.142000,0.075600*
%
%AMD95*
4,1,8,-0.029400,-0.088100,0.029400,-0.088100,0.036700,-0.080800,0.036700,0.080800,0.029400,0.088100,-0.029400,0.088100,-0.036700,0.080800,-0.036700,-0.080800,-0.029400,-0.088100,0.0*
1,1,0.014540,-0.029400,-0.080800*
1,1,0.014540,0.029400,-0.080800*
1,1,0.014540,0.029400,0.080800*
1,1,0.014540,-0.029400,0.080800*
%
%AMD96*
4,1,8,0.052000,0.064000,-0.052000,0.064000,-0.068000,0.048000,-0.068000,-0.048000,-0.052000,-0.064000,0.052000,-0.064000,0.068000,-0.048000,0.068000,0.048000,0.052000,0.064000,0.0*
1,1,0.032000,0.052000,0.048000*
1,1,0.032000,-0.052000,0.048000*
1,1,0.032000,-0.052000,-0.048000*
1,1,0.032000,0.052000,-0.048000*
%
%AMD97*
4,1,8,0.071500,-0.103500,0.071500,0.103500,0.060700,0.114200,-0.060700,0.114200,-0.071500,0.103500,-0.071500,-0.103500,-0.060700,-0.114200,0.060700,-0.114200,0.071500,-0.103500,0.0*
1,1,0.021500,0.060700,-0.103500*
1,1,0.021500,0.060700,0.103500*
1,1,0.021500,-0.060700,0.103500*
1,1,0.021500,-0.060700,-0.103500*
%
%AMD98*
4,1,8,0.040200,0.039400,-0.040200,0.039400,-0.051200,0.028300,-0.051200,-0.028300,-0.040200,-0.039400,0.040200,-0.039400,0.051200,-0.028300,0.051200,0.028300,0.040200,0.039400,0.0*
1,1,0.022180,0.040200,0.028300*
1,1,0.022180,-0.040200,0.028300*
1,1,0.022180,-0.040200,-0.028300*
1,1,0.022180,0.040200,-0.028300*
%
%AMD99*
4,1,8,0.020800,0.033100,-0.020800,0.033100,-0.033500,0.020400,-0.033500,-0.020400,-0.020800,-0.033100,0.020800,-0.033100,0.033500,-0.020400,0.033500,0.020400,0.020800,0.033100,0.0*
1,1,0.025480,0.020800,0.020400*
1,1,0.025480,-0.020800,0.020400*
1,1,0.025480,-0.020800,-0.020400*
1,1,0.025480,0.020800,-0.020400*
%
%AMD100*
4,1,8,-0.021800,-0.029600,0.021800,-0.029600,0.033500,-0.017900,0.033500,0.017900,0.021800,0.029600,-0.021800,0.029600,-0.033500,0.017900,-0.033500,-0.017900,-0.021800,-0.029600,0.0*
1,1,0.023360,-0.021800,-0.017900*
1,1,0.023360,0.021800,-0.017900*
1,1,0.023360,0.021800,0.017900*
1,1,0.023360,-0.021800,0.017900*
%
%AMD101*
4,1,8,0.029600,-0.021800,0.029600,0.021800,0.017900,0.033500,-0.017900,0.033500,-0.029600,0.021800,-0.029600,-0.021800,-0.017900,-0.033500,0.017900,-0.033500,0.029600,-0.021800,0.0*
1,1,0.023360,0.017900,-0.021800*
1,1,0.023360,0.017900,0.021800*
1,1,0.023360,-0.017900,0.021800*
1,1,0.023360,-0.017900,-0.021800*
%
%AMD102*
4,1,8,0.008300,0.029600,-0.008300,0.029600,-0.015800,0.022000,-0.015800,-0.022000,-0.008300,-0.029600,0.008300,-0.029600,0.015800,-0.022000,0.015800,0.022000,0.008300,0.029600,0.0*
1,1,0.015080,0.008300,0.022000*
1,1,0.015080,-0.008300,0.022000*
1,1,0.015080,-0.008300,-0.022000*
1,1,0.015080,0.008300,-0.022000*
%
%AMD103*
4,1,8,0.028600,-0.026100,0.028600,0.026100,0.017200,0.037500,-0.017200,0.037500,-0.028600,0.026100,-0.028600,-0.026100,-0.017200,-0.037500,0.017200,-0.037500,0.028600,-0.026100,0.0*
1,1,0.022760,0.017200,-0.026100*
1,1,0.022760,0.017200,0.026100*
1,1,0.022760,-0.017200,0.026100*
1,1,0.022760,-0.017200,-0.026100*
%
%AMD104*
4,1,8,-0.039400,0.040200,-0.039400,-0.040200,-0.028300,-0.051200,0.028300,-0.051200,0.039400,-0.040200,0.039400,0.040200,0.028300,0.051200,-0.028300,0.051200,-0.039400,0.040200,0.0*
1,1,0.022180,-0.028300,0.040200*
1,1,0.022180,-0.028300,-0.040200*
1,1,0.022180,0.028300,-0.040200*
1,1,0.022180,0.028300,0.040200*
%
%AMD105*
4,1,8,0.027800,0.029600,-0.027800,0.029600,-0.039400,0.017900,-0.039400,-0.017900,-0.027800,-0.029600,0.027800,-0.029600,0.039400,-0.017900,0.039400,0.017900,0.027800,0.029600,0.0*
1,1,0.023360,0.027800,0.017900*
1,1,0.023360,-0.027800,0.017900*
1,1,0.023360,-0.027800,-0.017900*
1,1,0.023360,0.027800,-0.017900*
%
%AMD106*
4,1,8,0.049300,-0.036200,0.049300,0.036200,0.036200,0.049300,-0.036200,0.049300,-0.049300,0.036200,-0.049300,-0.036200,-0.036200,-0.049300,0.036200,-0.049300,0.049300,-0.036200,0.0*
1,1,0.026120,0.036200,-0.036200*
1,1,0.026120,0.036200,0.036200*
1,1,0.026120,-0.036200,0.036200*
1,1,0.026120,-0.036200,-0.036200*
%
%AMD110*
4,1,8,0.072900,-0.055100,0.072900,0.055100,0.055100,0.072900,-0.055100,0.072900,-0.072900,0.055100,-0.072900,-0.055100,-0.055100,-0.072900,0.055100,-0.072900,0.072900,-0.055100,0.0*
1,1,0.035560,0.055100,-0.055100*
1,1,0.035560,0.055100,0.055100*
1,1,0.035560,-0.055100,0.055100*
1,1,0.035560,-0.055100,-0.055100*
%
%AMD111*
4,1,8,-0.033500,0.020700,-0.033500,-0.020700,-0.020700,-0.033500,0.020700,-0.033500,0.033500,-0.020700,0.033500,0.020700,0.020700,0.033500,-0.020700,0.033500,-0.033500,0.020700,0.0*
1,1,0.025720,-0.020700,0.020700*
1,1,0.025720,-0.020700,-0.020700*
1,1,0.025720,0.020700,-0.020700*
1,1,0.025720,0.020700,0.020700*
%
%AMD113*
4,1,8,0.025500,0.040400,-0.025500,0.040400,-0.040400,0.025500,-0.040400,-0.025500,-0.025500,-0.040400,0.025500,-0.040400,0.040400,-0.025500,0.040400,0.025500,0.025500,0.040400,0.0*
1,1,0.029860,0.025500,0.025500*
1,1,0.029860,-0.025500,0.025500*
1,1,0.029860,-0.025500,-0.025500*
1,1,0.029860,0.025500,-0.025500*
%
%AMD116*
4,1,8,0.059100,-0.038600,0.059100,0.038600,0.038600,0.059100,-0.038600,0.059100,-0.059100,0.038600,-0.059100,-0.038600,-0.038600,-0.059100,0.038600,-0.059100,0.059100,-0.038600,0.0*
1,1,0.041080,0.038600,-0.038600*
1,1,0.041080,0.038600,0.038600*
1,1,0.041080,-0.038600,0.038600*
1,1,0.041080,-0.038600,-0.038600*
%
%AMD117*
4,1,8,-0.017500,-0.039000,0.017500,-0.039000,0.039000,-0.017500,0.039000,0.017500,0.017500,0.039000,-0.017500,0.039000,-0.039000,0.017500,-0.039000,-0.017500,-0.017500,-0.039000,0.0*
1,1,0.043000,-0.017500,-0.017500*
1,1,0.043000,0.017500,-0.017500*
1,1,0.043000,0.017500,0.017500*
1,1,0.043000,-0.017500,0.017500*
%
%AMD121*
4,1,8,0.046600,0.010500,0.010500,0.046600,-0.010500,0.046600,-0.046600,0.010500,-0.046600,-0.010500,-0.010500,-0.046600,0.010500,-0.046600,0.046600,-0.010500,0.046600,0.010500,0.0*
1,1,0.029860,0.036100,0.000000*
1,1,0.029860,0.000000,0.036100*
1,1,0.029860,-0.036100,0.000000*
1,1,0.029860,0.000000,-0.036100*
%
%ADD80R,0.066000X0.028000*%
G04~CAMADD=81~8~0.0~0.0~788.7~591.8~116.8~0.0~15~0.0~0.0~0.0~0.0~0~0.0~0.0~0.0~0.0~0~0.0~0.0~0.0~270.0~592.0~788.0*
%ADD81D81*%
G04~CAMADD=82~8~0.0~0.0~454.0~828.0~77.4~0.0~15~0.0~0.0~0.0~0.0~0~0.0~0.0~0.0~0.0~0~0.0~0.0~0.0~90.0~828.0~454.0*
%ADD82D82*%
G04~CAMADD=83~8~0.0~0.0~2245.3~2993.4~94.1~0.0~15~0.0~0.0~0.0~0.0~0~0.0~0.0~0.0~0.0~0~0.0~0.0~0.0~90.0~2994.0~2246.0*
%ADD83D83*%
G04~CAMADD=84~8~0.0~0.0~828.0~1379.2~227.0~0.0~15~0.0~0.0~0.0~0.0~0~0.0~0.0~0.0~0.0~0~0.0~0.0~0.0~180.0~829.0~1380.0*
%ADD84D84*%
G04~CAMADD=85~8~0.0~0.0~355.6~888.7~108.9~0.0~15~0.0~0.0~0.0~0.0~0~0.0~0.0~0.0~0.0~0~0.0~0.0~0.0~180.0~356.0~889.0*
%ADD85D85*%
G04~CAMADD=86~8~0.0~0.0~355.6~611.5~108.9~0.0~15~0.0~0.0~0.0~0.0~0~0.0~0.0~0.0~0.0~0~0.0~0.0~0.0~180.0~356.0~612.0*
%ADD86D86*%
G04~CAMADD=87~8~0.0~0.0~316.2~591.8~75.4~0.0~15~0.0~0.0~0.0~0.0~0~0.0~0.0~0.0~0.0~0~0.0~0.0~0.0~90.0~592.0~316.0*
%ADD87D87*%
G04~CAMADD=88~8~0.0~0.0~473.7~980.0~99.1~0.0~15~0.0~0.0~0.0~0.0~0~0.0~0.0~0.0~0.0~0~0.0~0.0~0.0~0.0~473.7~980.0*
%ADD88D88*%
G04~CAMADD=89~8~0.0~0.0~2284.7~3032.8~95.1~0.0~15~0.0~0.0~0.0~0.0~0~0.0~0.0~0.0~0.0~0~0.0~0.0~0.0~0.0~2284.7~3032.8*
%ADD89D89*%
G04~CAMADD=90~8~0.0~0.0~316.2~828.0~75.4~0.0~15~0.0~0.0~0.0~0.0~0~0.0~0.0~0.0~0.0~0~0.0~0.0~0.0~90.0~828.0~316.0*
%ADD90D90*%
%ADD91O,0.082800X0.031620*%
%ADD92O,0.031620X0.094610*%
G04~CAMADD=93~8~0.0~0.0~749.3~572.1~113.8~0.0~15~0.0~0.0~0.0~0.0~0~0.0~0.0~0.0~0.0~0~0.0~0.0~0.0~0.0~749.3~572.1*
%ADD93D93*%
G04~CAMADD=94~8~0.0~0.0~3087.9~1761.1~124.1~0.0~15~0.0~0.0~0.0~0.0~0~0.0~0.0~0.0~0.0~0~0.0~0.0~0.0~180.0~3088.0~1761.0*
%ADD94D94*%
G04~CAMADD=95~8~0.0~0.0~733.5~1761.1~72.7~0.0~15~0.0~0.0~0.0~0.0~0~0.0~0.0~0.0~0.0~0~0.0~0.0~0.0~180.0~734.0~1762.0*
%ADD95D95*%
G04~CAMADD=96~8~0.0~0.0~1359.5~1280.0~160.0~0.0~15~0.0~0.0~0.0~0.0~0~0.0~0.0~0.0~0.0~0~0.0~0.0~0.0~0.0~1359.5~1280.0*
%ADD96D96*%
G04~CAMADD=97~8~0.0~0.0~2284.7~1430.0~107.5~0.0~15~0.0~0.0~0.0~0.0~0~0.0~0.0~0.0~0.0~0~0.0~0.0~0.0~270.0~1430.0~2284.0*
%ADD97D97*%
G04~CAMADD=98~8~0.0~0.0~1024.9~788.7~110.9~0.0~15~0.0~0.0~0.0~0.0~0~0.0~0.0~0.0~0.0~0~0.0~0.0~0.0~0.0~1024.9~788.7*
%ADD98D98*%
G04~CAMADD=99~8~0.0~0.0~670.6~662.7~127.4~0.0~15~0.0~0.0~0.0~0.0~0~0.0~0.0~0.0~0.0~0~0.0~0.0~0.0~0.0~670.6~662.7*
%ADD99D99*%
G04~CAMADD=100~8~0.0~0.0~670.6~591.8~116.8~0.0~15~0.0~0.0~0.0~0.0~0~0.0~0.0~0.0~0.0~0~0.0~0.0~0.0~180.0~671.0~592.0*
%ADD100D100*%
G04~CAMADD=101~8~0.0~0.0~670.6~591.8~116.8~0.0~15~0.0~0.0~0.0~0.0~0~0.0~0.0~0.0~0.0~0~0.0~0.0~0.0~270.0~592.0~670.0*
%ADD101D101*%
G04~CAMADD=102~8~0.0~0.0~316.2~591.8~75.4~0.0~15~0.0~0.0~0.0~0.0~0~0.0~0.0~0.0~0.0~0~0.0~0.0~0.0~0.0~316.2~591.8*
%ADD102D102*%
G04~CAMADD=103~8~0.0~0.0~749.3~572.1~113.8~0.0~15~0.0~0.0~0.0~0.0~0~0.0~0.0~0.0~0.0~0~0.0~0.0~0.0~270.0~572.0~750.0*
%ADD103D103*%
G04~CAMADD=104~8~0.0~0.0~1024.9~788.7~110.9~0.0~15~0.0~0.0~0.0~0.0~0~0.0~0.0~0.0~0.0~0~0.0~0.0~0.0~90.0~788.0~1024.0*
%ADD104D104*%
G04~CAMADD=105~8~0.0~0.0~788.7~591.8~116.8~0.0~15~0.0~0.0~0.0~0.0~0~0.0~0.0~0.0~0.0~0~0.0~0.0~0.0~0.0~788.7~591.8*
%ADD105D105*%
G04~CAMADD=106~8~0.0~0.0~985.5~985.5~130.6~0.0~15~0.0~0.0~0.0~0.0~0~0.0~0.0~0.0~0.0~0~0.0~0.0~0.0~270.0~986.0~986.0*
%ADD106D106*%
%ADD107O,0.126110X0.086740*%
%ADD108C,0.078000*%
%ADD109O,0.086740X0.126110*%
G04~CAMADD=110~8~0.0~0.0~1457.9~1457.9~177.8~0.0~15~0.0~0.0~0.0~0.0~0~0.0~0.0~0.0~0.0~0~0.0~0.0~0.0~270.0~1458.0~1458.0*
%ADD110D110*%
G04~CAMADD=111~8~0.0~0.0~670.6~670.6~128.6~0.0~15~0.0~0.0~0.0~0.0~0~0.0~0.0~0.0~0.0~0~0.0~0.0~0.0~90.0~670.0~670.0*
%ADD111D111*%
%ADD112C,0.067060*%
G04~CAMADD=113~8~0.0~0.0~808.3~808.3~149.3~0.0~15~0.0~0.0~0.0~0.0~0~0.0~0.0~0.0~0.0~0~0.0~0.0~0.0~0.0~808.3~808.3*
%ADD113D113*%
%ADD114C,0.080830*%
%ADD115C,0.118240*%
G04~CAMADD=116~8~0.0~0.0~1182.4~1182.4~205.4~0.0~15~0.0~0.0~0.0~0.0~0~0.0~0.0~0.0~0.0~0~0.0~0.0~0.0~270.0~1182.0~1182.0*
%ADD116D116*%
G04~CAMADD=117~8~0.0~0.0~780.0~780.0~215.0~0.0~15~0.0~0.0~0.0~0.0~0~0.0~0.0~0.0~0.0~0~0.0~0.0~0.0~180.0~780.0~780.0*
%ADD117D117*%
%ADD118R,0.067060X0.067060*%
%ADD119C,0.067060*%
%ADD120C,0.322000*%
G04~CAMADD=121~8~0.0~0.0~808.3~808.3~149.3~0.0~15~0.0~0.0~0.0~0.0~0~0.0~0.0~0.0~0.0~0~0.0~0.0~0.0~315.0~1018.0~1017.0*
%ADD121D121*%
%LNunisolder52_back-1*%
%LPD*%
G54D80*
X04169Y04274D03*
G54D81*
X05446Y04649D03*
X05332D03*
X06603Y04611D03*
X06489D03*
X06263Y04096D03*
X06149D03*
G54D82*
X06289Y03602D03*
Y03423D03*
X06486Y043D03*
Y04479D03*
Y04D03*
Y0418D03*
X06289Y03888D03*
Y03709D03*
G54D83*
X06535Y03512D03*
X06732Y04389D03*
Y0409D03*
X06535Y03799D03*
G54D84*
X04872Y03794D03*
G54D85*
X04872Y0389D03*
G54D86*
X04931Y03904D03*
X04813D03*
G54D87*
X05978Y04377D03*
X05895Y0434D03*
Y04415D03*
X05911Y04067D03*
Y04142D03*
X05828Y04105D03*
X05978Y04705D03*
X05895Y04668D03*
Y04743D03*
X05345Y04583D03*
Y04508D03*
X05427Y04546D03*
G54D88*
X05046Y04277D03*
X05136D03*
X05227D03*
G54D89*
X05136Y04038D03*
G54D90*
X06009Y03952D03*
G54D91*
X06009Y03902D03*
Y03852D03*
Y03802D03*
X06194Y03952D03*
Y03902D03*
Y03852D03*
Y03802D03*
X04397Y0418D03*
Y0413D03*
Y0408D03*
Y0403D03*
X04582Y0418D03*
Y0413D03*
Y0408D03*
Y0403D03*
G54D92*
X05534Y03318D03*
X05484D03*
X05434D03*
X05384D03*
X05334D03*
X05284D03*
X05234D03*
X05534Y03129D03*
X05484D03*
X05434D03*
X05384D03*
X05334D03*
X05284D03*
X05234D03*
G54D93*
X06074Y04154D03*
Y04014D03*
X05989Y04154D03*
Y04014D03*
X05903Y03871D03*
Y0401D03*
G54D94*
X06048Y03432D03*
Y03674D03*
G54D95*
X05842Y03432D03*
Y03674D03*
G54D96*
X04536Y03688D03*
Y03456D03*
G54D97*
X04829Y04553D03*
X04435D03*
G54D98*
X06423Y03188D03*
X06584D03*
X05415Y04183D03*
X05576D03*
Y04307D03*
X05415D03*
X0518Y04482D03*
X05018D03*
G54D99*
X04169Y0424D03*
Y04308D03*
G54D100*
X05603Y03185D03*
Y03259D03*
X04409Y03966D03*
Y03891D03*
X05818Y04729D03*
Y04654D03*
X0531Y04251D03*
Y04177D03*
X06259Y04641D03*
Y04716D03*
X06182Y04572D03*
Y04647D03*
X05456Y0449D03*
Y04415D03*
X06259Y04313D03*
Y04388D03*
X06182Y04245D03*
Y04319D03*
X05818Y04402D03*
Y04327D03*
X05152Y03113D03*
Y03187D03*
X04247Y04311D03*
Y04236D03*
X04325Y04311D03*
Y04236D03*
X05169Y03332D03*
Y03257D03*
X04806Y04141D03*
Y04066D03*
X04883Y04141D03*
Y04066D03*
X05969Y03023D03*
Y03098D03*
X04728Y03818D03*
Y03893D03*
G54D101*
X0575Y04003D03*
X05825D03*
X0575Y03926D03*
X05825D03*
X06051Y04807D03*
X05976D03*
X06031Y04479D03*
X05956D03*
X05812Y04476D03*
X05886D03*
X05831Y04803D03*
X05906D03*
X0589Y04604D03*
X05965D03*
X0589Y04276D03*
X05965D03*
X06187Y04012D03*
X06262D03*
X06528Y04694D03*
X06603D03*
X04497Y04245D03*
X04571D03*
X05368Y04404D03*
X05293D03*
X06623Y03282D03*
X06548D03*
G54D102*
X06118Y04647D03*
X06043D03*
X0608Y04564D03*
X047Y03348D03*
X04625D03*
X04662Y03265D03*
X0608Y04237D03*
X06043Y04319D03*
X06118D03*
G54D103*
X06187Y04397D03*
X06047D03*
X06187Y04725D03*
X06047D03*
X05064Y04374D03*
X05204D03*
X05444Y04737D03*
X05304D03*
X05304Y04822D03*
X05443D03*
X06121Y04801D03*
X0626D03*
X06128Y04475D03*
X06268D03*
G54D104*
X0469Y04211D03*
Y04049D03*
X06062Y03191D03*
Y0303D03*
G54D105*
X04645Y03893D03*
Y03779D03*
X04407Y03339D03*
Y03225D03*
G54D106*
X04992Y0479D03*
Y04613D03*
G54D107*
X04056Y03612D03*
X04273D03*
Y03447D03*
X04056D03*
X06486Y05954D03*
X06269D03*
X05767D03*
X05984D03*
G54D108*
X0461Y0287D03*
X0466Y0297D03*
X0471Y0287D03*
X0476Y0297D03*
X0481Y0287D03*
X0486Y0297D03*
X0586Y02851D03*
X0596D03*
G54D109*
X06421Y02814D03*
Y03031D03*
X06255D03*
Y02814D03*
G54D110*
X06771Y05391D03*
Y05657D03*
Y04805D03*
Y05071D03*
G54D111*
X05178Y04614D03*
G54D112*
X05178Y04692D03*
G54D113*
X05406Y0392D03*
X0499Y03498D03*
X05186Y03582D03*
G54D114*
X05603Y0392D03*
X04793Y03498D03*
X05382Y03582D03*
X04227Y03874D03*
G54D115*
X05499Y05825D03*
X06208Y05752D03*
X06444Y05751D03*
X05736Y05009D03*
X05972D03*
G54D116*
X05499Y05083D03*
X06208Y0501D03*
X06444Y0501D03*
X05736Y0575D03*
X05972D03*
G54D117*
X0606Y02851D03*
G54D118*
X05192Y02847D03*
G54D119*
X05192Y02947D03*
X05292Y02847D03*
Y02947D03*
X05392Y02847D03*
Y02947D03*
X05492Y02847D03*
Y02947D03*
X05592Y02847D03*
Y02947D03*
G54D120*
X04114Y02874D03*
X06751D03*
Y05925D03*
X04114Y04704D03*
G54D121*
X04088Y04013D03*
M02*