%FSTAX26Y26*%
%MOIN*%
%SFA1B1*%

%IPPOS*%
%ADD9500C,0.028000*%
%ADD9501C,0.035430*%
%LNunisolder52_oled-1*%
%LPD*%
G54D9500*
X-00486Y-00405D03*
X-00444Y-00323D03*
X-00448Y-00211D03*
X-0017815Y-0018996D03*
X-0002854Y-0018799D03*
X-0008465Y-00125D03*
X0004724Y-0013287D03*
X0018898Y-0010827D03*
X001811Y0002264D03*
X0033957Y0003248D03*
X0033268Y-0007185D03*
X0052067Y-0015354D03*
X00443Y-00262D03*
X0044488Y-0034843D03*
X0046544Y-00416D03*
X0026191Y-0041491D03*
X0016535Y-0041535D03*
X-0002756Y-0041634D03*
X-00177Y-00417D03*
X-00309Y-00416D03*
X-0032579Y0001969D03*
X-0026476Y-0000689D03*
X-00184Y0006D03*
X-001811Y0011909D03*
X-0017421Y0019882D03*
X-0004724Y0019783D03*
X-0001969Y0008169D03*
X000876Y0017618D03*
Y0030217D03*
X-0001969Y0036909D03*
X-00207Y0036D03*
X-00305Y00277D03*
X-0027657Y001565D03*
X-00503Y00211D03*
X-005Y00047D03*
X-00408Y00358D03*
X0022244Y0036909D03*
X00402Y00355D03*
X00508Y00213D03*
X0050984Y0011319D03*
X0024281Y0016298D03*
G54D9501*
X-00408Y-00136D03*
Y-00036D03*
Y00064D03*
Y00164D03*
Y00264D03*
X00409Y0026D03*
Y0016D03*
Y0006D03*
Y-0004D03*
Y-0014D03*
M02*