%FSTAX23Y23*%
%MOIN*%
%SFA1B1*%

%IPPOS*%
%AMD59*
4,1,8,0.068900,-0.055100,0.068900,0.055100,0.055100,0.068900,-0.055100,0.068900,-0.068900,0.055100,-0.068900,-0.055100,-0.055100,-0.068900,0.055100,-0.068900,0.068900,-0.055100,0.0*
1,1,0.027560,0.055100,-0.055100*
1,1,0.027560,0.055100,0.055100*
1,1,0.027560,-0.055100,0.055100*
1,1,0.027560,-0.055100,-0.055100*
%
%AMD60*
4,1,8,-0.029500,0.020700,-0.029500,-0.020700,-0.020700,-0.029500,0.020700,-0.029500,0.029500,-0.020700,0.029500,0.020700,0.020700,0.029500,-0.020700,0.029500,-0.029500,0.020700,0.0*
1,1,0.017720,-0.020700,0.020700*
1,1,0.017720,-0.020700,-0.020700*
1,1,0.017720,0.020700,-0.020700*
1,1,0.017720,0.020700,0.020700*
%
%AMD62*
4,1,8,0.025500,0.036400,-0.025500,0.036400,-0.036400,0.025500,-0.036400,-0.025500,-0.025500,-0.036400,0.025500,-0.036400,0.036400,-0.025500,0.036400,0.025500,0.025500,0.036400,0.0*
1,1,0.021860,0.025500,0.025500*
1,1,0.021860,-0.025500,0.025500*
1,1,0.021860,-0.025500,-0.025500*
1,1,0.021860,0.025500,-0.025500*
%
%AMD65*
4,1,8,0.055100,-0.038600,0.055100,0.038600,0.038600,0.055100,-0.038600,0.055100,-0.055100,0.038600,-0.055100,-0.038600,-0.038600,-0.055100,0.038600,-0.055100,0.055100,-0.038600,0.0*
1,1,0.033080,0.038600,-0.038600*
1,1,0.033080,0.038600,0.038600*
1,1,0.033080,-0.038600,0.038600*
1,1,0.033080,-0.038600,-0.038600*
%
%AMD66*
4,1,8,-0.017500,-0.035000,0.017500,-0.035000,0.035000,-0.017500,0.035000,0.017500,0.017500,0.035000,-0.017500,0.035000,-0.035000,0.017500,-0.035000,-0.017500,-0.017500,-0.035000,0.0*
1,1,0.035000,-0.017500,-0.017500*
1,1,0.035000,0.017500,-0.017500*
1,1,0.035000,0.017500,0.017500*
1,1,0.035000,-0.017500,0.017500*
%
%AMD70*
4,1,8,0.043800,0.007700,0.007700,0.043800,-0.007700,0.043800,-0.043800,0.007700,-0.043800,-0.007700,-0.007700,-0.043800,0.007700,-0.043800,0.043800,-0.007700,0.043800,0.007700,0.0*
1,1,0.021860,0.036100,0.000000*
1,1,0.021860,0.000000,0.036100*
1,1,0.021860,-0.036100,0.000000*
1,1,0.021860,0.000000,-0.036100*
%
%ADD36C,0.020000*%
%ADD39C,0.050000*%
%ADD40C,0.100000*%
%ADD41C,0.110240*%
%ADD45C,0.200000*%
%ADD49C,0.160000*%
%ADD50R,0.246060X0.167320*%
%ADD55O,0.118110X0.078740*%
%ADD56C,0.070000*%
%ADD57C,0.125200*%
%ADD58O,0.078740X0.118110*%
G04~CAMADD=59~8~0.0~0.0~1378.0~1378.0~137.8~0.0~15~0.0~0.0~0.0~0.0~0~0.0~0.0~0.0~0.0~0~0.0~0.0~0.0~270.0~1378.0~1378.0*
%ADD59D59*%
G04~CAMADD=60~8~0.0~0.0~590.6~590.6~88.6~0.0~15~0.0~0.0~0.0~0.0~0~0.0~0.0~0.0~0.0~0~0.0~0.0~0.0~90.0~590.0~590.0*
%ADD60D60*%
%ADD61C,0.059060*%
G04~CAMADD=62~8~0.0~0.0~728.4~728.4~109.3~0.0~15~0.0~0.0~0.0~0.0~0~0.0~0.0~0.0~0.0~0~0.0~0.0~0.0~0.0~728.4~728.4*
%ADD62D62*%
%ADD63C,0.072840*%
%ADD64C,0.110240*%
G04~CAMADD=65~8~0.0~0.0~1102.4~1102.4~165.4~0.0~15~0.0~0.0~0.0~0.0~0~0.0~0.0~0.0~0.0~0~0.0~0.0~0.0~270.0~1102.0~1102.0*
%ADD65D65*%
G04~CAMADD=66~8~0.0~0.0~700.0~700.0~175.0~0.0~15~0.0~0.0~0.0~0.0~0~0.0~0.0~0.0~0.0~0~0.0~0.0~0.0~180.0~700.0~700.0*
%ADD66D66*%
%ADD67R,0.059060X0.059060*%
%ADD68C,0.059060*%
%ADD69C,0.314000*%
G04~CAMADD=70~8~0.0~0.0~728.4~728.4~109.3~0.0~15~0.0~0.0~0.0~0.0~0~0.0~0.0~0.0~0.0~0~0.0~0.0~0.0~315.0~940.0~939.0*
%ADD70D70*%
%ADD71C,0.050000*%
%ADD72C,0.196850*%
%LNunisolder52_back-1*%
%LPD*%
G36*
X06889Y04124D02*
X06879Y04114D01*
X06692*
X06584Y04222*
Y04537*
X06604Y04557*
X06889*
Y04124*
G37*
G36*
X06781Y03316D02*
X06633Y03169D01*
Y03018*
X06619Y03006*
X06603Y02987*
X0659Y02967*
X06579Y02945*
X06571Y02922*
X06566Y02898*
X06565Y02874*
X06566Y02849*
X06571Y02825*
X06579Y02802*
X06586Y02787*
X06515Y02716*
X062*
X06161Y02755*
Y02874*
X0622Y02933*
X06222*
X06237Y02926*
X06254Y02922*
X06271Y02921*
X06289Y02922*
X06305Y02926*
X06321Y02933*
X06336Y02942*
X06349Y02953*
X06361Y02966*
X0637Y02981*
X06372Y02988*
X06377*
X06378Y02986*
X06386Y02976*
X06396Y02968*
X06408Y02963*
X06421Y02962*
X06434Y02963*
X06446Y02968*
X06456Y02976*
X06464Y02986*
X06469Y02998*
X0647Y03011*
Y03051*
X06469Y03064*
X06464Y03076*
X06456Y03085*
Y03142*
X06658Y03343*
X06669Y03357*
X06678Y03371*
X06702Y03395*
X06781Y03316*
G37*
G36*
X06619Y06057D02*
D01*
X06603Y06038*
X0659Y06018*
X06579Y05996*
X06574Y05983*
X06569Y05983*
X06563Y05993*
X06555Y06004*
X06544Y06012*
X06536Y06017*
X0653Y06021*
X06516Y06028*
X06501Y06033*
X06486Y06035*
X0647Y06033*
X06455Y06028*
X06441Y06021*
X06436Y06017*
X06427Y06012*
X06417Y06004*
X06408Y05993*
X06405Y05987*
X06388Y0597*
X06378Y05958*
X0637Y05944*
X06366Y05929*
X06364Y05913*
Y05913*
Y05785*
X06347Y05767*
X06343Y0577*
X06348Y05781*
X06353Y05797*
X06355Y05813*
Y05932*
X06357Y05941*
X06359Y05954*
X06357Y05968*
X06353Y05981*
X06347Y05993*
X06342Y05999*
X0634Y06002*
X0633Y06015*
X06317Y06025*
X06302Y06033*
X06286Y06038*
X06269Y0604*
X05984*
X05967Y06038*
X05951Y06033*
X05936Y06025*
X05923Y06015*
X05911Y06003*
X05901Y0599*
X05893Y05975*
X05888Y05959*
X05886Y05942*
Y0575*
X05886Y0575*
Y0572*
X05882Y05718*
X05821Y05778*
Y05789*
X0582Y05801*
X05815Y05812*
X05807Y05822*
X05798Y0583*
X05786Y05834*
X05774Y05836*
X05697*
X05685Y05834*
X05674Y0583*
X05664Y05822*
X05656Y05812*
X05652Y05801*
X0565Y05789*
Y05712*
X05652Y057*
X05656Y05688*
X05664Y05679*
X05674Y05671*
X05685Y05666*
X05697Y05665*
X05708*
X05814Y05558*
X05826Y05548*
X0584Y05541*
X05855Y05536*
X05871Y05535*
X06308*
X06324Y05536*
X06339Y05541*
X06353Y05548*
X06365Y05558*
X06481Y05674*
X06492Y0568*
X06505Y05691*
X06516Y05704*
X06523Y05719*
X06528Y05735*
X0653Y05751*
X06528Y05768*
X06525Y05779*
Y0588*
X06538Y05893*
X06544Y05896*
X06555Y05905*
X0656Y05912*
X06565Y0591*
X06566Y059*
X06571Y05876*
X06579Y05853*
X0659Y05831*
X06603Y05811*
X06619Y05793*
X06638Y05776*
X06658Y05763*
X0668Y05752*
X06703Y05744*
X06719Y05741*
X06719Y05741*
X06718Y05736*
X06716*
X06707Y05734*
X06699Y05729*
X06694Y05721*
X06693Y05716*
X06682Y05703*
X06673Y05689*
X06666Y05673*
X06662Y05656*
X06661Y05639*
Y05482*
X06298Y05119*
X06208*
X06191Y05118*
X06175Y05114*
X06159Y05107*
X06144Y05098*
X06131Y05087*
X0612Y05074*
X06111Y0506*
X06105Y05044*
X06101Y05027*
X061Y0501*
X06101Y04994*
X06105Y04977*
X06111Y04961*
X0612Y04947*
X06131Y04934*
X06144Y04923*
X06159Y04914*
X06175Y04907*
X06191Y04903*
X06208Y04902*
X06443*
X0646Y04903*
X06477Y04907*
X06493Y04914*
X06507Y04923*
X0652Y04934*
X06531Y04947*
X0654Y04961*
X06547Y04977*
X06551Y04994*
X06552Y0501*
X06551Y05027*
X06547Y05044*
X06542Y05056*
X06798Y05311*
X06826*
X06835Y05313*
X06843Y05318*
X06849Y05326*
X0685Y05336*
Y05365*
X06859Y05375*
X06868Y05389*
X06874Y05405*
X06878Y05422*
X06879Y05423*
X0688Y05429*
X06881Y05447*
Y05639*
X0688Y05656*
X06876Y05673*
X06869Y05689*
X0686Y05703*
X0685Y05716*
X06849Y05721*
X06843Y05729*
X06835Y05734*
X06826Y05736*
X06822*
X06821Y05737*
X06809Y05742*
X06809Y05747*
X06823Y05752*
X06845Y05763*
X06865Y05776*
X06884Y05793*
X06889Y05787*
Y04567*
X06604*
X066Y04566*
X06597Y04564*
X06577Y04544*
X06575Y04541*
X06574Y04537*
Y04222*
X06575Y04218*
X06577Y04215*
X06681Y04111*
Y03976*
X06407*
X06403Y03975*
X064Y03973*
X0638Y03953*
X06378Y0395*
X06377Y03946*
Y03631*
X06378Y03628*
X0638Y03624*
X0647Y03534*
Y03467*
X06193Y0319*
X06182Y03177*
X06173Y03163*
X06167Y03147*
X06163Y0313*
X06161Y03113*
Y03031*
X06163Y03014*
X06167Y02997*
X06173Y02981*
X06182Y02966*
X06193Y02953*
X06207Y02942*
X06208Y02941*
X06209Y02936*
X06154Y02881*
X06152Y02877*
X06151Y02874*
Y02755*
X06152Y02752*
X06154Y02748*
X06181Y02721*
X0618Y02716*
X04271*
X04246Y02741*
X04262Y0276*
X04276Y0278*
X04286Y02802*
X04294Y02825*
X04299Y02849*
X04301Y02874*
X04299Y02898*
X04294Y02922*
X04286Y02945*
X04276Y02967*
X04262Y02987*
X04246Y03006*
X04227Y03022*
X04207Y03035*
X04185Y03046*
X04162Y03054*
X04138Y03059*
X04114Y0306*
X04089Y03059*
X04065Y03054*
X04042Y03046*
X0402Y03035*
X04Y03022*
X03982Y03006*
X03956Y03031*
Y04547*
X03982Y04572*
X04Y04556*
X0402Y04542*
X04042Y04532*
X04065Y04524*
X04089Y04519*
X04114Y04517*
X04138Y04519*
X04162Y04524*
X04185Y04532*
X04207Y04542*
X04227Y04556*
X04246Y04572*
X04262Y0459*
X04276Y04611*
X04286Y04633*
X04294Y04656*
X04299Y0468*
X04301Y04704*
X04299Y04729*
X04294Y04753*
X04286Y04776*
X04276Y04798*
X04262Y04818*
X04246Y04836*
X04271Y04862*
X05265*
X05334Y04931*
Y05994*
X05423Y06082*
X06594*
X06619Y06057*
G37*
G36*
X06681Y03551D02*
X06653Y03523D01*
X06496*
X06387Y03631*
Y03946*
X06407Y03966*
X06681*
Y03551*
G37*
%LNunisolder52_back-2*%
%LPC*%
G36*
X04525Y03292D02*
X0452Y03292D01*
X04507Y03288*
X04494Y03281*
X04483Y03272*
X04474Y03261*
X04467Y03248*
X04463Y03235*
X04463Y0323*
X04525*
Y03292*
G37*
G36*
X05311Y03278D02*
X05301Y03277D01*
X05293Y03273*
X05286Y03267*
X0528Y0326*
X05277Y03252*
X05275Y03243*
X05277Y03234*
X0528Y03225*
X05286Y03218*
X05293Y03212*
X05301Y03209*
X05311Y03207*
X0532Y03209*
X05328Y03212*
X05335Y03217*
X05354*
X05363Y03209*
X05362Y03202*
X05363Y03193*
X05367Y03185*
X05372Y03177*
X0538Y03172*
X05388Y03168*
X05397Y03167*
X05406Y03168*
X05415Y03172*
X05422Y03177*
X05428Y03185*
X05431Y03193*
X05432Y03202*
X05431Y03211*
X05428Y0322*
X05422Y03227*
X05415Y03233*
X05406Y03236*
X05397Y03237*
X05392Y03237*
X05377Y03252*
X0537Y03256*
X05363Y03258*
X05342*
X05341Y0326*
X05335Y03267*
X05328Y03273*
X0532Y03277*
X05311Y03278*
G37*
G36*
X04925Y03292D02*
X0492Y03292D01*
X04907Y03288*
X04894Y03281*
X04883Y03272*
X04874Y03261*
X04867Y03248*
X04863Y03235*
X04863Y0323*
X04925*
Y03292*
G37*
G36*
X04545D02*
Y0323D01*
X04606*
X04606Y03235*
X04602Y03248*
X04595Y03261*
X04586Y03272*
X04575Y03281*
X04562Y03288*
X04549Y03292*
X04545Y03292*
G37*
G36*
X05006Y0321D02*
X04945D01*
Y03148*
X04949Y03149*
X04962Y03153*
X04975Y0316*
X04986Y03169*
X04995Y0318*
X05002Y03193*
X05006Y03206*
X05006Y0321*
G37*
G36*
X04525D02*
X04463D01*
X04463Y03206*
X04467Y03193*
X04474Y0318*
X04483Y03169*
X04494Y0316*
X04507Y03153*
X0452Y03149*
X04525Y03148*
Y0321*
G37*
G36*
X05412Y03079D02*
X05403Y03078D01*
X05394Y03074*
X05387Y03069*
X05381Y03061*
X05378Y03053*
X05377Y03044*
X05378Y03038*
X05317Y02978*
X05312Y02981*
X05302Y02985*
X05292Y02987*
X05282Y02985*
X05272Y02981*
X05264Y02975*
X05258Y02967*
X05254Y02957*
X05253Y02947*
X05254Y02937*
X05258Y02927*
X05264Y02919*
X05272Y02913*
X05282Y02909*
X05292Y02907*
X05302Y02909*
X05312Y02913*
X0532Y02919*
X05327Y02927*
X05329Y02932*
X05329Y02933*
X05348Y02952*
X05353Y02949*
X05353Y02947*
X05354Y02937*
X05358Y02927*
X05364Y02919*
X05372Y02913*
X05382Y02909*
X05392Y02907*
X05402Y02909*
X05412Y02913*
X0542Y02919*
X05427Y02927*
X05431Y02937*
X05432Y02947*
X05431Y02957*
X05427Y02967*
X0542Y02975*
X05412Y02981*
X05402Y02985*
X05392Y02987*
X0539Y02986*
X05388Y02991*
X05406Y03009*
X05412Y03009*
X05421Y0301*
X05429Y03013*
X05437Y03019*
X05442Y03026*
X05446Y03035*
X05447Y03044*
X05446Y03053*
X05442Y03061*
X05437Y03069*
X05429Y03074*
X05421Y03078*
X05412Y03079*
G37*
G36*
X04925Y0321D02*
X04863D01*
X04863Y03206*
X04867Y03193*
X04874Y0318*
X04883Y03169*
X04894Y0316*
X04907Y03153*
X0492Y03149*
X04925Y03148*
Y0321*
G37*
G36*
X04606D02*
X04545D01*
Y03148*
X04549Y03149*
X04562Y03153*
X04575Y0316*
X04586Y03169*
X04595Y0318*
X04602Y03193*
X04606Y03206*
X04606Y0321*
G37*
G36*
X04046Y03497D02*
X04037D01*
X04024Y03495*
X04012Y0349*
X04001Y03482*
X03993Y03472*
X03988Y0346*
X03988Y03457*
X04046*
Y03497*
G37*
G36*
X04838Y03488D02*
X04803D01*
Y03452*
X04805Y03452*
X04816Y03457*
X04826Y03464*
X04833Y03474*
X04838Y03485*
X04838Y03488*
G37*
G36*
X04076Y03497D02*
X04066D01*
Y03457*
X04124*
X04124Y0346*
X04119Y03472*
X04111Y03482*
X04101Y0349*
X04089Y03495*
X04076Y03497*
G37*
G36*
X04803Y03543D02*
Y03508D01*
X04838*
X04838Y0351*
X04833Y03521*
X04826Y03531*
X04816Y03538*
X04805Y03543*
X04803Y03543*
G37*
G36*
X04783D02*
X04781Y03543D01*
X04769Y03538*
X0476Y03531*
X04752Y03521*
X04748Y0351*
X04747Y03508*
X04783*
Y03543*
G37*
G36*
Y03488D02*
X04747D01*
X04748Y03485*
X04752Y03474*
X0476Y03464*
X04769Y03457*
X04781Y03452*
X04783Y03452*
Y03488*
G37*
G36*
X04046Y03437D02*
X03988D01*
X03988Y03434*
X03993Y03422*
X04001Y03412*
X04012Y03404*
X04024Y03399*
X04037Y03397*
X04046*
Y03437*
G37*
G36*
X04945Y03292D02*
Y0323D01*
X05006*
X05006Y03235*
X05002Y03248*
X04995Y03261*
X04986Y03272*
X04975Y03281*
X04962Y03288*
X04949Y03292*
X04945Y03292*
G37*
G36*
X04124Y03437D02*
X04066D01*
Y03397*
X04076*
X04089Y03399*
X04101Y03404*
X04111Y03412*
X04119Y03422*
X04124Y03434*
X04124Y03437*
G37*
G36*
X05015Y03544D02*
X04964D01*
X04956Y03543*
X04949Y03538*
X04945Y03531*
X04943Y03523*
Y03472*
X04945Y03464*
X04949Y03457*
X04956Y03452*
X04964Y03451*
X05015*
X05023Y03452*
X0503Y03457*
X05035Y03464*
X05036Y03472*
Y03523*
X05035Y03531*
X0503Y03538*
X05023Y03543*
X05015Y03544*
G37*
G36*
X04292Y03496D02*
X04253D01*
X0424Y03495*
X04228Y0349*
X04218Y03482*
X0421Y03472*
X04205Y0346*
X04203Y03447*
X04205Y03434*
X0421Y03422*
X04218Y03412*
X04228Y03404*
X0424Y03399*
X04253Y03397*
X04292*
X04305Y03399*
X04317Y03404*
X04328Y03412*
X04335Y03422*
X0434Y03434*
X04342Y03447*
X0434Y0346*
X04335Y03472*
X04328Y03482*
X04317Y0349*
X04305Y03495*
X04292Y03496*
G37*
G36*
X05592Y02887D02*
X05582Y02885D01*
X05572Y02881*
X05564Y02875*
X05558Y02867*
X05554Y02857*
X05553Y02847*
X05554Y02837*
X05558Y02827*
X05564Y02819*
X05572Y02813*
X05582Y02809*
X05592Y02807*
X05602Y02809*
X05612Y02813*
X0562Y02819*
X05627Y02827*
X05631Y02837*
X05632Y02847*
X05631Y02857*
X05627Y02867*
X0562Y02875*
X05612Y02881*
X05602Y02885*
X05592Y02887*
G37*
G36*
X05492D02*
X05482Y02885D01*
X05472Y02881*
X05464Y02875*
X05458Y02867*
X05454Y02857*
X05453Y02847*
X05454Y02837*
X05458Y02827*
X05464Y02819*
X05472Y02813*
X05482Y02809*
X05492Y02807*
X05502Y02809*
X05512Y02813*
X0552Y02819*
X05527Y02827*
X05531Y02837*
X05532Y02847*
X05531Y02857*
X05527Y02867*
X0552Y02875*
X05512Y02881*
X05502Y02885*
X05492Y02887*
G37*
G36*
X0461Y02916D02*
X04598Y02914D01*
X04587Y0291*
X04578Y02902*
X0457Y02893*
X04566Y02882*
X04564Y0287*
X04566Y02859*
X0457Y02848*
X04578Y02838*
X04587Y02831*
X04598Y02827*
X0461Y02825*
X04621Y02827*
X04632Y02831*
X04641Y02838*
X04649Y02848*
X04653Y02859*
X04655Y0287*
X04653Y02882*
X04649Y02893*
X04641Y02902*
X04632Y0291*
X04621Y02914*
X0461Y02916*
G37*
G36*
X047Y0286D02*
X04665D01*
X04666Y02859*
X0467Y02848*
X04677Y02838*
X04687Y02831*
X04698Y02827*
X047Y02826*
Y0286*
G37*
G36*
X0481Y02916D02*
X04798Y02914D01*
X04787Y0291*
X04778Y02902*
X0477Y02893*
X04766Y02882*
X04764Y0287*
X04766Y02859*
X0477Y02848*
X04778Y02838*
X04787Y02831*
X04798Y02827*
X0481Y02825*
X04821Y02827*
X04832Y02831*
X04841Y02838*
X04849Y02848*
X04853Y02859*
X04855Y0287*
X04853Y02882*
X04849Y02893*
X04841Y02902*
X04832Y0291*
X04821Y02914*
X0481Y02916*
G37*
G36*
X05392Y02887D02*
X05382Y02885D01*
X05372Y02881*
X05364Y02875*
X05358Y02867*
X05354Y02857*
X05353Y02847*
X05354Y02837*
X05358Y02827*
X05364Y02819*
X05372Y02813*
X05382Y02809*
X05392Y02807*
X05402Y02809*
X05412Y02813*
X0542Y02819*
X05427Y02827*
X05431Y02837*
X05432Y02847*
X05431Y02857*
X05427Y02867*
X0542Y02875*
X05412Y02881*
X05402Y02885*
X05392Y02887*
G37*
G36*
X0586Y02896D02*
X05848Y02895D01*
X05838Y0289*
X05828Y02883*
X05821Y02873*
X05816Y02863*
X05815Y02851*
X05816Y02839*
X05821Y02828*
X05828Y02819*
X05838Y02812*
X05848Y02807*
X0586Y02806*
X05872Y02807*
X05883Y02812*
X05892Y02819*
X05899Y02828*
X05904Y02839*
X05905Y02851*
X05904Y02863*
X05899Y02873*
X05892Y02883*
X05883Y0289*
X05872Y02895*
X0586Y02896*
G37*
G36*
X06421Y02884D02*
X06408Y02882D01*
X06396Y02877*
X06386Y02869*
X06378Y02859*
X06373Y02847*
X06371Y02834*
Y02795*
X06373Y02782*
X06378Y0277*
X06386Y0276*
X06396Y02752*
X06408Y02747*
X06421Y02745*
X06434Y02747*
X06446Y02752*
X06456Y0276*
X06464Y0277*
X06469Y02782*
X0647Y02795*
Y02834*
X06469Y02847*
X06464Y02859*
X06456Y02869*
X06446Y02877*
X06434Y02882*
X06421Y02884*
G37*
G36*
X0596Y02896D02*
X05948Y02895D01*
X05938Y0289*
X05928Y02883*
X05921Y02873*
X05916Y02863*
X05915Y02851*
X05916Y02839*
X05921Y02828*
X05928Y02819*
X05938Y02812*
X05948Y02807*
X0596Y02806*
X05972Y02807*
X05983Y02812*
X05992Y02819*
X05999Y02828*
X06004Y02839*
X06005Y02851*
X06004Y02863*
X05999Y02873*
X05992Y02883*
X05983Y0289*
X05972Y02895*
X0596Y02896*
G37*
G36*
X05292Y02887D02*
X05282Y02885D01*
X05272Y02881*
X05264Y02875*
X05258Y02867*
X05254Y02857*
X05253Y02847*
X05254Y02837*
X05258Y02827*
X05264Y02819*
X05272Y02813*
X05282Y02809*
X05292Y02807*
X05302Y02809*
X05312Y02813*
X0532Y02819*
X05327Y02827*
X05331Y02837*
X05332Y02847*
X05331Y02857*
X05327Y02867*
X0532Y02875*
X05312Y02881*
X05302Y02885*
X05292Y02887*
G37*
G36*
X06078Y02896D02*
X06043D01*
X06035Y02895*
X06029Y02892*
X06023Y02888*
X06019Y02882*
X06016Y02876*
X06015Y02868*
Y02833*
X06016Y02826*
X06019Y0282*
X06023Y02814*
X06029Y02809*
X06035Y02807*
X06043Y02806*
X06078*
X06085Y02807*
X06091Y02809*
X06097Y02814*
X06102Y0282*
X06104Y02826*
X06105Y02833*
Y02868*
X06104Y02876*
X06102Y02882*
X06097Y02888*
X06091Y02892*
X06085Y02895*
X06078Y02896*
G37*
G36*
X0475Y0296D02*
X04715D01*
X04716Y02959*
X0472Y02948*
X04727Y02938*
X04737Y02931*
X04748Y02927*
X0475Y02926*
Y0296*
G37*
G36*
X0486Y03016D02*
X04848Y03014D01*
X04837Y0301*
X04828Y03002*
X0482Y02993*
X04816Y02982*
X04814Y0297*
X04816Y02959*
X0482Y02948*
X04828Y02938*
X04837Y02931*
X04848Y02927*
X0486Y02925*
X04871Y02927*
X04882Y02931*
X04891Y02938*
X04899Y02948*
X04903Y02959*
X04905Y0297*
X04903Y02982*
X04899Y02993*
X04891Y03002*
X04882Y0301*
X04871Y03014*
X0486Y03016*
G37*
G36*
X04804Y0296D02*
X0477D01*
Y02926*
X04771Y02927*
X04782Y02931*
X04792Y02938*
X04799Y02948*
X04803Y02959*
X04804Y0296*
G37*
G36*
X0477Y03015D02*
Y0298D01*
X04804*
X04803Y02982*
X04799Y02993*
X04792Y03003*
X04782Y0301*
X04771Y03014*
X0477Y03015*
G37*
G36*
X0475D02*
X04748Y03014D01*
X04737Y0301*
X04727Y03003*
X0472Y02993*
X04716Y02982*
X04715Y0298*
X0475*
Y03015*
G37*
G36*
X0466Y03016D02*
X04648Y03014D01*
X04637Y0301*
X04628Y03002*
X0462Y02993*
X04616Y02982*
X04614Y0297*
X04616Y02959*
X0462Y02948*
X04628Y02938*
X04637Y02931*
X04648Y02927*
X0466Y02925*
X04671Y02927*
X04682Y02931*
X04691Y02938*
X04699Y02948*
X04703Y02959*
X04705Y0297*
X04703Y02982*
X04699Y02993*
X04691Y03002*
X04682Y0301*
X04671Y03014*
X0466Y03016*
G37*
G36*
X047Y02915D02*
X04698Y02914D01*
X04687Y0291*
X04677Y02903*
X0467Y02893*
X04666Y02882*
X04665Y0288*
X047*
Y02915*
G37*
G36*
X04754Y0286D02*
X0472D01*
Y02826*
X04721Y02827*
X04732Y02831*
X04742Y02838*
X04749Y02848*
X04753Y02859*
X04754Y0286*
G37*
G36*
X0472Y02915D02*
Y0288D01*
X04754*
X04753Y02882*
X04749Y02893*
X04742Y02903*
X04732Y0291*
X04721Y02914*
X0472Y02915*
G37*
G36*
X05592Y02987D02*
X05582Y02985D01*
X05572Y02981*
X05564Y02975*
X05558Y02967*
X05554Y02957*
X05553Y02947*
X05554Y02937*
X05558Y02927*
X05564Y02919*
X05572Y02913*
X05582Y02909*
X05592Y02907*
X05602Y02909*
X05612Y02913*
X0562Y02919*
X05627Y02927*
X05631Y02937*
X05632Y02947*
X05631Y02957*
X05627Y02967*
X0562Y02975*
X05612Y02981*
X05602Y02985*
X05592Y02987*
G37*
G36*
X05492D02*
X05482Y02985D01*
X05472Y02981*
X05464Y02975*
X05458Y02967*
X05454Y02957*
X05453Y02947*
X05454Y02937*
X05458Y02927*
X05464Y02919*
X05472Y02913*
X05482Y02909*
X05492Y02907*
X05502Y02909*
X05512Y02913*
X0552Y02919*
X05527Y02927*
X05531Y02937*
X05532Y02947*
X05531Y02957*
X05527Y02967*
X0552Y02975*
X05512Y02981*
X05502Y02985*
X05492Y02987*
G37*
G36*
X06269Y03834D02*
X0626Y03833D01*
X06252Y03829*
X06244Y03824*
X06239Y03816*
X06235Y03808*
X06234Y03799*
X06235Y0379*
X06239Y03781*
X06244Y03774*
X06249Y0377*
Y03562*
X0625Y03555*
X06255Y03549*
X06254Y03543*
X06255Y03534*
X06258Y03525*
X06264Y03518*
X06271Y03512*
X0628Y03509*
X06289Y03508*
X06298Y03509*
X06306Y03512*
X06314Y03518*
X06319Y03525*
X06323Y03534*
X06324Y03543*
X06323Y03552*
X06319Y0356*
X06314Y03568*
X06306Y03573*
X06298Y03577*
X06289Y03578*
Y0377*
X06294Y03774*
X063Y03781*
X06303Y0379*
X06304Y03799*
X06303Y03808*
X063Y03816*
X06294Y03824*
X06287Y03829*
X06278Y03833*
X06269Y03834*
G37*
G36*
X05962Y04999D02*
X05907D01*
X05908Y04996*
X05911Y04984*
X05918Y04972*
X05926Y04962*
X05936Y04954*
X05947Y04948*
X05959Y04944*
X05962Y04944*
Y04999*
G37*
G36*
X058D02*
X05746D01*
Y04944*
X05748Y04944*
X05761Y04948*
X05772Y04954*
X05782Y04962*
X0579Y04972*
X05796Y04984*
X058Y04996*
X058Y04999*
G37*
G36*
X06036D02*
X05982D01*
Y04944*
X05985Y04944*
X05997Y04948*
X06008Y04954*
X06018Y04962*
X06026Y04972*
X06032Y04984*
X06036Y04996*
X06036Y04999*
G37*
G36*
X05726Y05073D02*
X05723Y05073D01*
X05711Y05069*
X05699Y05063*
X05689Y05055*
X05681Y05045*
X05675Y05034*
X05672Y05021*
X05671Y05019*
X05726*
Y05073*
G37*
G36*
X05537Y05149D02*
X0546D01*
X05453Y05148*
X05447Y05145*
X05441Y05141*
X05437Y05135*
X05434Y05129*
X05433Y05122*
Y05045*
X05434Y05038*
X05437Y05031*
X05441Y05026*
X05447Y05022*
X05453Y05019*
X0546Y05018*
X05537*
X05544Y05019*
X0555Y05022*
X05556Y05026*
X0556Y05031*
X05563Y05038*
X05564Y05045*
Y05122*
X05563Y05129*
X0556Y05135*
X05556Y05141*
X0555Y05145*
X05544Y05148*
X05537Y05149*
G37*
G36*
X05168Y04731D02*
X05168Y04731D01*
X05158Y04727*
X0515Y04721*
X05143Y04712*
X0514Y04703*
X05139Y04702*
X05168*
Y04731*
G37*
G36*
X05217Y04682D02*
X05139D01*
X0514Y04682*
X05143Y04672*
X0515Y04664*
X05157Y04658*
X05157Y04656*
X05156Y04653*
X0515Y04652*
X05144Y04648*
X0514Y04642*
X05138Y04634*
Y04593*
X0514Y04586*
X05144Y0458*
X0515Y04575*
X05157Y04574*
X05199*
X05206Y04575*
X05212Y0458*
X05216Y04586*
X05218Y04593*
Y04634*
X05216Y04642*
X05212Y04648*
X05206Y04652*
X052Y04653*
X05199Y04656*
X05199Y04658*
X05206Y04664*
X05213Y04672*
X05217Y04682*
X05217Y04682*
G37*
G36*
X05188Y04731D02*
Y04702D01*
X05217*
X05217Y04703*
X05213Y04712*
X05206Y04721*
X05198Y04727*
X05188Y04731*
X05188Y04731*
G37*
G36*
X05726Y04999D02*
X05671D01*
X05672Y04996*
X05675Y04984*
X05681Y04972*
X05689Y04962*
X05699Y04954*
X05711Y04948*
X05723Y04944*
X05726Y04944*
Y04999*
G37*
G36*
X06771Y05171D02*
X06754Y05169D01*
X06737Y05165*
X06721Y05159*
X06706Y0515*
X06693Y05138*
X06682Y05125*
X06673Y0511*
X06666Y05094*
X06662Y05078*
X06661Y0506*
Y05056*
Y04839*
X06662Y04822*
X06666Y04805*
X06673Y04789*
X06682Y04774*
X06692Y04762*
Y0475*
X06694Y0474*
X06699Y04733*
X06707Y04727*
X06716Y04726*
X06826*
X06835Y04727*
X06843Y04733*
X06849Y0474*
X0685Y0475*
Y04762*
X0686Y04774*
X06869Y04789*
X06876Y04805*
X0688Y04822*
X06881Y04839*
Y05056*
Y0506*
X0688Y05078*
X06876Y05094*
X06869Y0511*
X0686Y05125*
X06849Y05138*
X06836Y0515*
X06821Y05159*
X06805Y05165*
X06788Y05169*
X06771Y05171*
G37*
G36*
X05746Y05073D02*
Y05019D01*
X058*
X058Y05021*
X05796Y05034*
X0579Y05045*
X05782Y05055*
X05772Y05063*
X05761Y05069*
X05748Y05073*
X05746Y05073*
G37*
G36*
X05757Y05944D02*
X05699D01*
X05699Y05941*
X05704Y05929*
X05712Y05919*
X05723Y05911*
X05735Y05906*
X05748Y05904*
X05757*
Y05944*
G37*
G36*
X05509Y0589D02*
Y05835D01*
X05563*
X05563Y05838*
X05559Y0585*
X05553Y05861*
X05545Y05871*
X05535Y05879*
X05524Y05886*
X05511Y05889*
X05509Y0589*
G37*
G36*
X05835Y05944D02*
X05777D01*
Y05904*
X05787*
X058Y05906*
X05812Y05911*
X05822Y05919*
X0583Y05929*
X05835Y05941*
X05835Y05944*
G37*
G36*
X05787Y06004D02*
X05777D01*
Y05964*
X05835*
X05835Y05967*
X0583Y05979*
X05822Y05989*
X05812Y05997*
X058Y06002*
X05787Y06004*
G37*
G36*
X05757D02*
X05748D01*
X05735Y06002*
X05723Y05997*
X05712Y05989*
X05704Y05979*
X05699Y05967*
X05699Y05964*
X05757*
Y06004*
G37*
G36*
X05982Y05073D02*
Y05019D01*
X06036*
X06036Y05021*
X06032Y05034*
X06026Y05045*
X06018Y05055*
X06008Y05063*
X05997Y05069*
X05985Y05073*
X05982Y05073*
G37*
G36*
X05962D02*
X05959Y05073D01*
X05947Y05069*
X05936Y05063*
X05926Y05055*
X05918Y05045*
X05911Y05034*
X05908Y05021*
X05907Y05019*
X05962*
Y05073*
G37*
G36*
X05489Y05815D02*
X05434D01*
X05434Y05812*
X05438Y058*
X05444Y05789*
X05452Y05779*
X05462Y05771*
X05473Y05765*
X05486Y05761*
X05489Y05761*
Y05815*
G37*
G36*
Y0589D02*
X05486Y05889D01*
X05473Y05886*
X05462Y05879*
X05452Y05871*
X05444Y05861*
X05438Y0585*
X05434Y05838*
X05434Y05835*
X05489*
Y0589*
G37*
G36*
X05563Y05815D02*
X05509D01*
Y05761*
X05511Y05761*
X05524Y05765*
X05535Y05771*
X05545Y05779*
X05553Y05789*
X05559Y058*
X05563Y05812*
X05563Y05815*
G37*
G36*
X06263Y04611D02*
X06254Y0461D01*
X06246Y04607*
X06238Y04601*
X06233Y04594*
X06229Y04585*
X06228Y04576*
X06229Y04567*
X06233Y04559*
X06238Y04551*
X06246Y04546*
X06254Y04542*
X06263Y04541*
X06272Y04542*
X0628Y04546*
X06411Y04414*
X06418Y0441*
X06426Y04408*
X06457*
X06461Y04404*
X06468Y04398*
X06477Y04395*
X06486Y04393*
X06495Y04395*
X06503Y04398*
X06511Y04404*
X06516Y04411*
X0652Y0442*
X06521Y04429*
X0652Y04438*
X06516Y04446*
X06511Y04453*
X06503Y04459*
X06495Y04463*
X06486Y04464*
X06477Y04463*
X06468Y04459*
X06461Y04453*
X06457Y04449*
X06434*
X06297Y04586*
X06294Y04594*
X06288Y04601*
X06281Y04607*
X06272Y0461*
X06263Y04611*
G37*
G36*
X05392Y03628D02*
Y03592D01*
X05428*
X05428Y03594*
X05423Y03606*
X05415Y03615*
X05406Y03623*
X05394Y03627*
X05392Y03628*
G37*
G36*
X05372D02*
X0537Y03627D01*
X05359Y03623*
X05349Y03615*
X05342Y03606*
X05337Y03594*
X05337Y03592*
X05372*
Y03628*
G37*
G36*
X04263Y03662D02*
X04253D01*
X0424Y0366*
X04228Y03655*
X04218Y03647*
X0421Y03637*
X04205Y03625*
X04205Y03622*
X04263*
Y03662*
G37*
G36*
X05648Y0391D02*
X05557D01*
X05558Y03908*
X05562Y03896*
X05568Y03889*
X05565Y03884*
X05518*
X05509Y03883*
X05501Y03879*
X05493Y03874*
X05414Y03794*
X0528*
X05271Y03793*
X05262Y0379*
X05255Y03784*
X05161Y0369*
X05155Y03682*
X05152Y03674*
X0515Y03665*
Y03626*
X05145Y03623*
X0514Y03616*
X05139Y03608*
Y03557*
X0514Y03549*
X05145Y03542*
X05152Y03537*
X0516Y03536*
X05211*
X05219Y03537*
X05226Y03542*
X05231Y03549*
X05232Y03557*
Y03608*
X05231Y03616*
X05226Y03623*
X05221Y03626*
Y0365*
X05295Y03724*
X05429*
X05438Y03725*
X05446Y03729*
X05453Y03734*
X05533Y03814*
X0557*
X05573Y03813*
X05734*
X05743Y03815*
X05752Y03818*
X05759Y03824*
X05775Y0384*
X05781Y03847*
X05784Y03856*
X05786Y03865*
X05784Y03874*
X05781Y03882*
X05775Y0389*
X05768Y03895*
X0576Y03899*
X0575Y039*
X05741Y03899*
X05733Y03895*
X05726Y0389*
X0572Y03884*
X0564*
X05637Y03889*
X05643Y03896*
X05648Y03908*
X05648Y0391*
G37*
G36*
X04292Y03662D02*
X04283D01*
Y03622*
X04341*
X04341Y03625*
X04336Y03637*
X04328Y03647*
X04317Y03655*
X04305Y0366*
X04292Y03662*
G37*
G36*
X05485Y03627D02*
X05476Y03626D01*
X05467Y03623*
X0546Y03617*
X05455Y0361*
X05451Y03601*
X0545Y03592*
X05451Y03583*
X05451Y03582*
X05429Y03559*
X05424Y03562*
X05428Y0357*
X05428Y03572*
X05392*
Y03537*
X05394Y03537*
X05402Y0354*
X05405Y03536*
X05113Y03244*
X05109Y03237*
X05107Y0323*
Y02912*
X05109Y02904*
X05113Y02897*
X05153Y02858*
Y02808*
X05232*
Y02886*
X05181*
X05148Y0292*
Y02945*
X05153Y02946*
X05153Y02944*
X05154Y02937*
X05158Y02927*
X05164Y02919*
X05172Y02913*
X05182Y02909*
X05192Y02907*
X05202Y02909*
X05212Y02913*
X0522Y02919*
X05227Y02927*
X05231Y02937*
X05232Y02947*
X05231Y02957*
X05227Y02967*
X0522Y02975*
X05212Y02981*
X05202Y02985*
X05192Y02987*
X05182Y02985*
X05172Y02981*
X05164Y02975*
X05158Y02967*
X05154Y02957*
X05153Y0295*
X05153Y02948*
X05148Y02949*
Y03221*
X05484Y03557*
X05485Y03557*
X05494Y03558*
X05503Y03562*
X0551Y03567*
X05515Y03575*
X05519Y03583*
X0552Y03592*
X05519Y03601*
X05515Y0361*
X0551Y03617*
X05503Y03623*
X05494Y03626*
X05485Y03627*
G37*
G36*
X05372Y03572D02*
X05337D01*
X05337Y0357*
X05342Y03559*
X05349Y03549*
X05359Y03542*
X0537Y03537*
X05372Y03537*
Y03572*
G37*
G36*
X04263Y03602D02*
X04205D01*
X04205Y03599*
X0421Y03587*
X04218Y03577*
X04228Y03569*
X0424Y03564*
X04253Y03562*
X04263*
Y03602*
G37*
G36*
X04076Y03662D02*
X04037D01*
X04024Y0366*
X04012Y03655*
X04001Y03647*
X03994Y03637*
X03989Y03625*
X03987Y03612*
X03989Y03599*
X03994Y03587*
X04001Y03577*
X04012Y03569*
X04024Y03564*
X04037Y03562*
X04076*
X04089Y03564*
X04101Y03569*
X04111Y03577*
X04119Y03587*
X04124Y03599*
X04126Y03612*
X04124Y03625*
X04119Y03637*
X04111Y03647*
X04101Y03655*
X04089Y0366*
X04076Y03662*
G37*
G36*
X04341Y03602D02*
X04283D01*
Y03562*
X04292*
X04305Y03564*
X04317Y03569*
X04328Y03577*
X04336Y03587*
X04341Y03599*
X04341Y03602*
G37*
G36*
X04227Y0386D02*
X04202Y03835D01*
X04204Y03833*
X04215Y03829*
X04227Y03827*
X04239Y03829*
X04251Y03833*
X04252Y03835*
X04227Y0386*
G37*
G36*
X04088Y0407D02*
X0408Y04069D01*
X04073Y04064*
X04037Y04028*
X04032Y04021*
X04031Y04013*
X04032Y04005*
X04037Y03998*
X04073Y03962*
X0408Y03957*
X04088Y03956*
X04096Y03957*
X04103Y03962*
X04139Y03998*
X04144Y04005*
X04145Y04013*
X04144Y04021*
X04139Y04028*
X04103Y04064*
X04096Y04069*
X04088Y0407*
G37*
G36*
X05613Y03965D02*
Y0393D01*
X05648*
X05648Y03932*
X05643Y03943*
X05636Y03953*
X05626Y0396*
X05615Y03965*
X05613Y03965*
G37*
G36*
X05621Y04164D02*
X04942D01*
Y0405*
X05621*
Y04164*
G37*
G36*
X0575Y04513D02*
X0574Y04512D01*
X05732Y04508*
X05725Y04503*
X05719Y04495*
X05716Y04487*
X05714Y04478*
X05716Y04469*
X05719Y0446*
X05725Y04453*
X05729Y04449*
Y0438*
X05729Y0438*
X05723Y04373*
X0572Y04364*
X05719Y04355*
X0572Y04346*
X05723Y04337*
X05729Y0433*
X05736Y04325*
X05745Y04321*
X05754Y0432*
X05763Y04321*
X05771Y04325*
X05779Y0433*
X05784Y04337*
X05788Y04346*
X05789Y04355*
X05788Y04364*
X05784Y04373*
X05779Y0438*
X05771Y04385*
X0577Y04386*
Y04449*
X05774Y04453*
X0578Y0446*
X05783Y04469*
X05785Y04478*
X05783Y04487*
X0578Y04495*
X05774Y04503*
X05767Y04508*
X05759Y04512*
X0575Y04513*
G37*
G36*
X06263Y04285D02*
X06254Y04283D01*
X06246Y0428*
X06238Y04274*
X06233Y04267*
X06229Y04259*
X06228Y0425*
X06229Y0424*
X06233Y04232*
X06238Y04225*
X06246Y04219*
X06254Y04216*
X06263Y04214*
X06272Y04216*
X06281Y04219*
X06288Y04225*
X06292Y04229*
X06351*
X06451Y04129*
X06451Y04124*
X06452Y04114*
X06455Y04106*
X06461Y04099*
X06468Y04093*
X06477Y0409*
X06486Y04088*
X06495Y0409*
X06503Y04093*
X06511Y04099*
X06516Y04106*
X0652Y04114*
X06521Y04124*
X0652Y04133*
X06516Y04141*
X06511Y04148*
X06503Y04154*
X06495Y04157*
X06486Y04159*
X0648Y04158*
X06374Y04264*
X06367Y04268*
X0636Y0427*
X06292*
X06288Y04274*
X06281Y0428*
X06272Y04283*
X06263Y04285*
G37*
G36*
X04266Y03899D02*
X04241Y03874D01*
X04266Y03849*
X04268Y0385*
X04272Y03862*
X04274Y03874*
X04272Y03886*
X04268Y03897*
X04266Y03899*
G37*
G36*
X04188D02*
X04187Y03897D01*
X04182Y03886*
X0418Y03874*
X04182Y03862*
X04187Y0385*
X04188Y03849*
X04213Y03874*
X04188Y03899*
G37*
G36*
X05431Y03966D02*
X05381D01*
X05372Y03965*
X05366Y0396*
X05361Y03953*
X05359Y03945*
Y03894*
X05361Y03886*
X05366Y03879*
X05372Y03875*
X05381Y03873*
X05431*
X0544Y03875*
X05446Y03879*
X05451Y03886*
X05453Y03894*
Y03945*
X05451Y03953*
X05446Y0396*
X0544Y03965*
X05431Y03966*
G37*
G36*
X05593Y03965D02*
X05591Y03965D01*
X05579Y0396*
X0557Y03953*
X05562Y03943*
X05558Y03932*
X05557Y0393*
X05593*
Y03965*
G37*
G36*
X04227Y03921D02*
X04215Y03919D01*
X04204Y03914*
X04202Y03913*
X04227Y03888*
X04252Y03913*
X04251Y03914*
X04239Y03919*
X04227Y03921*
G37*
%LNunisolder52_back-3*%
%LPD*%
G36*
X05413Y04131D02*
X05414Y04131D01*
X05415Y0413*
X05417Y0413*
X05418Y04129*
X05419Y04128*
X0542Y04127*
X05421Y04126*
X05422Y04125*
X05423Y04124*
X05424Y04124*
X05424Y04123*
X05425Y04122*
X05425Y04122*
X05425Y04121*
X05426Y04121*
X05424Y0413*
X05435*
X05445Y04084*
X05433*
X0543Y04098*
X05429Y041*
X05429Y04101*
X05429Y04103*
X05428Y04104*
X05428Y04105*
X05428Y04106*
X05427Y04107*
X05427Y04108*
X05427Y04109*
X05426Y0411*
X05426Y0411*
X05426Y04111*
X05426Y04111*
X05426Y04111*
X05426Y04111*
Y04111*
X05425Y04113*
X05424Y04114*
X05423Y04115*
X05422Y04116*
X05422Y04117*
X05421Y04117*
X05421Y04118*
X05421Y04118*
X05419Y04119*
X05418Y04119*
X05417Y0412*
X05416Y0412*
X05415Y0412*
X05415Y0412*
X05414*
X05413Y0412*
X05412Y0412*
X05411Y0412*
X05411Y0412*
X05411Y0412*
X0541Y0412*
X0541*
X05405Y0413*
X05407Y0413*
X05408Y04131*
X05409Y04131*
X0541Y04131*
X0541Y04131*
X05411Y04131*
X05411*
X05413Y04131*
G37*
G36*
X05279Y04149D02*
X05281Y04149D01*
X05283Y04149*
X05285Y04148*
X05286Y04148*
X05288Y04147*
X05289Y04147*
X0529Y04146*
X05291Y04146*
X05292Y04145*
X05293Y04145*
X05293Y04144*
X05294Y04144*
X05294Y04144*
X05294Y04144*
X05294Y04144*
X05295Y04143*
X05296Y04142*
X05297Y0414*
X05298Y04139*
X05298Y04138*
X05299Y04137*
X05299Y04136*
X05299Y04135*
X053Y04134*
X053Y04133*
X053Y04132*
X053Y04132*
X053Y04131*
Y04131*
Y0413*
Y0413*
X053Y04129*
X053Y04127*
X053Y04126*
X05299Y04124*
X05299Y04123*
X05299Y04123*
X05298Y04122*
X05298Y04122*
X05297Y04121*
X05297Y0412*
X05296Y04119*
X05295Y04118*
X05294Y04117*
X05293Y04117*
X05293Y04117*
X05293Y04116*
X05292Y04116*
X05291Y04116*
X0529Y04115*
X05288Y04114*
X05286Y04113*
X05284Y04112*
X05284Y04112*
X05283Y04112*
X05283Y04111*
X05282Y04111*
X05282Y04111*
X05282*
X05281Y0411*
X05279Y0411*
X05278Y04109*
X05277Y04109*
X05277Y04109*
X05276Y04108*
X05275Y04108*
X05275Y04107*
X05274Y04107*
X05274Y04107*
X05273Y04107*
X05273Y04106*
X05273Y04106*
X05272Y04106*
X05271Y04105*
X05271Y04104*
X05271Y04103*
X0527Y04103*
X0527Y04102*
Y04102*
Y04102*
X0527Y041*
X05271Y04099*
X05271Y04098*
X05272Y04097*
X05272Y04097*
X05273Y04096*
X05273Y04096*
X05273Y04096*
X05274Y04095*
X05275Y04095*
X05276Y04095*
X05278Y04094*
X05279Y04094*
X0528Y04094*
X05281*
X05282Y04094*
X05284*
X05285Y04094*
X05287Y04094*
X05288Y04094*
X05289Y04094*
X05289Y04095*
X0529Y04095*
X05291Y04095*
X05292Y04096*
X05292Y04096*
X05292Y04096*
X05293Y04096*
X05293Y04097*
X05293Y04097*
X05294Y04097*
X05294Y04098*
X05294Y04099*
X05295Y041*
X05295Y04102*
X05295Y04103*
X05295Y04104*
X05295Y04105*
Y04105*
Y04105*
Y04105*
X05308Y04104*
Y04102*
X05308Y041*
X05307Y04098*
X05307Y04096*
X05307Y04096*
X05306Y04095*
X05306Y04094*
X05306Y04094*
X05306Y04094*
X05306Y04093*
X05306Y04093*
Y04093*
X05305Y04092*
X05305Y04091*
X05303Y0409*
X05302Y04088*
X053Y04087*
X05299Y04087*
X05299Y04086*
X05298Y04086*
X05298Y04086*
X05297Y04086*
X05297Y04085*
X05297*
X05295Y04085*
X05292Y04084*
X0529Y04083*
X05288Y04083*
X05287Y04083*
X05286Y04083*
X05285Y04083*
X05284*
X05284Y04083*
X05283*
X05281Y04083*
X05279Y04083*
X05277Y04083*
X05275Y04084*
X05273Y04084*
X05272Y04085*
X0527Y04085*
X05269Y04086*
X05268Y04086*
X05267Y04087*
X05266Y04087*
X05265Y04088*
X05265Y04088*
X05264Y04088*
X05264Y04089*
X05264Y04089*
X05263Y0409*
X05262Y04091*
X05261Y04092*
X0526Y04093*
X0526Y04095*
X05259Y04096*
X05259Y04097*
X05258Y04098*
X05258Y04099*
X05258Y041*
X05258Y04101*
X05257Y04102*
Y04102*
X05257Y04103*
Y04103*
Y04103*
X05257Y04104*
X05258Y04106*
X05258Y04108*
X05259Y0411*
X0526Y04111*
X0526Y04112*
X05261Y04113*
X05261Y04113*
X05261Y04114*
X05262Y04114*
X05262Y04114*
X05262Y04114*
X05262Y04114*
X05263Y04115*
X05263Y04116*
X05264Y04116*
X05265Y04117*
X05268Y04118*
X0527Y04119*
X05271Y0412*
X05272Y04121*
X05273Y04121*
X05274Y04121*
X05275Y04122*
X05276Y04122*
X05276Y04122*
X05276Y04122*
X05277Y04123*
X05279Y04123*
X0528Y04124*
X05281Y04124*
X05281Y04125*
X05282Y04125*
X05283Y04126*
X05284Y04126*
X05284Y04126*
X05284Y04126*
X05285Y04127*
X05285Y04127*
X05286Y04127*
X05286Y04128*
X05287Y04129*
X05287Y04129*
X05287Y0413*
X05288Y04131*
X05288Y04131*
Y04132*
Y04132*
X05288Y04133*
X05287Y04134*
X05287Y04135*
X05286Y04135*
X05286Y04136*
X05286Y04136*
X05285Y04137*
X05285Y04137*
X05284Y04137*
X05283Y04138*
X05282Y04138*
X05281Y04138*
X05279Y04139*
X05278Y04139*
X05278*
X05276Y04139*
X05274Y04138*
X05272Y04138*
X05271Y04137*
X0527Y04137*
X0527Y04137*
X05269Y04136*
X05269Y04136*
X05268Y04135*
X05267Y04134*
X05267Y04133*
X05266Y04132*
X05266Y04131*
X05266Y0413*
Y0413*
X05266Y04129*
Y04129*
Y04129*
X05253Y0413*
X05253Y04131*
X05254Y04133*
X05254Y04134*
X05254Y04136*
X05255Y04137*
X05256Y04138*
X05256Y04139*
X05257Y0414*
X05257Y04141*
X05258Y04142*
X05259Y04142*
X05259Y04143*
X05259Y04143*
X0526Y04143*
X0526Y04144*
X0526Y04144*
X05261Y04145*
X05262Y04145*
X05264Y04146*
X05265Y04147*
X05267Y04147*
X05268Y04148*
X05271Y04148*
X05272Y04149*
X05274Y04149*
X05275Y04149*
X05276Y04149*
X05276Y04149*
X05277*
X05279Y04149*
G37*
G36*
X05224Y04131D02*
X05227Y04131D01*
X05228Y04131*
X0523Y0413*
X05232Y0413*
X05233Y04129*
X05235Y04128*
X05236Y04128*
X05237Y04127*
X05238Y04126*
X05239Y04125*
X0524Y04125*
X05241Y04124*
X05241Y04124*
X05241Y04124*
X05241Y04124*
X05243Y04122*
X05244Y04121*
X05245Y04119*
X05245Y04117*
X05246Y04115*
X05247Y04114*
X05247Y04112*
X05248Y0411*
X05248Y04109*
X05248Y04108*
X05248Y04106*
X05248Y04105*
Y04104*
X05249Y04104*
Y04103*
Y04103*
X05248Y04101*
X05248Y04099*
X05248Y04097*
X05247Y04096*
X05247Y04094*
X05247Y04094*
X05246Y04093*
X05246Y04093*
X05246Y04093*
X05246Y04093*
Y04093*
X05245Y04091*
X05244Y04089*
X05243Y04088*
X05241Y04087*
X0524Y04086*
X05239Y04086*
X05239Y04086*
X05239Y04085*
X05239Y04085*
X05239*
X05237Y04084*
X05235Y04084*
X05233Y04083*
X05231Y04083*
X05229Y04083*
X05229Y04083*
X05228*
X05228Y04083*
X05227*
X05225Y04083*
X05223Y04083*
X05221Y04083*
X05219Y04084*
X05217Y04085*
X05216Y04085*
X05214Y04086*
X05213Y04087*
X05212Y04088*
X05211Y04088*
X0521Y04089*
X05209Y0409*
X05208Y0409*
X05208Y0409*
X05208Y04091*
X05208Y04091*
X05206Y04092*
X05205Y04094*
X05204Y04096*
X05204Y04097*
X05203Y04099*
X05202Y04101*
X05202Y04102*
X05201Y04104*
X05201Y04105*
X05201Y04106*
X05201Y04107*
X05201Y04108*
Y04109*
X052Y0411*
Y0411*
Y0411*
X05201Y04112*
X05201Y04114*
X05201Y04115*
X05201Y04117*
X05202Y04118*
X05202Y04119*
X05203Y04121*
X05203Y04122*
X05204Y04123*
X05204Y04123*
X05205Y04124*
X05205Y04125*
X05206Y04125*
X05206Y04125*
X05206Y04126*
X05206Y04126*
X05207Y04127*
X05209Y04128*
X0521Y04128*
X05211Y04129*
X05213Y0413*
X05214Y0413*
X05215Y0413*
X05216Y04131*
X05218Y04131*
X05219Y04131*
X0522Y04131*
X05221Y04131*
X05221Y04131*
X05222*
X05224Y04131*
G37*
G36*
X05171Y04149D02*
X05173Y04149D01*
X05174Y04149*
X05175Y04148*
X05176Y04148*
X05177Y04148*
X05177Y04147*
X05177Y04147*
X05178Y04147*
X05179Y04146*
X0518Y04145*
X0518Y04145*
X05181Y04144*
X05181Y04143*
X05181Y04143*
X05182Y04143*
X05182Y04142*
X05182Y04142*
X05182Y04141*
X05183Y04139*
X05183Y04138*
X05183Y04137*
X05184Y04136*
X05184Y04136*
X05184Y04135*
X05184Y04135*
Y04135*
X05185Y0413*
X05192*
X05194Y04121*
X05187*
X05195Y04084*
X05182*
X05174Y04121*
X05165*
X05163Y0413*
X05172*
X05172Y04133*
X05171Y04135*
X05171Y04136*
X05171Y04137*
X05171Y04137*
X0517Y04138*
X0517Y04138*
X0517Y04138*
Y04138*
X0517Y04139*
X05169Y04139*
X05169Y04139*
X05168Y04139*
X05168Y0414*
X05167Y0414*
X05167*
X05166Y0414*
X05165Y04139*
X05163Y04139*
X05162Y04139*
X05161Y04139*
X0516Y04138*
X0516Y04138*
X0516Y04138*
X0516Y04138*
X0516*
X05157Y04147*
X0516Y04148*
X05162Y04148*
X05164Y04149*
X05166Y04149*
X05167Y04149*
X05167Y04149*
X05168*
X05168Y04149*
X05169*
X05171Y04149*
G37*
G36*
X05578D02*
X0558Y04149D01*
X05581Y04149*
X05583Y04148*
X05585Y04148*
X05586Y04147*
X05587Y04147*
X05588Y04146*
X05589Y04146*
X0559Y04145*
X05591Y04145*
X05592Y04144*
X05592Y04144*
X05592Y04144*
X05593Y04144*
X05593Y04144*
X05594Y04143*
X05595Y04142*
X05595Y0414*
X05596Y04139*
X05597Y04138*
X05597Y04137*
X05598Y04136*
X05598Y04135*
X05598Y04134*
X05598Y04133*
X05598Y04132*
X05598Y04132*
X05599Y04131*
Y04131*
Y0413*
Y0413*
X05598Y04129*
X05598Y04127*
X05598Y04126*
X05598Y04124*
X05597Y04123*
X05597Y04123*
X05597Y04122*
X05597Y04122*
X05596Y04121*
X05595Y0412*
X05594Y04119*
X05593Y04118*
X05592Y04117*
X05592Y04117*
X05591Y04117*
X05591Y04116*
X05591Y04116*
X0559Y04116*
X05588Y04115*
X05586Y04114*
X05584Y04113*
X05583Y04112*
X05582Y04112*
X05582Y04112*
X05581Y04111*
X05581Y04111*
X0558Y04111*
X0558*
X05579Y0411*
X05578Y0411*
X05577Y04109*
X05576Y04109*
X05575Y04109*
X05574Y04108*
X05573Y04108*
X05573Y04107*
X05572Y04107*
X05572Y04107*
X05571Y04107*
X05571Y04106*
X05571Y04106*
X0557Y04106*
X0557Y04105*
X05569Y04104*
X05569Y04103*
X05569Y04103*
X05569Y04102*
Y04102*
Y04102*
X05569Y041*
X05569Y04099*
X0557Y04098*
X0557Y04097*
X05571Y04097*
X05571Y04096*
X05571Y04096*
X05572Y04096*
X05572Y04095*
X05573Y04095*
X05574Y04095*
X05576Y04094*
X05577Y04094*
X05579Y04094*
X05579*
X0558Y04094*
X05582*
X05584Y04094*
X05585Y04094*
X05586Y04094*
X05587Y04094*
X05588Y04095*
X05589Y04095*
X05589Y04095*
X0559Y04096*
X0559Y04096*
X05591Y04096*
X05591Y04096*
X05592Y04097*
X05592Y04097*
X05592Y04097*
X05592Y04098*
X05593Y04099*
X05593Y041*
X05593Y04102*
X05594Y04103*
X05594Y04104*
X05594Y04105*
Y04105*
Y04105*
Y04105*
X05606Y04104*
Y04102*
X05606Y041*
X05606Y04098*
X05605Y04096*
X05605Y04096*
X05605Y04095*
X05605Y04094*
X05604Y04094*
X05604Y04094*
X05604Y04093*
X05604Y04093*
Y04093*
X05604Y04092*
X05603Y04091*
X05602Y0409*
X056Y04088*
X05599Y04087*
X05598Y04087*
X05597Y04086*
X05596Y04086*
X05596Y04086*
X05596Y04086*
X05596Y04085*
X05595*
X05593Y04085*
X05591Y04084*
X05588Y04083*
X05586Y04083*
X05585Y04083*
X05584Y04083*
X05583Y04083*
X05583*
X05582Y04083*
X05581*
X05579Y04083*
X05577Y04083*
X05575Y04083*
X05573Y04084*
X05572Y04084*
X0557Y04085*
X05569Y04085*
X05567Y04086*
X05566Y04086*
X05565Y04087*
X05564Y04087*
X05564Y04088*
X05563Y04088*
X05563Y04088*
X05563Y04089*
X05562Y04089*
X05561Y0409*
X0556Y04091*
X05559Y04092*
X05559Y04093*
X05558Y04095*
X05557Y04096*
X05557Y04097*
X05557Y04098*
X05556Y04099*
X05556Y041*
X05556Y04101*
X05556Y04102*
Y04102*
X05556Y04103*
Y04103*
Y04103*
X05556Y04104*
X05556Y04106*
X05556Y04108*
X05557Y0411*
X05558Y04111*
X05558Y04112*
X05559Y04113*
X05559Y04113*
X0556Y04114*
X0556Y04114*
X0556Y04114*
X0556Y04114*
X0556Y04114*
X05561Y04115*
X05562Y04116*
X05563Y04116*
X05564Y04117*
X05566Y04118*
X05568Y04119*
X0557Y0412*
X05571Y04121*
X05572Y04121*
X05573Y04121*
X05573Y04122*
X05574Y04122*
X05574Y04122*
X05574Y04122*
X05576Y04123*
X05577Y04123*
X05578Y04124*
X05579Y04124*
X0558Y04125*
X05581Y04125*
X05581Y04126*
X05582Y04126*
X05582Y04126*
X05583Y04126*
X05583Y04127*
X05584Y04127*
X05584Y04127*
X05585Y04128*
X05585Y04129*
X05585Y04129*
X05586Y0413*
X05586Y04131*
X05586Y04131*
Y04132*
Y04132*
X05586Y04133*
X05586Y04134*
X05585Y04135*
X05585Y04135*
X05584Y04136*
X05584Y04136*
X05584Y04137*
X05584Y04137*
X05583Y04137*
X05581Y04138*
X0558Y04138*
X05579Y04138*
X05578Y04139*
X05577Y04139*
X05576*
X05574Y04139*
X05572Y04138*
X05571Y04138*
X0557Y04137*
X05569Y04137*
X05568Y04137*
X05568Y04136*
X05567Y04136*
X05566Y04135*
X05566Y04134*
X05565Y04133*
X05565Y04132*
X05564Y04131*
X05564Y0413*
Y0413*
X05564Y04129*
Y04129*
Y04129*
X05551Y0413*
X05552Y04131*
X05552Y04133*
X05552Y04134*
X05553Y04136*
X05553Y04137*
X05554Y04138*
X05555Y04139*
X05555Y0414*
X05556Y04141*
X05556Y04142*
X05557Y04142*
X05557Y04143*
X05558Y04143*
X05558Y04143*
X05558Y04144*
X05558Y04144*
X0556Y04145*
X05561Y04145*
X05562Y04146*
X05564Y04147*
X05565Y04147*
X05567Y04148*
X05569Y04148*
X05571Y04149*
X05572Y04149*
X05573Y04149*
X05574Y04149*
X05575Y04149*
X05576*
X05578Y04149*
G37*
G36*
X04972Y04084D02*
X04959D01*
X04957Y04096*
X04969*
X04972Y04084*
G37*
G36*
X05111D02*
X05065D01*
X05063Y04094*
X05095*
X05084Y04148*
X05098*
X05111Y04084*
G37*
G36*
X05348D02*
X05349Y04082D01*
X05349Y04081*
X0535Y0408*
X05351Y04079*
X05352Y04078*
X05352Y04077*
X05353Y04077*
X05354Y04076*
X05355Y04076*
X05355Y04076*
X05356Y04075*
X05356Y04075*
X05357Y04075*
X05357Y04075*
X05357*
X05359Y04075*
X0536Y04075*
X0536Y04075*
X05361Y04076*
X05361Y04076*
X05362Y04076*
X05362*
X05363Y04066*
X05361Y04066*
X05359Y04066*
X05358Y04065*
X05356Y04065*
X05355Y04065*
X05355Y04065*
X05354*
X05352Y04065*
X05351Y04065*
X0535Y04066*
X05349Y04066*
X05348Y04066*
X05348Y04066*
X05347Y04066*
X05347Y04067*
X05346Y04067*
X05345Y04068*
X05344Y04068*
X05343Y04069*
X05343Y0407*
X05342Y0407*
X05342Y0407*
X05342Y04071*
X05342Y04071*
X05341Y04072*
X0534Y04073*
X05339Y04074*
X05339Y04076*
X05338Y04077*
X05337Y04078*
X05337Y04078*
X05337Y04079*
X05337Y04079*
X05336Y04079*
Y04079*
X05308Y0413*
X05321*
X05332Y0411*
X05334Y04107*
X05335Y04104*
X05336Y04101*
X05337Y041*
X05337Y04099*
X05338Y04098*
X05338Y04097*
X05338Y04096*
X05339Y04096*
X05339Y04095*
X05339Y04095*
X05339Y04095*
Y04095*
X05339Y04096*
X05339Y04097*
X05339Y04098*
X05339Y041*
X0534Y04102*
X0534Y04104*
X0534Y04105*
X0534Y04106*
X0534Y04106*
Y04107*
X0534Y04107*
Y04107*
X05343Y0413*
X05356*
X05348Y04084*
G37*
G36*
X0541D02*
X05397D01*
X05394Y04098*
X05386Y04105*
X05379Y04084*
X05367*
X05377Y04113*
X05358Y0413*
X05375*
X05391Y04114*
X05384Y04148*
X05396*
X0541Y04084*
G37*
G36*
X05471Y04131D02*
X05472Y04131D01*
X05473Y04131*
X05475Y04131*
X05476Y0413*
X05477Y0413*
X05478Y0413*
X05479Y04129*
X05479Y04129*
X0548Y04129*
X0548Y04128*
X05481Y04128*
X05481Y04128*
X05481Y04128*
X05481Y04128*
X05483Y04126*
X05485Y04125*
X05486Y04123*
X05487Y04122*
X05488Y0412*
X05488Y0412*
X05488Y04119*
X05488Y04119*
X05489Y04118*
X05489Y04118*
Y04118*
X05476Y04117*
X05476Y04118*
X05476Y04119*
X05475Y04119*
X05475Y0412*
X05474Y0412*
X05474Y04121*
X05474Y04121*
X05474Y04121*
X05473Y04121*
X05472Y04122*
X05471Y04122*
X0547Y04122*
X0547Y04122*
X05469Y04122*
X05468*
X05467Y04122*
X05466Y04122*
X05465Y04122*
X05465Y04122*
X05464Y04121*
X05464Y04121*
X05464Y04121*
X05464Y04121*
X05463Y0412*
X05463Y0412*
X05462Y04119*
X05462Y04119*
X05462Y04118*
X05462Y04118*
Y04118*
Y04118*
Y04117*
X05462Y04116*
X05462Y04115*
X05463Y04114*
X05463Y04114*
X05463Y04114*
Y04113*
X05463Y04113*
X05464Y04113*
X05465Y04113*
X05466Y04113*
X05468Y04112*
X0547Y04112*
X05472Y04112*
X05473Y04112*
X05473Y04112*
X05474Y04112*
X05474Y04112*
X05475*
X05477Y04111*
X05478Y04111*
X0548Y04111*
X05482Y04111*
X05483Y0411*
X05484Y0411*
X05485Y04109*
X05486Y04109*
X05487Y04108*
X05488Y04108*
X05488Y04108*
X05489Y04107*
X05489Y04107*
X05489Y04107*
X05489Y04107*
X0549Y04107*
X0549Y04106*
X05491Y04105*
X05491Y04104*
X05492Y04103*
X05493Y04102*
X05493Y041*
X05493Y04098*
X05493Y04098*
X05494Y04097*
X05494Y04097*
Y04096*
Y04096*
Y04096*
X05494Y04095*
X05493Y04094*
X05493Y04092*
X05492Y0409*
X05492Y04089*
X05491Y04088*
X0549Y04087*
X0549Y04087*
X0549Y04087*
X0549Y04087*
Y04086*
X05489Y04086*
X05488Y04085*
X05487Y04084*
X05485Y04084*
X05484Y04083*
X05482Y04083*
X05482Y04083*
X05481*
X05481Y04083*
X0548*
X05479Y04083*
X05478Y04083*
X05477Y04083*
X05475Y04084*
X05475Y04084*
X05474Y04084*
X05473Y04084*
X05473Y04084*
X05472Y04085*
X05471Y04086*
X0547Y04087*
X05469Y04087*
X05468Y04088*
X05467Y04088*
X05467Y04089*
X05467Y04089*
X05467Y04087*
X05466Y04086*
X05466Y04085*
X05466Y04085*
X05466Y04084*
X05466Y04084*
Y04084*
X05454*
X05454Y04085*
X05454Y04086*
X05454Y04088*
X05455Y04088*
X05455Y04089*
X05455Y0409*
Y0409*
Y0409*
Y04091*
X05455Y04092*
X05454Y04094*
X05454Y04096*
X05454Y04097*
X05453Y04099*
X05453Y041*
X05453Y04101*
X05453Y04101*
X05453Y04102*
X05453Y04102*
Y04102*
X05452Y04104*
X05452Y04105*
X05452Y04107*
X05452Y04108*
X05451Y04109*
X05451Y0411*
X05451Y04111*
X05451Y04112*
X05451Y04113*
X05451Y04113*
X0545Y04114*
X0545Y04114*
Y04114*
X0545Y04114*
Y04114*
X0545Y04116*
X0545Y04117*
Y04118*
X0545Y04118*
Y04119*
Y04119*
Y04119*
X0545Y0412*
X0545Y04121*
X05451Y04122*
X05451Y04124*
X05452Y04125*
X05453Y04126*
X05454Y04127*
X05454Y04128*
X05454Y04128*
X05454*
X05455Y04128*
X05456Y04129*
X05458Y0413*
X0546Y0413*
X05462Y04131*
X05463Y04131*
X05464Y04131*
X05465Y04131*
X05466*
X05467Y04131*
X05469*
X05471Y04131*
G37*
G36*
X05516Y04131D02*
X05517Y04131D01*
X05518Y04131*
X05519Y04131*
X0552Y0413*
X05521Y0413*
X05521Y0413*
X05521Y0413*
X05523Y04129*
X05524Y04129*
X05525Y04128*
X05526Y04127*
X05527Y04126*
X05528Y04126*
X05528Y04126*
X05528Y04125*
X05529*
X05528Y0413*
X05539*
X05553Y04066*
X0554*
X05535Y0409*
X05534Y04089*
X05533Y04088*
X05532Y04087*
X05531Y04086*
X0553Y04085*
X05529Y04085*
X05528Y04084*
X05527Y04084*
X05526Y04083*
X05525Y04083*
X05524Y04083*
X05523Y04083*
X05522*
X05522Y04083*
X05521*
X0552Y04083*
X05518Y04083*
X05517Y04083*
X05515Y04084*
X05514Y04084*
X05512Y04085*
X05511Y04086*
X0551Y04086*
X05509Y04087*
X05508Y04088*
X05508Y04088*
X05507Y04089*
X05506Y04089*
X05506Y0409*
X05506Y0409*
X05506Y0409*
X05504Y04092*
X05503Y04093*
X05502Y04095*
X05501Y04097*
X05501Y04099*
X055Y04101*
X05499Y04102*
X05499Y04104*
X05499Y04105*
X05499Y04107*
X05498Y04108*
X05498Y04109*
Y0411*
X05498Y04111*
Y04111*
Y04111*
X05498Y04113*
X05498Y04115*
X05499Y04116*
X05499Y04118*
X05499Y04119*
X055Y0412*
X055Y04122*
X055Y04123*
X05501Y04123*
X05501Y04124*
X05502Y04125*
X05502Y04125*
X05502Y04126*
X05502Y04126*
X05503Y04126*
X05503Y04126*
X05503Y04127*
X05504Y04128*
X05505Y04129*
X05506Y04129*
X05507Y0413*
X05508Y0413*
X0551Y04131*
X05512Y04131*
X05512Y04131*
X05513Y04131*
X05514Y04131*
X05514*
X05516Y04131*
G37*
G36*
X04988Y04124D02*
X04989Y04125D01*
X0499Y04126*
X04991Y04127*
X04992Y04128*
X04993Y04129*
X04994Y0413*
X04996Y0413*
X04997Y0413*
X04998Y04131*
X04999Y04131*
X05Y04131*
X05Y04131*
X05001*
X05002Y04131*
X05002*
X05004Y04131*
X05006Y04131*
X05007Y04131*
X05009Y0413*
X05011Y04129*
X05012Y04129*
X05013Y04128*
X05014Y04127*
X05015Y04126*
X05016Y04125*
X05017Y04124*
X05018Y04124*
X05018Y04123*
X05019Y04123*
X05019Y04122*
X05019Y04122*
X0502Y04121*
X05021Y04119*
X05022Y04117*
X05023Y04115*
X05023Y04114*
X05024Y04112*
X05024Y0411*
X05024Y04109*
X05025Y04107*
X05025Y04106*
X05025Y04105*
X05025Y04104*
Y04103*
X05025Y04103*
Y04102*
Y04102*
X05025Y041*
X05025Y04099*
X05025Y04097*
X05024Y04096*
X05024Y04094*
X05024Y04093*
X05023Y04092*
X05023Y04091*
X05023Y0409*
X05022Y0409*
X05022Y04089*
X05021Y04088*
X05021Y04088*
X05021Y04088*
X05021Y04088*
X05021Y04088*
X0502Y04087*
X05019Y04086*
X05018Y04085*
X05017Y04085*
X05016Y04084*
X05015Y04084*
X05013Y04083*
X05012Y04083*
X05011Y04083*
X0501Y04083*
X0501Y04083*
X05009*
X05008Y04083*
X05006Y04083*
X05005Y04083*
X05004Y04083*
X05003Y04084*
X05002Y04084*
X05002Y04084*
X05002Y04084*
X05Y04085*
X04999Y04085*
X04998Y04086*
X04997Y04087*
X04996Y04088*
X04995Y04088*
X04995Y04089*
X04995Y04089*
X04996Y04084*
X04984*
X0497Y04148*
X04983*
X04988Y04124*
G37*
G36*
X05044Y04138D02*
X05045Y0413D01*
X05052*
X05053Y04121*
X05047*
X05051Y04102*
X05052Y04101*
X05052Y041*
X05052Y04098*
X05052Y04097*
X05052Y04096*
X05052Y04096*
X05053Y04095*
X05053Y04094*
Y04094*
X05053Y04093*
X05053Y04093*
Y04092*
Y04092*
X05053Y04091*
X05052Y04089*
X05052Y04088*
X05051Y04087*
X05051Y04086*
X0505Y04086*
X0505Y04085*
X0505Y04085*
X05049Y04085*
X05049Y04084*
X05047Y04084*
X05046Y04083*
X05044Y04083*
X05043Y04083*
X05042Y04083*
X05041*
X05041Y04083*
X05039*
X05038Y04083*
X05037Y04083*
X05036Y04083*
X05035Y04083*
X05034Y04083*
X05034Y04083*
X05034*
X05032Y04093*
X05033Y04093*
X05034Y04092*
X05034Y04092*
X05035*
X05035Y04092*
X05037*
X05037Y04092*
X05038Y04093*
X05038Y04093*
X05039Y04093*
X05039Y04093*
X05039Y04093*
X05039*
X05039Y04093*
X0504Y04094*
X0504Y04095*
Y04095*
X0504Y04095*
Y04095*
Y04095*
Y04096*
X0504Y04096*
X0504Y04097*
X0504Y04098*
X05039Y04099*
X05039Y041*
X05039Y04101*
X05039Y04101*
Y04101*
X05039Y04101*
Y04101*
X05035Y04121*
X05027*
X05025Y0413*
X05033*
X0503Y04146*
X05044Y04138*
G37*
G36*
X05153D02*
X05155Y0413D01*
X05161*
X05163Y04121*
X05157*
X05161Y04102*
X05161Y04101*
X05161Y041*
X05161Y04098*
X05162Y04097*
X05162Y04096*
X05162Y04096*
X05162Y04095*
X05162Y04094*
Y04094*
X05162Y04093*
X05162Y04093*
Y04092*
Y04092*
X05162Y04091*
X05162Y04089*
X05161Y04088*
X05161Y04087*
X0516Y04086*
X0516Y04086*
X05159Y04085*
X05159Y04085*
X05159Y04085*
X05158Y04084*
X05156Y04084*
X05155Y04083*
X05153Y04083*
X05152Y04083*
X05151Y04083*
X05151*
X0515Y04083*
X05148*
X05147Y04083*
X05146Y04083*
X05145Y04083*
X05144Y04083*
X05144Y04083*
X05143Y04083*
X05143*
X05141Y04093*
X05142Y04093*
X05143Y04092*
X05144Y04092*
X05144*
X05145Y04092*
X05146*
X05147Y04092*
X05147Y04093*
X05148Y04093*
X05148Y04093*
X05148Y04093*
X05148Y04093*
X05148*
X05149Y04093*
X05149Y04094*
X05149Y04095*
Y04095*
X05149Y04095*
Y04095*
Y04095*
Y04096*
X05149Y04096*
X05149Y04097*
X05149Y04098*
X05149Y04099*
X05149Y041*
X05148Y04101*
X05148Y04101*
Y04101*
X05148Y04101*
Y04101*
X05144Y04121*
X05136*
X05135Y0413*
X05142*
X05139Y04146*
X05153Y04138*
G37*
%LNunisolder52_back-4*%
%LPC*%
G36*
X0552Y04122D02*
X05519D01*
X05518Y04122*
X05517Y04122*
X05515Y04121*
X05515Y04121*
X05514Y0412*
X05513Y0412*
X05513Y0412*
X05513Y0412*
X05512Y04118*
X05511Y04117*
X05511Y04116*
X05511Y04115*
X0551Y04113*
X0551Y04112*
Y04112*
Y04112*
Y04112*
Y04112*
X0551Y0411*
X05511Y04108*
X05511Y04106*
X05511Y04105*
X05512Y04104*
X05512Y04103*
X05512Y04103*
X05512Y04102*
X05512Y04102*
X05512Y04102*
Y04102*
X05513Y041*
X05514Y04098*
X05515Y04097*
X05515Y04096*
X05516Y04095*
X05517Y04095*
X05517Y04094*
X05517Y04094*
X05518Y04094*
X05519Y04093*
X0552Y04093*
X05521Y04092*
X05522Y04092*
X05523Y04092*
X05523*
X05524Y04092*
X05526Y04093*
X05527Y04093*
X05528Y04094*
X05528Y04094*
X05529Y04095*
X05529Y04095*
X05529Y04095*
X0553Y04096*
X05531Y04098*
X05531Y04099*
X05532Y041*
X05532Y04102*
X05532Y04103*
X05532Y04103*
Y04103*
Y04103*
Y04104*
X05532Y04105*
X05532Y04106*
X05531Y04108*
X05531Y04109*
X05531Y0411*
X05531Y04111*
X05531Y04112*
X0553Y04112*
X0553Y04112*
Y04112*
X0553Y04114*
X05529Y04116*
X05528Y04117*
X05527Y04118*
X05527Y04119*
X05526Y04119*
X05526Y0412*
X05526Y0412*
X05525Y04121*
X05523Y04121*
X05522Y04122*
X05521Y04122*
X0552Y04122*
X0552Y04122*
G37*
G36*
X05223Y04122D02*
X05222D01*
X05221Y04122*
X05219Y04122*
X05218Y04121*
X05217Y04121*
X05217Y0412*
X05216Y0412*
X05216Y04119*
X05216Y04119*
X05215Y04118*
X05214Y04117*
X05214Y04116*
X05213Y04115*
X05213Y04114*
X05213Y04113*
Y04112*
Y04112*
Y04112*
Y04112*
X05213Y0411*
X05213Y04109*
X05213Y04107*
X05214Y04106*
X05214Y04104*
X05214Y04103*
X05215Y04102*
X05215Y04101*
X05216Y041*
X05216Y04099*
X05217Y04098*
X05217Y04098*
X05217Y04097*
X05218Y04097*
X05218Y04097*
X05218Y04097*
X05219Y04096*
X05219Y04095*
X0522Y04095*
X05221Y04094*
X05222Y04093*
X05224Y04093*
X05225Y04093*
X05226Y04092*
X05226Y04092*
X05227*
X05228Y04092*
X05229Y04093*
X0523Y04093*
X05231Y04094*
X05232Y04094*
X05233Y04095*
X05233Y04095*
X05233Y04095*
X05234Y04096*
X05235Y04098*
X05235Y04099*
X05236Y041*
X05236Y04101*
X05236Y04102*
X05236Y04103*
Y04103*
Y04103*
Y04103*
X05236Y04105*
X05236Y04106*
X05235Y04108*
X05235Y04109*
X05235Y0411*
X05235Y04111*
X05234Y04112*
X05234Y04112*
X05234Y04112*
Y04112*
X05234Y04114*
X05233Y04115*
X05232Y04116*
X05231Y04118*
X05231Y04118*
X0523Y04119*
X0523Y04119*
X05229Y04119*
X05228Y0412*
X05227Y04121*
X05226Y04121*
X05225Y04122*
X05224Y04122*
X05223Y04122*
G37*
G36*
X05001Y04122D02*
X05D01*
X04999Y04122*
X04998Y04122*
X04997Y04121*
X04996Y04121*
X04995Y0412*
X04994Y04119*
X04994Y04119*
X04994Y04119*
X04993Y04118*
X04992Y04116*
X04992Y04115*
X04992Y04114*
X04991Y04113*
X04991Y04112*
Y04111*
Y04111*
Y04111*
Y04111*
X04991Y04109*
X04991Y04107*
X04992Y04106*
X04992Y04105*
X04992Y04103*
X04993Y04102*
X04993Y04102*
X04993Y04102*
X04993Y04102*
Y04102*
X04994Y041*
X04995Y04098*
X04995Y04097*
X04996Y04096*
X04997Y04095*
X04997Y04095*
X04998Y04094*
X04998Y04094*
X04999Y04094*
X05Y04093*
X05001Y04093*
X05002Y04092*
X05003Y04092*
X05004Y04092*
X05004*
X05006Y04092*
X05007Y04092*
X05008Y04093*
X05009Y04093*
X0501Y04094*
X0501Y04094*
X0501Y04095*
X05011Y04095*
X05011Y04096*
X05012Y04097*
X05012Y04099*
X05013Y041*
X05013Y04101*
X05013Y04102*
X05013Y04102*
Y04102*
Y04103*
Y04103*
X05013Y04104*
X05013Y04105*
X05012Y04108*
X05012Y0411*
X05012Y04111*
X05011Y04112*
X05011Y04113*
X05011Y04114*
X0501Y04114*
X0501Y04115*
X0501Y04115*
X0501Y04116*
X05009Y04116*
Y04116*
X05009Y04117*
X05008Y04118*
X05007Y04119*
X05007Y0412*
X05006Y0412*
X05005Y04121*
X05004Y04121*
X05004Y04121*
X05002Y04122*
X05002Y04122*
X05001Y04122*
X05001Y04122*
G37*
G36*
X05465Y04106D02*
X05464D01*
X05465Y04104*
X05465Y04102*
X05466Y04101*
X05466Y041*
X05466Y04099*
X05467Y04098*
X05467Y04097*
X05467Y04097*
X05467Y04097*
X05468Y04096*
X05468Y04095*
X05469Y04095*
X05469Y04094*
X0547Y04094*
X0547Y04094*
X05471Y04093*
X05471Y04093*
X05472Y04093*
X05473Y04093*
X05474Y04092*
X05474Y04092*
X05475Y04092*
X05476Y04092*
X05476*
X05477Y04092*
X05478Y04092*
X05479Y04093*
X05479Y04093*
X0548Y04093*
X0548Y04093*
X0548Y04093*
X0548Y04094*
X05481Y04094*
X05481Y04095*
X05481Y04095*
X05482Y04096*
X05482Y04097*
X05482Y04097*
Y04097*
Y04097*
X05482Y04098*
X05481Y04099*
X05481Y041*
X05481Y041*
X0548Y04101*
X0548Y04101*
X0548Y04101*
X0548Y04102*
X05479Y04102*
X05478Y04102*
X05478Y04103*
X05477Y04103*
X05475Y04104*
X05473Y04104*
X05471Y04104*
X0547Y04105*
X05469Y04105*
X05468Y04105*
X05468*
X05468Y04105*
X05467*
X05466Y04105*
X05466Y04105*
X05465Y04105*
X05465Y04105*
X05465*
X05465Y04106*
G37*
%LNunisolder52_back-5*%
%LPD*%
G54D36*
X05363Y03238D02*
X05398Y03203D01*
X05485Y03592D02*
X05488Y0359D01*
X05485Y03592D02*
X05485D01*
X05127Y0323D02*
X05488Y0359D01*
X05127Y02912D02*
X05192Y02847D01*
X05315Y02947D02*
X05412Y03044D01*
X05292Y02947D02*
X05315D01*
X0481Y0287D02*
X04814Y02866D01*
X06269Y03562D02*
Y03799D01*
Y03562D02*
X06289Y03543D01*
X0575Y04367D02*
X05758Y04358D01*
X0575Y04367D02*
Y04478D01*
X06278Y04576D02*
X06426Y04429D01*
X06486*
X05127Y02912D02*
Y0323D01*
X05309Y03238D02*
X05363D01*
X06263Y0425D02*
X0636D01*
X06486Y04124*
X06263Y04576D02*
X06278D01*
G54D39*
X05767Y05875D02*
Y06044D01*
X05677Y05954D02*
X05861D01*
X05972Y04914D02*
Y05098D01*
X05882Y05009D02*
X06066D01*
X05736Y04914D02*
Y05098D01*
X05646Y05009D02*
X0583D01*
X05409Y05825D02*
X05593D01*
X05499Y05731D02*
Y05915D01*
X05429Y03759D02*
X05518Y03849D01*
X0528Y03759D02*
X05429D01*
X05186Y03665D02*
X0528Y03759D01*
X05518Y03849D02*
X05573D01*
X05186Y03582D02*
Y03665D01*
X05734Y03849D02*
X0575Y03865D01*
X05573Y03849D02*
X05734D01*
X05573Y03849D02*
X05573Y03849D01*
G54D40*
X06444Y05913D02*
X06486Y05954D01*
X06444Y05751D02*
Y05913D01*
X06308Y05615D02*
X06444Y05751D01*
X05871Y05615D02*
X06308D01*
X05736Y0575D02*
X05871Y05615D01*
G54D41*
X05984Y05954D02*
X06269D01*
X05972Y0575D02*
Y05942D01*
X05984Y05954*
X06269Y05813D02*
Y05954D01*
X06208Y05752D02*
X06269Y05813D01*
X05972Y0575D02*
X06206D01*
G54D45*
X06271Y03113D02*
X0658Y03421D01*
X06271Y03031D02*
Y03113D01*
X0658Y03421D02*
Y03858D01*
X06791Y03319D02*
Y0435D01*
X06568Y03096D02*
X06791Y03319D01*
X06771Y05447D02*
Y05639D01*
Y04839D02*
Y05056D01*
Y0506*
G54D49*
X04535Y0322D02*
X04935D01*
G54D50*
X06117Y05851D03*
G54D55*
X04056Y03612D03*
X04273D03*
Y03447D03*
X04056D03*
X06486Y05954D03*
X06269D03*
X05767D03*
X05984D03*
G54D56*
X0461Y0287D03*
X0466Y0297D03*
X0471Y0287D03*
X0476Y0297D03*
X0481Y0287D03*
X0486Y0297D03*
X0586Y02851D03*
X0596D03*
G54D57*
X04535Y0322D03*
X04935D03*
G54D58*
X06421Y02814D03*
Y03031D03*
X06255D03*
Y02814D03*
G54D59*
X06771Y05391D03*
Y05657D03*
Y04805D03*
Y05071D03*
G54D60*
X05178Y04614D03*
G54D61*
X05178Y04692D03*
G54D62*
X05406Y0392D03*
X0499Y03498D03*
X05186Y03582D03*
G54D63*
X05603Y0392D03*
X04793Y03498D03*
X05382Y03582D03*
X04227Y03874D03*
G54D64*
X05499Y05825D03*
X06208Y05752D03*
X06444Y05751D03*
X05736Y05009D03*
X05972D03*
G54D65*
X05499Y05083D03*
X06208Y0501D03*
X06444Y0501D03*
X05736Y0575D03*
X05972D03*
G54D66*
X0606Y02851D03*
G54D67*
X05192Y02847D03*
G54D68*
X05192Y02947D03*
X05292Y02847D03*
Y02947D03*
X05392Y02847D03*
Y02947D03*
X05492Y02847D03*
Y02947D03*
X05592Y02847D03*
Y02947D03*
G54D69*
X04114Y02874D03*
X06751D03*
Y05925D03*
X04114Y04704D03*
G54D70*
X04088Y04013D03*
G54D71*
X0533Y04342D03*
X04529Y04421D03*
X0454Y04629D03*
X05366Y05044D03*
X06564Y06043D03*
X06377D03*
X0683Y05246D03*
X05679Y04744D03*
X0625Y04872D03*
X05856Y04881D03*
X05641Y05657D03*
X05665Y0598D03*
X05848Y0587D03*
X05905Y06055D03*
X05748D03*
X0559Y05905D03*
X05433D03*
X05511Y05984D03*
X0559Y06055D03*
X05433D03*
X05362Y05984D03*
Y05826D03*
Y05669D03*
Y05196D03*
Y05354D03*
Y05511D03*
X05433Y05275D03*
X05511Y05354D03*
X05433Y05433D03*
X05511Y05511D03*
X05433Y0559D03*
Y05748D03*
X0559D03*
X05511Y05669D03*
X0559Y0559D03*
X05748D03*
X05669Y05511D03*
Y05354D03*
X05826Y05511D03*
Y05354D03*
X05984Y05511D03*
Y05354D03*
X0559Y05433D03*
X05748D03*
X05905D03*
X06062D03*
X06614Y05669D03*
Y05511D03*
X06535Y05433D03*
Y0559D03*
X06456Y05511D03*
Y05354D03*
X06377Y05433D03*
X06299Y05511D03*
Y05354D03*
X0622Y05433D03*
X06141Y05354D03*
Y05511D03*
X04572Y03785D03*
X04796Y03822D03*
X05472Y03053D03*
X05397Y03202D03*
X05311Y03243D03*
X05578Y03788D03*
X05487Y0425D03*
X05098Y03382D03*
X05285Y0349D03*
X05485Y03592D03*
X0551Y03534D03*
X05623Y03788D03*
X05598Y04023D03*
X05774Y03578D03*
X0575Y03865D03*
X05401Y03433D03*
X05442Y02804D03*
X05551Y02896D03*
X05243Y02905D03*
X05343Y02896D03*
X05258Y03008D03*
X05351Y03053D03*
X05412Y03044D03*
X05765Y02806D03*
X06157Y032D03*
X06189Y0325D03*
X05846Y03307D03*
X05816Y03257D03*
X05846Y03208D03*
X05875Y03257D03*
X06072Y04089D03*
X05218Y04837D03*
X05806Y04152D03*
X05905Y03208D03*
X05964D03*
X05994Y03257D03*
X05068Y02992D03*
X05994Y03553D03*
X06053D03*
X06112D03*
X05232Y02757D03*
X06084Y0395D03*
X05659Y04881D03*
X04317Y03767D03*
X03996Y04507D03*
X04133Y04429D03*
X0433Y04822D03*
X04899Y04821D03*
X04527Y04822D03*
X04724D03*
X04303Y02749D03*
X06073Y02757D03*
X06003Y02919D03*
X05767Y02898D03*
X05885Y0308D03*
X05935Y03257D03*
X05592Y03641D03*
X05257Y03589D03*
X05167Y03502D03*
X05207Y03404D03*
X06855Y04684D03*
X06063Y04872D03*
X0524Y03237D03*
X04953Y02985D03*
X04907Y02878D03*
X05045Y02884D03*
X0508Y03127D03*
X05179Y03025D03*
X0574Y03423D03*
X05589Y03115D03*
X05658Y04435D03*
X05661Y04177D03*
X05754Y04355D03*
X05679Y04586D03*
X05905Y03307D03*
X05875Y03553D03*
X06486Y04124D03*
Y04429D03*
X06263Y04576D03*
X0685Y04527D03*
X06614D03*
X06673D03*
X06732D03*
X06791D03*
X06417Y03937D03*
X06653D03*
X06594D03*
X06535D03*
X06476D03*
X06417Y03661D03*
X06476D03*
X06535D03*
X06594D03*
X06653D03*
X0685Y04251D03*
X06791D03*
X06732D03*
X06673D03*
X06614D03*
X0442Y0379D03*
X04802Y03967D03*
X04763Y04007D03*
X04324Y04449D03*
X04232Y04527D03*
X04392Y04229D03*
X05063Y0353D03*
X05487Y04565D03*
X05114Y04581D03*
X05269Y04603D03*
X04902Y0275D03*
X04305Y03364D03*
X04524Y02749D03*
X04384Y0299D03*
X04015Y03129D03*
X04186Y03181D03*
X0404Y03314D03*
X03985Y03776D03*
X03986Y03982D03*
Y04188D03*
X04822Y04724D03*
X04625D03*
X04429D03*
X0433Y04625D03*
X04724D03*
X04625Y04527D03*
X04724Y04429D03*
X04645Y04311D03*
X04932Y0453D03*
X04844Y04206D03*
X049Y04361D03*
X0499Y03347D03*
X04787Y03342D03*
X04515Y03337D03*
X0433Y03937D03*
X0449Y04161D03*
X04806Y03231D03*
X0453Y02906D03*
X04678Y0317D03*
X04173Y03699D03*
X04487Y04316D03*
X04015Y0435D03*
X04327Y04148D03*
X04223Y04134D03*
X05267Y04503D03*
X04477Y03964D03*
X04543D03*
X04608D03*
X0449Y04094D03*
X04178Y04023D03*
X0488Y03444D03*
X04742Y03593D03*
X06259Y03307D03*
X062D03*
X06141D03*
X06082D03*
X06023D03*
X05964D03*
X05935Y03553D03*
X06269Y03799D03*
X06289Y03543D03*
X0575Y04478D03*
X05922Y03937D03*
X05828Y0386D03*
X06102Y03799D03*
X05773Y03723D03*
X05619Y03412D03*
X05788Y04593D03*
X05838Y04541D03*
X06195Y04476D03*
X05837Y0422D03*
X06344Y03808D03*
X0613Y03251D03*
X0611Y04402D03*
X06114Y0473D03*
X05856Y05039D03*
X04491Y04026D03*
X06692Y04685D03*
Y04606D03*
X06771Y04685D03*
Y04606D03*
X0685D03*
X04841Y04004D03*
X04921Y04005D03*
X04882Y03966D03*
X04566Y04316D03*
X04321Y04078D03*
X04819Y0369D03*
X04921Y03692D03*
X05377Y04736D03*
X05349Y04896D03*
X0548Y04898D03*
X04992Y04701D03*
X04926Y04261D03*
X06262Y04168D03*
X06263Y0425D03*
X05989Y04087D03*
X04716Y03756D03*
X06306Y03951D03*
G54D72*
X06371Y05039D02*
X06771Y05439D01*
X06208Y0501D02*
X06443D01*
M02*