%FSTAX26Y26*%
%MOIN*%
%SFA1B1*%

%IPPOS*%
%AMD30*
4,1,8,0.047300,-0.042500,0.047300,0.042500,0.034600,0.055200,-0.034600,0.055200,-0.047300,0.042500,-0.047300,-0.042500,-0.034600,-0.055200,0.034600,-0.055200,0.047300,-0.042500,0.0*
1,1,0.025320,0.034600,-0.042500*
1,1,0.025320,0.034600,0.042500*
1,1,0.025320,-0.034600,0.042500*
1,1,0.025320,-0.034600,-0.042500*
%
%AMD31*
4,1,8,-0.029600,0.021800,-0.029600,-0.021800,-0.017900,-0.033500,0.017900,-0.033500,0.029600,-0.021800,0.029600,0.021800,0.017900,0.033500,-0.017900,0.033500,-0.029600,0.021800,0.0*
1,1,0.023360,-0.017900,0.021800*
1,1,0.023360,-0.017900,-0.021800*
1,1,0.023360,0.017900,-0.021800*
1,1,0.023360,0.017900,0.021800*
%
%AMD33*
4,1,8,0.021800,0.029600,-0.021800,0.029600,-0.033500,0.017900,-0.033500,-0.017900,-0.021800,-0.029600,0.021800,-0.029600,0.033500,-0.017900,0.033500,0.017900,0.021800,0.029600,0.0*
1,1,0.023360,0.021800,0.017900*
1,1,0.023360,-0.021800,0.017900*
1,1,0.023360,-0.021800,-0.017900*
1,1,0.023360,0.021800,-0.017900*
%
%ADD18C,0.010000*%
G04~CAMADD=30~8~0.0~0.0~1103.6~946.1~126.6~0.0~15~0.0~0.0~0.0~0.0~0~0.0~0.0~0.0~0.0~0~0.0~0.0~0.0~270.0~947.0~1104.0*
%ADD30D30*%
G04~CAMADD=31~8~0.0~0.0~670.6~591.8~116.8~0.0~15~0.0~0.0~0.0~0.0~0~0.0~0.0~0.0~0.0~0~0.0~0.0~0.0~90.0~592.0~671.0*
%ADD31D31*%
%ADD32O,0.082800X0.031620*%
G04~CAMADD=33~8~0.0~0.0~670.6~591.8~116.8~0.0~15~0.0~0.0~0.0~0.0~0~0.0~0.0~0.0~0.0~0~0.0~0.0~0.0~0.0~670.6~591.8*
%ADD33D33*%
%ADD34C,0.068000*%
%ADD35R,0.067060X0.067060*%
%ADD36C,0.067060*%
%ADD37C,0.322960*%
%ADD38C,0.078000*%
%LNunisolder_sensor-1*%
%LPD*%
G54D18*
X0087798Y0219274D02*
X0089002Y0232983D01*
X0087802Y0219283D02*
X0102002Y0205083D01*
X0116502*
X0253598Y0205074D02*
X0268098D01*
X0282298Y0219274*
X0281094Y0232974D02*
X0282299Y0219265D01*
X0119Y03621D02*
X0124Y03623D01*
X02461D02*
X02511Y03621D01*
X02459Y03575D02*
X02461Y03623D01*
X02459Y03575D02*
X02461Y03623D01*
G54D30*
X0178Y0272342D03*
Y0252658D03*
G54D31*
X025626Y0312D03*
X026374D03*
X024574D03*
X023826D03*
X015324Y0267D03*
X014576D03*
X011674Y02865D03*
X010926D03*
G54D32*
X0153252Y02765D03*
Y02815D03*
Y02865D03*
Y02915D03*
X0134748Y02765D03*
Y02815D03*
Y02865D03*
Y02915D03*
G54D33*
X01635Y027624D03*
Y026876D03*
G54D34*
X0114173Y033752D03*
Y034752D03*
X0257874Y033252D03*
Y034252D03*
Y035252D03*
G54D35*
X01455Y02555D03*
G54D36*
X01355Y02555D03*
X01255D03*
X01155D03*
X01055D03*
G54D37*
X0236221Y0224472D03*
X0133858Y022441D03*
G54D38*
X02495Y02815D03*
X02595Y02765D03*
X02495Y02715D03*
X02595Y02665D03*
X02495Y02615D03*
X02595Y02565D03*
M02*