%FSTAX26Y26*%
%MOIN*%
%SFA1B1*%

%IPPOS*%
%ADD24C,0.007870*%
%ADD25C,0.010000*%
%ADD26C,0.008000*%
%LNunisolder52_oled-1*%
%LPD*%
G54D24*
X-0015118Y000723D02*
Y001619D01*
X-0004882Y000733D02*
Y001619D01*
X-0015118Y00343D02*
X-0004882D01*
X-0015118Y002367D02*
Y00343D01*
X-0004882Y002367D02*
Y00343D01*
X-0015118Y000725D02*
X-0013347Y0005479D01*
X-0006654D02*
X-0004882Y000725D01*
X-0013347Y0005479D02*
X-0006654D01*
X00359Y-0019D02*
X00459D01*
X00359D02*
Y0031D01*
X00459Y-0019D02*
Y0031D01*
X00359D02*
X00459D01*
X-00458Y-00186D02*
X-00358D01*
X-00458D02*
Y00314D01*
X-00358Y-00186D02*
Y00314D01*
X-00458D02*
X-00358D01*
X0008015Y0016372D02*
X0009585D01*
X0006044Y0003972D02*
X0011556D01*
X0007422Y0016965D02*
X0008015Y0016372D01*
X0006044Y0016965D02*
X0007422D01*
X0009585Y0016372D02*
X0010178Y0016965D01*
X0011556*
G54D25*
X00031Y0016872D02*
X00032D01*
G54D26*
X0033549Y0003338D02*
X0034215Y0004005D01*
Y0005337*
X0033549Y0006004*
X0030883*
X0030217Y0005337*
Y0004005*
X0030883Y0003338*
X0034215Y-0000661D02*
X0033549Y0000672D01*
X0032216Y0002005*
X0030883*
X0030217Y0001339*
Y0000006*
X0030883Y-0000661*
X0031549*
X0032216Y0000006*
Y0002005*
X0033549Y-0001994D02*
X0034215Y-000266D01*
Y-0003993*
X0033549Y-0004659*
X0032882*
X0032216Y-0003993*
X0031549Y-0004659*
X0030883*
X0030217Y-0003993*
Y-000266*
X0030883Y-0001994*
X0031549*
X0032216Y-000266*
X0032882Y-0001994*
X0033549*
X0032216Y-000266D02*
Y-0003993D01*
X-0048932Y00057D02*
X-0048265Y0006367D01*
Y00077*
X-0048932Y0008366*
X-0051597*
X-0052264Y00077*
Y0006367*
X-0051597Y00057*
X-0048265Y0004367D02*
Y0001702D01*
X-0048932*
X-0051597Y0004367*
X-0052264*
Y-0001631D02*
X-0048265D01*
X-0050264Y0000369*
Y-0002297*
X0052446Y-0014182D02*
X0053113Y-0013515D01*
Y-0012182*
X0052446Y-0011516*
X0049781*
X0049114Y-0012182*
Y-0013515*
X0049781Y-0014182*
X0053113Y-0015515D02*
Y-001818D01*
X0052446*
X0049781Y-0015515*
X0049114*
X0052446Y-0019513D02*
X0053113Y-002018D01*
Y-0021512*
X0052446Y-0022179*
X005178*
X0051113Y-0021512*
Y-0020846*
Y-0021512*
X0050447Y-0022179*
X0049781*
X0049114Y-0021512*
Y-002018*
X0049781Y-0019513*
X-0043321Y-0022941D02*
X-0042655Y-0022275D01*
Y-0020942*
X-0043321Y-0020276*
X-0045987*
X-0046654Y-0020942*
Y-0022275*
X-0045987Y-0022941*
X-0042655Y-0024274D02*
Y-002694D01*
X-0043321*
X-0045987Y-0024274*
X-0046654*
X-0042655Y-0028273D02*
Y-0030939D01*
X-0043321*
X-0045987Y-0028273*
X-0046654*
X0047736Y0026181D02*
Y003018D01*
X0049736*
X0050402Y0029513*
Y0028181*
X0049736Y0027514*
X0047736*
X0051735Y0026181D02*
X0053068D01*
X0052401*
Y003018*
X0051735Y0029513*
X-0054232Y0027362D02*
Y0031361D01*
X-0052233*
X-0051566Y0030694*
Y0029362*
X-0052233Y0028695*
X-0054232*
X-0047568Y0027362D02*
X-0050234D01*
X-0047568Y0030028*
Y0030694*
X-0048234Y0031361*
X-0049567*
X-0050234Y0030694*
X0016929Y0006361D02*
Y0003029D01*
X0017596Y0002362*
X0018928*
X0019595Y0003029*
Y0006361*
X0020928Y0002362D02*
X0022261D01*
X0021594*
Y0006361*
X0020928Y0005694*
X002426Y0003029D02*
X0024927Y0002362D01*
X0026259*
X0026926Y0003029*
Y0005694*
X0026259Y0006361*
X0024927*
X002426Y0005694*
Y0005028*
X0024927Y0004361*
X0026926*
X0021161Y-0012697D02*
Y-0008698D01*
X0023161*
X0023827Y-0009365*
Y-0010697*
X0023161Y-0011364*
X0021161*
X0022494D02*
X0023827Y-0012697D01*
X0027826Y-0008698D02*
X0026493Y-0009365D01*
X002516Y-0010697*
Y-001203*
X0025826Y-0012697*
X0027159*
X0027826Y-001203*
Y-0011364*
X0027159Y-0010697*
X002516*
X0029159Y-0009365D02*
X0029825Y-0008698D01*
X0031158*
X0031825Y-0009365*
Y-0010031*
X0031158Y-0010697*
X0031825Y-0011364*
Y-001203*
X0031158Y-0012697*
X0029825*
X0029159Y-001203*
Y-0011364*
X0029825Y-0010697*
X0029159Y-0010031*
Y-0009365*
X0029825Y-0010697D02*
X0031158D01*
X-0025197Y0007874D02*
X-0021198D01*
Y0005875*
X-0021865Y0005208*
X-0023198*
X-0023864Y0005875*
Y0007874*
Y0006541D02*
X-0025197Y0005208D01*
X-0021198Y0001209D02*
X-0021865Y0002542D01*
X-0023198Y0003875*
X-002453*
X-0025197Y0003209*
Y0001876*
X-002453Y0001209*
X-0023864*
X-0023198Y0001876*
Y0003875*
X-0021198Y-0000123D02*
Y-0002789D01*
X-0021865*
X-002453Y-0000123*
X-0025197*
X-0003347Y-0015059D02*
Y-001106D01*
X-0001347*
X-0000681Y-0011727*
Y-001306*
X-0001347Y-0013726*
X-0003347*
X-0002014D02*
X-0000681Y-0015059D01*
X0003318Y-001106D02*
X0001985Y-0011727D01*
X0000652Y-001306*
Y-0014393*
X0001319Y-0015059*
X0002652*
X0003318Y-0014393*
Y-0013726*
X0002652Y-001306*
X0000652*
X0007317Y-001106D02*
X0005984Y-0011727D01*
X0004651Y-001306*
Y-0014393*
X0005317Y-0015059*
X000665*
X0007317Y-0014393*
Y-0013726*
X000665Y-001306*
X0004651*
X-0038101Y-0040001D02*
X-0039434D01*
X-00401Y-0040668*
Y-0043334*
X-0039434Y-0044*
X-0038101*
X-0037434Y-0043334*
Y-0040668*
X-0038101Y-0040001*
X-0036101D02*
Y-0044D01*
X-0033435*
X-0029437Y-0040001D02*
X-0032103D01*
Y-0044*
X-0029437*
X-0032103Y-0042001D02*
X-003077D01*
X-0028104Y-0040001D02*
Y-0044D01*
X-0026105*
X-0025438Y-0043334*
Y-0040668*
X-0026105Y-0040001*
X-0028104*
X-0024105Y-0044D02*
X-0022772D01*
X-0023439*
Y-0040001*
X-0024105Y-0040668*
X000561Y0029196D02*
Y0025197D01*
X0008276*
X0009609Y0028529D02*
X0010275Y0029196D01*
X0011608*
X0012275Y0028529*
Y0027863*
X0011608Y0027196*
X0010942*
X0011608*
X0012275Y002653*
Y0025863*
X0011608Y0025197*
X0010275*
X0009609Y0025863*
X-0016769Y0034252D02*
X-0020768D01*
Y0032253*
X-0020101Y0031586*
X-0017436*
X-0016769Y0032253*
Y0034252*
X-0020768Y0027588D02*
Y0030253D01*
X-0018102Y0027588*
X-0017436*
X-0016769Y0028254*
Y0029587*
X-0017436Y0030253*
X-0020768Y0023589D02*
Y0026255D01*
X-0018102Y0023589*
X-0017436*
X-0016769Y0024255*
Y0025588*
X-0017436Y0026255*
X-0029739Y0005208D02*
X-0029072Y0005875D01*
Y0007208*
X-0029739Y0007874*
X-0032404*
X-0033071Y0007208*
Y0005875*
X-0032404Y0005208*
X-0029072Y0003875D02*
Y0001209D01*
X-0029739*
X-0032404Y0003875*
X-0033071*
X-0029072Y-0002789D02*
Y-0000123D01*
X-0031071*
X-0030405Y-0001456*
Y-0002123*
X-0031071Y-0002789*
X-0032404*
X-0033071Y-0002123*
Y-000079*
X-0032404Y-0000123*
X0038493Y0036206D02*
X0037826Y0036873D01*
X0036493*
X0035827Y0036206*
Y003354*
X0036493Y0032874*
X0037826*
X0038493Y003354*
X0042491Y0036873D02*
X0041158Y0036206D01*
X0039825Y0034873*
Y003354*
X0040492Y0032874*
X0041825*
X0042491Y003354*
Y0034207*
X0041825Y0034873*
X0039825*
X0043824Y003354D02*
X0044491Y0032874D01*
X0045823*
X004649Y003354*
Y0036206*
X0045823Y0036873*
X0044491*
X0043824Y0036206*
Y003554*
X0044491Y0034873*
X004649*
X0023805Y0016133D02*
X0024471Y00168D01*
Y0018133*
X0023805Y0018799*
X0021139*
X0020472Y0018133*
Y00168*
X0021139Y0016133*
X0024471Y0012135D02*
X0023805Y0013468D01*
X0022472Y00148*
X0021139*
X0020472Y0014134*
Y0012801*
X0021139Y0012135*
X0021805*
X0022472Y0012801*
Y00148*
X0024471Y0010802D02*
Y0008136D01*
X0023805*
X0021139Y0010802*
X0020472*
X-0005723Y-0013493D02*
X-0005056Y-0012826D01*
Y-0011493*
X-0005723Y-0010827*
X-0008389*
X-0009055Y-0011493*
Y-0012826*
X-0008389Y-0013493*
X-0005056Y-0014826D02*
Y-0017491D01*
X-0005723*
X-0008389Y-0014826*
X-0009055*
Y-0018824D02*
Y-0020157D01*
Y-0019491*
X-0005056*
X-0005723Y-0018824*
X-0011391Y-0013137D02*
X-0010724Y-0012471D01*
Y-0011138*
X-0011391Y-0010471*
X-0014057*
X-0014723Y-0011138*
Y-0012471*
X-0014057Y-0013137*
X-0010724Y-001447D02*
Y-0017136D01*
X-0011391*
X-0014057Y-001447*
X-0014723*
X-0011391Y-0018469D02*
X-0010724Y-0019135D01*
Y-0020468*
X-0011391Y-0021135*
X-0014057*
X-0014723Y-0020468*
Y-0019135*
X-0014057Y-0018469*
X-0011391*
X004813Y0014272D02*
X0052129D01*
Y0012272*
X0051462Y0011606*
X0050129*
X0049463Y0012272*
Y0014272*
Y0012939D02*
X004813Y0011606D01*
X0052129Y0007607D02*
X0051462Y000894D01*
X0050129Y0010273*
X0048796*
X004813Y0009606*
Y0008274*
X0048796Y0007607*
X0049463*
X0050129Y0008274*
Y0010273*
X0048796Y0006274D02*
X004813Y0005608D01*
Y0004275*
X0048796Y0003608*
X0051462*
X0052129Y0004275*
Y0005608*
X0051462Y0006274*
X0050796*
X0050129Y0005608*
Y0003608*
X0011721Y-0014286D02*
X0011054Y-0013619D01*
X0009721*
X0009055Y-0014286*
Y-0016952*
X0009721Y-0017618*
X0011054*
X0011721Y-0016952*
X0013054Y-0013619D02*
X001572D01*
Y-0014286*
X0013054Y-0016952*
Y-0017618*
X0019718Y-0013619D02*
X0018385Y-0014286D01*
X0017052Y-0015619*
Y-0016952*
X0017719Y-0017618*
X0019052*
X0019718Y-0016952*
Y-0016285*
X0019052Y-0015619*
X0017052*
M02*