%FSTAX26Y26*%
%MOIN*%
%SFA1B1*%

%IPPOS*%
%AMD56*
4,1,8,0.050000,-0.021000,0.050000,0.021000,0.041000,0.030000,-0.041000,0.030000,-0.050000,0.021000,-0.050000,-0.021000,-0.041000,-0.030000,0.041000,-0.030000,0.050000,-0.021000,0.0*
1,1,0.018000,0.041000,-0.021000*
1,1,0.018000,0.041000,0.021000*
1,1,0.018000,-0.041000,0.021000*
1,1,0.018000,-0.041000,-0.021000*
%
%ADD10C,0.008000*%
G04~CAMADD=56~8~0.0~0.0~600.0~1000.0~90.0~0.0~15~0.0~0.0~0.0~0.0~0~0.0~0.0~0.0~0.0~0~0.0~0.0~0.0~270.0~1000.0~600.0*
%ADD56D56*%
%LNunisolder52_full-1*%
%LPD*%
G54D10*
X0393679Y0465365D02*
Y0478325D01*
X0403519Y0488165*
X0417779*
X015187Y0269685D02*
X0159449D01*
X015187D02*
Y0277165D01*
X038189Y0269685D02*
Y0277264D01*
X037441Y0269685D02*
X038189D01*
X0374311Y0584646D02*
X038189D01*
Y0577165D02*
Y0584646D01*
X0393714Y0279514D02*
Y0293774D01*
Y0279514D02*
X0403554Y0269674D01*
X0416514*
X0692911Y0279525D02*
Y0292485D01*
X0683071Y0269685D02*
X0692911Y0279525D01*
X0668811Y0269685D02*
X0683071D01*
X0670113Y0610234D02*
X0683073D01*
X0692913Y0600394*
Y0586134D02*
Y0600394D01*
X0531498Y0587436D02*
Y0600396D01*
X0541338Y0610236*
X0555598*
X0405512Y0574803D02*
Y0579528D01*
X0413386Y0587402*
X0417815*
X0519685Y0575098D02*
Y0579528D01*
X0511811Y0587402D02*
X0519685Y0579528D01*
X0507087Y0587402D02*
X0511811D01*
X0507382Y05D02*
X0511811D01*
X0519685Y0507874*
Y0512598*
X0405512Y0507874D02*
Y0512303D01*
Y0507874D02*
X0413386Y05D01*
X041811*
X0531496Y0494095D02*
Y0510991D01*
X0525604Y0488202D02*
X0531507Y0494105D01*
X0507407Y0488202D02*
X0525604D01*
X015187Y0584646D02*
X015935D01*
X015187Y0577067D02*
Y0584646D01*
G54D56*
X0257691Y0499665D03*
M02*