%FSTAX26Y26*%
%MOIN*%
%SFA1B1*%

%IPPOS*%
%ADD114C,0.007870*%
%ADD116C,0.008000*%
%LNunisolder52_full-1*%
%LPD*%
G54D114*
X0531496Y0519685D02*
D01*
X05314816Y05200969*
X05314385Y05205069*
X05313669Y05209129*
X05312672Y05213129*
X05311398Y05217049*
X05309853Y05220871*
X05308046Y05224576*
X05305985Y05228147*
X0530368Y05231564*
X05301142Y05234813*
X05298384Y05237876*
X05295418Y0524074*
X0529226Y05243389*
X05288925Y05245812*
X0528543Y05247997*
X0528179Y05249932*
X05278024Y05251609*
X0527415Y05253019*
X05270187Y05254155*
X05266155Y05255012*
X05262073Y05255586*
X05257961Y05255874*
X05253838*
X05249726Y05255586*
X05245644Y05255012*
X05241612Y05254155*
X05237649Y05253019*
X05233775Y05251609*
X05230009Y05249932*
X0522637Y05247997*
X05222874Y05245812*
X05219539Y05243389*
X05216381Y0524074*
X05213415Y05237876*
X05210657Y05234813*
X05208119Y05231564*
X05205814Y05228147*
X05203753Y05224576*
X05201946Y05220871*
X05200401Y05217049*
X05199127Y05213129*
X0519813Y05209129*
X05197414Y05205069*
X05196983Y05200969*
X0519685Y0519685*
Y0572835D02*
D01*
X05196993Y0572423*
X05197424Y0572013*
X0519814Y0571607*
X05199137Y0571207*
X05200411Y0570815*
X05201956Y05704328*
X05203763Y05700623*
X05205824Y05697052*
X05208129Y05693635*
X05210667Y05690386*
X05213425Y05687323*
X05216391Y05684459*
X05219549Y0568181*
X05222884Y05679387*
X0522638Y05677202*
X05230019Y05675267*
X05233785Y0567359*
X05237659Y0567218*
X05241622Y05671044*
X05245654Y05670187*
X05249736Y05669613*
X05253848Y05669325*
X05257971*
X05262083Y05669613*
X05266165Y05670187*
X05270197Y05671044*
X0527416Y0567218*
X05278034Y0567359*
X052818Y05675267*
X0528544Y05677202*
X05288935Y05679387*
X0529227Y0568181*
X05295428Y05684459*
X05298394Y05687323*
X05301152Y05690386*
X0530369Y05693635*
X05305995Y05697052*
X05308056Y05700623*
X05309863Y05704328*
X05311408Y0570815*
X05312682Y0571207*
X05313679Y0571607*
X05314395Y0572013*
X05314826Y0572423*
X0531496Y0572835*
X0519685Y0543307D02*
D01*
X05196993Y0542895*
X05197424Y0542485*
X0519814Y0542079*
X05199137Y0541679*
X05200411Y0541287*
X05201956Y05409048*
X05203763Y05405343*
X05205824Y05401772*
X05208129Y05398355*
X05210667Y05395106*
X05213425Y05392043*
X05216391Y05389179*
X05219549Y0538653*
X05222884Y05384107*
X0522638Y05381922*
X05230019Y05379987*
X05233785Y0537831*
X05237659Y053769*
X05241622Y05375764*
X05245654Y05374907*
X05249736Y05374333*
X05253848Y05374045*
X05257971*
X05262083Y05374333*
X05266165Y05374907*
X05270197Y05375764*
X0527416Y053769*
X05278034Y0537831*
X052818Y05379987*
X0528544Y05381922*
X05288935Y05384107*
X0529227Y0538653*
X05295428Y05389179*
X05298394Y05392043*
X05301152Y05395106*
X0530369Y05398355*
X05305995Y05401772*
X05308056Y05405343*
X05309863Y05409048*
X05311408Y0541287*
X05312682Y0541679*
X05313679Y0542079*
X05314395Y0542485*
X05314826Y0542895*
X0531496Y0543307*
Y0549213D02*
D01*
X05314816Y05496249*
X05314385Y05500349*
X05313669Y05504409*
X05312672Y05508409*
X05311398Y05512329*
X05309853Y05516151*
X05308046Y05519856*
X05305985Y05523427*
X0530368Y05526844*
X05301142Y05530093*
X05298384Y05533156*
X05295418Y0553602*
X0529226Y05538669*
X05288925Y05541092*
X0528543Y05543277*
X0528179Y05545212*
X05278024Y05546889*
X0527415Y05548299*
X05270187Y05549435*
X05266155Y05550292*
X05262073Y05550866*
X05257961Y05551154*
X05253838*
X05249726Y05550866*
X05245644Y05550292*
X05241612Y05549435*
X05237649Y05548299*
X05233775Y05546889*
X05230009Y05545212*
X0522637Y05543277*
X05222874Y05541092*
X05219539Y05538669*
X05216381Y0553602*
X05213415Y05533156*
X05210657Y05530093*
X05208119Y05526844*
X05205814Y05523427*
X05203753Y05519856*
X05201946Y05516151*
X05200401Y05512329*
X05199127Y05508409*
X0519813Y05504409*
X05197414Y05500349*
X05196983Y05496249*
X0519685Y0549213*
X0393701Y0291339D02*
D01*
X03936866Y02917509*
X03936435Y02921609*
X03935719Y02925669*
X03934722Y02929669*
X03933448Y02933589*
X03931903Y02937411*
X03930096Y02941116*
X03928035Y02944687*
X0392573Y02948104*
X03923192Y02951353*
X03920434Y02954416*
X03917468Y0295728*
X0391431Y02959929*
X03910975Y02962352*
X0390748Y02964537*
X0390384Y02966472*
X03900074Y02968149*
X038962Y02969559*
X03892237Y02970695*
X03888205Y02971552*
X03884123Y02972126*
X03880011Y02972414*
X03875888*
X03871776Y02972126*
X03867694Y02971552*
X03863662Y02970695*
X03859699Y02969559*
X03855825Y02968149*
X03852059Y02966472*
X0384842Y02964537*
X03844924Y02962352*
X03841589Y02959929*
X03838431Y0295728*
X03835465Y02954416*
X03832707Y02951353*
X03830169Y02948104*
X03827864Y02944687*
X03825803Y02941116*
X03823996Y02937411*
X03822451Y02933589*
X03821177Y02929669*
X0382018Y02925669*
X03819464Y02921609*
X03819033Y02917509*
X0381889Y0291339*
X038189Y0291338*
Y0314961D02*
D01*
X03819043Y0314549*
X03819474Y0314139*
X0382019Y0313733*
X03821187Y0313333*
X03822461Y0312941*
X03824006Y03125588*
X03825813Y03121883*
X03827874Y03118312*
X03830179Y03114895*
X03832717Y03111646*
X03835475Y03108583*
X03838441Y03105719*
X03841599Y0310307*
X03844934Y03100647*
X0384843Y03098462*
X03852069Y03096527*
X03855835Y0309485*
X03859709Y0309344*
X03863672Y03092304*
X03867704Y03091447*
X03871786Y03090873*
X03875898Y03090585*
X03880021*
X03884133Y03090873*
X03888215Y03091447*
X03892247Y03092304*
X0389621Y0309344*
X03900084Y0309485*
X0390385Y03096527*
X0390749Y03098462*
X03910985Y03100647*
X0391432Y0310307*
X03917478Y03105719*
X03920444Y03108583*
X03923202Y03111646*
X0392574Y03114895*
X03928045Y03118312*
X03930106Y03121883*
X03931913Y03125588*
X03933458Y0312941*
X03934732Y0313333*
X03935729Y0313733*
X03936445Y0314139*
X03936876Y0314549*
X0393701Y0314961*
X038189Y0462598D02*
D01*
X03819043Y0462186*
X03819474Y0461776*
X0382019Y046137*
X03821187Y046097*
X03822461Y0460578*
X03824006Y04601958*
X03825813Y04598253*
X03827874Y04594682*
X03830179Y04591265*
X03832717Y04588016*
X03835475Y04584953*
X03838441Y04582089*
X03841599Y0457944*
X03844934Y04577017*
X0384843Y04574832*
X03852069Y04572897*
X03855835Y0457122*
X03859709Y0456981*
X03863672Y04568674*
X03867704Y04567817*
X03871786Y04567243*
X03875898Y04566955*
X03880021*
X03884133Y04567243*
X03888215Y04567817*
X03892247Y04568674*
X0389621Y0456981*
X03900084Y0457122*
X0390385Y04572897*
X0390749Y04574832*
X03910985Y04577017*
X0391432Y0457944*
X03917478Y04582089*
X03920444Y04584953*
X03923202Y04588016*
X0392574Y04591265*
X03928045Y04594682*
X03930106Y04598253*
X03931913Y04601958*
X03933458Y0460578*
X03934732Y046097*
X03935729Y046137*
X03936445Y0461776*
X03936876Y0462186*
X0393701Y0462598*
Y0438976D02*
D01*
X03936866Y04393879*
X03936435Y04397979*
X03935719Y04402039*
X03934722Y04406039*
X03933448Y04409959*
X03931903Y04413781*
X03930096Y04417486*
X03928035Y04421057*
X0392573Y04424474*
X03923192Y04427723*
X03920434Y04430786*
X03917468Y0443365*
X0391431Y04436299*
X03910975Y04438722*
X0390748Y04440907*
X0390384Y04442842*
X03900074Y04444519*
X038962Y04445929*
X03892237Y04447065*
X03888205Y04447922*
X03884123Y04448496*
X03880011Y04448784*
X03875888*
X03871776Y04448496*
X03867694Y04447922*
X03863662Y04447065*
X03859699Y04445929*
X03855825Y04444519*
X03852059Y04442842*
X0384842Y04440907*
X03844924Y04438722*
X03841589Y04436299*
X03838431Y0443365*
X03835465Y04430786*
X03832707Y04427723*
X03830169Y04424474*
X03827864Y04421057*
X03825803Y04417486*
X03823996Y04413781*
X03822451Y04409959*
X03821177Y04406039*
X0382018Y04402039*
X03819464Y04397979*
X03819033Y04393879*
X038189Y0438976*
Y0383858D02*
D01*
X03819043Y0383446*
X03819474Y0383036*
X0382019Y038263*
X03821187Y038223*
X03822461Y0381838*
X03824006Y03814558*
X03825813Y03810853*
X03827874Y03807282*
X03830179Y03803865*
X03832717Y03800616*
X03835475Y03797553*
X03838441Y03794689*
X03841599Y0379204*
X03844934Y03789617*
X0384843Y03787432*
X03852069Y03785497*
X03855835Y0378382*
X03859709Y0378241*
X03863672Y03781274*
X03867704Y03780417*
X03871786Y03779843*
X03875898Y03779555*
X03880021*
X03884133Y03779843*
X03888215Y03780417*
X03892247Y03781274*
X0389621Y0378241*
X03900084Y0378382*
X0390385Y03785497*
X0390749Y03787432*
X03910985Y03789617*
X0391432Y0379204*
X03917478Y03794689*
X03920444Y03797553*
X03923202Y03800616*
X0392574Y03803865*
X03928045Y03807282*
X03930106Y03810853*
X03931913Y03814558*
X03933458Y0381838*
X03934732Y038223*
X03935729Y038263*
X03936445Y0383036*
X03936876Y0383446*
X0393701Y0383858*
Y0360236D02*
D01*
X03936866Y03606479*
X03936435Y03610579*
X03935719Y03614639*
X03934722Y03618639*
X03933448Y03622559*
X03931903Y03626381*
X03930096Y03630086*
X03928035Y03633657*
X0392573Y03637074*
X03923192Y03640323*
X03920434Y03643386*
X03917468Y0364625*
X0391431Y03648899*
X03910975Y03651322*
X0390748Y03653507*
X0390384Y03655442*
X03900074Y03657119*
X038962Y03658529*
X03892237Y03659665*
X03888205Y03660522*
X03884123Y03661096*
X03880011Y03661384*
X03875888*
X03871776Y03661096*
X03867694Y03660522*
X03863662Y03659665*
X03859699Y03658529*
X03855825Y03657119*
X03852059Y03655442*
X0384842Y03653507*
X03844924Y03651322*
X03841589Y03648899*
X03838431Y0364625*
X03835465Y03643386*
X03832707Y03640323*
X03830169Y03637074*
X03827864Y03633657*
X03825803Y03630086*
X03823996Y03626381*
X03822451Y03622559*
X03821177Y03618639*
X0382018Y03614639*
X03819464Y03610579*
X03819033Y03606479*
X038189Y0360236*
Y0574803D02*
D01*
X03819043Y0574391*
X03819474Y0573981*
X0382019Y0573575*
X03821187Y0573175*
X03822461Y0572783*
X03824006Y05724008*
X03825813Y05720303*
X03827874Y05716732*
X03830179Y05713315*
X03832717Y05710066*
X03835475Y05707003*
X03838441Y05704139*
X03841599Y0570149*
X03844934Y05699067*
X0384843Y05696882*
X03852069Y05694947*
X03855835Y0569327*
X03859709Y0569186*
X03863672Y05690724*
X03867704Y05689867*
X03871786Y05689293*
X03875898Y05689005*
X0387795Y0568898*
Y0557087D02*
D01*
X0387383Y05570726*
X0386973Y05570295*
X0386567Y05569579*
X0386167Y05568582*
X0385775Y05567308*
X03853928Y05565763*
X03850223Y05563956*
X03846652Y05561895*
X03843235Y0555959*
X03839986Y05557052*
X03836923Y05554294*
X03834059Y05551328*
X0383141Y0554817*
X03828987Y05544835*
X03826802Y0554134*
X03824867Y055377*
X0382319Y05533934*
X0382178Y0553006*
X03820644Y05526097*
X03819787Y05522065*
X03819213Y05517983*
X03818925Y05513871*
X038189Y0551181*
X0387795Y0517717D02*
D01*
X0387383Y05177026*
X0386973Y05176595*
X0386567Y05175879*
X0386167Y05174882*
X0385775Y05173608*
X03853928Y05172063*
X03850223Y05170256*
X03846652Y05168195*
X03843235Y0516589*
X03839986Y05163352*
X03836923Y05160594*
X03834059Y05157628*
X0383141Y0515447*
X03828987Y05151135*
X03826802Y0514764*
X03824867Y05144*
X0382319Y05140234*
X0382178Y0513636*
X03820644Y05132397*
X03819787Y05128365*
X03819213Y05124283*
X03818925Y05120171*
X038189Y0511811*
Y0535433D02*
D01*
X03819043Y0535021*
X03819474Y0534611*
X0382019Y0534205*
X03821187Y0533805*
X03822461Y0533413*
X03824006Y05330308*
X03825813Y05326603*
X03827874Y05323032*
X03830179Y05319615*
X03832717Y05316366*
X03835475Y05313303*
X03838441Y05310439*
X03841599Y0530779*
X03844934Y05305367*
X0384843Y05303182*
X03852069Y05301247*
X03855835Y0529957*
X03859709Y0529816*
X03863672Y05297024*
X03867704Y05296167*
X03871786Y05295593*
X03875898Y05295305*
X0387795Y0529528*
X0405512Y0511811D02*
D01*
X04054976Y05122229*
X04054545Y05126329*
X04053829Y05130389*
X04052832Y05134389*
X04051558Y05138309*
X04050013Y05142131*
X04048206Y05145836*
X04046145Y05149407*
X0404384Y05152824*
X04041302Y05156073*
X04038544Y05159136*
X04035578Y05162*
X0403242Y05164649*
X04029085Y05167072*
X0402559Y05169257*
X0402195Y05171192*
X04018184Y05172869*
X0401431Y05174279*
X04010347Y05175415*
X04006315Y05176272*
X04002233Y05176846*
X03998121Y05177134*
X0399606Y0517717*
X0405512Y0551181D02*
D01*
X04054976Y05515929*
X04054545Y05520029*
X04053829Y05524089*
X04052832Y05528089*
X04051558Y05532009*
X04050013Y05535831*
X04048206Y05539536*
X04046145Y05543107*
X0404384Y05546524*
X04041302Y05549773*
X04038544Y05552836*
X04035578Y055557*
X0403242Y05558349*
X04029085Y05560772*
X0402559Y05562957*
X0402195Y05564892*
X04018184Y05566569*
X0401431Y05567979*
X04010347Y05569115*
X04006315Y05569972*
X04002233Y05570546*
X03998121Y05570834*
X0399606Y0557087*
Y0529528D02*
D01*
X04000179Y05295423*
X04004279Y05295854*
X04008339Y0529657*
X04012339Y05297567*
X04016259Y05298841*
X04020081Y05300386*
X04023786Y05302193*
X04027357Y05304254*
X04030774Y05306559*
X04034023Y05309097*
X04037086Y05311855*
X0403995Y05314821*
X04042599Y05317979*
X04045022Y05321314*
X04047207Y0532481*
X04049142Y05328449*
X04050819Y05332215*
X04052229Y05336089*
X04053365Y05340052*
X04054222Y05344084*
X04054796Y05348166*
X04055084Y05352278*
X0405512Y0535433*
X0399606Y0568898D02*
D01*
X04000179Y05689123*
X04004279Y05689554*
X04008339Y0569027*
X04012339Y05691267*
X04016259Y05692541*
X04020081Y05694086*
X04023786Y05695893*
X04027357Y05697954*
X04030774Y05700259*
X04034023Y05702797*
X04037086Y05705555*
X0403995Y05708521*
X04042599Y05711679*
X04045022Y05715014*
X04047207Y0571851*
X04049142Y05722149*
X04050819Y05725915*
X04052229Y05729789*
X04053365Y05733752*
X04054222Y05737784*
X04054796Y05741866*
X04055084Y05745978*
X0405512Y0574803*
X0387795Y0568898D02*
X0399606D01*
X0387795Y0557087D02*
X0399606D01*
X0387795Y0529528D02*
X0399606D01*
X0387795Y0517717D02*
X0399606D01*
X0403543Y0488189D02*
X0525591D01*
X0531496Y0494095*
Y0600394D02*
X0541338Y0610236D01*
X0683071*
X0692913Y0600394*
Y0279527D02*
Y0600394D01*
X0403543Y0269685D02*
X0683071D01*
X0692913Y0279527*
X0393701Y0478346D02*
X0403543Y0488189D01*
X0393701Y0279527D02*
X0403543Y0269685D01*
X0405512Y0507874D02*
X0413386Y05D01*
X0511811*
Y0587402D02*
X0519685Y0579528D01*
X0413386Y0587402D02*
X0511811D01*
X0405512Y0579528D02*
X0413386Y0587402D01*
X015187Y0584646D02*
X038189D01*
X015187Y0269685D02*
X038189D01*
X015187D02*
Y0395669D01*
X0143996Y0403543D02*
X015187Y0395669D01*
X0126279Y0403543D02*
X0143996D01*
X0126279D02*
Y0450787D01*
X0143996*
X015187Y0458661*
Y0584646*
X0511811Y05D02*
X0519685Y0507874D01*
G54D116*
X0519685Y0572835D02*
Y0579528D01*
Y0543307D02*
Y0549213D01*
Y0507874D02*
Y0519685D01*
X0531496Y0572835D02*
Y0600394D01*
Y0543307D02*
Y0549213D01*
Y0494095D02*
Y0519685D01*
X0405512Y0574803D02*
Y0579528D01*
Y0535433D02*
Y0551181D01*
Y0507874D02*
Y0511811D01*
X038189Y0574803D02*
Y0584646D01*
Y0535433D02*
Y0551181D01*
Y0462598D02*
Y0511811D01*
Y0383858D02*
Y0438976D01*
Y0314961D02*
Y0360236D01*
Y0269685D02*
Y0291338D01*
X0393701Y0462598D02*
Y0478346D01*
Y0383858D02*
Y0438976D01*
Y0314961D02*
Y0360236D01*
Y0279527D02*
Y0291339D01*
M02*