%FSTAX23Y23*%
%MOIN*%
%SFA1B1*%

%IPPOS*%
%ADD120C,0.005000*%
%ADD121C,0.006670*%
%LNunisolder52_front-1*%
%LPD*%
G54D120*
X-00051Y-01385D02*
Y-01345D01*
X-00011*
Y-01385*
X-00051*
X-00082Y-01471D02*
Y-01431D01*
X-00042*
Y-01471*
X-00082*
X00011Y-01385D02*
Y-01345D01*
X00051*
Y-01385*
X00011*
X00042Y-01471D02*
Y-01431D01*
X00082*
Y-01471*
X00042*
X-0002D02*
Y-01431D01*
X0002*
Y-01471*
X-0002*
X00662Y-00757D02*
X00642Y-00717D01*
X00682*
X00662Y-00757*
Y-0058D02*
X00642Y-0054D01*
X00682*
X00662Y-0058*
X00407D02*
X00387Y-0054D01*
X00427*
X00407Y-0058*
Y-00757D02*
X00387Y-00717D01*
X00427*
X00407Y-00757*
X00211Y00241D02*
X00221Y00251D01*
X00231*
X00221Y00261*
X00231Y00271*
X00221*
X00211Y00281*
X00201Y00271*
X00191*
X00201Y00261*
X00191Y00251*
X00201*
X00211Y00241*
Y00141D02*
X00221Y00151D01*
X00231*
X00221Y00161*
X00231Y00171*
X00221*
X00211Y00181*
X00201Y00171*
X00191*
X00201Y00161*
X00191Y00151*
X00201*
X00211Y00141*
Y00041D02*
X00221Y00051D01*
X00231*
X00221Y00061*
X00231Y00071*
X00221*
X00211Y00081*
X00201Y00071*
X00191*
X00201Y00061*
X00191Y00051*
X00201*
X00211Y00041*
Y-00059D02*
X00221Y-00049D01*
X00231*
X00221Y-00039*
X00231Y-00029*
X00221*
X00211Y-00019*
X00201Y-00029*
X00191*
X00201Y-00039*
X00191Y-00049*
X00201*
X00211Y-00059*
Y-00159D02*
X00221Y-00149D01*
X00231*
X00221Y-00139*
X00231Y-00129*
X00221*
X00211Y-00119*
X00201Y-00129*
X00191*
X00201Y-00139*
X00191Y-00149*
X00201*
X00211Y-00159*
X00411Y00241D02*
X00421Y00251D01*
X00431*
X00421Y00261*
X00431Y00271*
X00421*
X00411Y00281*
X00401Y00271*
X00391*
X00401Y00261*
X00391Y00251*
X00401*
X00411Y00241*
Y00141D02*
X00421Y00151D01*
X00431*
X00421Y00161*
X00431Y00171*
X00421*
X00411Y00181*
X00401Y00171*
X00391*
X00401Y00161*
X00391Y00151*
X00401*
X00411Y00141*
Y00041D02*
X00421Y00051D01*
X00431*
X00421Y00061*
X00431Y00071*
X00421*
X00411Y00081*
X00401Y00071*
X00391*
X00401Y00061*
X00391Y00051*
X00401*
X00411Y00041*
Y-00059D02*
X00421Y-00049D01*
X00431*
X00421Y-00039*
X00431Y-00029*
X00421*
X00411Y-00019*
X00401Y-00029*
X00391*
X00401Y-00039*
X00391Y-00049*
X00401*
X00411Y-00059*
Y-00159D02*
X00421Y-00149D01*
X00431*
X00421Y-00139*
X00431Y-00129*
X00421*
X00411Y-00119*
X00401Y-00129*
X00391*
X00401Y-00139*
X00391Y-00149*
X00401*
X00411Y-00159*
X0138Y-00303D02*
X0139Y-00283D01*
X0138Y-00263*
X014Y-00273*
X0142Y-00263*
X0141Y-00283*
X0142Y-00303*
X014Y-00293*
X0138Y-00303*
Y-00086D02*
X0139Y-00066D01*
X0138Y-00046*
X014Y-00056*
X0142Y-00046*
X0141Y-00066*
X0142Y-00086*
X014Y-00076*
X0138Y-00086*
X01215D02*
X01225Y-00066D01*
X01215Y-00046*
X01235Y-00056*
X01255Y-00046*
X01245Y-00066*
X01255Y-00086*
X01235Y-00076*
X01215Y-00086*
Y-00303D02*
X01225Y-00283D01*
X01215Y-00263*
X01235Y-00273*
X01255Y-00263*
X01245Y-00283*
X01255Y-00303*
X01235Y-00293*
X01215Y-00303*
X-015Y-00836D02*
X-0149Y-00826D01*
X-0148*
X-0149Y-00816*
X-0148Y-00806*
X-0149*
X-015Y-00796*
X-0151Y-00806*
X-0152*
X-0151Y-00816*
X-0152Y-00826*
X-0151*
X-015Y-00836*
Y-00736D02*
X-0149Y-00726D01*
X-0148*
X-0149Y-00716*
X-0148Y-00706*
X-0149*
X-015Y-00696*
X-0151Y-00706*
X-0152*
X-0151Y-00716*
X-0152Y-00726*
X-0151*
X-015Y-00736*
Y-00636D02*
X-0149Y-00626D01*
X-0148*
X-0149Y-00616*
X-0148Y-00606*
X-0149*
X-015Y-00596*
X-0151Y-00606*
X-0152*
X-0151Y-00616*
X-0152Y-00626*
X-0151*
X-015Y-00636*
Y-00536D02*
X-0149Y-00526D01*
X-0148*
X-0149Y-00516*
X-0148Y-00506*
X-0149*
X-015Y-00496*
X-0151Y-00506*
X-0152*
X-0151Y-00516*
X-0152Y-00526*
X-0151*
X-015Y-00536*
Y-00436D02*
X-0149Y-00426D01*
X-0148*
X-0149Y-00416*
X-0148Y-00406*
X-0149*
X-015Y-00396*
X-0151Y-00406*
X-0152*
X-0151Y-00416*
X-0152Y-00426*
X-0151*
X-015Y-00436*
X-00636Y-00403D02*
Y-00413D01*
X-00616*
Y-00403*
X-00606*
Y-00383*
X-00616*
Y-00373*
X-00636*
Y-00383*
X-00646*
Y-00403*
X-00636*
X-00828D02*
Y-00413D01*
X-00808*
Y-00403*
X-00798*
Y-00383*
X-00808*
Y-00373*
X-00828*
Y-00383*
X-00838*
Y-00403*
X-00828*
X00506Y00831D02*
X00516Y00841D01*
X00526*
X00516Y00851*
X00526Y00861*
X00516*
X00506Y00871*
X00496Y00861*
X00486*
X00496Y00851*
X00486Y00841*
X00496*
X00506Y00831*
Y00731D02*
X00516Y00741D01*
X00526*
X00516Y00751*
X00526Y00761*
X00516*
X00506Y00771*
X00496Y00761*
X00486*
X00496Y00751*
X00486Y00741*
X00496*
X00506Y00731*
X00606Y00831D02*
X00616Y00841D01*
X00626*
X00616Y00851*
X00626Y00861*
X00616*
X00606Y00871*
X00596Y00861*
X00586*
X00596Y00851*
X00586Y00841*
X00596*
X00606Y00831*
Y00731D02*
X00616Y00741D01*
X00626*
X00616Y00751*
X00626Y00761*
X00616*
X00606Y00771*
X00596Y00761*
X00586*
X00596Y00751*
X00586Y00741*
X00596*
X00606Y00731*
X00706Y00831D02*
X00716Y00841D01*
X00726*
X00716Y00851*
X00726Y00861*
X00716*
X00706Y00871*
X00696Y00861*
X00686*
X00696Y00851*
X00686Y00841*
X00696*
X00706Y00831*
Y00731D02*
X00716Y00741D01*
X00726*
X00716Y00751*
X00726Y00761*
X00716*
X00706Y00771*
X00696Y00761*
X00686*
X00696Y00751*
X00686Y00741*
X00696*
X00706Y00731*
X00806Y00831D02*
X00816Y00841D01*
X00826*
X00816Y00851*
X00826Y00861*
X00816*
X00806Y00871*
X00796Y00861*
X00786*
X00796Y00851*
X00786Y00841*
X00796*
X00806Y00831*
Y00731D02*
X00816Y00741D01*
X00826*
X00816Y00751*
X00826Y00761*
X00816*
X00806Y00771*
X00796Y00761*
X00786*
X00796Y00751*
X00786Y00741*
X00796*
X00806Y00731*
X00906Y00831D02*
X00916Y00841D01*
X00926*
X00916Y00851*
X00926Y00861*
X00916*
X00906Y00871*
X00896Y00861*
X00886*
X00896Y00851*
X00886Y00841*
X00896*
X00906Y00831*
Y00731D02*
X00916Y00741D01*
X00926*
X00916Y00751*
X00926Y00761*
X00916*
X00906Y00771*
X00896Y00761*
X00886*
X00896Y00751*
X00886Y00741*
X00896*
X00906Y00731*
X-00725Y-00965D02*
X-00715Y-00955D01*
X-00705*
X-00715Y-00945*
X-00705Y-00935*
X-00715*
X-00725Y-00925*
X-00735Y-00935*
X-00745*
X-00735Y-00945*
X-00745Y-00955*
X-00735*
X-00725Y-00965*
X-00906Y-01146D02*
X-00896Y-01136D01*
X-00886*
X-00896Y-01126*
X-00886Y-01116*
X-00896*
X-00906Y-01106*
X-00916Y-01116*
X-00926*
X-00916Y-01126*
X-00926Y-01136*
X-00916*
X-00906Y-01146*
X-01265Y-00895D02*
X-01255D01*
X-01245Y-00885*
X-01235Y-00895*
X-01225*
Y-00885*
X-01235Y-00875*
X-01225Y-00865*
Y-00855*
X-01235*
X-01245Y-00865*
X-01255Y-00855*
X-01265*
Y-00865*
X-01255Y-00875*
X-01265Y-00885*
Y-00895*
X-0002Y00855D02*
X-0001D01*
X0Y00865*
X0001Y00855*
X0002*
Y00865*
X0001Y00875*
X0002Y00885*
Y00895*
X0001*
X0Y00885*
X-0001Y00895*
X-0002*
Y00885*
X-0001Y00875*
X-0002Y00865*
Y00855*
X01225Y-00895D02*
X01235D01*
X01245Y-00885*
X01255Y-00895*
X01265*
Y-00885*
X01255Y-00875*
X01265Y-00865*
Y-00855*
X01255*
X01245Y-00865*
X01235Y-00855*
X01225*
Y-00865*
X01235Y-00875*
X01225Y-00885*
Y-00895*
X-00411Y00241D02*
X-00401Y00251D01*
X-00391*
X-00401Y00261*
X-00391Y00271*
X-00401*
X-00411Y00281*
X-00421Y00271*
X-00431*
X-00421Y00261*
X-00431Y00251*
X-00421*
X-00411Y00241*
Y00141D02*
X-00401Y00151D01*
X-00391*
X-00401Y00161*
X-00391Y00171*
X-00401*
X-00411Y00181*
X-00421Y00171*
X-00431*
X-00421Y00161*
X-00431Y00151*
X-00421*
X-00411Y00141*
Y00041D02*
X-00401Y00051D01*
X-00391*
X-00401Y00061*
X-00391Y00071*
X-00401*
X-00411Y00081*
X-00421Y00071*
X-00431*
X-00421Y00061*
X-00431Y00051*
X-00421*
X-00411Y00041*
Y-00059D02*
X-00401Y-00049D01*
X-00391*
X-00401Y-00039*
X-00391Y-00029*
X-00401*
X-00411Y-00019*
X-00421Y-00029*
X-00431*
X-00421Y-00039*
X-00431Y-00049*
X-00421*
X-00411Y-00059*
Y-00159D02*
X-00401Y-00149D01*
X-00391*
X-00401Y-00139*
X-00391Y-00129*
X-00401*
X-00411Y-00119*
X-00421Y-00129*
X-00431*
X-00421Y-00139*
X-00431Y-00149*
X-00421*
X-00411Y-00159*
X-00211Y00241D02*
X-00201Y00251D01*
X-00191*
X-00201Y00261*
X-00191Y00271*
X-00201*
X-00211Y00281*
X-00221Y00271*
X-00231*
X-00221Y00261*
X-00231Y00251*
X-00221*
X-00211Y00241*
Y00141D02*
X-00201Y00151D01*
X-00191*
X-00201Y00161*
X-00191Y00171*
X-00201*
X-00211Y00181*
X-00221Y00171*
X-00231*
X-00221Y00161*
X-00231Y00151*
X-00221*
X-00211Y00141*
Y00041D02*
X-00201Y00051D01*
X-00191*
X-00201Y00061*
X-00191Y00071*
X-00201*
X-00211Y00081*
X-00221Y00071*
X-00231*
X-00221Y00061*
X-00231Y00051*
X-00221*
X-00211Y00041*
Y-00059D02*
X-00201Y-00049D01*
X-00191*
X-00201Y-00039*
X-00191Y-00029*
X-00201*
X-00211Y-00019*
X-00221Y-00029*
X-00231*
X-00221Y-00039*
X-00231Y-00049*
X-00221*
X-00211Y-00059*
Y-00159D02*
X-00201Y-00149D01*
X-00191*
X-00201Y-00139*
X-00191Y-00129*
X-00201*
X-00211Y-00119*
X-00221Y-00129*
X-00231*
X-00221Y-00139*
X-00231Y-00149*
X-00221*
X-00211Y-00159*
X001D02*
X0011Y-00149D01*
X0012*
X0011Y-00139*
X0012Y-00129*
X0011*
X001Y-00119*
X0009Y-00129*
X0008*
X0009Y-00139*
X0008Y-00149*
X0009*
X001Y-00159*
Y-00059D02*
X0011Y-00049D01*
X0012*
X0011Y-00039*
X0012Y-00029*
X0011*
X001Y-00019*
X0009Y-00029*
X0008*
X0009Y-00039*
X0008Y-00049*
X0009*
X001Y-00059*
Y00041D02*
X0011Y00051D01*
X0012*
X0011Y00061*
X0012Y00071*
X0011*
X001Y00081*
X0009Y00071*
X0008*
X0009Y00061*
X0008Y00051*
X0009*
X001Y00041*
Y00141D02*
X0011Y00151D01*
X0012*
X0011Y00161*
X0012Y00171*
X0011*
X001Y00181*
X0009Y00171*
X0008*
X0009Y00161*
X0008Y00151*
X0009*
X001Y00141*
Y00241D02*
X0011Y00251D01*
X0012*
X0011Y00261*
X0012Y00271*
X0011*
X001Y00281*
X0009Y00271*
X0008*
X0009Y00261*
X0008Y00251*
X0009*
X001Y00241*
X-001Y-00159D02*
X-0009Y-00149D01*
X-0008*
X-0009Y-00139*
X-0008Y-00129*
X-0009*
X-001Y-00119*
X-0011Y-00129*
X-0012*
X-0011Y-00139*
X-0012Y-00149*
X-0011*
X-001Y-00159*
Y-00059D02*
X-0009Y-00049D01*
X-0008*
X-0009Y-00039*
X-0008Y-00029*
X-0009*
X-001Y-00019*
X-0011Y-00029*
X-0012*
X-0011Y-00039*
X-0012Y-00049*
X-0011*
X-001Y-00059*
Y00041D02*
X-0009Y00051D01*
X-0008*
X-0009Y00061*
X-0008Y00071*
X-0009*
X-001Y00081*
X-0011Y00071*
X-0012*
X-0011Y00061*
X-0012Y00051*
X-0011*
X-001Y00041*
Y00141D02*
X-0009Y00151D01*
X-0008*
X-0009Y00161*
X-0008Y00171*
X-0009*
X-001Y00181*
X-0011Y00171*
X-0012*
X-0011Y00161*
X-0012Y00151*
X-0011*
X-001Y00141*
Y00241D02*
X-0009Y00251D01*
X-0008*
X-0009Y00261*
X-0008Y00271*
X-0009*
X-001Y00281*
X-0011Y00271*
X-0012*
X-0011Y00261*
X-0012Y00251*
X-0011*
X-001Y00241*
X-00407Y-00757D02*
X-00427Y-00717D01*
X-00387*
X-00407Y-00757*
Y-0058D02*
X-00427Y-0054D01*
X-00387*
X-00407Y-0058*
X-00662D02*
X-00682Y-0054D01*
X-00642*
X-00662Y-0058*
Y-00757D02*
X-00682Y-00717D01*
X-00642*
X-00662Y-00757*
X00127D02*
X00107Y-00717D01*
X00147*
X00127Y-00757*
Y-0058D02*
X00107Y-0054D01*
X00147*
X00127Y-0058*
X-00127D02*
X-00147Y-0054D01*
X-00107*
X-00127Y-0058*
Y-00757D02*
X-00147Y-00717D01*
X-00107*
X-00127Y-00757*
X01397Y00636D02*
X01417Y00656D01*
X01437Y00636*
X01417Y00616*
X01397Y00636*
X014Y00707D02*
X0142Y00727D01*
X0144Y00707*
X0142Y00687*
X014Y00707*
X01251Y00834D02*
X01271Y00854D01*
X01291Y00834*
X01271Y00814*
X01251Y00834*
X01157Y00827D02*
X01177Y00847D01*
X01197Y00827*
X01177Y00807*
X01157Y00827*
X01096Y00822D02*
X01116Y00842D01*
X01136Y00822*
X01116Y00802*
X01096Y00822*
X-0133Y-00513D02*
X-0131Y-00493D01*
X-0129Y-00513*
X-0131Y-00533*
X-0133Y-00513*
X01149Y00002D02*
X01169Y00022D01*
X01189Y00002*
X01169Y-00017*
X01149Y00002*
X-00665Y00827D02*
X-00645Y00847D01*
X-00625Y00827*
X-00645Y00807*
X-00665Y00827*
X-00944Y00726D02*
X-00924Y00746D01*
X-00904Y00726*
X-00924Y00706*
X-00944Y00726*
X00565Y-00487D02*
X00585Y-00467D01*
X00605Y-00487*
X00585Y-00507*
X00565Y-00487*
X00419Y00886D02*
X00439Y00906D01*
X00459Y00886*
X00439Y00866*
X00419Y00886*
X00736Y-01141D02*
X00756Y-01121D01*
X00776Y-01141*
X00756Y-01161*
X00736Y-01141*
X00907Y-00956D02*
X00927Y-00936D01*
X00947Y-00956*
X00927Y-00976*
X00907Y-00956*
X00602Y-01088D02*
X00622Y-01068D01*
X00642Y-01088*
X00622Y-01108*
X00602Y-01088*
X00983Y-01159D02*
X01003Y-01139D01*
X01023Y-01159*
X01003Y-01179*
X00983Y-01159*
X01312Y-00689D02*
X01332Y-00669D01*
X01352Y-00689*
X01332Y-00709*
X01312Y-00689*
X00976Y-00707D02*
X00996Y-00687D01*
X01016Y-00707*
X00996Y-00727*
X00976Y-00707*
X01043Y-0038D02*
X01063Y-0036D01*
X01083Y-0038*
X01063Y-004*
X01043Y-0038*
X01036Y-00595D02*
X01056Y-00575D01*
X01076Y-00595*
X01056Y-00615*
X01036Y-00595*
X01062Y-00473D02*
X01082Y-00453D01*
X01102Y-00473*
X01082Y-00493*
X01062Y-00473*
X01046Y-00819D02*
X01066Y-00799D01*
X01086Y-00819*
X01066Y-00839*
X01046Y-00819*
X00277Y00739D02*
X00297Y00759D01*
X00317Y00739*
X00297Y00719*
X00277Y00739*
X00941Y00718D02*
X00961Y00738D01*
X00981Y00718*
X00961Y00698*
X00941Y00718*
X0061Y-0005D02*
X0063Y-0003D01*
X0065Y-0005*
X0063Y-0007*
X0061Y-0005*
X-01191Y00517D02*
X-01171Y00537D01*
X-01151Y00517*
X-01171Y00497*
X-01191Y00517*
X-01001Y00744D02*
X-00981Y00764D01*
X-00961Y00744*
X-00981Y00724*
X-01001Y00744*
X-00276Y00873D02*
X-00256Y00893D01*
X-00236Y00873*
X-00256Y00853*
X-00276Y00873*
X00121Y00496D02*
X00141Y00516D01*
X00161Y00496*
X00141Y00476*
X00121Y00496*
X00319Y00645D02*
X00339Y00665D01*
X00359Y00645*
X00339Y00625*
X00319Y00645*
X00519Y00282D02*
X00539Y00302D01*
X00559Y00282*
X00539Y00262*
X00519Y00282*
X00517Y00456D02*
X00537Y00476D01*
X00557Y00456*
X00537Y00436*
X00517Y00456*
X00174Y00529D02*
X00194Y00549D01*
X00214Y00529*
X00194Y00509*
X00174Y00529*
X00259Y00588D02*
X00279Y00608D01*
X00299Y00588*
X00279Y00568*
X00259Y00588*
X00262Y00436D02*
X00282Y00456D01*
X00302Y00436*
X00282Y00416*
X00262Y00436*
X00206Y00588D02*
X00226Y00608D01*
X00246Y00588*
X00226Y00568*
X00206Y00588*
X-0029Y00501D02*
X-0027Y00521D01*
X-0025Y00501*
X-0027Y00481*
X-0029Y00501*
X-00988Y00828D02*
X-00968Y00848D01*
X-00948Y00828*
X-00968Y00808*
X-00988Y00828*
X-01103Y00826D02*
X-01083Y00846D01*
X-01063Y00826*
X-01083Y00806*
X-01103Y00826*
X00206Y00876D02*
X00226Y00896D01*
X00246Y00876*
X00226Y00856*
X00206Y00876*
X-01154Y00625D02*
X-01134Y00645D01*
X-01114Y00625*
X-01134Y00605*
X-01154Y00625*
X-01207Y0096D02*
X-01187Y0098D01*
X-01167Y0096*
X-01187Y0094*
X-01207Y0096*
X-01196Y00791D02*
X-01176Y00811D01*
X-01156Y00791*
X-01176Y00771*
X-01196Y00791*
X-01323Y00744D02*
X-01303Y00764D01*
X-01283Y00744*
X-01303Y00724*
X-01323Y00744*
X-01475Y00511D02*
X-01455Y00531D01*
X-01435Y00511*
X-01455Y00491*
X-01475Y00511*
X-0155Y00657D02*
X-0153Y00677D01*
X-0151Y00657*
X-0153Y00637*
X-0155Y00657*
X-00339Y00692D02*
X-00319Y00712D01*
X-00299Y00692*
X-00319Y00672*
X-00339Y00692*
X-00206Y00508D02*
X-00186Y00528D01*
X-00166Y00508*
X-00186Y00488*
X-00206Y00508*
X-00181Y00958D02*
X-00161Y00978D01*
X-00141Y00958*
X-00161Y00938*
X-00181Y00958*
X-01417Y0037D02*
X-01397Y0039D01*
X-01377Y0037*
X-01397Y0035*
X-01417Y0037*
X-01197Y00333D02*
X-01177Y00353D01*
X-01157Y00333*
X-01177Y00313*
X-01197Y00333*
X00825Y00596D02*
X00845Y00616D01*
X00865Y00596*
X00845Y00576*
X00825Y00596*
X00516Y00517D02*
X00536Y00537D01*
X00556Y00517*
X00536Y00497*
X00516Y00517*
X00994Y00203D02*
X01014Y00223D01*
X01034Y00203*
X01014Y00183*
X00994Y00203*
X00568Y00215D02*
X00588Y00235D01*
X00608Y00215*
X00588Y00195*
X00568Y00215*
X00385Y00369D02*
X00405Y00389D01*
X00425Y00369*
X00405Y00349*
X00385Y00369*
X00772Y00454D02*
X00792Y00474D01*
X00812Y00454*
X00792Y00434*
X00772Y00454*
X00836Y00408D02*
X00856Y00428D01*
X00876Y00408*
X00856Y00388*
X00836Y00408*
X01051Y00617D02*
X01071Y00637D01*
X01091Y00617*
X01071Y00597*
X01051Y00617*
X01129Y00653D02*
X01149Y00673D01*
X01169Y00653*
X01149Y00633*
X01129Y00653*
X-01022Y00384D02*
X-01002Y00404D01*
X-00982Y00384*
X-01002Y00364*
X-01022Y00384*
X-01074Y00201D02*
X-01054Y00221D01*
X-01034Y00201*
X-01054Y00181*
X-01074Y00201*
X-00957D02*
X-00937Y00221D01*
X-00917Y00201*
X-00937Y00181*
X-00957Y00201*
X01334Y00358D02*
X01354Y00378D01*
X01374Y00358*
X01354Y00338*
X01334Y00358*
X00733Y-01006D02*
X00753Y-00986D01*
X00773Y-01006*
X00753Y-01026*
X00733Y-01006*
X01427Y0088D02*
X01447Y009D01*
X01467Y0088*
X01447Y0086*
X01427Y0088*
X00756Y00038D02*
X00776Y00058D01*
X00796Y00038*
X00776Y00018*
X00756Y00038*
X00565Y00156D02*
X00585Y00176D01*
X00605Y00156*
X00585Y00136*
X00565Y00156*
X-01457Y-0054D02*
X-01437Y-0052D01*
X-01417Y-0054*
X-01437Y-0056*
X-01457Y-0054*
X-01299Y-00293D02*
X-01279Y-00273D01*
X-01259Y-00293*
X-01279Y-00313*
X-01299Y-00293*
X-01369Y-00249D02*
X-01349Y-00229D01*
X-01329Y-00249*
X-01349Y-00269*
X-01369Y-00249*
X-00823Y00533D02*
X-00803Y00553D01*
X-00783Y00533*
X-00803Y00513*
X-00823Y00533*
X00385Y00665D02*
X00405Y00685D01*
X00425Y00665*
X00405Y00645*
X00385Y00665*
X-00447Y00618D02*
X-00427Y00638D01*
X-00407Y00618*
X-00427Y00598*
X-00447Y00618*
X-00945Y-00563D02*
X-00925Y-00543D01*
X-00905Y-00563*
X-00925Y-00583*
X-00945Y-00563*
X-00889Y-00589D02*
X-00869Y-00569D01*
X-00849Y-00589*
X-00869Y-00609*
X-00889Y-00589*
X-01132Y-00523D02*
X-01112Y-00503D01*
X-01092Y-00523*
X-01112Y-00543*
X-01132Y-00523*
X-01114Y-00602D02*
X-01094Y-00582D01*
X-01074Y-00602*
X-01094Y-00622*
X-01114Y-00602*
X-00462Y-00495D02*
X-00442Y-00475D01*
X-00422Y-00495*
X-00442Y-00515*
X-00462Y-00495*
X00598Y-00621D02*
X00618Y-00601D01*
X00638Y-00621*
X00618Y-00641*
X00598Y-00621*
X-00072Y-00495D02*
X-00052Y-00475D01*
X-00032Y-00495*
X-00052Y-00515*
X-00072Y-00495*
X01238Y00204D02*
X01258Y00224D01*
X01278Y00204*
X01258Y00184*
X01238Y00204*
X00603Y00599D02*
X00623Y00619D01*
X00643Y00599*
X00623Y00579*
X00603Y00599*
X0104Y00558D02*
X0106Y00578D01*
X0108Y00558*
X0106Y00538*
X0104Y00558*
X01397Y00209D02*
X01417Y00229D01*
X01437Y00209*
X01417Y00189*
X01397Y00209*
X01174Y00204D02*
X01194Y00224D01*
X01214Y00204*
X01194Y00184*
X01174Y00204*
X-00944Y00462D02*
X-00924Y00482D01*
X-00904Y00462*
X-00924Y00442*
X-00944Y00462*
X-01078Y00914D02*
X-01058Y00934D01*
X-01038Y00914*
X-01058Y00894*
X-01078Y00914*
X00061Y-00277D02*
X00081Y-00257D01*
X00101Y-00277*
X00081Y-00297*
X00061Y-00277*
X00012Y-00321D02*
X00032Y-00301D01*
X00052Y-00321*
X00032Y-00341*
X00012Y-00321*
X-00182Y-00298D02*
X-00162Y-00278D01*
X-00142Y-00298*
X-00162Y-00318*
X-00182Y-00298*
X00181Y-00789D02*
X00201Y-00769D01*
X00221Y-00789*
X00201Y-00809*
X00181Y-00789*
X00343Y-00674D02*
X00363Y-00654D01*
X00383Y-00674*
X00363Y-00694*
X00343Y-00674*
X0072Y-00329D02*
X0074Y-00309D01*
X0076Y-00329*
X0074Y-00349*
X0072Y-00329*
X00712Y-00141D02*
X00732Y-00121D01*
X00752Y-00141*
X00732Y-00161*
X00712Y-00141*
X00594Y00056D02*
X00614Y00076D01*
X00634Y00056*
X00614Y00036*
X00594Y00056*
X01455Y-00321D02*
X01475Y-00301D01*
X01495Y-00321*
X01475Y-00341*
X01455Y-00321*
X01407Y-0053D02*
X01427Y-0051D01*
X01447Y-0053*
X01427Y-0055*
X01407Y-0053*
X01481Y-00829D02*
X01501Y-00809D01*
X01521Y-00829*
X01501Y-00849*
X01481Y-00829*
X01505Y-00587D02*
X01525Y-00567D01*
X01545Y-00587*
X01525Y-00607*
X01505Y-00587*
X0117Y-00694D02*
X0119Y-00674D01*
X0121Y-00694*
X0119Y-00714*
X0117Y-00694*
X00795Y-00679D02*
X00815Y-00659D01*
X00835Y-00679*
X00815Y-00699*
X00795Y-00679*
X01319Y-00423D02*
X01339Y-00403D01*
X01359Y-00423*
X01339Y-00443*
X01319Y-00423*
X-01214Y-00087D02*
X-01194Y-00067D01*
X-01174Y-00087*
X-01194Y-00107*
X-01214Y-00087*
X-0152Y-00901D02*
X-015Y-00881D01*
X-0148Y-00901*
X-015Y-00921*
X-0152Y-00901*
X-01504Y-00988D02*
X-01484Y-00968D01*
X-01464Y-00988*
X-01484Y-01008*
X-01504Y-00988*
X-01379Y-00609D02*
X-01359Y-00589D01*
X-01339Y-00609*
X-01359Y-00629*
X-01379Y-00609*
X-01139Y-01014D02*
X-01119Y-00994D01*
X-01099Y-01014*
X-01119Y-01034*
X-01139Y-01014*
X-01095Y-01063D02*
X-01075Y-01043D01*
X-01055Y-01063*
X-01075Y-01083*
X-01095Y-01063*
X-01099Y-00733D02*
X-01079Y-00713D01*
X-01059Y-00733*
X-01079Y-00753*
X-01099Y-00733*
X-01056Y-0018D02*
X-01036Y-0016D01*
X-01016Y-0018*
X-01036Y-002*
X-01056Y-0018*
X-01128Y-00096D02*
X-01108Y-00076D01*
X-01088Y-00096*
X-01108Y-00116*
X-01128Y-00096*
X-01222Y-00394D02*
X-01202Y-00374D01*
X-01182Y-00394*
X-01202Y-00414*
X-01222Y-00394*
X-01252Y-00329D02*
X-01232Y-00309D01*
X-01212Y-00329*
X-01232Y-00349*
X-01252Y-00329*
X-01225Y-00251D02*
X-01205Y-00231D01*
X-01185Y-00251*
X-01205Y-00271*
X-01225Y-00251*
X-01109Y-00277D02*
X-01089Y-00257D01*
X-01069Y-00277*
X-01089Y-00297*
X-01109Y-00277*
X-01274Y-00026D02*
X-01254Y-00006D01*
X-01234Y-00026*
X-01254Y-00046*
X-01274Y-00026*
X-01296Y-00202D02*
X-01276Y-00182D01*
X-01256Y-00202*
X-01276Y-00222*
X-01296Y-00202*
X-01153Y-00164D02*
X-01133Y-00144D01*
X-01113Y-00164*
X-01133Y-00184*
X-01153Y-00164*
X-00452Y-00824D02*
X-00432Y-00804D01*
X-00412Y-00824*
X-00432Y-00844*
X-00452Y-00824*
X-00519Y-00926D02*
X-00499Y-00906D01*
X-00479Y-00926*
X-00499Y-00946*
X-00519Y-00926*
X-00892Y-00462D02*
X-00872Y-00442D01*
X-00852Y-00462*
X-00872Y-00482*
X-00892Y-00462*
X-00944Y-00183D02*
X-00924Y-00163D01*
X-00904Y-00183*
X-00924Y-00203*
X-00944Y-00183*
X-00797Y-0031D02*
X-00777Y-0029D01*
X-00757Y-0031*
X-00777Y-0033*
X-00797Y-0031*
X-00485Y-00294D02*
X-00465Y-00274D01*
X-00445Y-00294*
X-00465Y-00314*
X-00485Y-00294*
X-01427Y-00395D02*
X-01407Y-00375D01*
X-01387Y-00395*
X-01407Y-00415*
X-01427Y-00395*
X-01465Y00312D02*
X-01445Y00332D01*
X-01425Y00312*
X-01445Y00292*
X-01465Y00312*
X-01544Y-00088D02*
X-01524Y-00068D01*
X-01504Y-00088*
X-01524Y-00108*
X-01544Y-00088*
X-00264Y-00352D02*
X-00244Y-00332D01*
X-00224Y-00352*
X-00244Y-00372*
X-00264Y-00352*
X-00263Y-00496D02*
X-00243Y-00476D01*
X-00223Y-00496*
X-00243Y-00516*
X-00263Y-00496*
X-00404Y-00449D02*
X-00384Y-00429D01*
X-00364Y-00449*
X-00384Y-00469*
X-00404Y-00449*
X-00084Y-00664D02*
X-00064Y-00644D01*
X-00044Y-00664*
X-00064Y-00684*
X-00084Y-00664*
X-00659Y-00909D02*
X-00639Y-00889D01*
X-00619Y-00909*
X-00639Y-00929*
X-00659Y-00909*
X-00748Y-00831D02*
X-00728Y-00811D01*
X-00708Y-00831*
X-00728Y-00851*
X-00748Y-00831*
X-00689Y-01146D02*
X-00669Y-01126D01*
X-00649Y-01146*
X-00669Y-01166*
X-00689Y-01146*
X-00756Y-01102D02*
X-00736Y-01082D01*
X-00716Y-01102*
X-00736Y-01122*
X-00756Y-01102*
X-0099Y-00661D02*
X-0097Y-00641D01*
X-0095Y-00661*
X-0097Y-00681*
X-0099Y-00661*
X-01295Y-0057D02*
X-01275Y-0055D01*
X-01255Y-0057*
X-01275Y-0059*
X-01295Y-0057*
X00454Y-00784D02*
X00474Y-00764D01*
X00494Y-00784*
X00474Y-00804*
X00454Y-00784*
X00019Y-00757D02*
X00039Y-00737D01*
X00059Y-00757*
X00039Y-00777*
X00019Y-00757*
X00868Y-01001D02*
X00888Y-00981D01*
X00908Y-01001*
X00888Y-01021*
X00868Y-01001*
X-00535Y00651D02*
X-00515Y00671D01*
X-00495Y00651*
X-00515Y00631*
X-00535Y00651*
X00338Y-00002D02*
X00358Y00018D01*
X00378Y-00002*
X00358Y-00022*
X00338Y-00002*
X00177Y00681D02*
X00197Y00701D01*
X00217Y00681*
X00197Y00661*
X00177Y00681*
X-00312Y-0027D02*
X-00292Y-0025D01*
X-00272Y-0027*
X-00292Y-0029*
X-00312Y-0027*
X00135Y00958D02*
X00155Y00978D01*
X00175Y00958*
X00155Y00938*
X00135Y00958*
X00272Y-00499D02*
X00292Y-00479D01*
X00312Y-00499*
X00292Y-00519*
X00272Y-00499*
X-00067Y-00089D02*
X-00047Y-00069D01*
X-00027Y-00089*
X-00047Y-00109*
X-00067Y-00089*
X-00907Y-00879D02*
X-00887Y-00859D01*
X-00867Y-00879*
X-00887Y-00899*
X-00907Y-00879*
X0058Y-00782D02*
X006Y-00762D01*
X0062Y-00782*
X006Y-00802*
X0058Y-00782*
X00502Y00958D02*
X00522Y00978D01*
X00542Y00958*
X00522Y00938*
X00502Y00958*
X00383Y-01053D02*
X00403Y-01033D01*
X00423Y-01053*
X00403Y-01073*
X00383Y-01053*
X01409Y-00945D02*
X01429Y-00925D01*
X01449Y-00945*
X01429Y-00965*
X01409Y-00945*
X-0143Y00917D02*
X-0141Y00937D01*
X-0139Y00917*
X-0141Y00897*
X-0143Y00917*
X-00765Y00539D02*
X-00745Y00559D01*
X-00725Y00539*
X-00745Y00519*
X-00765Y00539*
X00441Y-00677D02*
X00461Y-00657D01*
X00481Y-00677*
X00461Y-00697*
X00441Y-00677*
X01092Y-01012D02*
X01112Y-00992D01*
X01132Y-01012*
X01112Y-01032*
X01092Y-01012*
X00542Y-01234D02*
X00562Y-01214D01*
X00582Y-01234*
X00562Y-01254*
X00542Y-01234*
X00961Y-01251D02*
X00981Y-01231D01*
X01001Y-01251*
X00981Y-01271*
X00961Y-01251*
X00758D02*
X00778Y-01231D01*
X00798Y-01251*
X00778Y-01271*
X00758Y-01251*
X-00491Y-01249D02*
X-00471Y-01229D01*
X-00451Y-01249*
X-00471Y-01269*
X-00491Y-01249*
X-01429Y-00976D02*
X-01409Y-00956D01*
X-01389Y-00976*
X-01409Y-00996*
X-01429Y-00976*
X-01186Y-01237D02*
X-01166Y-01217D01*
X-01146Y-01237*
X-01166Y-01257*
X-01186Y-01237*
X-01441Y-01248D02*
X-01421Y-01228D01*
X-01401Y-01248*
X-01421Y-01268*
X-01441Y-01248*
X-01545Y-0116D02*
X-01525Y-0114D01*
X-01505Y-0116*
X-01525Y-0118*
X-01545Y-0116*
X-01049Y-01119D02*
X-01029Y-01099D01*
X-01009Y-01119*
X-01029Y-01139*
X-01049Y-01119*
X-0123Y-01112D02*
X-0121Y-01092D01*
X-0119Y-01112*
X-0121Y-01132*
X-0123Y-01112*
X-00586Y-00458D02*
X-00566Y-00438D01*
X-00546Y-00458*
X-00566Y-00478*
X-00586Y-00458*
X-01378Y-00717D02*
X-01358Y-00697D01*
X-01338Y-00717*
X-01358Y-00737*
X-01378Y-00717*
X-01047Y-00866D02*
X-01027Y-00846D01*
X-01007Y-00866*
X-01027Y-00886*
X-01047Y-00866*
X-00953Y-0124D02*
X-00933Y-0122D01*
X-00913Y-0124*
X-00933Y-0126*
X-00953Y-0124*
X-00409Y-00247D02*
X-00389Y-00227D01*
X-00369Y-00247*
X-00389Y-00267*
X-00409Y-00247*
X-01423Y00192D02*
X-01403Y00212D01*
X-01383Y00192*
X-01403Y00172*
X-01423Y00192*
X-00904Y-00803D02*
X-00884Y-00783D01*
X-00864Y-00803*
X-00884Y-00823*
X-00904Y-00803*
X-01028Y-00997D02*
X-01008Y-00977D01*
X-00988Y-00997*
X-01008Y-01017*
X-01028Y-00997*
X-00724Y-01244D02*
X-00704Y-01224D01*
X-00684Y-01244*
X-00704Y-01264*
X-00724Y-01244*
X00618Y-00232D02*
X00638Y-00212D01*
X00658Y-00232*
X00638Y-00252*
X00618Y-00232*
X-00378Y-0009D02*
X-00358Y-0007D01*
X-00338Y-0009*
X-00358Y-0011*
X-00378Y-0009*
X-00783Y-0013D02*
X-00763Y-0011D01*
X-00743Y-0013*
X-00763Y-0015*
X-00783Y-0013*
X-00528Y-00696D02*
X-00508Y-00676D01*
X-00488Y-00696*
X-00508Y-00716*
X-00528Y-00696*
X-00997Y00595D02*
X-00977Y00615D01*
X-00957Y00595*
X-00977Y00575*
X-00997Y00595*
X00802Y-00541D02*
X00822Y-00521D01*
X00842Y-00541*
X00822Y-00561*
X00802Y-00541*
X00442Y-00492D02*
X00462Y-00472D01*
X00482Y-00492*
X00462Y-00512*
X00442Y-00492*
X-01489Y-00184D02*
X-01469Y-00164D01*
X-01449Y-00184*
X-01469Y-00204*
X-01489Y-00184*
X01404Y00048D02*
X01424Y00068D01*
X01444Y00048*
X01424Y00028*
X01404Y00048*
X01025Y-00288D02*
X01045Y-00268D01*
X01065Y-00288*
X01045Y-00308*
X01025Y-00288*
X01386Y-00176D02*
X01406Y-00156D01*
X01426Y-00176*
X01406Y-00196*
X01386Y-00176*
X00335Y00091D02*
X00355Y00111D01*
X00375Y00091*
X00355Y00071*
X00335Y00091*
X00286Y-00132D02*
X00306Y-00112D01*
X00326Y-00132*
X00306Y-00152*
X00286Y-00132*
X0087Y-0007D02*
X0089Y-0005D01*
X0091Y-0007*
X0089Y-0009*
X0087Y-0007*
X01025Y-00018D02*
X01045Y00001D01*
X01065Y-00018*
X01045Y-00038*
X01025Y-00018*
X01285Y-00122D02*
X01305Y-00102D01*
X01325Y-00122*
X01305Y-00142*
X01285Y-00122*
X01491Y-00167D02*
X01511Y-00147D01*
X01531Y-00167*
X01511Y-00187*
X01491Y-00167*
X00857Y-00231D02*
X00877Y-00211D01*
X00897Y-00231*
X00877Y-00251*
X00857Y-00231*
X0048Y-00166D02*
X005Y-00146D01*
X0052Y-00166*
X005Y-00186*
X0048Y-00166*
X00457Y-00243D02*
X00477Y-00223D01*
X00497Y-00243*
X00477Y-00263*
X00457Y-00243*
X00307Y-00292D02*
X00327Y-00272D01*
X00347Y-00292*
X00327Y-00312*
X00307Y-00292*
X00308Y-00227D02*
X00328Y-00207D01*
X00348Y-00227*
X00328Y-00247*
X00308Y-00227*
X00265Y-00353D02*
X00285Y-00333D01*
X00305Y-00353*
X00285Y-00373*
X00265Y-00353*
X-00111Y-00313D02*
X-00091Y-00293D01*
X-00071Y-00313*
X-00091Y-00333*
X-00111Y-00313*
X00039Y-00417D02*
X00059Y-00397D01*
X00079Y-00417*
X00059Y-00437*
X00039Y-00417*
X-00054Y-00245D02*
X-00034Y-00225D01*
X-00014Y-00245*
X-00034Y-00265*
X-00054Y-00245*
X00012Y-01284D02*
X00032Y-01264D01*
X00052Y-01284*
X00032Y-01304*
X00012Y-01284*
X00055Y-01162D02*
X00075Y-01142D01*
X00095Y-01162*
X00075Y-01182*
X00055Y-01162*
X00109D02*
X00129Y-01142D01*
X00149Y-01162*
X00129Y-01182*
X00109Y-01162*
X-00128Y-01259D02*
X-00108Y-01239D01*
X-00088Y-01259*
X-00108Y-01279*
X-00128Y-01259*
X-00088Y-01151D02*
X-00068Y-01131D01*
X-00048Y-01151*
X-00068Y-01171*
X-00088Y-01151*
X-00112Y-01507D02*
X-00092Y-01487D01*
X-00072Y-01507*
X-00092Y-01527*
X-00112Y-01507*
X-00069Y-00757D02*
X-00049Y-00737D01*
X-00029Y-00757*
X-00049Y-00777*
X-00069Y-00757*
X-00226Y-00807D02*
X-00206Y-00787D01*
X-00186Y-00807*
X-00206Y-00827*
X-00226Y-00807*
X-00779Y-00731D02*
X-00759Y-00711D01*
X-00739Y-00731*
X-00759Y-00751*
X-00779Y-00731*
X-00782Y-00503D02*
X-00762Y-00483D01*
X-00742Y-00503*
X-00762Y-00523*
X-00782Y-00503*
X-00603Y-00621D02*
X-00583Y-00601D01*
X-00563Y-00621*
X-00583Y-00641*
X-00603Y-00621*
X-00475Y-01123D02*
X-00455Y-01103D01*
X-00435Y-01123*
X-00455Y-01143*
X-00475Y-01123*
X-00271Y-00976D02*
X-00251Y-00956D01*
X-00231Y-00976*
X-00251Y-00996*
X-00271Y-00976*
X-00274Y-01157D02*
X-00254Y-01137D01*
X-00234Y-01157*
X-00254Y-01177*
X-00274Y-01157*
X00043Y-00663D02*
X00063Y-00643D01*
X00083Y-00663*
X00063Y-00683*
X00043Y-00663*
X00672Y-00419D02*
X00692Y-00399D01*
X00712Y-00419*
X00692Y-00439*
X00672Y-00419*
X-00624Y-00797D02*
X-00604Y-00777D01*
X-00584Y-00797*
X-00604Y-00817*
X-00624Y-00797*
X-01136Y00448D02*
X-01116Y00468D01*
X-01096Y00448*
X-01116Y00428*
X-01136Y00448*
X01331Y00862D02*
X01351Y00882D01*
X01371Y00862*
X01351Y00842*
X01331Y00862*
X00881Y00338D02*
X00901Y00358D01*
X00921Y00338*
X00901Y00318*
X00881Y00338*
X00949Y00392D02*
X00969Y00412D01*
X00989Y00392*
X00969Y00372*
X00949Y00392*
X01289Y00621D02*
X01309Y00641D01*
X01329Y00621*
X01309Y00601*
X01289Y00621*
X0139Y00577D02*
X0141Y00597D01*
X0143Y00577*
X0141Y00557*
X0139Y00577*
X01334Y00418D02*
X01354Y00438D01*
X01374Y00418*
X01354Y00398*
X01334Y00418*
X01437Y00508D02*
X01457Y00528D01*
X01477Y00508*
X01457Y00488*
X01437Y00508*
X00997Y00101D02*
X01017Y00121D01*
X01037Y00101*
X01017Y00081*
X00997Y00101*
X01074Y00411D02*
X01094Y00431D01*
X01114Y00411*
X01094Y00391*
X01074Y00411*
X01242Y00407D02*
X01262Y00427D01*
X01282Y00407*
X01262Y00387*
X01242Y00407*
X0123Y00621D02*
X0125Y00641D01*
X0127Y00621*
X0125Y00601*
X0123Y00621*
X01159Y00425D02*
X01179Y00445D01*
X01199Y00425*
X01179Y00405*
X01159Y00425*
X01196Y00337D02*
X01216Y00357D01*
X01236Y00337*
X01216Y00317*
X01196Y00337*
X-01308Y-00076D02*
X-01288Y-00056D01*
X-01268Y-00076*
X-01288Y-00096*
X-01308Y-00076*
X-01373Y-00125D02*
X-01353Y-00105D01*
X-01333Y-00125*
X-01353Y-00145*
X-01373Y-00125*
X-0119Y00113D02*
X-0117Y00133D01*
X-0115Y00113*
X-0117Y00093*
X-0119Y00113*
X-0079Y00381D02*
X-0077Y00401D01*
X-0075Y00381*
X-0077Y00361*
X-0079Y00381*
X-01294Y00406D02*
X-01274Y00426D01*
X-01254Y00406*
X-01274Y00386*
X-01294Y00406*
X00294Y-00926D02*
X00314Y-00906D01*
X00334Y-00926*
X00314Y-00946*
X00294Y-00926*
X00947Y-01002D02*
X00967Y-00982D01*
X00987Y-01002*
X00967Y-01022*
X00947Y-01002*
X00604Y-01027D02*
X00624Y-01007D01*
X00644Y-01027*
X00624Y-01047*
X00604Y-01027*
X00441Y-01002D02*
X00461Y-00982D01*
X00481Y-01002*
X00461Y-01022*
X00441Y-01002*
X00482Y-00918D02*
X00502Y-00898D01*
X00522Y-00918*
X00502Y-00938*
X00482Y-00918*
X00373Y-012D02*
X00393Y-0118D01*
X00413Y-012*
X00393Y-0122*
X00373Y-012*
X01161Y-0123D02*
X01181Y-0121D01*
X01201Y-0123*
X01181Y-0125*
X01161Y-0123*
X0139Y-01234D02*
X0141Y-01214D01*
X0143Y-01234*
X0141Y-01254*
X0139Y-01234*
X01151Y-00126D02*
X01171Y-00106D01*
X01191Y-00126*
X01171Y-00146*
X01151Y-00126*
X-00148Y00576D02*
X-00128Y00596D01*
X-00108Y00576*
X-00128Y00556*
X-00148Y00576*
X-00885Y00461D02*
X-00865Y00481D01*
X-00845Y00461*
X-00865Y00441*
X-00885Y00461*
X-00919Y00384D02*
X-00899Y00404D01*
X-00879Y00384*
X-00899Y00364*
X-00919Y00384*
X-00629Y00623D02*
X-00609Y00643D01*
X-00589Y00623*
X-00609Y00603*
X-00629Y00623*
X00295Y-00846D02*
X00315Y-00826D01*
X00335Y-00846*
X00315Y-00866*
X00295Y-00846*
X00248Y-0081D02*
X00268Y-0079D01*
X00288Y-0081*
X00268Y-0083*
X00248Y-0081*
X00669Y0032D02*
X00689Y0034D01*
X00709Y0032*
X00689Y003*
X00669Y0032*
X00726Y00801D02*
X00746Y00821D01*
X00766Y00801*
X00746Y00781*
X00726Y00801*
X00646D02*
X00666Y00821D01*
X00686Y00801*
X00666Y00781*
X00646Y00801*
X00966Y00956D02*
X00986Y00976D01*
X01006Y00956*
X00986Y00936*
X00966Y00956*
X00665Y00603D02*
X00685Y00623D01*
X00705Y00603*
X00685Y00583*
X00665Y00603*
X00724D02*
X00744Y00623D01*
X00764Y00603*
X00744Y00583*
X00724Y00603*
X-01441Y-01079D02*
X-01421Y-01059D01*
X-01401Y-01079*
X-01421Y-01099*
X-01441Y-01079*
X00223Y-01104D02*
X00243Y-01084D01*
X00263Y-01104*
X00243Y-01124*
X00223Y-01104*
X00211Y-01308D02*
X00231Y-01288D01*
X00251Y-01308*
X00231Y-01328*
X00211Y-01308*
X00071Y-01507D02*
X00091Y-01487D01*
X00111Y-01507*
X00091Y-01527*
X00071Y-01507*
X0016Y-00499D02*
X0018Y-00479D01*
X002Y-00499*
X0018Y-00519*
X0016Y-00499*
X-00426Y00508D02*
X-00406Y00528D01*
X-00386Y00508*
X-00406Y00488*
X-00426Y00508*
X-00346Y00522D02*
X-00326Y00542D01*
X-00306Y00522*
X-00326Y00502*
X-00346Y00522*
X-00075Y00495D02*
X-00055Y00515D01*
X-00035Y00495*
X-00055Y00475*
X-00075Y00495*
X-00437Y00827D02*
X-00417Y00847D01*
X-00397Y00827*
X-00417Y00807*
X-00437Y00827*
X-00495Y00802D02*
X-00475Y00822D01*
X-00455Y00802*
X-00475Y00782*
X-00495Y00802*
X-00841Y00666D02*
X-00821Y00686D01*
X-00801Y00666*
X-00821Y00646*
X-00841Y00666*
X00964Y-00155D02*
X00984Y-00135D01*
X01004Y-00155*
X00984Y-00175*
X00964Y-00155*
X00335Y00191D02*
X00355Y00211D01*
X00375Y00191*
X00355Y00171*
X00335Y00191*
X00327Y00285D02*
X00347Y00305D01*
X00367Y00285*
X00347Y00265*
X00327Y00285*
G54D121*
X00183Y-01408D02*
D01*
X00183Y-01407*
X00183Y-01405*
X00182Y-01404*
X00182Y-01402*
X00182Y-01401*
X00181Y-014*
X00181Y-01399*
X0018Y-01397*
X00179Y-01396*
X00178Y-01395*
X00177Y-01394*
X00176Y-01393*
X00175Y-01392*
X00174Y-01391*
X00173Y-01391*
X00172Y-0139*
X0017Y-01389*
X00169Y-01389*
X00168Y-01389*
X00166Y-01388*
X00165Y-01388*
X00164Y-01388*
X00162*
X00161Y-01388*
X00159Y-01388*
X00158Y-01389*
X00157Y-01389*
X00155Y-01389*
X00154Y-0139*
X00153Y-01391*
X00152Y-01391*
X00151Y-01392*
X0015Y-01393*
X00149Y-01394*
X00148Y-01395*
X00147Y-01396*
X00146Y-01397*
X00145Y-01399*
X00145Y-014*
X00144Y-01401*
X00144Y-01402*
X00143Y-01404*
X00143Y-01405*
X00143Y-01407*
X00143Y-01408*
X00143Y-01409*
X00143Y-01411*
X00143Y-01412*
X00144Y-01413*
X00144Y-01415*
X00145Y-01416*
X00145Y-01417*
X00146Y-01419*
X00147Y-0142*
X00148Y-01421*
X00149Y-01422*
X0015Y-01423*
X00151Y-01424*
X00152Y-01425*
X00153Y-01425*
X00154Y-01426*
X00155Y-01427*
X00157Y-01427*
X00158Y-01427*
X00159Y-01428*
X00161Y-01428*
X00162Y-01428*
X00164*
X00165Y-01428*
X00166Y-01428*
X00168Y-01427*
X00169Y-01427*
X0017Y-01427*
X00172Y-01426*
X00173Y-01425*
X00174Y-01425*
X00175Y-01424*
X00176Y-01423*
X00177Y-01422*
X00178Y-01421*
X00179Y-0142*
X0018Y-01419*
X00181Y-01417*
X00181Y-01416*
X00182Y-01415*
X00182Y-01413*
X00182Y-01412*
X00183Y-01411*
X00183Y-01409*
X00183Y-01408*
X-00143D02*
D01*
X-00143Y-01407*
X-00143Y-01405*
X-00143Y-01404*
X-00144Y-01402*
X-00144Y-01401*
X-00145Y-014*
X-00145Y-01399*
X-00146Y-01397*
X-00147Y-01396*
X-00148Y-01395*
X-00149Y-01394*
X-0015Y-01393*
X-00151Y-01392*
X-00152Y-01391*
X-00153Y-01391*
X-00154Y-0139*
X-00155Y-01389*
X-00157Y-01389*
X-00158Y-01389*
X-00159Y-01388*
X-00161Y-01388*
X-00162Y-01388*
X-00164*
X-00165Y-01388*
X-00166Y-01388*
X-00168Y-01389*
X-00169Y-01389*
X-0017Y-01389*
X-00172Y-0139*
X-00173Y-01391*
X-00174Y-01391*
X-00175Y-01392*
X-00176Y-01393*
X-00177Y-01394*
X-00178Y-01395*
X-00179Y-01396*
X-0018Y-01397*
X-00181Y-01399*
X-00181Y-014*
X-00182Y-01401*
X-00182Y-01402*
X-00182Y-01404*
X-00183Y-01405*
X-00183Y-01407*
X-00183Y-01408*
X-00183Y-01409*
X-00183Y-01411*
X-00182Y-01412*
X-00182Y-01413*
X-00182Y-01415*
X-00181Y-01416*
X-00181Y-01417*
X-0018Y-01419*
X-00179Y-0142*
X-00178Y-01421*
X-00177Y-01422*
X-00176Y-01423*
X-00175Y-01424*
X-00174Y-01425*
X-00173Y-01425*
X-00172Y-01426*
X-0017Y-01427*
X-00169Y-01427*
X-00168Y-01427*
X-00166Y-01428*
X-00165Y-01428*
X-00164Y-01428*
X-00162*
X-00161Y-01428*
X-00159Y-01428*
X-00158Y-01427*
X-00157Y-01427*
X-00155Y-01427*
X-00154Y-01426*
X-00153Y-01425*
X-00152Y-01425*
X-00151Y-01424*
X-0015Y-01423*
X-00149Y-01422*
X-00148Y-01421*
X-00147Y-0142*
X-00146Y-01419*
X-00145Y-01417*
X-00145Y-01416*
X-00144Y-01415*
X-00144Y-01413*
X-00143Y-01412*
X-00143Y-01411*
X-00143Y-01409*
X-00143Y-01408*
M02*