%FSTAX23Y23*%
%MOIN*%
%SFA1B1*%

%IPPOS*%
%ADD73C,0.009840*%
%ADD74C,0.007870*%
%ADD75C,0.010000*%
%ADD76C,0.008000*%
%ADD77C,0.005910*%
%ADD78C,0.005910*%
%ADD79R,0.220470X0.031500*%
%LNunisolder52_back-1*%
%LPD*%
G36*
X04691Y03051D02*
X04673D01*
X04674Y03058*
X04674Y03058*
X04673Y03057*
X04672Y03056*
X04671Y03055*
X04669Y03054*
X04668Y03053*
X04666Y03052*
X04664Y03051*
X04664Y03051*
X04663Y03051*
X04662Y0305*
X04661Y0305*
X04659Y0305*
X04657Y03049*
X04655Y03049*
X04653Y03049*
X04652*
X04651Y03049*
X0465Y03049*
X04649Y03049*
X04647Y0305*
X04644Y03051*
X04642Y03051*
X04641Y03052*
X04639Y03053*
X04638Y03054*
X04637Y03055*
X04635Y03056*
X04635Y03056*
X04635Y03057*
X04635Y03057*
X04634Y03058*
X04634Y03058*
X04633Y03059*
X04633Y03061*
X04632Y03062*
X04631Y03063*
X04631Y03065*
X0463Y03067*
X0463Y03069*
X04629Y03071*
X04629Y03073*
X04629Y03076*
X04629Y03078*
Y03078*
Y03079*
X04629Y0308*
Y03081*
X04629Y03082*
X04629Y03084*
X04629Y03086*
X0463Y03088*
X0463Y03091*
X04631Y03093*
X04632Y03095*
X04633Y03098*
X04634Y03101*
X04635Y03103*
X04637Y03106*
X04638Y03108*
X04638Y03109*
X04639Y03109*
X04639Y0311*
X0464Y03111*
X04641Y03112*
X04642Y03113*
X04643Y03114*
X04645Y03115*
X04647Y03117*
X04649Y03118*
X04651Y03119*
X04653Y0312*
X04655Y03121*
X04658Y03121*
X04661Y03122*
X04664Y03122*
X04664*
X04665Y03122*
X04666*
X04667Y03122*
X04668Y03121*
X0467Y03121*
X04672Y03121*
X04673Y0312*
X04675Y03119*
X04677Y03118*
X04678Y03117*
X0468Y03116*
X04682Y03115*
X04683Y03113*
X04685Y03111*
X04693Y03147*
X04712*
X04691Y03051*
G37*
G36*
X04834Y03122D02*
X04835Y03122D01*
X04836Y03122*
X04838Y03121*
X04839Y03121*
X04841Y0312*
X04834Y03105*
X04834*
X04833Y03105*
X04833Y03105*
X04832Y03105*
X04831Y03105*
X04831Y03105*
X04828Y03106*
X04828*
X04827Y03105*
X04825Y03105*
X04824Y03105*
X04822Y03104*
X0482Y03103*
X04819Y03102*
X04818Y03102*
X04818Y03101*
X04817Y031*
X04816Y03099*
X04814Y03098*
X04813Y03096*
X04812Y03094*
X04811Y03092*
Y03092*
X04811Y03092*
X0481Y03091*
X0481Y03091*
X0481Y0309*
X0481Y03089*
X04809Y03088*
X04809Y03087*
X04808Y03086*
X04808Y03084*
X04808Y03083*
X04807Y03081*
X04807Y03079*
X04806Y03077*
X04806Y03075*
X04805Y03072*
X04801Y03051*
X04782*
X04796Y0312*
X04814*
X04811Y03107*
X04811Y03107*
X04812Y03108*
X04812Y03108*
X04813Y03109*
X04814Y0311*
X04815Y03112*
X04816Y03113*
X04817Y03115*
X04819Y03116*
X04821Y03117*
X04822Y03119*
X04824Y0312*
X04826Y03121*
X04828Y03121*
X0483Y03122*
X04832Y03122*
X04833*
X04834Y03122*
G37*
G36*
X04469Y03148D02*
X04471Y03148D01*
X04472Y03148*
X04474Y03148*
X04476Y03148*
X0448Y03147*
X04482Y03146*
X04485Y03145*
X04487Y03144*
X04489Y03143*
X04491Y03142*
X04493Y03141*
X04493Y0314*
X04493Y0314*
X04493Y0314*
X04494Y03139*
X04495Y03138*
X04496Y03137*
X04496Y03136*
X04497Y03135*
X04498Y03134*
X04499Y03132*
X045Y0313*
X04501Y03128*
X04501Y03126*
X04502Y03124*
X04503Y03122*
X04503Y03119*
X04484Y03119*
Y03119*
Y03119*
X04484Y03119*
Y0312*
X04483Y03121*
X04483Y03123*
X04482Y03124*
X04481Y03126*
X0448Y03128*
X04479Y03129*
X04479Y03129*
X04478Y0313*
X04477Y0313*
X04476Y03131*
X04474Y03132*
X04472Y03132*
X04469Y03133*
X04466Y03133*
X04465*
X04463Y03133*
X04462Y03133*
X0446Y03132*
X04458Y03132*
X04456Y03131*
X04455Y0313*
X04454Y0313*
X04454Y03129*
X04453Y03129*
X04453Y03128*
X04452Y03127*
X04452Y03126*
X04451Y03124*
X04451Y03123*
Y03123*
Y03122*
X04451Y03121*
X04451Y0312*
X04452Y03119*
X04452Y03118*
X04453Y03117*
X04454Y03116*
X04454Y03116*
X04455Y03115*
X04456Y03115*
X04456Y03114*
X04457Y03114*
X04458Y03113*
X04459Y03113*
X0446Y03112*
X04462Y03111*
X04463Y03111*
X04465Y0311*
X04466Y03109*
X04468Y03108*
X04469Y03108*
X04469Y03108*
X0447Y03108*
X04471Y03107*
X04472Y03107*
X04474Y03106*
X04476Y03105*
X04477Y03104*
X04481Y03102*
X04484Y031*
X04486Y03099*
X04487Y03098*
X04489Y03098*
X0449Y03097*
X0449Y03097*
X0449Y03096*
X0449Y03096*
X04491Y03095*
X04491Y03095*
X04492Y03094*
X04492Y03093*
X04493Y03092*
X04494Y0309*
X04495Y03087*
X04496Y03083*
X04496Y03082*
X04496Y0308*
Y0308*
Y03079*
X04496Y03078*
Y03078*
X04496Y03076*
X04496Y03075*
X04496Y03074*
X04495Y03072*
X04495Y03071*
X04494Y03069*
X04493Y03067*
X04492Y03065*
X04491Y03063*
X0449Y03061*
X04488Y0306*
X04486Y03058*
X04486Y03058*
X04486Y03058*
X04485Y03057*
X04484Y03057*
X04483Y03056*
X04482Y03055*
X04481Y03054*
X04479Y03053*
X04477Y03053*
X04475Y03052*
X04473Y03051*
X0447Y0305*
X04468Y0305*
X04465Y03049*
X04462Y03049*
X04458Y03049*
X04457*
X04456Y03049*
X04455*
X04454Y03049*
X04453Y03049*
X04451Y03049*
X04448Y0305*
X04444Y03051*
X0444Y03052*
X04437Y03053*
X04437*
X04436Y03053*
X04436Y03053*
X04435Y03054*
X04435Y03054*
X04434Y03055*
X04432Y03056*
X0443Y03058*
X04428Y0306*
X04426Y03062*
X04425Y03063*
X04424Y03065*
Y03065*
X04424Y03065*
X04424Y03065*
X04423Y03066*
X04423Y03067*
X04423Y03067*
X04422Y03068*
X04422Y0307*
X04421Y03072*
X04421Y03075*
X04421Y03078*
Y03082*
X04439Y03083*
Y03083*
Y03082*
Y03082*
X0444Y03081*
X0444Y0308*
X0444Y03078*
X0444Y03076*
X04441Y03074*
X04442Y03072*
X04442Y03071*
X04442Y0307*
X04443Y0307*
X04443Y0307*
X04444Y03069*
X04444Y03069*
X04445Y03068*
X04446Y03068*
X04447Y03067*
X04448Y03067*
X0445Y03067*
X04451Y03066*
X04453Y03066*
X04454Y03066*
X04456Y03065*
X0446*
X04461Y03066*
X04462*
X04464Y03066*
X04466Y03066*
X04469Y03067*
X04471Y03068*
X04472Y03068*
X04473Y03069*
X04473Y03069*
X04473Y03069*
X04474Y0307*
X04475Y03071*
X04476Y03072*
X04476Y03074*
X04477Y03076*
X04477Y03077*
Y03078*
Y03078*
X04477Y03079*
X04476Y0308*
X04476Y03081*
X04475Y03082*
X04475Y03083*
X04473Y03085*
X04473Y03085*
X04473Y03085*
X04472Y03085*
X04471Y03086*
X04471Y03086*
X0447Y03087*
X04469Y03087*
X04468Y03088*
X04466Y03088*
X04465Y03089*
X04463Y0309*
X04462Y03091*
X0446Y03092*
X04459*
X04459Y03092*
X04459Y03092*
X04458Y03092*
X04457Y03093*
X04456Y03093*
X04453Y03094*
X04451Y03096*
X04448Y03097*
X04445Y03098*
X04444Y03099*
X04443Y031*
X04443Y031*
X04442Y031*
X04441Y03101*
X0444Y03102*
X04439Y03103*
X04438Y03105*
X04436Y03106*
X04435Y03108*
X04435Y03108*
X04435Y03109*
X04434Y0311*
X04434Y03112*
X04433Y03113*
X04433Y03115*
X04432Y03118*
X04432Y0312*
Y0312*
Y03121*
Y03121*
X04432Y03122*
X04432Y03123*
X04433Y03125*
X04433Y03126*
X04433Y03127*
X04434Y03129*
X04434Y03131*
X04435Y03132*
X04436Y03134*
X04437Y03136*
X04438Y03137*
X04439Y03139*
X04441Y0314*
X04441Y03141*
X04441Y03141*
X04442Y03141*
X04443Y03142*
X04443Y03142*
X04445Y03143*
X04446Y03144*
X04447Y03145*
X04449Y03145*
X04451Y03146*
X04453Y03147*
X04455Y03147*
X04458Y03148*
X0446Y03148*
X04463Y03148*
X04466Y03149*
X04468*
X04469Y03148*
G37*
G36*
X04355Y03122D02*
X04356D01*
X04357Y03122*
X04359Y03121*
X04361Y03121*
X04363Y0312*
X04366Y03119*
X04368Y03117*
X04368Y03117*
X04368Y03116*
X04369Y03115*
X0437Y03114*
X04371Y03112*
X04372Y03109*
X04372Y03107*
X04373Y03104*
Y03104*
Y03103*
X04372Y03102*
X04372Y03101*
X04372Y031*
X04372Y03099*
X04372Y03098*
X04372Y03096*
X04371Y03095*
X04371Y03093*
X04371Y03092*
X0437Y0309*
X04362Y03051*
X04343*
X04352Y0309*
Y0309*
X04352Y0309*
Y03091*
X04352Y03091*
X04352Y03093*
X04352Y03095*
X04353Y03097*
X04353Y03098*
X04353Y031*
X04353Y031*
Y03101*
Y03101*
Y03101*
X04353Y03102*
X04353Y03103*
X04353Y03104*
X04353Y03105*
X04352Y03106*
X04351Y03106*
X04351Y03107*
X04351Y03107*
X0435Y03107*
X0435Y03108*
X04349Y03108*
X04348Y03108*
X04347Y03108*
X04345Y03109*
X04345*
X04344Y03108*
X04343Y03108*
X04341Y03108*
X0434Y03107*
X04338Y03106*
X04336Y03105*
X04336Y03105*
X04335Y03104*
X04334Y03104*
X04333Y03103*
X04332Y03101*
X0433Y031*
X04329Y03098*
X04328Y03096*
X04328Y03096*
X04328Y03095*
X04327Y03095*
X04327Y03094*
X04327Y03093*
X04327Y03092*
X04326Y03091*
X04326Y0309*
X04325Y03089*
X04325Y03087*
X04325Y03085*
X04324Y03084*
X04324Y03081*
X04323Y03079*
X04317Y03051*
X04298*
X04313Y0312*
X04331*
X04329Y03111*
X04329Y03111*
X04329Y03111*
X0433Y03112*
X0433Y03112*
X04332Y03113*
X04333Y03114*
X04335Y03116*
X04337Y03117*
X04339Y03118*
X04342Y0312*
X04342*
X04342Y0312*
X04343Y0312*
X04344Y0312*
X04345Y03121*
X04347Y03121*
X04349Y03122*
X04352Y03122*
X04354Y03122*
X04355*
X04355Y03122*
G37*
G36*
X04291Y03092D02*
Y03092D01*
X0429Y03092*
X0429Y03091*
X0429Y0309*
X0429Y03088*
X04289Y03087*
X04289Y03085*
X04288Y03083*
X04287Y03079*
X04286Y03075*
X04284Y03071*
X04283Y03069*
X04282Y03068*
Y03068*
X04282Y03067*
X04282Y03067*
X04281Y03066*
X04281Y03066*
X0428Y03065*
X04279Y03063*
X04277Y03061*
X04274Y03059*
X04271Y03056*
X04268Y03054*
X04268*
X04268Y03054*
X04267Y03054*
X04266Y03053*
X04265Y03053*
X04264Y03053*
X04263Y03052*
X04261Y03052*
X0426Y03051*
X04258Y03051*
X04256Y0305*
X04254Y0305*
X04252Y03049*
X04249Y03049*
X04247Y03049*
X04244Y03049*
X04242*
X04241Y03049*
X0424Y03049*
X04238Y03049*
X04236Y0305*
X04234Y0305*
X0423Y03051*
X04228Y03052*
X04225Y03052*
X04223Y03053*
X04221Y03054*
X04219Y03056*
X04217Y03057*
X04217Y03057*
X04217Y03058*
X04216Y03058*
X04216Y03059*
X04215Y03059*
X04214Y0306*
X04214Y03062*
X04213Y03063*
X04212Y03064*
X04211Y03066*
X0421Y03068*
X0421Y0307*
X04209Y03072*
X04208Y03074*
X04208Y03076*
X04208Y03078*
Y03078*
Y03079*
Y03079*
X04208Y0308*
Y03081*
X04208Y03082*
X04209Y03084*
Y03084*
X04209Y03085*
X04209Y03085*
X04209Y03086*
X04209Y03087*
X04209Y03088*
X0421Y03089*
X0421Y0309*
X0421Y03091*
X0421Y03093*
X04211Y03094*
X04211Y03096*
X04222Y03147*
X04242*
X04231Y03094*
X04228Y03082*
Y03082*
Y03081*
X04228Y03081*
X04228Y03081*
X04227Y03079*
X04227Y03077*
Y03077*
X04227Y03077*
X04227Y03076*
X04228Y03074*
X04228Y03073*
X04229Y03072*
X0423Y0307*
X04232Y03069*
X04232Y03069*
X04233Y03068*
X04234Y03068*
X04235Y03067*
X04237Y03067*
X04239Y03066*
X04242Y03066*
X04245Y03065*
X04246*
X04248Y03066*
X04249Y03066*
X04251Y03066*
X04253Y03067*
X04256Y03067*
X04258Y03068*
X04258Y03068*
X04258Y03069*
X04259Y03069*
X0426Y0307*
X04262Y03071*
X04263Y03073*
X04264Y03074*
X04265Y03076*
Y03076*
X04266Y03076*
X04266Y03077*
X04266Y03077*
X04266Y03078*
X04267Y03078*
X04267Y03079*
X04267Y0308*
X04268Y03082*
X04268Y03083*
X04269Y03084*
X04269Y03086*
X0427Y03088*
X0427Y0309*
X04271Y03092*
X04271Y03094*
X04282Y03147*
X04302*
X04291Y03092*
G37*
G36*
X04751Y03122D02*
X04753Y03122D01*
X04754Y03122*
X04755Y03121*
X04757Y03121*
X0476Y0312*
X04762Y03119*
X04763Y03119*
X04765Y03118*
X04767Y03117*
X04768Y03115*
X0477Y03114*
X0477Y03114*
X0477Y03114*
X0477Y03113*
X04771Y03113*
X04771Y03112*
X04772Y03111*
X04773Y0311*
X04773Y03108*
X04774Y03107*
X04775Y03105*
X04775Y03103*
X04776Y03101*
X04776Y03099*
X04777Y03097*
X04777Y03095*
X04777Y03092*
Y03092*
Y03092*
Y03091*
Y03091*
X04777Y03089*
Y03088*
X04777Y03086*
X04777Y03084*
X04776Y03082*
X04776Y0308*
X04729*
Y0308*
Y03079*
X04729Y03078*
Y03078*
Y03078*
Y03078*
Y03077*
X04729Y03077*
X04729Y03076*
X04729Y03074*
X0473Y03072*
X0473Y0307*
X04731Y03068*
X04733Y03067*
X04733Y03067*
X04733Y03066*
X04734Y03065*
X04735Y03065*
X04737Y03064*
X04738Y03063*
X0474Y03063*
X04742Y03062*
X04743*
X04743Y03063*
X04744*
X04745Y03063*
X04745Y03063*
X04748Y03064*
X04749Y03064*
X0475Y03065*
X04751Y03066*
X04752Y03067*
X04754Y03068*
X04755Y03069*
X04756Y0307*
X04757Y03072*
X04774Y03069*
Y03069*
X04774Y03069*
X04773Y03068*
X04773Y03068*
X04772Y03067*
X04772Y03066*
X0477Y03064*
X04768Y03061*
X04766Y03059*
X04764Y03056*
X04761Y03054*
X0476*
X0476Y03054*
X0476Y03053*
X04759Y03053*
X04758Y03053*
X04757Y03052*
X04756Y03052*
X04755Y03051*
X04752Y03051*
X04749Y0305*
X04746Y03049*
X04742Y03049*
X04741*
X0474Y03049*
X04739Y03049*
X04737Y03049*
X04736Y0305*
X04734Y0305*
X04732Y03051*
X0473Y03051*
X04728Y03052*
X04727Y03053*
X04725Y03054*
X04723Y03055*
X04721Y03056*
X04719Y03058*
X04719Y03058*
X04719Y03058*
X04719Y03059*
X04718Y03059*
X04717Y0306*
X04717Y03061*
X04716Y03063*
X04715Y03064*
X04714Y03066*
X04713Y03067*
X04713Y03069*
X04712Y03071*
X04711Y03074*
X04711Y03076*
X04711Y03079*
X04711Y03081*
Y03081*
Y03082*
Y03083*
X04711Y03084*
X04711Y03085*
X04711Y03086*
X04711Y03088*
X04712Y0309*
X04712Y03092*
X04712Y03094*
X04713Y03096*
X04714Y03098*
X04715Y031*
X04716Y03103*
X04717Y03105*
X04718Y03107*
X04719Y03107*
X04719Y03108*
X0472Y03108*
X0472Y03109*
X04722Y0311*
X04723Y03112*
X04724Y03113*
X04726Y03115*
X04728Y03116*
X04731Y03117*
X04733Y03119*
X04736Y0312*
X04739Y03121*
X04742Y03121*
X04746Y03122*
X04749Y03122*
X04751*
X04751Y03122*
G37*
G36*
X04552D02*
X04553Y03122D01*
X04555Y03122*
X04556Y03121*
X04558Y03121*
X0456Y03121*
X04562Y0312*
X04564Y03119*
X04566Y03118*
X04568Y03117*
X0457Y03116*
X04572Y03115*
X04573Y03113*
X04573Y03113*
X04574Y03113*
X04574Y03113*
X04575Y03112*
X04575Y03111*
X04576Y0311*
X04577Y03109*
X04578Y03107*
X04578Y03106*
X04579Y03104*
X0458Y03102*
X04581Y031*
X04581Y03098*
X04582Y03096*
X04582Y03093*
X04582Y03091*
Y0309*
Y0309*
X04582Y03089*
Y03088*
X04582Y03086*
X04581Y03085*
X04581Y03083*
X04581Y03081*
X0458Y03078*
X04579Y03076*
X04578Y03073*
X04577Y03071*
X04576Y03068*
X04575Y03066*
X04573Y03064*
X04571Y03061*
X04571Y03061*
X04571Y03061*
X0457Y0306*
X04569Y03059*
X04568Y03058*
X04567Y03057*
X04565Y03056*
X04563Y03055*
X04561Y03054*
X04559Y03053*
X04557Y03052*
X04554Y03051*
X04552Y0305*
X04549Y03049*
X04545Y03049*
X04542Y03049*
X04541*
X0454Y03049*
X0454*
X04539Y03049*
X04536Y03049*
X04534Y0305*
X04531Y03051*
X04528Y03052*
X04525Y03053*
X04525*
X04524Y03053*
X04524Y03053*
X04523Y03054*
X04522Y03054*
X0452Y03056*
X04519Y03057*
X04517Y03059*
X04515Y03061*
X04513Y03064*
Y03064*
X04513Y03064*
X04513Y03065*
X04513Y03065*
X04512Y03066*
X04512Y03067*
X04512Y03069*
X04511Y03071*
X0451Y03074*
X0451Y03076*
X0451Y0308*
Y0308*
Y0308*
X0451Y03081*
Y03083*
X0451Y03084*
X0451Y03086*
X04511Y03088*
X04511Y03091*
X04512Y03093*
X04512Y03096*
X04513Y03098*
X04514Y03101*
X04516Y03103*
X04517Y03106*
X04519Y03108*
X04521Y0311*
X04521Y03111*
X04521Y03111*
X04522Y03112*
X04523Y03112*
X04524Y03113*
X04525Y03114*
X04526Y03115*
X04528Y03116*
X0453Y03117*
X04532Y03118*
X04535Y03119*
X04537Y0312*
X0454Y03121*
X04543Y03122*
X04546Y03122*
X04549Y03122*
X04551*
X04552Y03122*
G37*
G36*
X04608Y03051D02*
X04589D01*
X04609Y03147*
X04628*
X04608Y03051*
G37*
G36*
X04399D02*
X0438D01*
X04395Y0312*
X04413*
X04399Y03051*
G37*
G36*
X04415Y0313D02*
X04397D01*
X044Y03147*
X04419*
X04415Y0313*
G37*
G36*
X05559Y04115D02*
X05579D01*
X05589Y04105*
X05604*
X05629Y0408*
X05639*
X05664Y04055*
Y04045*
X05689Y0402*
Y04005*
X05699Y03995*
Y03975*
X05709Y03965*
Y03885*
X05704Y0388*
Y03855*
X05694Y03845*
Y0383*
X05679Y03815*
Y03805*
X05619Y03745*
X05609*
X05594Y0373*
X05579*
X05569Y0372*
X05549*
X05544Y03715*
X05504*
Y0392*
Y04125*
X05549*
X05559Y04115*
G37*
G36*
X04334Y04057D02*
Y04042D01*
X04348Y04028*
Y04014*
X04359Y04004*
Y03968*
X04366Y03961*
Y03926*
X04359Y03919*
Y03883*
X04348Y03873*
Y03859*
X04334Y03844*
Y0383*
X04278Y03774*
X04271*
X04253Y03756*
X04239*
X04228Y03745*
X04207*
X042Y03738*
X04115*
X04108Y03745*
X04087*
X04076Y03756*
X04062*
X04048Y0377*
X04041*
X04013Y03798*
X04158Y03943*
X04302Y04088*
X04334Y04057*
G37*
G36*
X05223Y04743D02*
X05233D01*
X05263Y04713*
Y04703*
X05278Y04688*
Y04668*
X05283Y04663*
Y04653*
X05198*
X05218Y04673*
Y04708*
X05193Y04733*
X05163*
X05138Y04708*
Y04678*
X05163Y04653*
X05078*
Y04683*
X05088Y04693*
Y04708*
X05118Y04738*
X05128*
X05143Y04753*
X05213*
X05223Y04743*
G37*
G36*
X05339Y03777D02*
X05359D01*
X05369Y03767*
X05384*
X05409Y03742*
X05419*
X05444Y03717*
Y03707*
X05469Y03682*
Y03667*
X05479Y03657*
Y03637*
X05489Y03627*
Y03547*
X05484Y03542*
Y03517*
X05474Y03507*
Y03492*
X05459Y03477*
Y03467*
X05399Y03407*
X05389*
X05374Y03392*
X05359*
X05349Y03382*
X05329*
X05324Y03377*
X05284*
Y03582*
Y03787*
X05329*
X05339Y03777*
G37*
G36*
X04891Y03498D02*
Y03293D01*
X04846*
X04836Y03303*
X04816*
X04806Y03313*
X04791*
X04766Y03338*
X04756*
X04731Y03363*
Y03373*
X04706Y03398*
Y03413*
X04696Y03423*
Y03443*
X04686Y03453*
Y03533*
X04691Y03538*
Y03563*
X04701Y03573*
Y03588*
X04716Y03603*
Y03613*
X04776Y03673*
X04786*
X04801Y03688*
X04816*
X04826Y03698*
X04846*
X04851Y03703*
X04891*
Y03498*
G37*
%LNunisolder52_back-2*%
%LPC*%
G36*
X04246Y03926D02*
X04211D01*
X04193Y03908*
X04175Y0389*
Y03855*
X04211Y0382*
X04246*
X04281Y03855*
Y0389*
X04246Y03926*
G37*
G36*
X05629Y0397D02*
X05579D01*
X05554Y03945*
Y0392*
Y03895*
X05579Y0387*
X05629*
X05654Y03895*
Y03945*
X05629Y0397*
G37*
G36*
X04666Y03108D02*
X04665D01*
X04665Y03108*
X04664Y03108*
X04663Y03108*
X04661Y03107*
X0466Y03107*
X04659Y03106*
X04658Y03105*
X04657Y03104*
X04656Y03103*
X04654Y03102*
X04653Y03101*
X04652Y03099*
Y03099*
X04652Y03099*
X04652Y03098*
X04651Y03097*
X04651Y03096*
X04651Y03095*
X0465Y03094*
X0465Y03093*
X04649Y03092*
X04649Y0309*
X04648Y03087*
X04647Y03083*
X04647Y03081*
X04647Y03079*
Y03079*
Y03079*
Y03078*
X04647Y03078*
X04647Y03076*
X04647Y03075*
X04648Y03073*
X04649Y03071*
X04649Y03069*
X04651Y03067*
X04651Y03067*
X04651Y03067*
X04652Y03066*
X04653Y03065*
X04655Y03064*
X04656Y03064*
X04658Y03063*
X0466Y03063*
X04661*
X04662Y03063*
X04663Y03064*
X04665Y03064*
X04666Y03065*
X04668Y03065*
X0467Y03067*
X0467Y03067*
X04671Y03067*
X04671Y03068*
X04672Y03069*
X04674Y03071*
X04675Y03073*
X04676Y03075*
X04677Y03077*
Y03077*
X04677Y03078*
X04677Y03078*
X04677Y03079*
X04678Y0308*
X04678Y03082*
X04679Y03084*
X04679Y03086*
X0468Y03089*
X0468Y03091*
Y03091*
Y03092*
Y03092*
Y03092*
X04679Y03094*
X04679Y03096*
X04679Y03098*
X04678Y031*
X04677Y03102*
X04676Y03103*
X04675Y03104*
X04675Y03104*
X04674Y03105*
X04673Y03106*
X04671Y03107*
X0467Y03107*
X04668Y03108*
X04666Y03108*
G37*
G36*
X04747Y03109D02*
X04747D01*
X04746Y03108*
X04745Y03108*
X04744Y03108*
X04742Y03107*
X0474Y03107*
X04739Y03106*
X04737Y03104*
X04737Y03104*
X04736Y03103*
X04735Y03102*
X04734Y03101*
X04733Y03099*
X04732Y03097*
X04731Y03094*
X04731Y03091*
X0476*
Y03091*
Y03092*
Y03092*
Y03093*
Y03093*
Y03093*
Y03094*
Y03094*
X0476Y03096*
X0476Y03097*
X04759Y03099*
X04759Y03101*
X04758Y03103*
X04757Y03105*
X04756Y03105*
X04756Y03105*
X04755Y03106*
X04754Y03107*
X04753Y03107*
X04751Y03108*
X04749Y03108*
X04747Y03109*
G37*
G36*
X05409Y03632D02*
X05359D01*
X05334Y03607*
Y03582*
Y03557*
X05359Y03532*
X05409*
X05434Y03557*
Y03607*
X05409Y03632*
G37*
G36*
X04549Y03108D02*
X04548D01*
X04547Y03108*
X04546Y03107*
X04544Y03107*
X04542Y03106*
X0454Y03105*
X04538Y03104*
X04538Y03104*
X04538Y03103*
X04537Y03102*
X04536Y03101*
X04535Y031*
X04533Y03098*
X04532Y03096*
X04531Y03093*
Y03093*
X04531Y03093*
X04531Y03092*
X04531Y03092*
X0453Y0309*
X0453Y03089*
X04529Y03087*
X04529Y03084*
X04529Y03082*
X04529Y0308*
Y0308*
Y03079*
Y03079*
X04529Y03078*
X04529Y03077*
X04529Y03075*
X0453Y03073*
X0453Y03072*
X04531Y0307*
X04533Y03068*
X04533Y03068*
X04533Y03067*
X04534Y03066*
X04535Y03066*
X04537Y03065*
X04539Y03064*
X04541Y03064*
X04543Y03063*
X04544*
X04544Y03064*
X04546Y03064*
X04547Y03064*
X04549Y03065*
X04552Y03066*
X04553Y03067*
X04554Y03068*
X04555Y03069*
X04556Y0307*
X04556Y0307*
X04556Y0307*
X04557Y03071*
X04557Y03072*
X04558Y03073*
X04558Y03074*
X04559Y03075*
X0456Y03076*
X0456Y03078*
X04561Y0308*
X04562Y03082*
X04562Y03084*
X04563Y03086*
X04563Y03088*
X04563Y03091*
X04563Y03093*
Y03093*
Y03093*
Y03094*
Y03094*
X04563Y03095*
X04563Y03097*
X04562Y03099*
X04562Y031*
X04561Y03102*
X04559Y03104*
X04559Y03104*
X04559Y03104*
X04558Y03105*
X04557Y03106*
X04555Y03107*
X04553Y03107*
X04552Y03108*
X04549Y03108*
G37*
G36*
X04816Y03548D02*
X04766D01*
X04741Y03523*
Y03473*
X04766Y03448*
X04816*
X04841Y03473*
Y03498*
Y03523*
X04816Y03548*
G37*
%LNunisolder52_back-3*%
%LPD*%
G54D73*
X06294Y03642D02*
D01*
X06294Y03643*
X06294Y03643*
X06294Y03643*
X06294Y03644*
X06293Y03644*
X06293Y03644*
X06293Y03645*
X06293Y03645*
X06293Y03645*
X06293Y03646*
X06292Y03646*
X06292Y03646*
X06292Y03646*
X06292Y03646*
X06291Y03647*
X06291Y03647*
X06291Y03647*
X0629Y03647*
X0629Y03647*
X0629Y03647*
X06289Y03647*
X06289Y03647*
X06289*
X06288Y03647*
X06288Y03647*
X06288Y03647*
X06287Y03647*
X06287Y03647*
X06287Y03647*
X06286Y03647*
X06286Y03646*
X06286Y03646*
X06286Y03646*
X06285Y03646*
X06285Y03646*
X06285Y03645*
X06285Y03645*
X06285Y03645*
X06284Y03644*
X06284Y03644*
X06284Y03644*
X06284Y03643*
X06284Y03643*
X06284Y03643*
X06284Y03642*
X06284Y03642*
X06284Y03642*
X06284Y03641*
X06284Y03641*
X06284Y03641*
X06284Y0364*
X06285Y0364*
X06285Y0364*
X06285Y0364*
X06285Y03639*
X06285Y03639*
X06286Y03639*
X06286Y03639*
X06286Y03638*
X06286Y03638*
X06287Y03638*
X06287Y03638*
X06287Y03638*
X06288Y03638*
X06288Y03638*
X06288Y03638*
X06289Y03637*
X06289*
X06289Y03638*
X0629Y03638*
X0629Y03638*
X0629Y03638*
X06291Y03638*
X06291Y03638*
X06291Y03638*
X06292Y03638*
X06292Y03639*
X06292Y03639*
X06292Y03639*
X06293Y03639*
X06293Y0364*
X06293Y0364*
X06293Y0364*
X06293Y0364*
X06293Y03641*
X06294Y03641*
X06294Y03641*
X06294Y03642*
X06294Y03642*
X06294Y03642*
X0443Y04215D02*
D01*
X0443Y04215*
X0443Y04216*
X0443Y04216*
X04429Y04216*
X04429Y04217*
X04429Y04217*
X04429Y04217*
X04429Y04218*
X04429Y04218*
X04429Y04218*
X04428Y04218*
X04428Y04219*
X04428Y04219*
X04428Y04219*
X04427Y04219*
X04427Y04219*
X04427Y0422*
X04426Y0422*
X04426Y0422*
X04426Y0422*
X04425Y0422*
X04425Y0422*
X04425*
X04424Y0422*
X04424Y0422*
X04424Y0422*
X04423Y0422*
X04423Y0422*
X04423Y04219*
X04422Y04219*
X04422Y04219*
X04422Y04219*
X04421Y04219*
X04421Y04218*
X04421Y04218*
X04421Y04218*
X04421Y04218*
X0442Y04217*
X0442Y04217*
X0442Y04217*
X0442Y04216*
X0442Y04216*
X0442Y04216*
X0442Y04215*
X0442Y04215*
X0442Y04215*
X0442Y04214*
X0442Y04214*
X0442Y04214*
X0442Y04213*
X0442Y04213*
X0442Y04213*
X04421Y04212*
X04421Y04212*
X04421Y04212*
X04421Y04212*
X04421Y04211*
X04422Y04211*
X04422Y04211*
X04422Y04211*
X04423Y04211*
X04423Y0421*
X04423Y0421*
X04424Y0421*
X04424Y0421*
X04424Y0421*
X04425Y0421*
X04425*
X04425Y0421*
X04426Y0421*
X04426Y0421*
X04426Y0421*
X04427Y0421*
X04427Y04211*
X04427Y04211*
X04428Y04211*
X04428Y04211*
X04428Y04211*
X04428Y04212*
X04429Y04212*
X04429Y04212*
X04429Y04212*
X04429Y04213*
X04429Y04213*
X04429Y04213*
X04429Y04214*
X0443Y04214*
X0443Y04214*
X0443Y04215*
X0443Y04215*
X05204Y03164D02*
D01*
X05204Y03164*
X05204Y03165*
X05204Y03165*
X05204Y03165*
X05204Y03166*
X05204Y03166*
X05204Y03166*
X05204Y03167*
X05203Y03167*
X05203Y03167*
X05203Y03167*
X05203Y03168*
X05202Y03168*
X05202Y03168*
X05202Y03168*
X05201Y03168*
X05201Y03169*
X05201Y03169*
X05201Y03169*
X052Y03169*
X052Y03169*
X052Y03169*
X05199*
X05199Y03169*
X05198Y03169*
X05198Y03169*
X05198Y03169*
X05197Y03169*
X05197Y03168*
X05197Y03168*
X05197Y03168*
X05196Y03168*
X05196Y03168*
X05196Y03167*
X05196Y03167*
X05195Y03167*
X05195Y03167*
X05195Y03166*
X05195Y03166*
X05195Y03166*
X05195Y03165*
X05195Y03165*
X05194Y03165*
X05194Y03164*
X05194Y03164*
X05194Y03164*
X05194Y03163*
X05195Y03163*
X05195Y03163*
X05195Y03162*
X05195Y03162*
X05195Y03162*
X05195Y03161*
X05195Y03161*
X05196Y03161*
X05196Y03161*
X05196Y0316*
X05196Y0316*
X05197Y0316*
X05197Y0316*
X05197Y0316*
X05197Y03159*
X05198Y03159*
X05198Y03159*
X05198Y03159*
X05199Y03159*
X05199Y03159*
X052*
X052Y03159*
X052Y03159*
X05201Y03159*
X05201Y03159*
X05201Y03159*
X05201Y0316*
X05202Y0316*
X05202Y0316*
X05202Y0316*
X05203Y0316*
X05203Y03161*
X05203Y03161*
X05203Y03161*
X05204Y03161*
X05204Y03162*
X05204Y03162*
X05204Y03162*
X05204Y03163*
X05204Y03163*
X05204Y03163*
X05204Y03164*
X05204Y03164*
X06491Y04519D02*
D01*
X06491Y0452*
X06491Y0452*
X06491Y0452*
X0649Y04521*
X0649Y04521*
X0649Y04521*
X0649Y04522*
X0649Y04522*
X0649Y04522*
X06489Y04523*
X06489Y04523*
X06489Y04523*
X06489Y04523*
X06488Y04523*
X06488Y04524*
X06488Y04524*
X06488Y04524*
X06487Y04524*
X06487Y04524*
X06487Y04524*
X06486Y04524*
X06486Y04524*
X06486*
X06485Y04524*
X06485Y04524*
X06485Y04524*
X06484Y04524*
X06484Y04524*
X06484Y04524*
X06483Y04524*
X06483Y04523*
X06483Y04523*
X06482Y04523*
X06482Y04523*
X06482Y04523*
X06482Y04522*
X06482Y04522*
X06481Y04522*
X06481Y04521*
X06481Y04521*
X06481Y04521*
X06481Y0452*
X06481Y0452*
X06481Y0452*
X06481Y04519*
X06481Y04519*
X06481Y04519*
X06481Y04518*
X06481Y04518*
X06481Y04518*
X06481Y04517*
X06481Y04517*
X06482Y04517*
X06482Y04516*
X06482Y04516*
X06482Y04516*
X06482Y04516*
X06483Y04516*
X06483Y04515*
X06483Y04515*
X06484Y04515*
X06484Y04515*
X06484Y04515*
X06485Y04515*
X06485Y04515*
X06485Y04514*
X06486Y04514*
X06486*
X06486Y04514*
X06487Y04515*
X06487Y04515*
X06487Y04515*
X06488Y04515*
X06488Y04515*
X06488Y04515*
X06488Y04515*
X06489Y04516*
X06489Y04516*
X06489Y04516*
X06489Y04516*
X0649Y04516*
X0649Y04517*
X0649Y04517*
X0649Y04517*
X0649Y04518*
X0649Y04518*
X06491Y04518*
X06491Y04519*
X06491Y04519*
X06491Y04519*
Y0422D02*
D01*
X06491Y04221*
X06491Y04221*
X06491Y04221*
X0649Y04222*
X0649Y04222*
X0649Y04222*
X0649Y04222*
X0649Y04223*
X0649Y04223*
X06489Y04223*
X06489Y04224*
X06489Y04224*
X06489Y04224*
X06488Y04224*
X06488Y04224*
X06488Y04225*
X06488Y04225*
X06487Y04225*
X06487Y04225*
X06487Y04225*
X06486Y04225*
X06486Y04225*
X06486*
X06485Y04225*
X06485Y04225*
X06485Y04225*
X06484Y04225*
X06484Y04225*
X06484Y04225*
X06483Y04224*
X06483Y04224*
X06483Y04224*
X06482Y04224*
X06482Y04224*
X06482Y04223*
X06482Y04223*
X06482Y04223*
X06481Y04222*
X06481Y04222*
X06481Y04222*
X06481Y04222*
X06481Y04221*
X06481Y04221*
X06481Y04221*
X06481Y0422*
X06481Y0422*
X06481Y04219*
X06481Y04219*
X06481Y04219*
X06481Y04218*
X06481Y04218*
X06481Y04218*
X06482Y04218*
X06482Y04217*
X06482Y04217*
X06482Y04217*
X06482Y04217*
X06483Y04216*
X06483Y04216*
X06483Y04216*
X06484Y04216*
X06484Y04216*
X06484Y04215*
X06485Y04215*
X06485Y04215*
X06485Y04215*
X06486Y04215*
X06486*
X06486Y04215*
X06487Y04215*
X06487Y04215*
X06487Y04215*
X06488Y04216*
X06488Y04216*
X06488Y04216*
X06488Y04216*
X06489Y04216*
X06489Y04217*
X06489Y04217*
X06489Y04217*
X0649Y04217*
X0649Y04218*
X0649Y04218*
X0649Y04218*
X0649Y04218*
X0649Y04219*
X06491Y04219*
X06491Y04219*
X06491Y0422*
X06491Y0422*
X06294Y03929D02*
D01*
X06294Y03929*
X06294Y0393*
X06294Y0393*
X06294Y0393*
X06293Y03931*
X06293Y03931*
X06293Y03931*
X06293Y03931*
X06293Y03932*
X06293Y03932*
X06292Y03932*
X06292Y03932*
X06292Y03933*
X06292Y03933*
X06291Y03933*
X06291Y03933*
X06291Y03933*
X0629Y03934*
X0629Y03934*
X0629Y03934*
X06289Y03934*
X06289Y03934*
X06289*
X06288Y03934*
X06288Y03934*
X06288Y03934*
X06287Y03934*
X06287Y03933*
X06287Y03933*
X06286Y03933*
X06286Y03933*
X06286Y03933*
X06286Y03932*
X06285Y03932*
X06285Y03932*
X06285Y03932*
X06285Y03931*
X06285Y03931*
X06284Y03931*
X06284Y03931*
X06284Y0393*
X06284Y0393*
X06284Y0393*
X06284Y03929*
X06284Y03929*
X06284Y03928*
X06284Y03928*
X06284Y03928*
X06284Y03927*
X06284Y03927*
X06284Y03927*
X06285Y03927*
X06285Y03926*
X06285Y03926*
X06285Y03926*
X06285Y03925*
X06286Y03925*
X06286Y03925*
X06286Y03925*
X06286Y03925*
X06287Y03924*
X06287Y03924*
X06287Y03924*
X06288Y03924*
X06288Y03924*
X06288Y03924*
X06289Y03924*
X06289*
X06289Y03924*
X0629Y03924*
X0629Y03924*
X0629Y03924*
X06291Y03924*
X06291Y03924*
X06291Y03925*
X06292Y03925*
X06292Y03925*
X06292Y03925*
X06292Y03925*
X06293Y03926*
X06293Y03926*
X06293Y03926*
X06293Y03927*
X06293Y03927*
X06293Y03927*
X06294Y03927*
X06294Y03928*
X06294Y03928*
X06294Y03928*
X06294Y03929*
G54D74*
X0528Y04653D02*
D01*
X0528Y0466*
X05279Y04667*
X05278Y04674*
X05276Y04681*
X05274Y04688*
X05272Y04695*
X05268Y04701*
X05265Y04707*
X05261Y04713*
X05256Y04719*
X05252Y04724*
X05247Y04729*
X05241Y04734*
X05235Y04738*
X05229Y04742*
X05223Y04745*
X05216Y04748*
X0521Y0475*
X05203Y04752*
X05196Y04754*
X05189Y04755*
X05182Y04755*
X05174*
X05167Y04755*
X0516Y04754*
X05153Y04752*
X05146Y0475*
X0514Y04748*
X05133Y04745*
X05127Y04742*
X05121Y04738*
X05115Y04734*
X0511Y04729*
X05104Y04724*
X051Y04719*
X05095Y04713*
X05091Y04707*
X05088Y04701*
X05084Y04695*
X05082Y04688*
X0508Y04681*
X05078Y04674*
X05077Y04667*
X05076Y0466*
X05076Y04653*
X05076Y04646*
X05077Y04639*
X05078Y04632*
X0508Y04625*
X05082Y04618*
X05084Y04611*
X05088Y04605*
X05091Y04599*
X05095Y04593*
X051Y04587*
X05104Y04582*
X0511Y04577*
X05115Y04572*
X05121Y04568*
X05127Y04564*
X05133Y04561*
X0514Y04558*
X05146Y04556*
X05153Y04554*
X0516Y04552*
X05167Y04551*
X05174Y04551*
X05182*
X05189Y04551*
X05196Y04552*
X05203Y04554*
X0521Y04556*
X05216Y04558*
X05223Y04561*
X05229Y04564*
X05235Y04568*
X05241Y04572*
X05247Y04577*
X05252Y04582*
X05256Y04587*
X05261Y04593*
X05265Y04599*
X05268Y04605*
X05272Y04611*
X05274Y04618*
X05276Y04625*
X05278Y04632*
X05279Y04639*
X0528Y04646*
X0528Y04653*
X05711Y0392D02*
D01*
X05711Y03934*
X05709Y03949*
X05707Y03963*
X05703Y03977*
X05699Y0399*
X05693Y04004*
X05687Y04017*
X0568Y04029*
X05672Y04041*
X05663Y04053*
X05653Y04063*
X05643Y04073*
X05632Y04083*
X0562Y04091*
X05608Y04099*
X05595Y04106*
X05582Y04111*
X05568Y04116*
X05554Y0412*
X0554Y04123*
X05526Y04125*
X05512Y04126*
X05497*
X05483Y04125*
X05469Y04123*
X05454Y0412*
X05441Y04116*
X05427Y04111*
X05414Y04106*
X05401Y04099*
X05389Y04091*
X05377Y04083*
X05366Y04073*
X05356Y04063*
X05346Y04053*
X05337Y04041*
X05329Y04029*
X05322Y04017*
X05316Y04004*
X0531Y0399*
X05306Y03977*
X05302Y03963*
X053Y03949*
X05298Y03934*
X05298Y0392*
X05298Y03905*
X053Y03891*
X05302Y03877*
X05306Y03863*
X0531Y03849*
X05316Y03836*
X05322Y03823*
X05329Y0381*
X05337Y03798*
X05346Y03787*
X05356Y03776*
X05366Y03766*
X05377Y03757*
X05389Y03748*
X05401Y03741*
X05414Y03734*
X05427Y03728*
X05441Y03723*
X05454Y03719*
X05469Y03716*
X05483Y03714*
X05497Y03713*
X05512*
X05526Y03714*
X0554Y03716*
X05554Y03719*
X05568Y03723*
X05582Y03728*
X05595Y03734*
X05608Y03741*
X0562Y03748*
X05632Y03757*
X05643Y03766*
X05653Y03776*
X05663Y03787*
X05672Y03798*
X0568Y0381*
X05687Y03823*
X05693Y03836*
X05699Y03849*
X05703Y03863*
X05707Y03877*
X05709Y03891*
X05711Y03905*
X05711Y0392*
X05098Y03498D02*
D01*
X05097Y03512*
X05096Y03526*
X05093Y03541*
X0509Y03555*
X05085Y03568*
X0508Y03582*
X05074Y03595*
X05067Y03607*
X05058Y03619*
X0505Y0363*
X0504Y03641*
X0503Y03651*
X05018Y0366*
X05007Y03669*
X04995Y03677*
X04982Y03683*
X04969Y03689*
X04955Y03694*
X04941Y03698*
X04927Y03701*
X04913Y03703*
X04898Y03704*
X04884*
X0487Y03703*
X04855Y03701*
X04841Y03698*
X04827Y03694*
X04814Y03689*
X04801Y03683*
X04788Y03677*
X04776Y03669*
X04764Y0366*
X04753Y03651*
X04743Y03641*
X04733Y0363*
X04724Y03619*
X04716Y03607*
X04709Y03595*
X04702Y03582*
X04697Y03568*
X04693Y03555*
X04689Y03541*
X04687Y03526*
X04685Y03512*
X04685Y03498*
X04685Y03483*
X04687Y03469*
X04689Y03455*
X04693Y03441*
X04697Y03427*
X04702Y03413*
X04709Y034*
X04716Y03388*
X04724Y03376*
X04733Y03365*
X04743Y03354*
X04753Y03344*
X04764Y03335*
X04776Y03326*
X04788Y03319*
X04801Y03312*
X04814Y03306*
X04827Y03301*
X04841Y03297*
X04855Y03294*
X0487Y03292*
X04884Y03291*
X04898*
X04913Y03292*
X04927Y03294*
X04941Y03297*
X04955Y03301*
X04969Y03306*
X04982Y03312*
X04995Y03319*
X05007Y03326*
X05018Y03335*
X0503Y03344*
X0504Y03354*
X0505Y03365*
X05058Y03376*
X05067Y03388*
X05074Y034*
X0508Y03413*
X05085Y03427*
X0509Y03441*
X05093Y03455*
X05096Y03469*
X05097Y03483*
X05098Y03498*
X05491Y03582D02*
D01*
X0549Y03597*
X05489Y03611*
X05486Y03625*
X05483Y03639*
X05478Y03653*
X05473Y03666*
X05466Y03679*
X05459Y03692*
X05451Y03704*
X05442Y03715*
X05433Y03726*
X05422Y03736*
X05411Y03745*
X054Y03754*
X05387Y03761*
X05375Y03768*
X05361Y03774*
X05348Y03779*
X05334Y03783*
X0532Y03786*
X05306Y03788*
X05291Y03789*
X05277*
X05262Y03788*
X05248Y03786*
X05234Y03783*
X0522Y03779*
X05207Y03774*
X05193Y03768*
X05181Y03761*
X05168Y03754*
X05157Y03745*
X05146Y03736*
X05135Y03726*
X05126Y03715*
X05117Y03704*
X05109Y03692*
X05101Y03679*
X05095Y03666*
X0509Y03653*
X05085Y03639*
X05082Y03625*
X05079Y03611*
X05078Y03597*
X05077Y03582*
X05078Y03568*
X05079Y03553*
X05082Y03539*
X05085Y03525*
X0509Y03511*
X05095Y03498*
X05101Y03485*
X05109Y03473*
X05117Y03461*
X05126Y03449*
X05135Y03439*
X05146Y03429*
X05157Y03419*
X05168Y03411*
X05181Y03403*
X05193Y03396*
X05207Y03391*
X0522Y03386*
X05234Y03382*
X05248Y03379*
X05262Y03377*
X05277Y03376*
X05291*
X05306Y03377*
X0532Y03379*
X05334Y03382*
X05348Y03386*
X05361Y03391*
X05375Y03396*
X05387Y03403*
X054Y03411*
X05411Y03419*
X05422Y03429*
X05433Y03439*
X05442Y03449*
X05451Y03461*
X05459Y03473*
X05466Y03485*
X05473Y03498*
X05478Y03511*
X05483Y03525*
X05486Y03539*
X05489Y03553*
X0549Y03568*
X05491Y03582*
X04364Y03943D02*
D01*
X04364Y03958*
X04362Y03972*
X0436Y03986*
X04356Y04*
X04352Y04014*
X04346Y04028*
X0434Y0404*
X04333Y04053*
X04325Y04065*
X04316Y04076*
X04306Y04087*
X04296Y04097*
X04285Y04106*
X04273Y04115*
X04261Y04122*
X04248Y04129*
X04235Y04135*
X04221Y0414*
X04208Y04144*
X04193Y04147*
X04179Y04149*
X04165Y0415*
X0415*
X04136Y04149*
X04122Y04147*
X04107Y04144*
X04094Y0414*
X0408Y04135*
X04067Y04129*
X04054Y04122*
X04042Y04115*
X0403Y04106*
X04019Y04097*
X04009Y04087*
X03999Y04076*
X0399Y04065*
X03982Y04053*
X03975Y0404*
X03969Y04028*
X03963Y04014*
X03959Y04*
X03955Y03986*
X03953Y03972*
X03951Y03958*
X03951Y03943*
X03951Y03929*
X03953Y03915*
X03955Y039*
X03959Y03886*
X03963Y03873*
X03969Y03859*
X03975Y03846*
X03982Y03834*
X0399Y03822*
X03999Y03811*
X04009Y038*
X04019Y0379*
X0403Y03781*
X04042Y03772*
X04054Y03764*
X04067Y03758*
X0408Y03752*
X04094Y03747*
X04107Y03743*
X04122Y0374*
X04136Y03738*
X0415Y03737*
X04165*
X04179Y03738*
X04193Y0374*
X04208Y03743*
X04221Y03747*
X04235Y03752*
X04248Y03758*
X04261Y03764*
X04273Y03772*
X04285Y03781*
X04296Y0379*
X04306Y038*
X04316Y03811*
X04325Y03822*
X04333Y03834*
X0434Y03846*
X04346Y03859*
X04352Y03873*
X04356Y03886*
X0436Y039*
X04362Y03915*
X04364Y03929*
X04364Y03943*
X05374Y04618D02*
X05405D01*
X05374Y04681D02*
X05405D01*
X06374Y0338D02*
Y03644D01*
X04782Y03884D02*
X04785D01*
X04959D02*
X04963D01*
X04782Y03782D02*
X0482D01*
X04924D02*
X04963D01*
Y03884*
X04782Y03782D02*
Y03884D01*
X05964Y04318D02*
Y0435D01*
X05937Y04318D02*
X05964D01*
Y04405D02*
Y04437D01*
X05937D02*
X05964D01*
X06122Y03976D02*
X06141D01*
X06113Y03967D02*
X06122Y03976D01*
X06062D02*
X06082D01*
X06091Y03967*
X06062Y03779D02*
Y03976D01*
X06141Y03779D02*
Y03976D01*
X06091Y03967D02*
X06113D01*
X06062Y03779D02*
X06141D01*
X04509Y04203D02*
X04529D01*
X04501Y04195D02*
X04509Y04203D01*
X0445D02*
X0447D01*
X04478Y04195*
X0445Y04007D02*
Y04203D01*
X04529Y04007D02*
Y04203D01*
X04478Y04195D02*
X04501D01*
X0445Y04007D02*
X04529D01*
X05211Y03242D02*
Y03259D01*
Y03242D02*
X05219Y03233D01*
X05211Y03188D02*
Y03206D01*
X05219Y03214*
X05558Y03188D02*
Y03259D01*
X05219Y03214D02*
Y03233D01*
X05211Y03259D02*
X05558D01*
X05211Y03188D02*
X05558D01*
X06104Y04054D02*
Y04114D01*
X06044Y04054D02*
Y04114D01*
Y04054D02*
X06104D01*
X06045Y04058D02*
X06104D01*
X05388Y05265D02*
Y05643D01*
X05609Y05265D02*
Y05643D01*
X05388D02*
X05609D01*
X06541Y03137D02*
X0663D01*
X06541Y0324D02*
X06629D01*
X0636Y03137D02*
Y0324D01*
Y03137D02*
X06466D01*
X0636Y0324D02*
X06466D01*
X0663Y03137D02*
X06648Y03155D01*
X0663Y0324D02*
X06648Y03222D01*
Y03155D02*
Y03222D01*
X0611Y02721D02*
Y02951D01*
X0581Y02721D02*
X0611D01*
X0581D02*
Y02951D01*
X0611*
X05812Y02915D02*
X06109D01*
X05792Y02721D02*
Y03074D01*
X04992Y02721D02*
Y03074D01*
X05792*
X05312Y02771D02*
X05472D01*
X0559Y02721D02*
X05792D01*
X04992D02*
X05142D01*
X05472D02*
X0559D01*
X05472D02*
Y02771D01*
X05312Y02721D02*
Y02771D01*
X05142Y02721D02*
X05312D01*
X0653Y04579D02*
X06562D01*
X0653Y04642D02*
X06562D01*
X05351Y04149D02*
Y04216D01*
Y04149D02*
X05369Y04131D01*
X05351Y04216D02*
X05369Y04234D01*
X05533Y04131D02*
X05639D01*
X05533Y04234D02*
X05639D01*
Y04131D02*
Y04234D01*
X0537Y04131D02*
X05458D01*
X05369Y04234D02*
X05458D01*
X0564Y04273D02*
Y0434D01*
X05622Y04358D02*
X0564Y0434D01*
X05622Y04255D02*
X0564Y04273D01*
X05352Y04358D02*
X05458D01*
X05352Y04255D02*
X05458D01*
X05352D02*
Y04358D01*
X05533D02*
X05622D01*
X05533Y04255D02*
X05623D01*
X06019Y04054D02*
Y04114D01*
X05959Y04054D02*
Y04114D01*
Y04054D02*
X06019D01*
X05959Y04058D02*
X06018D01*
X05842Y04046D02*
X0587D01*
X05842D02*
Y04077D01*
Y04164D02*
X0587D01*
X05842Y04132D02*
Y04164D01*
X0619Y04064D02*
X06222D01*
X0619Y04127D02*
X06222D01*
X06098Y05192D02*
Y0557D01*
X06318Y05192D02*
Y0557D01*
X06098D02*
X06318D01*
X05964Y04646D02*
Y04678D01*
X05937Y04646D02*
X05964D01*
Y04733D02*
Y04764D01*
X05937D02*
X05964D01*
X06139Y04578D02*
Y04606D01*
X06108Y04578D02*
X06139D01*
X06021D02*
Y04606D01*
Y04578D02*
X06053D01*
X0657Y04257D02*
Y04521D01*
X06087Y04367D02*
X06147D01*
X06087Y04427D02*
X06147D01*
X06087Y04367D02*
Y04427D01*
X06091Y04368D02*
Y04427D01*
X06087Y04695D02*
X06147D01*
X06087Y04755D02*
X06147D01*
X06087Y04695D02*
Y04755D01*
X06091Y04695D02*
Y04754D01*
X04656Y04275D02*
X04723D01*
X04639Y04257D02*
X04656Y04275D01*
X04723D02*
X04741Y04257D01*
X04639Y03986D02*
Y04093D01*
X04741Y03986D02*
Y04093D01*
X04639Y03986D02*
X04741D01*
X04639Y04168D02*
Y04256D01*
X04741Y04168D02*
Y04257D01*
X05104Y04404D02*
X05164D01*
X05104Y04344D02*
X05164D01*
Y04404*
X0516Y04344D02*
Y04403D01*
X06011Y02984D02*
Y03073D01*
X06114Y02985D02*
Y03073D01*
X06011Y03254D02*
X06114D01*
X06011Y03148D02*
Y03254D01*
X06114Y03148D02*
Y03254D01*
X06011Y02984D02*
X06029Y02966D01*
X06096D02*
X06114Y02984D01*
X06029Y02966D02*
X06096D01*
X06334Y05191D02*
Y05569D01*
X06555Y05191D02*
Y05569D01*
X06334D02*
X06555D01*
X05846Y0519D02*
Y05568D01*
X05625Y0519D02*
Y05568D01*
Y0519D02*
X05846D01*
X06082D02*
Y05568D01*
X05862Y0519D02*
Y05568D01*
Y0519D02*
X06082D01*
X05244Y04449D02*
Y04516D01*
X05226Y04533D02*
X05244Y04516D01*
X05226Y04431D02*
X05244Y04449D01*
X04955Y04533D02*
X05062D01*
X04955Y04431D02*
X05062D01*
X04955D02*
Y04533D01*
X05136D02*
X05225D01*
X05136Y04431D02*
X05226D01*
X05386Y04605D02*
X05414D01*
Y04573D02*
Y04605D01*
X05386Y04487D02*
X05414D01*
Y04518*
X04676Y0382D02*
Y03851D01*
X04613Y0382D02*
Y03851D01*
X04438Y03267D02*
Y03298D01*
X04375Y03267D02*
Y03298D01*
X04721Y03279D02*
Y03307D01*
X0469Y03279D02*
X04721D01*
X04603D02*
Y03307D01*
Y03279D02*
X04635D01*
X0657Y03958D02*
Y04222D01*
X06021Y0425D02*
X06053D01*
X06021D02*
Y04278D01*
X06108Y0425D02*
X06139D01*
Y04278*
X06374Y03667D02*
Y03931D01*
X0456Y02734D02*
X0486D01*
X0456D02*
Y02975D01*
X04694Y02934D02*
X04726D01*
X04709Y02976D02*
X04711D01*
X0456Y02975D02*
X04611D01*
X04809D02*
X04811D01*
X0486Y02734D02*
Y0292D01*
X04794Y02934D02*
X04826D01*
X04562D02*
X04626D01*
X05344Y04707D02*
X05404D01*
X05344Y04767D02*
X05404D01*
X05344Y04707D02*
Y04767D01*
X05348Y04707D02*
Y04766D01*
X05344Y04852D02*
X05404D01*
X05344Y04792D02*
X05404D01*
Y04852*
X054Y04793D02*
Y04852D01*
X05873Y0391D02*
Y0397D01*
X05933Y0391D02*
Y0397D01*
X05873D02*
X05933D01*
X05874Y03966D02*
X05933D01*
X0616Y04831D02*
X0622D01*
X0616Y04771D02*
X0622D01*
Y04831*
X06216Y04771D02*
Y0483D01*
X06168Y04505D02*
X06228D01*
X06168Y04445D02*
X06228D01*
Y04505*
X06224Y04445D02*
Y04504D01*
X04931Y04851D02*
X05053D01*
X04931Y04568D02*
X04949Y0455D01*
X05036D02*
X05053Y04568D01*
X04949Y0455D02*
X05036D01*
X04931Y04749D02*
Y04851D01*
X05053Y04749D02*
Y04851D01*
Y04569D02*
Y04654D01*
X04931Y04569D02*
Y04654D01*
X06223Y04748D02*
X0623Y04754D01*
X06311*
X06213Y04609D02*
X06219Y04603D01*
X06296D02*
X063Y04599D01*
X06219Y04603D02*
X06296D01*
X0623Y04427D02*
X06311D01*
X06223Y0442D02*
X0623Y04427D01*
X05823Y0457D02*
X05852Y04588D01*
X05939Y04177D02*
X05942Y04174D01*
X05863Y04177D02*
X05939D01*
X05848Y04183D02*
X05857D01*
X05863Y04177*
X04738Y0378D02*
X04752Y03756D01*
G54D75*
X04386Y03452D02*
D01*
X04386Y0345*
X04386Y03448*
X04387Y03446*
X04387Y03444*
X04388Y03442*
X04389Y0344*
X0439Y03438*
X04391Y03437*
X04392Y03435*
X04393Y03433*
X04395Y03432*
X04396Y0343*
X04398Y03429*
X04399Y03428*
X04401Y03426*
X04403Y03425*
X04405Y03425*
X04407Y03424*
X04409Y03423*
X04411Y03423*
X04413Y03423*
X04415Y03422*
X04416Y03422*
X04656D02*
D01*
X04658Y03423*
X0466Y03423*
X04662Y03423*
X04664Y03424*
X04666Y03424*
X04668Y03425*
X0467Y03426*
X04672Y03427*
X04674Y03428*
X04675Y03429*
X04677Y03431*
X04678Y03432*
X0468Y03434*
X04681Y03436*
X04682Y03437*
X04683Y03439*
X04684Y03441*
X04685Y03443*
X04685Y03445*
X04686Y03447*
X04686Y03449*
X04686Y03451*
X04686Y03452*
Y03692D02*
D01*
X04686Y03695*
X04686Y03697*
X04686Y03699*
X04685Y03701*
X04684Y03703*
X04684Y03705*
X04683Y03707*
X04682Y03708*
X0468Y0371*
X04679Y03712*
X04678Y03713*
X04676Y03715*
X04675Y03716*
X04673Y03717*
X04671Y03718*
X04669Y03719*
X04667Y0372*
X04665Y03721*
X04663Y03722*
X04661Y03722*
X04659Y03722*
X04657Y03722*
X04656Y03722*
X04416D02*
D01*
X04414Y03722*
X04412Y03722*
X0441Y03722*
X04408Y03721*
X04406Y03721*
X04404Y0372*
X04402Y03719*
X044Y03718*
X04399Y03717*
X04397Y03715*
X04395Y03714*
X04394Y03713*
X04393Y03711*
X04391Y03709*
X0439Y03707*
X04389Y03706*
X04388Y03704*
X04388Y03702*
X04387Y037*
X04387Y03698*
X04386Y03696*
X04386Y03693*
X04386Y03692*
X04772Y04303D02*
D01*
X0478Y04304*
X04787Y04305*
X04795Y04306*
X04802Y04308*
X0481Y0431*
X04817Y04313*
X04824Y04316*
X0483Y0432*
X04837Y04324*
X04843Y04329*
X04848Y04334*
X04854Y0434*
X04859Y04346*
X04863Y04352*
X04867Y04358*
X04871Y04365*
X04874Y04372*
X04877Y04379*
X04879Y04387*
X0488Y04394*
X04881Y04402*
X04882Y0441*
X04882Y04413*
X04382D02*
D01*
X04382Y04406*
X04383Y04398*
X04384Y04391*
X04386Y04383*
X04389Y04376*
X04392Y04369*
X04395Y04362*
X04399Y04355*
X04403Y04349*
X04408Y04343*
X04413Y04337*
X04418Y04332*
X04424Y04327*
X04431Y04322*
X04437Y04318*
X04444Y04315*
X04451Y04311*
X04458Y04309*
X04465Y04307*
X04473Y04305*
X04481Y04304*
X04488Y04304*
X04492Y04303*
Y04803D02*
D01*
X04484Y04803*
X04477Y04802*
X04469Y04801*
X04462Y04799*
X04454Y04797*
X04447Y04794*
X0444Y04791*
X04434Y04787*
X04427Y04782*
X04421Y04778*
X04416Y04773*
X0441Y04767*
X04405Y04761*
X04401Y04755*
X04397Y04748*
X04393Y04742*
X0439Y04735*
X04387Y04727*
X04385Y0472*
X04384Y04713*
X04383Y04705*
X04382Y04697*
X04382Y04693*
X04882D02*
D01*
X04882Y04701*
X04881Y04709*
X0488Y04716*
X04878Y04724*
X04875Y04731*
X04873Y04738*
X04869Y04745*
X04865Y04752*
X04861Y04758*
X04856Y04764*
X04851Y0477*
X04846Y04775*
X0484Y0478*
X04834Y04785*
X04827Y04789*
X0482Y04792*
X04813Y04795*
X04806Y04798*
X04799Y048*
X04791Y04802*
X04784Y04803*
X04776Y04803*
X04772Y04803*
X03964Y03327D02*
X04357D01*
Y03737*
X03964D02*
X04357D01*
X03964Y03327D02*
Y03737D01*
X0613Y02722D02*
X06541D01*
X0613D02*
Y03116D01*
X06541*
Y02722D02*
Y03116D01*
X06177Y05834D02*
X0657D01*
Y06079*
X06177D02*
X0657D01*
X06177Y05834D02*
Y06079D01*
X06642Y05747D02*
X06902D01*
X06642Y04715D02*
Y05747D01*
Y04715D02*
X06902D01*
Y05747*
X04386Y03452D02*
Y03692D01*
X04686Y03452D02*
Y03692D01*
X04416Y03722D02*
X04451D01*
X04621D02*
X04656D01*
X04416Y03422D02*
X04451D01*
X04621D02*
X04656D01*
X04492Y04303D02*
X04772D01*
X04492Y04803D02*
X04657D01*
X04772*
X04882Y04688D02*
Y04693D01*
Y04413D02*
Y04418D01*
X04382Y04688D02*
Y04693D01*
Y04413D02*
Y04418D01*
X05499Y05159D02*
Y05273D01*
Y05644D02*
Y05747D01*
X05393Y05273D02*
X05605D01*
X05393Y05352D02*
X05605D01*
X05675Y05834D02*
Y06079D01*
X06068*
Y05834D02*
Y06079D01*
X05675Y05834D02*
X06068D01*
X06208Y05086D02*
Y052D01*
Y05571D02*
Y05674D01*
X06102Y052D02*
X06314D01*
X06102Y05279D02*
X06314D01*
X06444Y05086D02*
Y052D01*
Y05571D02*
Y05674D01*
X06338Y052D02*
X0655D01*
X06338Y05279D02*
X0655D01*
X05736Y0556D02*
Y05674D01*
Y05086D02*
Y05189D01*
X0563Y0556D02*
X05842D01*
X0563Y05481D02*
X05842D01*
X05972Y0556D02*
Y05674D01*
Y05086D02*
Y05189D01*
X05866Y0556D02*
X06078D01*
X05866Y05481D02*
X06078D01*
X04219Y03035D02*
X04972Y03036D01*
X05521Y056D02*
Y0556D01*
Y0558*
X05461*
X05521Y0554D02*
X05481D01*
X05461Y0552*
X05481Y055*
X05521*
X05511Y0544D02*
X05521Y0545D01*
Y0547*
X05511Y0548*
X05501*
X05491Y0547*
Y0545*
X05481Y0544*
X05471*
X05461Y0545*
Y0547*
X05471Y0548*
X05461Y0542D02*
Y054D01*
Y0541*
X05521*
X05511Y0542*
G54D76*
X05433Y04574D02*
X05471Y04597D01*
X05489Y04377D02*
X05523Y04423D01*
X05406Y04384D02*
X05413Y04377D01*
X05488*
X06929Y02795D02*
Y02937D01*
X04035Y04881D02*
X04177D01*
X03936Y04783D02*
X04035Y04881D01*
X03936Y04653D02*
Y04783D01*
X04035Y02696D02*
X04165D01*
X03937Y02795D02*
X04035Y02696D01*
X03937Y02795D02*
Y02937D01*
X0683Y02696D02*
X06929Y02795D01*
X06688Y02696D02*
X0683D01*
X06929Y05861D02*
Y06004D01*
X0683Y06102D02*
X06929Y06004D01*
X06701Y06102D02*
X0683D01*
X05314Y05874D02*
Y06003D01*
X05413Y06102*
X05555*
X05074Y04882D02*
X05256D01*
X05315Y04941*
X05314Y0494D02*
Y05109D01*
X05586Y03698D02*
X0558Y03705D01*
X05566*
X0556Y03698*
Y03672*
X05566Y03665*
X0558*
X05586Y03672*
X05626Y03665D02*
X056D01*
X05626Y03692*
Y03698*
X0562Y03705*
X05606*
X056Y03698*
X05666Y03665D02*
X0564D01*
X05666Y03692*
Y03698*
X0566Y03705*
X05646*
X0564Y03698*
X06121Y04184D02*
Y04144D01*
X06141*
X06147Y04151*
Y04178*
X06141Y04184*
X06121*
X06161Y04144D02*
X06174D01*
X06167*
Y04184*
X06161Y04178*
X06221Y04184D02*
X06194D01*
Y04164*
X06207Y04171*
X06214*
X06221Y04164*
Y04151*
X06214Y04144*
X06201*
X06194Y04151*
X05576Y03298D02*
Y03338D01*
X05596*
X05603Y03331*
Y03318*
X05596Y03311*
X05576*
X0559D02*
X05603Y03298D01*
X05643D02*
X05616D01*
X05643Y03324*
Y03331*
X05636Y03338*
X05623*
X05616Y03331*
X05683Y03298D02*
X05656D01*
X05683Y03324*
Y03331*
X05676Y03338*
X05663*
X05656Y03331*
X05019Y0316D02*
Y032D01*
X05039*
X05046Y03193*
Y0318*
X05039Y03173*
X05019*
X05033D02*
X05046Y0316D01*
X05086D02*
X05059D01*
X05086Y03187*
Y03193*
X05079Y032*
X05066*
X05059Y03193*
X05099Y0316D02*
X05112D01*
X05106*
Y032*
X05099Y03193*
X05119Y03312D02*
X05126Y03319D01*
Y03332*
X05119Y03339*
X05093*
X05086Y03332*
Y03319*
X05093Y03312*
X05086Y03272D02*
Y03299D01*
X05113Y03272*
X05119*
X05126Y03279*
Y03292*
X05119Y03299*
X05086Y03259D02*
Y03246D01*
Y03252*
X05126*
X05119Y03259*
X05481Y04843D02*
X05507D01*
Y04836*
X05481Y04809*
Y04803*
X05507*
X05521Y04843D02*
Y04803D01*
X05541*
X05547Y04809*
Y04836*
X05541Y04843*
X05521*
X05587Y04803D02*
X05561D01*
X05587Y04829*
Y04836*
X05581Y04843*
X05567*
X05561Y04836*
X05855Y03168D02*
X05861Y03174D01*
Y03188*
X05855Y03194*
X05848*
X05841Y03188*
Y03174*
X05835Y03168*
X05828*
X05821Y03174*
Y03188*
X05828Y03194*
X05861Y03128D02*
Y03154D01*
X05821*
Y03128*
X05841Y03154D02*
Y03141D01*
X05821Y03114D02*
X05861D01*
X05821Y03088*
X05861*
X05855Y03048D02*
X05861Y03054D01*
Y03068*
X05855Y03074*
X05848*
X05841Y03068*
Y03054*
X05835Y03048*
X05828*
X05821Y03054*
Y03068*
X05828Y03074*
X05861Y03014D02*
Y03028D01*
X05855Y03034*
X05828*
X05821Y03028*
Y03014*
X05828Y03008*
X05855*
X05861Y03014*
X05821Y02994D02*
X05861D01*
Y02974*
X05855Y02968*
X05841*
X05835Y02974*
Y02994*
Y02981D02*
X05821Y02968D01*
X05918Y03007D02*
Y03021D01*
Y03014*
X05885*
X05878Y03021*
Y03027*
X05885Y03034*
X05918Y02967D02*
X05912Y02981D01*
X05898Y02994*
X05885*
X05878Y02987*
Y02974*
X05885Y02967*
X05892*
X05898Y02974*
Y02994*
X06245Y03857D02*
Y03824D01*
X06251Y03817*
X06265*
X06271Y03824*
Y03857*
X06311Y03817D02*
X06285D01*
X06311Y03844*
Y03851*
X06305Y03857*
X06291*
X06285Y03851*
X06721Y03493D02*
Y0352D01*
X06714Y03527*
X06701*
X06694Y0352*
Y03493*
X06701Y03487*
X06714*
X06708Y035D02*
X06721Y03487D01*
X06714D02*
X06721Y03493D01*
X06734Y03487D02*
X06748D01*
X06741*
Y03527*
X06734Y0352*
X06768Y03487D02*
X06781D01*
X06774*
Y03527*
X06768Y0352*
X0672Y03786D02*
Y03812D01*
X06713Y03819*
X067*
X06693Y03812*
Y03786*
X067Y03779*
X06713*
X06707Y03792D02*
X0672Y03779D01*
X06713D02*
X0672Y03786D01*
X06733Y03779D02*
X06747D01*
X0674*
Y03819*
X06733Y03812*
X06767D02*
X06773Y03819D01*
X06787*
X06793Y03812*
Y03786*
X06787Y03779*
X06773*
X06767Y03786*
Y03812*
X06306Y04522D02*
X06332D01*
Y04515*
X06306Y04488*
Y04482*
X06332*
X06346Y04522D02*
Y04482D01*
X06366*
X06372Y04488*
Y04515*
X06366Y04522*
X06346*
X06386D02*
X06412D01*
Y04515*
X06386Y04488*
Y04482*
X05449Y03412D02*
Y03378D01*
X05456Y03372*
X05469*
X05476Y03378*
Y03412*
X05489Y03405D02*
X05496Y03412D01*
X05509*
X05516Y03405*
Y03398*
X05509Y03392*
X05503*
X05509*
X05516Y03385*
Y03378*
X05509Y03372*
X05496*
X05489Y03378*
X05701Y03485D02*
Y03525D01*
X05721*
X05728Y03518*
Y03505*
X05721Y03498*
X05701*
X05715D02*
X05728Y03485D01*
X05741D02*
X05761D01*
X05768Y03491*
X05761Y03498*
X05748*
X05741Y03505*
X05748Y03511*
X05768*
X05781Y03485D02*
X05795D01*
X05788*
Y03525*
X05781Y03518*
X05676Y04374D02*
Y04414D01*
X05696*
X05702Y04407*
Y04394*
X05696Y04387*
X05676*
X05689D02*
X05702Y04374D01*
X05716D02*
X05729D01*
X05722*
Y04414*
X05716Y04407*
X05749D02*
X05756Y04414D01*
X05769*
X05776Y04407*
Y044*
X05769Y04394*
X05776Y04387*
Y0438*
X05769Y04374*
X05756*
X05749Y0438*
Y04387*
X05756Y04394*
X05749Y044*
Y04407*
X05756Y04394D02*
X05769D01*
X05692Y04783D02*
Y04823D01*
X05712*
X05719Y04816*
Y04803*
X05712Y04796*
X05692*
X05706D02*
X05719Y04783D01*
X05732D02*
X05746D01*
X05739*
Y04823*
X05732Y04816*
X05766Y04823D02*
X05792D01*
Y04816*
X05766Y0479*
Y04783*
X05674Y04431D02*
Y04471D01*
X05694*
X057Y04464*
Y04451*
X05694Y04444*
X05674*
X05687D02*
X057Y04431D01*
X05714D02*
X05727D01*
X0572*
Y04471*
X05714Y04464*
X05774Y04471D02*
X0576Y04464D01*
X05747Y04451*
Y04437*
X05754Y04431*
X05767*
X05774Y04437*
Y04444*
X05767Y04451*
X05747*
X05867Y04521D02*
Y04561D01*
X05887*
X05893Y04554*
Y04541*
X05887Y04534*
X05867*
X0588D02*
X05893Y04521D01*
X05907D02*
X0592D01*
X05913*
Y04561*
X05907Y04554*
X05967Y04561D02*
X0594D01*
Y04541*
X05953Y04548*
X0596*
X05967Y04541*
Y04528*
X0596Y04521*
X05947*
X0594Y04528*
X06237Y04191D02*
Y04231D01*
X06257*
X06263Y04225*
Y04211*
X06257Y04205*
X06237*
X0625D02*
X06263Y04191D01*
X06277D02*
X0629D01*
X06283*
Y04231*
X06277Y04225*
X0633Y04191D02*
Y04231D01*
X0631Y04211*
X06337*
X06304Y04385D02*
X06344D01*
Y04365*
X06337Y04359*
X06324*
X06317Y04365*
Y04385*
Y04372D02*
X06304Y04359D01*
Y04345D02*
Y04332D01*
Y04339*
X06344*
X06337Y04345*
Y04312D02*
X06344Y04305D01*
Y04292*
X06337Y04285*
X0633*
X06324Y04292*
Y04299*
Y04292*
X06317Y04285*
X0631*
X06304Y04292*
Y04305*
X0631Y04312*
X05778Y04255D02*
Y04282D01*
X05771Y04289*
X05758*
X05751Y04282*
Y04255*
X05758Y04249*
X05771*
X05765Y04262D02*
X05778Y04249D01*
X05771D02*
X05778Y04255D01*
X05791Y04249D02*
X05805D01*
X05798*
Y04289*
X05791Y04282*
X05851Y04249D02*
X05825D01*
X05851Y04275*
Y04282*
X05845Y04289*
X05831*
X05825Y04282*
X06015Y042D02*
Y04227D01*
X06009Y04233*
X05995*
X05989Y04227*
Y042*
X05995Y04193*
X06009*
X06002Y04207D02*
X06015Y04193D01*
X06009D02*
X06015Y042D01*
X06029D02*
X06035Y04193D01*
X06049*
X06055Y042*
Y04227*
X06049Y04233*
X06035*
X06029Y04227*
Y0422*
X06035Y04213*
X06055*
X06478Y04044D02*
Y0407D01*
X06471Y04077*
X06458*
X06451Y0407*
Y04044*
X06458Y04037*
X06471*
X06465Y0405D02*
X06478Y04037D01*
X06471D02*
X06478Y04044D01*
X06491Y0407D02*
X06498Y04077D01*
X06511*
X06518Y0407*
Y04064*
X06511Y04057*
X06518Y0405*
Y04044*
X06511Y04037*
X06498*
X06491Y04044*
Y0405*
X06498Y04057*
X06491Y04064*
Y0407*
X06498Y04057D02*
X06511D01*
X06665Y03209D02*
Y03169D01*
X06685*
X06692Y03175*
Y03202*
X06685Y03209*
X06665*
X06705Y03169D02*
X06718D01*
X06712*
Y03209*
X06705Y03202*
X06738D02*
X06745Y03209D01*
X06758*
X06765Y03202*
Y03195*
X06758Y03189*
X06751*
X06758*
X06765Y03182*
Y03175*
X06758Y03169*
X06745*
X06738Y03175*
X05892Y04227D02*
X05886Y04233D01*
X05872*
X05866Y04227*
Y042*
X05872Y04193*
X05886*
X05892Y042*
X05906Y04193D02*
X05919D01*
X05912*
Y04233*
X05906Y04227*
X05939D02*
X05946Y04233D01*
X05959*
X05966Y04227*
Y0422*
X05959Y04213*
X05966Y04207*
Y042*
X05959Y04193*
X05946*
X05939Y042*
Y04207*
X05946Y04213*
X05939Y0422*
Y04227*
X05946Y04213D02*
X05959D01*
X06566Y03358D02*
X06559Y03364D01*
X06546*
X06539Y03358*
Y03331*
X06546Y03324*
X06559*
X06566Y03331*
X06579Y03324D02*
X06592D01*
X06586*
Y03364*
X06579Y03358*
X06612Y03364D02*
X06639D01*
Y03358*
X06612Y03331*
Y03324*
X05651Y03124D02*
X05644Y03131D01*
X05631*
X05625Y03124*
Y03098*
X05631Y03091*
X05644*
X05651Y03098*
X05664Y03091D02*
Y03131D01*
X05691Y03091*
Y03131*
X05704D02*
X05731D01*
X05718*
Y03091*
X05744D02*
Y03131D01*
X05764*
X05771Y03124*
Y03111*
X05764Y03104*
X05744*
X05758D02*
X05771Y03091D01*
X05732Y03189D02*
X05719D01*
X05725*
Y03156*
X05719Y03149*
X05712*
X05705Y03156*
X05765Y03149D02*
Y03189D01*
X05745Y03169*
X05772*
X05008Y03786D02*
Y03812D01*
X05002Y03819*
X04988*
X04982Y03812*
Y03786*
X04988Y03779*
X05002*
X04995Y03792D02*
X05008Y03779D01*
X05002D02*
X05008Y03786D01*
X05022Y03819D02*
X05048D01*
Y03812*
X05022Y03786*
Y03779*
X04714Y03229D02*
Y03256D01*
X04707Y03263*
X04694*
X04687Y03256*
Y03229*
X04694Y03223*
X04707*
X04701Y03236D02*
X04714Y03223D01*
X04707D02*
X04714Y03229D01*
X04754Y03263D02*
X04741Y03256D01*
X04727Y03243*
Y03229*
X04734Y03223*
X04747*
X04754Y03229*
Y03236*
X04747Y03243*
X04727*
X04465Y03801D02*
Y03761D01*
X04492*
X04532D02*
X04505D01*
X04532Y03788*
Y03795*
X04525Y03801*
X04512*
X04505Y03795*
X04285Y03242D02*
X04279Y03249D01*
X04265*
X04259Y03242*
Y03215*
X04265Y03209*
X04279*
X04285Y03215*
X04299Y03209D02*
X04312D01*
X04305*
Y03249*
X04299Y03242*
X04359Y03249D02*
X04332D01*
Y03229*
X04345Y03235*
X04352*
X04359Y03229*
Y03215*
X04352Y03209*
X04339*
X04332Y03215*
X0459Y03901D02*
X04597Y03908D01*
Y03921*
X0459Y03928*
X04563*
X04557Y03921*
Y03908*
X04563Y03901*
X04557Y03888D02*
Y03874D01*
Y03881*
X04597*
X0459Y03888*
X04557Y03834D02*
X04597D01*
X04577Y03854*
Y03828*
X05486Y04757D02*
X05512D01*
Y0475*
X05486Y04724*
Y04717*
X05512*
X05526Y04757D02*
Y04717D01*
X05546*
X05552Y04724*
Y0475*
X05546Y04757*
X05526*
X05566Y04717D02*
X05579D01*
X05572*
Y04757*
X05566Y0475*
X05485Y04641D02*
Y04681D01*
X05505*
X05511Y04675*
Y04661*
X05505Y04655*
X05485*
X05498D02*
X05511Y04641D01*
X05525D02*
X05538D01*
X05531*
Y04681*
X05525Y04675*
X05558D02*
X05565Y04681D01*
X05578*
X05585Y04675*
Y04648*
X05578Y04641*
X05565*
X05558Y04648*
Y04675*
X05499Y045D02*
Y0454D01*
X05519*
X05525Y04534*
Y0452*
X05519Y04514*
X05499*
X05512D02*
X05525Y045D01*
X05539Y04507D02*
X05545Y045D01*
X05559*
X05565Y04507*
Y04534*
X05559Y0454*
X05545*
X05539Y04534*
Y04527*
X05545Y0452*
X05565*
X05514Y04591D02*
Y04617D01*
X05508Y04624*
X05494*
X05488Y04617*
Y04591*
X05494Y04584*
X05508*
X05501Y04597D02*
X05514Y04584D01*
X05508D02*
X05514Y04591D01*
X05554Y04624D02*
X05528D01*
Y04604*
X05541Y04611*
X05548*
X05554Y04604*
Y04591*
X05548Y04584*
X05534*
X05528Y04591*
X04915Y04414D02*
Y04374D01*
X04935*
X04942Y0438*
Y04407*
X04935Y04414*
X04915*
X04955Y04374D02*
X04968D01*
X04962*
Y04414*
X04955Y04407*
X05015Y04374D02*
X04988D01*
X05015Y044*
Y04407*
X05008Y04414*
X04995*
X04988Y04407*
X05167Y04805D02*
X0516Y04812D01*
X05147*
X0514Y04805*
Y04779*
X05147Y04772*
X0516*
X05167Y04779*
X0518Y04772D02*
X05194D01*
X05187*
Y04812*
X0518Y04805*
X05214D02*
X0522Y04812D01*
X05234*
X0524Y04805*
Y04799*
X05234Y04792*
X05227*
X05234*
X0524Y04785*
Y04779*
X05234Y04772*
X0522*
X05214Y04779*
X05555Y04469D02*
X05548Y04476D01*
X05535*
X05528Y04469*
Y04442*
X05535Y04436*
X05548*
X05555Y04442*
X05568Y04436D02*
X05581D01*
X05575*
Y04476*
X05568Y04469*
X05628Y04436D02*
X05601D01*
X05628Y04462*
Y04469*
X05621Y04476*
X05608*
X05601Y04469*
X06397Y04615D02*
Y04655D01*
X06417*
X06424Y04648*
Y04635*
X06417Y04628*
X06397*
X0641D02*
X06424Y04615D01*
X06437D02*
X0645D01*
X06444*
Y04655*
X06437Y04648*
X06566Y0477D02*
X06559Y04777D01*
X06546*
X06539Y0477*
Y04743*
X06546Y04737*
X06559*
X06566Y04743*
X06579Y04737D02*
X06592D01*
X06586*
Y04777*
X06579Y0477*
X05742Y04555D02*
X05735Y04562D01*
X05722*
X05715Y04555*
Y04529*
X05722Y04522*
X05735*
X05742Y04529*
X05755Y04522D02*
X05768D01*
X05762*
Y04562*
X05755Y04555*
X05788D02*
X05795Y04562D01*
X05808*
X05815Y04555*
Y04529*
X05808Y04522*
X05795*
X05788Y04529*
Y04555*
X0426Y04389D02*
X04267Y04396D01*
Y04409*
X0426Y04416*
X04234*
X04227Y04409*
Y04396*
X04234Y04389*
X04227Y04349D02*
Y04376D01*
X04254Y04349*
X0426*
X04267Y04356*
Y04369*
X0426Y04376*
X04337Y04389D02*
X04344Y04396D01*
Y04409*
X04337Y04416*
X0431*
X04304Y04409*
Y04396*
X0431Y04389*
X04337Y04376D02*
X04344Y04369D01*
Y04356*
X04337Y04349*
X0433*
X04324Y04356*
Y04363*
Y04356*
X04317Y04349*
X0431*
X04304Y04356*
Y04369*
X0431Y04376*
X04044Y04185D02*
X04037Y04192D01*
X04024*
X04017Y04185*
Y04159*
X04024Y04152*
X04037*
X04044Y04159*
X04077Y04152D02*
Y04192D01*
X04057Y04172*
X04084*
X04416Y04285D02*
X04409Y04291D01*
X04396*
X04389Y04285*
Y04258*
X04396Y04251*
X04409*
X04416Y04258*
X04456Y04291D02*
X04429D01*
Y04271*
X04443Y04278*
X04449*
X04456Y04271*
Y04258*
X04449Y04251*
X04436*
X04429Y04258*
X04817Y04219D02*
X04824Y04226D01*
Y04239*
X04817Y04246*
X04791*
X04784Y04239*
Y04226*
X04791Y04219*
X04824Y04179D02*
X04817Y04192D01*
X04804Y04206*
X04791*
X04784Y04199*
Y04186*
X04791Y04179*
X04797*
X04804Y04186*
Y04206*
X05954Y0317D02*
X05948Y03176D01*
X05934*
X05928Y0317*
Y03143*
X05934Y03136*
X05948*
X05954Y03143*
X05968D02*
X05974Y03136D01*
X05988*
X05994Y03143*
Y0317*
X05988Y03176*
X05974*
X05968Y0317*
Y03163*
X05974Y03156*
X05994*
X04901Y04219D02*
X04908Y04226D01*
Y04239*
X04901Y04246*
X04874*
X04868Y04239*
Y04226*
X04874Y04219*
X04908Y04206D02*
Y04179D01*
X04901*
X04874Y04206*
X04868*
X05207Y03836D02*
X05201Y03843D01*
X05187*
X05181Y03836*
Y03809*
X05187Y03803*
X05201*
X05207Y03809*
X05221Y03836D02*
X05227Y03843D01*
X05241*
X05247Y03836*
Y03829*
X05241Y03823*
X05247Y03816*
Y03809*
X05241Y03803*
X05227*
X05221Y03809*
Y03816*
X05227Y03823*
X05221Y03829*
Y03836*
X05227Y03823D02*
X05241D01*
X05945Y05393D02*
X05905D01*
Y05373*
X05912Y05367*
X05938*
X05945Y05373*
Y05393*
X05905Y05333D02*
X05945D01*
X05925Y05353*
Y05327*
X05748Y05393D02*
X05708D01*
Y05373*
X05715Y05367*
X05741*
X05748Y05373*
Y05393*
X05741Y05353D02*
X05748Y05347D01*
Y05333*
X05741Y05327*
X05735*
X05728Y05333*
Y0534*
Y05333*
X05721Y05327*
X05715*
X05708Y05333*
Y05347*
X05715Y05353*
X06417Y05393D02*
X06377D01*
Y05373*
X06384Y05367*
X06411*
X06417Y05373*
Y05393*
X06377Y05327D02*
Y05353D01*
X06404Y05327*
X06411*
X06417Y05333*
Y05347*
X06411Y05353*
X0613Y03177D02*
Y03137D01*
X0615*
X06157Y03144*
Y03171*
X0615Y03177*
X0613*
X0617Y03144D02*
X06177Y03137D01*
X0619*
X06197Y03144*
Y03171*
X0619Y03177*
X06177*
X0617Y03171*
Y03164*
X06177Y03157*
X06197*
X04948Y04356D02*
Y04316D01*
X04968*
X04975Y04323*
Y0435*
X04968Y04356*
X04948*
X05015D02*
X04988D01*
Y04336*
X05002Y04343*
X05008*
X05015Y04336*
Y04323*
X05008Y04316*
X04995*
X04988Y04323*
X04659Y0415D02*
Y0411D01*
X04679*
X04686Y04116*
Y04143*
X04679Y0415*
X04659*
X04699D02*
X04726D01*
Y04143*
X04699Y04116*
Y0411*
X06327Y04771D02*
Y04731D01*
X06347*
X06354Y04737*
Y04764*
X06347Y04771*
X06327*
X06367Y04764D02*
X06374Y04771D01*
X06387*
X06394Y04764*
Y04757*
X06387Y04751*
X06394Y04744*
Y04737*
X06387Y04731*
X06374*
X06367Y04737*
Y04744*
X06374Y04751*
X06367Y04757*
Y04764*
X06374Y04751D02*
X06387D01*
X06327Y04444D02*
Y04404D01*
X06347*
X06354Y04411*
Y04437*
X06347Y04444*
X06327*
X06367Y04404D02*
X06381D01*
X06374*
Y04444*
X06367Y04437*
X06401D02*
X06407Y04444D01*
X06421*
X06427Y04437*
Y04411*
X06421Y04404*
X06407*
X06401Y04411*
Y04437*
X06788Y05238D02*
Y05264D01*
X06768*
X06774Y05251*
Y05244*
X06768Y05238*
X06754*
X06748Y05244*
Y05258*
X06754Y05264*
X06748Y05224D02*
X06774D01*
X06788Y05211*
X06774Y05198*
X06748*
X06768*
Y05224*
X06624Y05283D02*
Y0531D01*
X06604*
Y05296*
Y0531*
X06584*
X06624Y0527D02*
X06591D01*
X06584Y05263*
Y0525*
X06591Y05243*
X06624*
X06617Y05203D02*
X06624Y0521D01*
Y05223*
X06617Y0523*
X06611*
X06604Y05223*
Y0521*
X06597Y05203*
X06591*
X06584Y0521*
Y05223*
X06591Y0523*
X06624Y05163D02*
Y0519D01*
X06584*
Y05163*
X06604Y0519D02*
Y05176D01*
X06584Y0515D02*
Y05136D01*
Y05143*
X06624*
X06617Y0515*
X06112Y06026D02*
Y06053D01*
X06138Y06026*
X06145*
X06152Y06033*
Y06046*
X06145Y06053*
X06112Y05993D02*
X06152D01*
X06132Y06013*
Y05986*
X06152Y05973D02*
X06125D01*
X06112Y05959*
X06125Y05946*
X06152*
X06112Y05933D02*
X06138D01*
X06152Y05919*
X06138Y05906*
X06112*
X06132*
Y05933*
X06145Y05866D02*
X06152Y05873D01*
Y05886*
X06145Y05893*
X06118*
X06112Y05886*
Y05873*
X06118Y05866*
X0634Y05814D02*
X06327D01*
X06333*
Y05781*
X06327Y05774*
X0632*
X06313Y05781*
X06353Y05774D02*
X06367D01*
X0636*
Y05814*
X06353Y05807*
X06564Y0311D02*
X06578D01*
X06571*
Y0307*
X06564*
X06578*
X06598D02*
Y0311D01*
X06618*
X06624Y03104*
Y0309*
X06618Y03084*
X06598*
X06611D02*
X06624Y0307D01*
X06658Y0311D02*
X06644D01*
X06638Y03104*
Y03077*
X06644Y0307*
X06658*
X06664Y03077*
Y03104*
X06658Y0311*
X06678Y0307D02*
Y0311D01*
X06704Y0307*
Y0311*
X06585Y03043D02*
X06572D01*
X06579*
Y0301*
X06572Y03003*
X06565*
X06559Y0301*
X06625Y03003D02*
X06599D01*
X06625Y0303*
Y03037*
X06619Y03043*
X06605*
X06599Y03037*
X04337Y0481D02*
Y0477D01*
X04364*
X04377D02*
X0439D01*
X04384*
Y0481*
X04377Y04803*
X06479Y0435D02*
Y04376D01*
X06472Y04383*
X06459*
X06452Y04376*
Y0435*
X06459Y04343*
X06472*
X06466Y04356D02*
X06479Y04343D01*
X06472D02*
X06479Y0435D01*
X06519Y04343D02*
X06492D01*
X06519Y0437*
Y04376*
X06512Y04383*
X06499*
X06492Y04376*
X06015Y04528D02*
Y04554D01*
X06009Y04561*
X05995*
X05989Y04554*
Y04528*
X05995Y04521*
X06009*
X06002Y04534D02*
X06015Y04521D01*
X06009D02*
X06015Y04528D01*
X06029Y04554D02*
X06035Y04561D01*
X06049*
X06055Y04554*
Y04548*
X06049Y04541*
X06042*
X06049*
X06055Y04534*
Y04528*
X06049Y04521*
X06035*
X06029Y04528*
X05736Y04714D02*
Y04741D01*
X05729Y04747*
X05716*
X05709Y04741*
Y04714*
X05716Y04707*
X05729*
X05722Y04721D02*
X05736Y04707D01*
X05729D02*
X05736Y04714D01*
X05769Y04707D02*
Y04747D01*
X05749Y04727*
X05776*
X04992Y04215D02*
Y04241D01*
X04985Y04248*
X04972*
X04965Y04241*
Y04215*
X04972Y04208*
X04985*
X04978Y04221D02*
X04992Y04208D01*
X04985D02*
X04992Y04215D01*
X05005Y04208D02*
X05018D01*
X05012*
Y04248*
X05005Y04241*
X06315Y04554D02*
Y04594D01*
X06335*
X06342Y04587*
Y04574*
X06335Y04567*
X06315*
X06329D02*
X06342Y04554D01*
X06382Y04594D02*
X06369Y04587D01*
X06355Y04574*
Y0456*
X06362Y04554*
X06375*
X06382Y0456*
Y04567*
X06375Y04574*
X06355*
X06302Y04698D02*
X06342D01*
Y04678*
X06335Y04672*
X06322*
X06315Y04678*
Y04698*
Y04685D02*
X06302Y04672D01*
X06342Y04632D02*
Y04658D01*
X06322*
X06328Y04645*
Y04638*
X06322Y04632*
X06308*
X06302Y04638*
Y04652*
X06308Y04658*
X05259Y0429D02*
Y0433D01*
X05279*
X05286Y04323*
Y0431*
X05279Y04303*
X05259*
X05273D02*
X05286Y0429D01*
X05326D02*
X05299D01*
X05326Y04317*
Y04323*
X05319Y0433*
X05306*
X05299Y04323*
X05709Y04633D02*
Y04673D01*
X05729*
X05736Y04667*
Y04653*
X05729Y04647*
X05709*
X05722D02*
X05736Y04633D01*
X05749Y04667D02*
X05756Y04673D01*
X05769*
X05776Y04667*
Y0466*
X05769Y04653*
X05776Y04647*
Y0464*
X05769Y04633*
X05756*
X05749Y0464*
Y04647*
X05756Y04653*
X05749Y0466*
Y04667*
X05756Y04653D02*
X05769D01*
X04154Y04416D02*
X04194D01*
Y04396*
X04187Y04389*
X04174*
X04167Y04396*
Y04416*
Y04403D02*
X04154Y04389D01*
X04187Y04376D02*
X04194Y04369D01*
Y04356*
X04187Y04349*
X04181*
X04174Y04356*
Y04363*
Y04356*
X04167Y04349*
X04161*
X04154Y04356*
Y04369*
X04161Y04376*
X04376Y03812D02*
Y03852D01*
X04395*
X04402Y03845*
Y03832*
X04395Y03825*
X04376*
X04389D02*
X04402Y03812D01*
X04435D02*
Y03852D01*
X04415Y03832*
X04442*
X05965Y04849D02*
Y04889D01*
X05985*
X05992Y04882*
Y04869*
X05985Y04862*
X05965*
X05978D02*
X05992Y04849D01*
X06005Y04889D02*
X06032D01*
Y04882*
X06005Y04856*
Y04849*
X04471Y03941D02*
Y03908D01*
X04478Y03901*
X04491*
X04498Y03908*
Y03941*
X04511Y03901D02*
X04524D01*
X04518*
Y03941*
X04511Y03934*
X06104Y04888D02*
X0613D01*
Y04881*
X06104Y04855*
Y04848*
X0613*
X06144Y04888D02*
Y04848D01*
X06164*
X0617Y04855*
Y04881*
X06164Y04888*
X06144*
X0621D02*
X06197Y04881D01*
X06184Y04868*
Y04855*
X0619Y04848*
X06204*
X0621Y04855*
Y04861*
X06204Y04868*
X06184*
X0511Y04853D02*
Y04826D01*
X05104*
X05077Y04853*
X0507*
Y04826*
X0511Y04813D02*
X0507D01*
Y04793*
X05077Y04786*
X05104*
X0511Y04793*
Y04813*
X05104Y04773D02*
X0511Y04766D01*
Y04753*
X05104Y04746*
X05097*
X0509Y04753*
Y0476*
Y04753*
X05084Y04746*
X05077*
X0507Y04753*
Y04766*
X05077Y04773*
X06221Y05393D02*
X06181D01*
Y05373*
X06187Y05367*
X06214*
X06221Y05373*
Y05393*
X06181Y05353D02*
Y0534D01*
Y05347*
X06221*
X06214Y05353*
X04503Y02876D02*
X04489D01*
X04496*
Y02843*
X04489Y02836*
X04483*
X04476Y02843*
X04543Y02876D02*
X04516D01*
Y02856*
X04529Y02863*
X04536*
X04543Y02856*
Y02843*
X04536Y02836*
X04523*
X04516Y02843*
X04729Y03733D02*
X04722Y03739D01*
X04709*
X04702Y03733*
Y03706*
X04709Y03699*
X04722*
X04729Y03706*
X04742Y03699D02*
X04756D01*
X04749*
Y03739*
X04742Y03733*
X04802Y03739D02*
X04789Y03733D01*
X04776Y03719*
Y03706*
X04782Y03699*
X04796*
X04802Y03706*
Y03713*
X04796Y03719*
X04776*
X03962Y03244D02*
Y03284D01*
X03982*
X03989Y03277*
Y03264*
X03982Y03257*
X03962*
X04002Y03284D02*
Y03244D01*
X04015Y03257*
X04029Y03244*
Y03284*
X04042Y03244D02*
Y03284D01*
X04062*
X04069Y03277*
Y03264*
X04062Y03257*
X04042*
X04055D02*
X04069Y03244D01*
X0416Y03308D02*
X04147D01*
X04153*
Y03275*
X04147Y03268*
X0414*
X04133Y03275*
X04173Y03302D02*
X0418Y03308D01*
X04193*
X042Y03302*
Y03295*
X04193Y03288*
X04187*
X04193*
X042Y03282*
Y03275*
X04193Y03268*
X0418*
X04173Y03275*
X06328Y04109D02*
X06322Y04115D01*
X06308*
X06302Y04109*
Y04082*
X06308Y04075*
X06322*
X06328Y04082*
X06342Y04075D02*
X06355D01*
X06348*
Y04115*
X06342Y04109*
X06375Y04082D02*
X06382Y04075D01*
X06395*
X06402Y04082*
Y04109*
X06395Y04115*
X06382*
X06375Y04109*
Y04102*
X06382Y04095*
X06402*
X0633Y04027D02*
X06323Y04034D01*
X0631*
X06303Y04027*
Y04*
X0631Y03994*
X06323*
X0633Y04*
X0637Y03994D02*
X06343D01*
X0637Y0402*
Y04027*
X06363Y04034*
X0635*
X06343Y04027*
X06383D02*
X06389Y04034D01*
X06403*
X06409Y04027*
Y04*
X06403Y03994*
X06389*
X06383Y04*
Y04027*
X05716Y0411D02*
Y04136D01*
X05709Y04143*
X05696*
X05689Y04136*
Y0411*
X05696Y04103*
X05709*
X05703Y04116D02*
X05716Y04103D01*
X05709D02*
X05716Y0411D01*
X05729Y04103D02*
X05743D01*
X05736*
Y04143*
X05729Y04136*
X05763D02*
X05769Y04143D01*
X05783*
X05789Y04136*
Y0413*
X05783Y04123*
X05776*
X05783*
X05789Y04116*
Y0411*
X05783Y04103*
X05769*
X05763Y0411*
X05717Y03803D02*
Y03843D01*
X05737*
X05744Y03836*
Y03823*
X05737Y03816*
X05717*
X0573D02*
X05744Y03803D01*
X05757D02*
X0577D01*
X05764*
Y03843*
X05757Y03836*
X0579Y03809D02*
X05797Y03803D01*
X0581*
X05817Y03809*
Y03836*
X0581Y03843*
X05797*
X0579Y03836*
Y03829*
X05797Y03823*
X05817*
X05845Y03833D02*
X05872D01*
Y03826*
X05845Y03799*
Y03793*
X05872*
X05885Y03833D02*
Y03793D01*
X05905*
X05912Y03799*
Y03826*
X05905Y03833*
X05885*
X05952D02*
X05925D01*
Y03813*
X05938Y03819*
X05945*
X05952Y03813*
Y03799*
X05945Y03793*
X05932*
X05925Y03799*
X05732Y04201D02*
Y04161D01*
X05752*
X05758Y04168*
Y04194*
X05752Y04201*
X05732*
X05772Y04161D02*
X05785D01*
X05778*
Y04201*
X05772Y04194*
X05825Y04161D02*
Y04201D01*
X05805Y04181*
X05832*
X05694Y04046D02*
Y04086D01*
X05714*
X05721Y04079*
Y04066*
X05714Y04059*
X05694*
X05708D02*
X05721Y04046D01*
X05761D02*
X05734D01*
X05761Y04072*
Y04079*
X05754Y04086*
X05741*
X05734Y04079*
X05774D02*
X05781Y04086D01*
X05794*
X05801Y04079*
Y04052*
X05794Y04046*
X05781*
X05774Y04052*
Y04079*
X05558Y04414D02*
Y04375D01*
X05578*
X05584Y04381*
Y04408*
X05578Y04414*
X05558*
X05598Y04375D02*
X05611D01*
X05604*
Y04414*
X05598Y04408*
X05631Y04375D02*
X05644D01*
X05638*
Y04414*
X05631Y04408*
X05014Y03729D02*
X05008Y03735D01*
X04994*
X04988Y03729*
Y03702*
X04994Y03695*
X05008*
X05014Y03702*
X05028Y03695D02*
X05041D01*
X05034*
Y03735*
X05028Y03729*
X05061Y03695D02*
X05074D01*
X05068*
Y03735*
X05061Y03729*
X05656Y04249D02*
Y04209D01*
X05676*
X05683Y04216*
Y04242*
X05676Y04249*
X05656*
X05723D02*
X05709Y04242D01*
X05696Y04229*
Y04216*
X05703Y04209*
X05716*
X05723Y04216*
Y04222*
X05716Y04229*
X05696*
X0561Y06016D02*
Y06043D01*
X05636Y06016*
X05643*
X0565Y06023*
Y06036*
X05643Y06043*
X0561Y05983D02*
X0565D01*
X0563Y06003*
Y05976*
X0565Y05963D02*
X05623D01*
X0561Y0595*
X05623Y05936*
X0565*
Y05923D02*
X0561D01*
Y05903*
X05616Y05896*
X05643*
X0565Y05903*
Y05923*
X05643Y05856D02*
X0565Y05863D01*
Y05876*
X05643Y05883*
X05616*
X0561Y05876*
Y05863*
X05616Y05856*
X05852Y05809D02*
X05839D01*
X05845*
Y05776*
X05839Y05769*
X05832*
X05825Y05776*
X05865Y05809D02*
X05892D01*
Y05803*
X05865Y05776*
Y05769*
X04891Y03095D02*
X04865D01*
Y03075*
X04878Y03081*
X04885*
X04891Y03075*
Y03061*
X04885Y03055*
X04871*
X04865Y03061*
X04905Y03055D02*
Y03061D01*
X04911*
Y03055*
X04905*
X04965D02*
X04938D01*
X04965Y03081*
Y03088*
X04958Y03095*
X04945*
X04938Y03088*
X04316Y02817D02*
Y02777D01*
Y02797*
X04343*
Y02817*
Y02777*
X04376Y02817D02*
X04363D01*
X04356Y0281*
Y02784*
X04363Y02777*
X04376*
X04383Y02784*
Y0281*
X04376Y02817*
X04396D02*
Y02777D01*
X04423*
X04436Y02817D02*
Y02777D01*
X04456*
X04463Y02784*
Y0281*
X04456Y02817*
X04436*
X04503D02*
X04476D01*
Y02777*
X04503*
X04476Y02797D02*
X0449D01*
X04516Y02777D02*
Y02817D01*
X04536*
X04543Y0281*
Y02797*
X04536Y0279*
X04516*
X0453D02*
X04543Y02777D01*
G54D77*
X05093Y04531D02*
Y0457D01*
X05073Y04551D02*
X05113D01*
G54D78*
X05276Y04036D02*
X05315D01*
X05296Y04056D02*
Y04016D01*
X05156Y03498D02*
X05117D01*
X05137Y03478D02*
Y03518D01*
X03971Y04121D02*
X0401D01*
X0399Y04141D02*
Y04101D01*
G54D79*
X05499Y05277D03*
X06208Y05204D03*
X06444Y05203D03*
X05736Y05557D03*
X05972D03*
M02*