%FSTAX26Y26*%
%MOIN*%
%SFA1B1*%

%IPPOS*%
%ADD17C,0.050000*%
%ADD21C,0.059060*%
%ADD22R,0.059060X0.059060*%
%ADD23C,0.050000*%
%LNunisolder52_oled-1*%
%LPD*%
G36*
X0055118Y0032283D02*
Y-0037008D01*
X0050424Y-0041702*
X0049955Y-0041464*
X0049856Y-0040712*
X0049514Y-0039885*
X0048969Y-0039175*
X0048259Y-003863*
X0047431Y-0038287*
X0046544Y-0038171*
X002772*
X0016625Y-0027075*
X0015915Y-002653*
X0015088Y-0026188*
X00142Y-0026071*
X-002348*
X-0036947Y-0012603*
Y-0009747*
X-0044653*
Y-0017453*
X-0041797*
X-0027325Y-0031925*
X-0026615Y-003247*
X-0025788Y-0032812*
X-00249Y-0032929*
X0012779*
X0023445Y-0043595*
X0023238Y-0044094*
X-0048425*
X-0055118Y-0037402*
Y0032283*
X-0048031Y003937*
X0048031*
X0055118Y0032283*
G37*
%LNunisolder52_oled-2*%
%LPC*%
G36*
X-0037013Y-000435D02*
X-004005D01*
Y-0007387*
X-0039794Y-0007354*
X-0038857Y-0006965*
X-0038052Y-0006348*
X-0037435Y-0005543*
X-0037046Y-0004606*
X-0037013Y-000435*
G37*
G36*
X-004155Y0000187D02*
X-0041806Y0000154D01*
X-0042743Y-0000235*
X-0043548Y-0000852*
X-0044165Y-0001657*
X-0044554Y-0002594*
X-0044587Y-000285*
X-004155*
Y0000187*
G37*
G36*
X-004005D02*
Y-000285D01*
X-0037013*
X-0037046Y-0002594*
X-0037435Y-0001657*
X-0038052Y-0000852*
X-0038857Y-0000235*
X-0039794Y0000154*
X-004005Y0000187*
G37*
G36*
X0044753Y-0010147D02*
X0037047D01*
Y-0017853*
X0044753*
Y-0010147*
G37*
G36*
X00409Y-0000114D02*
X0039894Y-0000246D01*
X0038957Y-0000635*
X0038152Y-0001252*
X0037535Y-0002057*
X0037146Y-0002994*
X0037014Y-0004*
X0037146Y-0005006*
X0037535Y-0005943*
X0038152Y-0006748*
X0038957Y-0007365*
X0039894Y-0007754*
X00409Y-0007886*
X0041906Y-0007754*
X0042843Y-0007365*
X0043648Y-0006748*
X0044265Y-0005943*
X0044654Y-0005006*
X0044786Y-0004*
X0044654Y-0002994*
X0044265Y-0002057*
X0043648Y-0001252*
X0042843Y-0000635*
X0041906Y-0000246*
X00409Y-0000114*
G37*
G36*
X-004155Y-000435D02*
X-0044587D01*
X-0044554Y-0004606*
X-0044165Y-0005543*
X-0043548Y-0006348*
X-0042743Y-0006965*
X-0041806Y-0007354*
X-004155Y-0007387*
Y-000435*
G37*
G36*
X-001811Y0015339D02*
X-001854Y0015282D01*
X-0018898Y0015329*
X-0022647*
X-0023535Y0015213*
X-0024362Y001487*
X-0025072Y0014325*
X-0035004Y0004393*
X-0035549Y0003683*
X-0035891Y0002856*
X-0036008Y0001969*
X-0035891Y0001081*
X-0035549Y0000254*
X-0035004Y-0000456*
X-0034293Y-0001001*
X-0033466Y-0001344*
X-0032579Y-0001461*
X-0031691Y-0001344*
X-0030864Y-0001001*
X-0030154Y-0000456*
X-0021227Y0008471*
X-0018898*
X-0018468Y0008527*
X-001811Y000848*
X-0017223Y0008597*
X-0016396Y000894*
X-0015685Y0009484*
X-001514Y0010195*
X-0014798Y0011022*
X-0014681Y0011909*
X-0014798Y0012797*
X-001514Y0013624*
X-0015685Y0014334*
X-0016396Y0014879*
X-0017223Y0015222*
X-001811Y0015339*
G37*
G36*
X00409Y0029886D02*
X0039894Y0029754D01*
X0038957Y0029365*
X0038152Y0028748*
X0037535Y0027943*
X0037146Y0027006*
X0037014Y0026*
X0037146Y0024994*
X0037535Y0024057*
X0038152Y0023252*
X0038957Y0022635*
X0039894Y0022246*
X00409Y0022114*
X0041906Y0022246*
X0042843Y0022635*
X0043648Y0023252*
X0044265Y0024057*
X0044654Y0024994*
X0044786Y0026*
X0044654Y0027006*
X0044265Y0027943*
X0043648Y0028748*
X0042843Y0029365*
X0041906Y0029754*
X00409Y0029886*
G37*
G36*
X-00408Y0030286D02*
X-0041806Y0030154D01*
X-0042743Y0029765*
X-0043548Y0029148*
X-0044165Y0028343*
X-0044554Y0027406*
X-0044686Y00264*
X-0044554Y0025394*
X-0044165Y0024457*
X-0043548Y0023652*
X-0042743Y0023035*
X-0041806Y0022646*
X-00408Y0022514*
X-0039794Y0022646*
X-0038857Y0023035*
X-0038052Y0023652*
X-0037435Y0024457*
X-0037046Y0025394*
X-0036914Y00264*
X-0037046Y0027406*
X-0037435Y0028343*
X-0038052Y0029148*
X-0038857Y0029765*
X-0039794Y0030154*
X-00408Y0030286*
G37*
G36*
Y0020286D02*
X-0041806Y0020154D01*
X-0042743Y0019765*
X-0043548Y0019148*
X-0044165Y0018343*
X-0044554Y0017406*
X-0044686Y00164*
X-0044554Y0015394*
X-0044165Y0014457*
X-0043548Y0013652*
X-0042743Y0013035*
X-0041806Y0012646*
X-00408Y0012514*
X-0039794Y0012646*
X-0038857Y0013035*
X-0038052Y0013652*
X-0037435Y0014457*
X-0037046Y0015394*
X-0036914Y00164*
X-0037046Y0017406*
X-0037435Y0018343*
X-0038052Y0019148*
X-0038857Y0019765*
X-0039794Y0020154*
X-00408Y0020286*
G37*
G36*
X00409Y0009886D02*
X0039894Y0009754D01*
X0038957Y0009365*
X0038152Y0008748*
X0037535Y0007943*
X0037146Y0007006*
X0037014Y0006*
X0037146Y0004994*
X0037535Y0004057*
X0038152Y0003252*
X0038957Y0002635*
X0039894Y0002246*
X00409Y0002114*
X0041906Y0002246*
X0042843Y0002635*
X0043648Y0003252*
X0044265Y0004057*
X0044654Y0004994*
X0044786Y0006*
X0044654Y0007006*
X0044265Y0007943*
X0043648Y0008748*
X0042843Y0009365*
X0041906Y0009754*
X00409Y0009886*
G37*
G36*
X-00408Y0010286D02*
X-0041806Y0010154D01*
X-0042743Y0009765*
X-0043548Y0009148*
X-0044165Y0008343*
X-0044554Y0007406*
X-0044686Y00064*
X-0044554Y0005394*
X-0044165Y0004457*
X-0043548Y0003652*
X-0042743Y0003035*
X-0041806Y0002646*
X-00408Y0002514*
X-0039794Y0002646*
X-0038857Y0003035*
X-0038052Y0003652*
X-0037435Y0004457*
X-0037046Y0005394*
X-0036914Y00064*
X-0037046Y0007406*
X-0037435Y0008343*
X-0038052Y0009148*
X-0038857Y0009765*
X-0039794Y0010154*
X-00408Y0010286*
G37*
G36*
X00409Y0019886D02*
X0039894Y0019754D01*
X0038957Y0019365*
X0038152Y0018748*
X0037535Y0017943*
X0037146Y0017006*
X0037014Y0016*
X0037146Y0014994*
X0037535Y0014057*
X0038152Y0013252*
X0038957Y0012635*
X0039894Y0012246*
X00409Y0012114*
X0041906Y0012246*
X0042843Y0012635*
X0043648Y0013252*
X0044265Y0014057*
X0044654Y0014994*
X0044786Y0016*
X0044654Y0017006*
X0044265Y0017943*
X0043648Y0018748*
X0042843Y0019365*
X0041906Y0019754*
X00409Y0019886*
G37*
%LNunisolder52_oled-3*%
%LPD*%
G54D17*
X-0022647Y00119D02*
X-0018898D01*
X-0032579Y0001969D02*
X-0022647Y00119D01*
X00263Y-00416D02*
X0046544D01*
X00142Y-00295D02*
X00263Y-00416D01*
X-00249Y-00295D02*
X00142D01*
X-00408Y-00136D02*
X-00249Y-00295D01*
G54D21*
X00409Y0026D03*
Y0016D03*
Y0006D03*
Y-0004D03*
X-00408Y00264D03*
Y00164D03*
Y00064D03*
Y-00036D03*
G54D22*
X00409Y-0014D03*
X-00408Y-00136D03*
G54D23*
X-0001969Y0008169D03*
X-001811Y0011909D03*
X-00184Y0006D03*
X-0026476Y-0000689D03*
X0044488Y-0034843D03*
X0016535Y-0041535D03*
X-0032579Y0001969D03*
X0033268Y-0007185D03*
X0052067Y-0015354D03*
X0026191Y-0041491D03*
X0046544Y-00416D03*
X-00448Y-00211D03*
X-0002854Y-0018799D03*
X-0017421Y0019882D03*
X-00305Y00277D03*
X-00207Y0036D03*
X-00408Y00358D03*
X-00503Y00211D03*
X-005Y00047D03*
X0050984Y0011319D03*
X00508Y00213D03*
X00402Y00355D03*
X0024281Y0016298D03*
X0018898Y-0010827D03*
X-0027657Y001565D03*
X-0004724Y0019783D03*
X-00309Y-00416D03*
X-0002756Y-0041634D03*
X00443Y-00262D03*
X-0017815Y-0018996D03*
X0004724Y-0013287D03*
X-00444Y-00323D03*
X000876Y0030217D03*
X-00177Y-00417D03*
X-00486Y-00405D03*
X-0001969Y0036909D03*
X001811Y0002264D03*
X-0008465Y-00125D03*
X0022244Y0036909D03*
X000876Y0017618D03*
X0033957Y0003248D03*
M02*