%FSTAX26Y26*%
%MOIN*%
%SFA1B1*%

%IPPOS*%
%ADD14C,0.025000*%
%ADD16C,0.150000*%
%ADD18C,0.010000*%
%ADD20C,0.060000*%
%ADD21R,0.059060X0.059060*%
%ADD22C,0.059060*%
%ADD23C,0.314960*%
%ADD24C,0.125200*%
%ADD25C,0.070000*%
%ADD26C,0.050000*%
%LNunisolder_sensor-1*%
%LPD*%
G36*
X0198869Y02203D02*
X0197875D01*
X0197681Y0221266*
X0198674*
X0198869Y02203*
G37*
G36*
X0212D02*
X0210946D01*
X0210507Y022242*
X0210074*
X0209946Y0222415*
X0209836Y0222404*
X0209747Y0222387*
X0209675Y022237*
X0209619Y0222348*
X020958Y0222331*
X0209558Y022232*
X0209552Y0222315*
X0209508Y0222281*
X0209464Y0222237*
X020938Y0222137*
X0209303Y0222026*
X020923Y0221915*
X0209175Y0221815*
X0209153Y0221771*
X0209136Y0221726*
X020912Y0221693*
X0209108Y0221671*
X0209097Y0221654*
Y0221649*
X0209025Y0221482*
X0208959Y0221327*
X0208898Y0221182*
X0208842Y0221049*
X0208798Y0220933*
X0208753Y0220822*
X0208714Y0220722*
X0208676Y0220633*
X0208648Y0220555*
X0208626Y0220483*
X0208603Y0220428*
X0208587Y0220383*
X0208576Y0220344*
X0208565Y0220322*
X0208559Y0220305*
Y02203*
X0207427*
X020751Y02205*
X0207588Y0220689*
X020766Y0220861*
X0207732Y0221027*
X0207804Y0221177*
X0207871Y0221316*
X0207932Y0221443*
X0207987Y0221554*
X0208037Y022166*
X0208082Y0221743*
X0208121Y0221821*
X0208154Y0221882*
X0208182Y0221932*
X0208198Y0221965*
X0208209Y0221987*
X0208215Y0221993*
X0208281Y0222098*
X0208348Y0222193*
X0208415Y0222276*
X020847Y0222348*
X0208526Y0222404*
X0208565Y0222442*
X0208587Y022247*
X0208598Y0222476*
X0208453Y0222498*
X020832Y0222526*
X0208193Y0222559*
X0208076Y0222598*
X0207971Y0222642*
X0207871Y0222687*
X0207788Y0222731*
X0207704Y0222775*
X0207638Y022282*
X0207577Y0222859*
X0207527Y0222897*
X0207482Y0222931*
X0207449Y0222958*
X0207427Y0222981*
X0207416Y0222992*
X020741Y0222997*
X0207338Y022308*
X0207282Y0223169*
X0207227Y0223258*
X0207183Y0223347*
X0207144Y0223436*
X020711Y022353*
X0207088Y0223613*
X0207066Y0223697*
X0207049Y022378*
X0207038Y0223852*
X0207027Y0223913*
X0207022Y0223969*
X0207016Y0224019*
Y0224052*
Y0224074*
Y022408*
X0207027Y0224246*
X0207049Y0224396*
X0207083Y0224523*
X0207116Y022464*
X0207138Y022469*
X0207155Y0224729*
X0207172Y0224768*
X0207188Y0224801*
X0207205Y0224823*
X020721Y022484*
X0207222Y0224851*
Y0224857*
X0207299Y0224968*
X0207388Y0225062*
X0207477Y022514*
X020756Y0225201*
X0207632Y0225245*
X0207693Y0225278*
X0207715Y0225289*
X0207732Y0225295*
X0207743Y0225301*
X0207749*
X020781Y0225323*
X0207882Y0225339*
X0208026Y0225373*
X0208176Y0225395*
X0208326Y0225406*
X0208393Y0225412*
X0208453Y0225417*
X0208515*
X0208559Y0225423*
X0210934*
X0212Y02203*
G37*
G36*
X0204863Y0224085D02*
X0205046Y0224063D01*
X0205218Y0224024*
X0205379Y0223969*
X0205523Y0223907*
X0205656Y0223841*
X0205784Y0223769*
X0205889Y0223697*
X0205989Y0223619*
X0206073Y0223547*
X0206145Y022348*
X0206206Y0223419*
X020625Y0223364*
X0206283Y0223325*
X0206306Y0223303*
X0206311Y0223291*
X0206383Y0223175*
X020645Y0223058*
X0206505Y0222942*
X0206556Y0222825*
X0206594Y0222709*
X0206628Y0222598*
X0206655Y0222492*
X0206678Y0222387*
X02067Y0222292*
X0206711Y0222204*
X0206722Y0222126*
X0206728Y0222059*
Y0222004*
X0206733Y0221965*
Y0221943*
Y0221932*
X0206728Y0221787*
X0206711Y0221654*
X0206689Y0221527*
X0206661Y0221404*
X0206622Y0221293*
X0206583Y0221194*
X0206544Y0221099*
X02065Y022101*
X0206455Y0220933*
X0206417Y0220866*
X0206372Y0220811*
X0206339Y0220766*
X0206311Y0220727*
X0206289Y02207*
X0206272Y0220683*
X0206267Y0220677*
X0206178Y0220594*
X0206078Y0220522*
X0205984Y0220461*
X0205878Y0220406*
X0205779Y0220361*
X0205679Y0220322*
X0205579Y0220289*
X0205484Y0220267*
X0205396Y0220245*
X0205312Y0220233*
X020524Y0220222*
X0205173Y0220211*
X0205123*
X0205085Y0220206*
X0205051*
X0204952Y0220211*
X0204852Y0220217*
X0204668Y022025*
X0204502Y0220289*
X0204424Y0220317*
X0204358Y0220339*
X0204291Y0220367*
X0204236Y0220389*
X0204186Y0220411*
X0204147Y0220433*
X0204113Y022045*
X0204091Y0220461*
X0204075Y0220466*
X0204069Y0220472*
X0203991Y0220528*
X0203914Y0220583*
X0203775Y0220716*
X0203653Y0220849*
X0203553Y0220983*
X0203508Y0221044*
X020347Y0221099*
X0203442Y0221155*
X0203414Y0221199*
X0203392Y0221238*
X0203375Y0221266*
X020337Y0221282*
X0203364Y0221288*
X0204263Y0221438*
X0204319Y0221349*
X020438Y0221266*
X0204441Y0221199*
X0204507Y0221138*
X0204569Y0221088*
X0204635Y0221049*
X0204696Y0221016*
X0204763Y0220988*
X0204818Y0220966*
X0204874Y0220949*
X0204924Y0220938*
X0204963Y0220927*
X0204996*
X0205024Y0220922*
X0205046*
X0205157Y0220933*
X0205257Y0220955*
X0205346Y0220994*
X0205418Y0221033*
X0205479Y0221072*
X0205523Y022111*
X0205551Y0221132*
X0205562Y0221144*
X0205634Y0221232*
X0205684Y0221332*
X0205723Y0221432*
X0205745Y0221527*
X0205762Y0221615*
X0205767Y0221649*
Y0221682*
X0205773Y022171*
Y0221726*
Y0221737*
Y0221743*
Y0221771*
X0205767Y0221804*
Y0221826*
Y0221837*
X0203253*
X0203231Y0221948*
X0203209Y0222059*
X0203198Y022217*
X0203192Y0222276*
X0203187Y0222359*
X0203181Y0222398*
Y0222431*
Y0222459*
Y0222476*
Y0222487*
Y0222492*
X0203187Y0222631*
X0203198Y0222759*
X020322Y0222881*
X0203242Y0222997*
X0203275Y0223097*
X0203309Y0223197*
X0203348Y0223286*
X0203381Y0223364*
X020342Y0223436*
X0203458Y0223497*
X0203492Y0223547*
X0203525Y0223591*
X0203547Y0223624*
X020357Y0223652*
X0203581Y0223663*
X0203586Y0223669*
X0203664Y0223746*
X0203747Y0223808*
X0203836Y0223869*
X0203925Y0223919*
X0204014Y0223957*
X0204102Y0223991*
X0204191Y0224019*
X0204274Y0224041*
X0204358Y0224063*
X020443Y0224074*
X0204496Y0224085*
X0204557Y0224091*
X0204602Y0224096*
X0204668*
X0204863Y0224085*
G37*
G36*
X0190916Y02203D02*
X0189922D01*
X0189728Y0221266*
X0190721*
X0190916Y02203*
G37*
G36*
X0195125Y02291D02*
X0193883D01*
X0193591Y0230481*
X0192731Y0231244*
X0192085Y02291*
X0190829*
X0191829Y0232063*
X0189962Y0233743*
X0191593*
X0193244Y0232154*
X0192543Y0235506*
X0193793*
X0195125Y02291*
G37*
G36*
X0201059Y023384D02*
X0201204Y0233833D01*
X020135Y0233812*
X0201482Y0233791*
X0201607Y0233764*
X0201718Y0233736*
X0201822Y0233701*
X0201919Y0233674*
X0202003Y0233639*
X0202079Y0233604*
X0202141Y0233576*
X020219Y0233548*
X0202232Y0233528*
X0202266Y0233507*
X020228Y02335*
X0202287Y0233493*
X0202384Y0233424*
X0202468Y0233354*
X0202551Y0233278*
X020262Y0233195*
X0202745Y0233035*
X0202849Y0232882*
X0202926Y0232744*
X0202953Y0232681*
X0202974Y0232632*
X0202995Y0232591*
X0203009Y0232556*
X0203016Y0232535*
Y0232528*
X0201794Y0232431*
X020176Y0232515*
X0201725Y0232591*
X0201683Y023266*
X0201635Y0232716*
X0201593Y0232757*
X0201558Y0232785*
X0201538Y0232806*
X0201531Y0232813*
X0201454Y0232861*
X0201364Y0232896*
X0201274Y0232917*
X0201191Y0232938*
X0201114Y0232945*
X0201052Y0232952*
X0200996*
X0200885Y0232945*
X0200788Y0232931*
X0200705Y023291*
X0200636Y0232882*
X0200587Y0232855*
X0200545Y0232834*
X0200524Y023282*
X0200518Y0232813*
X0200462Y0232757*
X020042Y0232702*
X0200393Y0232646*
X0200372Y0232591*
X0200358Y0232542*
X0200351Y0232507*
Y023248*
Y0232473*
Y023241*
X0200365Y0232341*
X0200379Y0232272*
X0200393Y0232202*
X0200406Y0232147*
X020042Y0232098*
X0200427Y023207*
X0200434Y0232056*
X0200497Y0232036*
X0200573Y0232015*
X0200656Y0232001*
X0200746Y023198*
X0200941Y0231952*
X0201142Y0231925*
X0201239Y0231911*
X0201329Y0231904*
X0201413Y0231897*
X0201482Y023189*
X0201545Y0231883*
X0201586Y0231876*
X0201628*
X0201822Y0231855*
X0201996Y0231834*
X0202155Y02318*
X0202308Y0231765*
X020244Y0231723*
X0202565Y0231689*
X0202669Y0231647*
X0202766Y0231605*
X0202849Y0231564*
X0202919Y0231522*
X0202974Y0231487*
X0203023Y0231453*
X0203058Y0231425*
X0203085Y0231411*
X0203099Y0231397*
X0203106Y023139*
X0203175Y0231314*
X0203238Y0231231*
X0203293Y0231147*
X0203342Y0231057*
X0203384Y0230967*
X0203418Y0230884*
X0203467Y023071*
X0203481Y0230634*
X0203495Y0230557*
X0203502Y0230495*
X0203509Y0230439*
X0203516Y0230391*
Y0230356*
Y0230335*
Y0230328*
X0203509Y0230217*
X0203502Y023012*
X020346Y0229926*
X0203398Y0229759*
X0203328Y0229621*
X0203293Y0229565*
X0203259Y0229509*
X0203224Y0229461*
X0203196Y0229426*
X0203175Y0229398*
X0203155Y0229378*
X0203148Y0229364*
X0203141Y0229357*
X0203071Y0229294*
X0202995Y0229232*
X0202912Y0229183*
X0202835Y0229142*
X0202676Y0229072*
X0202523Y0229031*
X0202391Y0229003*
X0202336Y0228996*
X0202287Y0228989*
X0202245Y0228982*
X020219*
X0202058Y0228989*
X0201926Y022901*
X0201801Y0229037*
X020169Y0229065*
X02016Y0229093*
X0201531Y0229121*
X0201503Y0229135*
X0201482Y0229142*
X0201475Y0229149*
X0201468*
X0201336Y0229218*
X0201218Y0229294*
X0201107Y0229371*
X020101Y0229447*
X0200934Y0229516*
X0200878Y0229572*
X0200844Y0229607*
X020083Y0229621*
X0200823Y0229523*
X0200809Y0229426*
X0200795Y0229336*
X0200781Y022926*
X0200767Y022919*
X0200753Y0229142*
X020074Y0229114*
Y02291*
X0199525*
X019956Y0229232*
X0199581Y0229357*
X0199601Y0229468*
X0199608Y0229565*
X0199615Y0229648*
X0199622Y0229711*
Y0229745*
Y0229759*
Y0229829*
X0199615Y0229905*
X0199608Y0229988*
X0199594Y0230079*
X0199567Y0230273*
X0199532Y023046*
X0199518Y0230551*
X0199497Y0230641*
X0199483Y0230717*
X0199469Y0230786*
X0199456Y0230842*
X0199449Y0230884*
X0199442Y0230911*
Y0230918*
X01994Y0231099*
X0199365Y0231258*
X0199338Y0231404*
X019931Y0231536*
X0199282Y0231654*
X0199261Y0231751*
X0199248Y0231841*
X0199227Y0231918*
X019922Y023198*
X0199206Y0232036*
X0199199Y0232077*
X0199192Y0232105*
Y0232133*
X0199185Y0232147*
Y023216*
X0199157Y0232327*
X019915Y0232403*
Y0232473*
X0199143Y0232528*
Y023257*
Y0232598*
Y0232605*
X019915Y0232702*
X0199164Y0232792*
X0199185Y0232882*
X0199213Y0232966*
X0199282Y0233111*
X0199358Y0233243*
X0199435Y0233347*
X0199477Y0233389*
X0199504Y0233424*
X0199532Y0233451*
X0199553Y0233472*
X0199567Y0233479*
X0199574Y0233486*
X0199657Y0233548*
X0199754Y0233604*
X0199858Y0233653*
X0199962Y0233694*
X0200184Y0233757*
X0200399Y0233805*
X0200497Y0233819*
X0200594Y0233826*
X0200677Y0233833*
X0200753Y023384*
X0200816Y0233847*
X0200899*
X0201059Y023384*
G37*
G36*
X0166823Y0225439D02*
X0166934Y0225423D01*
X016704Y02254*
X0167139Y0225373*
X0167239Y0225334*
X0167334Y0225295*
X0167417Y0225251*
X01675Y0225206*
X0167572Y0225162*
X0167633Y0225117*
X0167689Y0225079*
X0167739Y022504*
X0167778Y0225012*
X0167805Y022499*
X0167822Y0224973*
X0167827Y0224968*
X0167922Y0224873*
X0168005Y0224768*
X0168094Y0224662*
X0168172Y0224546*
X016831Y0224307*
X0168371Y0224185*
X0168432Y0224074*
X0168482Y0223963*
X0168527Y0223863*
X0168566Y0223769*
X0168594Y0223691*
X0168621Y0223624*
X0168638Y0223574*
X0168649Y0223541*
X0168655Y0223536*
Y022353*
X0168699Y022338*
X0168738Y0223236*
X0168804Y0222947*
X0168832Y0222814*
X0168849Y0222681*
X0168871Y0222559*
X0168882Y0222448*
X0168893Y0222342*
X0168899Y0222248*
X016891Y0222165*
Y0222093*
X0168915Y0222037*
Y0221993*
Y0221971*
Y0221959*
X016891Y0221804*
X0168899Y022166*
X0168877Y0221521*
X0168854Y0221393*
X0168821Y0221277*
X0168788Y0221171*
X0168754Y0221072*
X0168716Y0220988*
X0168677Y0220911*
X0168643Y0220844*
X016861Y0220788*
X0168577Y0220739*
X0168555Y0220705*
X0168532Y0220677*
X0168521Y0220661*
X0168516Y0220655*
X0168438Y0220578*
X0168355Y0220505*
X0168272Y0220444*
X0168183Y0220394*
X0168094Y022035*
X0168011Y0220317*
X0167927Y0220283*
X016785Y0220261*
X0167772Y0220245*
X0167705Y0220228*
X0167639Y0220222*
X0167589Y0220211*
X0167544*
X0167511Y0220206*
X0167483*
X0167367Y0220211*
X0167256Y0220228*
X016715Y022025*
X0167045Y0220278*
X0166951Y0220317*
X0166856Y0220356*
X0166773Y0220394*
X016669Y0220439*
X0166623Y0220483*
X0166557Y0220522*
X0166501Y0220566*
X0166457Y02206*
X0166418Y0220627*
X016639Y022065*
X0166374Y0220666*
X0166368Y0220672*
X0166279Y0220766*
X016619Y0220866*
X0166107Y0220971*
X0166035Y0221077*
X0165963Y0221188*
X0165896Y0221305*
X0165835Y022141*
X0165785Y0221521*
X0165735Y0221621*
X0165691Y0221715*
X0165657Y0221798*
X016563Y0221871*
X0165602Y0221932*
X0165585Y0221976*
X016558Y0222004*
X0165574Y0222015*
X0165524Y0222176*
X0165474Y0222337*
X0165436Y0222492*
X0165402Y0222648*
X0165375Y0222792*
X0165352Y0222925*
X016533Y0223058*
X0165319Y0223175*
X0165302Y0223286*
X0165297Y0223386*
X0165291Y0223469*
X0165286Y0223541*
X016528Y0223602*
Y0223647*
Y0223669*
Y022368*
X0165286Y0223835*
X0165297Y0223985*
X0165319Y0224118*
X0165341Y0224246*
X0165375Y0224363*
X0165408Y0224474*
X0165447Y0224568*
X016548Y0224657*
X0165519Y0224734*
X0165558Y0224801*
X0165591Y0224862*
X0165624Y0224906*
X0165646Y0224945*
X0165669Y0224968*
X016568Y0224984*
X0165685Y022499*
X0165763Y0225067*
X0165846Y022514*
X0165929Y0225201*
X0166013Y0225251*
X0166102Y0225295*
X0166185Y0225334*
X0166268Y0225362*
X0166346Y0225389*
X0166418Y0225406*
X016649Y0225423*
X0166551Y0225434*
X0166601Y0225439*
X0166645*
X0166679Y0225445*
X0166706*
X0166823Y0225439*
G37*
G36*
X0170919D02*
X0171035Y0225428D01*
X0171147Y0225412*
X0171246Y0225384*
X0171341Y0225356*
X017143Y0225323*
X0171513Y0225289*
X017159Y0225256*
X0171657Y0225217*
X0171718Y0225184*
X0171768Y0225151*
X0171812Y0225123*
X0171846Y0225095*
X0171868Y0225079*
X0171885Y0225067*
X017189Y0225062*
X0171968Y022499*
X017204Y0224906*
X0172101Y0224823*
X0172157Y0224734*
X0172206Y022464*
X0172256Y0224551*
X0172295Y0224463*
X0172329Y0224374*
X0172356Y022429*
X0172379Y0224213*
X0172401Y0224146*
X0172412Y0224085*
X0172429Y0224035*
X0172434Y0224002*
X017244Y0223974*
Y0223969*
X0171463Y0223824*
X0171446Y0223907*
X0171424Y0223985*
X0171407Y0224057*
X0171385Y0224124*
X0171363Y0224185*
X0171341Y0224235*
X0171318Y0224285*
X0171296Y0224324*
X0171257Y022439*
X0171224Y022444*
X0171202Y0224463*
X0171196Y0224474*
X017113Y0224535*
X0171058Y0224579*
X0170985Y0224612*
X0170919Y0224635*
X0170863Y0224646*
X0170819Y0224657*
X017078*
X0170697Y0224651*
X0170619Y0224635*
X0170558Y0224607*
X0170503Y0224579*
X0170458Y0224546*
X0170425Y0224523*
X0170403Y0224501*
X0170397Y0224496*
X0170347Y0224429*
X0170308Y0224363*
X0170281Y022429*
X0170258Y0224224*
X0170247Y0224163*
X0170242Y0224118*
Y0224085*
Y022408*
Y0224074*
X0170247Y0224013*
X0170258Y0223952*
X017027Y0223891*
X0170286Y0223835*
X0170308Y0223785*
X0170319Y0223746*
X0170331Y0223724*
X0170336Y0223713*
X0170375Y0223636*
X0170425Y0223558*
X017048Y0223475*
X0170536Y0223402*
X0170586Y0223336*
X017063Y0223286*
X0170658Y0223253*
X0170664Y0223247*
X0170669Y0223241*
X0170697Y0223208*
X0170736Y0223169*
X017078Y0223125*
X017083Y022308*
X0170935Y022297*
X0171047Y0222864*
X0171152Y0222764*
X0171202Y0222714*
X0171241Y0222675*
X0171274Y0222642*
X0171302Y022262*
X0171318Y0222603*
X0171324Y0222598*
X0171446Y0222481*
X0171563Y022237*
X0171663Y0222265*
X0171757Y0222176*
X0171846Y0222087*
X0171923Y0222009*
X017199Y0221937*
X0172051Y0221876*
X0172107Y0221821*
X0172151Y0221776*
X0172184Y0221737*
X0172218Y0221704*
X017224Y0221682*
X0172256Y0221665*
X0172262Y0221654*
X0172268Y0221649*
X0172362Y0221538*
X0172445Y0221427*
X0172517Y0221316*
X0172578Y0221221*
X0172628Y0221132*
X0172651Y0221099*
X0172667Y0221072*
X0172684Y0221044*
X0172695Y0221027*
X0172701Y0221016*
Y022101*
X0172761Y0220883*
X0172806Y0220755*
X0172845Y0220638*
X0172872Y0220528*
X0172895Y0220433*
X01729Y0220394*
X0172906Y0220361*
X0172911Y0220339*
X0172917Y0220317*
Y0220305*
Y02203*
X0169803*
X0169615Y0221216*
X0171391*
X0171285Y0221343*
X0171241Y0221399*
X0171196Y0221449*
X0171158Y0221488*
X017113Y0221521*
X0171108Y0221543*
X0171102Y0221549*
X0171069Y0221582*
X017103Y0221621*
X0170941Y022171*
X0170836Y022181*
X017073Y0221904*
X0170636Y0221998*
X0170591Y0222037*
X0170558Y022207*
X0170525Y0222104*
X0170503Y0222126*
X0170486Y0222137*
X017048Y0222143*
X0170397Y022222*
X0170319Y0222298*
X0170247Y022237*
X0170181Y0222431*
X017012Y0222492*
X0170064Y0222548*
X0170014Y0222598*
X016997Y0222648*
X0169898Y022272*
X0169848Y0222775*
X016982Y0222809*
X0169809Y022282*
X0169709Y0222942*
X016962Y0223058*
X0169548Y0223169*
X0169493Y0223264*
X0169448Y0223341*
X0169415Y0223408*
X0169404Y022343*
X0169398Y0223447*
X0169393Y0223452*
Y0223458*
X0169348Y0223574*
X016932Y022368*
X0169298Y0223785*
X0169282Y022388*
X0169271Y0223957*
X0169265Y0224019*
Y0224041*
Y0224057*
Y0224063*
Y0224068*
X0169271Y0224179*
X0169282Y0224285*
X0169304Y0224385*
X0169332Y0224474*
X0169359Y0224562*
X0169393Y0224646*
X0169431Y0224718*
X016947Y022479*
X0169509Y0224851*
X0169548Y0224901*
X0169581Y0224951*
X0169609Y0224984*
X0169637Y0225017*
X0169659Y022504*
X016967Y0225051*
X0169676Y0225056*
X0169753Y0225123*
X0169842Y0225184*
X0169931Y0225234*
X0170025Y0225284*
X017012Y0225317*
X0170214Y022535*
X0170303Y0225378*
X0170392Y0225395*
X0170475Y0225412*
X0170553Y0225423*
X0170625Y0225434*
X0170686Y0225439*
X0170736Y0225445*
X0170802*
X0170919Y0225439*
G37*
G36*
X0158975D02*
X0159097Y0225428D01*
X0159208Y02254*
X0159319Y0225373*
X0159419Y0225339*
X0159519Y0225301*
X0159602Y0225262*
X0159686Y0225217*
X0159758Y0225173*
X0159825Y0225134*
X0159874Y0225095*
X0159924Y0225062*
X0159958Y0225034*
X0159985Y0225012*
X0160002Y0224995*
X0160008Y022499*
X0160063Y0224929*
X0160119Y0224862*
X0160213Y0224723*
X0160296Y0224579*
X0160363Y022444*
X0160396Y0224374*
X0160418Y0224313*
X0160441Y0224257*
X0160457Y0224213*
X0160474Y0224174*
X0160485Y0224146*
X0160491Y0224124*
Y0224118*
X0159575Y0223941*
X0159536Y0224074*
X0159492Y0224185*
X0159447Y0224279*
X0159403Y0224357*
X0159364Y0224413*
X015933Y0224451*
X0159308Y0224479*
X0159303Y0224485*
X0159236Y022454*
X015917Y0224579*
X0159103Y0224607*
X0159042Y0224623*
X0158992Y022464*
X0158953Y0224646*
X0158914*
X0158831Y022464*
X0158759Y0224623*
X0158698Y0224596*
X0158642Y0224573*
X0158598Y0224546*
X015857Y0224518*
X0158548Y0224501*
X0158542Y0224496*
X0158493Y022444*
X0158459Y0224374*
X0158431Y0224307*
X0158415Y0224246*
X0158404Y022419*
X0158398Y0224141*
Y0224113*
Y0224107*
Y0224102*
X0158409Y022398*
X0158431Y0223869*
X0158465Y0223774*
X0158503Y0223691*
X0158542Y022363*
X0158576Y0223586*
X0158598Y0223558*
X0158609Y0223547*
X0158698Y022348*
X0158792Y022343*
X0158898Y0223391*
X0158997Y0223369*
X0159086Y0223353*
X0159125Y0223347*
X0159158*
X0159186Y0223341*
X0159264*
X0159292Y0223347*
X0159325*
X0159497Y0222509*
X0159436Y022252*
X0159386Y0222526*
X0159342*
X0159231Y022252*
X0159131Y0222498*
X0159047Y0222464*
X0158975Y0222431*
X015892Y0222398*
X0158881Y0222365*
X0158853Y0222342*
X0158848Y0222337*
X0158787Y0222265*
X0158742Y0222181*
X0158709Y0222098*
X0158687Y0222021*
X0158676Y0221948*
X0158665Y0221893*
Y0221871*
Y022186*
Y0221849*
Y0221843*
X0158676Y0221715*
X0158698Y0221599*
X0158737Y0221499*
X0158775Y022141*
X015882Y0221343*
X0158859Y0221293*
X0158881Y022126*
X0158892Y0221249*
X0158981Y0221171*
X0159075Y0221116*
X0159175Y0221077*
X0159264Y0221049*
X0159342Y0221033*
X0159408Y0221027*
X015943Y0221022*
X0159464*
X0159558Y0221027*
X0159641Y0221044*
X0159708Y0221072*
X0159769Y0221099*
X0159819Y0221127*
X0159852Y0221155*
X0159874Y0221171*
X015988Y0221177*
X0159908Y022121*
X0159935Y0221244*
X015998Y0221332*
X0160013Y0221427*
X0160041Y0221521*
X0160063Y0221604*
X0160074Y0221643*
X016008Y0221676*
X0160085Y0221704*
Y0221726*
X0160091Y0221737*
Y0221743*
X0161051Y0221626*
X0161029Y0221504*
X0161001Y0221388*
X0160973Y0221277*
X0160934Y0221171*
X0160896Y0221077*
X0160851Y0220994*
X0160807Y0220916*
X0160762Y0220844*
X0160718Y0220783*
X0160679Y0220727*
X016064Y0220677*
X0160607Y0220638*
X0160579Y0220611*
X0160557Y0220589*
X0160546Y0220578*
X016054Y0220572*
X0160457Y0220505*
X0160374Y022045*
X0160285Y02204*
X0160196Y0220361*
X0160108Y0220322*
X0160019Y0220294*
X0159847Y022025*
X0159769Y0220239*
X0159697Y0220228*
X015963Y0220217*
X0159575Y0220211*
X015953Y0220206*
X0159469*
X0159308Y0220211*
X0159158Y0220233*
X015902Y0220267*
X0158881Y0220305*
X0158759Y0220356*
X0158642Y0220411*
X0158531Y0220472*
X0158437Y0220533*
X0158348Y0220589*
X0158276Y022065*
X0158209Y0220705*
X0158154Y0220755*
X0158109Y0220794*
X0158082Y0220827*
X015806Y0220849*
X0158054Y0220855*
X0157982Y0220944*
X0157921Y0221038*
X0157865Y0221127*
X0157821Y0221221*
X0157782Y022131*
X0157749Y0221393*
X0157721Y0221477*
X0157699Y0221554*
X0157682Y0221626*
X0157671Y0221693*
X015766Y0221754*
X0157654Y0221804*
X0157649Y0221843*
Y0221871*
Y0221893*
Y0221898*
X0157654Y0222009*
X0157671Y0222109*
X0157699Y0222209*
X0157727Y0222292*
X0157754Y0222365*
X0157782Y022242*
X0157788Y0222437*
X0157799Y0222453*
X0157804Y0222459*
Y0222464*
X0157871Y0222564*
X0157943Y0222653*
X0158021Y0222731*
X0158098Y0222792*
X0158171Y0222847*
X0158226Y0222881*
X0158248Y0222897*
X0158265Y0222908*
X0158276Y0222914*
X0158282*
X0158137Y0222975*
X015801Y0223053*
X0157904Y022313*
X015781Y0223208*
X0157738Y0223275*
X0157688Y0223336*
X0157666Y0223358*
X0157654Y0223369*
X0157643Y022338*
Y0223386*
X0157599Y0223447*
X0157566Y0223508*
X0157504Y0223636*
X015746Y0223758*
X0157432Y0223869*
X0157416Y0223963*
X015741Y0224007*
Y0224041*
X0157405Y0224068*
Y0224091*
Y0224102*
Y0224107*
X015741Y0224207*
X0157421Y0224307*
X0157438Y0224396*
X015746Y0224485*
X0157493Y0224568*
X0157521Y0224646*
X0157554Y0224718*
X0157588Y0224784*
X0157627Y0224845*
X015766Y0224895*
X0157688Y0224945*
X0157715Y0224979*
X0157743Y0225012*
X015776Y0225034*
X0157771Y0225045*
X0157776Y0225051*
X0157849Y0225123*
X0157926Y0225179*
X015801Y0225234*
X0158098Y0225278*
X0158187Y0225317*
X0158276Y022535*
X0158365Y0225373*
X0158448Y0225395*
X0158531Y0225412*
X0158603Y0225423*
X015867Y0225434*
X0158731Y0225439*
X0158781Y0225445*
X0158848*
X0158975Y0225439*
G37*
G36*
X0120241Y0357884D02*
X0120727Y0353118D01*
X0121656Y0348045*
X0122985Y0343062*
X0124704Y03382*
X0126804Y0333489*
X0129271Y032896*
X0132089Y0324641*
X0135241Y0320559*
X0138707Y031674*
X0142465Y0313209*
X0146491Y0309986*
X015076Y0307093*
X0155246Y0304547*
X0159919Y0302366*
X016475Y0300562*
X016971Y0299147*
X0174766Y029813*
X0179886Y0297517*
X0185039Y0297312*
X0190192Y0297517*
X0195313Y029813*
X0200369Y0299147*
X0205328Y0300562*
X021016Y0302366*
X0214833Y0304547*
X0219318Y0307093*
X0223587Y0309986*
X0227614Y0313209*
X0231372Y031674*
X0234838Y0320559*
X023799Y0324641*
X0240808Y032896*
X0243275Y0333489*
X0245375Y03382*
X0247094Y0343062*
X0248423Y0348045*
X0249352Y0353118*
X0249838Y0357884*
X0250236Y0358186*
X0252833Y0357738*
X0255679Y0356784*
X0256059Y0356588*
X0256038Y0356089*
X0255857Y0356014*
X0255021Y0355373*
X025438Y0354537*
X0253977Y0353564*
X0253839Y035252*
X0253977Y0351476*
X025438Y0350502*
X0255021Y0349667*
X0255857Y0349026*
X025683Y0348623*
X0257874Y0348485*
X0258918Y0348623*
X0259891Y0349026*
X0260727Y0349667*
X0261368Y0350502*
X0261771Y0351476*
X0261835Y0351961*
X0262308Y0352122*
X0262905Y035153*
X026469Y0349117*
X0266088Y0346461*
X0267065Y0343623*
X0267599Y0340669*
X0276Y0245*
X02705Y02395*
X0243614*
X0242643Y0239979*
X0240564Y0240685*
X0238411Y0241113*
X0236221Y0241256*
X023403Y0241113*
X0231876Y0240685*
X0229798Y0239979*
X0228827Y02395*
X0141124*
X0140281Y0239916*
X0138202Y0240621*
X0136049Y024105*
X0133858Y0241193*
X0131667Y024105*
X0129514Y0240621*
X0127435Y0239916*
X0126592Y02395*
X00995*
X0094Y0245*
X0102479Y0340669*
X0103014Y0343623*
X0103991Y0346461*
X0105388Y0349117*
X0107173Y035153*
X0109304Y0353644*
X0111732Y0355409*
X01144Y0356784*
X0117246Y0357738*
X0119843Y0358186*
X0120241Y0357884*
G37*
G36*
X019232Y0225312D02*
X019247Y0225179D01*
X0192631Y0225051*
X0192791Y0224929*
X0192958Y0224812*
X0193124Y0224701*
X0193291Y0224601*
X0193446Y0224512*
X0193596Y0224429*
X0193735Y0224352*
X0193857Y022429*
X0193968Y0224235*
X0194057Y022419*
X019409Y0224174*
X0194123Y0224163*
X0194146Y0224152*
X0194162Y0224141*
X0194173Y0224135*
X0194179*
X0194368Y0223241*
X0194246Y0223269*
X0194118Y0223308*
X0193996Y0223347*
X0193885Y0223386*
X0193785Y0223419*
X0193746Y0223436*
X0193707Y0223447*
X0193679Y0223458*
X0193657Y0223469*
X0193646Y0223475*
X0193641*
X0193491Y0223541*
X0193352Y0223602*
X019323Y0223663*
X0193124Y0223724*
X0193041Y0223774*
X0193002Y0223797*
X0192975Y0223813*
X0192952Y0223824*
X0192936Y0223835*
X0192925Y0223847*
X0192919*
X0193657Y02203*
X0192653*
X0191576Y022545*
X0192181*
X019232Y0225312*
G37*
G36*
X0201893Y02203D02*
X0201028D01*
X0198747Y0224013*
X0199829*
X020075Y0222437*
X0200761Y022242*
X0200778Y0222392*
X0200811Y0222331*
X0200856Y0222254*
X02009Y022217*
X0200944Y0222093*
X0200983Y0222026*
X0200994Y0222004*
X0201005Y0221982*
X0201017Y0221971*
Y0221965*
X0201055Y0221893*
X0201089Y0221832*
X0201116Y0221776*
X0201144Y0221732*
X0201166Y0221688*
X0201189Y0221654*
X0201216Y0221593*
X0201239Y022156*
X020125Y0221538*
X0201261Y0221527*
Y0221521*
X0201266Y0221565*
X0201272Y0221621*
X0201283Y0221682*
X0201289Y0221743*
X0201311Y0221887*
X0201333Y0222032*
X0201344Y0222104*
X0201355Y022217*
X0201366Y0222231*
X0201377Y0222281*
X0201383Y0222326*
X0201388Y0222359*
X0201394Y0222381*
Y0222387*
X0201649Y0224013*
X0202632*
X0201893Y02203*
G37*
G36*
X0162494Y0225312D02*
X0162644Y0225179D01*
X0162805Y0225051*
X0162966Y0224929*
X0163132Y0224812*
X0163299Y0224701*
X0163465Y0224601*
X0163621Y0224512*
X016377Y0224429*
X0163909Y0224352*
X0164031Y022429*
X0164142Y0224235*
X0164231Y022419*
X0164265Y0224174*
X0164298Y0224163*
X016432Y0224152*
X0164337Y0224141*
X0164348Y0224135*
X0164353*
X0164542Y0223241*
X016442Y0223269*
X0164292Y0223308*
X016417Y0223347*
X0164059Y0223386*
X0163959Y0223419*
X016392Y0223436*
X0163882Y0223447*
X0163854Y0223458*
X0163831Y0223469*
X0163821Y0223475*
X0163815*
X0163665Y0223541*
X0163526Y0223602*
X0163404Y0223663*
X0163299Y0223724*
X0163215Y0223774*
X0163177Y0223797*
X0163149Y0223813*
X0163127Y0223824*
X016311Y0223835*
X0163099Y0223847*
X0163093*
X0163831Y02203*
X0162827*
X016175Y022545*
X0162355*
X0162494Y0225312*
G37*
G36*
X0186353D02*
X0186503Y0225179D01*
X0186664Y0225051*
X0186825Y0224929*
X0186992Y0224812*
X0187158Y0224701*
X0187325Y0224601*
X018748Y0224512*
X018763Y0224429*
X0187769Y0224352*
X0187891Y022429*
X0188002Y0224235*
X0188091Y022419*
X0188124Y0224174*
X0188157Y0224163*
X0188179Y0224152*
X0188196Y0224141*
X0188207Y0224135*
X0188213*
X0188401Y0223241*
X0188279Y0223269*
X0188152Y0223308*
X018803Y0223347*
X0187919Y0223386*
X0187819Y0223419*
X018778Y0223436*
X0187741Y0223447*
X0187713Y0223458*
X0187691Y0223469*
X018768Y0223475*
X0187674*
X0187524Y0223541*
X0187386Y0223602*
X0187264Y0223663*
X0187158Y0223724*
X0187075Y0223774*
X0187036Y0223797*
X0187008Y0223813*
X0186986Y0223824*
X0186969Y0223835*
X0186958Y0223847*
X0186953*
X0187691Y02203*
X0186686*
X018561Y022545*
X0186215*
X0186353Y0225312*
G37*
G36*
X0188928Y02291D02*
X0188997Y0228947D01*
X0189073Y0228808*
X0189157Y0228691*
X0189233Y0228593*
X0189316Y0228503*
X0189393Y0228434*
X0189469Y0228378*
X0189545Y022833*
X0189615Y0228295*
X0189677Y0228267*
X0189733Y0228246*
X0189781Y0228233*
X0189823Y0228226*
X0189851Y0228219*
X0189878*
X0190038Y0228233*
X0190114Y0228239*
X0190177Y0228253*
X0190232Y0228267*
X0190274Y0228274*
X0190309Y0228288*
X0190316*
X019042Y0227358*
X0190239Y0227309*
X0190073Y0227275*
X018992Y0227247*
X0189788Y0227233*
X0189684Y0227219*
X0189636*
X0189601Y0227212*
X0189532*
X0189386Y0227219*
X0189254Y0227233*
X0189136Y0227261*
X0189039Y0227289*
X0188955Y0227309*
X0188893Y0227337*
X0188858Y0227351*
X0188844Y0227358*
X018874Y022742*
X018865Y0227483*
X0188567Y0227552*
X0188497Y0227615*
X0188435Y022767*
X0188393Y0227719*
X0188365Y0227747*
X0188359Y0227761*
X0188317Y0227816*
X0188275Y0227872*
X0188185Y022801*
X0188088Y0228156*
X0187998Y0228302*
X0187921Y0228434*
X0187887Y0228496*
X0187852Y0228545*
X0187831Y0228586*
X018781Y0228621*
X0187803Y0228642*
X0187796Y0228649*
X018493Y0233743*
X0186256*
X0187366Y0231675*
X0187519Y0231383*
X0187651Y0231106*
X0187713Y0230974*
X0187769Y0230856*
X0187824Y0230738*
X0187866Y0230627*
X0187908Y023053*
X0187942Y0230439*
X0187977Y0230363*
X0187998Y0230301*
X0188019Y0230245*
X0188032Y023021*
X0188046Y0230183*
Y0230176*
X0188053Y0230252*
Y0230335*
X018806Y0230426*
X0188074Y0230523*
X0188095Y0230731*
X0188116Y0230939*
X018813Y0231036*
X0188136Y0231126*
X018815Y023121*
X0188157Y0231279*
X0188164Y0231342*
X0188171Y0231383*
X0188178Y0231418*
Y0231425*
X018849Y0233743*
X0189733*
X0188928Y02291*
G37*
G36*
X0211927Y0235603D02*
X0212114Y0235589D01*
X0212295Y0235561*
X0212461Y0235526*
X0212607Y0235485*
X0212746Y0235443*
X0212878Y0235395*
X0212989Y0235346*
X0213086Y0235291*
X0213176Y0235242*
X0213252Y02352*
X0213308Y0235159*
X0213356Y0235124*
X0213391Y0235096*
X0213412Y0235082*
X0213419Y0235075*
X0213523Y0234971*
X0213613Y0234867*
X021369Y0234756*
X0213759Y0234638*
X0213814Y0234527*
X0213856Y0234416*
X0213898Y0234305*
X0213926Y0234201*
X0213953Y0234104*
X0213974Y0234014*
X0213981Y0233937*
X0213995Y0233868*
Y0233805*
X0214002Y0233764*
Y0233736*
Y0233729*
X0213995Y0233562*
X0213974Y023341*
X0213939Y0233271*
X0213905Y0233153*
X021387Y0233056*
X0213835Y0232986*
X0213828Y0232959*
X0213814Y0232938*
X0213808Y0232931*
Y0232924*
X0213731Y0232799*
X0213641Y0232688*
X0213551Y0232591*
X0213468Y0232515*
X0213391Y0232445*
X0213329Y0232403*
X0213287Y0232369*
X021328Y0232362*
X0213273*
X0213204Y023232*
X0213127Y0232278*
X0212954Y0232188*
X0212773Y0232098*
X02126Y0232008*
X0212517Y0231973*
X0212434Y0231939*
X0212364Y0231904*
X0212302Y0231876*
X0212253Y0231855*
X0212218Y0231834*
X0212191Y0231827*
X0212184Y0231821*
X0212052Y0231765*
X0211927Y0231709*
X0211823Y0231661*
X0211726Y0231612*
X0211635Y0231571*
X0211566Y0231536*
X0211497Y0231501*
X0211441Y0231467*
X0211399Y0231439*
X0211358Y0231418*
X021133Y0231397*
X0211302Y0231383*
X0211275Y0231362*
X0211267Y0231356*
X0211191Y0231279*
X0211129Y0231196*
X0211087Y0231113*
X0211059Y0231036*
X0211046Y0230974*
X0211032Y0230918*
Y0230884*
Y023087*
X0211046Y0230752*
X021108Y0230648*
X0211122Y0230551*
X0211177Y0230467*
X0211233Y0230405*
X0211275Y0230356*
X0211309Y0230328*
X0211323Y0230314*
X0211379Y0230273*
X0211448Y0230238*
X0211587Y0230183*
X0211746Y0230141*
X0211899Y0230113*
X0212038Y0230099*
X02121Y0230092*
X0212156*
X0212197Y0230085*
X021226*
X0212399Y0230092*
X0212524Y0230099*
X0212642Y023012*
X0212753Y0230141*
X021285Y0230162*
X0212933Y0230196*
X021301Y0230224*
X0213079Y0230259*
X0213141Y0230287*
X021319Y0230321*
X0213232Y0230349*
X0213266Y023037*
X0213287Y0230398*
X0213308Y0230412*
X0213315Y0230419*
X0213322Y0230426*
X0213356Y0230467*
X0213384Y0230523*
X0213426Y0230641*
X0213468Y0230772*
X0213488Y0230911*
X0213509Y0231036*
Y0231092*
X0213516Y023114*
X0213523Y0231182*
Y023121*
Y0231231*
Y0231238*
X0214779Y0231168*
X0214772Y0230932*
X0214751Y0230717*
X0214717Y0230523*
X0214696Y0230439*
X0214675Y0230356*
X0214647Y0230287*
X0214627Y0230217*
X0214606Y0230162*
X0214592Y023012*
X0214571Y0230079*
X0214564Y0230051*
X021455Y0230037*
Y023003*
X0214502Y022994*
X0214439Y0229856*
X0214314Y0229704*
X0214169Y0229572*
X021403Y0229461*
X0213898Y0229371*
X0213842Y0229336*
X0213794Y0229308*
X0213752Y0229287*
X0213724Y0229274*
X0213703Y022926*
X0213697*
X0213461Y0229169*
X0213218Y02291*
X0212982Y0229051*
X0212864Y0229031*
X0212753Y0229017*
X0212655Y0229003*
X0212558Y0228996*
X0212475Y0228989*
X0212406*
X021235Y0228982*
X0212267*
X0212052Y0228989*
X0211844Y022901*
X0211649Y0229037*
X0211469Y0229072*
X0211302Y0229121*
X021115Y0229169*
X0211011Y0229225*
X0210886Y022928*
X0210775Y0229336*
X0210678Y0229392*
X0210594Y022944*
X0210525Y0229489*
X0210469Y0229523*
X0210428Y0229551*
X0210407Y0229572*
X02104Y0229579*
X0210282Y0229697*
X0210178Y0229815*
X0210088Y022994*
X0210011Y0230058*
X0209942Y0230183*
X0209893Y0230301*
X0209845Y0230419*
X020981Y023053*
X0209782Y0230634*
X0209762Y0230731*
X0209748Y0230814*
X0209734Y023089*
Y0230946*
X0209727Y0230995*
Y0231022*
Y0231029*
X0209734Y0231154*
X0209748Y0231272*
X0209769Y023139*
X0209796Y0231494*
X0209831Y0231592*
X0209873Y0231689*
X0209907Y0231772*
X0209949Y0231848*
X0209998Y0231918*
X0210032Y023198*
X0210074Y0232029*
X0210109Y0232077*
X0210136Y0232112*
X0210157Y0232133*
X0210171Y0232147*
X0210178Y0232154*
X021024Y0232209*
X0210324Y0232272*
X0210421Y0232334*
X0210525Y0232403*
X0210643Y0232466*
X0210761Y0232528*
X0210997Y0232653*
X0211115Y0232709*
X0211219Y0232764*
X0211323Y0232813*
X0211406Y0232855*
X0211483Y0232882*
X0211538Y023291*
X0211573Y0232924*
X0211587Y0232931*
X0211719Y0232986*
X0211837Y0233042*
X0211948Y0233097*
X0212045Y0233146*
X0212135Y0233188*
X0212211Y0233229*
X0212281Y0233264*
X0212336Y0233299*
X0212385Y0233333*
X0212434Y0233354*
X0212468Y0233382*
X0212489Y0233396*
X0212524Y0233424*
X0212538Y0233431*
X0212607Y02335*
X0212655Y0233576*
X0212697Y0233653*
X0212718Y0233729*
X0212732Y0233791*
X0212739Y023384*
X0212746Y0233875*
Y0233889*
X0212739Y0233993*
X0212711Y023409*
X0212676Y0234173*
X0212628Y0234243*
X0212586Y0234298*
X0212551Y023434*
X0212524Y0234367*
X0212517Y0234374*
X0212468Y0234409*
X0212413Y0234437*
X0212295Y0234485*
X0212163Y023452*
X0212038Y0234548*
X021192Y0234562*
X0211864*
X0211823Y0234569*
X0211733*
X0211538Y0234555*
X0211365Y0234527*
X0211226Y0234492*
X0211101Y0234444*
X0211011Y0234395*
X0210948Y0234361*
X0210907Y0234333*
X0210893Y0234319*
X0210796Y0234222*
X0210719Y0234104*
X0210664Y0233993*
X0210622Y0233875*
X0210587Y0233778*
X0210574Y0233694*
X0210567Y023366*
X021056Y0233639*
Y0233625*
Y0233618*
X0209297Y0233674*
X0209317Y0233833*
X0209345Y0233986*
X020938Y0234125*
X0209428Y0234263*
X0209484Y0234388*
X020954Y0234499*
X0209602Y023461*
X0209658Y0234701*
X020972Y0234791*
X0209775Y023486*
X0209831Y023493*
X0209879Y0234978*
X0209921Y023502*
X0209949Y0235054*
X020997Y0235068*
X0209977Y0235075*
X0210095Y0235173*
X0210226Y0235249*
X0210365Y0235325*
X0210511Y0235388*
X0210657Y0235436*
X0210803Y0235478*
X0210941Y0235513*
X021108Y023554*
X0211212Y0235568*
X0211337Y0235582*
X0211441Y0235596*
X0211538Y0235603*
X0211614Y023561*
X0211726*
X0211927Y0235603*
G37*
G36*
X016529Y02291D02*
X0164048D01*
X0162708Y0235506*
X0163958*
X016529Y02291*
G37*
G36*
X0171258Y0235603D02*
X0171411Y0235582D01*
X0171543Y0235554*
X0171654Y0235526*
X0171744Y0235499*
X0171807Y0235471*
X0171848Y023545*
X0171855Y0235443*
X0171862*
X0171966Y0235374*
X0172056Y0235304*
X0172126Y0235228*
X0172188Y0235159*
X0172237Y0235096*
X0172272Y0235048*
X0172292Y0235013*
X0172299Y0234999*
X017232Y0234957*
X0172341Y0234909*
X0172383Y0234791*
X0172417Y0234666*
X0172452Y0234534*
X0172487Y0234409*
X0172501Y0234354*
X0172508Y0234312*
X0172515Y023427*
X0172521Y0234243*
X0172529Y0234222*
Y0234215*
X0172633Y0233743*
X0173327*
X0173521Y0232827*
X017282*
X0173597Y02291*
X0172355*
X0171578Y0232827*
X0170676*
X0170481Y0233743*
X0171383*
X0171314Y0234062*
X0171286Y0234187*
X0171258Y0234291*
X0171231Y0234374*
X017121Y0234437*
X0171196Y0234478*
X0171182Y0234506*
X0171168Y023452*
Y0234527*
X0171127Y0234576*
X0171071Y023461*
X0171022Y0234631*
X0170967Y0234652*
X0170925Y0234659*
X0170884Y0234666*
X0170849*
X0170738Y0234659*
X0170613Y0234638*
X0170488Y0234617*
X0170377Y023459*
X0170273Y0234555*
X0170224Y0234541*
X017019Y0234534*
X0170155Y023452*
X0170134Y0234513*
X017012Y0234506*
X0170113*
X016987Y0235402*
X0170106Y0235471*
X0170328Y023552*
X0170537Y0235561*
X0170627Y0235575*
X0170717Y0235582*
X01708Y0235596*
X017087*
X0170932Y0235603*
X0170988Y023561*
X0171085*
X0171258Y0235603*
G37*
G36*
X0182085D02*
X0182272Y0235589D01*
X0182453Y0235561*
X0182619Y0235526*
X0182765Y0235485*
X0182904Y0235443*
X0183036Y0235395*
X0183147Y0235346*
X0183244Y0235291*
X0183334Y0235242*
X018341Y02352*
X0183466Y0235159*
X0183514Y0235124*
X0183549Y0235096*
X018357Y0235082*
X0183577Y0235075*
X0183681Y0234971*
X0183771Y0234867*
X0183848Y0234756*
X0183917Y0234638*
X0183973Y0234527*
X0184014Y0234416*
X0184056Y0234305*
X0184084Y0234201*
X0184111Y0234104*
X0184132Y0234014*
X0184139Y0233937*
X0184153Y0233868*
Y0233805*
X018416Y0233764*
Y0233736*
Y0233729*
X0184153Y0233562*
X0184132Y023341*
X0184097Y0233271*
X0184063Y0233153*
X0184028Y0233056*
X0183993Y0232986*
X0183986Y0232959*
X0183973Y0232938*
X0183966Y0232931*
Y0232924*
X0183889Y0232799*
X0183799Y0232688*
X0183709Y0232591*
X0183625Y0232515*
X0183549Y0232445*
X0183487Y0232403*
X0183445Y0232369*
X0183438Y0232362*
X0183431*
X0183362Y023232*
X0183285Y0232278*
X0183112Y0232188*
X0182931Y0232098*
X0182758Y0232008*
X0182675Y0231973*
X0182591Y0231939*
X0182522Y0231904*
X018246Y0231876*
X0182411Y0231855*
X0182376Y0231834*
X0182349Y0231827*
X0182342Y0231821*
X018221Y0231765*
X0182085Y0231709*
X0181981Y0231661*
X0181884Y0231612*
X0181793Y0231571*
X0181724Y0231536*
X0181655Y0231501*
X0181599Y0231467*
X0181557Y0231439*
X0181516Y0231418*
X0181488Y0231397*
X018146Y0231383*
X0181432Y0231362*
X0181425Y0231356*
X0181349Y0231279*
X0181287Y0231196*
X0181245Y0231113*
X0181217Y0231036*
X0181203Y0230974*
X018119Y0230918*
Y0230884*
Y023087*
X0181203Y0230752*
X0181238Y0230648*
X018128Y0230551*
X0181335Y0230467*
X0181391Y0230405*
X0181432Y0230356*
X0181467Y0230328*
X0181481Y0230314*
X0181537Y0230273*
X0181606Y0230238*
X0181745Y0230183*
X0181904Y0230141*
X0182057Y0230113*
X0182196Y0230099*
X0182258Y0230092*
X0182314*
X0182355Y0230085*
X0182418*
X0182557Y0230092*
X0182682Y0230099*
X01828Y023012*
X0182911Y0230141*
X0183008Y0230162*
X0183091Y0230196*
X0183168Y0230224*
X0183237Y0230259*
X0183299Y0230287*
X0183348Y0230321*
X018339Y0230349*
X0183424Y023037*
X0183445Y0230398*
X0183466Y0230412*
X0183473Y0230419*
X018348Y0230426*
X0183514Y0230467*
X0183542Y0230523*
X0183584Y0230641*
X0183625Y0230772*
X0183646Y0230911*
X0183667Y0231036*
Y0231092*
X0183674Y023114*
X0183681Y0231182*
Y023121*
Y0231231*
Y0231238*
X0184937Y0231168*
X018493Y0230932*
X0184909Y0230717*
X0184875Y0230523*
X0184854Y0230439*
X0184833Y0230356*
X0184805Y0230287*
X0184784Y0230217*
X0184764Y0230162*
X018475Y023012*
X0184729Y0230079*
X0184722Y0230051*
X0184708Y0230037*
Y023003*
X018466Y022994*
X0184597Y0229856*
X0184472Y0229704*
X0184327Y0229572*
X0184188Y0229461*
X0184056Y0229371*
X0184Y0229336*
X0183952Y0229308*
X018391Y0229287*
X0183882Y0229274*
X0183861Y022926*
X0183854*
X0183619Y0229169*
X0183376Y02291*
X018314Y0229051*
X0183022Y0229031*
X0182911Y0229017*
X0182814Y0229003*
X0182716Y0228996*
X0182633Y0228989*
X0182564*
X0182508Y0228982*
X0182425*
X018221Y0228989*
X0182002Y022901*
X0181807Y0229037*
X0181627Y0229072*
X018146Y0229121*
X0181308Y0229169*
X0181169Y0229225*
X0181044Y022928*
X0180933Y0229336*
X0180836Y0229392*
X0180752Y022944*
X0180683Y0229489*
X0180627Y0229523*
X0180586Y0229551*
X0180565Y0229572*
X0180558Y0229579*
X018044Y0229697*
X0180336Y0229815*
X0180246Y022994*
X0180169Y0230058*
X01801Y0230183*
X0180051Y0230301*
X0180003Y0230419*
X0179968Y023053*
X017994Y0230634*
X017992Y0230731*
X0179906Y0230814*
X0179892Y023089*
Y0230946*
X0179885Y0230995*
Y0231022*
Y0231029*
X0179892Y0231154*
X0179906Y0231272*
X0179927Y023139*
X0179954Y0231494*
X0179989Y0231592*
X0180031Y0231689*
X0180065Y0231772*
X0180107Y0231848*
X0180156Y0231918*
X018019Y023198*
X0180232Y0232029*
X0180267Y0232077*
X0180294Y0232112*
X0180315Y0232133*
X0180329Y0232147*
X0180336Y0232154*
X0180398Y0232209*
X0180482Y0232272*
X0180579Y0232334*
X0180683Y0232403*
X0180801Y0232466*
X0180919Y0232528*
X0181155Y0232653*
X0181273Y0232709*
X0181377Y0232764*
X0181481Y0232813*
X0181564Y0232855*
X0181641Y0232882*
X0181696Y023291*
X0181731Y0232924*
X0181745Y0232931*
X0181877Y0232986*
X0181995Y0233042*
X0182106Y0233097*
X0182203Y0233146*
X0182293Y0233188*
X0182369Y0233229*
X0182439Y0233264*
X0182494Y0233299*
X0182543Y0233333*
X0182591Y0233354*
X0182626Y0233382*
X0182647Y0233396*
X0182682Y0233424*
X0182696Y0233431*
X0182765Y02335*
X0182814Y0233576*
X0182855Y0233653*
X0182876Y0233729*
X018289Y0233791*
X0182897Y023384*
X0182904Y0233875*
Y0233889*
X0182897Y0233993*
X0182869Y023409*
X0182834Y0234173*
X0182786Y0234243*
X0182744Y0234298*
X0182709Y023434*
X0182682Y0234367*
X0182675Y0234374*
X0182626Y0234409*
X0182571Y0234437*
X0182453Y0234485*
X0182321Y023452*
X0182196Y0234548*
X0182078Y0234562*
X0182022*
X0181981Y0234569*
X018189*
X0181696Y0234555*
X0181523Y0234527*
X0181384Y0234492*
X0181259Y0234444*
X0181169Y0234395*
X0181106Y0234361*
X0181065Y0234333*
X0181051Y0234319*
X0180954Y0234222*
X0180877Y0234104*
X0180822Y0233993*
X018078Y0233875*
X0180745Y0233778*
X0180731Y0233694*
X0180725Y023366*
X0180718Y0233639*
Y0233625*
Y0233618*
X0179455Y0233674*
X0179475Y0233833*
X0179503Y0233986*
X0179538Y0234125*
X0179586Y0234263*
X0179642Y0234388*
X0179698Y0234499*
X017976Y023461*
X0179815Y0234701*
X0179878Y0234791*
X0179933Y023486*
X0179989Y023493*
X0180037Y0234978*
X0180079Y023502*
X0180107Y0235054*
X0180128Y0235068*
X0180135Y0235075*
X0180253Y0235173*
X0180385Y0235249*
X0180523Y0235325*
X0180669Y0235388*
X0180815Y0235436*
X0180961Y0235478*
X0181099Y0235513*
X0181238Y023554*
X018137Y0235568*
X0181495Y0235582*
X0181599Y0235596*
X0181696Y0235603*
X0181772Y023561*
X0181884*
X0182085Y0235603*
G37*
G36*
X0205722Y023384D02*
X0205854Y0233826D01*
X0205979Y0233805*
X0206083Y0233778*
X0206174Y023375*
X0206243Y0233729*
X0206264Y0233722*
X0206285Y0233715*
X0206292Y0233708*
X0206298*
X0206423Y0233653*
X0206548Y0233583*
X0206666Y0233507*
X0206777Y0233431*
X0206868Y0233368*
X0206944Y0233313*
X0206972Y0233285*
X0206993Y0233271*
X0206999Y0233264*
X0207006Y0233257*
X0206909Y0233743*
X0208089*
X0209428Y022733*
X0208186*
X0207686Y0229725*
X0207596Y0229593*
X0207492Y0229482*
X0207381Y0229378*
X020727Y0229294*
X0207152Y0229225*
X0207034Y0229163*
X0206923Y0229114*
X0206812Y0229072*
X0206708Y0229045*
X0206611Y0229024*
X0206521Y0229003*
X0206444Y0228996*
X0206382Y0228989*
X0206333Y0228982*
X0206292*
X0206125Y0228989*
X0205965Y0229017*
X0205813Y0229051*
X0205667Y02291*
X0205528Y0229155*
X0205403Y0229218*
X0205285Y022928*
X0205174Y022935*
X0205077Y0229419*
X0204994Y0229482*
X0204917Y0229544*
X0204855Y02296*
X0204806Y0229648*
X0204765Y0229683*
X0204744Y0229711*
X0204737Y0229718*
X0204598Y0229884*
X020448Y0230058*
X0204383Y0230238*
X0204293Y0230419*
X0204217Y0230592*
X0204154Y0230772*
X0204105Y0230939*
X0204064Y0231106*
X0204029Y0231258*
X0204008Y0231397*
X0203988Y0231522*
X020398Y0231633*
X0203974Y0231723*
X0203967Y0231786*
Y0231827*
Y0231841*
X0203974Y0232022*
X0203988Y0232195*
X0204008Y0232348*
X0204036Y0232501*
X0204071Y0232632*
X0204105Y0232757*
X0204147Y0232868*
X0204189Y0232966*
X020423Y0233056*
X0204272Y0233132*
X0204307Y0233195*
X0204341Y023325*
X0204369Y0233285*
X020439Y0233319*
X0204404Y0233333*
X0204411Y023334*
X0204494Y0233431*
X0204591Y0233507*
X0204681Y0233576*
X0204779Y0233632*
X0204883Y023368*
X020498Y0233722*
X020507Y0233757*
X020516Y0233785*
X0205251Y0233805*
X0205327Y0233819*
X0205403Y0233833*
X0205466Y023384*
X0205514Y0233847*
X0205584*
X0205722Y023384*
G37*
G36*
X0155907Y0233104D02*
X0155997Y0233236D01*
X0156102Y0233347*
X0156212Y0233451*
X0156331Y0233535*
X0156448Y0233604*
X0156567Y0233666*
X0156684Y0233715*
X0156796Y0233757*
X0156906Y0233785*
X0157004Y0233805*
X0157094Y0233826*
X015717Y0233833*
X015724Y023384*
X0157288Y0233847*
X015733*
X0157524Y023384*
X0157705Y0233805*
X0157871Y0233764*
X0158038Y0233708*
X0158184Y0233639*
X0158322Y0233562*
X0158454Y0233479*
X0158565Y0233396*
X0158669Y0233313*
X0158759Y0233229*
X0158836Y0233153*
X0158898Y0233084*
X0158947Y0233028*
X0158988Y0232986*
X0159009Y0232952*
X0159016Y0232945*
X0159127Y0232771*
X0159224Y0232598*
X0159308Y0232424*
X0159384Y0232251*
X015944Y0232077*
X0159495Y0231911*
X0159537Y0231751*
X0159572Y0231598*
X0159592Y0231453*
X0159613Y0231328*
X0159627Y023121*
X0159641Y0231113*
Y0231036*
X0159648Y0230974*
Y0230939*
Y0230925*
X0159641Y0230752*
X0159627Y0230585*
X0159606Y0230433*
X0159578Y0230294*
X0159544Y0230162*
X0159509Y0230044*
X0159467Y0229933*
X0159426Y0229836*
X0159384Y0229752*
X0159343Y0229676*
X0159308Y0229614*
X0159273Y0229558*
X0159245Y0229516*
X0159224Y0229489*
X0159211Y0229475*
X0159204Y0229468*
X0159113Y0229384*
X0159023Y0229308*
X0158926Y0229246*
X0158829Y022919*
X0158732Y0229142*
X0158635Y02291*
X0158544Y0229065*
X0158454Y0229045*
X0158364Y0229024*
X0158288Y022901*
X0158218Y0228996*
X0158156Y0228989*
X0158107Y0228982*
X0158038*
X0157885Y0228989*
X0157746Y0229003*
X0157621Y0229024*
X015751Y0229051*
X015742Y0229079*
X0157351Y02291*
X015733Y0229107*
X0157309Y0229114*
X0157302Y0229121*
X0157295*
X015717Y0229183*
X0157045Y022926*
X0156934Y0229336*
X015683Y0229412*
X015674Y0229482*
X0156677Y0229537*
X015665Y0229565*
X0156629Y0229579*
X0156622Y0229586*
X0156615Y0229593*
X0156719Y02291*
X0155539*
X0154138Y0235506*
X0155387*
X0155907Y0233104*
G37*
G36*
X0176575Y023384D02*
X0176783Y0233812D01*
X0176977Y0233778*
X0177157Y0233729*
X0177331Y0233666*
X0177484Y0233604*
X0177629Y0233535*
X0177761Y0233465*
X0177879Y0233389*
X0177983Y0233319*
X0178067Y0233257*
X0178143Y0233195*
X0178198Y0233146*
X017824Y0233111*
X0178268Y0233084*
X0178275Y0233077*
X01784Y0232924*
X0178511Y0232764*
X0178608Y0232598*
X0178691Y0232431*
X0178761Y0232258*
X0178823Y0232084*
X0178865Y0231918*
X0178906Y0231758*
X0178934Y0231605*
X0178955Y0231467*
X0178976Y0231342*
X0178983Y0231231*
X017899Y023114*
X0178997Y0231071*
Y0231029*
Y0231022*
Y0231015*
X0178983Y0230814*
X0178955Y023062*
X017892Y0230446*
X0178872Y0230294*
X0178851Y0230224*
X017883Y0230162*
X0178809Y0230113*
X0178788Y0230065*
X0178774Y023003*
X0178761Y0230002*
X0178754Y0229988*
Y0229981*
X0178649Y0229815*
X0178532Y0229662*
X0178407Y0229537*
X0178282Y0229433*
X0178171Y022935*
X0178122Y0229315*
X017808Y0229287*
X0178046Y0229267*
X0178018Y0229253*
X0178004Y0229239*
X0177997*
X0177803Y0229155*
X0177602Y0229093*
X0177407Y0229045*
X0177227Y0229017*
X0177144Y0229003*
X0177067Y0228996*
X0176998Y0228989*
X0176942*
X0176894Y0228982*
X0176831*
X0176609Y0228989*
X0176401Y0229017*
X0176207Y0229058*
X0176019Y0229107*
X0175846Y0229169*
X0175693Y0229239*
X0175547Y0229315*
X0175416Y0229392*
X0175297Y0229468*
X0175193Y0229544*
X0175103Y0229614*
X0175034Y0229676*
X0174978Y0229725*
X0174937Y0229766*
X0174909Y0229794*
X0174902Y0229801*
X0174777Y0229961*
X0174666Y023012*
X0174569Y0230287*
X0174486Y0230453*
X0174416Y023062*
X0174354Y023078*
X0174305Y0230939*
X017427Y0231085*
X0174243Y0231224*
X0174215Y0231349*
X0174201Y0231467*
X0174194Y0231564*
X0174187Y023164*
X017418Y0231702*
Y0231737*
Y0231751*
X0174187Y0231925*
X0174208Y0232091*
X0174236Y0232251*
X017427Y0232397*
X0174312Y0232528*
X0174368Y0232653*
X0174416Y0232771*
X0174472Y0232875*
X0174527Y0232966*
X0174576Y0233049*
X0174624Y0233118*
X0174673Y0233174*
X0174708Y0233222*
X0174735Y023325*
X0174756Y0233271*
X0174763Y0233278*
X0174874Y0233375*
X0174999Y0233465*
X0175124Y0233542*
X0175256Y0233604*
X0175388Y023366*
X017552Y0233708*
X0175652Y0233743*
X0175776Y0233778*
X0175894Y0233798*
X0176005Y0233819*
X0176103Y0233833*
X0176193Y023384*
X0176262*
X0176311Y0233847*
X0176359*
X0176575Y023384*
G37*
G36*
X0161522Y0234478D02*
X0161674Y0233743D01*
X0162285*
X0162479Y0232813*
X0161862*
X0162264Y0230939*
X0162292Y02308*
X016232Y0230675*
X016234Y0230564*
X0162354Y023046*
X0162368Y023037*
X0162382Y0230287*
X0162396Y0230217*
X0162403Y0230155*
X016241Y0230106*
X0162417Y0230065*
Y023003*
X0162424Y0230002*
Y0229981*
Y0229967*
Y0229954*
X0162417Y022987*
X016241Y0229794*
X0162375Y0229648*
X0162327Y0229523*
X0162271Y0229426*
X0162223Y0229343*
X0162174Y0229287*
X0162139Y0229253*
X0162125Y0229239*
X0162063Y0229197*
X0161994Y0229155*
X0161848Y0229093*
X0161681Y0229045*
X0161522Y0229017*
X0161383Y0228996*
X016132Y0228989*
X0161265*
X0161216Y0228982*
X0161029*
X0160904Y0228996*
X0160793Y0229003*
X0160696Y0229017*
X0160606Y0229031*
X0160543Y0229037*
X0160501Y0229051*
X0160488*
X0160293Y0229981*
X0160411Y0229967*
X0160501Y0229961*
X0160578Y0229954*
X0160633*
X0160675Y0229947*
X0160717*
X01608Y0229954*
X0160869Y0229961*
X0160925Y0229974*
X0160973Y0229988*
X0161008Y0230002*
X0161029Y0230009*
X0161043Y0230023*
X016105*
X0161077Y0230058*
X0161098Y0230092*
X0161126Y0230169*
X0161133Y0230204*
X016114Y0230231*
Y0230245*
Y0230252*
Y0230273*
X0161133Y0230301*
X0161126Y0230335*
X0161119Y0230377*
X0161105Y0230474*
X0161084Y0230585*
X0161064Y0230682*
X0161043Y0230772*
X0161036Y0230807*
Y0230835*
X0161029Y0230849*
Y0230856*
X0160612Y0232813*
X0159849*
X0159655Y0233743*
X0160425*
X0160092Y0235346*
X0161522Y0234478*
G37*
G36*
X0169468D02*
X0169621Y0233743D01*
X0170231*
X0170426Y0232813*
X0169808*
X0170211Y0230939*
X0170238Y02308*
X0170266Y0230675*
X0170287Y0230564*
X0170301Y023046*
X0170315Y023037*
X0170328Y0230287*
X0170342Y0230217*
X0170349Y0230155*
X0170356Y0230106*
X0170363Y0230065*
Y023003*
X017037Y0230002*
Y0229981*
Y0229967*
Y0229954*
X0170363Y022987*
X0170356Y0229794*
X0170322Y0229648*
X0170273Y0229523*
X0170217Y0229426*
X0170169Y0229343*
X017012Y0229287*
X0170086Y0229253*
X0170072Y0229239*
X0170009Y0229197*
X016994Y0229155*
X0169794Y0229093*
X0169627Y0229045*
X0169468Y0229017*
X0169329Y0228996*
X0169267Y0228989*
X0169211*
X0169163Y0228982*
X0168975*
X016885Y0228996*
X0168739Y0229003*
X0168642Y0229017*
X0168552Y0229031*
X0168489Y0229037*
X0168448Y0229051*
X0168434*
X0168239Y0229981*
X0168358Y0229967*
X0168448Y0229961*
X0168524Y0229954*
X016858*
X0168621Y0229947*
X0168663*
X0168746Y0229954*
X0168816Y0229961*
X0168871Y0229974*
X016892Y0229988*
X0168954Y0230002*
X0168975Y0230009*
X0168989Y0230023*
X0168996*
X0169024Y0230058*
X0169045Y0230092*
X0169072Y0230169*
X0169079Y0230204*
X0169086Y0230231*
Y0230245*
Y0230252*
Y0230273*
X0169079Y0230301*
X0169072Y0230335*
X0169065Y0230377*
X0169052Y0230474*
X0169031Y0230585*
X016901Y0230682*
X0168989Y0230772*
X0168982Y0230807*
Y0230835*
X0168975Y0230849*
Y0230856*
X0168559Y0232813*
X0167795*
X0167601Y0233743*
X0168371*
X0168038Y0235346*
X0169468Y0234478*
G37*
G36*
X0195423Y0233833D02*
X0195562Y0233805D01*
X0195701Y0233757*
X0195826Y0233687*
X0195951Y0233611*
X0196069Y0233528*
X019618Y0233437*
X0196277Y023334*
X0196374Y0233243*
X0196451Y0233153*
X0196527Y023307*
X0196589Y0232993*
X0196638Y0232931*
X0196673Y0232875*
X0196694Y0232848*
X0196701Y0232834*
X0196513Y0233743*
X0197686*
X0198651Y02291*
X0197408*
X0197103Y0230551*
X0197068Y023071*
X0197034Y0230863*
X0196999Y0231002*
X0196971Y0231126*
X0196936Y0231244*
X0196909Y0231349*
X0196881Y0231446*
X0196853Y0231529*
X0196825Y0231605*
X0196805Y0231668*
X0196784Y0231723*
X019677Y0231765*
X0196756Y02318*
X0196742Y0231821*
X0196735Y0231834*
Y0231841*
X0196659Y0231987*
X0196569Y0232119*
X0196485Y023223*
X0196395Y023232*
X0196326Y0232397*
X0196263Y0232452*
X0196222Y023248*
X0196215Y0232494*
X0196208*
X0196083Y0232577*
X0195965Y0232639*
X0195854Y0232681*
X019575Y0232716*
X0195666Y023273*
X0195604Y0232737*
X0195562Y0232744*
X0195548*
X019541Y0232737*
X0195347Y0232723*
X0195292Y0232716*
X0195243Y0232702*
X0195208Y0232688*
X0195188Y0232681*
X0195181*
X0194702Y0233708*
X0194813Y0233757*
X0194924Y0233791*
X0195021Y0233812*
X0195111Y0233833*
X0195181Y023384*
X0195236Y0233847*
X0195285*
X0195423Y0233833*
G37*
%LNunisolder_sensor-2*%
%LPC*%
G36*
X0206111Y0232952D02*
X0206076D01*
X0205938Y0232938*
X0205813Y023291*
X0205702Y0232861*
X0205611Y0232813*
X0205535Y0232757*
X020548Y0232709*
X0205452Y0232681*
X0205438Y0232667*
X0205355Y0232556*
X0205292Y0232424*
X0205251Y0232292*
X0205216Y0232168*
X0205202Y0232049*
X0205195Y0232001*
Y0231952*
X0205188Y0231918*
Y023189*
Y0231876*
Y0231869*
X0205195Y0231702*
X0205216Y0231529*
X0205251Y0231369*
X0205285Y0231217*
X0205306Y0231147*
X020532Y0231085*
X0205334Y0231036*
X0205355Y0230988*
X0205362Y0230946*
X0205376Y0230918*
X0205382Y0230904*
Y0230897*
X0205459Y0230717*
X0205535Y0230564*
X0205618Y0230433*
X0205695Y0230328*
X0205757Y0230245*
X0205813Y023019*
X0205847Y0230162*
X0205861Y0230148*
X0205965Y0230072*
X0206076Y0230023*
X0206174Y0229981*
X0206264Y0229954*
X0206347Y022994*
X0206403Y0229933*
X0206444Y0229926*
X0206458*
X0206527Y0229933*
X020659Y022994*
X0206708Y0229974*
X0206812Y0230023*
X0206902Y0230079*
X0206979Y0230127*
X0207034Y0230176*
X0207069Y023021*
X0207083Y0230224*
X0207173Y0230349*
X0207235Y0230488*
X0207284Y0230627*
X0207312Y0230766*
X0207333Y023089*
X020734Y0230939*
Y0230988*
X0207346Y0231022*
Y0231057*
Y0231071*
Y0231078*
X020734Y0231224*
X0207319Y0231369*
X0207298Y0231515*
X0207263Y0231647*
X0207235Y0231765*
X0207222Y0231814*
X0207215Y0231855*
X0207201Y023189*
X0207194Y0231918*
X0207187Y0231931*
Y0231939*
X0207117Y0232112*
X0207048Y0232265*
X0206972Y0232397*
X0206895Y0232507*
X0206833Y0232591*
X0206777Y0232646*
X0206743Y0232681*
X0206729Y0232695*
X0206618Y0232778*
X02065Y0232841*
X0206389Y0232889*
X0206292Y0232917*
X0206201Y0232938*
X0206139Y0232945*
X0206111Y0232952*
G37*
G36*
X0224Y02485D02*
X0217254D01*
X0217345Y0247577*
X021776Y0246208*
X0218435Y0244947*
X0219342Y0243842*
X0220447Y0242934*
X0221708Y024226*
X0223077Y0241845*
X0224Y0241754*
Y02485*
G37*
G36*
X0176401Y0232903D02*
X0176359D01*
X0176214Y0232889*
X0176075Y0232861*
X0175964Y023282*
X0175867Y0232771*
X017579Y0232716*
X0175735Y0232674*
X01757Y0232646*
X0175686Y0232632*
X0175596Y0232521*
X0175533Y0232403*
X0175485Y0232285*
X0175457Y0232174*
X0175436Y023207*
X0175429Y0231994*
X0175422Y0231959*
Y0231939*
Y0231925*
Y0231918*
X0175429Y0231751*
X0175443Y0231592*
X0175471Y0231439*
X0175499Y02313*
X017554Y0231161*
X0175582Y0231036*
X0175624Y0230925*
X0175672Y0230814*
X0175721Y0230724*
X0175762Y0230634*
X0175804Y0230564*
X0175846Y0230502*
X0175873Y0230453*
X0175901Y0230419*
X0175915Y0230398*
X0175922Y0230391*
X0175991Y0230314*
X0176061Y0230245*
X017613Y023019*
X0176207Y0230141*
X0176283Y0230099*
X0176352Y0230058*
X0176491Y0230009*
X0176609Y0229974*
X0176658Y0229967*
X0176706Y0229961*
X0176741Y0229954*
X017679*
X0176935Y0229967*
X0177067Y0230002*
X0177185Y0230044*
X0177282Y0230099*
X0177366Y0230155*
X0177421Y0230196*
X0177456Y0230231*
X017747Y0230245*
X017756Y0230363*
X0177629Y0230495*
X0177671Y0230627*
X0177706Y0230752*
X0177726Y0230863*
X0177734Y0230911*
Y0230953*
X017774Y0230988*
Y0231015*
Y0231029*
Y0231036*
X0177734Y0231189*
X0177713Y0231342*
X0177685Y0231494*
X017765Y0231626*
X0177622Y0231744*
X0177609Y0231793*
X0177595Y0231834*
X0177581Y0231869*
X0177574Y0231897*
X0177567Y0231911*
Y0231918*
X0177497Y0232084*
X0177414Y0232237*
X0177338Y0232362*
X0177261Y0232459*
X0177192Y0232542*
X017713Y0232598*
X0177095Y0232632*
X0177081Y0232646*
X0176956Y023273*
X0176831Y0232792*
X0176713Y0232841*
X0176602Y0232868*
X0176505Y0232889*
X0176429Y0232896*
X0176401Y0232903*
G37*
G36*
X0204807Y022338D02*
X0204779D01*
X0204668Y0223369*
X0204569Y0223347*
X0204485Y0223314*
X0204413Y0223275*
X0204358Y0223236*
X0204319Y0223203*
X0204291Y0223181*
X0204286Y0223169*
X0204224Y0223086*
X0204174Y0222986*
X0204141Y0222881*
X0204119Y0222781*
X0204108Y0222692*
X0204102Y0222653*
X0204097Y0222614*
Y0222587*
Y0222564*
Y0222553*
Y0222548*
Y022252*
Y0222487*
Y0222459*
Y0222453*
Y0222448*
X0205667*
X0205629Y0222609*
X0205579Y0222753*
X0205523Y022287*
X0205468Y022297*
X0205418Y0223042*
X0205373Y0223097*
X0205346Y022313*
X0205334Y0223142*
X020529Y0223186*
X020524Y0223219*
X0205146Y022328*
X0205051Y0223325*
X0204963Y0223353*
X020489Y0223369*
X0204829Y0223375*
X0204807Y022338*
G37*
G36*
X0166756Y0224646D02*
X0166745D01*
X0166668Y022464*
X0166601Y0224618*
X016654Y022459*
X016649Y0224562*
X0166451Y0224529*
X0166418Y0224501*
X0166401Y0224479*
X0166396Y0224474*
X0166351Y0224401*
X0166318Y0224313*
X016629Y0224224*
X0166274Y022413*
X0166262Y0224046*
X0166257Y022398*
Y0223957*
Y0223935*
Y0223924*
Y0223919*
Y0223824*
X0166262Y0223724*
X0166285Y0223519*
X0166312Y0223303*
X0166329Y0223197*
X0166346Y0223097*
X0166368Y0223003*
X0166384Y0222914*
X0166396Y0222836*
X0166412Y0222764*
X0166423Y0222709*
X0166435Y0222664*
X016644Y0222642*
Y0222631*
X0166484Y0222448*
X0166529Y0222281*
X0166573Y0222126*
X0166618Y0221987*
X0166662Y022186*
X0166706Y0221748*
X0166745Y0221649*
X0166784Y0221565*
X0166823Y0221488*
X0166856Y0221427*
X0166884Y0221371*
X0166912Y0221332*
X0166934Y0221299*
X0166951Y0221277*
X0166956Y0221266*
X0166962Y022126*
X0167001Y0221216*
X0167045Y0221177*
X0167128Y022111*
X0167217Y0221066*
X0167295Y0221038*
X0167361Y0221016*
X0167411Y022101*
X0167434Y0221005*
X0167461*
X0167539Y022101*
X0167605Y0221033*
X0167661Y022106*
X0167711Y0221088*
X016775Y0221121*
X0167783Y0221144*
X01678Y0221166*
X0167805Y0221171*
X0167827Y0221205*
X016785Y0221244*
X0167883Y0221332*
X0167905Y0221427*
X0167922Y0221527*
X0167933Y0221615*
Y0221654*
X0167939Y0221688*
Y0221715*
Y0221737*
Y0221748*
Y0221754*
Y0221854*
X0167933Y0221959*
X0167911Y0222176*
X0167877Y0222398*
X0167861Y0222503*
X0167844Y0222609*
X0167827Y0222703*
X0167811Y0222792*
X0167794Y022287*
X0167778Y0222942*
X0167766Y0222997*
X0167755Y0223042*
X016775Y0223064*
Y0223075*
X0167705Y0223247*
X0167661Y0223402*
X0167617Y0223547*
X0167572Y0223674*
X0167528Y0223797*
X0167483Y0223902*
X0167445Y0223996*
X01674Y022408*
X0167367Y0224157*
X0167328Y0224218*
X01673Y0224268*
X0167273Y0224313*
X016725Y0224346*
X0167234Y0224368*
X0167228Y0224379*
X0167223Y0224385*
X0167184Y0224429*
X0167139Y0224474*
X0167056Y0224535*
X0166978Y0224585*
X0166906Y0224612*
X016684Y0224635*
X016679Y022464*
X0166756Y0224646*
G37*
G36*
X0210057Y0224568D02*
X0208814D01*
X0208737Y0224562*
X020867*
X0208603Y0224557*
X0208548Y0224546*
X0208504Y022454*
X0208459Y0224535*
X020842Y0224523*
X0208359Y0224507*
X020832Y0224496*
X0208298Y0224485*
X0208293Y0224479*
X0208215Y0224424*
X0208159Y0224357*
X0208121Y0224285*
X0208093Y0224218*
X0208076Y0224157*
X0208071Y0224107*
X0208065Y0224074*
Y0224068*
Y0224063*
X0208071Y0223974*
X0208087Y0223891*
X0208115Y0223813*
X0208143Y0223741*
X0208176Y0223686*
X0208198Y0223641*
X020822Y0223613*
X0208226Y0223602*
X0208287Y0223524*
X0208359Y0223464*
X0208431Y0223408*
X0208498Y0223364*
X0208565Y022333*
X0208614Y0223303*
X0208648Y0223291*
X0208653Y0223286*
X0208659*
X0208714Y0223269*
X0208787Y0223253*
X0208864Y0223241*
X0208953Y022323*
X0209136Y0223208*
X0209325Y0223197*
X0209419*
X0209503Y0223192*
X020958*
X0209647Y0223186*
X0210346*
X0210057Y0224568*
G37*
G36*
X0200608Y0231258D02*
X0200601D01*
X0200636Y0231092*
X020067Y0230932*
X0200712Y0230786*
X0200746Y0230675*
X0200781Y0230578*
X0200816Y0230502*
X0200837Y0230453*
X0200851Y0230419*
X0200857Y0230412*
X0200906Y0230335*
X0200969Y0230266*
X0201031Y0230204*
X0201087Y0230155*
X0201142Y0230113*
X0201191Y0230085*
X0201218Y0230065*
X0201232Y0230058*
X0201329Y0230016*
X020142Y0229981*
X020151Y0229961*
X0201593Y022994*
X0201663Y0229933*
X0201718Y0229926*
X0201767*
X0201857Y0229933*
X020194Y0229947*
X020201Y0229974*
X0202072Y0230002*
X0202121Y0230023*
X0202155Y0230051*
X0202176Y0230065*
X0202183Y0230072*
X0202232Y0230134*
X0202273Y0230196*
X0202301Y0230252*
X0202315Y0230314*
X0202329Y0230363*
X0202336Y0230405*
Y0230433*
Y0230439*
X0202329Y0230537*
X0202301Y023062*
X0202273Y0230689*
X0202232Y0230752*
X0202197Y02308*
X0202162Y0230835*
X0202141Y0230856*
X0202134Y0230863*
X0202072Y0230904*
X0201996Y0230939*
X0201912Y0230974*
X0201815Y0231009*
X0201614Y0231064*
X0201406Y0231113*
X0201309Y0231133*
X0201212Y0231147*
X0201128Y0231161*
X0201052Y0231175*
X0200989Y0231182*
X0200941Y0231189*
X0200913Y0231196*
X0200899*
X020083Y023121*
X0200774Y0231217*
X0200719Y0231231*
X0200677Y0231238*
X0200642Y0231244*
X0200622Y0231251*
X0200608Y0231258*
G37*
G36*
X0157184Y0232924D02*
X0157094D01*
X0157025Y023291*
X0156906Y0232875*
X0156802Y0232827*
X0156712Y0232771*
X0156636Y0232709*
X015658Y023266*
X0156546Y0232626*
X0156532Y0232619*
Y0232612*
X0156441Y0232487*
X0156372Y0232355*
X0156324Y0232216*
X0156289Y0232084*
X0156268Y0231973*
X0156261Y0231918*
Y0231876*
X0156254Y0231841*
Y0231814*
Y02318*
Y0231793*
X0156261Y0231626*
X0156282Y0231467*
X015631Y0231307*
X0156344Y0231168*
X0156379Y023105*
X0156393Y0230995*
X0156407Y0230953*
X0156421Y0230918*
X0156428Y023089*
X0156435Y0230877*
Y023087*
X0156504Y0230703*
X015658Y0230557*
X0156657Y0230433*
X0156733Y0230335*
X0156802Y0230252*
X0156858Y0230196*
X0156893Y0230169*
X01569Y0230155*
X0156906*
X0157018Y0230079*
X0157135Y0230023*
X015724Y0229981*
X0157344Y0229954*
X0157427Y022994*
X015749Y0229933*
X0157517Y0229926*
X0157552*
X0157684Y022994*
X0157802Y0229967*
X0157913Y0230016*
X0158003Y0230065*
X0158072Y0230113*
X0158128Y0230162*
X0158163Y023019*
X0158177Y0230204*
X015826Y0230314*
X0158322Y0230439*
X0158364Y0230571*
X0158392Y0230696*
X0158413Y0230807*
X0158419Y0230856*
Y0230897*
X0158426Y0230932*
Y023096*
Y0230974*
Y0230981*
X0158419Y0231113*
X0158413Y0231244*
X0158371Y0231487*
X0158315Y0231716*
X0158281Y0231814*
X0158246Y0231911*
X0158218Y0232001*
X0158184Y0232077*
X0158156Y023214*
X0158128Y0232202*
X0158107Y0232244*
X0158086Y0232278*
X0158079Y0232299*
X0158072Y0232306*
X0158003Y0232417*
X0157927Y0232507*
X015785Y0232591*
X0157774Y023266*
X0157698Y0232723*
X0157621Y0232771*
X0157552Y0232813*
X0157476Y0232848*
X0157413Y0232875*
X0157351Y0232889*
X0157295Y0232903*
X0157247Y0232917*
X0157212*
X0157184Y0232924*
G37*
G36*
X0231746Y02485D02*
X0225D01*
Y0241754*
X0225923Y0241845*
X0227292Y024226*
X0228553Y0242934*
X0229658Y0243842*
X0230566Y0244947*
X023124Y0246208*
X0231655Y0247577*
X0231746Y02485*
G37*
G36*
X0224Y02885D02*
X0217254D01*
X0217345Y0287577*
X021776Y0286208*
X0218435Y0284947*
X0219342Y0283842*
X0220447Y0282934*
X0221708Y028226*
X0223077Y0281845*
X0224Y0281754*
Y02885*
G37*
G36*
X02495Y0286039D02*
X0248325Y0285884D01*
X0247231Y0285431*
X0246291Y0284709*
X0245569Y0283769*
X0245116Y0282675*
X0244961Y02815*
X0245116Y0280325*
X0245569Y0279231*
X0246291Y0278291*
X0247231Y0277569*
X0248325Y0277116*
X02495Y0276961*
X0250675Y0277116*
X0251769Y0277569*
X0252709Y0278291*
X0253431Y0279231*
X0253884Y0280325*
X0254039Y02815*
X0253884Y0282675*
X0253431Y0283769*
X0252709Y0284709*
X0251769Y0285431*
X0250675Y0285884*
X02495Y0286039*
G37*
G36*
X0224Y0296246D02*
X0223077Y0296155D01*
X0221708Y029574*
X0220447Y0295065*
X0219342Y0294158*
X0218435Y0293053*
X021776Y0291792*
X0217345Y0290423*
X0217254Y02895*
X0224*
Y0296246*
G37*
G36*
X0231746Y02885D02*
X0225D01*
Y0281754*
X0225923Y0281845*
X0227292Y028226*
X0228553Y0282934*
X0229658Y0283842*
X0230566Y0284947*
X023124Y0286208*
X0231655Y0287577*
X0231746Y02885*
G37*
G36*
X02595Y0281039D02*
X0258325Y0280884D01*
X0257231Y0280431*
X0256291Y0279709*
X0255569Y0278769*
X0255116Y0277675*
X0254961Y02765*
X0255116Y0275325*
X0255569Y0274231*
X0256291Y0273291*
X0257231Y0272569*
X0258325Y0272116*
X02595Y0271961*
X0260675Y0272116*
X0261769Y0272569*
X0262709Y0273291*
X0263431Y0274231*
X0263884Y0275325*
X0264039Y02765*
X0263884Y0277675*
X0263431Y0278769*
X0262709Y0279709*
X0261769Y0280431*
X0260675Y0280884*
X02595Y0281039*
G37*
G36*
X0253973Y0271D02*
X025D01*
Y0267027*
X0250675Y0267116*
X0251769Y0267569*
X0252709Y0268291*
X0253431Y0269231*
X0253884Y0270325*
X0253973Y0271*
G37*
G36*
X025Y0275973D02*
Y0272D01*
X0253973*
X0253884Y0272675*
X0253431Y0273769*
X0252709Y0274709*
X0251769Y0275431*
X0250675Y0275884*
X025Y0275973*
G37*
G36*
X0249D02*
X0248325Y0275884D01*
X0247231Y0275431*
X0246291Y0274709*
X0245569Y0273769*
X0245116Y0272675*
X0245027Y0272*
X0249*
Y0275973*
G37*
G36*
X0257374Y0346488D02*
X025683Y0346417D01*
X0255857Y0346014*
X0255021Y0345373*
X025438Y0344537*
X0253977Y0343564*
X0253905Y034302*
X0257374*
Y0346488*
G37*
G36*
X0261843Y034202D02*
X0258374D01*
Y0338551*
X0258918Y0338623*
X0259891Y0339026*
X0260727Y0339667*
X0261368Y0340502*
X0261771Y0341476*
X0261843Y034202*
G37*
G36*
X0114173Y0351554D02*
X0113129Y0351417D01*
X0112156Y0351014*
X011132Y0350373*
X0110679Y0349537*
X0110276Y0348564*
X0110139Y034752*
X0110276Y0346476*
X0110679Y0345502*
X011132Y0344667*
X0112156Y0344026*
X0113129Y0343623*
X0114173Y0343485*
X0115217Y0343623*
X0116191Y0344026*
X0117026Y0344667*
X0117667Y0345502*
X011807Y0346476*
X0118208Y034752*
X011807Y0348564*
X0117667Y0349537*
X0117026Y0350373*
X0116191Y0351014*
X0115217Y0351417*
X0114173Y0351554*
G37*
G36*
X0258374Y0346488D02*
Y034302D01*
X0261843*
X0261771Y0343564*
X0261368Y0344537*
X0260727Y0345373*
X0259891Y0346014*
X0258918Y0346417*
X0258374Y0346488*
G37*
G36*
X0257874Y0336554D02*
X025683Y0336417D01*
X0255857Y0336014*
X0255021Y0335372*
X025438Y0334537*
X0253977Y0333564*
X0253839Y033252*
X0253977Y0331475*
X025438Y0330502*
X0255021Y0329667*
X0255857Y0329026*
X025683Y0328623*
X0257874Y0328485*
X0258918Y0328623*
X0259891Y0329026*
X0260727Y0329667*
X0261368Y0330502*
X0261771Y0331475*
X0261909Y033252*
X0261771Y0333564*
X0261368Y0334537*
X0260727Y0335372*
X0259891Y0336014*
X0258918Y0336417*
X0257874Y0336554*
G37*
G36*
X0225Y0296246D02*
Y02895D01*
X0231746*
X0231655Y0290423*
X023124Y0291792*
X0230566Y0293053*
X0229658Y0294158*
X0228553Y0295065*
X0227292Y029574*
X0225923Y0296155*
X0225Y0296246*
G37*
G36*
X0257374Y034202D02*
X0253905D01*
X0253977Y0341476*
X025438Y0340502*
X0255021Y0339667*
X0255857Y0339026*
X025683Y0338623*
X0257374Y0338551*
Y034202*
G37*
G36*
X0114173Y0341554D02*
X0113129Y0341417D01*
X0112156Y0341014*
X011132Y0340372*
X0110679Y0339537*
X0110276Y0338564*
X0110139Y033752*
X0110276Y0336475*
X0110679Y0335502*
X011132Y0334667*
X0112156Y0334026*
X0113129Y0333623*
X0114173Y0333485*
X0115217Y0333623*
X0116191Y0334026*
X0117026Y0334667*
X0117667Y0335502*
X011807Y0336475*
X0118208Y033752*
X011807Y0338564*
X0117667Y0339537*
X0117026Y0340372*
X0116191Y0341014*
X0115217Y0341417*
X0114173Y0341554*
G37*
G36*
X0249Y0271D02*
X0245027D01*
X0245116Y0270325*
X0245569Y0269231*
X0246291Y0268291*
X0247231Y0267569*
X0248325Y0267116*
X0249Y0267027*
Y0271*
G37*
G36*
X0125Y0255D02*
X0121579D01*
X0121649Y0254468*
X0122047Y0253507*
X0122681Y0252681*
X0123507Y0252047*
X0124468Y0251649*
X0125Y0251579*
Y0255*
G37*
G36*
X0149453Y0259453D02*
X0141547D01*
Y0251547*
X0149453*
Y0259453*
G37*
G36*
X02595Y0261039D02*
X0258325Y0260884D01*
X0257231Y0260431*
X0256291Y0259709*
X0255569Y0258769*
X0255116Y0257675*
X0254961Y02565*
X0255116Y0255325*
X0255569Y0254231*
X0256291Y0253291*
X0257231Y0252569*
X0258325Y0252116*
X02595Y0251961*
X0260675Y0252116*
X0261769Y0252569*
X0262709Y0253291*
X0263431Y0254231*
X0263884Y0255325*
X0264039Y02565*
X0263884Y0257675*
X0263431Y0258769*
X0262709Y0259709*
X0261769Y0260431*
X0260675Y0260884*
X02595Y0261039*
G37*
G36*
X0129421Y0255D02*
X0126D01*
Y0251579*
X0126532Y0251649*
X0127493Y0252047*
X0128319Y0252681*
X0128953Y0253507*
X0129351Y0254468*
X0129421Y0255*
G37*
G36*
X0225Y0256246D02*
Y02495D01*
X0231746*
X0231655Y0250423*
X023124Y0251792*
X0230566Y0253053*
X0229658Y0254158*
X0228553Y0255065*
X0227292Y025574*
X0225923Y0256155*
X0225Y0256246*
G37*
G36*
X0224D02*
X0223077Y0256155D01*
X0221708Y025574*
X0220447Y0255065*
X0219342Y0254158*
X0218435Y0253053*
X021776Y0251792*
X0217345Y0250423*
X0217254Y02495*
X0224*
Y0256246*
G37*
G36*
X01155Y0259487D02*
X0114468Y0259351D01*
X0113507Y0258953*
X0112681Y0258319*
X0112047Y0257493*
X0111649Y0256532*
X0111513Y02555*
X0111649Y0254468*
X0112047Y0253507*
X0112681Y0252681*
X0113507Y0252047*
X0114468Y0251649*
X01155Y0251513*
X0116532Y0251649*
X0117493Y0252047*
X0118319Y0252681*
X0118953Y0253507*
X0119351Y0254468*
X0119487Y02555*
X0119351Y0256532*
X0118953Y0257493*
X0118319Y0258319*
X0117493Y0258953*
X0116532Y0259351*
X01155Y0259487*
G37*
G36*
X01055D02*
X0104468Y0259351D01*
X0103507Y0258953*
X0102681Y0258319*
X0102047Y0257493*
X0101649Y0256532*
X0101513Y02555*
X0101649Y0254468*
X0102047Y0253507*
X0102681Y0252681*
X0103507Y0252047*
X0104468Y0251649*
X01055Y0251513*
X0106532Y0251649*
X0107493Y0252047*
X0108319Y0252681*
X0108953Y0253507*
X0109351Y0254468*
X0109487Y02555*
X0109351Y0256532*
X0108953Y0257493*
X0108319Y0258319*
X0107493Y0258953*
X0106532Y0259351*
X01055Y0259487*
G37*
G36*
X0263973Y0266D02*
X026D01*
Y0262027*
X0260675Y0262116*
X0261769Y0262569*
X0262709Y0263291*
X0263431Y0264231*
X0263884Y0265325*
X0263973Y0266*
G37*
G36*
X0259D02*
X0255027D01*
X0255116Y0265325*
X0255569Y0264231*
X0256291Y0263291*
X0257231Y0262569*
X0258325Y0262116*
X0259Y0262027*
Y0266*
G37*
G36*
X026Y0270973D02*
Y0267D01*
X0263973*
X0263884Y0267675*
X0263431Y0268769*
X0262709Y0269709*
X0261769Y0270431*
X0260675Y0270884*
X026Y0270973*
G37*
G36*
X0259D02*
X0258325Y0270884D01*
X0257231Y0270431*
X0256291Y0269709*
X0255569Y0268769*
X0255116Y0267675*
X0255027Y0267*
X0259*
Y0270973*
G37*
G36*
X0126Y0259421D02*
Y0256D01*
X0129421*
X0129351Y0256532*
X0128953Y0257493*
X0128319Y0258319*
X0127493Y0258953*
X0126532Y0259351*
X0126Y0259421*
G37*
G36*
X0125D02*
X0124468Y0259351D01*
X0123507Y0258953*
X0122681Y0258319*
X0122047Y0257493*
X0121649Y0256532*
X0121579Y0256*
X0125*
Y0259421*
G37*
G36*
X02495Y0266039D02*
X0248325Y0265884D01*
X0247231Y0265431*
X0246291Y0264709*
X0245569Y0263769*
X0245116Y0262675*
X0244961Y02615*
X0245116Y0260325*
X0245569Y0259231*
X0246291Y0258291*
X0247231Y0257569*
X0248325Y0257116*
X02495Y0256961*
X0250675Y0257116*
X0251769Y0257569*
X0252709Y0258291*
X0253431Y0259231*
X0253884Y0260325*
X0254039Y02615*
X0253884Y0262675*
X0253431Y0263769*
X0252709Y0264709*
X0251769Y0265431*
X0250675Y0265884*
X02495Y0266039*
G37*
G36*
X01515Y0265794D02*
X01379D01*
X0137022Y0265619*
X0136278Y0265122*
X0133878Y0262722*
X013338Y0261978*
X0133206Y02611*
Y0258722*
X0132681Y0258319*
X0132047Y0257493*
X0131649Y0256532*
X0131513Y02555*
X0131649Y0254468*
X0132047Y0253507*
X0132681Y0252681*
X0133507Y0252047*
X0134468Y0251649*
X01355Y0251513*
X0136532Y0251649*
X0137493Y0252047*
X0138319Y0252681*
X0138953Y0253507*
X0139351Y0254468*
X0139487Y02555*
X0139351Y0256532*
X0138953Y0257493*
X0138319Y0258319*
X0137794Y0258722*
Y026015*
X013885Y0261206*
X015055*
X0151503Y0260253*
X015147Y026*
X015159Y0259086*
X0151943Y0258235*
X0152504Y0257504*
X0153235Y0256943*
X0154086Y025659*
X0155Y025647*
X0155914Y025659*
X0156765Y0256943*
X0157496Y0257504*
X0158057Y0258235*
X015841Y0259086*
X015853Y026*
X015841Y0260914*
X0158057Y0261765*
X0157496Y0262496*
X0156765Y0263057*
X0155914Y026341*
X0155Y026353*
X0154747Y0263497*
X0153122Y0265122*
X0152378Y0265619*
X01515Y0265794*
G37*
%LNunisolder_sensor-3*%
%LPD*%
G54D14*
X01355Y02555D02*
Y02611D01*
X01379Y02635*
X01515*
X0155Y026*
G54D16*
X022275Y0289D02*
X022625D01*
X022275Y0249D02*
X022625D01*
G54D18*
X0087795Y0219291D02*
X0089Y0233D01*
X00878Y02193D02*
X0102Y02051D01*
X01165*
X0253594Y0205074D02*
X0268094D01*
X0282294Y0219274*
X0281098Y0232974D02*
X0282303Y0219265D01*
X0119Y03621D02*
X0124Y03623D01*
X01242Y03575*
X02461Y03623D02*
X02511Y03621D01*
X02459Y03575D02*
X02461Y03623D01*
G54D20*
X0114173Y033752D03*
Y034752D03*
X0257874Y033252D03*
Y034252D03*
Y035252D03*
G54D21*
X01455Y02555D03*
G54D22*
X01355Y02555D03*
X01255D03*
X01155D03*
X01055D03*
G54D23*
X0236221Y0224472D03*
X0133858Y022441D03*
G54D24*
X02245Y0289D03*
Y0249D03*
G54D25*
X02495Y02815D03*
X02595Y02765D03*
X02495Y02715D03*
X02595Y02665D03*
X02495Y02615D03*
X02595Y02565D03*
G54D26*
X0192Y02537D03*
X0164Y02569D03*
X00993Y02615D03*
X01722Y02861D03*
X02456Y03321D03*
X02246Y03065D03*
X02061Y02969D03*
X021Y02828D03*
X0105Y0335D03*
X0127Y03241D03*
X01423Y0295D03*
X01626Y02957D03*
X021Y0255D03*
X01969Y02726D03*
X02233Y02685D03*
X0256Y02872D03*
X02414Y03018D03*
X025Y032D03*
X02645Y03239D03*
X02625Y03022D03*
X01247Y02949D03*
X01183Y0313D03*
X01042Y03101D03*
X01015Y02805D03*
X01851Y02622D03*
X0172Y02623D03*
X026Y0245D03*
X024D03*
X02D03*
X016D03*
X014D03*
X012D03*
X01D03*
X0116Y02783D03*
X01105Y0266D03*
X01215Y02635D03*
X0138Y027D03*
X0129921Y0271654D03*
X0155Y026D03*
M02*