%FSTAX23Y23*%
%MOIN*%
%SFA1B1*%

%IPPOS*%
%ADD120C,0.005000*%
%LNunisolder52_front-1*%
%LPD*%
G54D120*
X-00045Y-01365D02*
X-00017D01*
X-00031Y-01379D02*
Y-01351D01*
X-00076Y-01451D02*
X-00049D01*
X-00062Y-01465D02*
Y-01437D01*
X00017Y-01365D02*
X00045D01*
X00031Y-01379D02*
Y-01351D01*
X00049Y-01451D02*
X00076D01*
X00062Y-01465D02*
Y-01437D01*
X00118Y-01408D02*
X00208D01*
X00163Y-01453D02*
Y-01363D01*
X-00208Y-01408D02*
X-00118D01*
X-00163Y-01453D02*
Y-01363D01*
X-00014Y-01451D02*
X00014D01*
X0Y-01465D02*
Y-01437D01*
X00643Y-00737D02*
X00682D01*
X00662Y-00757D02*
Y-00717D01*
X00643Y-0056D02*
X00682D01*
X00662Y-0058D02*
Y-0054D01*
X00387Y-0056D02*
X00426D01*
X00407Y-0058D02*
Y-0054D01*
X00387Y-00737D02*
X00426D01*
X00407Y-00757D02*
Y-00717D01*
X00193Y00261D02*
X00228D01*
X00211Y00243D02*
Y00278D01*
X00193Y00161D02*
X00228D01*
X00211Y00143D02*
Y00178D01*
X00193Y00061D02*
X00228D01*
X00211Y00043D02*
Y00078D01*
X00193Y-00039D02*
X00228D01*
X00211Y-00056D02*
Y-00021D01*
X00193Y-00139D02*
X00228D01*
X00211Y-00156D02*
Y-00121D01*
X00393Y00261D02*
X00428D01*
X00411Y00243D02*
Y00278D01*
X00393Y00161D02*
X00428D01*
X00411Y00143D02*
Y00178D01*
X00393Y00061D02*
X00428D01*
X00411Y00043D02*
Y00078D01*
X00393Y-00039D02*
X00428D01*
X00411Y-00056D02*
Y-00021D01*
X00393Y-00139D02*
X00428D01*
X00411Y-00156D02*
Y-00121D01*
X01373Y-00283D02*
X01428D01*
X014Y-0031D02*
Y-00255D01*
X01373Y-00066D02*
X01428D01*
X014Y-00094D02*
Y-00039D01*
X01207Y-00066D02*
X01262D01*
X01235Y-00094D02*
Y-00039D01*
X01207Y-00283D02*
X01262D01*
X01235Y-0031D02*
Y-00255D01*
X-01517Y-00816D02*
X-01482D01*
X-015Y-00833D02*
Y-00798D01*
X-01517Y-00716D02*
X-01482D01*
X-015Y-00733D02*
Y-00698D01*
X-01517Y-00616D02*
X-01482D01*
X-015Y-00633D02*
Y-00598D01*
X-01517Y-00516D02*
X-01482D01*
X-015Y-00533D02*
Y-00498D01*
X-01517Y-00416D02*
X-01482D01*
X-015Y-00433D02*
Y-00398D01*
X-00642Y-00393D02*
X-0061D01*
X-00626Y-00408D02*
Y-00377D01*
X-00834Y-00393D02*
X-00802D01*
X-00818Y-00408D02*
Y-00377D01*
X00488Y00851D02*
X00523D01*
X00506Y00833D02*
Y00868D01*
X00488Y00751D02*
X00523D01*
X00506Y00733D02*
Y00768D01*
X00588Y00851D02*
X00623D01*
X00606Y00833D02*
Y00868D01*
X00588Y00751D02*
X00623D01*
X00606Y00733D02*
Y00768D01*
X00688Y00851D02*
X00723D01*
X00706Y00833D02*
Y00868D01*
X00688Y00751D02*
X00723D01*
X00706Y00733D02*
Y00768D01*
X00788Y00851D02*
X00823D01*
X00806Y00833D02*
Y00868D01*
X00788Y00751D02*
X00823D01*
X00806Y00733D02*
Y00768D01*
X00888Y00851D02*
X00923D01*
X00906Y00833D02*
Y00868D01*
X00888Y00751D02*
X00923D01*
X00906Y00733D02*
Y00768D01*
X-00742Y-00945D02*
X-00707D01*
X-00725Y-00963D02*
Y-00928D01*
X-00923Y-01126D02*
X-00888D01*
X-00906Y-01144D02*
Y-01109D01*
X-01313Y-00875D02*
X-01176D01*
X-01245Y-00943D02*
Y-00806D01*
X-00068Y00875D02*
X00068D01*
X0Y00806D02*
Y00943D01*
X01176Y-00875D02*
X01313D01*
X01245Y-00943D02*
Y-00806D01*
X-00428Y00261D02*
X-00393D01*
X-00411Y00243D02*
Y00278D01*
X-00428Y00161D02*
X-00393D01*
X-00411Y00143D02*
Y00178D01*
X-00428Y00061D02*
X-00393D01*
X-00411Y00043D02*
Y00078D01*
X-00428Y-00039D02*
X-00393D01*
X-00411Y-00056D02*
Y-00021D01*
X-00428Y-00139D02*
X-00393D01*
X-00411Y-00156D02*
Y-00121D01*
X-00228Y00261D02*
X-00193D01*
X-00211Y00243D02*
Y00278D01*
X-00228Y00161D02*
X-00193D01*
X-00211Y00143D02*
Y00178D01*
X-00228Y00061D02*
X-00193D01*
X-00211Y00043D02*
Y00078D01*
X-00228Y-00039D02*
X-00193D01*
X-00211Y-00056D02*
Y-00021D01*
X-00228Y-00139D02*
X-00193D01*
X-00211Y-00156D02*
Y-00121D01*
X00082Y-00139D02*
X00117D01*
X001Y-00156D02*
Y-00121D01*
X00082Y-00039D02*
X00117D01*
X001Y-00056D02*
Y-00021D01*
X00082Y00061D02*
X00117D01*
X001Y00043D02*
Y00078D01*
X00082Y00161D02*
X00117D01*
X001Y00143D02*
Y00178D01*
X00082Y00261D02*
X00117D01*
X001Y00243D02*
Y00278D01*
X-00117Y-00139D02*
X-00082D01*
X-001Y-00156D02*
Y-00121D01*
X-00117Y-00039D02*
X-00082D01*
X-001Y-00056D02*
Y-00021D01*
X-00117Y00061D02*
X-00082D01*
X-001Y00043D02*
Y00078D01*
X-00117Y00161D02*
X-00082D01*
X-001Y00143D02*
Y00178D01*
X-00117Y00261D02*
X-00082D01*
X-001Y00243D02*
Y00278D01*
X-00426Y-00737D02*
X-00387D01*
X-00407Y-00757D02*
Y-00717D01*
X-00426Y-0056D02*
X-00387D01*
X-00407Y-0058D02*
Y-0054D01*
X-00682Y-0056D02*
X-00643D01*
X-00662Y-0058D02*
Y-0054D01*
X-00682Y-00737D02*
X-00643D01*
X-00662Y-00757D02*
Y-00717D01*
X00108Y-00737D02*
X00147D01*
X00127Y-00757D02*
Y-00717D01*
X00108Y-0056D02*
X00147D01*
X00127Y-0058D02*
Y-0054D01*
X-00147Y-0056D02*
X-00108D01*
X-00127Y-0058D02*
Y-0054D01*
X-00147Y-00737D02*
X-00108D01*
X-00127Y-00757D02*
Y-00717D01*
X01403Y00636D02*
X01431D01*
X01417Y00622D02*
Y0065D01*
X01406Y00707D02*
X01434D01*
X0142Y00693D02*
Y00721D01*
X01257Y00834D02*
X01285D01*
X01271Y0082D02*
Y00848D01*
X01163Y00827D02*
X01191D01*
X01177Y00813D02*
Y00841D01*
X01102Y00822D02*
X0113D01*
X01116Y00808D02*
Y00836D01*
X-01324Y-00513D02*
X-01296D01*
X-0131Y-00527D02*
Y-00499D01*
X01155Y00002D02*
X01183D01*
X01169Y-00011D02*
Y00016D01*
X-00659Y00827D02*
X-00631D01*
X-00645Y00813D02*
Y00841D01*
X-00938Y00726D02*
X-0091D01*
X-00924Y00712D02*
Y0074D01*
X00571Y-00487D02*
X00599D01*
X00585Y-00501D02*
Y-00473D01*
X00425Y00886D02*
X00453D01*
X00439Y00872D02*
Y009D01*
X00742Y-01141D02*
X0077D01*
X00756Y-01155D02*
Y-01127D01*
X00913Y-00956D02*
X00941D01*
X00927Y-0097D02*
Y-00942D01*
X00608Y-01088D02*
X00636D01*
X00622Y-01102D02*
Y-01074D01*
X00989Y-01159D02*
X01017D01*
X01003Y-01173D02*
Y-01145D01*
X01318Y-00689D02*
X01346D01*
X01332Y-00703D02*
Y-00675D01*
X00982Y-00707D02*
X0101D01*
X00996Y-00721D02*
Y-00693D01*
X01049Y-0038D02*
X01077D01*
X01063Y-00394D02*
Y-00366D01*
X01042Y-00595D02*
X0107D01*
X01056Y-00609D02*
Y-00581D01*
X01068Y-00473D02*
X01096D01*
X01082Y-00487D02*
Y-00459D01*
X01052Y-00819D02*
X0108D01*
X01066Y-00833D02*
Y-00805D01*
X00283Y00739D02*
X00311D01*
X00297Y00725D02*
Y00753D01*
X00947Y00718D02*
X00975D01*
X00961Y00704D02*
Y00732D01*
X00616Y-0005D02*
X00644D01*
X0063Y-00064D02*
Y-00036D01*
X-01185Y00517D02*
X-01157D01*
X-01171Y00503D02*
Y00531D01*
X-00995Y00744D02*
X-00967D01*
X-00981Y0073D02*
Y00758D01*
X-0027Y00873D02*
X-00242D01*
X-00256Y00859D02*
Y00887D01*
X00127Y00496D02*
X00155D01*
X00141Y00482D02*
Y0051D01*
X00325Y00645D02*
X00353D01*
X00339Y00631D02*
Y00659D01*
X00525Y00282D02*
X00553D01*
X00539Y00268D02*
Y00296D01*
X00523Y00456D02*
X00551D01*
X00537Y00442D02*
Y0047D01*
X0018Y00529D02*
X00208D01*
X00194Y00515D02*
Y00543D01*
X00265Y00588D02*
X00293D01*
X00279Y00574D02*
Y00602D01*
X00268Y00436D02*
X00296D01*
X00282Y00422D02*
Y0045D01*
X00212Y00588D02*
X0024D01*
X00226Y00574D02*
Y00602D01*
X-00284Y00501D02*
X-00256D01*
X-0027Y00487D02*
Y00515D01*
X-00982Y00828D02*
X-00954D01*
X-00968Y00814D02*
Y00842D01*
X-01097Y00826D02*
X-01069D01*
X-01083Y00812D02*
Y0084D01*
X00212Y00876D02*
X0024D01*
X00226Y00862D02*
Y0089D01*
X-01148Y00625D02*
X-0112D01*
X-01134Y00611D02*
Y00639D01*
X-01201Y0096D02*
X-01173D01*
X-01187Y00946D02*
Y00974D01*
X-0119Y00791D02*
X-01162D01*
X-01176Y00777D02*
Y00805D01*
X-01317Y00744D02*
X-01289D01*
X-01303Y0073D02*
Y00758D01*
X-01469Y00511D02*
X-01441D01*
X-01455Y00497D02*
Y00525D01*
X-01544Y00657D02*
X-01516D01*
X-0153Y00643D02*
Y00671D01*
X-00333Y00692D02*
X-00305D01*
X-00319Y00678D02*
Y00706D01*
X-002Y00508D02*
X-00172D01*
X-00186Y00494D02*
Y00522D01*
X-00175Y00958D02*
X-00147D01*
X-00161Y00944D02*
Y00972D01*
X-01411Y0037D02*
X-01383D01*
X-01397Y00356D02*
Y00384D01*
X-01191Y00333D02*
X-01163D01*
X-01177Y00319D02*
Y00347D01*
X00831Y00596D02*
X00859D01*
X00845Y00582D02*
Y0061D01*
X00522Y00517D02*
X0055D01*
X00536Y00503D02*
Y00531D01*
X01Y00203D02*
X01028D01*
X01014Y00189D02*
Y00217D01*
X00574Y00215D02*
X00602D01*
X00588Y00201D02*
Y00229D01*
X00391Y00369D02*
X00419D01*
X00405Y00355D02*
Y00383D01*
X00778Y00454D02*
X00806D01*
X00792Y0044D02*
Y00468D01*
X00842Y00408D02*
X0087D01*
X00856Y00394D02*
Y00422D01*
X01057Y00617D02*
X01085D01*
X01071Y00603D02*
Y00631D01*
X01135Y00653D02*
X01163D01*
X01149Y00639D02*
Y00667D01*
X-01016Y00384D02*
X-00988D01*
X-01002Y0037D02*
Y00398D01*
X-01068Y00201D02*
X-0104D01*
X-01054Y00187D02*
Y00215D01*
X-00951Y00201D02*
X-00923D01*
X-00937Y00187D02*
Y00215D01*
X0134Y00358D02*
X01368D01*
X01354Y00344D02*
Y00372D01*
X00739Y-01006D02*
X00767D01*
X00753Y-0102D02*
Y-00992D01*
X01433Y0088D02*
X01461D01*
X01447Y00866D02*
Y00894D01*
X00762Y00038D02*
X0079D01*
X00776Y00024D02*
Y00052D01*
X00571Y00156D02*
X00599D01*
X00585Y00142D02*
Y0017D01*
X-01451Y-0054D02*
X-01423D01*
X-01437Y-00554D02*
Y-00526D01*
X-01293Y-00293D02*
X-01265D01*
X-01279Y-00307D02*
Y-00279D01*
X-01363Y-00249D02*
X-01335D01*
X-01349Y-00263D02*
Y-00235D01*
X-00817Y00533D02*
X-00789D01*
X-00803Y00519D02*
Y00547D01*
X00391Y00665D02*
X00419D01*
X00405Y00651D02*
Y00679D01*
X-00441Y00618D02*
X-00413D01*
X-00427Y00604D02*
Y00632D01*
X-00939Y-00563D02*
X-00911D01*
X-00925Y-00577D02*
Y-00549D01*
X-00883Y-00589D02*
X-00855D01*
X-00869Y-00603D02*
Y-00575D01*
X-01126Y-00523D02*
X-01098D01*
X-01112Y-00537D02*
Y-00509D01*
X-01108Y-00602D02*
X-0108D01*
X-01094Y-00616D02*
Y-00588D01*
X-00456Y-00495D02*
X-00428D01*
X-00442Y-00509D02*
Y-00481D01*
X00604Y-00621D02*
X00632D01*
X00618Y-00635D02*
Y-00607D01*
X-00066Y-00495D02*
X-00038D01*
X-00052Y-00509D02*
Y-00481D01*
X01244Y00204D02*
X01272D01*
X01258Y0019D02*
Y00218D01*
X00609Y00599D02*
X00637D01*
X00623Y00585D02*
Y00613D01*
X01046Y00558D02*
X01074D01*
X0106Y00544D02*
Y00572D01*
X01403Y00209D02*
X01431D01*
X01417Y00195D02*
Y00223D01*
X0118Y00204D02*
X01208D01*
X01194Y0019D02*
Y00218D01*
X-00938Y00462D02*
X-0091D01*
X-00924Y00448D02*
Y00476D01*
X-01072Y00914D02*
X-01044D01*
X-01058Y009D02*
Y00928D01*
X00067Y-00277D02*
X00095D01*
X00081Y-00291D02*
Y-00263D01*
X00018Y-00321D02*
X00046D01*
X00032Y-00335D02*
Y-00307D01*
X-00176Y-00298D02*
X-00148D01*
X-00162Y-00312D02*
Y-00284D01*
X00187Y-00789D02*
X00215D01*
X00201Y-00803D02*
Y-00775D01*
X00349Y-00674D02*
X00377D01*
X00363Y-00688D02*
Y-0066D01*
X00726Y-00329D02*
X00754D01*
X0074Y-00343D02*
Y-00315D01*
X00718Y-00141D02*
X00746D01*
X00732Y-00155D02*
Y-00127D01*
X006Y00056D02*
X00628D01*
X00614Y00042D02*
Y0007D01*
X01461Y-00321D02*
X01489D01*
X01475Y-00335D02*
Y-00307D01*
X01413Y-0053D02*
X01441D01*
X01427Y-00544D02*
Y-00516D01*
X01487Y-00829D02*
X01515D01*
X01501Y-00843D02*
Y-00815D01*
X01511Y-00587D02*
X01539D01*
X01525Y-00601D02*
Y-00573D01*
X01176Y-00694D02*
X01204D01*
X0119Y-00708D02*
Y-0068D01*
X00801Y-00679D02*
X00829D01*
X00815Y-00693D02*
Y-00665D01*
X01325Y-00423D02*
X01353D01*
X01339Y-00437D02*
Y-00409D01*
X-01208Y-00087D02*
X-0118D01*
X-01194Y-00101D02*
Y-00073D01*
X-01514Y-00901D02*
X-01486D01*
X-015Y-00915D02*
Y-00887D01*
X-01498Y-00988D02*
X-0147D01*
X-01484Y-01002D02*
Y-00974D01*
X-01373Y-00609D02*
X-01345D01*
X-01359Y-00623D02*
Y-00595D01*
X-01133Y-01014D02*
X-01105D01*
X-01119Y-01028D02*
Y-01D01*
X-01089Y-01063D02*
X-01061D01*
X-01075Y-01077D02*
Y-01049D01*
X-01093Y-00733D02*
X-01065D01*
X-01079Y-00747D02*
Y-00719D01*
X-0105Y-0018D02*
X-01022D01*
X-01036Y-00194D02*
Y-00166D01*
X-01122Y-00096D02*
X-01094D01*
X-01108Y-0011D02*
Y-00082D01*
X-01216Y-00394D02*
X-01188D01*
X-01202Y-00408D02*
Y-0038D01*
X-01246Y-00329D02*
X-01218D01*
X-01232Y-00343D02*
Y-00315D01*
X-01219Y-00251D02*
X-01191D01*
X-01205Y-00265D02*
Y-00237D01*
X-01103Y-00277D02*
X-01075D01*
X-01089Y-00291D02*
Y-00263D01*
X-01268Y-00026D02*
X-0124D01*
X-01254Y-0004D02*
Y-00012D01*
X-0129Y-00202D02*
X-01262D01*
X-01276Y-00216D02*
Y-00188D01*
X-01147Y-00164D02*
X-01119D01*
X-01133Y-00178D02*
Y-0015D01*
X-00446Y-00824D02*
X-00418D01*
X-00432Y-00838D02*
Y-0081D01*
X-00513Y-00926D02*
X-00485D01*
X-00499Y-0094D02*
Y-00912D01*
X-00886Y-00462D02*
X-00858D01*
X-00872Y-00476D02*
Y-00448D01*
X-00938Y-00183D02*
X-0091D01*
X-00924Y-00197D02*
Y-00169D01*
X-00791Y-0031D02*
X-00763D01*
X-00777Y-00324D02*
Y-00296D01*
X-00479Y-00294D02*
X-00451D01*
X-00465Y-00308D02*
Y-0028D01*
X-01421Y-00395D02*
X-01393D01*
X-01407Y-00409D02*
Y-00381D01*
X-01459Y00312D02*
X-01431D01*
X-01445Y00298D02*
Y00326D01*
X-01538Y-00088D02*
X-0151D01*
X-01524Y-00102D02*
Y-00074D01*
X-00258Y-00352D02*
X-0023D01*
X-00244Y-00366D02*
Y-00338D01*
X-00257Y-00496D02*
X-00229D01*
X-00243Y-0051D02*
Y-00482D01*
X-00398Y-00449D02*
X-0037D01*
X-00384Y-00463D02*
Y-00435D01*
X-00078Y-00664D02*
X-0005D01*
X-00064Y-00678D02*
Y-0065D01*
X-00653Y-00909D02*
X-00625D01*
X-00639Y-00923D02*
Y-00895D01*
X-00742Y-00831D02*
X-00714D01*
X-00728Y-00845D02*
Y-00817D01*
X-00683Y-01146D02*
X-00655D01*
X-00669Y-0116D02*
Y-01132D01*
X-0075Y-01102D02*
X-00722D01*
X-00736Y-01116D02*
Y-01088D01*
X-00984Y-00661D02*
X-00956D01*
X-0097Y-00675D02*
Y-00647D01*
X-01289Y-0057D02*
X-01261D01*
X-01275Y-00584D02*
Y-00556D01*
X0046Y-00784D02*
X00488D01*
X00474Y-00798D02*
Y-0077D01*
X00025Y-00757D02*
X00053D01*
X00039Y-00771D02*
Y-00743D01*
X00874Y-01001D02*
X00902D01*
X00888Y-01015D02*
Y-00987D01*
X-00529Y00651D02*
X-00501D01*
X-00515Y00637D02*
Y00665D01*
X00344Y-00002D02*
X00372D01*
X00358Y-00016D02*
Y00012D01*
X00183Y00681D02*
X00211D01*
X00197Y00667D02*
Y00695D01*
X-00306Y-0027D02*
X-00278D01*
X-00292Y-00284D02*
Y-00256D01*
X00141Y00958D02*
X00169D01*
X00155Y00944D02*
Y00972D01*
X00278Y-00499D02*
X00306D01*
X00292Y-00513D02*
Y-00485D01*
X-00061Y-00089D02*
X-00033D01*
X-00047Y-00103D02*
Y-00075D01*
X-00901Y-00879D02*
X-00873D01*
X-00887Y-00893D02*
Y-00865D01*
X00586Y-00782D02*
X00614D01*
X006Y-00796D02*
Y-00768D01*
X00508Y00958D02*
X00536D01*
X00522Y00944D02*
Y00972D01*
X00389Y-01053D02*
X00417D01*
X00403Y-01067D02*
Y-01039D01*
X01415Y-00945D02*
X01443D01*
X01429Y-00959D02*
Y-00931D01*
X-01424Y00917D02*
X-01396D01*
X-0141Y00903D02*
Y00931D01*
X-00759Y00539D02*
X-00731D01*
X-00745Y00525D02*
Y00553D01*
X00447Y-00677D02*
X00475D01*
X00461Y-00691D02*
Y-00663D01*
X01098Y-01012D02*
X01126D01*
X01112Y-01026D02*
Y-00998D01*
X00548Y-01234D02*
X00576D01*
X00562Y-01248D02*
Y-0122D01*
X00967Y-01251D02*
X00995D01*
X00981Y-01265D02*
Y-01237D01*
X00764Y-01251D02*
X00792D01*
X00778Y-01265D02*
Y-01237D01*
X-00485Y-01249D02*
X-00457D01*
X-00471Y-01263D02*
Y-01235D01*
X-01423Y-00976D02*
X-01395D01*
X-01409Y-0099D02*
Y-00962D01*
X-0118Y-01237D02*
X-01152D01*
X-01166Y-01251D02*
Y-01223D01*
X-01435Y-01248D02*
X-01407D01*
X-01421Y-01262D02*
Y-01234D01*
X-01539Y-0116D02*
X-01511D01*
X-01525Y-01174D02*
Y-01146D01*
X-01043Y-01119D02*
X-01015D01*
X-01029Y-01133D02*
Y-01105D01*
X-01224Y-01112D02*
X-01196D01*
X-0121Y-01126D02*
Y-01098D01*
X-0058Y-00458D02*
X-00552D01*
X-00566Y-00472D02*
Y-00444D01*
X-01372Y-00717D02*
X-01344D01*
X-01358Y-00731D02*
Y-00703D01*
X-01041Y-00866D02*
X-01013D01*
X-01027Y-0088D02*
Y-00852D01*
X-00947Y-0124D02*
X-00919D01*
X-00933Y-01254D02*
Y-01226D01*
X-00403Y-00247D02*
X-00375D01*
X-00389Y-00261D02*
Y-00233D01*
X-01417Y00192D02*
X-01389D01*
X-01403Y00178D02*
Y00206D01*
X-00898Y-00803D02*
X-0087D01*
X-00884Y-00817D02*
Y-00789D01*
X-01022Y-00997D02*
X-00994D01*
X-01008Y-01011D02*
Y-00983D01*
X-00718Y-01244D02*
X-0069D01*
X-00704Y-01258D02*
Y-0123D01*
X00624Y-00232D02*
X00652D01*
X00638Y-00246D02*
Y-00218D01*
X-00372Y-0009D02*
X-00344D01*
X-00358Y-00104D02*
Y-00076D01*
X-00777Y-0013D02*
X-00749D01*
X-00763Y-00144D02*
Y-00116D01*
X-00522Y-00696D02*
X-00494D01*
X-00508Y-0071D02*
Y-00682D01*
X-00991Y00595D02*
X-00963D01*
X-00977Y00581D02*
Y00609D01*
X00808Y-00541D02*
X00836D01*
X00822Y-00555D02*
Y-00527D01*
X00448Y-00492D02*
X00476D01*
X00462Y-00506D02*
Y-00478D01*
X-01483Y-00184D02*
X-01455D01*
X-01469Y-00198D02*
Y-0017D01*
X0141Y00048D02*
X01438D01*
X01424Y00034D02*
Y00062D01*
X01031Y-00288D02*
X01059D01*
X01045Y-00302D02*
Y-00274D01*
X01392Y-00176D02*
X0142D01*
X01406Y-0019D02*
Y-00162D01*
X00341Y00091D02*
X00369D01*
X00355Y00077D02*
Y00105D01*
X00292Y-00132D02*
X0032D01*
X00306Y-00146D02*
Y-00118D01*
X00876Y-0007D02*
X00904D01*
X0089Y-00084D02*
Y-00056D01*
X01031Y-00018D02*
X01059D01*
X01045Y-00032D02*
Y-00004D01*
X01291Y-00122D02*
X01319D01*
X01305Y-00136D02*
Y-00108D01*
X01497Y-00167D02*
X01525D01*
X01511Y-00181D02*
Y-00153D01*
X00863Y-00231D02*
X00891D01*
X00877Y-00245D02*
Y-00217D01*
X00486Y-00166D02*
X00514D01*
X005Y-0018D02*
Y-00152D01*
X00463Y-00243D02*
X00491D01*
X00477Y-00257D02*
Y-00229D01*
X00313Y-00292D02*
X00341D01*
X00327Y-00306D02*
Y-00278D01*
X00314Y-00227D02*
X00342D01*
X00328Y-00241D02*
Y-00213D01*
X00271Y-00353D02*
X00299D01*
X00285Y-00367D02*
Y-00339D01*
X-00105Y-00313D02*
X-00077D01*
X-00091Y-00327D02*
Y-00299D01*
X00045Y-00417D02*
X00073D01*
X00059Y-00431D02*
Y-00403D01*
X-00048Y-00245D02*
X-0002D01*
X-00034Y-00259D02*
Y-00231D01*
X00018Y-01284D02*
X00046D01*
X00032Y-01298D02*
Y-0127D01*
X00061Y-01162D02*
X00089D01*
X00075Y-01176D02*
Y-01148D01*
X00115Y-01162D02*
X00143D01*
X00129Y-01176D02*
Y-01148D01*
X-00122Y-01259D02*
X-00094D01*
X-00108Y-01273D02*
Y-01245D01*
X-00082Y-01151D02*
X-00054D01*
X-00068Y-01165D02*
Y-01137D01*
X-00106Y-01507D02*
X-00078D01*
X-00092Y-01521D02*
Y-01493D01*
X-00063Y-00757D02*
X-00035D01*
X-00049Y-00771D02*
Y-00743D01*
X-0022Y-00807D02*
X-00192D01*
X-00206Y-00821D02*
Y-00793D01*
X-00773Y-00731D02*
X-00745D01*
X-00759Y-00745D02*
Y-00717D01*
X-00776Y-00503D02*
X-00748D01*
X-00762Y-00517D02*
Y-00489D01*
X-00597Y-00621D02*
X-00569D01*
X-00583Y-00635D02*
Y-00607D01*
X-00469Y-01123D02*
X-00441D01*
X-00455Y-01137D02*
Y-01109D01*
X-00265Y-00976D02*
X-00237D01*
X-00251Y-0099D02*
Y-00962D01*
X-00268Y-01157D02*
X-0024D01*
X-00254Y-01171D02*
Y-01143D01*
X00049Y-00663D02*
X00077D01*
X00063Y-00677D02*
Y-00649D01*
X00678Y-00419D02*
X00706D01*
X00692Y-00433D02*
Y-00405D01*
X-00618Y-00797D02*
X-0059D01*
X-00604Y-00811D02*
Y-00783D01*
X-0113Y00448D02*
X-01102D01*
X-01116Y00434D02*
Y00462D01*
X01337Y00862D02*
X01365D01*
X01351Y00848D02*
Y00876D01*
X00887Y00338D02*
X00915D01*
X00901Y00324D02*
Y00352D01*
X00955Y00392D02*
X00983D01*
X00969Y00378D02*
Y00406D01*
X01295Y00621D02*
X01323D01*
X01309Y00607D02*
Y00635D01*
X01396Y00577D02*
X01424D01*
X0141Y00563D02*
Y00591D01*
X0134Y00418D02*
X01368D01*
X01354Y00404D02*
Y00432D01*
X01443Y00508D02*
X01471D01*
X01457Y00494D02*
Y00522D01*
X01003Y00101D02*
X01031D01*
X01017Y00087D02*
Y00115D01*
X0108Y00411D02*
X01108D01*
X01094Y00397D02*
Y00425D01*
X01248Y00407D02*
X01276D01*
X01262Y00393D02*
Y00421D01*
X01236Y00621D02*
X01264D01*
X0125Y00607D02*
Y00635D01*
X01165Y00425D02*
X01193D01*
X01179Y00411D02*
Y00439D01*
X01202Y00337D02*
X0123D01*
X01216Y00323D02*
Y00351D01*
X-01302Y-00076D02*
X-01274D01*
X-01288Y-0009D02*
Y-00062D01*
X-01367Y-00125D02*
X-01339D01*
X-01353Y-00139D02*
Y-00111D01*
X-01184Y00113D02*
X-01156D01*
X-0117Y00099D02*
Y00127D01*
X-00784Y00381D02*
X-00756D01*
X-0077Y00367D02*
Y00395D01*
X-01288Y00406D02*
X-0126D01*
X-01274Y00392D02*
Y0042D01*
X003Y-00926D02*
X00328D01*
X00314Y-0094D02*
Y-00912D01*
X00953Y-01002D02*
X00981D01*
X00967Y-01016D02*
Y-00988D01*
X0061Y-01027D02*
X00638D01*
X00624Y-01041D02*
Y-01013D01*
X00447Y-01002D02*
X00475D01*
X00461Y-01016D02*
Y-00988D01*
X00488Y-00918D02*
X00516D01*
X00502Y-00932D02*
Y-00904D01*
X00379Y-012D02*
X00407D01*
X00393Y-01214D02*
Y-01186D01*
X01167Y-0123D02*
X01195D01*
X01181Y-01244D02*
Y-01216D01*
X01396Y-01234D02*
X01424D01*
X0141Y-01248D02*
Y-0122D01*
X01157Y-00126D02*
X01185D01*
X01171Y-0014D02*
Y-00112D01*
X-00142Y00576D02*
X-00114D01*
X-00128Y00562D02*
Y0059D01*
X-00879Y00461D02*
X-00851D01*
X-00865Y00447D02*
Y00475D01*
X-00913Y00384D02*
X-00885D01*
X-00899Y0037D02*
Y00398D01*
X-00623Y00623D02*
X-00595D01*
X-00609Y00609D02*
Y00637D01*
X00301Y-00846D02*
X00329D01*
X00315Y-0086D02*
Y-00832D01*
X00254Y-0081D02*
X00282D01*
X00268Y-00824D02*
Y-00796D01*
X00675Y0032D02*
X00703D01*
X00689Y00306D02*
Y00334D01*
X00732Y00801D02*
X0076D01*
X00746Y00787D02*
Y00815D01*
X00652Y00801D02*
X0068D01*
X00666Y00787D02*
Y00815D01*
X00972Y00956D02*
X01D01*
X00986Y00942D02*
Y0097D01*
X00671Y00603D02*
X00699D01*
X00685Y00589D02*
Y00617D01*
X0073Y00603D02*
X00758D01*
X00744Y00589D02*
Y00617D01*
X-01435Y-01079D02*
X-01407D01*
X-01421Y-01093D02*
Y-01065D01*
X00229Y-01104D02*
X00257D01*
X00243Y-01118D02*
Y-0109D01*
X00217Y-01308D02*
X00245D01*
X00231Y-01322D02*
Y-01294D01*
X00077Y-01507D02*
X00105D01*
X00091Y-01521D02*
Y-01493D01*
X00166Y-00499D02*
X00194D01*
X0018Y-00513D02*
Y-00485D01*
X-0042Y00508D02*
X-00392D01*
X-00406Y00494D02*
Y00522D01*
X-0034D02*
X-00312D01*
X-00326Y00508D02*
Y00536D01*
X-00069Y00495D02*
X-00041D01*
X-00055Y00481D02*
Y00509D01*
X-00431Y00827D02*
X-00403D01*
X-00417Y00813D02*
Y00841D01*
X-00489Y00802D02*
X-00461D01*
X-00475Y00788D02*
Y00816D01*
X-00835Y00666D02*
X-00807D01*
X-00821Y00652D02*
Y0068D01*
X0097Y-00155D02*
X00998D01*
X00984Y-00169D02*
Y-00141D01*
X00341Y00191D02*
X00369D01*
X00355Y00177D02*
Y00205D01*
X00333Y00285D02*
X00361D01*
X00347Y00271D02*
Y00299D01*
M02*