%FSTAX23Y23*%
%MOIN*%
%SFA1B1*%

%IPPOS*%
%AMD112*
4,1,8,-0.010300,0.045400,-0.045400,0.010300,-0.045400,-0.010300,-0.010300,-0.045400,0.010300,-0.045400,0.045400,-0.010300,0.045400,0.010300,0.010300,0.045400,-0.010300,0.045400,0.0*
1,1,0.029260,0.000000,0.035100*
1,1,0.029260,-0.035100,0.000000*
1,1,0.029260,0.000000,-0.035100*
1,1,0.029260,0.035100,0.000000*
%
%AMD119*
4,1,8,0.021000,0.054000,-0.021000,0.054000,-0.034000,0.041000,-0.034000,-0.041000,-0.021000,-0.054000,0.021000,-0.054000,0.034000,-0.041000,0.034000,0.041000,0.021000,0.054000,0.0*
1,1,0.026000,0.021000,0.041000*
1,1,0.026000,-0.021000,0.041000*
1,1,0.026000,-0.021000,-0.041000*
1,1,0.026000,0.021000,-0.041000*
%
%ADD104O,0.051310X0.059180*%
%ADD105O,0.114330X0.206850*%
%ADD106C,0.086740*%
%ADD107C,0.067060*%
%ADD108O,0.086740X0.126110*%
%ADD109R,0.067060X0.067060*%
%ADD110C,0.063120*%
%ADD111R,0.067060X0.067060*%
G04~CAMADD=112~8~0.0~0.0~788.7~788.7~146.3~0.0~15~0.0~0.0~0.0~0.0~0~0.0~0.0~0.0~0.0~0~0.0~0.0~0.0~45.0~992.0~991.0*
%ADD112D112*%
%ADD113C,0.078870*%
%ADD114C,0.263900*%
%ADD115C,0.244220*%
%ADD116R,0.067300X0.065940*%
%ADD117R,0.063580X0.065940*%
%ADD118R,0.118000X0.066000*%
G04~CAMADD=119~8~0.0~0.0~680.0~1080.0~130.0~0.0~15~0.0~0.0~0.0~0.0~0~0.0~0.0~0.0~0.0~0~0.0~0.0~0.0~0.0~680.0~1080.0*
%ADD119D119*%
%LNunisolder52_front-1*%
%LPD*%
G54D104*
X-00031Y-01365D03*
X-00062Y-01451D03*
X00031Y-01365D03*
X00062Y-01451D03*
X0D03*
G54D105*
X00163Y-01408D03*
X-00163D03*
G54D106*
X00662Y-00737D03*
Y-0056D03*
X00407D03*
Y-00737D03*
X-00407D03*
Y-0056D03*
X-00662D03*
Y-00737D03*
X00127D03*
Y-0056D03*
X-00127D03*
Y-00737D03*
G54D107*
X00211Y00261D03*
Y00161D03*
Y00061D03*
Y-00039D03*
Y-00139D03*
X00411Y00261D03*
Y00161D03*
Y00061D03*
Y-00039D03*
Y-00139D03*
X-015Y-00716D03*
Y-00616D03*
Y-00516D03*
Y-00416D03*
X00506Y00751D03*
X00606Y00851D03*
Y00751D03*
X00706Y00851D03*
Y00751D03*
X00806Y00851D03*
Y00751D03*
X00906Y00851D03*
Y00751D03*
X-00411Y00261D03*
Y00161D03*
Y00061D03*
Y-00039D03*
Y-00139D03*
X-00211Y00261D03*
Y00161D03*
Y00061D03*
Y-00039D03*
Y-00139D03*
X001D03*
Y-00039D03*
Y00061D03*
Y00161D03*
Y00261D03*
X-001Y-00139D03*
Y-00039D03*
Y00061D03*
Y00161D03*
Y00261D03*
G54D108*
X014Y-00283D03*
Y-00066D03*
X01235D03*
Y-00283D03*
G54D109*
X-015Y-00816D03*
G54D110*
X-00626Y-00393D03*
X-00818D03*
G54D111*
X00506Y00851D03*
G54D112*
X-00725Y-00945D03*
G54D113*
X-00906Y-01126D03*
G54D114*
X-01245Y-00875D03*
X01245D03*
G54D115*
X0Y00875D03*
G54D116*
X00177Y0016D03*
G54D117*
X-00068Y0016D03*
G54D118*
X-00413Y00161D03*
G54D119*
X-00725Y-00241D03*
M02*