%FSTAX23Y23*%
%MOIN*%
%SFA1B1*%

%IPPOS*%
%ADD37C,0.012000*%
%ADD45C,0.010000*%
%ADD72C,0.008000*%
%ADD73C,0.007870*%
%LNunisolder52_front-1*%
%LPD*%
G54D37*
X00161Y-01555D02*
X00236D01*
Y-0148*
X-00236Y-01555D02*
Y-0148D01*
Y-01555D02*
X-00161D01*
X-01574Y-01299D02*
Y-01224D01*
Y-01299D02*
X-01499D01*
X01499D02*
X01574D01*
Y-01224*
Y00925D02*
Y01D01*
X01499D02*
X01574D01*
X-01574Y00925D02*
Y01D01*
X-01499*
X00236Y-01452D02*
Y-01377D01*
X00314Y-01299*
X00389*
X-00236Y-01452D02*
Y-01377D01*
X-00314Y-01299D02*
X-00236Y-01377D01*
X-00389Y-01299D02*
X-00314D01*
G54D45*
X01115Y-00375D02*
Y00017D01*
X01525*
Y-00375D02*
Y00017D01*
X01115Y-00375D02*
X01525D01*
G54D72*
X-00847Y-00304D02*
D01*
X-00853Y-00304*
X-00859Y-00304*
X-00866Y-00305*
X-00872Y-00307*
X-00877Y-00309*
X-00883Y-00311*
X-00889Y-00314*
X-00894Y-00317*
X-00899Y-00321*
X-00904Y-00324*
X-00909Y-00328*
X-00913Y-00333*
X-00917Y-00338*
X-00921Y-00343*
X-00924Y-00348*
X-00927Y-00353*
X-0093Y-00359*
X-00932Y-00365*
X-00933Y-00371*
X-00935Y-00377*
X-00936Y-00383*
X-00936Y-00389*
Y-00396*
X-00936Y-00402*
X-00935Y-00408*
X-00933Y-00414*
X-00932Y-0042*
X-0093Y-00426*
X-00927Y-00432*
X-00924Y-00437*
X-00921Y-00442*
X-00917Y-00447*
X-00913Y-00452*
X-00909Y-00457*
X-00904Y-00461*
X-00899Y-00465*
X-00894Y-00468*
X-00889Y-00471*
X-00883Y-00474*
X-00877Y-00476*
X-00872Y-00478*
X-00866Y-0048*
X-00859Y-00481*
X-00853Y-00481*
X-00847Y-00482*
X-00597D02*
D01*
X-00591Y-00481*
X-00585Y-00481*
X-00579Y-0048*
X-00573Y-00478*
X-00567Y-00476*
X-00561Y-00474*
X-00555Y-00471*
X-0055Y-00468*
X-00545Y-00465*
X-0054Y-00461*
X-00535Y-00457*
X-00531Y-00452*
X-00527Y-00447*
X-00523Y-00442*
X-0052Y-00437*
X-00517Y-00432*
X-00515Y-00426*
X-00512Y-0042*
X-00511Y-00414*
X-00509Y-00408*
X-00509Y-00402*
X-00508Y-00396*
Y-00389*
X-00509Y-00383*
X-00509Y-00377*
X-00511Y-00371*
X-00512Y-00365*
X-00515Y-00359*
X-00517Y-00353*
X-0052Y-00348*
X-00523Y-00343*
X-00527Y-00338*
X-00531Y-00333*
X-00535Y-00328*
X-0054Y-00324*
X-00545Y-00321*
X-0055Y-00317*
X-00555Y-00314*
X-00561Y-00311*
X-00567Y-00309*
X-00573Y-00307*
X-00579Y-00305*
X-00585Y-00304*
X-00591Y-00304*
X-00597Y-00304*
X-00847D02*
X-00597D01*
X-00847Y-00482D02*
X-00597D01*
X00434Y00597D02*
X00441Y00603D01*
X00454*
X00461Y00597*
Y0057*
X00454Y00564*
X00441*
X00434Y0057*
X00421Y00564D02*
Y00603D01*
X00394Y00564*
Y00603*
X00381D02*
X00354D01*
X00367*
Y00564*
X00341D02*
Y00603D01*
X00321*
X00314Y00597*
Y00583*
X00321Y00577*
X00341*
X00327D02*
X00314Y00564D01*
G54D73*
X-0155Y-00366D02*
X-0145D01*
X-0155Y-00866D02*
Y-00366D01*
X-0145Y-00866D02*
Y-00366D01*
X-0155Y-00866D02*
X-0145D01*
X01106Y00624D02*
Y00977D01*
X00306Y00624D02*
Y00977D01*
Y00624D02*
X01106D01*
X00626Y00927D02*
X00786D01*
X00904Y00977D02*
X01106D01*
X00306D02*
X00456D01*
X00786D02*
X00904D01*
X00786Y00927D02*
Y00977D01*
X00626Y00927D02*
Y00977D01*
X00456D02*
X00626D01*
M02*