%FSTAX26Y26*%
%MOIN*%
%SFA1B1*%

%IPPOS*%
%ADD9500C,0.027990*%
%ADD9501C,0.031500*%
%ADD9502C,0.035430*%
%ADD9503C,0.039370*%
%ADD9504C,0.043310*%
%ADD9505C,0.047240*%
%ADD9506C,0.055120*%
%ADD9507C,0.066930*%
%ADD9508C,0.068900*%
%ADD9509C,0.090550*%
%ADD9510C,0.098430*%
%ADD9511C,0.125200*%
%ADD9512C,0.137800*%
%ADD9513C,0.145670*%
%LNunisolder52_full-1*%
%LPD*%
G54D9500*
X0136614Y0420866D03*
Y0427165D03*
Y0433465D03*
X0145276Y0430315D03*
Y0424016D03*
X0490256Y0275098D03*
X0490748Y0287894D03*
X0504528Y0288484D03*
X050689Y0299213D03*
X0495374Y0298524D03*
X0517913Y0302559D03*
X0525886Y0300886D03*
X0524311Y0290551D03*
X053435Y0289665D03*
X0535138Y0305315D03*
X054124Y0304429D03*
X0547244Y0305315D03*
X0558957Y0311516D03*
X0555118Y0289665D03*
X0544291Y0280413D03*
X0523228Y0275787D03*
X0576575Y028061D03*
X0576772Y0289862D03*
X0600394Y0291929D03*
X0607382Y0275787D03*
X0588583Y0308071D03*
X0453051Y029065D03*
X0452461Y0274902D03*
X0430315D03*
X04384Y0299095D03*
X0365256Y03D03*
X0364567Y0309449D03*
X0347091Y0312265D03*
X0343891Y0302165D03*
Y0296265D03*
X0345391Y0285465D03*
X0339491Y0286165D03*
X0332591Y0281465D03*
X0323591Y0291765D03*
X0317591D03*
X0322491Y0300965D03*
X0324291Y0309265D03*
X0315491Y0305565D03*
X0352559Y0285138D03*
X0369882Y0282382D03*
X0368012Y0292028D03*
X0302691Y0285465D03*
X0302191Y0301365D03*
Y0307765D03*
X0282087Y0310236D03*
X0269191Y0310065D03*
X0269591Y0296665D03*
X0264191Y0286565D03*
X0265091Y0276065D03*
X0249691Y0279665D03*
X0239401Y0293265D03*
X0228791Y0284465D03*
X0223091Y0274665D03*
X0198891Y0277065D03*
X0187205Y0284252D03*
X0158366Y0286122D03*
X015876Y0309055D03*
X0212303Y0308071D03*
X0212795Y0293898D03*
X0286591Y0284765D03*
X0150984Y0404035D03*
X0153391Y0423965D03*
X0155807Y0437992D03*
X0131004Y0436417D03*
Y0418012D03*
X0165591Y0419665D03*
Y0414265D03*
X0171391Y0402865D03*
X0176476Y0386811D03*
X0181591Y0381065D03*
X0189991Y0376965D03*
X0203391Y0379765D03*
X0214091Y0381065D03*
X021437Y0390846D03*
X0197191Y0395665D03*
X0189191Y0395765D03*
X0200791Y0400365D03*
X0202891Y0407065D03*
X0206004Y0423228D03*
Y0432087D03*
X0215391Y0433565D03*
X0215491Y0420865D03*
X0240091Y0421265D03*
X0249691Y0423965D03*
X0254091Y0419065D03*
X0257283Y043061D03*
X0250491Y0436265D03*
X0251969Y0443405D03*
X0246555Y0451575D03*
X0254791Y0456365D03*
X0257091Y0466065D03*
X0272791Y0462965D03*
X0272891Y0431865D03*
X0268591Y0396565D03*
X0259055Y0394291D03*
X0252591Y0394465D03*
X0246491Y0398665D03*
X023189Y0397933D03*
Y0409154D03*
X0232291Y0432365D03*
X0232191Y0451465D03*
X0236891Y0465565D03*
X0201083Y0447835D03*
X0184191Y0452265D03*
X0166091Y0452565D03*
X0166634Y0434055D03*
X0161713Y0387795D03*
X0158366Y0370866D03*
X0172933Y0364961D03*
X0179091Y0364765D03*
X0181102Y0351772D03*
X0167618Y0351476D03*
X0156595Y0349311D03*
Y0329035D03*
X0165847Y0326772D03*
X0181557Y0330465D03*
X0181678Y0338365D03*
X0186127Y0334442D03*
X0180591Y0315965D03*
X0199803Y0320472D03*
X0211024Y0327559D03*
X0222244Y0321555D03*
X0234485Y0318894D03*
X0243699Y0320861D03*
X0252953Y0322638D03*
X026624Y032874D03*
X0274705Y0338091D03*
X0258661Y033937D03*
X0267618Y0353937D03*
X0258591Y0363365D03*
X0257491Y0379465D03*
X0265191Y0377165D03*
X0276772Y0364075D03*
X0287402Y0365748D03*
X0297391Y0368665D03*
X0303291Y0368365D03*
X0309991Y0373265D03*
X0310291Y0392465D03*
X0300891Y0391665D03*
X0290891D03*
X0281591Y0391365D03*
X028563Y0349508D03*
X0291891Y0325465D03*
X0302091Y0325765D03*
X0279921Y0322638D03*
X0248819Y035315D03*
X0239862Y0357874D03*
X0233071Y0368602D03*
X0232579Y0380906D03*
X0219691Y0365365D03*
X0203591Y0367165D03*
X0213878Y0345571D03*
X0227648Y0344935D03*
X0315591Y0337065D03*
X0322591Y0341565D03*
X0327191Y0347965D03*
X0341437Y0342618D03*
X0342091Y0352765D03*
Y0358665D03*
X0341691Y0364865D03*
X0333491Y0373565D03*
X0327391Y0373465D03*
X0318691Y0386665D03*
X0325391Y0398965D03*
X0340591Y0399209D03*
Y0404565D03*
X0334691Y0407765D03*
X0331391Y0413065D03*
X0331371Y0432677D03*
X0332677Y0445768D03*
X0331891Y0454165D03*
X0333991Y0459765D03*
X0332591Y0467765D03*
X0351083Y0459154D03*
X0369091Y0452765D03*
X0377591Y0443265D03*
X0399606Y0450787D03*
X0401575Y0435039D03*
X03986Y0418894D03*
Y0398294D03*
X0398524Y0377657D03*
X0377658Y0374902D03*
X0370472Y0383169D03*
X0369391Y0404565D03*
X0377591Y0411665D03*
X0349891Y0407465D03*
X0355691Y0397465D03*
X0346291Y0393265D03*
X0348291Y0386665D03*
X0361891Y0360565D03*
Y0352565D03*
X0353642Y0331004D03*
X0343491Y0320065D03*
X0337598Y0321161D03*
X0322891Y0317765D03*
X0320991Y0330265D03*
X0313791Y0358265D03*
X0364075Y0315551D03*
X0377461Y0328543D03*
X0404Y0331494D03*
X0401575Y0312992D03*
X0418602Y031811D03*
X0430512Y0336417D03*
X04515Y0333794D03*
X0467815Y0317027D03*
X0457283Y0378543D03*
X0442Y0379095D03*
X0431791Y0376772D03*
X0433071Y0393701D03*
X0432185Y0407874D03*
X04327Y0414854D03*
X0422342Y0413484D03*
X04178Y0402394D03*
X0449122Y040268D03*
X0449022Y040948D03*
Y041618D03*
X044872Y0431693D03*
X0456693D03*
X0464567Y0431102D03*
X0452953Y0442126D03*
X0462598Y0452756D03*
X0454035Y0462992D03*
X0433071Y0462598D03*
X043248Y044498D03*
X0423228Y0452756D03*
X0413386Y0442913D03*
X0439272Y0422933D03*
X0447703Y0396465D03*
X0454303D03*
X0460803D03*
X0417323Y036998D03*
X0339391Y0439965D03*
X0472441Y0442913D03*
Y0462598D03*
X0493209Y0453051D03*
X0490059Y0436122D03*
X0492618Y0426181D03*
X0484449Y0420669D03*
X0484154Y0400492D03*
X0480217Y0396752D03*
X0476378Y0400787D03*
X0492126Y0400591D03*
X0488287Y0396654D03*
X0479626Y0382283D03*
X0471654Y0375689D03*
X0481988Y0369094D03*
X0492126Y0369291D03*
X0474213Y035935D03*
X0488091Y0344488D03*
X04787Y0334295D03*
X04806Y0323195D03*
X0499016Y0334744D03*
X0509842Y0338287D03*
X0520768Y0340453D03*
X0516732Y0350295D03*
X0506398Y0353051D03*
X0525787Y0358957D03*
X0528543Y0349016D03*
X0540158Y0343307D03*
X0551083Y0353445D03*
X054855Y0359269D03*
X0559252Y0364173D03*
X0557874Y0378838D03*
X0562303D03*
X0575098Y0386516D03*
X0582874Y0386024D03*
X0592224Y0393701D03*
X0608464Y0395079D03*
X0607283Y0408957D03*
X0598917Y040876D03*
X058061Y0415256D03*
X058376Y0422047D03*
X0575422Y0435553D03*
X0575Y0447835D03*
X0565846Y0443504D03*
X0567913Y0458661D03*
X0578839Y045935D03*
X0583858Y0454134D03*
X054872Y0456594D03*
X0526968Y0460335D03*
X0526772Y0450394D03*
X0533071Y0434252D03*
X054872Y0425098D03*
X0566142Y0417717D03*
X0559842Y0402362D03*
X0577362Y0372342D03*
X0577461Y0357874D03*
X0587598Y0355315D03*
X0593504D03*
X0599409D03*
X0605315D03*
X061122D03*
X0610236Y0379921D03*
X0608268Y0330709D03*
X0602362D03*
X0596457D03*
X0590551D03*
X0584646D03*
X0587598Y0325787D03*
X0593504D03*
X0599409D03*
X0596457Y0320866D03*
X0590551D03*
X0584646D03*
X0581693Y0325787D03*
X0574016Y0342323D03*
X0561909Y034124D03*
X0539764Y0320276D03*
X0531102Y0324311D03*
X0524016Y0323721D03*
X0508071Y0312795D03*
X0615748Y0320079D03*
X0613091Y0325197D03*
X0618996Y0325098D03*
X0620079Y0330709D03*
X0614173D03*
X0611024Y0440256D03*
X0619587Y0447638D03*
X0511417Y0458169D03*
X0626378Y0457678D03*
Y0425D03*
X0626279Y0416831D03*
X063061Y0395177D03*
X0641732Y0393701D03*
X0647638D03*
X0653543D03*
X0659449D03*
X0665354D03*
Y0366142D03*
X0659449D03*
X0653543D03*
X0647638D03*
X0641732D03*
X0634449Y0380807D03*
X0626968Y0379921D03*
X0628937Y0354331D03*
X0625984Y0330709D03*
X0648622Y0412401D03*
X0661417Y0425197D03*
X0667323D03*
X0673228D03*
X0679134D03*
X0685039D03*
Y0452756D03*
X0679134D03*
X0673228D03*
X0667323D03*
X0661417D03*
X0669291Y046063D03*
X0677165D03*
X0685039D03*
X0685532Y0468405D03*
X0677165Y0468504D03*
X0669291D03*
X0648622Y0442913D03*
X0625Y0487205D03*
X0629921Y0535433D03*
Y0551181D03*
X0637795Y0543307D03*
X0645669Y0551181D03*
Y0535433D03*
X0653543Y0543307D03*
X0661417Y0551181D03*
X0653543Y0559055D03*
X0661417Y0566929D03*
X0656496Y0604331D03*
X0637795D03*
X0683071Y0524606D03*
X0614173Y0535433D03*
Y0551181D03*
X0622047Y0543307D03*
X0606299D03*
X0598425Y0551181D03*
X0590551Y0543307D03*
X0582677Y0551181D03*
X0574803Y0543307D03*
X0559055D03*
X0566929Y0551181D03*
Y0535433D03*
X0551181D03*
X053622D03*
X0543307Y0527559D03*
X053622Y0519685D03*
X0536614Y0504429D03*
X0534941Y0489665D03*
X0548032Y0489862D03*
X0565945Y0488189D03*
X0567913Y0474409D03*
X0537795Y0473622D03*
X052185Y048376D03*
X0509142Y0504463D03*
X0507087Y051122D03*
X0506988Y0518504D03*
X0515158Y0532382D03*
X0495866Y0538878D03*
X0496555Y0549311D03*
X0480709Y0548327D03*
X0480807Y0535138D03*
X0470768Y0529232D03*
X0479134Y0504528D03*
X048879Y0504572D03*
X0489961Y0482185D03*
X0482283Y0472441D03*
X0499213Y0470177D03*
X0472441Y0482283D03*
X0471358Y0563681D03*
Y0576279D03*
X0484842Y0582972D03*
X0500689Y0582874D03*
X0513398Y0567363D03*
X0513583Y0557382D03*
X053622Y0551181D03*
X0551181D03*
X0543307Y0543307D03*
Y0559055D03*
X053622Y0566929D03*
X0551181D03*
X0564173Y0565748D03*
X0559055Y0559055D03*
X0574803D03*
X0559055Y0574803D03*
X0543307D03*
X053622Y0582677D03*
X0543307Y0590551D03*
Y0605512D03*
X053622Y0598425D03*
X0551181D03*
X0559055Y0605512D03*
X0566535Y0598032D03*
X0559055Y0590551D03*
X0584842Y0587008D03*
X0590551Y0605512D03*
X0574803D03*
X0582677Y0535433D03*
X0598425D03*
X058563Y0503937D03*
Y0488189D03*
X0606398Y0487205D03*
X0611417Y0473032D03*
X048688Y0562361D03*
X0459252Y0566831D03*
X0461122Y0554528D03*
X0446162Y0557972D03*
X0445768Y0550984D03*
X0445177Y0565945D03*
X0434941Y0561713D03*
X0432098Y0573763D03*
X0441898Y0582063D03*
X046063Y0582972D03*
X0421798Y0581863D03*
X0412298Y0567163D03*
X0412402Y0546358D03*
X0428151Y0543578D03*
X0435335Y0541142D03*
X0443996Y052313D03*
X0453051Y0529626D03*
X046122Y052313D03*
X0459842Y0504429D03*
X0448228D03*
X0436417D03*
X0413998Y0505563D03*
X0418198Y0513763D03*
X0422441Y0523327D03*
X0433071Y0482283D03*
X0442913Y0472441D03*
X0462598D03*
X0452756Y0482283D03*
X0364567Y0491732D03*
X0361991Y0474665D03*
X0364567Y0468898D03*
X0343602Y0469882D03*
X0346891Y0478665D03*
X0344091Y0488065D03*
X0335728Y0501673D03*
X0335096Y0507561D03*
X0327891Y0513665D03*
X0327991Y0519565D03*
X0320191Y0517065D03*
Y0527365D03*
X032668Y0538846D03*
X0333491Y0544265D03*
X0344291Y0540565D03*
X0341339Y0524902D03*
X0356201Y0525295D03*
X0354433Y0519591D03*
X0364591Y0523965D03*
X0364469Y0535532D03*
X0373228Y0532972D03*
X0377791Y0545865D03*
X0360891Y0544839D03*
X0356191Y0557465D03*
X0373524Y0568209D03*
X0347491Y0580165D03*
X0332891Y0572665D03*
X0318791Y0566865D03*
X0312991Y0571665D03*
X0322391Y0554565D03*
X0315091Y0544865D03*
X0319891Y0504165D03*
X0348425Y050935D03*
X0301891Y0520865D03*
Y0532565D03*
X0293091Y0544165D03*
X0279191Y0552565D03*
X0274191Y0555965D03*
X0273091Y0546565D03*
X0272191Y0537965D03*
X0265391Y0540465D03*
X0263791Y0530765D03*
X0263491Y0519565D03*
X0268791Y0503465D03*
X0250791Y0504865D03*
X0231491Y0503365D03*
X0235591Y0514365D03*
X0222891Y0514065D03*
X0225491Y0519665D03*
X0215665Y0524213D03*
X0208465Y0535138D03*
X0221591Y0536565D03*
X0229491Y0538365D03*
X0230472Y0558178D03*
X0224791Y0554665D03*
X0220891Y0563065D03*
X0210091Y0562965D03*
X0227791Y0570865D03*
X0242249Y0567965D03*
X0256891Y0562065D03*
X0252491Y0555065D03*
X0248891Y0550365D03*
X0242391Y0547365D03*
X0256691Y0547665D03*
X0261591Y0554765D03*
X0269291Y0562465D03*
X0263391Y0574065D03*
X0272991Y0579565D03*
X0300991Y0567465D03*
X0254091Y0536065D03*
X0252391Y0473665D03*
X0232291Y0471365D03*
X0235991Y0483765D03*
X0219691Y0485465D03*
X0212191Y0477965D03*
X0202091Y0487565D03*
X0190891Y0491065D03*
X0189191Y0477065D03*
X0199391Y0470365D03*
X0198691Y0499965D03*
X0208691Y0503065D03*
X0201476Y051565D03*
X0193799Y0515945D03*
X0195191Y0529865D03*
X0182091Y0527965D03*
X0180391Y0539065D03*
X0175491Y0534665D03*
X0169891Y0530065D03*
X0170591Y0548165D03*
X0158071Y0543799D03*
X0157776Y0520472D03*
X0157382Y0497638D03*
X0167126Y0494095D03*
X0171544Y0500787D03*
X0169407Y0472665D03*
X0156891Y0474265D03*
X0156988Y0569291D03*
X0173891Y0569265D03*
X0184191Y0568065D03*
X0182991Y0575565D03*
X0191691Y0577165D03*
X0165791Y0579665D03*
G54D9501*
X024249Y0489814D03*
Y0509027D03*
G54D9502*
X0519272Y0284744D03*
Y0294744D03*
X0529272D03*
Y0284744D03*
X0539272D03*
Y0294744D03*
X0549272D03*
Y0284744D03*
X0559272D03*
Y0294744D03*
X0307891Y0386065D03*
X0297891D03*
X0287891D03*
X0277891D03*
X0267891D03*
Y0406065D03*
X0277891D03*
X0287891D03*
X0297891D03*
X0307891D03*
Y0417165D03*
X0297891D03*
X0287891D03*
X0277891D03*
X0267891D03*
Y0437165D03*
X0277891D03*
X0287891D03*
X0297891D03*
X0307891D03*
Y0448265D03*
X0297891D03*
X0287891D03*
X0277891D03*
X0267891D03*
Y0468265D03*
X0277891D03*
X0287891D03*
X0297891D03*
X0307891D03*
X0356891Y0376565D03*
Y0366565D03*
Y0356565D03*
Y0346565D03*
Y0336565D03*
X0366891D03*
Y0346565D03*
Y0356565D03*
Y0366565D03*
Y0376565D03*
X0517851Y0461417D03*
Y0469291D03*
X0503498Y0532063D03*
Y0542063D03*
Y0552063D03*
Y0562063D03*
Y0572063D03*
X0421798Y0572463D03*
Y0562463D03*
Y0552463D03*
Y0542463D03*
Y0532463D03*
X0240191Y0577165D03*
X0230191D03*
X0220191D03*
X0210191D03*
X0200191D03*
X0169102Y0517785D03*
X0187197Y049969D03*
G54D9503*
X0208033Y036087D03*
X022575D03*
Y0386461D03*
X0208033D03*
Y041437D03*
X022575D03*
Y0439961D03*
X0208033D03*
Y046787D03*
X022575D03*
Y0493461D03*
X0208033D03*
G54D9504*
X042276Y0387435D03*
X040884Y0401354D03*
X0479331Y0349803D03*
X0499016D03*
X0518602Y0358268D03*
X0538287D03*
X054065Y0392027D03*
X0560335D03*
G54D9505*
X0471Y0287094D03*
X0481D03*
X0476Y0297094D03*
X0486D03*
X0586063Y0285138D03*
X0596063D03*
X0606063D03*
X0461Y0287094D03*
X0466Y0297094D03*
G54D9506*
X0625591Y0281496D03*
X0642126D03*
Y030315D03*
X0625591D03*
X0275118Y0303633D03*
Y0287098D03*
X0253465D03*
Y0303633D03*
X0405673Y0344727D03*
Y0361262D03*
X0427327D03*
Y0344727D03*
X0626968Y0595472D03*
X0648622D03*
X0598425D03*
X0576772D03*
G54D9507*
X0644488Y0501D03*
Y0575173D03*
X0620866Y0575272D03*
X0597244Y0575083D03*
X0573622D03*
X0549902Y0582555D03*
Y0508382D03*
X0573622Y0500909D03*
X0597244D03*
X0620866Y0501098D03*
G54D9508*
X0677165Y0507146D03*
Y0539114D03*
G54D9509*
X0140945Y0410827D03*
Y0443504D03*
G54D9510*
X0677165Y0480531D03*
Y0565728D03*
G54D9511*
X04535Y0322094D03*
X04935D03*
G54D9512*
X0194291Y0302665D03*
X0369291Y0427165D03*
X0194291Y0551665D03*
G54D9513*
X0675197Y0287402D03*
X0411417D03*
X0675197Y059252D03*
X0411417Y0470472D03*
M02*