%FSTAX26Y26*%
%MOIN*%
%SFA1B1*%

%IPPOS*%
%AMD11*
4,1,8,-0.040200,-0.035400,0.040200,-0.035400,0.047200,-0.028300,0.047200,0.028300,0.040200,0.035400,-0.040200,0.035400,-0.047200,0.028300,-0.047200,-0.028300,-0.040200,-0.035400,0.0*
1,1,0.014180,-0.040200,-0.028300*
1,1,0.014180,0.040200,-0.028300*
1,1,0.014180,0.040200,0.028300*
1,1,0.014180,-0.040200,0.028300*
%
%AMD12*
4,1,8,0.025600,-0.021800,0.025600,0.021800,0.017900,0.029500,-0.017900,0.029500,-0.025600,0.021800,-0.025600,-0.021800,-0.017900,-0.029500,0.017900,-0.029500,0.025600,-0.021800,0.0*
1,1,0.015360,0.017900,-0.021800*
1,1,0.015360,0.017900,0.021800*
1,1,0.015360,-0.017900,0.021800*
1,1,0.015360,-0.017900,-0.021800*
%
%AMD13*
4,1,8,0.026100,0.024600,-0.026100,0.024600,-0.033500,0.017200,-0.033500,-0.017200,-0.026100,-0.024600,0.026100,-0.024600,0.033500,-0.017200,0.033500,0.017200,0.026100,0.024600,0.0*
1,1,0.014760,0.026100,0.017200*
1,1,0.014760,-0.026100,0.017200*
1,1,0.014760,-0.026100,-0.017200*
1,1,0.014760,0.026100,-0.017200*
%
%AMD14*
4,1,8,0.025600,-0.008300,0.025600,0.008300,0.022000,0.011800,-0.022000,0.011800,-0.025600,0.008300,-0.025600,-0.008300,-0.022000,-0.011800,0.022000,-0.011800,0.025600,-0.008300,0.0*
1,1,0.007080,0.022000,-0.008300*
1,1,0.007080,0.022000,0.008300*
1,1,0.007080,-0.022000,0.008300*
1,1,0.007080,-0.022000,-0.008300*
%
%AMD15*
4,1,8,0.025600,-0.027800,0.025600,0.027800,0.017900,0.035400,-0.017900,0.035400,-0.025600,0.027800,-0.025600,-0.027800,-0.017900,-0.035400,0.017900,-0.035400,0.025600,-0.027800,0.0*
1,1,0.015360,0.017900,-0.027800*
1,1,0.015360,0.017900,0.027800*
1,1,0.015360,-0.017900,0.027800*
1,1,0.015360,-0.017900,-0.027800*
%
%AMD16*
4,1,8,0.021800,0.025600,-0.021800,0.025600,-0.029500,0.017900,-0.029500,-0.017900,-0.021800,-0.025600,0.021800,-0.025600,0.029500,-0.017900,0.029500,0.017900,0.021800,0.025600,0.0*
1,1,0.015360,0.021800,0.017900*
1,1,0.015360,-0.021800,0.017900*
1,1,0.015360,-0.021800,-0.017900*
1,1,0.015360,0.021800,-0.017900*
%
%AMD17*
4,1,8,0.045300,-0.036200,0.045300,0.036200,0.036200,0.045300,-0.036200,0.045300,-0.045300,0.036200,-0.045300,-0.036200,-0.036200,-0.045300,0.036200,-0.045300,0.045300,-0.036200,0.0*
1,1,0.018120,0.036200,-0.036200*
1,1,0.018120,0.036200,0.036200*
1,1,0.018120,-0.036200,0.036200*
1,1,0.018120,-0.036200,-0.036200*
%
%AMD18*
4,1,8,-0.024600,0.026100,-0.024600,-0.026100,-0.017200,-0.033500,0.017200,-0.033500,0.024600,-0.026100,0.024600,0.026100,0.017200,0.033500,-0.017200,0.033500,-0.024600,0.026100,0.0*
1,1,0.014760,-0.017200,0.026100*
1,1,0.014760,-0.017200,-0.026100*
1,1,0.014760,0.017200,-0.026100*
1,1,0.014760,0.017200,0.026100*
%
%AMD20*
4,1,8,0.020800,0.029100,-0.020800,0.029100,-0.029500,0.020400,-0.029500,-0.020400,-0.020800,-0.029100,0.020800,-0.029100,0.029500,-0.020400,0.029500,0.020400,0.020800,0.029100,0.0*
1,1,0.017480,0.020800,0.020400*
1,1,0.017480,-0.020800,0.020400*
1,1,0.017480,-0.020800,-0.020400*
1,1,0.017480,0.020800,-0.020400*
%
%AMD21*
4,1,8,0.013800,0.045000,-0.013800,0.045000,-0.019700,0.039100,-0.019700,-0.039100,-0.013800,-0.045000,0.013800,-0.045000,0.019700,-0.039100,0.019700,0.039100,0.013800,0.045000,0.0*
1,1,0.011820,0.013800,0.039100*
1,1,0.011820,-0.013800,0.039100*
1,1,0.011820,-0.013800,-0.039100*
1,1,0.011820,0.013800,-0.039100*
%
%AMD22*
4,1,8,0.104700,0.147600,-0.104700,0.147600,-0.110200,0.142100,-0.110200,-0.142100,-0.104700,-0.147600,0.104700,-0.147600,0.110200,-0.142100,0.110200,0.142100,0.104700,0.147600,0.0*
1,1,0.011020,0.104700,0.142100*
1,1,0.011020,-0.104700,0.142100*
1,1,0.011020,-0.104700,-0.142100*
1,1,0.011020,0.104700,-0.142100*
%
%AMD23*
4,1,8,0.008300,0.025600,-0.008300,0.025600,-0.011800,0.022000,-0.011800,-0.022000,-0.008300,-0.025600,0.008300,-0.025600,0.011800,-0.022000,0.011800,0.022000,0.008300,0.025600,0.0*
1,1,0.007080,0.008300,0.022000*
1,1,0.007080,-0.008300,0.022000*
1,1,0.007080,-0.008300,-0.022000*
1,1,0.007080,0.008300,-0.022000*
%
%AMD24*
4,1,8,-0.145700,0.102900,-0.145700,-0.102900,-0.140300,-0.108300,0.140300,-0.108300,0.145700,-0.102900,0.145700,0.102900,0.140300,0.108300,-0.140300,0.108300,-0.145700,0.102900,0.0*
1,1,0.010820,-0.140300,0.102900*
1,1,0.010820,-0.140300,-0.102900*
1,1,0.010820,0.140300,-0.102900*
1,1,0.010820,0.140300,0.102900*
%
%AMD25*
4,1,8,-0.037400,0.015000,-0.037400,-0.015000,-0.033700,-0.018700,0.033700,-0.018700,0.037400,-0.015000,0.037400,0.015000,0.033700,0.018700,-0.033700,0.018700,-0.037400,0.015000,0.0*
1,1,0.007480,-0.033700,0.015000*
1,1,0.007480,-0.033700,-0.015000*
1,1,0.007480,0.033700,-0.015000*
1,1,0.007480,0.033700,0.015000*
%
%AMD26*
4,1,8,0.067500,-0.103500,0.067500,0.103500,0.060700,0.110200,-0.060700,0.110200,-0.067500,0.103500,-0.067500,-0.103500,-0.060700,-0.110200,0.060700,-0.110200,0.067500,-0.103500,0.0*
1,1,0.013500,0.060700,-0.103500*
1,1,0.013500,0.060700,0.103500*
1,1,0.013500,-0.060700,0.103500*
1,1,0.013500,-0.060700,-0.103500*
%
%AMD27*
4,1,8,-0.035400,0.040200,-0.035400,-0.040200,-0.028300,-0.047200,0.028300,-0.047200,0.035400,-0.040200,0.035400,0.040200,0.028300,0.047200,-0.028300,0.047200,-0.035400,0.040200,0.0*
1,1,0.014180,-0.028300,0.040200*
1,1,0.014180,-0.028300,-0.040200*
1,1,0.014180,0.028300,-0.040200*
1,1,0.014180,0.028300,0.040200*
%
%AMD28*
4,1,8,0.027800,0.025600,-0.027800,0.025600,-0.035400,0.017900,-0.035400,-0.017900,-0.027800,-0.025600,0.027800,-0.025600,0.035400,-0.017900,0.035400,0.017900,0.027800,0.025600,0.0*
1,1,0.015360,0.027800,0.017900*
1,1,0.015360,-0.027800,0.017900*
1,1,0.015360,-0.027800,-0.017900*
1,1,0.015360,0.027800,-0.017900*
%
%AMD29*
4,1,8,0.052000,0.060000,-0.052000,0.060000,-0.064000,0.048000,-0.064000,-0.048000,-0.052000,-0.060000,0.052000,-0.060000,0.064000,-0.048000,0.064000,0.048000,0.052000,0.060000,0.0*
1,1,0.024000,0.052000,0.048000*
1,1,0.024000,-0.052000,0.048000*
1,1,0.024000,-0.052000,-0.048000*
1,1,0.024000,0.052000,-0.048000*
%
%AMD30*
4,1,8,-0.018700,-0.065000,0.018700,-0.065000,0.037400,-0.046300,0.037400,0.046300,0.018700,0.065000,-0.018700,0.065000,-0.037400,0.046300,-0.037400,-0.046300,-0.018700,-0.065000,0.0*
1,1,0.037400,-0.018700,-0.046300*
1,1,0.037400,0.018700,-0.046300*
1,1,0.037400,0.018700,0.046300*
1,1,0.037400,-0.018700,0.046300*
%
%AMD31*
4,1,8,-0.006900,-0.040400,0.006900,-0.040400,0.013800,-0.033500,0.013800,0.033500,0.006900,0.040400,-0.006900,0.040400,-0.013800,0.033500,-0.013800,-0.033500,-0.006900,-0.040400,0.0*
1,1,0.013780,-0.006900,-0.033500*
1,1,0.013780,0.006900,-0.033500*
1,1,0.013780,0.006900,0.033500*
1,1,0.013780,-0.006900,0.033500*
%
%AMD32*
4,1,8,-0.006900,-0.026600,0.006900,-0.026600,0.013800,-0.019700,0.013800,0.019700,0.006900,0.026600,-0.006900,0.026600,-0.013800,0.019700,-0.013800,-0.019700,-0.006900,-0.026600,0.0*
1,1,0.013780,-0.006900,-0.019700*
1,1,0.013780,0.006900,-0.019700*
1,1,0.013780,0.006900,0.019700*
1,1,0.013780,-0.006900,0.019700*
%
%AMD33*
4,1,8,-0.142000,-0.084100,0.142000,-0.084100,0.150400,-0.075600,0.150400,0.075600,0.142000,0.084100,-0.142000,0.084100,-0.150400,0.075600,-0.150400,-0.075600,-0.142000,-0.084100,0.0*
1,1,0.016820,-0.142000,-0.075600*
1,1,0.016820,0.142000,-0.075600*
1,1,0.016820,0.142000,0.075600*
1,1,0.016820,-0.142000,0.075600*
%
%AMD34*
4,1,8,-0.029400,-0.084100,0.029400,-0.084100,0.032700,-0.080800,0.032700,0.080800,0.029400,0.084100,-0.029400,0.084100,-0.032700,0.080800,-0.032700,-0.080800,-0.029400,-0.084100,0.0*
1,1,0.006540,-0.029400,-0.080800*
1,1,0.006540,0.029400,-0.080800*
1,1,0.006540,0.029400,0.080800*
1,1,0.006540,-0.029400,0.080800*
%
%AMD36*
4,1,8,-0.037400,0.008300,-0.037400,-0.008300,-0.033900,-0.011800,0.033900,-0.011800,0.037400,-0.008300,0.037400,0.008300,0.033900,0.011800,-0.033900,0.011800,-0.037400,0.008300,0.0*
1,1,0.007080,-0.033900,0.008300*
1,1,0.007080,-0.033900,-0.008300*
1,1,0.007080,0.033900,-0.008300*
1,1,0.007080,0.033900,0.008300*
%
%AMD38*
4,1,8,-0.021700,0.010200,-0.021700,-0.010200,-0.019100,-0.012800,0.019100,-0.012800,0.021700,-0.010200,0.021700,0.010200,0.019100,0.012800,-0.019100,0.012800,-0.021700,0.010200,0.0*
1,1,0.005120,-0.019100,0.010200*
1,1,0.005120,-0.019100,-0.010200*
1,1,0.005120,0.019100,-0.010200*
1,1,0.005120,0.019100,0.010200*
%
%AMD39*
4,1,8,0.012600,0.017100,-0.012600,0.017100,-0.017700,0.012000,-0.017700,-0.012000,-0.012600,-0.017100,0.012600,-0.017100,0.017700,-0.012000,0.017700,0.012000,0.012600,0.017100,0.0*
1,1,0.010280,0.012600,0.012000*
1,1,0.010280,-0.012600,0.012000*
1,1,0.010280,-0.012600,-0.012000*
1,1,0.010280,0.012600,-0.012000*
%
%AMD40*
4,1,8,0.016100,0.009000,-0.016100,0.009000,-0.017000,0.008100,-0.017000,-0.008100,-0.016100,-0.009000,0.016100,-0.009000,0.017000,-0.008100,0.017000,0.008100,0.016100,0.009000,0.0*
1,1,0.001800,0.016100,0.008100*
1,1,0.001800,-0.016100,0.008100*
1,1,0.001800,-0.016100,-0.008100*
1,1,0.001800,0.016100,-0.008100*
%
%AMD41*
4,1,8,0.056300,0.035400,-0.056300,0.035400,-0.066900,0.024800,-0.066900,-0.024800,-0.056300,-0.035400,0.056300,-0.035400,0.066900,-0.024800,0.066900,0.024800,0.056300,0.035400,0.0*
1,1,0.021260,0.056300,0.024800*
1,1,0.021260,-0.056300,0.024800*
1,1,0.021260,-0.056300,-0.024800*
1,1,0.021260,0.056300,-0.024800*
%
%AMD43*
4,1,8,0.017100,-0.012600,0.017100,0.012600,0.012000,0.017700,-0.012000,0.017700,-0.017100,0.012600,-0.017100,-0.012600,-0.012000,-0.017700,0.012000,-0.017700,0.017100,-0.012600,0.0*
1,1,0.010280,0.012000,-0.012600*
1,1,0.010280,0.012000,0.012600*
1,1,0.010280,-0.012000,0.012600*
1,1,0.010280,-0.012000,-0.012600*
%
%AMD45*
4,1,8,-0.048400,-0.053100,0.048400,-0.053100,0.059100,-0.042500,0.059100,0.042500,0.048400,0.053100,-0.048400,0.053100,-0.059100,0.042500,-0.059100,-0.042500,-0.048400,-0.053100,0.0*
1,1,0.021260,-0.048400,-0.042500*
1,1,0.021260,0.048400,-0.042500*
1,1,0.021260,0.048400,0.042500*
1,1,0.021260,-0.048400,0.042500*
%
%AMD46*
4,1,8,0.002700,-0.033500,0.033500,-0.002700,0.033500,0.008200,0.008200,0.033500,-0.002700,0.033500,-0.033500,0.002700,-0.033500,-0.008200,-0.008200,-0.033500,0.002700,-0.033500,0.0*
1,1,0.015360,-0.002800,-0.028100*
1,1,0.015360,0.028100,0.002800*
1,1,0.015360,0.002800,0.028100*
1,1,0.015360,-0.028100,-0.002800*
%
%AMD47*
4,1,8,-0.008300,-0.037400,0.008300,-0.037400,0.011800,-0.033900,0.011800,0.033900,0.008300,0.037400,-0.008300,0.037400,-0.011800,0.033900,-0.011800,-0.033900,-0.008300,-0.037400,0.0*
1,1,0.007080,-0.008300,-0.033900*
1,1,0.007080,0.008300,-0.033900*
1,1,0.007080,0.008300,0.033900*
1,1,0.007080,-0.008300,0.033900*
%
%AMD50*
4,1,8,-0.031500,-0.039400,0.031500,-0.039400,0.039400,-0.031500,0.039400,0.031500,0.031500,0.039400,-0.031500,0.039400,-0.039400,0.031500,-0.039400,-0.031500,-0.031500,-0.039400,0.0*
1,1,0.015740,-0.031500,-0.031500*
1,1,0.015740,0.031500,-0.031500*
1,1,0.015740,0.031500,0.031500*
1,1,0.015740,-0.031500,0.031500*
%
%AMD51*
4,1,8,-0.020500,-0.039400,0.020500,-0.039400,0.025600,-0.034200,0.025600,0.034200,0.020500,0.039400,-0.020500,0.039400,-0.025600,0.034200,-0.025600,-0.034200,-0.020500,-0.039400,0.0*
1,1,0.010240,-0.020500,-0.034200*
1,1,0.010240,0.020500,-0.034200*
1,1,0.010240,0.020500,0.034200*
1,1,0.010240,-0.020500,0.034200*
%
%AMD53*
4,1,4,0.017000,-0.025000,0.025000,-0.017000,-0.017000,0.025000,-0.025000,0.017000,0.017000,-0.025000,0.0*
1,1,0.011420,0.021000,-0.021000*
1,1,0.011420,-0.021000,0.021000*
%
%AMD54*
4,1,4,0.025000,0.017000,0.017000,0.025000,-0.025000,-0.017000,-0.017000,-0.025000,0.025000,0.017000,0.0*
1,1,0.011420,0.021000,0.021000*
1,1,0.011420,-0.021000,-0.021000*
%
%AMD55*
4,1,8,-0.021000,-0.003200,-0.003200,-0.021000,0.004000,-0.021000,0.021000,-0.004000,0.021000,0.003200,0.003200,0.021000,-0.004000,0.021000,-0.021000,0.004000,-0.021000,-0.003200,0.0*
1,1,0.010280,-0.017400,0.000400*
1,1,0.010280,0.000400,-0.017400*
1,1,0.010280,0.017400,-0.000400*
1,1,0.010280,-0.000400,0.017400*
%
%ADD10C,0.008000*%
G04~CAMADD=11~8~0.0~0.0~944.9~708.7~70.9~0.0~15~0.0~0.0~0.0~0.0~0~0.0~0.0~0.0~0.0~0~0.0~0.0~0.0~180.0~944.0~708.0*
%ADD11D11*%
G04~CAMADD=12~8~0.0~0.0~590.6~511.8~76.8~0.0~15~0.0~0.0~0.0~0.0~0~0.0~0.0~0.0~0.0~0~0.0~0.0~0.0~270.0~512.0~590.0*
%ADD12D12*%
G04~CAMADD=13~8~0.0~0.0~669.3~492.1~73.8~0.0~15~0.0~0.0~0.0~0.0~0~0.0~0.0~0.0~0.0~0~0.0~0.0~0.0~0.0~669.3~492.1*
%ADD13D13*%
G04~CAMADD=14~8~0.0~0.0~236.2~511.8~35.4~0.0~15~0.0~0.0~0.0~0.0~0~0.0~0.0~0.0~0.0~0~0.0~0.0~0.0~270.0~512.0~236.0*
%ADD14D14*%
G04~CAMADD=15~8~0.0~0.0~708.7~511.8~76.8~0.0~15~0.0~0.0~0.0~0.0~0~0.0~0.0~0.0~0.0~0~0.0~0.0~0.0~270.0~512.0~708.0*
%ADD15D15*%
G04~CAMADD=16~8~0.0~0.0~590.6~511.8~76.8~0.0~15~0.0~0.0~0.0~0.0~0~0.0~0.0~0.0~0.0~0~0.0~0.0~0.0~0.0~590.6~511.8*
%ADD16D16*%
G04~CAMADD=17~8~0.0~0.0~905.5~905.5~90.6~0.0~15~0.0~0.0~0.0~0.0~0~0.0~0.0~0.0~0.0~0~0.0~0.0~0.0~270.0~906.0~906.0*
%ADD17D17*%
G04~CAMADD=18~8~0.0~0.0~669.3~492.1~73.8~0.0~15~0.0~0.0~0.0~0.0~0~0.0~0.0~0.0~0.0~0~0.0~0.0~0.0~90.0~492.0~670.0*
%ADD18D18*%
%ADD19O,0.074800X0.023620*%
G04~CAMADD=20~8~0.0~0.0~590.6~582.7~87.4~0.0~15~0.0~0.0~0.0~0.0~0~0.0~0.0~0.0~0.0~0~0.0~0.0~0.0~0.0~590.6~582.7*
%ADD20D20*%
G04~CAMADD=21~8~0.0~0.0~393.7~900.0~59.1~0.0~15~0.0~0.0~0.0~0.0~0~0.0~0.0~0.0~0.0~0~0.0~0.0~0.0~0.0~393.7~900.0*
%ADD21D21*%
G04~CAMADD=22~8~0.0~0.0~2204.7~2952.8~55.1~0.0~15~0.0~0.0~0.0~0.0~0~0.0~0.0~0.0~0.0~0~0.0~0.0~0.0~0.0~2204.7~2952.8*
%ADD22D22*%
G04~CAMADD=23~8~0.0~0.0~236.2~511.8~35.4~0.0~15~0.0~0.0~0.0~0.0~0~0.0~0.0~0.0~0.0~0~0.0~0.0~0.0~0.0~236.2~511.8*
%ADD23D23*%
G04~CAMADD=24~8~0.0~0.0~2165.4~2913.4~54.1~0.0~15~0.0~0.0~0.0~0.0~0~0.0~0.0~0.0~0.0~0~0.0~0.0~0.0~90.0~2914.0~2166.0*
%ADD24D24*%
G04~CAMADD=25~8~0.0~0.0~374.0~748.0~37.4~0.0~15~0.0~0.0~0.0~0.0~0~0.0~0.0~0.0~0.0~0~0.0~0.0~0.0~90.0~748.0~374.0*
%ADD25D25*%
G04~CAMADD=26~8~0.0~0.0~2204.7~1350.0~67.5~0.0~15~0.0~0.0~0.0~0.0~0~0.0~0.0~0.0~0.0~0~0.0~0.0~0.0~270.0~1350.0~2204.0*
%ADD26D26*%
G04~CAMADD=27~8~0.0~0.0~944.9~708.7~70.9~0.0~15~0.0~0.0~0.0~0.0~0~0.0~0.0~0.0~0.0~0~0.0~0.0~0.0~90.0~708.0~944.0*
%ADD27D27*%
G04~CAMADD=28~8~0.0~0.0~708.7~511.8~76.8~0.0~15~0.0~0.0~0.0~0.0~0~0.0~0.0~0.0~0.0~0~0.0~0.0~0.0~0.0~708.7~511.8*
%ADD28D28*%
G04~CAMADD=29~8~0.0~0.0~1279.5~1200.0~120.0~0.0~15~0.0~0.0~0.0~0.0~0~0.0~0.0~0.0~0.0~0~0.0~0.0~0.0~0.0~1279.5~1200.0*
%ADD29D29*%
G04~CAMADD=30~8~0.0~0.0~748.0~1299.2~187.0~0.0~15~0.0~0.0~0.0~0.0~0~0.0~0.0~0.0~0.0~0~0.0~0.0~0.0~180.0~749.0~1300.0*
%ADD30D30*%
G04~CAMADD=31~8~0.0~0.0~275.6~808.7~68.9~0.0~15~0.0~0.0~0.0~0.0~0~0.0~0.0~0.0~0.0~0~0.0~0.0~0.0~180.0~276.0~809.0*
%ADD31D31*%
G04~CAMADD=32~8~0.0~0.0~275.6~531.5~68.9~0.0~15~0.0~0.0~0.0~0.0~0~0.0~0.0~0.0~0.0~0~0.0~0.0~0.0~180.0~276.0~532.0*
%ADD32D32*%
G04~CAMADD=33~8~0.0~0.0~3007.9~1681.1~84.1~0.0~15~0.0~0.0~0.0~0.0~0~0.0~0.0~0.0~0.0~0~0.0~0.0~0.0~180.0~3008.0~1681.0*
%ADD33D33*%
G04~CAMADD=34~8~0.0~0.0~653.5~1681.1~32.7~0.0~15~0.0~0.0~0.0~0.0~0~0.0~0.0~0.0~0.0~0~0.0~0.0~0.0~180.0~654.0~1682.0*
%ADD34D34*%
%ADD35O,0.023620X0.086610*%
G04~CAMADD=36~8~0.0~0.0~236.2~748.0~35.4~0.0~15~0.0~0.0~0.0~0.0~0~0.0~0.0~0.0~0.0~0~0.0~0.0~0.0~90.0~748.0~236.0*
%ADD36D36*%
%ADD37R,0.035430X0.098430*%
G04~CAMADD=38~8~0.0~0.0~255.9~433.1~25.6~0.0~15~0.0~0.0~0.0~0.0~0~0.0~0.0~0.0~0.0~0~0.0~0.0~0.0~90.0~434.0~256.0*
%ADD38D38*%
G04~CAMADD=39~8~0.0~0.0~354.3~342.5~51.4~0.0~15~0.0~0.0~0.0~0.0~0~0.0~0.0~0.0~0.0~0~0.0~0.0~0.0~0.0~354.3~342.5*
%ADD39D39*%
G04~CAMADD=40~8~0.0~0.0~340.0~180.0~9.0~0.0~15~0.0~0.0~0.0~0.0~0~0.0~0.0~0.0~0.0~0~0.0~0.0~0.0~0.0~340.0~180.0*
%ADD40D40*%
G04~CAMADD=41~8~0.0~0.0~1338.6~708.7~106.3~0.0~15~0.0~0.0~0.0~0.0~0~0.0~0.0~0.0~0.0~0~0.0~0.0~0.0~0.0~1338.6~708.7*
%ADD41D41*%
%ADD42O,0.023620X0.078740*%
G04~CAMADD=43~8~0.0~0.0~354.3~342.5~51.4~0.0~15~0.0~0.0~0.0~0.0~0~0.0~0.0~0.0~0.0~0~0.0~0.0~0.0~270.0~343.0~354.0*
%ADD43D43*%
%ADD44O,0.066930X0.016000*%
G04~CAMADD=45~8~0.0~0.0~1181.1~1063.0~106.3~0.0~15~0.0~0.0~0.0~0.0~0~0.0~0.0~0.0~0.0~0~0.0~0.0~0.0~180.0~1182.0~1063.0*
%ADD45D45*%
G04~CAMADD=46~8~0.0~0.0~590.6~511.8~76.8~0.0~15~0.0~0.0~0.0~0.0~0~0.0~0.0~0.0~0.0~0~0.0~0.0~0.0~225.0~717.0~715.0*
%ADD46D46*%
G04~CAMADD=47~8~0.0~0.0~236.2~748.0~35.4~0.0~15~0.0~0.0~0.0~0.0~0~0.0~0.0~0.0~0.0~0~0.0~0.0~0.0~180.0~236.0~748.0*
%ADD47D47*%
%ADD48O,0.023620X0.074800*%
%ADD49O,0.066930X0.013780*%
G04~CAMADD=50~8~0.0~0.0~787.4~787.4~78.7~0.0~15~0.0~0.0~0.0~0.0~0~0.0~0.0~0.0~0.0~0~0.0~0.0~0.0~180.0~788.0~788.0*
%ADD50D50*%
G04~CAMADD=51~8~0.0~0.0~511.8~787.4~51.2~0.0~15~0.0~0.0~0.0~0.0~0~0.0~0.0~0.0~0.0~0~0.0~0.0~0.0~180.0~512.0~788.0*
%ADD51D51*%
%ADD52O,0.013780X0.066930*%
G04~CAMADD=53~3~0.0~0.0~114.2~708.7~0.0~0.0~0~0.0~0.0~0.0~0.0~0~0.0~0.0~0.0~0.0~0~0.0~0.0~0.0~225.0~534.0~534.0*
%ADD53D53*%
G04~CAMADD=54~3~0.0~0.0~114.2~708.7~0.0~0.0~0~0.0~0.0~0.0~0.0~0~0.0~0.0~0.0~0.0~0~0.0~0.0~0.0~315.0~534.0~534.0*
%ADD54D54*%
G04~CAMADD=55~8~0.0~0.0~354.3~342.5~51.4~0.0~15~0.0~0.0~0.0~0.0~0~0.0~0.0~0.0~0.0~0~0.0~0.0~0.0~135.0~450.0~450.0*
%ADD55D55*%
%LNunisolder52_full-1*%
%LPD*%
G36*
X048006Y0570207D02*
Y0569321D01*
X0476812Y0566073*
X0473859*
Y0569813*
X0475139*
X0476516Y0571191*
X048006Y0570207*
G37*
G36*
X0467658Y0569813D02*
X0468938D01*
Y0566073*
X0465985*
X0462737Y0569321*
Y0570207*
X046628Y0571191*
X0467658Y0569813*
G37*
G36*
X048006Y0580148D02*
Y0579262D01*
X0476516Y0578278*
X0475139Y0579656*
X0473859*
Y0583396*
X0476812*
X048006Y0580148*
G37*
G36*
X0468938Y0579656D02*
X0467658D01*
X046628Y0578278*
X0462737Y0579262*
Y0580148*
X0465985Y0583396*
X0468938*
Y0579656*
G37*
G54D10*
X040353Y0488176D02*
X041779D01*
X039369Y0478336D02*
X040353Y0488176D01*
X039369Y0465376D02*
Y0478336D01*
X015187Y0584646D02*
X015935D01*
X015187Y0577067D02*
Y0584646D01*
Y0269685D02*
X0159449D01*
X015187D02*
Y0277165D01*
X038189Y0269685D02*
Y0277264D01*
X037441Y0269685D02*
X038189D01*
X0374311Y0584646D02*
X038189D01*
Y0577165D02*
Y0584646D01*
X0393714Y0279514D02*
Y0293774D01*
Y0279514D02*
X0403554Y0269674D01*
X0416514*
X0692911Y0279525D02*
Y0292485D01*
X0683071Y0269685D02*
X0692911Y0279525D01*
X0668811Y0269685D02*
X0683071D01*
X0670113Y0610234D02*
X0683073D01*
X0692913Y0600394*
Y0586134D02*
Y0600394D01*
X0531498Y0587436D02*
Y0600396D01*
X0541338Y0610236*
X0555598*
X0405512Y0574803D02*
Y0579528D01*
X0413386Y0587402*
X0417815*
X0519685Y0575098D02*
Y0579528D01*
X0511811Y0587402D02*
X0519685Y0579528D01*
X0507087Y0587402D02*
X0511811D01*
X0507382Y05D02*
X0511811D01*
X0519685Y0507874*
Y0512598*
X0405512Y0507874D02*
Y0512303D01*
Y0507874D02*
X0413386Y05D01*
X041811*
X0531496Y0494095D02*
Y0510991D01*
X0525604Y0488202D02*
X0531507Y0494105D01*
X0507407Y0488202D02*
X0525604D01*
G54D11*
X0541535Y0418307D03*
X0557677D03*
Y0430709D03*
X0541535D03*
X0518024Y0448269D03*
X0501883D03*
X0642323Y0318898D03*
X0658465D03*
G54D12*
X0575098Y0400393D03*
X0582579D03*
X0575098Y0392618D03*
X0582579D03*
X0618799Y0401279D03*
X062628D03*
X0605118Y0480709D03*
X0597638D03*
X0449701Y0424588D03*
X0457181D03*
X0589075Y0460434D03*
X0596555D03*
X0652854Y0469488D03*
X0660335D03*
X0536811Y0440453D03*
X052933D03*
X0662321Y0328235D03*
X0654841D03*
X0589075Y0427658D03*
X0596555D03*
X060315Y0447933D03*
X0595669D03*
X0581201Y0447638D03*
X0588681D03*
X0583169Y0480315D03*
X059065D03*
X0489272Y0541634D03*
X0481791D03*
X0356988Y0502264D03*
X0364469D03*
X0335531Y0367065D03*
X0328051D03*
X0336132Y0356665D03*
X0328651D03*
X0172717Y0344765D03*
X0180197D03*
X0301331Y0356965D03*
X0293851D03*
X0294882Y0295866D03*
X0287402D03*
X0355216Y0510039D03*
X0362697D03*
X0276331Y0345702D03*
X0268851D03*
X0344181Y0494465D03*
X0336701D03*
X034626Y0531988D03*
X035374D03*
X0358581Y0494465D03*
X0351101D03*
X0349311Y0502264D03*
X0341831D03*
X0279532Y0376142D03*
X0272051D03*
X0370932Y0389665D03*
X0363451D03*
X0367225Y0328838D03*
X0359744D03*
X0300932Y0332365D03*
X0293451D03*
X020612Y0458365D03*
X02136D03*
X0208187Y0449565D03*
X0215667D03*
X021012Y0404365D03*
X02176D03*
X0217131Y0569365D03*
X0209651D03*
X0347751Y0563865D03*
X0355231D03*
X0290651Y0526665D03*
X0298131D03*
X0170353Y0358265D03*
X0177833D03*
X0357972Y0293602D03*
X0350492D03*
X0346532Y0571665D03*
X0339051D03*
X0261931Y0345702D03*
X0254451D03*
X0316632Y0316465D03*
X0309151D03*
X0318951Y0573265D03*
X0326431D03*
X0332314Y0565506D03*
X0324833D03*
X0294882Y0303642D03*
X0287402D03*
X0345276Y0450984D03*
X0337795D03*
G54D13*
X0598917Y0415453D03*
Y0401476D03*
X0590354Y0387106D03*
Y0401083D03*
X060748Y0415453D03*
Y0401476D03*
X0371027Y0574679D03*
Y0560703D03*
G54D14*
X0591141Y0406791D03*
Y0414272D03*
X0582873Y0410532D03*
X0597835Y0470571D03*
X0589567Y0466831D03*
Y0474312D03*
X0534527Y0458363D03*
Y0450883D03*
X0542795Y0454623D03*
X0597835Y0437796D03*
X0589567Y0434056D03*
Y0441536D03*
X0167252Y0477268D03*
Y0484748D03*
X0158984Y0481008D03*
X0265225Y0364825D03*
Y0372305D03*
X0256958Y0368565D03*
X0371225Y0300887D03*
Y0308368D03*
X0362958Y0304628D03*
Y0403506D03*
Y0396025D03*
X0371225Y0399765D03*
X0255254Y0460765D03*
X0246986Y0457025D03*
Y0464505D03*
X0245257Y0393305D03*
Y0385825D03*
X0253525Y0389565D03*
X0245257Y0379505D03*
Y0372025D03*
X0253525Y0375765D03*
X0213976Y0320498D03*
Y0313017D03*
X0222244Y0316757D03*
G54D15*
X0626378Y0409646D03*
X0614961D03*
X0660335Y0461122D03*
X0648917D03*
X0544685Y046496D03*
X0533268D03*
G54D16*
X047286Y0381823D03*
Y0389303D03*
X04409Y0396602D03*
Y0389121D03*
X058189Y0472934D03*
Y0465453D03*
X0531004Y0425197D03*
Y0417717D03*
X0625984Y0464174D03*
Y0471654D03*
X0618209Y0457284D03*
Y0464764D03*
X0488347Y0414116D03*
Y0406636D03*
X0596949Y0302362D03*
Y0309842D03*
X0480628Y0414116D03*
Y0406636D03*
X04325Y0431161D03*
Y042368D03*
X04247Y0431161D03*
Y042368D03*
X0545635Y0449038D03*
Y0441558D03*
X0625984Y0431398D03*
Y0438878D03*
X0618209Y0424508D03*
Y0431989D03*
X058189Y0440256D03*
Y0432776D03*
X0516928Y0333268D03*
Y0325787D03*
X0515255Y0311319D03*
Y0318799D03*
X0560335Y0318504D03*
Y0325984D03*
X0474409Y0543012D03*
Y0535531D03*
X0512697Y0545866D03*
Y0538386D03*
X0449909Y0537778D03*
Y0545258D03*
X0484998Y0576203D03*
Y0568723D03*
X0493598Y0570323D03*
Y0577803D03*
X0431109Y0535464D03*
Y0527984D03*
X0466608Y0543027D03*
Y0535546D03*
X0438909Y0535464D03*
Y0527984D03*
X0411698Y0519203D03*
Y0511723D03*
X0513798Y0519903D03*
Y0512423D03*
X0412598Y0539903D03*
Y0532423D03*
X0493799Y0563386D03*
Y0555905D03*
X0356091Y0383925D03*
Y0391406D03*
X0375491Y0359025D03*
Y0366506D03*
Y0344425D03*
Y0351905D03*
X020315Y0331988D03*
Y0339469D03*
X0185291Y0410425D03*
Y0417906D03*
X0177491Y0410425D03*
Y0417906D03*
X0292691Y0348406D03*
Y0340925D03*
X0300491D03*
Y0348406D03*
X0362108Y057217D03*
Y057965D03*
X0370491Y0321468D03*
Y0313987D03*
X0371376Y0553819D03*
Y0546338D03*
X0336091Y0327225D03*
Y0334705D03*
X0353883Y0579674D03*
Y0572193D03*
X0163791Y0550835D03*
Y0558315D03*
X0362608Y056515D03*
Y055767D03*
X0327041Y0525953D03*
Y0533433D03*
X0334841Y0526053D03*
Y0533533D03*
X0225291Y0327925D03*
Y0335405D03*
X0237841Y0327925D03*
Y0335405D03*
X0217391Y0327925D03*
Y0335405D03*
X024574Y0327925D03*
Y0335405D03*
X0312291Y0565406D03*
Y0557925D03*
X0353445Y0310827D03*
Y0303346D03*
X0332874Y0419095D03*
Y0426575D03*
X0171591Y0562605D03*
Y0555125D03*
G54D17*
X049929Y0479073D03*
Y0461357D03*
G54D18*
X0612106Y0480119D03*
X0626083D03*
X0618701Y0439764D03*
X0604724D03*
X0618701Y047254D03*
X0604725D03*
X0506496Y0437402D03*
X0520472D03*
X0544426Y0473735D03*
X053045D03*
X0612894Y044754D03*
X062687D03*
X0530413Y0482283D03*
X054439D03*
G54D19*
X0439767Y0418047D03*
Y0413047D03*
Y0408047D03*
Y0403047D03*
X0458271Y0418047D03*
Y0413047D03*
Y0408047D03*
Y0403047D03*
X0600984Y0390295D03*
Y0385295D03*
Y0380295D03*
X0619488Y0395295D03*
Y0390295D03*
Y0385295D03*
Y0380295D03*
X0309039Y0337965D03*
Y0332965D03*
Y0327965D03*
Y0322965D03*
X0327543Y0337965D03*
Y0332965D03*
Y0327965D03*
Y0322965D03*
X0355393Y0472165D03*
Y0477165D03*
Y0482165D03*
Y0487165D03*
X0336889Y0472165D03*
Y0477165D03*
Y0482165D03*
X019313Y0323265D03*
Y0328265D03*
Y0333265D03*
Y0338265D03*
X0174626Y0323265D03*
Y0328265D03*
Y0333265D03*
G54D20*
X04169Y0424035D03*
Y0430806D03*
X0311891Y0484761D03*
Y0477989D03*
X0304091Y0484761D03*
Y0477989D03*
X0296351Y0484761D03*
Y0477989D03*
X0265218Y0484727D03*
Y0477955D03*
X0272991Y0484761D03*
Y0477989D03*
X0288591Y0484761D03*
Y0477989D03*
X0280791Y0484761D03*
Y0477989D03*
G54D21*
X0504626Y0427716D03*
X0513681D03*
X0522736D03*
G54D22*
X0513681Y0403805D03*
G54D23*
X0611811Y0464764D03*
X0604331D03*
X0608071Y0456496D03*
X0470012Y0334866D03*
X0462532D03*
X0466272Y0326598D03*
X0608071Y0423721D03*
X0604331Y0431989D03*
X0611811D03*
X017597Y0499687D03*
X017971Y049142D03*
X017223D03*
X023563Y0298228D03*
X024311D03*
X023937Y0306496D03*
X0221654Y0298228D03*
X0229134D03*
X0225394Y0306496D03*
X0213153Y0530905D03*
X0220633D03*
X0216893Y0539173D03*
X0359449Y0313287D03*
X0355709Y0321555D03*
X0363189D03*
X0169332Y0573599D03*
X0161851D03*
X0165591Y0565332D03*
X0226731Y0350599D03*
X0219251D03*
X0222991Y0342332D03*
X0242731Y0350599D03*
X0235251D03*
X0238991Y0342332D03*
X023535Y0312725D03*
X024283D03*
X023909Y0320993D03*
X0193597Y0353071D03*
X0186117D03*
X0189857Y0344803D03*
G54D24*
X0673228Y0438976D03*
Y0409055D03*
X0653543Y0379921D03*
Y0351279D03*
G54D25*
X0648622Y043D03*
Y0447953D03*
Y0400079D03*
Y0418032D03*
X0628937Y0388898D03*
Y0370945D03*
Y0360256D03*
Y0342303D03*
G54D26*
X0482941Y0455394D03*
X0443572D03*
G54D27*
X0469027Y0421134D03*
Y0404992D03*
X0606299Y0319193D03*
Y0303051D03*
X0454173Y0574851D03*
Y0558709D03*
G54D28*
X0464542Y0389325D03*
Y0377908D03*
X0440705Y0333986D03*
Y0322569D03*
X0458268Y0546653D03*
Y0535236D03*
G54D29*
X0453669Y0368893D03*
Y0345696D03*
G54D30*
X048725Y0379495D03*
G54D31*
X048725Y0389094D03*
G54D32*
X0493156Y039042D03*
X0481345D03*
G54D33*
X0604862Y0343209D03*
Y0367421D03*
G54D34*
X0584202Y0343209D03*
Y0367421D03*
G54D35*
X0553484Y033189D03*
X0548484D03*
X0543484D03*
X0538484D03*
X0533484D03*
X0528484D03*
X0523484D03*
X0553484Y0312992D03*
X0548484D03*
X0543484D03*
X0538484D03*
X0533484D03*
X0528484D03*
X0523484D03*
X0267491Y0494028D03*
X0272491D03*
X0277491D03*
X0282491D03*
X0287491D03*
X0292491D03*
X0297491D03*
X0302491D03*
X0267491Y0512925D03*
X0272491D03*
X0277491D03*
X0282491D03*
X0287491D03*
X0292491D03*
X0297491D03*
X0302491D03*
G54D36*
X0600984Y0395295D03*
X0336889Y0487165D03*
X0174626Y0338265D03*
G54D37*
X0478288Y0574735D03*
X0464509D03*
G54D38*
X0466674Y0560275D03*
Y0556535D03*
Y0552795D03*
X0476123D03*
Y0556535D03*
Y0560275D03*
X0342825Y0511829D03*
Y051557D03*
Y051931D03*
X0333376D03*
Y051557D03*
Y0511829D03*
G54D39*
X0237992Y0391D03*
Y0385772D03*
X0240846Y0451717D03*
Y0456945D03*
X0170823Y041888D03*
Y0413651D03*
X0160391Y0413551D03*
Y041878D03*
X0338991Y0296651D03*
Y030188D03*
X0330217Y0501717D03*
Y0506945D03*
X0362795Y0481244D03*
Y0486472D03*
X03486Y0515518D03*
Y0520746D03*
X0221692Y0541597D03*
Y0546825D03*
X0327633Y0554342D03*
Y0549114D03*
X0234547Y0357705D03*
Y0362933D03*
X0236191Y0519951D03*
Y0525179D03*
X0301391Y0291251D03*
Y029648D03*
G54D40*
X03Y0504843D03*
Y0502243D03*
X0284304Y0502165D03*
Y0504765D03*
X0279102D03*
Y0502165D03*
X0273901D03*
Y0504765D03*
X0289506D03*
Y0502165D03*
X0294707D03*
Y0504765D03*
G54D41*
X0160991Y0403165D03*
Y0379165D03*
G54D42*
X0193091Y0463269D03*
X0188091D03*
X0183091D03*
X0178091D03*
X0173091D03*
X0168091D03*
X0163091D03*
X0158091D03*
X0193091Y0426261D03*
X0188091D03*
X0183091D03*
X0178091D03*
X0173091D03*
X0168091D03*
X0163091D03*
X0158091D03*
G54D43*
X0176477Y0471965D03*
X0181705D03*
X0332606Y0342765D03*
X0327377D03*
X0240677Y0496265D03*
X0245905D03*
Y0502665D03*
X0240677D03*
X0176443Y047968D03*
X0181671D03*
X0203188Y0528821D03*
X0208417D03*
X0200732Y0345669D03*
X0205961D03*
X0290905Y0568165D03*
X0285677D03*
X0291177Y0533265D03*
X0296406D03*
X0297177Y0363565D03*
X0302406D03*
X0301805Y0320965D03*
X0296577D03*
X0207606Y0395165D03*
X0202377D03*
X0237777Y0437465D03*
X0243005D03*
X0183975Y0359461D03*
X0189203D03*
X0237105Y0565965D03*
X0231877D03*
X0267206Y0579265D03*
X0261977D03*
G54D44*
X0359509Y0457822D03*
Y0460381D03*
Y046294D03*
Y0465499D03*
X0342973Y0457822D03*
Y0460381D03*
Y046294D03*
Y0465499D03*
G54D45*
X0211319Y0515551D03*
X0182973D03*
X0211418Y0284365D03*
X0239765D03*
G54D46*
X0335747Y055111D03*
X0341036Y0545821D03*
G54D47*
X0307491Y0348313D03*
G54D48*
X0312491Y0348313D03*
X0317491D03*
X0322491D03*
X0307491Y0366817D03*
X0312491D03*
X0317491D03*
X0322491D03*
X0237591Y0411613D03*
X0242591D03*
X0247591D03*
X0252591D03*
X0237591Y0430117D03*
X0242591D03*
X0247591D03*
X0252591D03*
G54D49*
X0331412Y028775D03*
Y0290309D03*
Y0292868D03*
Y0295427D03*
Y0297986D03*
Y0300545D03*
Y0303104D03*
Y0305663D03*
X0308971Y0297986D03*
Y0300545D03*
Y0303104D03*
Y0305663D03*
Y0308222D03*
Y0310781D03*
X0331412D03*
Y0308222D03*
X0308971Y0295427D03*
Y0292868D03*
Y0290309D03*
Y028775D03*
G54D50*
X0266491Y0336939D03*
G54D51*
X0271019Y0321191D03*
X0261964D03*
G54D52*
X0198568Y0389086D03*
X0196009D03*
X019345D03*
X0190891D03*
X0188332D03*
X0185773D03*
X0183214D03*
X0198568Y0366645D03*
X0196009D03*
X019345D03*
X0190891D03*
X0188332D03*
X0185773D03*
X0183214D03*
G54D53*
X0289282Y0542354D03*
X028789Y0540962D03*
X0286498Y0539571D03*
X0285106Y0538178D03*
X0283714Y0536787D03*
X0282322Y0535395D03*
X028093Y0534003D03*
X0279538Y0532611D03*
X0278146Y0531219D03*
X0276754Y0529827D03*
X0275362Y0528435D03*
X027397Y0527043D03*
X0272578Y0525651D03*
X0271186Y0524259D03*
X0269794Y0522867D03*
X0268402Y0521475D03*
X0237501Y0552376D03*
X0238893Y0553768D03*
X0240285Y055516D03*
X0241677Y0556552D03*
X0243069Y0557944D03*
X0244461Y0559336D03*
X0245853Y0560728D03*
X0247245Y056212D03*
X0248637Y0563512D03*
X0250029Y0564904D03*
X0251421Y0566296D03*
X0252813Y0567688D03*
X0254205Y056908D03*
X0255596Y0570472D03*
X0256988Y0571864D03*
X025838Y0573255D03*
G54D54*
X025838Y0521475D03*
X0256988Y0522867D03*
X0255596Y0524259D03*
X0254205Y0525651D03*
X0252813Y0527043D03*
X0251421Y0528435D03*
X0250029Y0529827D03*
X0248637Y0531219D03*
X0247245Y0532611D03*
X0245853Y0534003D03*
X0244461Y0535395D03*
X0243069Y0536787D03*
X0241677Y0538178D03*
X0240285Y0539571D03*
X0238893Y0540962D03*
X0237501Y0542354D03*
X0268402Y0573255D03*
X0269794Y0571864D03*
X0271186Y0570472D03*
X0272578Y056908D03*
X027397Y0567688D03*
X0275362Y0566296D03*
X0276754Y0564904D03*
X0278146Y0563512D03*
X0279538Y056212D03*
X028093Y0560728D03*
X0282322Y0559336D03*
X0283714Y0557944D03*
X0285106Y0556552D03*
X0286498Y055516D03*
X028789Y0553768D03*
X0289282Y0552376D03*
G54D55*
X0245743Y0571717D03*
X024944Y0575414D03*
M02*