%FSTAX26Y26*%
%MOIN*%
%SFA1B1*%

%IPPOS*%
%ADD18C,0.010000*%
%ADD27C,0.008000*%
%ADD28C,0.009840*%
%ADD29C,0.007870*%
%LNunisolder_sensor-1*%
%LPD*%
G54D18*
X0118728Y0339643D02*
D01*
X01189236Y03397933*
X01191084Y03399569*
X01192812Y03401331*
X01194414Y03403208*
X0119588Y03405193*
X01197205Y03407275*
X01198381Y03409445*
X01199403Y03411691*
X01200265Y03414003*
X01200965Y0341637*
X01201497Y03418779*
X0120186Y0342122*
X01202052Y03423681*
X01202072Y03426148*
X0120192Y03428611*
X01201596Y03431058*
X01201103Y03433476*
X01200442Y03435853*
X01199616Y03438179*
X01198631Y03440441*
X0119749Y0344263*
X01196199Y03444733*
X01194765Y03446741*
X01193194Y03448644*
X01191494Y03450433*
X01189673Y03452099*
X01187741Y03453634*
X0118728Y0345397*
X0248367Y0350549D02*
D01*
X02478118Y03503894*
X02472691Y03501915*
X02467415Y03499562*
X02462316Y03496847*
X02457419Y03493783*
X02452748Y03490385*
X02448325Y03486669*
X02444172Y03482654*
X02440309Y03478359*
X02436756Y03473804*
X02433528Y03469013*
X02430643Y03464009*
X02428114Y03458816*
X02425953Y03453458*
X02424171Y03447963*
X02422777Y03442358*
X02421778Y03436668*
X02421177Y03430923*
X02420979Y0342515*
X02421184Y03419377*
X02421791Y03413632*
X02422798Y03407944*
X02424199Y0340234*
X02425987Y03396847*
X02428154Y03391492*
X0243069Y03386302*
X02433581Y03381301*
X02436814Y03376514*
X02440373Y03371964*
X02444241Y03367673*
X02448399Y03363663*
X02452826Y03359953*
X02457502Y0335656*
X02462403Y03353502*
X02467505Y03350793*
X02472783Y03348447*
X02478213Y03346474*
X0248367Y033449*
X0110673Y034102D02*
Y034402D01*
Y033352D02*
X0111173D01*
X0110673Y035152D02*
X0111173D01*
X0117673Y034102D02*
Y034402D01*
X0117173Y033352D02*
X0117673D01*
X0117173Y035152D02*
X0117673D01*
Y035102D02*
Y035152D01*
Y033352D02*
Y033402D01*
X0110673Y033352D02*
Y033402D01*
Y035102D02*
Y035152D01*
X0248374Y033002D02*
X0253374D01*
X0248374D02*
Y035452D01*
X0253374*
X0261874Y034552D02*
Y034952D01*
Y033552D02*
Y033952D01*
X0087795Y0219283D02*
X0088999Y0232991D01*
X0087799Y0219291D02*
X0101999Y0205091D01*
X0116499*
X0253597D02*
X0268097D01*
X0282297Y0219291*
X0281097Y0232991D02*
X0282301Y0219283D01*
X0119Y03621D02*
X0124Y03623D01*
X01242Y03575*
X02461Y03623D02*
X02511Y03621D01*
X02459Y03575D02*
X02461Y03623D01*
G54D27*
X01849Y02773D02*
D01*
X01848995Y02773139*
X0184898Y02773278*
X01848956Y02773415*
X01848922Y02773551*
X01848879Y02773684*
X01848827Y02773813*
X01848765Y02773938*
X01848696Y02774059*
X01848618Y02774175*
X01848532Y02774285*
X01848438Y02774389*
X01848338Y02774486*
X01848231Y02774576*
X01848118Y02774658*
X01848Y02774732*
X01847876Y02774797*
X01847749Y02774854*
X01847618Y02774902*
X01847483Y0277494*
X01847347Y02774969*
X01847209Y02774989*
X01847069Y02774998*
X0184693*
X0184679Y02774989*
X01846652Y02774969*
X01846516Y0277494*
X01846381Y02774902*
X0184625Y02774854*
X01846123Y02774797*
X01846Y02774732*
X01845881Y02774658*
X01845768Y02774576*
X01845661Y02774486*
X01845561Y02774389*
X01845467Y02774285*
X01845381Y02774175*
X01845303Y02774059*
X01845234Y02773938*
X01845172Y02773813*
X0184512Y02773684*
X01845077Y02773551*
X01845043Y02773415*
X01845019Y02773278*
X01845004Y02773139*
X01845Y02773*
X01845004Y0277286*
X01845019Y02772721*
X01845043Y02772584*
X01845077Y02772448*
X0184512Y02772315*
X01845172Y02772186*
X01845234Y02772061*
X01845303Y0277194*
X01845381Y02771824*
X01845467Y02771714*
X01845561Y0277161*
X01845661Y02771513*
X01845768Y02771423*
X01845881Y02771341*
X01846Y02771267*
X01846123Y02771202*
X0184625Y02771145*
X01846381Y02771097*
X01846516Y02771059*
X01846652Y0277103*
X0184679Y0277101*
X0184693Y02771001*
X01847069*
X01847209Y0277101*
X01847347Y0277103*
X01847483Y02771059*
X01847618Y02771097*
X01847749Y02771145*
X01847876Y02771202*
X01848Y02771267*
X01848118Y02771341*
X01848231Y02771423*
X01848338Y02771513*
X01848438Y0277161*
X01848532Y02771714*
X01848618Y02771824*
X01848696Y0277194*
X01848765Y02772061*
X01848827Y02772186*
X01848879Y02772315*
X01848922Y02772448*
X01848956Y02772584*
X0184898Y02772721*
X01848995Y0277286*
X01849Y02773*
X0189666Y0262832D02*
X0188999Y0263499D01*
X0187666*
X0187Y0262832*
Y0260166*
X0187666Y02595*
X0188999*
X0189666Y0260166*
X0193665Y02595D02*
X0190999D01*
X0193665Y0262166*
Y0262832*
X0192998Y0263499*
X0191665*
X0190999Y0262832*
X0196997Y02595D02*
Y0263499D01*
X0194997Y0261499*
X0197663*
X0116929Y0331558D02*
Y0327559D01*
X0118929*
X0119595Y0328225*
Y0330891*
X0118929Y0331558*
X0116929*
X0120928Y0327559D02*
X0122261D01*
X0121594*
Y0331558*
X0120928Y0330891*
X0126926Y0331558D02*
X012426D01*
Y0329558*
X0125593Y0330225*
X0126259*
X0126926Y0329558*
Y0328225*
X0126259Y0327559*
X0124926*
X012426Y0328225*
X0101Y02625D02*
Y0266499D01*
X0102999*
X0103666Y0265832*
Y0264499*
X0102999Y0263833*
X0101*
X0104999Y0266499D02*
Y02625D01*
X0106998*
X0107665Y0263166*
Y0265832*
X0106998Y0266499*
X0104999*
X0111663Y02625D02*
X0108997D01*
X0111663Y0265166*
Y0265832*
X0110997Y0266499*
X0109664*
X0108997Y0265832*
X0236614Y0316535D02*
Y0320534D01*
X0238614*
X023928Y0319868*
Y0318535*
X0238614Y0317868*
X0236614*
X0237947D02*
X023928Y0316535D01*
X0240613Y0319868D02*
X0241279Y0320534D01*
X0242612*
X0243279Y0319868*
Y0319201*
X0242612Y0318535*
X0241946*
X0242612*
X0243279Y0317868*
Y0317202*
X0242612Y0316535*
X0241279*
X0240613Y0317202*
X0244612Y0319868D02*
X0245278Y0320534D01*
X0246611*
X0247277Y0319868*
Y0319201*
X0246611Y0318535*
X0245944*
X0246611*
X0247277Y0317868*
Y0317202*
X0246611Y0316535*
X0245278*
X0244612Y0317202*
X0108268Y0277953D02*
Y0281951D01*
X0110267*
X0110933Y0281285*
Y0279952*
X0110267Y0279286*
X0108268*
X0109601D02*
X0110933Y0277953D01*
X0112266Y0281285D02*
X0112933Y0281951D01*
X0114266*
X0114932Y0281285*
Y0280619*
X0114266Y0279952*
X0113599*
X0114266*
X0114932Y0279286*
Y0278619*
X0114266Y0277953*
X0112933*
X0112266Y0278619*
X0118264Y0277953D02*
Y0281951D01*
X0116265Y0279952*
X0118931*
X0130709Y0264961D02*
Y0268959D01*
X0132708*
X0133375Y0268293*
Y026696*
X0132708Y0266294*
X0130709*
X0132042D02*
X0133375Y0264961D01*
X0134707Y0268293D02*
X0135374Y0268959D01*
X0136707*
X0137373Y0268293*
Y0267626*
X0136707Y026696*
X013604*
X0136707*
X0137373Y0266294*
Y0265627*
X0136707Y0264961*
X0135374*
X0134707Y0265627*
X0141372Y0268959D02*
X0140039Y0268293D01*
X0138706Y026696*
Y0265627*
X0139373Y0264961*
X0140705*
X0141372Y0265627*
Y0266294*
X0140705Y026696*
X0138706*
X0248Y0327999D02*
Y0324666D01*
X0248666Y0324*
X0249999*
X0250666Y0324666*
Y0327999*
X0254664D02*
X0251999D01*
Y0325999*
X0253332Y0326666*
X0253998*
X0254664Y0325999*
Y0324666*
X0253998Y0324*
X0252665*
X0251999Y0324666*
X01405Y0299999D02*
Y0296666D01*
X0141166Y0296*
X0142499*
X0143166Y0296666*
Y0299999*
X0147164D02*
X0145832Y0299332D01*
X0144499Y0297999*
Y0296666*
X0145165Y0296*
X0146498*
X0147164Y0296666*
Y0297333*
X0146498Y0297999*
X0144499*
X0257784Y0319868D02*
X0257118Y0320534D01*
X0255785*
X0255118Y0319868*
Y0317202*
X0255785Y0316535*
X0257118*
X0257784Y0317202*
X0261783Y0316535D02*
X0259117D01*
X0261783Y0319201*
Y0319868*
X0261116Y0320534*
X0259783*
X0259117Y0319868*
X0263116D02*
X0263782Y0320534D01*
X0265115*
X0265781Y0319868*
Y0319201*
X0265115Y0318535*
X0264448*
X0265115*
X0265781Y0317868*
Y0317202*
X0265115Y0316535*
X0263782*
X0263116Y0317202*
X0161327Y0283647D02*
X0160661Y0284314D01*
X0159328*
X0158661Y0283647*
Y0280981*
X0159328Y0280315*
X0160661*
X0161327Y0280981*
X0165326Y0280315D02*
X016266D01*
X0165326Y0282981*
Y0283647*
X016466Y0284314*
X0163327*
X016266Y0283647*
X0169325Y0284314D02*
X0166659D01*
Y0282314*
X0167992Y0282981*
X0168658*
X0169325Y0282314*
Y0280981*
X0168658Y0280315*
X0167325*
X0166659Y0280981*
G54D28*
X0150984Y0273D02*
D01*
X01509828Y02730343*
X01509792Y02730684*
X01509732Y02731022*
X01509649Y02731356*
X01509543Y02731682*
X01509414Y02732001*
X01509264Y02732309*
X01509092Y02732607*
X015089Y02732891*
X01508688Y02733162*
X01508459Y02733417*
X01508212Y02733656*
X01507949Y02733877*
X01507671Y02734078*
X0150738Y0273426*
X01507076Y02734422*
X01506763Y02734561*
X0150644Y02734679*
X0150611Y02734773*
X01505774Y02734845*
X01505434Y02734893*
X01505091Y02734917*
X01504748*
X01504405Y02734893*
X01504065Y02734845*
X01503729Y02734773*
X01503399Y02734679*
X01503076Y02734561*
X01502763Y02734422*
X0150246Y0273426*
X01502168Y02734078*
X0150189Y02733877*
X01501627Y02733656*
X0150138Y02733417*
X01501151Y02733162*
X01500939Y02732891*
X01500747Y02732607*
X01500575Y02732309*
X01500425Y02732001*
X01500296Y02731682*
X0150019Y02731356*
X01500107Y02731022*
X01500047Y02730684*
X01500011Y02730343*
X015Y0273*
X01500011Y02729656*
X01500047Y02729315*
X01500107Y02728977*
X0150019Y02728643*
X01500296Y02728317*
X01500425Y02727998*
X01500575Y0272769*
X01500747Y02727392*
X01500939Y02727108*
X01501151Y02726837*
X0150138Y02726582*
X01501627Y02726343*
X0150189Y02726122*
X01502168Y02725921*
X0150246Y02725739*
X01502763Y02725577*
X01503076Y02725438*
X01503399Y0272532*
X01503729Y02725226*
X01504065Y02725154*
X01504405Y02725106*
X01504748Y02725082*
X01505091*
X01505434Y02725106*
X01505774Y02725154*
X0150611Y02725226*
X0150644Y0272532*
X01506763Y02725438*
X01507076Y02725577*
X0150738Y02725739*
X01507671Y02725921*
X01507949Y02726122*
X01508212Y02726343*
X01508459Y02726582*
X01508688Y02726837*
X015089Y02727108*
X01509092Y02727392*
X01509264Y0272769*
X01509414Y02727998*
X01509543Y02728317*
X01509649Y02728643*
X01509732Y02728977*
X01509792Y02729315*
X01509828Y02729656*
X0150984Y0273*
G54D29*
X01005Y02505D02*
Y02605D01*
X01505*
X01005Y02505D02*
X01505D01*
Y02605*
X017111Y0274902D02*
X0171307D01*
X0184693D02*
X018489D01*
X017111Y026565D02*
X018489D01*
X017111Y0250098D02*
X0171307D01*
X0184693D02*
X018489D01*
Y0274902*
X017111Y0250098D02*
Y0274902D01*
X0140063Y0274158D02*
X0142032D01*
X0142874Y0275*
X0145968Y0274158D02*
X0147937D01*
X0145126Y0275D02*
X0145968Y0274158D01*
X0147937D02*
Y0293843D01*
X0140063Y0274158D02*
Y0293843D01*
X0142874Y0275D02*
X0145126D01*
X0140063Y0293843D02*
X0147937D01*
M02*