%FSTAX26Y26*%
%MOIN*%
%SFA1B1*%

%IPPOS*%
%AMD88*
4,1,8,-0.025500,-0.036400,0.025500,-0.036400,0.036400,-0.025500,0.036400,0.025500,0.025500,0.036400,-0.025500,0.036400,-0.036400,0.025500,-0.036400,-0.025500,-0.025500,-0.036400,0.0*
1,1,0.021860,-0.025500,-0.025500*
1,1,0.021860,0.025500,-0.025500*
1,1,0.021860,0.025500,0.025500*
1,1,0.021860,-0.025500,0.025500*
%
%AMD92*
4,1,8,0.055100,-0.038600,0.055100,0.038600,0.038600,0.055100,-0.038600,0.055100,-0.055100,0.038600,-0.055100,-0.038600,-0.038600,-0.055100,0.038600,-0.055100,0.055100,-0.038600,0.0*
1,1,0.033080,0.038600,-0.038600*
1,1,0.033080,0.038600,0.038600*
1,1,0.033080,-0.038600,0.038600*
1,1,0.033080,-0.038600,-0.038600*
%
%AMD94*
4,1,8,0.068900,-0.055100,0.068900,0.055100,0.055100,0.068900,-0.055100,0.068900,-0.068900,0.055100,-0.068900,-0.055100,-0.055100,-0.068900,0.055100,-0.068900,0.068900,-0.055100,0.0*
1,1,0.027560,0.055100,-0.055100*
1,1,0.027560,0.055100,0.055100*
1,1,0.027560,-0.055100,0.055100*
1,1,0.027560,-0.055100,-0.055100*
%
%AMD95*
4,1,8,0.043800,0.007700,0.007700,0.043800,-0.007700,0.043800,-0.043800,0.007700,-0.043800,-0.007700,-0.007700,-0.043800,0.007700,-0.043800,0.043800,-0.007700,0.043800,0.007700,0.0*
1,1,0.021860,0.036100,0.000000*
1,1,0.021860,0.000000,0.036100*
1,1,0.021860,-0.036100,0.000000*
1,1,0.021860,0.000000,-0.036100*
%
%AMD97*
4,1,8,-0.029500,0.020700,-0.029500,-0.020700,-0.020700,-0.029500,0.020700,-0.029500,0.029500,-0.020700,0.029500,0.020700,0.020700,0.029500,-0.020700,0.029500,-0.029500,0.020700,0.0*
1,1,0.017720,-0.020700,0.020700*
1,1,0.017720,-0.020700,-0.020700*
1,1,0.017720,0.020700,-0.020700*
1,1,0.017720,0.020700,0.020700*
%
%AMD101*
4,1,8,-0.017500,-0.035000,0.017500,-0.035000,0.035000,-0.017500,0.035000,0.017500,0.017500,0.035000,-0.017500,0.035000,-0.035000,0.017500,-0.035000,-0.017500,-0.017500,-0.035000,0.0*
1,1,0.035000,-0.017500,-0.017500*
1,1,0.035000,0.017500,-0.017500*
1,1,0.035000,0.017500,0.017500*
1,1,0.035000,-0.017500,0.017500*
%
%AMD106*
4,1,8,0.042600,0.007500,0.007500,0.042600,-0.007500,0.042600,-0.042600,0.007500,-0.042600,-0.007500,-0.007500,-0.042600,0.007500,-0.042600,0.042600,-0.007500,0.042600,0.007500,0.0*
1,1,0.021260,0.035100,0.000000*
1,1,0.021260,0.000000,0.035100*
1,1,0.021260,-0.035100,0.000000*
1,1,0.021260,0.000000,-0.035100*
%
%AMD112*
4,1,8,0.050000,-0.021000,0.050000,0.021000,0.041000,0.030000,-0.041000,0.030000,-0.050000,0.021000,-0.050000,-0.021000,-0.041000,-0.030000,0.041000,-0.030000,0.050000,-0.021000,0.0*
1,1,0.018000,0.041000,-0.021000*
1,1,0.018000,0.041000,0.021000*
1,1,0.018000,-0.041000,0.021000*
1,1,0.018000,-0.041000,-0.021000*
%
%ADD55C,0.020000*%
%ADD56C,0.050000*%
%ADD57C,0.025000*%
%ADD60C,0.100000*%
%ADD61C,0.110240*%
%ADD64C,0.160000*%
%ADD65C,0.012000*%
%ADD67C,0.200000*%
%ADD71C,0.022000*%
%ADD75C,0.052000*%
%ADD85R,0.246060X0.167320*%
%ADD86O,0.118110X0.078740*%
%ADD87C,0.072840*%
G04~CAMADD=88~8~0.0~0.0~728.4~728.4~109.3~0.0~15~0.0~0.0~0.0~0.0~0~0.0~0.0~0.0~0.0~0~0.0~0.0~0.0~180.0~728.0~728.0*
%ADD88D88*%
%ADD89C,0.070000*%
%ADD90C,0.125200*%
%ADD91C,0.110240*%
G04~CAMADD=92~8~0.0~0.0~1102.4~1102.4~165.4~0.0~15~0.0~0.0~0.0~0.0~0~0.0~0.0~0.0~0.0~0~0.0~0.0~0.0~270.0~1102.0~1102.0*
%ADD92D92*%
%ADD93O,0.078740X0.118110*%
G04~CAMADD=94~8~0.0~0.0~1378.0~1378.0~137.8~0.0~15~0.0~0.0~0.0~0.0~0~0.0~0.0~0.0~0.0~0~0.0~0.0~0.0~270.0~1378.0~1378.0*
%ADD94D94*%
G04~CAMADD=95~8~0.0~0.0~728.4~728.4~109.3~0.0~15~0.0~0.0~0.0~0.0~0~0.0~0.0~0.0~0.0~0~0.0~0.0~0.0~315.0~940.0~939.0*
%ADD95D95*%
%ADD96C,0.314000*%
G04~CAMADD=97~8~0.0~0.0~590.6~590.6~88.6~0.0~15~0.0~0.0~0.0~0.0~0~0.0~0.0~0.0~0.0~0~0.0~0.0~0.0~90.0~590.0~590.0*
%ADD97D97*%
%ADD98C,0.059060*%
%ADD99R,0.059060X0.059060*%
%ADD100C,0.059060*%
G04~CAMADD=101~8~0.0~0.0~700.0~700.0~175.0~0.0~15~0.0~0.0~0.0~0.0~0~0.0~0.0~0.0~0.0~0~0.0~0.0~0.0~180.0~700.0~700.0*
%ADD101D101*%
%ADD102C,0.055120*%
%ADD103C,0.078740*%
%ADD104R,0.059060X0.059060*%
%ADD105C,0.070870*%
G04~CAMADD=106~8~0.0~0.0~708.7~708.7~106.3~0.0~15~0.0~0.0~0.0~0.0~0~0.0~0.0~0.0~0.0~0~0.0~0.0~0.0~315.0~914.0~913.0*
%ADD106D106*%
%ADD107C,0.236220*%
%ADD108C,0.255900*%
%ADD109O,0.051180X0.043310*%
%ADD110O,0.196850X0.104330*%
%ADD111C,0.050000*%
G04~CAMADD=112~8~0.0~0.0~600.0~1000.0~90.0~0.0~15~0.0~0.0~0.0~0.0~0~0.0~0.0~0.0~0.0~0~0.0~0.0~0.0~270.0~1000.0~600.0*
%ADD112D112*%
%ADD113C,0.196850*%
%LNunisolder52_full-1*%
%LPD*%
G36*
X067815Y0331693D02*
X0663386Y0316929D01*
Y0301853*
X0661979Y0300619*
X0660367Y0298781*
X0659008Y0296748*
X0657927Y0294555*
X0657141Y029224*
X0656664Y0289841*
X0656504Y0287402*
X0656664Y0284962*
X0657141Y0282563*
X0657927Y0280248*
X0658668Y0278746*
X0651575Y0271654*
X0620079*
X0616142Y027559*
Y0287402*
X0622047Y0293307*
X0622248*
X0623784Y0292671*
X0625465Y0292267*
X0627189Y0292131*
X0628913Y0292267*
X0630594Y0292671*
X0632191Y0293332*
X0633665Y0294236*
X063498Y0295358*
X0636103Y0296673*
X0637006Y0298147*
X0637281Y0298811*
X0637781*
X0637827Y0298699*
X0638616Y0297671*
X0639644Y0296882*
X0640841Y0296387*
X0642126Y0296217*
X0643411Y0296387*
X0644608Y0296882*
X0645636Y0297671*
X0646425Y0298699*
X0646921Y0299896*
X064709Y0301181*
Y0305118*
X0646921Y0306403*
X0646425Y03076*
X0645669Y0308584*
Y0314203*
X0665862Y0334396*
X0666985Y0335711*
X066788Y0337171*
X0670276Y0339567*
X067815Y0331693*
G37*
G36*
X0132544Y0448319D02*
X0131973Y044785D01*
X0131209Y0446918*
X0130641Y0445856*
X0130291Y0444703*
X0130173Y0443504*
X0130291Y0442305*
X0130641Y0441152*
X0131209Y0440089*
X0131973Y0439158*
X0132904Y0438394*
X0133967Y0437826*
X013512Y0437476*
X0136319Y0437358*
X0145571*
X014677Y0437476*
X0147923Y0437826*
X0148986Y0438394*
X0149917Y0439158*
X0150681Y0440089*
X0151249Y0441152*
X0151599Y0442305*
X0151717Y0443504*
X0151599Y0444703*
X0151249Y0445856*
X0150681Y0446918*
X0149917Y044785*
X0149534Y0448164*
X0149683Y0448689*
X0149991Y0448729*
X0161713Y0437008*
X0167618*
X0174508Y0430118*
Y0401575*
X0172539Y0399606*
X015187*
X01471Y0404376*
X0147242Y0404942*
X0147923Y0405149*
X0148986Y0405717*
X0149917Y0406481*
X0150681Y0407412*
X0151249Y0408475*
X0151599Y0409628*
X0151717Y0410827*
X0151599Y0412026*
X0151249Y0413179*
X0150681Y0414241*
X0149917Y0415173*
X0148986Y0415937*
X0147923Y0416505*
X014677Y0416855*
X0145571Y0416973*
X0136319*
X013512Y0416855*
X0133967Y0416505*
X0132904Y0415937*
X0131973Y0415173*
X0131209Y0414241*
X0130641Y0413179*
X0130291Y0412026*
X0130173Y0410827*
X0130291Y0409628*
X0130641Y0408475*
X0131209Y0407412*
X0131973Y0406481*
X0132544Y0406012*
X0132366Y0405512*
X0130217*
X0128248Y040748*
Y044685*
X0130217Y0448819*
X0132366*
X0132544Y0448319*
G37*
G36*
X020659Y0582677D02*
X0206781Y0582215D01*
X0204506Y057994*
X0204044Y0580131*
Y0581018*
X0196339*
Y0573313*
X0204044*
Y0575666*
X0204479Y0575752*
X0204976Y0576084*
X0205831Y0576939*
X0206359Y057676*
X0206438Y057616*
X0206826Y0575222*
X0207443Y0574417*
X0208248Y05738*
X0209186Y0573412*
X0210191Y0573279*
X0211197Y0573412*
X0212134Y05738*
X0212939Y0574417*
X0213557Y0575222*
X0213945Y057616*
X0214077Y0577165*
X0213945Y0578171*
X0213557Y0579108*
X0213188Y0579589*
X0213435Y0580089*
X0216948*
X0217195Y0579589*
X0216826Y0579108*
X0216438Y0578171*
X0216404Y0577915*
X0223979*
X0223945Y0578171*
X0223557Y0579108*
X0223188Y0579589*
X0223435Y0580089*
X0226948*
X0227194Y0579589*
X0226826Y0579108*
X0226438Y0578171*
X0226305Y0577165*
X0226438Y057616*
X0226826Y0575222*
X0227444Y0574417*
X0228248Y05738*
X0229186Y0573412*
X0230191Y0573279*
X0231197Y0573412*
X0232134Y05738*
X0232939Y0574417*
X0233557Y0575222*
X0233709Y0575591*
X0234209Y0575491*
Y0575321*
X0234326Y0574736*
X0234657Y0574239*
X0236562Y0572335*
Y0566465*
X0236678Y056588*
X023701Y0565384*
X0239511Y0562883*
X0240007Y0562552*
X0240592Y0562435*
X0248659*
X0255298Y0555796*
Y0553873*
X0255414Y0553288*
X0255746Y0552792*
X0257006Y0551531*
X0256785Y0551082*
X0256691Y0551095*
X0255804Y0550978*
X0254977Y0550635*
X0254273Y0550096*
X0253635*
X0252775Y0549982*
X0252595Y0550053*
X0252309Y0550273*
X0252321Y0550365*
X0252204Y0551253*
X0251861Y055208*
X0251316Y055279*
X0250606Y0553335*
X0249779Y0553678*
X0248891Y0553795*
X0248004Y0553678*
X0247177Y0553335*
X0246898Y0553122*
X0232373Y0567647*
X0231877Y0567978*
X0231291Y0568095*
X0225925*
X0223073Y0570947*
X0222577Y0571278*
X0221991Y0571395*
X0189325*
X0186227Y0574493*
X0186304Y0574678*
X0186421Y0575565*
X0186304Y0576453*
X0185961Y057728*
X0185416Y057799*
X0184706Y0578535*
X0183879Y0578878*
X0182991Y0578995*
X0182104Y0578878*
X0181277Y0578535*
X0180566Y057799*
X0180021Y057728*
X0179679Y0576453*
X0179562Y0575565*
X0179679Y0574678*
X0180021Y0573851*
X0180566Y057314*
X0181277Y0572596*
X0182104Y0572253*
X0182991Y0572136*
X0183879Y0572253*
X0184064Y057233*
X018761Y0568784*
X0188106Y0568452*
X0188691Y0568336*
X0221358*
X022421Y0565484*
X0224706Y0565152*
X0225291Y0565036*
X0230658*
X0245482Y0550212*
X0245549Y0549708*
X0245075Y0549474*
X0245005Y0549544*
X0244816Y054979*
X024457Y0549979*
X0243388Y0551162*
X0242656Y0551723*
X0241805Y0552075*
X0240891Y0552196*
X0240125Y0552095*
X0225291*
X0224404Y0551978*
X0223577Y0551635*
X0222866Y055109*
X0213266Y054149*
X0212721Y054078*
X0212379Y0539953*
X0212262Y0539065*
Y052441*
X0212236Y0524213*
X0212353Y0523325*
X0212372Y052328*
X0212379Y0523225*
X0212721Y0522398*
X0213266Y0521688*
X0213562Y0521392*
Y051918*
X0201476*
X0200563Y051906*
X0199711Y0518707*
X019898Y0518146*
X0198419Y0517415*
X0198066Y0516563*
X0197989Y0515974*
X0187211Y0505196*
X0187197Y0505199*
X0186431Y0505047*
X0185782Y0504613*
X0182274Y0501105*
X018184Y0500456*
X0181688Y049969*
X018184Y0498924*
X0182274Y0498275*
X0185782Y0494767*
X0186431Y0494333*
X0187197Y0494181*
X0187963Y0494333*
X0188612Y0494767*
X019212Y0498275*
X0192554Y0498924*
X0192706Y049969*
X0192554Y0500456*
X0192515Y0500515*
X0203973Y0511973*
X0204085Y0512119*
X0213562*
Y0502351*
X0213679Y0501463*
X0214021Y0500636*
X0214566Y0499926*
X0220889Y0493603*
X0220871Y0493461*
X0221037Y0492198*
X0221525Y0491021*
X0222219Y0490116*
Y0471215*
X0221525Y0470309*
X0221037Y0469133*
X0220871Y046787*
X0221037Y0466607*
X0221525Y0465431*
X02223Y046442*
X022331Y0463645*
X0224487Y0463158*
X022575Y0462991*
X0227012Y0463158*
X0228189Y0463645*
X0229199Y046442*
X0229975Y0465431*
X0230462Y0466607*
X0230624Y0467835*
X0230641Y0467879*
X0231092Y0468182*
X0231404Y0468053*
X0232291Y0467936*
X0233179Y0468053*
X0234006Y0468396*
X0234716Y046894*
X0235261Y0469651*
X0235604Y0470478*
X0235721Y0471365*
X0235604Y0472253*
X0235261Y047308*
X0234716Y047379*
X0234006Y0474335*
X0233179Y0474678*
X0232291Y0474795*
X0231779Y0474727*
X0231279Y0475139*
Y0489138*
X0232268Y0490127*
X02326Y0490623*
X0232716Y0491209*
Y0495713*
X02326Y0496298*
X0232268Y0496794*
X0229083Y0499979*
X0228587Y0500311*
X0228002Y0500427*
X0226735*
X0222421Y0504741*
Y0510319*
X0222797Y0510648*
X0222891Y0510636*
X0223779Y0510753*
X0224606Y0511096*
X0225316Y051164*
X0225861Y0512351*
X0226204Y0513178*
X0226321Y0514065*
X0226204Y0514953*
X0225861Y051578*
X0225316Y051649*
X0224606Y0517035*
X0223779Y0517378*
X0222891Y0517495*
X0222004Y0517378*
X0221177Y0517035*
X0220921Y0516839*
X0220421Y0517085*
Y0522813*
X0220304Y05237*
X0219961Y0524527*
X0219416Y0525238*
X0219121Y0525533*
Y0533545*
X0219621Y0533792*
X0219877Y0533596*
X0220704Y0533253*
X0221591Y0533136*
X0222479Y0533253*
X0223306Y0533596*
X0224016Y053414*
X0224561Y0534851*
X0224904Y0535678*
X0225021Y0536565*
X0224904Y0537453*
X0224561Y053828*
X0224016Y053899*
X0223909Y0539073*
X0223876Y0539572*
X022744Y0543136*
X0238458*
X024261Y0538984*
X0243106Y0538652*
X0243691Y0538536*
X0252791*
X0253377Y0538652*
X0253873Y0538984*
X0255925Y0541036*
X0261658*
X0261988Y054066*
X0261962Y0540465*
X0262079Y0539578*
X0262421Y0538751*
X0262966Y053804*
X0263677Y0537496*
X0264504Y0537153*
X0265391Y0537036*
X0266279Y0537153*
X0267106Y0537496*
X0267816Y053804*
X0268361Y0538751*
X0268704Y0539578*
X0268821Y0540465*
X0268795Y054066*
X0269125Y0541036*
X0285748*
X0286333Y0541152*
X028683Y0541484*
X0291982Y0546636*
X0294201*
X0307072Y0533765*
X0307568Y0533433*
X0308153Y0533317*
X032439*
X0334462Y0523245*
Y0510907*
X0334208Y0510873*
X0333381Y0510531*
X0332671Y0509986*
X0332126Y0509275*
X0331784Y0508448*
X0331667Y0507561*
X0331784Y0506673*
X0332126Y0505846*
X0332671Y0505136*
X0333381Y0504591*
X0334208Y0504248*
X0335096Y0504131*
X0335984Y0504248*
X0336811Y0504591*
X0337521Y0505136*
X0338066Y0505846*
X0338408Y0506673*
X0338525Y0507561*
X0338408Y0508448*
X0338066Y0509275*
X0337521Y0509986*
Y0523879*
X0337404Y0524464*
X0337073Y052496*
X0327112Y0534921*
X0327273Y0535394*
X0327594Y0535436*
X0328445Y0535789*
X0329176Y053635*
X0329738Y0537081*
X033009Y0537933*
X033021Y0538846*
X033009Y053976*
X0329738Y0540612*
X0329176Y0541343*
X0328445Y0541904*
X0327594Y0542256*
X032668Y0542377*
X0311273*
X0298988Y0554662*
X0298256Y0555223*
X0297405Y0555575*
X0296491Y0555696*
X0289691*
X0288778Y0555575*
X0287926Y0555223*
X0287195Y0554662*
X0282672Y0550139*
X028218Y0550186*
X0281978Y0550612*
X0282161Y0550851*
X0282504Y0551678*
X0282621Y0552565*
X0282504Y0553453*
X0282161Y055428*
X0281616Y055499*
X0280906Y0555535*
X0280079Y0555878*
X0279191Y0555995*
X0278304Y0555878*
X0277477Y0555535*
X0276766Y055499*
X0276221Y055428*
X0275879Y0553453*
X0275762Y0552565*
X027577Y0552507*
X0275395Y0552095*
X0260768*
X0258356Y0554506*
Y055643*
X025824Y0557015*
X0257908Y0557511*
X0250374Y0565046*
X0249877Y0565378*
X0249292Y0565494*
X0241226*
X0239621Y0567099*
Y057285*
X023998Y0573307*
X0240191Y0573279*
X0241197Y0573412*
X0242134Y05738*
X0242939Y0574417*
X0243557Y0575222*
X0243945Y057616*
X0244077Y0577165*
X0243945Y0578171*
X0243557Y0579108*
X0242939Y0579913*
X0242134Y0580531*
X0241197Y0580919*
X0240191Y0581051*
X0239186Y0580919*
X0238248Y0580531*
X0237443Y0579913*
X0237082Y0579442*
X0236424Y0579393*
X0233601Y0582215*
X0233793Y0582677*
X036939*
X0380217Y057185*
Y0437864*
X0379716Y0437739*
X0378024Y0439185*
X0376036Y0440403*
X0373882Y0441295*
X0371616Y0441839*
X0369291Y0442022*
X0366967Y0441839*
X03647Y0441295*
X0362546Y0440403*
X0360559Y0439185*
X0358786Y0437671*
X0357272Y0435898*
X0356054Y043391*
X0355162Y0431756*
X0354617Y042949*
X0354434Y0427165*
X0354617Y0424841*
X0355162Y0422574*
X0356054Y0420421*
X0357272Y0418433*
X0358786Y041666*
X0360559Y0415146*
X0362546Y0413928*
X03647Y0413036*
X0366967Y0412492*
X0369291Y0412309*
X0371616Y0412492*
X0373882Y0413036*
X0376036Y0413928*
X0378024Y0415146*
X0379716Y0416592*
X0380217Y0416467*
Y028248*
X036939Y0271654*
X0164665*
X0153839Y028248*
Y0387795*
X0157776Y0391732*
X0176476*
X0182382Y0397638*
Y0434055*
X0171555Y0444882*
X0164665*
X0153839Y0455709*
Y0572835*
X0163681Y0582677*
X020659*
G37*
G36*
X0668116Y0355123D02*
X0665354Y0352362D01*
X0649606*
X0638779Y0363189*
Y0394685*
X0640748Y0396654*
X0668116*
Y0355123*
G37*
G36*
X0517717Y0578346D02*
Y0509055D01*
X0513023Y0504361*
X0512554Y0504599*
X0512455Y050535*
X0512112Y0506178*
X0511567Y0506888*
X0510857Y0507433*
X051003Y0507775*
X0509142Y0507892*
X0490319*
X0479223Y0518988*
X0478513Y0519533*
X0477686Y0519875*
X0476798Y0519992*
X0439119*
X0425686Y0533425*
Y053453*
X0425548Y0535227*
X0425153Y0535817*
X0424562Y0536212*
X0423865Y0536351*
X0419732*
X0419035Y0536212*
X0418444Y0535817*
X0418049Y0535227*
X0417911Y053453*
Y0530396*
X0418049Y0529699*
X0418444Y0529108*
X0419035Y0528714*
X0419732Y0528575*
X0420836*
X0435274Y0514138*
X0435984Y0513593*
X0436811Y051325*
X0437698Y0513134*
X0475378*
X0486043Y0502468*
X0485836Y0501968*
X0414173*
X040748Y0508661*
Y0578346*
X0414567Y0585433*
X051063*
X0517717Y0578346*
G37*
G36*
X0688976Y0412401D02*
X0687992Y0411417D01*
X0669291*
X0658464Y0422244*
Y045374*
X0660433Y0455709*
X0688976*
Y0412401*
G37*
G36*
X0661979Y0605737D02*
D01*
X0660367Y0603899*
X0659008Y0601866*
X0657927Y0599673*
X0657475Y0598341*
X0656938Y0598314*
X0656386Y0599345*
X0655519Y0600401*
X0654463Y0601268*
X0653623Y0601717*
X0653088Y0602156*
X0651698Y0602899*
X065019Y0603357*
X0648622Y0603511*
X0647054Y0603357*
X0645546Y0602899*
X0644156Y0602156*
X0643621Y0601717*
X0642781Y0601268*
X0641725Y0600401*
X0640858Y0599345*
X0640549Y0598768*
X0638804Y0597023*
X0637804Y0595805*
X0637061Y0594415*
X0636604Y0592907*
X0636449Y0591338*
Y0578503*
X0634737Y057679*
X0634331Y0577091*
X063487Y0578101*
X0635357Y0579705*
X0635522Y0581374*
Y0593281*
X0635774Y0594112*
X0635908Y0595472*
X0635774Y0596832*
X0635377Y059814*
X0634733Y0599345*
X0634208Y0599984*
X063408Y0600224*
X0633016Y060152*
X063172Y0602584*
X0630242Y0603374*
X0628637Y0603861*
X0626968Y0604025*
X0598425*
X0596757Y0603861*
X0595152Y0603374*
X0593673Y0602584*
X0592377Y060152*
X0591196Y0600339*
X0590133Y0599043*
X0589342Y0597564*
X0588855Y059596*
X0588691Y0594291*
Y0575083*
X0588692Y0575072*
Y0572034*
X058823Y0571843*
X0582174Y0577899*
Y0578941*
X0582014Y0580156*
X0581545Y0581288*
X0580799Y058226*
X0579827Y0583006*
X0578695Y0583475*
X057748Y0583635*
X0569764*
X0568549Y0583475*
X0567417Y0583006*
X0566445Y058226*
X0565699Y0581288*
X056523Y0580156*
X056507Y0578941*
Y0571224*
X056523Y057001*
X0565699Y0568878*
X0566445Y0567905*
X0567417Y056716*
X0568549Y0566691*
X0569764Y0566531*
X0570806*
X058145Y0555887*
X0582668Y0554887*
X0584058Y0554144*
X0585566Y0553687*
X0587134Y0553532*
X0630886*
X0632454Y0553687*
X0633962Y0554144*
X0635352Y0554887*
X063657Y0555887*
X0648177Y0567493*
X064924Y0568062*
X0650536Y0569125*
X06516Y0570421*
X065239Y05719*
X0652877Y0573504*
X0653041Y0575173*
X0652877Y0576842*
X0652527Y0577995*
Y0588009*
X0653886Y0589368*
X0654463Y0589677*
X0655519Y0590544*
X0656087Y0591235*
X0656599Y0591071*
X0656664Y059008*
X0657141Y0587682*
X0657927Y0585366*
X0659008Y0583173*
X0660367Y058114*
X0661979Y0579302*
X0663817Y057769*
X066585Y0576331*
X0668043Y057525*
X0670359Y0574464*
X0671935Y057415*
X0671941Y0574122*
X0671894Y0573649*
X0671654*
X0670732Y0573465*
X066995Y0572943*
X0669428Y0572162*
X0669323Y0571633*
X0668251Y0570378*
X0667348Y0568904*
X0666686Y0567306*
X0666283Y0565625*
X0666147Y0563902*
Y0548254*
X0629852Y0511959*
X0620866*
X0619167Y0511825*
X061751Y0511427*
X0615936Y0510775*
X0614483Y0509885*
X0613187Y0508778*
X061208Y0507482*
X061119Y0506029*
X0610537Y0504454*
X061014Y0502797*
X0610006Y0501098*
X061014Y0499399*
X0610537Y0497742*
X061119Y0496168*
X061208Y0494715*
X0613187Y0493419*
X0614483Y0492312*
X0615936Y0491422*
X061751Y049077*
X0619167Y0490372*
X0620866Y0490238*
X064439*
X0646089Y0490372*
X0647746Y049077*
X064932Y0491422*
X0650773Y0492312*
X0652069Y0493419*
X0653176Y0494715*
X0654066Y0496168*
X0654718Y0497742*
X0655116Y0499399*
X065525Y0501098*
X0655116Y0502797*
X0654718Y0504454*
X0654234Y0505623*
X0679805Y0531194*
X0682677*
X0683599Y0531377*
X068438Y0531899*
X0684902Y0532681*
X0685086Y0533602*
Y0536516*
X0685952Y053753*
X0686842Y0538983*
X0687494Y0540557*
X0687892Y0542214*
X0687905Y0542382*
X0688048Y0542977*
X0688184Y0544701*
Y0563902*
X0688048Y0565625*
X0687644Y0567306*
X0686983Y0568904*
X0686079Y0570378*
X0685007Y0571633*
X0684902Y0572162*
X068438Y0572943*
X0683599Y0573465*
X0682677Y0573649*
X0682282*
X0682167Y0573719*
X0680919Y0574236*
X0680937Y057477*
X068235Y057525*
X0684543Y0576331*
X0686576Y057769*
X0688415Y0579302*
X0688976Y057874*
Y0456712*
X0660433*
X0660049Y0456636*
X0659723Y0456418*
X0657755Y045445*
X0657537Y0454124*
X0657461Y045374*
Y0422244*
X0657537Y042186*
X0657755Y0421534*
X0668116Y0411174*
Y0397657*
X0640748*
X0640364Y0397581*
X0640038Y0397363*
X063807Y0395395*
X0637852Y0395069*
X0637776Y0394685*
Y0363189*
X0637852Y0362805*
X063807Y0362479*
X0647053Y0353497*
Y0346751*
X0619398Y0319096*
X0618275Y0317781*
X0617372Y0316307*
X061671Y031471*
X0616306Y0313029*
X0616171Y0311305*
Y030315*
X0616306Y0301426*
X061671Y0299745*
X0617372Y0298147*
X0618275Y0296673*
X0619398Y0295358*
X0620713Y0294236*
X0620892Y0294126*
X062095Y0293629*
X0615432Y0288111*
X0615215Y0287786*
X0615138Y0287402*
Y027559*
X0615215Y0275206*
X0615432Y0274881*
X0618198Y0272115*
X0618006Y0271654*
X0427165*
X0424635Y0274184*
X0426247Y0276022*
X0427606Y0278055*
X0428687Y0280248*
X0429473Y0282563*
X042995Y0284962*
X043011Y0287402*
X042995Y0289841*
X0429473Y029224*
X0428687Y0294555*
X0427606Y0296748*
X0426247Y0298781*
X0424635Y0300619*
X0422797Y0302232*
X0420764Y030359*
X0418571Y0304671*
X0416255Y0305457*
X0413857Y0305934*
X0411417Y0306094*
X0408977Y0305934*
X0406579Y0305457*
X0404264Y0304671*
X0402071Y030359*
X0400038Y0302232*
X03982Y0300619*
X0395669Y030315*
Y0454724*
X03982Y0457255*
X0400038Y0455642*
X0402071Y0454284*
X0404264Y0453202*
X0406579Y0452417*
X0408977Y0451939*
X0411417Y045178*
X0413857Y0451939*
X0416255Y0452417*
X0418571Y0453202*
X0420764Y0454284*
X0422797Y0455642*
X0424635Y0457255*
X0426247Y0459093*
X0427606Y0461126*
X0428687Y0463319*
X0429473Y0465634*
X042995Y0468033*
X043011Y0470472*
X042995Y0472912*
X0429473Y047531*
X0428687Y0477626*
X0427606Y0479819*
X0426247Y0481852*
X0424635Y048369*
X0427165Y048622*
X0526575*
X0533464Y049311*
Y0599409*
X0542323Y0608268*
X0659449*
X0661979Y0605737*
G37*
%LNunisolder52_full-2*%
%LPC*%
G36*
X0478331Y0354353D02*
X0478119Y0354325D01*
X047699Y0353858*
X047602Y0353114*
X0475276Y0352144*
X0474808Y0351015*
X0474781Y0350803*
X0478331*
Y0354353*
G37*
G36*
X0356891Y0340451D02*
X0355886Y0340319D01*
X0354948Y0339931*
X0354144Y0339313*
X0353526Y0338508*
X0353138Y0337571*
X0353005Y0336565*
X0353138Y033556*
X0353526Y0334622*
X0354144Y0333818*
X0354948Y03332*
X0355886Y0332812*
X0356891Y0332679*
X0357897Y0332812*
X0358834Y03332*
X0359639Y0333818*
X0360257Y0334622*
X0360645Y033556*
X0360777Y0336565*
X0360645Y0337571*
X0360257Y0338508*
X0359639Y0339313*
X0358834Y0339931*
X0357897Y0340319*
X0356891Y0340451*
G37*
G36*
X0407642Y0349706D02*
X0406673D01*
Y0345727*
X041249*
X0412452Y0346016*
X0411954Y0347217*
X0411163Y0348248*
X0410132Y0349039*
X040893Y0349537*
X0407642Y0349706*
G37*
G36*
X0480331Y0354353D02*
Y0350803D01*
X0483881*
X0483853Y0351015*
X0483385Y0352144*
X0482641Y0353114*
X0481672Y0353858*
X0480542Y0354325*
X0480331Y0354353*
G37*
G36*
X0626968Y0383436D02*
X0626059Y0383316D01*
X0625211Y0382965*
X0624483Y0382406*
X0623925Y0381678*
X0623574Y0380831*
X0623454Y0379921*
X0623574Y0379012*
X0623925Y0378164*
X0624483Y0377436*
X0624945Y0377082*
Y0356299*
X0625099Y0355525*
X0625501Y0354924*
X0625423Y0354331*
X0625542Y0353421*
X0625893Y0352573*
X0626452Y0351846*
X062718Y0351287*
X0628027Y0350936*
X0628937Y0350816*
X0629847Y0350936*
X0630694Y0351287*
X0631422Y0351846*
X0631981Y0352573*
X0632332Y0353421*
X0632451Y0354331*
X0632332Y035524*
X0631981Y0356088*
X0631422Y0356816*
X0630694Y0357374*
X0629847Y0357725*
X0628992Y0357838*
Y0377082*
X0629454Y0377436*
X0630012Y0378164*
X0630363Y0379012*
X0630483Y0379921*
X0630363Y0380831*
X0630012Y0381678*
X0629454Y0382406*
X0628726Y0382965*
X0627878Y0383316*
X0626968Y0383436*
G37*
G36*
X04945Y0329291D02*
Y0323095D01*
X0500697*
X0500655Y0323518*
X050024Y0324886*
X0499566Y0326147*
X0498658Y0327253*
X0497553Y032816*
X0496292Y0328834*
X0494923Y0329249*
X04945Y0329291*
G37*
G36*
X0322591Y0344995D02*
X0321704Y0344878D01*
X0320877Y0344535*
X0320166Y034399*
X0319621Y034328*
X0319279Y0342453*
X0319162Y0341565*
X0319279Y0340678*
X0319621Y0339851*
X0320166Y0339141*
X0327562Y0331745*
Y0328211*
X03271Y0328019*
X0324355Y0330765*
X0324304Y0331153*
X0323961Y033198*
X0323416Y033269*
X0322706Y0333235*
X0321879Y0333578*
X0320991Y0333695*
X0320104Y0333578*
X0319277Y0333235*
X0318566Y033269*
X0318021Y033198*
X0317679Y0331153*
X0317562Y0330265*
X0317679Y0329378*
X0318021Y0328551*
X0318566Y032784*
X0319277Y0327295*
X0320104Y0326953*
X0320991Y0326836*
X0321879Y0326953*
X0322706Y0327295*
X0323154Y032764*
X0325562Y0325232*
Y0316708*
X0325678Y0316123*
X032601Y0315626*
X0329511Y0312125*
Y0296934*
X0326611Y0294033*
X0326112Y0294066*
X0326016Y029419*
X0325306Y0294735*
X0324479Y0295078*
X0323856Y029516*
X0323677Y0295688*
X0324173Y0296184*
X0324504Y029668*
X0324621Y0297265*
Y0298314*
X0324916Y029854*
X0325461Y0299251*
X0325804Y0300078*
X0325921Y0300965*
X0325804Y0301853*
X0325461Y030268*
X0324916Y030339*
X0324621Y0303617*
Y0305879*
X0325179Y0305953*
X0326006Y0306295*
X0326716Y030684*
X0327261Y0307551*
X0327604Y0308378*
X0327721Y0309265*
X0327604Y0310153*
X0327261Y031098*
X0326716Y031169*
X0326006Y0312235*
X0325179Y0312578*
X0324291Y0312695*
X0323404Y0312578*
X0322577Y0312235*
X0321866Y031169*
X0321321Y031098*
X0320979Y0310153*
X0320862Y0309265*
X0320979Y0308378*
X0321321Y0307551*
X0321562Y0307237*
Y030426*
X0320777Y0303935*
X0320066Y030339*
X0319521Y030268*
X0319179Y0301853*
X0319062Y0300965*
X0319179Y0300078*
X0319521Y0299251*
X0320066Y029854*
X0320777Y0297995*
X0320985Y0297909*
X0321082Y0297419*
X0318664Y0295001*
X0318479Y0295078*
X0317591Y0295195*
X0316704Y0295078*
X0315877Y0294735*
X0315166Y029419*
X0314621Y029348*
X0314279Y0292653*
X0314162Y0291765*
X0314279Y0290878*
X0314621Y0290051*
X0315166Y028934*
X0315877Y0288795*
X0316704Y0288453*
X0317591Y0288336*
X0318479Y0288453*
X0319306Y0288795*
X0320016Y028934*
X0320276Y0289679*
X0320906*
X0321166Y028934*
X0321877Y0288795*
X0322704Y0288453*
X03231Y0288401*
X0323279Y0287873*
X0318401Y0282995*
X0301612*
X028185Y0302757*
X0281965Y0303633*
X0281799Y0304896*
X0281312Y0306072*
X0280536Y0307083*
X0279526Y0307858*
X0278349Y0308346*
X0277087Y0308512*
X027315*
X0271887Y0308346*
X027071Y0307858*
X02697Y0307083*
X0268924Y0306072*
X0268437Y0304896*
X0268271Y0303633*
X0268437Y030237*
X0268924Y0301194*
X02697Y0300183*
X027071Y0299408*
X0271887Y0298921*
X027315Y0298754*
X0276152*
X0297766Y027714*
X0298477Y0276595*
X0299304Y0276253*
X0300191Y0276136*
X0319821*
X0320709Y0276253*
X0321536Y0276595*
X0322246Y027714*
X0337942Y0292836*
X0343891*
X0344779Y0292953*
X0345606Y0293296*
X0346316Y0293841*
X0346861Y0294551*
X0347204Y0295378*
X0347321Y0296265*
X0347204Y0297153*
X0346861Y029798*
X0346316Y029869*
X0345606Y0299235*
X0344779Y0299578*
X0343891Y0299695*
X033837*
Y0314374*
X0338253Y0315261*
X0337911Y0316088*
X0337366Y0316799*
X0334421Y0319744*
Y0333165*
X0334304Y0334053*
X0333961Y033488*
X0333416Y033559*
X0325016Y034399*
X0324306Y0344535*
X0323479Y0344878*
X0322591Y0344995*
G37*
G36*
X0404673Y0349706D02*
X0403705D01*
X0402416Y0349537*
X0401215Y0349039*
X0400184Y0348248*
X0399392Y0347217*
X0398895Y0346016*
X0398857Y0345727*
X0404673*
Y0349706*
G37*
G36*
X021301Y0342604D02*
X0183878D01*
X0183098Y0342449*
X0182436Y0342007*
X018216Y0341731*
X0181678Y0341795*
X0180791Y0341678*
X0179964Y0341335*
X0179253Y034079*
X0178708Y034008*
X0178366Y0339253*
X0178249Y0338365*
X0178366Y0337478*
X0178708Y0336651*
X0179253Y0335941*
X0179964Y0335396*
X0180791Y0335053*
X0181678Y0334936*
X0182566Y0335053*
X0183393Y0335396*
X0184103Y0335941*
X0184648Y0336651*
X0184991Y0337478*
X0185108Y0338365*
X0185248Y0338526*
X0212165*
X0231142Y031955*
X0231056Y0318894*
X0231173Y0318006*
X0231515Y0317179*
X023206Y0316469*
X023277Y0315924*
X0233597Y0315581*
X0234485Y0315464*
X0235373Y0315581*
X02362Y0315924*
X023691Y0316469*
X0237455Y0317179*
X0237797Y0318006*
X0237914Y0318894*
X0237797Y0319781*
X0237455Y0320608*
X023691Y0321319*
X02362Y0321864*
X0235373Y0322206*
X0234485Y0322323*
X0234177Y0322282*
X0214452Y0342007*
X021379Y0342449*
X021301Y0342604*
G37*
G36*
X0501565Y035447D02*
X0496466D01*
X0495656Y0354309*
X0494969Y035385*
X049451Y0353163*
X0494349Y0352352*
Y0347254*
X049451Y0346444*
X0494969Y0345757*
X0495656Y0345298*
X0496466Y0345136*
X0501565*
X0502375Y0345298*
X0503062Y0345757*
X0503521Y0346444*
X0503682Y0347254*
Y0352352*
X0503521Y0353163*
X0503062Y035385*
X0502375Y0354309*
X0501565Y035447*
G37*
G36*
X041249Y0343727D02*
X0406673D01*
Y0339747*
X0407642*
X040893Y0339917*
X0410132Y0340414*
X0411163Y0341206*
X0411954Y0342237*
X0412452Y0343438*
X041249Y0343727*
G37*
G36*
X0429295Y0349691D02*
X0425358D01*
X0424074Y0349521*
X0422876Y0349026*
X0421848Y0348237*
X042106Y0347209*
X0420564Y0346011*
X0420395Y0344727*
X0420564Y0343442*
X042106Y0342245*
X0421848Y0341217*
X0422876Y0340428*
X0424074Y0339932*
X0425358Y0339763*
X0429295*
X043058Y0339932*
X0431777Y0340428*
X0432805Y0341217*
X0433594Y0342245*
X043409Y0343442*
X0434259Y0344727*
X043409Y0346011*
X0433594Y0347209*
X0432805Y0348237*
X0431777Y0349026*
X043058Y0349521*
X0429295Y0349691*
G37*
G36*
X0478331Y0348803D02*
X0474781D01*
X0474808Y0348591*
X0475276Y0347462*
X047602Y0346493*
X047699Y0345749*
X0478119Y0345281*
X0478331Y0345253*
Y0348803*
G37*
G36*
X0483881D02*
X0480331D01*
Y0345253*
X0480542Y0345281*
X0481672Y0345749*
X0482641Y0346493*
X0483385Y0347462*
X0483853Y0348591*
X0483881Y0348803*
G37*
G36*
X0404673Y0343727D02*
X0398857D01*
X0398895Y0343438*
X0399392Y0342237*
X0400184Y0341206*
X0401215Y0340414*
X0402416Y0339917*
X0403705Y0339747*
X0404673*
Y0343727*
G37*
G36*
X0315591Y0340495D02*
X0314704Y0340378D01*
X0313877Y0340035*
X0313166Y033949*
X0312621Y033878*
X0312279Y0337953*
X0312162Y0337065*
X0312279Y0336178*
X0312388Y0335914*
X0312078Y0335451*
X0311962Y0334865*
Y0306765*
X0312078Y030618*
X0312132Y0306099*
X0312062Y0305565*
X0312179Y0304678*
X0312521Y0303851*
X0313066Y030314*
X0313777Y0302595*
X0314604Y0302253*
X0315491Y0302136*
X0316379Y0302253*
X0317206Y0302595*
X0317916Y030314*
X0318461Y0303851*
X0318804Y0304678*
X0318921Y0305565*
X0318804Y0306453*
X0318461Y030728*
X0317916Y030799*
X0317206Y0308535*
X0316379Y0308878*
X0315491Y0308995*
X0315397Y0308982*
X0315021Y0309312*
Y0333332*
X0315397Y0333662*
X0315591Y0333636*
X0316479Y0333753*
X0317306Y0334096*
X0318016Y0334641*
X0318561Y0335351*
X0318904Y0336178*
X0319021Y0337065*
X0318904Y0337953*
X0318561Y033878*
X0318016Y033949*
X0317306Y0340035*
X0316479Y0340378*
X0315591Y0340495*
G37*
G36*
X0366891Y0370451D02*
X0365886Y0370319D01*
X0364948Y0369931*
X0364143Y0369313*
X0363526Y0368508*
X0363138Y0367571*
X0363005Y0366565*
X0363138Y036556*
X0363526Y0364622*
X0364143Y0363818*
X0364948Y03632*
X0365886Y0362812*
X0366891Y0362679*
X0367897Y0362812*
X0368834Y03632*
X0369639Y0363818*
X0370257Y0364622*
X0370645Y036556*
X0370777Y0366565*
X0370645Y0367571*
X0370257Y0368508*
X0369639Y0369313*
X0368834Y0369931*
X0367897Y0370319*
X0366891Y0370451*
G37*
G36*
X0356891Y0380451D02*
X0355886Y0380319D01*
X0354948Y0379931*
X0354144Y0379313*
X0353526Y0378508*
X0353138Y0377571*
X0353005Y0376565*
X0353138Y037556*
X0353526Y0374622*
X0354144Y0373817*
X0354948Y03732*
X0355886Y0372812*
X0356891Y0372679*
X0357897Y0372812*
X0358834Y03732*
X0359639Y0373817*
X0360257Y0374622*
X0360645Y037556*
X0360777Y0376565*
X0360645Y0377571*
X0360257Y0378508*
X0359639Y0379313*
X0358834Y0379931*
X0357897Y0380319*
X0356891Y0380451*
G37*
G36*
X0429295Y0366242D02*
X0428327D01*
Y0362262*
X0434143*
X0434105Y0362551*
X0433608Y0363752*
X0432816Y0364783*
X0431785Y0365575*
X0430584Y0366072*
X0429295Y0366242*
G37*
G36*
X0181591Y0384495D02*
X0180704Y0384378D01*
X0179877Y0384035*
X0179166Y038349*
X0178621Y038278*
X0178279Y0381953*
X0178162Y0381065*
X0178258Y038034*
X0178102Y0380107*
X0177954Y0379365*
Y0370268*
X0177722Y0370035*
X0177302Y0369407*
X0177154Y0368665*
Y0367565*
X0176666Y036719*
X0176121Y036648*
X0175779Y0365653*
X0175662Y0364765*
X0175779Y0363878*
X0176121Y0363051*
X0176666Y036234*
X0177377Y0361795*
X0178204Y0361453*
X0179091Y0361336*
X0179979Y0361453*
X0180806Y0361795*
X0181516Y036234*
X0182061Y0363051*
X0182404Y0363878*
X0182521Y0364765*
X0182404Y0365653*
X0182061Y036648*
X0181516Y036719*
X0181199Y0367434*
X018117Y0368005*
X0181261Y0368095*
X0181681Y0368724*
X0181828Y0369465*
Y0377667*
X0182479Y0377753*
X0183306Y0378096*
X0184016Y0378641*
X0184561Y0379351*
X0184904Y0380178*
X0185021Y0381065*
X0184904Y0381953*
X0184561Y038278*
X0184016Y038349*
X0183306Y0384035*
X0182479Y0384378*
X0181591Y0384495*
G37*
G36*
X0426327Y0366242D02*
X0425358D01*
X0424069Y0366072*
X0422868Y0365575*
X0421837Y0364783*
X0421046Y0363752*
X0420548Y0362551*
X042051Y0362262*
X0426327*
Y0366242*
G37*
G36*
X022575Y0391339D02*
X0224487Y0391173D01*
X022331Y0390686*
X02223Y038991*
X0221525Y03889*
X0221037Y0387723*
X0220871Y0386461*
X0221037Y0385198*
X0221525Y0384021*
X02223Y0383011*
X022331Y0382236*
X0224487Y0381748*
X022575Y0381582*
X0227012Y0381748*
X0228189Y0382236*
X0229199Y0383011*
X0229975Y0384021*
X0230462Y0385198*
X0230628Y0386461*
X0230462Y0387723*
X0229975Y03889*
X0229199Y038991*
X0228189Y0390686*
X0227012Y0391173*
X022575Y0391339*
G37*
G36*
X0287891Y0389951D02*
X0286886Y0389819D01*
X0285948Y0389431*
X0285143Y0388813*
X0284526Y0388008*
X0284138Y0387071*
X0284005Y0386065*
X0284138Y038506*
X0284526Y0384122*
X0285143Y0383317*
X0285948Y03827*
X0286886Y0382312*
X0287891Y0382179*
X0288897Y0382312*
X0289834Y03827*
X0290639Y0383317*
X0291257Y0384122*
X0291645Y038506*
X0291777Y0386065*
X0291645Y0387071*
X0291257Y0388008*
X0290639Y0388813*
X0289834Y0389431*
X0288897Y0389819*
X0287891Y0389951*
G37*
G36*
X0208033Y0391339D02*
X020677Y0391173D01*
X0205594Y0390686*
X0204583Y038991*
X0203808Y03889*
X0203321Y0387723*
X0203154Y0386461*
X0203321Y0385198*
X0203808Y0384021*
X0204583Y0383011*
X0205594Y0382236*
X020677Y0381748*
X0208033Y0381582*
X0209296Y0381748*
X0210472Y0382236*
X0211483Y0383011*
X0212258Y0384021*
X0212746Y0385198*
X0212912Y0386461*
X0212746Y0387723*
X0212258Y03889*
X0211483Y038991*
X0210472Y0390686*
X0209296Y0391173*
X0208033Y0391339*
G37*
G36*
X0370744Y0380418D02*
X0363039D01*
Y0372713*
X0370744*
Y0380418*
G37*
G36*
X0564885Y0391027D02*
X0555785D01*
X0555812Y0390816*
X055628Y0389687*
X0556841Y0388955*
X0556595Y0388455*
X055187*
X055096Y0388335*
X0550113Y0387984*
X0549385Y0387426*
X0541458Y0379499*
X0528047*
X0527138Y0379379*
X052629Y0379028*
X0525562Y0378469*
X0516117Y0369024*
X0515559Y0368297*
X0515208Y0367449*
X0515088Y0366539*
Y036267*
X0514556Y0362314*
X0514097Y0361627*
X0513936Y0360817*
Y0355718*
X0514097Y0354908*
X0514556Y0354221*
X0515243Y0353762*
X0516053Y0353601*
X0521152*
X0521962Y0353762*
X0522649Y0354221*
X0523108Y0354908*
X0523269Y0355718*
Y0360817*
X0523108Y0361627*
X0522649Y0362314*
X0522117Y036267*
Y0365084*
X0529503Y037247*
X0542913*
X0543823Y037259*
X054467Y0372941*
X0545398Y0373499*
X0553326Y0381427*
X0557084*
X0557383Y0381387*
X0573484*
X0574394Y0381507*
X0575242Y0381858*
X0575969Y0382417*
X0577583Y0384031*
X0578142Y0384758*
X0578493Y0385606*
X0578613Y0386516*
X0578493Y0387425*
X0578142Y0388273*
X0577583Y0389001*
X0576856Y0389559*
X0576008Y038991*
X0575098Y039003*
X0574189Y038991*
X0573341Y0389559*
X0572613Y0389001*
X0572029Y0388416*
X0564044*
X0563798Y0388916*
X0564389Y0389687*
X0564857Y0390816*
X0564885Y0391027*
G37*
G36*
X0219691Y0368795D02*
X0218804Y0368678D01*
X0217977Y0368335*
X0217266Y036779*
X0216721Y036708*
X0216379Y0366253*
X0216262Y0365365*
X0216379Y0364478*
X0216721Y0363651*
X0217266Y0362941*
X0217977Y0362396*
X0218162Y0362319*
Y0352892*
X0218278Y0352307*
X021861Y0351811*
X0224412Y0346008*
X0224336Y0345823*
X0224219Y0344935*
X0224336Y0344048*
X0224678Y0343221*
X0225223Y0342511*
X0225933Y0341966*
X022676Y0341623*
X0227648Y0341506*
X0228536Y0341623*
X0229363Y0341966*
X0230073Y0342511*
X0230618Y0343221*
X023096Y0344048*
X0231077Y0344935*
X023096Y0345823*
X0230618Y034665*
X0230073Y034736*
X0229363Y0347905*
X0228536Y0348248*
X0227648Y0348365*
X022676Y0348248*
X0226575Y0348171*
X0221221Y0353526*
Y0358005*
X0221721Y0358175*
X02223Y035742*
X022331Y0356645*
X0224487Y0356158*
X022575Y0355991*
X0227012Y0356158*
X0228189Y0356645*
X0229199Y035742*
X0229975Y0358431*
X0230462Y0359607*
X0230628Y036087*
X0230462Y0362133*
X0229975Y036331*
X0229199Y036432*
X0228189Y0365095*
X0227012Y0365583*
X022575Y0365749*
X0224487Y0365583*
X0223605Y0365217*
X0223469Y0365259*
X0223098Y0365536*
X0223004Y0366253*
X0222661Y036708*
X0222116Y036779*
X0221406Y0368335*
X0220579Y0368678*
X0219691Y0368795*
G37*
G36*
X0426327Y0360262D02*
X042051D01*
X0420548Y0359973*
X0421046Y0358772*
X0421837Y0357741*
X0422868Y035695*
X0424069Y0356452*
X0425358Y0356283*
X0426327*
Y0360262*
G37*
G36*
X0208033Y0365749D02*
X020677Y0365583D01*
X0205594Y0365095*
X0204583Y036432*
X0203808Y036331*
X0203321Y0362133*
X0203154Y036087*
X0203321Y0359607*
X0203808Y0358431*
X0204583Y035742*
X0205594Y0356645*
X020677Y0356158*
X0208033Y0355991*
X0209296Y0356158*
X0210472Y0356645*
X0211483Y035742*
X0212258Y0358431*
X0212746Y0359607*
X0212912Y036087*
X0212746Y0362133*
X0212258Y036331*
X0211483Y036432*
X0210472Y0365095*
X0209296Y0365583*
X0208033Y0365749*
G37*
G36*
X0537287Y0357268D02*
X0533737D01*
X0533765Y0357056*
X0534233Y0355927*
X0534977Y0354957*
X0535947Y0354213*
X0537076Y0353745*
X0537287Y0353717*
Y0357268*
G37*
G36*
X054855Y0362784D02*
X0547641Y0362664D01*
X0546793Y0362313*
X0546065Y0361754*
X0545507Y0361027*
X0545156Y0360179*
X0545036Y0359269*
X0545156Y035836*
X0545194Y0358268*
X0542905Y035598*
X0542481Y0356263*
X054281Y0357056*
X0542837Y0357268*
X0539287*
Y0353717*
X0539499Y0353745*
X0540292Y0354074*
X0540575Y035365*
X0511365Y0324439*
X0510926Y0323783*
X0510772Y0323009*
Y029122*
X0510926Y0290446*
X0511365Y028979*
X0515335Y028582*
Y0280807*
X0523209*
Y0288681*
X0518196*
X0514818Y0292058*
Y0294577*
X0515318Y0294609*
X0515346Y02944*
X0515436Y0293716*
X0515833Y0292759*
X0516464Y0291936*
X0517286Y0291305*
X0518244Y0290908*
X0519272Y0290773*
X0520299Y0290908*
X0521257Y0291305*
X052208Y0291936*
X0522711Y0292759*
X0523107Y0293716*
X0523243Y0294744*
X0523107Y0295772*
X0522711Y0296729*
X052208Y0297552*
X0521257Y0298183*
X0520299Y029858*
X0519272Y0298715*
X0518244Y029858*
X0517286Y0298183*
X0516464Y0297552*
X0515833Y0296729*
X0515436Y0295772*
X0515346Y0295088*
X0515318Y0294879*
X0514818Y0294911*
Y0322171*
X054842Y0355772*
X054855Y0355755*
X054946Y0355875*
X0550308Y0356226*
X0551035Y0356785*
X0551594Y0357512*
X0551945Y035836*
X0552065Y0359269*
X0551945Y0360179*
X0551594Y0361027*
X0551035Y0361754*
X0550308Y0362313*
X054946Y0362664*
X054855Y0362784*
G37*
G36*
X0537287Y0362818D02*
X0537076Y036279D01*
X0535947Y0362322*
X0534977Y0361578*
X0534233Y0360609*
X0533765Y0359479*
X0533737Y0359268*
X0537287*
Y0362818*
G37*
G36*
X0539287D02*
Y0359268D01*
X0542837*
X054281Y0359479*
X0542342Y0360609*
X0541598Y0361578*
X0540628Y0362322*
X0539499Y036279*
X0539287Y0362818*
G37*
G36*
X0356891Y0370451D02*
X0355886Y0370319D01*
X0354948Y0369931*
X0354144Y0369313*
X0353526Y0368508*
X0353138Y0367571*
X0353005Y0366565*
X0353138Y036556*
X0353526Y0364622*
X0354144Y0363818*
X0354948Y03632*
X0355316Y0363048*
X0355217Y0362547*
X0355047*
X0354462Y0362431*
X0353965Y03621*
X0350961Y0359095*
X0345464*
X0345404Y0359553*
X0345061Y036038*
X0344516Y036109*
X0343806Y0361635*
X0342979Y0361978*
X0342091Y0362095*
X0341204Y0361978*
X0340377Y0361635*
X0339666Y036109*
X0339121Y036038*
X0338779Y0359553*
X0338662Y0358665*
X0338779Y0357778*
X0339121Y0356951*
X0339666Y0356241*
X0340025Y0355965*
Y0355465*
X0339666Y035519*
X0339121Y035448*
X0338779Y0353653*
X0338662Y0352765*
X0338779Y0351878*
X0339121Y0351051*
X0339666Y0350341*
X0340377Y0349796*
X0341204Y0349453*
X0342091Y0349336*
X0342979Y0349453*
X0343806Y0349796*
X0344516Y0350341*
X0345061Y0351051*
X0345404Y0351878*
X0345521Y0352765*
X0345413Y0353582*
X0345578Y0353829*
X0345783Y0354036*
X0350961*
X0353965Y0351031*
X0354462Y03507*
X0355047Y0350583*
X0355217*
X0355316Y0350083*
X0354948Y0349931*
X0354144Y0349313*
X0353526Y0348508*
X0353138Y0347571*
X0353005Y0346565*
X0353138Y034556*
X0353526Y0344622*
X0354144Y0343817*
X0354948Y03432*
X0355886Y0342812*
X0356891Y0342679*
X0357897Y0342812*
X0358834Y03432*
X0359639Y0343817*
X0360257Y0344622*
X0360645Y034556*
X0360777Y0346565*
X0360645Y0347571*
X0360257Y0348508*
X0359639Y0349313*
X0358834Y0349931*
X0358466Y0350083*
X0358566Y0350583*
X0359127*
X0359466Y0350141*
X0360177Y0349595*
X0361004Y0349253*
X0361891Y0349136*
X0362779Y0349253*
X0363606Y0349595*
X0364316Y0350141*
X0364861Y0350851*
X0365204Y0351678*
X0365313Y0352508*
X036546Y0352686*
X0365716Y0352882*
X0365886Y0352812*
X0366891Y0352679*
X0367897Y0352812*
X0368834Y03532*
X0369639Y0353818*
X0370257Y0354622*
X0370645Y035556*
X0370777Y0356565*
X0370645Y0357571*
X0370257Y0358508*
X0369639Y0359313*
X0368834Y0359931*
X0367897Y0360319*
X0366891Y0360451*
X0365886Y0360319*
X0365716Y0360249*
X036546Y0360445*
X0365313Y0360623*
X0365204Y0361453*
X0364861Y036228*
X0364316Y036299*
X0363606Y0363535*
X0362779Y0363878*
X0361891Y0363995*
X0361004Y0363878*
X0360177Y0363535*
X0359466Y036299*
X0359127Y0362547*
X0358566*
X0358466Y0363048*
X0358834Y03632*
X0359639Y0363818*
X0360257Y0364622*
X0360645Y036556*
X0360777Y0366565*
X0360645Y0367571*
X0360257Y0368508*
X0359639Y0369313*
X0358834Y0369931*
X0357897Y0370319*
X0356891Y0370451*
G37*
G36*
X0434143Y0360262D02*
X0428327D01*
Y0356283*
X0429295*
X0430584Y0356452*
X0431785Y035695*
X0432816Y0357741*
X0433608Y0358772*
X0434105Y0359973*
X0434143Y0360262*
G37*
G36*
X0407642Y0366226D02*
X0403705D01*
X040242Y0366057*
X0401223Y0365561*
X0400195Y0364772*
X0399406Y0363744*
X039891Y0362547*
X0398741Y0361262*
X039891Y0359978*
X0399406Y035878*
X0400195Y0357752*
X0401223Y0356963*
X040242Y0356468*
X0403705Y0356298*
X0407642*
X0408926Y0356468*
X0410124Y0356963*
X0411152Y0357752*
X041194Y035878*
X0412436Y0359978*
X0412605Y0361262*
X0412436Y0362547*
X041194Y0363744*
X0411152Y0364772*
X0410124Y0365561*
X0408926Y0366057*
X0407642Y0366226*
G37*
G36*
X04925Y0329291D02*
X0492077Y0329249D01*
X0490708Y0328834*
X0489447Y032816*
X0488342Y0327253*
X0487434Y0326147*
X048676Y0324886*
X0486345Y0323518*
X0486304Y0323095*
X04925*
Y0329291*
G37*
G36*
X0475407Y0286094D02*
X0472D01*
Y0282687*
X0472175Y028271*
X0473269Y0283164*
X0474209Y0283885*
X0474931Y0284825*
X0475384Y028592*
X0475407Y0286094*
G37*
G36*
X0194291Y031851D02*
X0191813Y0318314D01*
X0189395Y0317734*
X0187098Y0316782*
X0184978Y0315483*
X0183088Y0313869*
X0181473Y0311978*
X0180174Y0309858*
X0179223Y0307561*
X0178642Y0305144*
X0178447Y0302665*
X0178642Y0300187*
X0179223Y0297769*
X0180174Y0295472*
X0181473Y0293352*
X0183088Y0291462*
X0184978Y0289847*
X0187098Y0288548*
X0189395Y0287597*
X0191813Y0287016*
X0194291Y0286821*
X019677Y0287016*
X0199187Y0287597*
X0201484Y0288548*
X0203604Y0289847*
X0205495Y0291462*
X0207109Y0293352*
X0208408Y0295472*
X020936Y0297769*
X020994Y0300187*
X0210135Y0302665*
X020994Y0305144*
X020936Y0307561*
X0208408Y0309858*
X0207109Y0311978*
X0205495Y0313869*
X0203604Y0315483*
X0201484Y0316782*
X0199187Y0317734*
X019677Y0318314*
X0194291Y031851*
G37*
G36*
X047Y0286094D02*
X0466593D01*
X0466616Y028592*
X0467069Y0284825*
X0467791Y0283885*
X0468731Y0283164*
X0469825Y028271*
X047Y0282687*
Y0286094*
G37*
G36*
X0461Y0291617D02*
X0459829Y0291463D01*
X0458739Y0291011*
X0457802Y0290293*
X0457083Y0289356*
X0456631Y0288265*
X0456477Y0287094*
X0456631Y0285924*
X0457083Y0284833*
X0457802Y0283896*
X0458739Y0283177*
X0459829Y0282726*
X0461Y0282572*
X0462171Y0282726*
X0463261Y0283177*
X0464198Y0283896*
X0464917Y0284833*
X0465369Y0285924*
X0465523Y0287094*
X0465369Y0288265*
X0464917Y0289356*
X0464198Y0290293*
X0463261Y0291011*
X0462171Y0291463*
X0461Y0291617*
G37*
G36*
X0481D02*
X0479829Y0291463D01*
X0478738Y0291011*
X0477802Y0290293*
X0477083Y0289356*
X0476631Y0288265*
X0476477Y0287094*
X0476631Y0285924*
X0477083Y0284833*
X0477802Y0283896*
X0478738Y0283177*
X0479829Y0282726*
X0481Y0282572*
X0482171Y0282726*
X0483261Y0283177*
X0484198Y0283896*
X0484917Y0284833*
X0485369Y0285924*
X0485523Y0287094*
X0485369Y0288265*
X0484917Y0289356*
X0484198Y0290293*
X0483261Y0291011*
X0482171Y0291463*
X0481Y0291617*
G37*
G36*
X0472Y0291502D02*
Y0288094D01*
X0475407*
X0475384Y0288269*
X0474931Y0289364*
X0474209Y0290304*
X0473269Y0291025*
X0472175Y0291479*
X0472Y0291502*
G37*
G36*
X0343491Y0323495D02*
X0342604Y0323378D01*
X0341777Y0323035*
X0341066Y032249*
X0340521Y032178*
X0340179Y0320953*
X0340062Y0320065*
X0340179Y0319178*
X0340521Y0318351*
X0341066Y031764*
X0341777Y0317095*
X0342604Y0316753*
X0343491Y0316636*
X0344379Y0316753*
X0345206Y0317095*
X0345517Y0317334*
X0346703Y0316148*
X0346524Y031562*
X0346204Y0315578*
X0345377Y0315235*
X0344666Y031469*
X0344121Y031398*
X0343779Y0313153*
X0343662Y0312265*
X0343779Y0311378*
X0344121Y0310551*
X0344666Y030984*
X0345377Y0309296*
X0346204Y0308953*
X0347091Y0308836*
X0347415Y0308879*
X0349662Y0306632*
Y0292999*
X0347661Y0290998*
X0343738*
X0343152Y0290881*
X0342656Y029055*
X0341226Y028912*
X0341206Y0289135*
X0340379Y0289478*
X0339491Y0289595*
X0338604Y0289478*
X0337777Y0289135*
X0337066Y028859*
X0336521Y028788*
X0336179Y0287053*
X0336062Y0286165*
X0336179Y0285278*
X0336521Y0284451*
X0337066Y028374*
X0337777Y0283195*
X0338604Y0282853*
X0339491Y0282736*
X0340379Y0282853*
X0341206Y0283195*
X0341892Y0283722*
X0341971Y0283763*
X0342488Y0283664*
X0342966Y028304*
X0343677Y0282495*
X0344504Y0282153*
X0345391Y0282036*
X0346279Y0282153*
X0347106Y0282495*
X0347816Y028304*
X0348361Y0283751*
X0348704Y0284578*
X0348751Y0284933*
X0354273Y0290456*
X0354604Y0290952*
X0354721Y0291537*
Y0308094*
X0354604Y0308679*
X0354273Y0309175*
X0352621Y0310827*
Y0313922*
X0352504Y0314508*
X0352173Y0315004*
X0346892Y0320285*
X0346804Y0320953*
X0346461Y032178*
X0345916Y032249*
X0345206Y0323035*
X0344379Y0323378*
X0343491Y0323495*
G37*
G36*
X047Y0291502D02*
X0469825Y0291479D01*
X0468731Y0291025*
X0467791Y0290304*
X0467069Y0289364*
X0466616Y0288269*
X0466593Y0288094*
X047*
Y0291502*
G37*
G36*
X0277087Y0291976D02*
X0275868D01*
Y0287848*
X0281867*
X0281799Y028836*
X0281312Y0289537*
X0280536Y0290547*
X0279526Y0291323*
X0278349Y029181*
X0277087Y0291976*
G37*
G36*
X0274368D02*
X027315D01*
X0271887Y029181*
X027071Y0291323*
X02697Y0290547*
X0268924Y0289537*
X0268437Y028836*
X026837Y0287848*
X0274368*
Y0291976*
G37*
G36*
X0607813Y0289646D02*
X0604313D01*
X0603599Y0289552*
X0602934Y0289276*
X0602363Y0288838*
X0601925Y0288267*
X0601649Y0287601*
X0601555Y0286888*
Y0283388*
X0601649Y0282674*
X0601925Y0282009*
X0602363Y0281438*
X0602934Y0280999*
X0603599Y0280724*
X0604313Y028063*
X0607813*
X0608527Y0280724*
X0609192Y0280999*
X0609763Y0281438*
X0610201Y0282009*
X0610477Y0282674*
X0610571Y0283388*
Y0286888*
X0610477Y0287601*
X0610201Y0288267*
X0609763Y0288838*
X0609192Y0289276*
X0608527Y0289552*
X0607813Y0289646*
G37*
G36*
X0529272Y0288715D02*
X0528244Y028858D01*
X0527286Y0288183*
X0526464Y0287552*
X0525833Y028673*
X0525436Y0285772*
X0525301Y0284744*
X0525436Y0283716*
X0525833Y0282759*
X0526464Y0281936*
X0527286Y0281305*
X0528244Y0280908*
X0529272Y0280773*
X0530299Y0280908*
X0531257Y0281305*
X053208Y0281936*
X0532711Y0282759*
X0533107Y0283716*
X0533243Y0284744*
X0533107Y0285772*
X0532711Y028673*
X053208Y0287552*
X0531257Y0288183*
X0530299Y028858*
X0529272Y0288715*
G37*
G36*
X0596063Y0289661D02*
X0594892Y0289507D01*
X0593801Y0289055*
X0592865Y0288336*
X0592146Y0287399*
X0591694Y0286308*
X059154Y0285138*
X0591694Y0283967*
X0592146Y0282876*
X0592865Y028194*
X0593801Y0281221*
X0594892Y0280769*
X0596063Y0280615*
X0597234Y0280769*
X0598324Y0281221*
X0599261Y028194*
X059998Y0282876*
X0600432Y0283967*
X0600586Y0285138*
X0600432Y0286308*
X059998Y0287399*
X0599261Y0288336*
X0598324Y0289055*
X0597234Y0289507*
X0596063Y0289661*
G37*
G36*
X0642126Y0288428D02*
X0640841Y0288259D01*
X0639644Y0287763*
X0638616Y0286974*
X0637827Y0285946*
X0637331Y0284749*
X0637162Y0283465*
Y0279527*
X0637331Y0278243*
X0637827Y0277046*
X0638616Y0276018*
X0639644Y0275229*
X0640841Y0274733*
X0642126Y0274564*
X0643411Y0274733*
X0644608Y0275229*
X0645636Y0276018*
X0646425Y0277046*
X0646921Y0278243*
X064709Y0279527*
Y0283465*
X0646921Y0284749*
X0646425Y0285946*
X0645636Y0286974*
X0644608Y0287763*
X0643411Y0288259*
X0642126Y0288428*
G37*
G36*
X0586063Y0289661D02*
X0584892Y0289507D01*
X0583802Y0289055*
X0582865Y0288336*
X0582146Y0287399*
X0581694Y0286308*
X058154Y0285138*
X0581694Y0283967*
X0582146Y0282876*
X0582865Y028194*
X0583802Y0281221*
X0584892Y0280769*
X0586063Y0280615*
X0587234Y0280769*
X0588324Y0281221*
X0589261Y028194*
X058998Y0282876*
X0590432Y0283967*
X0590586Y0285138*
X0590432Y0286308*
X058998Y0287399*
X0589261Y0288336*
X0588324Y0289055*
X0587234Y0289507*
X0586063Y0289661*
G37*
G36*
X0274368Y0286348D02*
X026837D01*
X0268437Y0285835*
X0268924Y0284658*
X02697Y0283648*
X027071Y0282873*
X0271887Y0282385*
X027315Y0282219*
X0274368*
Y0286348*
G37*
G36*
X0275868D02*
Y0282219D01*
X0277087*
X0278349Y0282385*
X0279526Y0282873*
X0280536Y0283648*
X0281312Y0284658*
X0281799Y0285835*
X0281867Y0286348*
X0275868*
G37*
G36*
X0559272Y0288715D02*
X0558244Y028858D01*
X0557286Y0288183*
X0556464Y0287552*
X0555833Y028673*
X0555436Y0285772*
X0555301Y0284744*
X0555436Y0283716*
X0555833Y0282759*
X0556464Y0281936*
X0557286Y0281305*
X0558244Y0280908*
X0559272Y0280773*
X0560299Y0280908*
X0561257Y0281305*
X0562079Y0281936*
X0562711Y0282759*
X0563107Y0283716*
X0563243Y0284744*
X0563107Y0285772*
X0562711Y028673*
X0562079Y0287552*
X0561257Y0288183*
X0560299Y028858*
X0559272Y0288715*
G37*
G36*
X0539272D02*
X0538244Y028858D01*
X0537286Y0288183*
X0536464Y0287552*
X0535833Y028673*
X0535436Y0285772*
X0535301Y0284744*
X0535436Y0283716*
X0535833Y0282759*
X0536464Y0281936*
X0537286Y0281305*
X0538244Y0280908*
X0539272Y0280773*
X0540299Y0280908*
X0541257Y0281305*
X0542079Y0281936*
X0542711Y0282759*
X0543107Y0283716*
X0543243Y0284744*
X0543107Y0285772*
X0542711Y028673*
X0542079Y0287552*
X0541257Y0288183*
X0540299Y028858*
X0539272Y0288715*
G37*
G36*
X0549272D02*
X0548244Y028858D01*
X0547286Y0288183*
X0546464Y0287552*
X0545833Y028673*
X0545436Y0285772*
X0545301Y0284744*
X0545436Y0283716*
X0545833Y0282759*
X0546464Y0281936*
X0547286Y0281305*
X0548244Y0280908*
X0549272Y0280773*
X0550299Y0280908*
X0551257Y0281305*
X0552079Y0281936*
X0552711Y0282759*
X0553107Y0283716*
X0553243Y0284744*
X0553107Y0285772*
X0552711Y028673*
X0552079Y0287552*
X0551257Y0288183*
X0550299Y028858*
X0549272Y0288715*
G37*
G36*
X04525Y0321094D02*
X0446304D01*
X0446345Y0320671*
X044676Y0319303*
X0447434Y0318042*
X0448342Y0316936*
X0449447Y0316029*
X0450708Y0315355*
X0452077Y031494*
X04525Y0314898*
Y0321094*
G37*
G36*
X0460697D02*
X04545D01*
Y0314898*
X0454923Y031494*
X0456292Y0315355*
X0457553Y0316029*
X0458658Y0316936*
X0459565Y0318042*
X046024Y0319303*
X0460655Y0320671*
X0460697Y0321094*
G37*
G36*
X0181557Y0333895D02*
X018067Y0333778D01*
X0179843Y0333435*
X0179132Y033289*
X0178587Y033218*
X0178245Y0331353*
X0178128Y0330465*
X0178245Y0329578*
X0178587Y0328751*
X0179132Y0328041*
X0179843Y0327496*
X018067Y0327153*
X0181557Y0327036*
X0182049Y0327101*
X0182677Y0326681*
X0183457Y0326526*
X0202383*
X0221296Y0307613*
X0221957Y0307171*
X0222738Y0307016*
X0239075*
X0239855Y0307171*
X0240517Y0307613*
X0245141Y0312237*
X0245583Y0312899*
X0245738Y0313679*
Y031814*
X0246124Y0318436*
X0246669Y0319146*
X0247011Y0319973*
X0247128Y0320861*
X0247011Y0321748*
X0246669Y0322576*
X0246124Y0323286*
X0245414Y0323831*
X0244586Y0324173*
X0243699Y032429*
X0242811Y0324173*
X0241984Y0323831*
X0241274Y0323286*
X0240729Y0322576*
X0240386Y0321748*
X024027Y0320861*
X0240386Y0319973*
X0240729Y0319146*
X0241274Y0318436*
X024166Y031814*
Y0314524*
X023823Y0311094*
X0223582*
X0204669Y0330007*
X0204008Y0330449*
X0203227Y0330605*
X0184968*
X018487Y0331353*
X0184527Y033218*
X0183982Y033289*
X0183272Y0333435*
X0182445Y0333778*
X0181557Y0333895*
G37*
G36*
X054124Y0307943D02*
X0540331Y0307824D01*
X0539483Y0307473*
X0538755Y0306914*
X0538197Y0306186*
X0537846Y0305339*
X0537726Y0304429*
X0537802Y0303852*
X0531753Y0297803*
X0531257Y0298183*
X0530299Y029858*
X0529272Y0298715*
X0528244Y029858*
X0527286Y0298183*
X0526464Y0297552*
X0525833Y0296729*
X0525436Y0295772*
X0525301Y0294744*
X0525436Y0293716*
X0525833Y0292759*
X0526464Y0291936*
X0527286Y0291305*
X0528244Y0290908*
X0529272Y0290773*
X0530299Y0290908*
X0531257Y0291305*
X053208Y0291936*
X0532711Y0292759*
X0532923Y0293272*
X0532986Y0293314*
X0534885Y0295213*
X0535333Y0294991*
X0535301Y0294744*
X0535436Y0293716*
X0535833Y0292759*
X0536464Y0291936*
X0537286Y0291305*
X0538244Y0290908*
X0539272Y0290773*
X0540299Y0290908*
X0541257Y0291305*
X0542079Y0291936*
X0542711Y0292759*
X0543107Y0293716*
X0543243Y0294744*
X0543107Y0295772*
X0542711Y0296729*
X0542079Y0297552*
X0541257Y0298183*
X0540299Y029858*
X0539272Y0298715*
X0539024Y0298682*
X0538803Y0299131*
X0540663Y0300991*
X054124Y0300915*
X054215Y0301034*
X0542997Y0301386*
X0543725Y0301944*
X0544284Y0302672*
X0544635Y030352*
X0544755Y0304429*
X0544635Y0305339*
X0544284Y0306186*
X0543725Y0306914*
X0542997Y0307473*
X054215Y0307824*
X054124Y0307943*
G37*
G36*
X0252715Y0308512D02*
X0251496D01*
X0250233Y0308346*
X0249057Y0307858*
X0248046Y0307083*
X0247271Y0306072*
X0246784Y0304896*
X0246716Y0304383*
X0252715*
Y0308512*
G37*
G36*
X04525Y0329291D02*
X0452077Y0329249D01*
X0450708Y0328834*
X0449447Y032816*
X0448342Y0327253*
X0447434Y0326147*
X044676Y0324886*
X0446345Y0323518*
X0446304Y0323095*
X04525*
Y0329291*
G37*
G36*
X04545D02*
Y0323095D01*
X0460697*
X0460655Y0323518*
X046024Y0324886*
X0459565Y0326147*
X0458658Y0327253*
X0457553Y032816*
X0456292Y0328834*
X0454923Y0329249*
X04545Y0329291*
G37*
G36*
X0531102Y0327825D02*
X0530193Y0327706D01*
X0529345Y0327355*
X0528617Y0326796*
X0528059Y0326068*
X0527708Y0325221*
X0527588Y0324311*
X0527708Y0323401*
X0528059Y0322554*
X0528617Y0321826*
X0529345Y0321268*
X0530193Y0320916*
X0531102Y0320797*
X0532012Y0320916*
X053286Y0321268*
X0533548Y0321796*
X0535481*
X0536337Y032094*
X0536249Y0320276*
X0536369Y0319366*
X053672Y0318518*
X0537279Y0317791*
X0538006Y0317232*
X0538854Y0316881*
X0539764Y0316761*
X0540673Y0316881*
X0541521Y0317232*
X0542249Y0317791*
X0542807Y0318518*
X0543158Y0319366*
X0543278Y0320276*
X0543158Y0321185*
X0542807Y0322033*
X0542249Y0322761*
X0541521Y0323319*
X0540673Y032367*
X0539764Y032379*
X0539274Y0323725*
X0537749Y0325249*
X0537093Y0325688*
X0536319Y0325842*
X0534239*
X0534146Y0326068*
X0533587Y0326796*
X053286Y0327355*
X0532012Y0327706*
X0531102Y0327825*
G37*
G36*
X04925Y0321094D02*
X0486304D01*
X0486345Y0320671*
X048676Y0319303*
X0487434Y0318042*
X0488342Y0316936*
X0489447Y0316029*
X0490708Y0315355*
X0492077Y031494*
X04925Y0314898*
Y0321094*
G37*
G36*
X0500697D02*
X04945D01*
Y0314898*
X0494923Y031494*
X0496292Y0315355*
X0497553Y0316029*
X0498658Y0316936*
X0499566Y0318042*
X050024Y0319303*
X0500655Y0320671*
X0500697Y0321094*
G37*
G36*
X0486Y0301617D02*
X0484829Y0301463D01*
X0483739Y0301011*
X0482802Y0300293*
X0482083Y0299356*
X0481631Y0298265*
X0481477Y0297094*
X0481631Y0295924*
X0482083Y0294833*
X0482802Y0293896*
X0483739Y0293178*
X0484829Y0292726*
X0486Y0292571*
X0487171Y0292726*
X0488261Y0293178*
X0489198Y0293896*
X0489917Y0294833*
X0490369Y0295924*
X0490523Y0297094*
X0490369Y0298265*
X0489917Y0299356*
X0489198Y0300293*
X0488261Y0301011*
X0487171Y0301463*
X0486Y0301617*
G37*
G36*
X0475Y0296094D02*
X0471593D01*
X0471616Y029592*
X0472069Y0294825*
X047279Y0293885*
X0473731Y0293164*
X0474825Y029271*
X0475Y0292687*
Y0296094*
G37*
G36*
X0466Y0301617D02*
X0464829Y0301463D01*
X0463738Y0301011*
X0462802Y0300293*
X0462083Y0299356*
X0461631Y0298265*
X0461477Y0297094*
X0461631Y0295924*
X0462083Y0294833*
X0462802Y0293896*
X0463738Y0293178*
X0464829Y0292726*
X0466Y0292571*
X0467171Y0292726*
X0468261Y0293178*
X0469198Y0293896*
X0469917Y0294833*
X0470369Y0295924*
X0470523Y0297094*
X0470369Y0298265*
X0469917Y0299356*
X0469198Y0300293*
X0468261Y0301011*
X0467171Y0301463*
X0466Y0301617*
G37*
G36*
X0549272Y0298715D02*
X0548244Y029858D01*
X0547286Y0298183*
X0546464Y0297552*
X0545833Y0296729*
X0545436Y0295772*
X0545301Y0294744*
X0545436Y0293716*
X0545833Y0292759*
X0546464Y0291936*
X0547286Y0291305*
X0548244Y0290908*
X0549272Y0290773*
X0550299Y0290908*
X0551257Y0291305*
X0552079Y0291936*
X0552711Y0292759*
X0553107Y0293716*
X0553243Y0294744*
X0553107Y0295772*
X0552711Y0296729*
X0552079Y0297552*
X0551257Y0298183*
X0550299Y029858*
X0549272Y0298715*
G37*
G36*
X0559272D02*
X0558244Y029858D01*
X0557286Y0298183*
X0556464Y0297552*
X0555833Y0296729*
X0555436Y0295772*
X0555301Y0294744*
X0555436Y0293716*
X0555833Y0292759*
X0556464Y0291936*
X0557286Y0291305*
X0558244Y0290908*
X0559272Y0290773*
X0560299Y0290908*
X0561257Y0291305*
X0562079Y0291936*
X0562711Y0292759*
X0563107Y0293716*
X0563243Y0294744*
X0563107Y0295772*
X0562711Y0296729*
X0562079Y0297552*
X0561257Y0298183*
X0560299Y029858*
X0559272Y0298715*
G37*
G36*
X0477Y0301502D02*
Y0298095D01*
X0480407*
X0480384Y0298269*
X0479931Y0299364*
X0479209Y0300304*
X0478269Y0301025*
X0477175Y0301479*
X0477Y0301502*
G37*
G36*
X0252715Y0302883D02*
X0246716D01*
X0246784Y030237*
X0247271Y0301194*
X0248046Y0300183*
X0249057Y0299408*
X0250233Y0298921*
X0251496Y0298754*
X0252715*
Y0302883*
G37*
G36*
X0475Y0301502D02*
X0474825Y0301479D01*
X0473731Y0301025*
X047279Y0300304*
X0472069Y0299364*
X0471616Y0298269*
X0471593Y0298095*
X0475*
Y0301502*
G37*
G36*
X0480407Y0296094D02*
X0477D01*
Y0292687*
X0477175Y029271*
X0478269Y0293164*
X0479209Y0293885*
X0479931Y0294825*
X0480384Y029592*
X0480407Y0296094*
G37*
G36*
X0366891Y0350451D02*
X0365886Y0350319D01*
X0364948Y0349931*
X0364143Y0349313*
X0363526Y0348508*
X0363138Y0347571*
X0363005Y0346565*
X0363138Y034556*
X0363526Y0344622*
X0363691Y0344408*
X0363921Y0343851*
X0364466Y0343141*
X0366679Y0340928*
X03665Y03404*
X0365886Y0340319*
X0364948Y0339931*
X0364143Y0339313*
X0363526Y0338508*
X0363138Y0337571*
X0363005Y0336565*
X0363138Y033556*
X0363526Y0334622*
X0364143Y0333818*
X0364948Y03332*
X0365886Y0332812*
X0366891Y0332679*
X0366955Y0332688*
X036726Y0332291*
X036716Y033205*
X0367043Y0331162*
Y0306637*
X0362831Y0302425*
X0362286Y0301715*
X0361944Y0300888*
X0361827Y03*
X0361944Y0299112*
X0362286Y0298285*
X0362831Y0297575*
X0363541Y029703*
X0364368Y0296688*
X0365256Y0296571*
X0366144Y0296688*
X0366971Y029703*
X0367681Y0297575*
X0372897Y0302792*
X0373442Y0303502*
X0373785Y0304329*
X0373902Y0305217*
Y0329742*
X0375669Y0331509*
X0376214Y0332219*
X0376557Y0333046*
X0376673Y0333934*
Y0339213*
X0376557Y03401*
X0376214Y0340927*
X0375669Y0341637*
X0370773Y0346533*
X0370777Y0346565*
X0370645Y0347571*
X0370257Y0348508*
X0369639Y0349313*
X0368834Y0349931*
X0367897Y0350319*
X0366891Y0350451*
G37*
G36*
X0297891Y0389951D02*
X0296886Y0389819D01*
X0295948Y0389431*
X0295144Y0388813*
X0294526Y0388008*
X0294138Y0387071*
X0294005Y0386065*
X0294138Y038506*
X0294526Y0384122*
X0295144Y0383317*
X0295948Y03827*
X0296886Y0382312*
X0297891Y0382179*
X0298897Y0382312*
X0299834Y03827*
X0300639Y0383317*
X0301257Y0384122*
X0301645Y038506*
X0301777Y0386065*
X0301645Y0387071*
X0301257Y0388008*
X0300639Y0388813*
X0299834Y0389431*
X0298897Y0389819*
X0297891Y0389951*
G37*
G36*
X0574622Y0507354D02*
Y0501909D01*
X0580067*
X058004Y0502186*
X0579667Y0503413*
X0579063Y0504545*
X0578249Y0505536*
X0577257Y050635*
X0576126Y0506955*
X0574898Y0507327*
X0574622Y0507354*
G37*
G36*
X0596244D02*
X0595967Y0507327D01*
X059474Y0506955*
X0593609Y050635*
X0592617Y0505536*
X0591804Y0504545*
X0591199Y0503413*
X0590827Y0502186*
X0590799Y0501909*
X0596244*
Y0507354*
G37*
G36*
X055376Y0514901D02*
X0546043D01*
X0545355Y051481*
X0544713Y0514544*
X0544162Y0514121*
X0543739Y051357*
X0543473Y0512929*
X0543383Y051224*
Y0504524*
X0543473Y0503835*
X0543739Y0503193*
X0544162Y0502642*
X0544713Y0502219*
X0545355Y0501954*
X0546043Y0501863*
X055376*
X0554449Y0501954*
X055509Y0502219*
X0555641Y0502642*
X0556064Y0503193*
X055633Y0503835*
X0556421Y0504524*
Y051224*
X055633Y0512929*
X0556064Y051357*
X0555641Y0514121*
X055509Y0514544*
X0554449Y051481*
X055376Y0514901*
G37*
G36*
X0572622Y0507354D02*
X0572345Y0507327D01*
X0571118Y0506955*
X0569987Y050635*
X0568995Y0505536*
X0568181Y0504545*
X0567577Y0503413*
X0567204Y0502186*
X0567177Y0501909*
X0572622*
Y0507354*
G37*
G36*
X0598244D02*
Y0501909D01*
X0603689*
X0603662Y0502186*
X0603289Y0503413*
X0602685Y0504545*
X0601871Y0505536*
X0600879Y050635*
X0599748Y0506955*
X0598521Y0507327*
X0598244Y0507354*
G37*
G36*
X0503498Y0545949D02*
X0502493Y0545817D01*
X0501555Y0545428*
X0500751Y0544811*
X0500133Y0544006*
X0499745Y0543069*
X0499612Y0542063*
X0499745Y0541057*
X0500133Y054012*
X0500751Y0539315*
X0501555Y0538698*
X0502493Y0538309*
X0503498Y0538177*
X0504504Y0538309*
X0505441Y0538698*
X0506246Y0539315*
X0506864Y054012*
X0507252Y0541057*
X0507384Y0542063*
X0507252Y0543069*
X0506864Y0544006*
X0506246Y0544811*
X0505441Y0545428*
X0504504Y0545817*
X0503498Y0545949*
G37*
G36*
X0421048Y0541713D02*
X0418011D01*
X0418045Y0541457*
X0418433Y054052*
X0419051Y0539715*
X0419855Y0539098*
X0420793Y0538709*
X0421048Y0538676*
Y0541713*
G37*
G36*
X024249Y0512714D02*
X0241536Y0512589D01*
X0240646Y051222*
X0239882Y0511634*
X0239297Y0510871*
X0238928Y0509981*
X0238803Y0509027*
X0238928Y0508073*
X0239297Y0507183*
X0239882Y050642*
X0240646Y0505834*
X0241536Y0505465*
X024249Y0505339*
X0243444Y0505465*
X0244334Y0505834*
X0245097Y050642*
X0245683Y0507183*
X0246052Y0508073*
X0246177Y0509027*
X0246052Y0509981*
X0245683Y0510871*
X0245097Y0511634*
X0244334Y051222*
X0243444Y0512589*
X024249Y0512714*
G37*
G36*
X0505565Y0535951D02*
X0501432D01*
X0500735Y0535812*
X0500144Y0535417*
X0499749Y0534827*
X0499611Y053413*
Y0529996*
X0499749Y0529299*
X0500144Y0528709*
X0500735Y0528314*
X0501432Y0528175*
X0505565*
X0506262Y0528314*
X0506853Y0528709*
X0507247Y0529299*
X0507386Y0529996*
Y053413*
X0507247Y0534827*
X0506853Y0535417*
X0506262Y0535812*
X0505565Y0535951*
G37*
G36*
X0229491Y0541795D02*
X0228604Y0541678D01*
X0227777Y0541335*
X0227066Y054079*
X0226521Y054008*
X0226179Y0539253*
X0226062Y0538365*
X0226179Y0537478*
X0226521Y0536651*
X0227066Y053594*
X0227777Y0535395*
X0228604Y0535053*
X0229491Y0534936*
X0230379Y0535053*
X0231206Y0535395*
X0231916Y053594*
X0232233Y0535961*
X0242839Y0525354*
X0243335Y0525023*
X0243921Y0524907*
X0303287*
X0309862Y0518332*
Y0512665*
X0309978Y051208*
X031031Y0511584*
X0316656Y0505238*
X0316579Y0505053*
X0316462Y0504165*
X0316579Y0503278*
X0316921Y0502451*
X0317466Y050174*
X0318177Y0501195*
X0319004Y0500853*
X0319891Y0500736*
X0320779Y0500853*
X0321606Y0501195*
X0322316Y050174*
X0322861Y0502451*
X0323204Y0503278*
X0323321Y0504165*
X0323204Y0505053*
X0322861Y050588*
X0322316Y050659*
X0321606Y0507135*
X0320779Y0507478*
X0319891Y0507595*
X0319004Y0507478*
X0318818Y0507401*
X0312921Y0513299*
Y0518965*
X0312804Y0519551*
X0312473Y0520047*
X0305002Y0527517*
X0304506Y0527849*
X0303921Y0527965*
X0244554*
X0233073Y0539447*
X023259Y053977*
X0232461Y054008*
X0231916Y054079*
X0231206Y0541335*
X0230379Y0541678*
X0229491Y0541795*
G37*
G36*
X0596244Y0499909D02*
X0590799D01*
X0590827Y0499633*
X0591199Y0498405*
X0591804Y0497274*
X0592617Y0496283*
X0593609Y0495469*
X059474Y0494864*
X0595967Y0494492*
X0596244Y0494465*
Y0499909*
G37*
G36*
X0603689D02*
X0598244D01*
Y0494465*
X0598521Y0494492*
X0599748Y0494864*
X0600879Y0495469*
X0601871Y0496283*
X0602685Y0497274*
X0603289Y0498405*
X0603662Y0499633*
X0603689Y0499909*
G37*
G36*
X0572622D02*
X0567177D01*
X0567204Y0499633*
X0567577Y0498405*
X0568181Y0497274*
X0568995Y0496283*
X0569987Y0495469*
X0571118Y0494864*
X0572345Y0494492*
X0572622Y0494465*
Y0499909*
G37*
G36*
X0580067D02*
X0574622D01*
Y0494465*
X0574898Y0494492*
X0576126Y0494864*
X0577257Y0495469*
X0578249Y0496283*
X0579063Y0497274*
X0579667Y0498405*
X058004Y0499633*
X0580067Y0499909*
G37*
G36*
X0256941Y0498915D02*
X0251756D01*
Y0497565*
X0251896Y0496863*
X0252294Y0496268*
X0252889Y049587*
X0253591Y049573*
X0256941*
Y0498915*
G37*
G36*
Y0503601D02*
X0253591D01*
X0252889Y0503461*
X0252294Y0503063*
X0251896Y0502468*
X0251756Y0501765*
Y0500415*
X0256941*
Y0503601*
G37*
G36*
X0261791D02*
X0258441D01*
Y0500415*
X0263627*
Y0501765*
X0263487Y0502468*
X0263089Y0503063*
X0262494Y0503461*
X0261791Y0503601*
G37*
G36*
X0263627Y0498915D02*
X0258441D01*
Y049573*
X0261791*
X0262494Y049587*
X0263089Y0496268*
X0263487Y0496863*
X0263627Y0497565*
Y0498915*
G37*
G36*
X0169102Y0522267D02*
X0167942Y0522114D01*
X0166861Y0521666*
X0165933Y0520954*
X0165221Y0520026*
X0164773Y0518945*
X016462Y0517785*
X0164773Y0516625*
X0165221Y0515545*
X0165933Y0514616*
X0166861Y0513904*
X0167063Y0513821*
Y0502555*
X0167218Y0501774*
X016766Y0501113*
X0168134Y0500638*
X0168232Y04999*
X0168574Y0499073*
X0169119Y0498362*
X0169829Y0497818*
X0170657Y0497475*
X0171544Y0497358*
X0172432Y0497475*
X0173259Y0497818*
X0173969Y0498362*
X0174514Y0499073*
X0174857Y04999*
X0174973Y0500787*
X0174857Y0501675*
X0174514Y0502502*
X0173969Y0503212*
X0173259Y0503757*
X0172432Y05041*
X0171544Y0504217*
X0171517Y0504213*
X0171141Y0504543*
Y0513821*
X0171343Y0513904*
X0172271Y0514616*
X0172983Y0515545*
X0173431Y0516625*
X0173584Y0517785*
X0173431Y0518945*
X0172983Y0520026*
X0172271Y0520954*
X0171343Y0521666*
X0170262Y0522114*
X0169102Y0522267*
G37*
G36*
X0421048Y054625D02*
X0420793Y0546216D01*
X0419855Y0545828*
X0419051Y0545211*
X0418433Y0544406*
X0418045Y0543469*
X0418011Y0543213*
X0421048*
Y054625*
G37*
G36*
X0556347Y0581555D02*
X0550902D01*
Y057611*
X0551178Y0576137*
X0552406Y057651*
X0553537Y0577114*
X0554529Y0577928*
X0555342Y057892*
X0555947Y0580051*
X0556319Y0581279*
X0556347Y0581555*
G37*
G36*
X0548902Y0589D02*
X0548625Y0588973D01*
X0547398Y05886*
X0546266Y0587996*
X0545275Y0587182*
X0544461Y058619*
X0543856Y0585059*
X0543484Y0583832*
X0543457Y0583555*
X0548902*
Y0589*
G37*
G36*
X0223979Y0576415D02*
X0220941D01*
Y0573378*
X0221197Y0573412*
X0222134Y05738*
X0222939Y0574417*
X0223557Y0575222*
X0223945Y057616*
X0223979Y0576415*
G37*
G36*
X0548902Y0581555D02*
X0543457D01*
X0543484Y0581279*
X0543856Y0580051*
X0544461Y057892*
X0545275Y0577928*
X0546266Y0577114*
X0547398Y057651*
X0548625Y0576137*
X0548902Y057611*
Y0581555*
G37*
G36*
X0550902Y0589D02*
Y0583555D01*
X0556347*
X0556319Y0583832*
X0555947Y0585059*
X0555342Y058619*
X0554529Y0587182*
X0553537Y0587996*
X0552406Y05886*
X0551178Y0588973*
X0550902Y0589*
G37*
G36*
X0575772Y0600452D02*
X0574803D01*
X0573514Y0600282*
X0572313Y0599785*
X0571282Y0598993*
X0570491Y0597962*
X0569993Y0596761*
X0569955Y0596472*
X0575772*
Y0600452*
G37*
G36*
X057874D02*
X0577772D01*
Y0596472*
X0583588*
X058355Y0596761*
X0583053Y0597962*
X0582261Y0598993*
X058123Y0599785*
X0580029Y0600282*
X057874Y0600452*
G37*
G36*
X0575772Y0594472D02*
X0569955D01*
X0569993Y0594184*
X0570491Y0592983*
X0571282Y0591951*
X0572313Y059116*
X0573514Y0590662*
X0574803Y0590493*
X0575772*
Y0594472*
G37*
G36*
X0583588D02*
X0577772D01*
Y0590493*
X057874*
X0580029Y0590662*
X058123Y059116*
X0582261Y0591951*
X0583053Y0592983*
X058355Y0594184*
X0583588Y0594472*
G37*
G36*
X0219441Y0576415D02*
X0216404D01*
X0216438Y057616*
X0216826Y0575222*
X0217443Y0574417*
X0218248Y05738*
X0219186Y0573412*
X0219441Y0573378*
Y0576415*
G37*
G36*
X0503498Y0555949D02*
X0502493Y0555817D01*
X0501555Y0555428*
X0500751Y0554811*
X0500133Y0554006*
X0499745Y0553069*
X0499612Y0552063*
X0499745Y0551057*
X0500133Y055012*
X0500751Y0549315*
X0501555Y0548698*
X0502493Y0548309*
X0503498Y0548177*
X0504504Y0548309*
X0505441Y0548698*
X0506246Y0549315*
X0506864Y055012*
X0507252Y0551057*
X0507384Y0552063*
X0507252Y0553069*
X0506864Y0554006*
X0506246Y0554811*
X0505441Y0555428*
X0504504Y0555817*
X0503498Y0555949*
G37*
G36*
X0421798Y0556349D02*
X0420793Y0556216D01*
X0419855Y0555828*
X0419051Y0555211*
X0418433Y0554406*
X0418045Y0553469*
X0417912Y0552463*
X0418045Y0551457*
X0418433Y055052*
X0419051Y0549715*
X0419855Y0549098*
X0420793Y0548709*
X0421798Y0548577*
X0422804Y0548709*
X0423741Y0549098*
X0424546Y0549715*
X0425164Y055052*
X0425552Y0551457*
X0425684Y0552463*
X0425552Y0553469*
X0425164Y0554406*
X0424546Y0555211*
X0423741Y0555828*
X0422804Y0556216*
X0421798Y0556349*
G37*
G36*
X0360891Y0548269D02*
X0360004Y0548152D01*
X0359177Y0547809*
X0358466Y0547264*
X0357921Y0546554*
X0357845Y0546369*
X0348565*
X034798Y0546252*
X0347484Y0545921*
X0345364Y0543801*
X0345179Y0543878*
X0344291Y0543995*
X0343404Y0543878*
X0342577Y0543535*
X0341866Y054299*
X0341321Y054228*
X0340979Y0541453*
X0340862Y0540565*
X0340979Y0539678*
X0341321Y0538851*
X0341866Y053814*
X0342577Y0537596*
X0343404Y0537253*
X0344291Y0537136*
X0345179Y0537253*
X0346006Y0537596*
X0346716Y053814*
X0347261Y0538851*
X0347604Y0539678*
X0347721Y0540565*
X0347604Y0541453*
X0347527Y0541638*
X0349199Y054331*
X0357845*
X0357921Y0543124*
X0358466Y0542414*
X0359177Y0541869*
X0360004Y0541527*
X0360891Y054141*
X0361779Y0541527*
X0362606Y0541869*
X0363316Y0542414*
X0363861Y0543124*
X0364204Y0543952*
X0364321Y0544839*
X0364204Y0545727*
X0363861Y0546554*
X0363316Y0547264*
X0362606Y0547809*
X0361779Y0548152*
X0360891Y0548269*
G37*
G36*
X0446162Y0561402D02*
X044609Y0561392D01*
X0442536*
X0441648Y0561275*
X0440821Y0560933*
X0440111Y0560388*
X0425726Y0546003*
X0425181Y0545293*
X0425128Y0545164*
X0424632Y0545099*
X0424546Y0545211*
X0423741Y0545828*
X0422804Y0546216*
X0422548Y054625*
Y0542463*
Y0538676*
X0422804Y0538709*
X0423741Y0539098*
X0424546Y0539715*
X0425164Y054052*
X0425329Y0540918*
X0425909Y0541013*
X0426437Y0540608*
X0427264Y0540266*
X0428151Y0540149*
X0429039Y0540266*
X0429866Y0540608*
X0430576Y0541153*
X0443956Y0554534*
X0446162*
X0447049Y055465*
X0447876Y0554993*
X0448586Y0555538*
X0449131Y0556248*
X0449474Y0557075*
X0449591Y0557963*
X044959Y0557968*
X0449591Y0557972*
X0449474Y055886*
X0449131Y0559687*
X0448586Y0560397*
X0447876Y0560942*
X0447049Y0561285*
X0446162Y0561402*
G37*
G36*
X0194291Y056751D02*
X0191813Y0567314D01*
X0189395Y0566734*
X0187098Y0565782*
X0184978Y0564483*
X0183088Y0562869*
X0181473Y0560978*
X0180174Y0558858*
X0179223Y0556561*
X0178642Y0554144*
X0178447Y0551665*
X0178642Y0549187*
X0179223Y0546769*
X0180174Y0544472*
X0181473Y0542352*
X0183088Y0540462*
X0184978Y0538847*
X0187098Y0537548*
X0188193Y0537095*
X0188093Y0536595*
X0178296*
X0177916Y053709*
X0177206Y0537635*
X0176379Y0537978*
X0175491Y0538095*
X0174604Y0537978*
X0173777Y0537635*
X0173066Y053709*
X0172521Y053638*
X0172179Y0535553*
X0172062Y0534665*
X0172179Y0533778*
X0172521Y0532951*
X0173066Y053224*
X0173777Y0531696*
X0174604Y0531353*
X0175491Y0531236*
X0176379Y0531353*
X0177206Y0531696*
X0177916Y053224*
X0178461Y0532951*
X0178704Y0533536*
X0200991*
X0201577Y0533652*
X0202073Y0533984*
X0210573Y0542484*
X0210904Y054298*
X0211021Y0543565*
Y0544932*
X0223325Y0557236*
X0227183*
X0227503Y0556463*
X0228048Y0555753*
X0228758Y0555208*
X0229585Y0554865*
X0230472Y0554749*
X023136Y0554865*
X0232187Y0555208*
X0232897Y0555753*
X0233442Y0556463*
X0233785Y055729*
X0233902Y0558178*
X0233785Y0559065*
X0233442Y0559893*
X0232897Y0560603*
X0232187Y0561148*
X023136Y056149*
X0230472Y0561607*
X0229585Y056149*
X0228758Y0561148*
X0228048Y0560603*
X0227811Y0560295*
X0222691*
X0222106Y0560178*
X022161Y0559847*
X0210273Y054851*
X0209836Y0548754*
X020994Y0549187*
X0210135Y0551665*
X020994Y0554144*
X020936Y0556561*
X0208408Y0558858*
X0207109Y0560978*
X0205495Y0562869*
X0203604Y0564483*
X0201484Y0565782*
X0199187Y0566734*
X019677Y0567314*
X0194291Y056751*
G37*
G36*
X0503498Y0575949D02*
X0502493Y0575816D01*
X0501555Y0575428*
X0500751Y0574811*
X0500133Y0574006*
X0499745Y0573069*
X0499612Y0572063*
X0499745Y0571057*
X0500133Y057012*
X0500751Y0569315*
X0501555Y0568698*
X0502493Y0568309*
X0503498Y0568177*
X0504504Y0568309*
X0505441Y0568698*
X0506246Y0569315*
X0506864Y057012*
X0507252Y0571057*
X0507384Y0572063*
X0507252Y0573069*
X0506864Y0574006*
X0506246Y0574811*
X0505441Y0575428*
X0504504Y0575816*
X0503498Y0575949*
G37*
G36*
X0421798Y0576349D02*
X0420793Y0576217D01*
X0419855Y0575828*
X0419051Y0575211*
X0418433Y0574406*
X0418045Y0573469*
X0417912Y0572463*
X0418045Y0571457*
X0418433Y057052*
X0419051Y0569715*
X0419855Y0569098*
X0420793Y0568709*
X0421798Y0568577*
X0422804Y0568709*
X0423741Y0569098*
X0424546Y0569715*
X0425164Y057052*
X0425552Y0571457*
X0425684Y0572463*
X0425552Y0573469*
X0425164Y0574406*
X0424546Y0575211*
X0423741Y0575828*
X0422804Y0576217*
X0421798Y0576349*
G37*
G36*
X0503498Y0565949D02*
X0502493Y0565816D01*
X0501555Y0565428*
X0500751Y0564811*
X0500133Y0564006*
X0499745Y0563069*
X0499612Y0562063*
X0499745Y0561057*
X0500133Y056012*
X0500751Y0559315*
X0501555Y0558698*
X0502493Y0558309*
X0503498Y0558177*
X0504504Y0558309*
X0505441Y0558698*
X0506246Y0559315*
X0506864Y056012*
X0507252Y0561057*
X0507384Y0562063*
X0507252Y0563069*
X0506864Y0564006*
X0506246Y0564811*
X0505441Y0565428*
X0504504Y0565816*
X0503498Y0565949*
G37*
G36*
X0421798Y0566349D02*
X0420793Y0566217D01*
X0419855Y0565828*
X0419051Y0565211*
X0418433Y0564406*
X0418045Y0563469*
X0417912Y0562463*
X0418045Y0561457*
X0418433Y056052*
X0419051Y0559715*
X0419855Y0559098*
X0420793Y0558709*
X0421798Y0558577*
X0422804Y0558709*
X0423741Y0559098*
X0424546Y0559715*
X0425164Y056052*
X0425552Y0561457*
X0425684Y0562463*
X0425552Y0563469*
X0425164Y0564406*
X0424546Y0565211*
X0423741Y0565828*
X0422804Y0566217*
X0421798Y0566349*
G37*
G36*
X024249Y0493502D02*
X0241536Y0493376D01*
X0240646Y0493008*
X0239882Y0492422*
X0239297Y0491658*
X0238928Y0490769*
X0238803Y0489814*
X0238928Y048886*
X0239297Y0487971*
X0239882Y0487207*
X0240646Y0486621*
X0241536Y0486253*
X024249Y0486127*
X0243444Y0486253*
X0244334Y0486621*
X0245097Y0487207*
X0245683Y0487971*
X0246052Y048886*
X0246177Y0489814*
X0246052Y0490769*
X0245683Y0491658*
X0245097Y0492422*
X0244334Y0493008*
X0243444Y0493376*
X024249Y0493502*
G37*
G36*
X0562156Y0416427D02*
X0494257D01*
Y0405061*
X0562156*
Y0416427*
G37*
G36*
X0307454Y0410033D02*
X030654Y0409912D01*
X0305689Y040956*
X0304958Y0408999*
X0302252Y0406293*
X0301724Y0406472*
X0301645Y0407071*
X0301257Y0408008*
X0300639Y0408813*
X0299834Y0409431*
X0298897Y0409819*
X0297891Y0409951*
X0296886Y0409819*
X0295948Y0409431*
X0295144Y0408813*
X0294526Y0408008*
X0294138Y0407071*
X0294005Y0406065*
X0294138Y040506*
X0294526Y0404122*
X0295144Y0403317*
X0295948Y04027*
X0296886Y0402312*
X0297485Y0402233*
X0297664Y0401705*
X0297225Y0401266*
X0279462*
X0278549Y0401146*
X0277697Y0400794*
X0276966Y0400233*
X0266329Y0389596*
X0264091*
X0263178Y0389475*
X0262326Y0389123*
X0261595Y0388562*
X0254995Y0381962*
X0254434Y038123*
X0254081Y0380379*
X0253961Y0379465*
X0254081Y0378552*
X0254434Y03777*
X0254995Y0376969*
X0255726Y0376408*
X0256578Y0376056*
X0257491Y0375935*
X0258405Y0376056*
X0259256Y0376408*
X0259988Y0376969*
X0265554Y0382535*
X0266346*
X0266886Y0382312*
X0267891Y0382179*
X0268897Y0382312*
X0269834Y03827*
X0270639Y0383317*
X0271257Y0384122*
X0271551Y0384832*
X027361Y0386891*
X0274083Y0386658*
X0274005Y0386065*
X0274138Y038506*
X0274526Y0384122*
X0275144Y0383317*
X0275948Y03827*
X0276886Y0382312*
X0277891Y0382179*
X0278897Y0382312*
X0279834Y03827*
X0280639Y0383317*
X0281257Y0384122*
X0281645Y038506*
X0281777Y0386065*
X0281645Y0387071*
X0281257Y0388008*
X0280639Y0388813*
X0279834Y0389431*
X0278897Y0389819*
X0277891Y0389951*
X0277299Y0389873*
X0277065Y0390347*
X0280925Y0394206*
X0298688*
X0299602Y0394326*
X0300453Y0394679*
X0301184Y039524*
X0308159Y0402214*
X0308897Y0402312*
X0309834Y04027*
X0310639Y0403317*
X0311257Y0404122*
X0311645Y040506*
X0311777Y0406065*
X0311645Y0407071*
X0311257Y0408008*
X0310639Y0408813*
X0309834Y0409431*
X0308897Y0409819*
X0308452Y0409877*
X0308368Y0409912*
X0307454Y0410033*
G37*
G36*
X0277891Y0409951D02*
X0276886Y0409819D01*
X0275948Y0409431*
X0275144Y0408813*
X0274526Y0408008*
X0274138Y0407071*
X0274005Y0406065*
X0274138Y040506*
X0274526Y0404122*
X0275144Y0403317*
X0275948Y04027*
X0276886Y0402312*
X0277891Y0402179*
X0278897Y0402312*
X0279834Y04027*
X0280639Y0403317*
X0281257Y0404122*
X0281645Y040506*
X0281777Y0406065*
X0281645Y0407071*
X0281257Y0408008*
X0280639Y0408813*
X0279834Y0409431*
X0278897Y0409819*
X0277891Y0409951*
G37*
G36*
X0287891D02*
X0286886Y0409819D01*
X0285948Y0409431*
X0285143Y0408813*
X0284526Y0408008*
X0284138Y0407071*
X0284005Y0406065*
X0284138Y040506*
X0284526Y0404122*
X0285143Y0403317*
X0285948Y04027*
X0286886Y0402312*
X0287891Y0402179*
X0288897Y0402312*
X0289834Y04027*
X0290639Y0403317*
X0291257Y0404122*
X0291645Y040506*
X0291777Y0406065*
X0291645Y0407071*
X0291257Y0408008*
X0290639Y0408813*
X0289834Y0409431*
X0288897Y0409819*
X0287891Y0409951*
G37*
G36*
X0626378Y0428514D02*
X0625468Y0428395D01*
X0624621Y0428043*
X0623893Y0427485*
X0623334Y0426757*
X0622983Y042591*
X0622864Y0425*
X0622983Y042409*
X0623334Y0423243*
X0623893Y0422515*
X0624621Y0421956*
X0625468Y0421605*
X0626378Y0421486*
X0627287Y0421605*
X0628135Y0421956*
X0628863Y0422515*
X0629217Y0422977*
X0635186*
X0645184Y0412979*
X0645108Y0412401*
X0645227Y0411492*
X0645578Y0410644*
X0646137Y0409916*
X0646865Y0409358*
X0647713Y0409007*
X0648622Y0408887*
X0649532Y0409007*
X0650379Y0409358*
X0651107Y0409916*
X0651665Y0410644*
X0652017Y0411492*
X0652136Y0412401*
X0652017Y0413311*
X0651665Y0414159*
X0651107Y0414887*
X0650379Y0415445*
X0649532Y0415796*
X0648622Y0415916*
X0648045Y041584*
X0637454Y0426431*
X0636798Y0426869*
X0636024Y0427023*
X0629217*
X0628863Y0427485*
X0628135Y0428043*
X0627287Y0428395*
X0626378Y0428514*
G37*
G36*
X0287891Y0421051D02*
X0286886Y0420919D01*
X0285948Y0420531*
X0285143Y0419913*
X0284526Y0419108*
X0284138Y0418171*
X0284005Y0417165*
X0284138Y041616*
X0284526Y0415222*
X0285143Y0414418*
X0285948Y04138*
X0286886Y0413412*
X0287891Y0413279*
X0288897Y0413412*
X0289834Y04138*
X0290639Y0414418*
X0291257Y0415222*
X0291645Y041616*
X0291777Y0417165*
X0291645Y0418171*
X0291257Y0419108*
X0290639Y0419913*
X0289834Y0420531*
X0288897Y0420919*
X0287891Y0421051*
G37*
G36*
X0297891D02*
X0296886Y0420919D01*
X0295948Y0420531*
X0295144Y0419913*
X0294526Y0419108*
X0294138Y0418171*
X0294005Y0417165*
X0294138Y041616*
X0294526Y0415222*
X0295144Y0414418*
X0295948Y04138*
X0296886Y0413412*
X0297891Y0413279*
X0298897Y0413412*
X0299834Y04138*
X0300639Y0414418*
X0301257Y0415222*
X0301645Y041616*
X0301777Y0417165*
X0301645Y0418171*
X0301257Y0419108*
X0300639Y0419913*
X0299834Y0420531*
X0298897Y0420919*
X0297891Y0421051*
G37*
G36*
X0208033Y0419249D02*
X020677Y0419083D01*
X0205594Y0418595*
X0204583Y041782*
X0203808Y041681*
X0203321Y0415633*
X0203154Y041437*
X0203321Y0413107*
X0203808Y0411931*
X0204583Y041092*
X0205594Y0410145*
X020677Y0409658*
X0208033Y0409491*
X0209296Y0409658*
X0210472Y0410145*
X0211483Y041092*
X0212258Y0411931*
X0212746Y0413107*
X0212912Y041437*
X0212746Y0415633*
X0212258Y041681*
X0211483Y041782*
X0210472Y0418595*
X0209296Y0419083*
X0208033Y0419249*
G37*
G36*
X022575D02*
X0224487Y0419083D01*
X022331Y0418595*
X02223Y041782*
X0221525Y041681*
X0221037Y0415633*
X0220871Y041437*
X0221037Y0413107*
X0221525Y0411931*
X02223Y041092*
X022331Y0410145*
X0224487Y0409658*
X022575Y0409491*
X0227012Y0409658*
X0228189Y0410145*
X0229199Y041092*
X0229975Y0411931*
X0230462Y0413107*
X0230628Y041437*
X0230462Y0415633*
X0229975Y041681*
X0229199Y041782*
X0228189Y0418595*
X0227012Y0419083*
X022575Y0419249*
G37*
G36*
X040884Y0407077D02*
X040803Y0406916D01*
X0407343Y0406457*
X0403738Y0402851*
X0403279Y0402165*
X0403118Y0401354*
X0403279Y0400544*
X0403738Y0399857*
X0407343Y0396252*
X040803Y0395793*
X040884Y0395632*
X0409651Y0395793*
X0410337Y0396252*
X0413943Y0399857*
X0414402Y0400544*
X0414563Y0401354*
X0414402Y0402165*
X0413943Y0402851*
X0410337Y0406457*
X0409651Y0406916*
X040884Y0407077*
G37*
G36*
X0426684Y0389945D02*
X0424174Y0387435D01*
X0426684Y0384924*
X0426814Y0385094*
X0427282Y0386223*
X0427442Y0387435*
X0427282Y0388647*
X0426814Y0389776*
X0426684Y0389945*
G37*
G36*
X0543199Y0396694D02*
X05381D01*
X053729Y0396533*
X0536603Y0396074*
X0536144Y0395387*
X0535983Y0394577*
Y0389478*
X0536144Y0388668*
X0536603Y0387981*
X053729Y0387522*
X05381Y0387361*
X0543199*
X0544009Y0387522*
X0544696Y0387981*
X0545155Y0388668*
X0545316Y0389478*
Y0394577*
X0545155Y0395387*
X0544696Y0396074*
X0544009Y0396533*
X0543199Y0396694*
G37*
G36*
X042276Y038602D02*
X0420249Y038351D01*
X0420419Y038338*
X0421548Y0382912*
X042276Y0382753*
X0423971Y0382912*
X0425101Y038338*
X042527Y038351*
X042276Y038602*
G37*
G36*
X0418835Y0389945D02*
X0418705Y0389776D01*
X0418237Y0388647*
X0418078Y0387435*
X0418237Y0386223*
X0418705Y0385094*
X0418835Y0384924*
X0421346Y0387435*
X0418835Y0389945*
G37*
G36*
X042276Y0392116D02*
X0421548Y0391957D01*
X0420419Y0391489*
X0420249Y0391359*
X042276Y0388849*
X042527Y0391359*
X0425101Y0391489*
X0423971Y0391957*
X042276Y0392116*
G37*
G36*
X0334691Y0411195D02*
X0333804Y0411078D01*
X0332977Y0410735*
X0332266Y041019*
X0331721Y040948*
X0331379Y0408653*
X0331262Y0407765*
X0331379Y0406878*
X0331721Y0406051*
X0332266Y040534*
X0332977Y0404796*
X0333804Y0404453*
X0334691Y0404336*
X0335062Y0404011*
Y0397214*
X0313242Y0375395*
X0312643*
X0312416Y037569*
X0311706Y0376235*
X0310879Y0376578*
X0309991Y0376695*
X0309104Y0376578*
X0308277Y0376235*
X0307566Y037569*
X0307021Y037498*
X0306679Y0374153*
X0306562Y0373265*
X0306679Y0372378*
X0307021Y0371551*
X0307566Y0370841*
X0308277Y0370296*
X0309104Y0369953*
X0309827Y0369858*
X031005Y0369373*
X0308591Y0367915*
X0305716Y037079*
X0305006Y0371335*
X0304179Y0371678*
X0303291Y0371795*
X0302404Y0371678*
X0301577Y0371335*
X0300866Y037079*
X0300321Y037008*
X0299979Y0369253*
X0299862Y0368365*
X0299979Y0367478*
X0300321Y0366651*
X0300866Y036594*
X0303742Y0363065*
X0299866Y035919*
X0299321Y035848*
X0298979Y0357653*
X0298862Y0356765*
Y0326854*
X0298779Y0326653*
X0298662Y0325765*
X0298671Y0325695*
X0293866Y032089*
X0293321Y032018*
X0293286Y0320095*
X0267447*
X026656Y0319978*
X0265733Y0319635*
X0265023Y031909*
X0260366Y0314434*
X0259821Y0313724*
X0259479Y0312897*
X0259362Y0312009*
Y0307236*
X0259039Y0307126*
X0258862Y0307099*
X0257872Y0307858*
X0256696Y0308346*
X0255433Y0308512*
X0254215*
Y0298754*
X0255433*
X0256696Y0298921*
X0257872Y0299408*
X0258862Y0300167*
X0259039Y030014*
X0259362Y030003*
Y0295686*
X0255627Y0291951*
X0255433Y0291976*
X0251496*
X0250233Y029181*
X0249057Y0291323*
X0248046Y0290547*
X0247271Y0289537*
X0246784Y028836*
X0246617Y0287098*
X0246784Y0285835*
X0247271Y0284658*
X0248046Y0283648*
X0249057Y0282873*
X0250233Y0282385*
X0251496Y0282219*
X0255433*
X0256696Y0282385*
X0257872Y0282873*
X0258883Y0283648*
X0259658Y0284658*
X0260146Y0285835*
X0260287Y0286912*
X0265216Y0291841*
X0265761Y0292551*
X0266104Y0293378*
X0266221Y0294265*
Y0310589*
X0268868Y0313236*
X0292862*
Y0305322*
X0292979Y0304434*
X0293321Y0303607*
X0293866Y0302897*
X0297823Y029894*
X0298533Y0298395*
X029936Y0298053*
X0300248Y0297936*
X0302291*
X0303179Y0298053*
X0304006Y0298395*
X0304716Y029894*
X0305261Y0299651*
X0305604Y0300478*
X0305721Y0301365*
X0305604Y0302253*
X0305261Y030308*
X0304716Y030379*
X0304006Y0304335*
X0303179Y0304678*
X0302291Y0304795*
X0301668*
X0299721Y0306742*
Y0316665*
X0299676Y0317001*
X0304716Y0322041*
X0305261Y0322751*
X0305604Y0323578*
X0305721Y0324465*
Y0355345*
X0323502Y0373127*
X032403Y0372947*
X0324079Y0372578*
X0324421Y0371751*
X0324966Y0371041*
X0325677Y0370496*
X0326504Y0370153*
X0327391Y0370036*
X0328279Y0370153*
X0329106Y0370496*
X0329816Y0371041*
X0330361Y0371751*
X0330704Y0372578*
X0330821Y0373465*
X0330704Y0374353*
X0330361Y037518*
X0329816Y037589*
X0329709Y0375973*
X0329676Y0376472*
X0343967Y0390763*
X0344577Y0390296*
X0345404Y0389953*
X0346291Y0389836*
X0347179Y0389953*
X0348006Y0390296*
X0348716Y0390841*
X0349261Y0391551*
X0349604Y0392378*
X0349721Y0393265*
X0349604Y0394153*
X0349261Y039498*
X0349031Y039528*
X0349278Y039578*
X0352709*
X0352721Y0395751*
X0353266Y039504*
X0353977Y0394496*
X0354804Y0394153*
X0355691Y0394036*
X0356579Y0394153*
X0357406Y0394496*
X0358116Y039504*
X0358661Y0395751*
X0359004Y0396578*
X0359121Y0397465*
Y0397665*
X0359004Y0398553*
X0358661Y039938*
X0358116Y040009*
X0356572Y0401634*
X0355862Y0402179*
X0355035Y0402522*
X0354148Y0402639*
X0344021*
Y0404565*
X0343904Y0405453*
X0343561Y040628*
X0343016Y040699*
X0342306Y0407535*
X0341479Y0407878*
X0340591Y0407995*
X0339704Y0407878*
X0338877Y0407535*
X0338621Y0407339*
X0338121Y0407585*
Y0407765*
Y0407766*
X0338004Y0408653*
X0337661Y040948*
X0337116Y041019*
X0336406Y0410735*
X0335579Y0411078*
X0334691Y0411195*
G37*
G36*
X0325391Y0402395D02*
X0324504Y0402278D01*
X0323677Y0401935*
X0322966Y040139*
X0322421Y040068*
X0322365Y0400545*
X0316841*
X0316256Y0400428*
X031576Y0400097*
X0311364Y0395701*
X0311179Y0395778*
X0310291Y0395895*
X0309404Y0395778*
X0308577Y0395435*
X0307866Y039489*
X0307321Y039418*
X0306979Y0393353*
X0306862Y0392465*
X0306979Y0391578*
X0307321Y0390751*
X0307579Y0390415*
X0307358Y0389881*
X0306886Y0389819*
X0305948Y0389431*
X0305143Y0388813*
X0304526Y0388008*
X0304138Y0387071*
X0304005Y0386065*
X0304138Y038506*
X0304526Y0384122*
X0305143Y0383317*
X0305948Y03827*
X0306886Y0382312*
X0307891Y0382179*
X0308897Y0382312*
X0309834Y03827*
X0310639Y0383317*
X0311257Y0384122*
X0311645Y038506*
X0311777Y0386065*
X0311645Y0387071*
X0311257Y0388008*
X0310803Y0388599*
X0311013Y0389131*
X0311179Y0389153*
X0312006Y0389495*
X0312716Y039004*
X0313261Y0390751*
X0313604Y0391578*
X0313721Y0392465*
X0313604Y0393353*
X0313527Y0393538*
X0317475Y0397486*
X0322324*
X0322421Y0397251*
X0322966Y039654*
X0323677Y0395995*
X0324504Y0395653*
X0325391Y0395536*
X0326279Y0395653*
X0327106Y0395995*
X0327816Y039654*
X0328361Y0397251*
X0328704Y0398078*
X0328821Y0398965*
X0328704Y0399853*
X0328361Y040068*
X0327816Y040139*
X0327106Y0401935*
X0326279Y0402278*
X0325391Y0402395*
G37*
G36*
X0559335Y0396578D02*
X0559123Y039655D01*
X0557994Y0396082*
X0557024Y0395338*
X055628Y0394368*
X0555812Y0393239*
X0555785Y0393027*
X0559335*
Y0396578*
G37*
G36*
X0561335D02*
Y0393027D01*
X0564885*
X0564857Y0393239*
X0564389Y0394368*
X0563645Y0395338*
X0562676Y0396082*
X0561546Y039655*
X0561335Y0396578*
G37*
G36*
X0307891Y0421051D02*
X0306886Y0420919D01*
X0305948Y0420531*
X0305143Y0419913*
X0304526Y0419108*
X0304138Y0418171*
X0304005Y0417165*
X0304138Y041616*
X0304526Y0415222*
X0305143Y0414418*
X0305948Y04138*
X0306886Y0413412*
X0307891Y0413279*
X0308897Y0413412*
X0309834Y04138*
X0310639Y0414418*
X0311257Y0415222*
X0311645Y041616*
X0311777Y0417165*
X0311645Y0418171*
X0311257Y0419108*
X0310639Y0419913*
X0309834Y0420531*
X0308897Y0420919*
X0307891Y0421051*
G37*
G36*
X0267891Y0472151D02*
X0266886Y0472019D01*
X0265948Y0471631*
X0265143Y0471013*
X0264526Y0470208*
X0264138Y0469271*
X0264005Y0468265*
X0264138Y046726*
X0264526Y0466322*
X0265143Y0465518*
X0265948Y04649*
X0266886Y0464512*
X0267891Y0464379*
X0268897Y0464512*
X0269834Y04649*
X0270639Y0465518*
X0271257Y0466322*
X0271645Y046726*
X0271777Y0468265*
X0271645Y0469271*
X0271257Y0470208*
X0270639Y0471013*
X0269834Y0471631*
X0268897Y0472019*
X0267891Y0472151*
G37*
G36*
X0277891D02*
X0276886Y0472019D01*
X0275948Y0471631*
X0275144Y0471013*
X0274526Y0470208*
X0274138Y0469271*
X0274005Y0468265*
X0274138Y046726*
X0274526Y0466322*
X0275144Y0465518*
X0275948Y04649*
X0276886Y0464512*
X0277891Y0464379*
X0278897Y0464512*
X0279834Y04649*
X0280639Y0465518*
X0281257Y0466322*
X0281645Y046726*
X0281777Y0468265*
X0281645Y0469271*
X0281257Y0470208*
X0280639Y0471013*
X0279834Y0471631*
X0278897Y0472019*
X0277891Y0472151*
G37*
G36*
X0521706Y0468291D02*
X0513996D01*
X0514Y0468259*
X0514398Y0467298*
X0515032Y0466472*
X051579Y0465891*
X0515787Y0465651*
X0515681Y0465371*
X0515055Y0465246*
X0514436Y0464832*
X0514023Y0464214*
X0513877Y0463484*
Y045935*
X0514023Y0458621*
X0514436Y0458002*
X0515055Y0457589*
X0515784Y0457444*
X0519918*
X0520648Y0457589*
X0521266Y0458002*
X052168Y0458621*
X0521825Y045935*
Y0463484*
X052168Y0464214*
X0521266Y0464832*
X0520648Y0465246*
X0520021Y0465371*
X0519915Y0465651*
X0519913Y0465891*
X052067Y0466472*
X0521304Y0467298*
X0521702Y0468259*
X0521706Y0468291*
G37*
G36*
X0208033Y0498339D02*
X020677Y0498173D01*
X0205594Y0497686*
X0204583Y049691*
X0203808Y04959*
X0203321Y0494723*
X0203154Y0493461*
X0203321Y0492198*
X0203808Y0491021*
X0204583Y0490011*
X0205594Y0489235*
X0206504Y0488859*
Y0472472*
X0205594Y0472095*
X0204583Y047132*
X0203808Y0470309*
X0203321Y0469133*
X0203154Y046787*
X0203321Y0466607*
X0203808Y0465431*
X0204583Y046442*
X0205594Y0463645*
X020677Y0463158*
X0208033Y0462991*
X0209296Y0463158*
X0210472Y0463645*
X0211483Y046442*
X0212258Y0465431*
X0212746Y0466607*
X0212912Y046787*
X0212746Y0469133*
X0212258Y0470309*
X0211483Y047132*
X0210472Y0472095*
X0209562Y0472472*
Y0488859*
X0210472Y0489235*
X0211483Y0490011*
X0212258Y0491021*
X0212746Y0492198*
X0212912Y0493461*
X0212746Y0494723*
X0212258Y04959*
X0211483Y049691*
X0210472Y0497686*
X0209296Y0498173*
X0208033Y0498339*
G37*
G36*
X0287891Y0472151D02*
X0286886Y0472019D01*
X0285948Y0471631*
X0285143Y0471013*
X0284526Y0470208*
X0284138Y0469271*
X0284005Y0468265*
X0284138Y046726*
X0284526Y0466322*
X0285143Y0465518*
X0285948Y04649*
X0286886Y0464512*
X0287891Y0464379*
X0288897Y0464512*
X0289834Y04649*
X0290639Y0465518*
X0291257Y0466322*
X0291645Y046726*
X0291777Y0468265*
X0291645Y0469271*
X0291257Y0470208*
X0290639Y0471013*
X0289834Y0471631*
X0288897Y0472019*
X0287891Y0472151*
G37*
G36*
X0518851Y0473147D02*
Y0470291D01*
X0521706*
X0521702Y0470323*
X0521304Y0471285*
X052067Y0472111*
X0519845Y0472744*
X0518883Y0473142*
X0518851Y0473147*
G37*
G36*
X0677165Y0517105D02*
X0675442Y0516969D01*
X0673761Y0516566*
X0672163Y0515904*
X0670689Y0515*
X0669374Y0513878*
X0668251Y0512563*
X0667348Y0511089*
X0666686Y0509491*
X0666283Y050781*
X0666147Y0506086*
Y0505693*
Y0483933*
X0666283Y0482209*
X0666686Y0480528*
X0667348Y0478931*
X0668251Y0477457*
X0669245Y0476293*
Y047502*
X0669428Y0474098*
X066995Y0473316*
X0670732Y0472794*
X0671654Y0472611*
X0682677*
X0683599Y0472794*
X068438Y0473316*
X0684902Y0474098*
X0685086Y047502*
Y0476293*
X0686079Y0477457*
X0686983Y0478931*
X0687644Y0480528*
X0688048Y0482209*
X0688184Y0483933*
Y0505693*
Y0506086*
X0688048Y050781*
X0687644Y0509491*
X0686983Y0511089*
X0686079Y0512563*
X0684956Y0513878*
X0683642Y0515*
X0682167Y0515904*
X068057Y0516566*
X0678889Y0516969*
X0677165Y0517105*
G37*
G36*
X0297891Y0472151D02*
X0296886Y0472019D01*
X0295948Y0471631*
X0295144Y0471013*
X0294526Y0470208*
X0294138Y0469271*
X0294005Y0468265*
X0294138Y046726*
X0294526Y0466322*
X0295144Y0465518*
X0295948Y04649*
X0296886Y0464512*
X0297891Y0464379*
X0298897Y0464512*
X0299834Y04649*
X0300639Y0465518*
X0301257Y0466322*
X0301645Y046726*
X0301777Y0468265*
X0301645Y0469271*
X0301257Y0470208*
X0300639Y0471013*
X0299834Y0471631*
X0298897Y0472019*
X0297891Y0472151*
G37*
G36*
X0516851Y0473147D02*
X0516819Y0473142D01*
X0515858Y0472744*
X0515032Y0472111*
X0514398Y0471285*
X0514Y0470323*
X0513996Y0470291*
X0516851*
Y0473147*
G37*
G36*
X0327991Y0522995D02*
X0327104Y0522878D01*
X0326277Y0522535*
X0325566Y052199*
X0325021Y052128*
X0324679Y0520453*
X0324562Y0519565*
X0324679Y0518678*
X0324756Y0518493*
X032281Y0516547*
X0322478Y0516051*
X0322362Y0515465*
Y0511965*
X0322478Y051138*
X032281Y0510884*
X0325162Y0508532*
Y0500765*
X0325278Y050018*
X032561Y0499684*
X0335062Y0490232*
Y0466742*
X0333615Y0465295*
X0332291*
X0331706Y0465178*
X033121Y0464847*
X032891Y0462547*
X0328578Y0462051*
X0328462Y0461465*
Y0456065*
X0328578Y045548*
X0328688Y0455316*
X0328579Y0455053*
X0328462Y0454165*
X0328488Y0453971*
X0328158Y0453595*
X0317991*
X0317406Y0453478*
X031691Y0453147*
X0312252Y0448489*
X0311724Y0448668*
X0311645Y0449271*
X0311257Y0450208*
X0310639Y0451013*
X0309834Y0451631*
X0308897Y0452019*
X0307891Y0452151*
X0306886Y0452019*
X0305948Y0451631*
X0305143Y0451013*
X0304526Y0450208*
X0304138Y0449271*
X0304005Y0448265*
X0304138Y044726*
X0304526Y0446322*
X0304931Y0445795*
X0304684Y0445295*
X0301098*
X0300852Y0445795*
X0301257Y0446322*
X0301645Y044726*
X0301777Y0448265*
X0301645Y0449271*
X0301257Y0450208*
X0300639Y0451013*
X0299834Y0451631*
X0298897Y0452019*
X0297891Y0452151*
X0296886Y0452019*
X0295948Y0451631*
X0295144Y0451013*
X0294526Y0450208*
X0294138Y0449271*
X0294005Y0448265*
X0294138Y044726*
X0294526Y0446322*
X0294931Y0445795*
X0294684Y0445295*
X0291098*
X0290852Y0445795*
X0291257Y0446322*
X0291645Y044726*
X0291777Y0448265*
X0291645Y0449271*
X0291257Y0450208*
X0290639Y0451013*
X0289834Y0451631*
X0288897Y0452019*
X0287891Y0452151*
X0286886Y0452019*
X0285948Y0451631*
X0285143Y0451013*
X0284526Y0450208*
X0284138Y0449271*
X0284005Y0448265*
X0284138Y044726*
X0284526Y0446322*
X0284931Y0445795*
X0284684Y0445295*
X0281098*
X0280852Y0445795*
X0281257Y0446322*
X0281645Y044726*
X0281777Y0448265*
X0281645Y0449271*
X0281257Y0450208*
X0280639Y0451013*
X0279834Y0451631*
X0278897Y0452019*
X0277891Y0452151*
X0277414Y0452088*
X0277181Y0452562*
X0279554Y0454935*
X0303491*
X0304405Y0455056*
X0305256Y0455408*
X0305988Y0455969*
X0310388Y0460369*
X0310949Y04611*
X0311301Y0461952*
X0311421Y0462865*
Y046672*
X0311645Y046726*
X0311777Y0468265*
X0311645Y0469271*
X0311257Y0470208*
X0310639Y0471013*
X0309834Y0471631*
X0308897Y0472019*
X0307891Y0472151*
X0306886Y0472019*
X0305948Y0471631*
X0305143Y0471013*
X0304526Y0470208*
X0304138Y0469271*
X0304005Y0468265*
X0304138Y046726*
X0304361Y046672*
Y0464328*
X0302029Y0461996*
X0278091*
X0277178Y0461875*
X0276326Y0461523*
X0275595Y0460962*
X0267741Y0453108*
X0261988Y0458862*
X0261256Y0459423*
X0260405Y0459775*
X0259491Y0459896*
X0254791*
X0253878Y0459775*
X0253026Y0459423*
X0252295Y0458862*
X0251734Y0458131*
X0251381Y0457279*
X0251261Y0456365*
X0251381Y0455452*
X0251734Y04546*
X0252295Y0453869*
X0253026Y0453308*
X0253878Y0452955*
X0254791Y0452835*
X0258029*
X0264515Y0446349*
X0264526Y0446322*
X0264931Y0445795*
X0264684Y0445295*
X0260891*
X0260306Y0445178*
X025981Y0444847*
X0253504Y0438541*
X0253006Y0438574*
X0252916Y043869*
X0252206Y0439235*
X0251379Y0439578*
X0250491Y0439695*
X0249604Y0439578*
X0248777Y0439235*
X0248066Y043869*
X0247521Y043798*
X0247179Y0437153*
X0247062Y0436265*
X0247179Y0435378*
X0247521Y0434551*
X0248066Y043384*
X0248183Y0433751*
X0248215Y0433252*
X024461Y0429647*
X0244278Y0429151*
X0244162Y0428565*
Y0417599*
X0232129Y0405565*
X0210562*
X0209977Y0405449*
X0209481Y0405117*
X0204705Y0400342*
X0204643Y0400345*
X0204198Y0400541*
X0204104Y0401253*
X0203761Y040208*
X0203216Y040279*
X0202506Y0403335*
X0201679Y0403678*
X0200791Y0403795*
X0199904Y0403678*
X0199077Y0403335*
X0198366Y040279*
X0197821Y040208*
X0197479Y0401253*
X0197362Y0400365*
X0197468Y0399563*
X0197319Y039931*
X0197101Y0399083*
X0196304Y0398978*
X0195477Y0398635*
X0194766Y039809*
X0194221Y039738*
X0193879Y0396553*
X0193762Y0395665*
X0193879Y0394778*
X0194221Y0393951*
X0194766Y039324*
X0195477Y0392695*
X0196304Y0392353*
X0197191Y0392236*
X0198079Y0392353*
X0198906Y0392695*
X0199616Y039324*
X0200161Y0393951*
X0200504Y0394778*
X0200512Y0394836*
X020572*
X0206305Y0394952*
X0206801Y0395284*
X0212024Y0400507*
X023359*
X0234176Y0400623*
X0234672Y0400954*
X0248773Y0415056*
X0249104Y0415552*
X0249221Y0416137*
Y0420219*
X0249597Y0420548*
X0249691Y0420536*
X0250579Y0420653*
X0251406Y0420996*
X0252116Y042154*
X0252661Y0422251*
X0253004Y0423078*
X0253121Y0423965*
X0253004Y0424853*
X0252661Y042568*
X0252116Y042639*
X0251406Y0426935*
X0250579Y0427278*
X0250158Y0427333*
X0249978Y0427861*
X0262353Y0440236*
X0264779*
X0265007Y0439736*
X0264526Y0439108*
X0264138Y0438171*
X0264005Y0437165*
X0264138Y043616*
X0264526Y0435222*
X0265143Y0434417*
X0265948Y04338*
X0266886Y0433412*
X0267891Y0433279*
X0268897Y0433412*
X0269834Y04338*
X0270639Y0434417*
X0271257Y0435222*
X0271645Y043616*
X0271777Y0437165*
X0271645Y0438171*
X0271257Y0439108*
X0270775Y0439736*
X0271004Y0440236*
X0274779*
X0275008Y0439736*
X0274526Y0439108*
X0274138Y0438171*
X0274005Y0437165*
X0274138Y043616*
X0274526Y0435222*
X0275144Y0434417*
X0275948Y04338*
X0276886Y0433412*
X0277891Y0433279*
X0278897Y0433412*
X0279834Y04338*
X0280639Y0434417*
X0281257Y0435222*
X0281645Y043616*
X0281777Y0437165*
X0281645Y0438171*
X0281257Y0439108*
X0280775Y0439736*
X0281004Y0440236*
X0284779*
X0285008Y0439736*
X0284526Y0439108*
X0284138Y0438171*
X0284005Y0437165*
X0284138Y043616*
X0284526Y0435222*
X0285143Y0434417*
X0285948Y04338*
X0286886Y0433412*
X0287891Y0433279*
X0288897Y0433412*
X0289834Y04338*
X0290639Y0434417*
X0291257Y0435222*
X0291645Y043616*
X0291777Y0437165*
X0291645Y0438171*
X0291257Y0439108*
X0290775Y0439736*
X0291004Y0440236*
X0294779*
X0295007Y0439736*
X0294526Y0439108*
X0294138Y0438171*
X0294005Y0437165*
X0294138Y043616*
X0294526Y0435222*
X0295144Y0434417*
X0295948Y04338*
X0296886Y0433412*
X0297891Y0433279*
X0298897Y0433412*
X0299834Y04338*
X0300639Y0434417*
X0301257Y0435222*
X0301645Y043616*
X0301777Y0437165*
X0301645Y0438171*
X0301257Y0439108*
X0300775Y0439736*
X0301004Y0440236*
X0304779*
X0305008Y0439736*
X0304526Y0439108*
X0304138Y0438171*
X0304005Y0437165*
X0304138Y043616*
X0304361Y043562*
Y043396*
X0300997Y0430596*
X0277891*
X0276978Y0430475*
X0276126Y0430123*
X0275395Y0429562*
X0266658Y0420825*
X0265948Y0420531*
X0265143Y0419913*
X0264526Y0419108*
X0264303Y0418569*
X0250095Y0404362*
X0249534Y040363*
X0249181Y0402779*
X0249061Y0401865*
Y0394465*
X0249181Y0393552*
X0249534Y03927*
X0250095Y0391969*
X0250826Y0391408*
X0251678Y0391055*
X0252591Y0390935*
X0253505Y0391055*
X0254356Y0391408*
X0255088Y0391969*
X0255649Y03927*
X0256001Y0393552*
X0256121Y0394465*
Y0400403*
X0264453Y0408734*
X026483Y0408404*
X0264526Y0408008*
X0264138Y0407071*
X0264005Y0406065*
X0264138Y040506*
X0264526Y0404122*
X0265143Y0403317*
X0265948Y04027*
X0266886Y0402312*
X0267891Y0402179*
X0268897Y0402312*
X0269834Y04027*
X0270639Y0403317*
X0271257Y0404122*
X0271645Y040506*
X0271777Y0406065*
X0271645Y0407071*
X0271257Y0408008*
X0270639Y0408813*
X0269834Y0409431*
X0268897Y0409819*
X0267891Y0409951*
X0266886Y0409819*
X0265948Y0409431*
X0265553Y0409127*
X0265222Y0409504*
X0269295Y0413577*
X0269834Y04138*
X0270639Y0414418*
X0271257Y0415222*
X0271409Y0415591*
X0273579Y0417761*
X0274053Y0417527*
X0274005Y0417165*
X0274138Y041616*
X0274526Y0415222*
X0275144Y0414418*
X0275948Y04138*
X0276886Y0413412*
X0277891Y0413279*
X0278897Y0413412*
X0279834Y04138*
X0280639Y0414418*
X0281257Y0415222*
X0281645Y041616*
X0281777Y0417165*
X0281645Y0418171*
X0281257Y0419108*
X0280639Y0419913*
X0279834Y0420531*
X0278897Y0420919*
X0277891Y0421051*
X0277529Y0421004*
X0277296Y0421477*
X0279354Y0423535*
X0302459*
X0303373Y0423656*
X0304224Y0424008*
X0304955Y0424569*
X0310388Y0430001*
X0310949Y0430732*
X0311301Y0431584*
X0311421Y0432498*
Y043562*
X0311645Y043616*
X0311777Y0437165*
X0311645Y0438171*
X0311257Y0439108*
X0310748Y0439772*
X0310857Y0440213*
X0310933Y0440318*
X0311105Y0440352*
X0311601Y0440684*
X0319424Y0448507*
X0333462*
X0334047Y0448623*
X0334543Y0448954*
X0336973Y0451384*
X0337304Y045188*
X0337421Y0452465*
Y0461947*
X0339673Y0464199*
X0340004Y0464695*
X0340121Y046528*
Y0491694*
X0340004Y0492279*
X0339673Y0492775*
X0330221Y0502227*
Y0511167*
X0330316Y051124*
X0330861Y0511951*
X0331204Y0512778*
X0331321Y0513665*
X0331204Y0514553*
X0330861Y051538*
X0330316Y051609*
X0330093Y0516262*
Y0516892*
X0330416Y051714*
X0330961Y0517851*
X0331304Y0518678*
X0331421Y0519565*
X0331304Y0520453*
X0330961Y052128*
X0330416Y052199*
X0329706Y0522535*
X0328879Y0522878*
X0327991Y0522995*
G37*
G36*
X0145669Y0433407D02*
X0144882D01*
X0144082Y0433301*
X0143336Y0432993*
X0142696Y0432501*
X0142204Y0431861*
X0141895Y0431115*
X014179Y0430315*
X0141895Y0429515*
X0142204Y0428769*
X0142696Y0428129*
X0143336Y0427637*
X0143822Y0427436*
Y0426895*
X0143336Y0426693*
X0142696Y0426202*
X0142204Y0425562*
X0141895Y0424816*
X014179Y0424016*
X0141895Y0423215*
X0142204Y042247*
X0142696Y042183*
X0143336Y0421338*
X0144082Y0421029*
X0144882Y0420924*
X0145669*
X0146469Y0421029*
X0147215Y0421338*
X0147855Y042183*
X0148347Y042247*
X0148656Y0423215*
X0148761Y0424016*
X0148656Y0424816*
X0148347Y0425562*
X0147855Y0426202*
X0147215Y0426693*
X0146729Y0426895*
Y0427436*
X0147215Y0427637*
X0147855Y0428129*
X0148347Y0428769*
X0148656Y0429515*
X0148761Y0430315*
X0148656Y0431115*
X0148347Y0431861*
X0147855Y0432501*
X0147215Y0432993*
X0146469Y0433301*
X0145669Y0433407*
G37*
G36*
X0137008Y0436556D02*
X0136221D01*
X013542Y0436451*
X0134675Y0436142*
X0134034Y0435651*
X0133543Y043501*
X0133234Y0434265*
X0133129Y0433465*
X0133234Y0432664*
X0133543Y0431919*
X0134034Y0431278*
X0134675Y0430787*
X0135161Y0430586*
Y0430044*
X0134675Y0429843*
X0134034Y0429352*
X0133543Y0428711*
X0133234Y0427966*
X0133129Y0427165*
X0133234Y0426365*
X0133543Y042562*
X0134034Y0424979*
X0134675Y0424488*
X0135161Y0424286*
Y0423745*
X0134675Y0423544*
X0134034Y0423052*
X0133543Y0422412*
X0133234Y0421666*
X0133227Y0421616*
X0140001*
X0139994Y0421666*
X0139685Y0422412*
X0139194Y0423052*
X0138554Y0423544*
X0138067Y0423745*
Y0424286*
X0138554Y0424488*
X0139194Y0424979*
X0139685Y042562*
X0139994Y0426365*
X01401Y0427165*
X0139994Y0427966*
X0139685Y0428711*
X0139194Y0429352*
X0138554Y0429843*
X0138067Y0430044*
Y0430586*
X0138554Y0430787*
X0139194Y0431278*
X0139685Y0431919*
X0139994Y0432664*
X01401Y0433465*
X0139994Y0434265*
X0139685Y043501*
X0139194Y0435651*
X0138554Y0436142*
X0137808Y0436451*
X0137008Y0436556*
G37*
G36*
X0135864Y0420116D02*
X0133227D01*
X0133234Y0420066*
X0133543Y041932*
X0134034Y041868*
X0134675Y0418189*
X013542Y041788*
X0135864Y0417821*
Y0420116*
G37*
G36*
X0140001D02*
X0137364D01*
Y0417821*
X0137808Y041788*
X0138554Y0418189*
X0139194Y041868*
X0139685Y041932*
X0139994Y0420066*
X0140001Y0420116*
G37*
G36*
X0575Y0451349D02*
X057409Y0451229D01*
X0573243Y0450878*
X0572515Y045032*
X0571956Y0449592*
X0571605Y0448744*
X0571486Y0447835*
X0571605Y0446925*
X0571956Y0446077*
X0572515Y044535*
X0572977Y0444995*
Y0438068*
X0572937Y0438038*
X0572378Y043731*
X0572027Y0436462*
X0571907Y0435553*
X0572027Y0434643*
X0572378Y0433795*
X0572937Y0433068*
X0573665Y0432509*
X0574512Y0432158*
X0575422Y0432038*
X0576331Y0432158*
X0577179Y0432509*
X0577907Y0433068*
X0578465Y0433795*
X0578816Y0434643*
X0578936Y0435553*
X0578816Y0436462*
X0578465Y043731*
X0577907Y0438038*
X0577179Y0438596*
X0577023Y0438661*
Y0444995*
X0577485Y044535*
X0578044Y0446077*
X0578395Y0446925*
X0578514Y0447835*
X0578395Y0448744*
X0578044Y0449592*
X0577485Y045032*
X0576757Y0450878*
X057591Y0451229*
X0575Y0451349*
G37*
G36*
X0354433Y0523021D02*
X0353545Y0522904D01*
X0352718Y0522561*
X0352008Y0522016*
X0351463Y0521306*
X035112Y0520479*
X0351003Y0519591*
Y0473027*
X0342666Y046469*
X0342121Y046398*
X0341779Y0463153*
X0341662Y0462265*
Y0449586*
X0336866Y044479*
X0336321Y044408*
X0335979Y0443253*
X0335862Y0442365*
Y0439965*
X0335979Y0439078*
X0336321Y0438251*
X0336866Y043754*
X0337577Y0436996*
X0338404Y0436653*
X0339291Y0436536*
X0339341Y0436543*
X0339391Y0436536*
X0340279Y0436653*
X0341106Y0436996*
X0341816Y043754*
X0342361Y0438251*
X0342704Y0439078*
X0342821Y0439965*
X0342721Y0440725*
Y0440945*
X0347516Y044574*
X0348061Y0446451*
X0348404Y0447278*
X0348521Y0448165*
Y0460845*
X035735Y0469674*
X0357895Y0470384*
X0358237Y0471211*
X0358241Y0471236*
X0361991*
X0362879Y0471353*
X0363706Y0471696*
X0364416Y047224*
X0364961Y0472951*
X0365304Y0473778*
X0365421Y0474665*
X0365304Y0475553*
X0364961Y047638*
X0364416Y047709*
X0363706Y0477635*
X0362879Y0477978*
X0361991Y0478095*
X0357862*
Y0519591*
X0357745Y0520479*
X0357403Y0521306*
X0356858Y0522016*
X0356147Y0522561*
X035532Y0522904*
X0354433Y0523021*
G37*
G36*
X0626378Y0461192D02*
X0625468Y0461072D01*
X0624621Y0460721*
X0623893Y0460163*
X0623334Y0459435*
X0622983Y0458587*
X0622864Y0457678*
X0622983Y0456768*
X0623334Y045592*
X0623893Y0455193*
X0624621Y0454634*
X0625468Y0454283*
X0626378Y0454163*
X0627287Y0454283*
X0628065Y0454605*
X0641188Y0441483*
X0641844Y0441044*
X0642619Y044089*
X0645783*
X0646137Y0440428*
X0646865Y043987*
X0647713Y0439519*
X0648622Y0439399*
X0649532Y0439519*
X0650379Y043987*
X0651107Y0440428*
X0651665Y0441156*
X0652017Y0442004*
X0652136Y0442913*
X0652017Y0443823*
X0651665Y044467*
X0651107Y0445398*
X0650379Y0445957*
X0649532Y0446308*
X0648622Y0446428*
X0647713Y0446308*
X0646865Y0445957*
X0646137Y0445398*
X0645783Y0444937*
X0643457*
X0629749Y0458644*
X0629421Y0459435*
X0628863Y0460163*
X0628135Y0460721*
X0627287Y0461072*
X0626378Y0461192*
G37*
G36*
X0208033Y0444839D02*
X020677Y0444673D01*
X0205594Y0444186*
X0204583Y044341*
X0203808Y04424*
X0203321Y0441223*
X0203154Y0439961*
X0203321Y0438698*
X0203808Y0437521*
X0204583Y0436511*
X0205594Y0435736*
X020677Y0435248*
X0208033Y0435082*
X0209296Y0435248*
X0210472Y0435736*
X0211483Y0436511*
X0212258Y0437521*
X0212746Y0438698*
X0212912Y0439961*
X0212746Y0441223*
X0212258Y04424*
X0211483Y044341*
X0210472Y0444186*
X0209296Y0444673*
X0208033Y0444839*
G37*
G36*
X022575D02*
X0224487Y0444673D01*
X022331Y0444186*
X02223Y044341*
X0221525Y04424*
X0221037Y0441223*
X0220871Y0439961*
X0221037Y0438698*
X0221525Y0437521*
X02223Y0436511*
X022331Y0435736*
X0224487Y0435248*
X022575Y0435082*
X0227012Y0435248*
X0228189Y0435736*
X0229199Y0436511*
X0229975Y0437521*
X0230462Y0438698*
X0230628Y0439961*
X0230462Y0441223*
X0229975Y04424*
X0229199Y044341*
X0228189Y0444186*
X0227012Y0444673*
X022575Y0444839*
G37*
%LNunisolder52_full-3*%
%LPD*%
G36*
X0511127Y0408433D02*
X0506554D01*
X0506332Y0409502*
X0509587*
X0508476Y0414839*
X0509795*
X0511127Y0408433*
G37*
G36*
X0497227D02*
X0495984D01*
X0495741Y0409641*
X0496984*
X0497227Y0408433*
G37*
G36*
X0541316Y0413166D02*
X0541455Y0413138D01*
X0541594Y041309*
X0541719Y041302*
X0541844Y0412944*
X0541962Y0412861*
X0542073Y0412771*
X054217Y0412673*
X0542267Y0412576*
X0542344Y0412486*
X054242Y0412403*
X0542482Y0412326*
X0542531Y0412264*
X0542566Y0412208*
X0542586Y0412181*
X0542593Y0412167*
X0542406Y0413076*
X0543579*
X0544544Y0408433*
X0543301*
X0542996Y0409883*
X0542961Y0410043*
X0542927Y0410196*
X0542892Y0410335*
X0542864Y041046*
X0542829Y0410577*
X0542802Y0410682*
X0542774Y0410779*
X0542746Y0410862*
X0542718Y0410938*
X0542697Y0411001*
X0542677Y0411056*
X0542663Y0411098*
X0542649Y0411133*
X0542635Y0411154*
X0542628Y0411167*
Y0411174*
X0542552Y041132*
X0542461Y0411452*
X0542378Y0411563*
X0542288Y0411653*
X0542219Y0411729*
X0542156Y0411785*
X0542114Y0411813*
X0542108Y0411827*
X0542101*
X0541976Y041191*
X0541858Y0411972*
X0541747Y0412014*
X0541643Y0412049*
X0541559Y0412063*
X0541497Y041207*
X0541455Y0412077*
X0541441*
X0541302Y041207*
X054124Y0412056*
X0541185Y0412049*
X0541136Y0412035*
X0541101Y0412021*
X0541081Y0412014*
X0541074*
X0540595Y0413041*
X0540706Y041309*
X0540817Y0413125*
X0540914Y0413145*
X0541004Y0413166*
X0541074Y0413173*
X0541129Y041318*
X0541178*
X0541316Y0413166*
G37*
G36*
X0517151Y0414936D02*
X0517304Y0414915D01*
X0517436Y0414887*
X0517547Y0414859*
X0517637Y0414832*
X05177Y0414804*
X0517741Y0414783*
X0517748Y0414776*
X0517755*
X0517859Y0414707*
X0517949Y0414637*
X0518019Y0414561*
X0518081Y0414492*
X051813Y0414429*
X0518165Y0414381*
X0518185Y0414346*
X0518192Y0414332*
X0518213Y041429*
X0518234Y0414242*
X0518276Y0414124*
X051831Y0413999*
X0518345Y0413867*
X051838Y0413742*
X0518394Y0413687*
X05184Y0413645*
X0518407Y0413603*
X0518414Y0413576*
X0518421Y0413555*
Y0413548*
X0518526Y0413076*
X0519219*
X0519414Y041216*
X0518713*
X051949Y0408433*
X0518248*
X0517471Y041216*
X0516568*
X0516374Y0413076*
X0517276*
X0517207Y0413395*
X0517179Y041352*
X0517151Y0413624*
X0517124Y0413707*
X0517103Y041377*
X0517089Y0413811*
X0517075Y0413839*
X0517061Y0413853*
Y041386*
X051702Y0413909*
X0516964Y0413943*
X0516915Y0413964*
X051686Y0413985*
X0516818Y0413992*
X0516777Y0413999*
X0516742*
X0516631Y0413992*
X0516506Y0413971*
X0516381Y041395*
X051627Y0413923*
X0516166Y0413888*
X0516117Y0413874*
X0516083Y0413867*
X0516048Y0413853*
X0516027Y0413846*
X0516013Y0413839*
X0516006*
X0515763Y0414735*
X0515999Y0414804*
X0516221Y0414853*
X051643Y0414894*
X051652Y0414908*
X051661Y0414915*
X0516693Y0414929*
X0516763*
X0516825Y0414936*
X0516881Y0414943*
X0516978*
X0517151Y0414936*
G37*
G36*
X055782D02*
X0558007Y0414922D01*
X0558188Y0414894*
X0558354Y0414859*
X05585Y0414818*
X0558639Y0414776*
X0558771Y0414728*
X0558882Y0414679*
X0558979Y0414623*
X0559069Y0414575*
X0559145Y0414533*
X0559201Y0414492*
X0559249Y0414457*
X0559284Y0414429*
X0559305Y0414415*
X0559312Y0414408*
X0559416Y0414304*
X0559506Y04142*
X0559583Y0414089*
X0559652Y0413971*
X0559707Y041386*
X0559749Y0413749*
X0559791Y0413638*
X0559819Y0413534*
X0559846Y0413437*
X0559867Y0413346*
X0559874Y041327*
X0559888Y0413201*
Y0413138*
X0559895Y0413097*
Y0413069*
Y0413062*
X0559888Y0412895*
X0559867Y0412743*
X0559832Y0412604*
X0559798Y0412486*
X0559763Y0412389*
X0559728Y0412319*
X0559721Y0412292*
X0559707Y0412271*
X05597Y0412264*
Y0412257*
X0559624Y0412132*
X0559534Y0412021*
X0559444Y0411924*
X055936Y0411847*
X0559284Y0411778*
X0559222Y0411736*
X055918Y0411702*
X0559173Y0411695*
X0559166*
X0559097Y0411653*
X055902Y0411612*
X0558847Y0411521*
X0558666Y0411431*
X0558493Y0411341*
X055841Y0411306*
X0558326Y0411271*
X0558257Y0411237*
X0558194Y0411209*
X0558146Y0411188*
X0558111Y0411167*
X0558083Y041116*
X0558076Y0411154*
X0557945Y0411098*
X055782Y0411042*
X0557716Y0410994*
X0557619Y0410945*
X0557528Y0410904*
X0557459Y0410869*
X0557389Y0410834*
X0557334Y04108*
X0557292Y0410772*
X0557251Y0410751*
X0557223Y041073*
X0557195Y0410716*
X0557167Y0410696*
X055716Y0410688*
X0557084Y0410612*
X0557022Y0410529*
X055698Y0410446*
X0556952Y0410369*
X0556938Y0410307*
X0556924Y0410251*
Y0410217*
Y0410203*
X0556938Y0410085*
X0556973Y0409981*
X0557015Y0409883*
X055707Y04098*
X0557126Y0409738*
X0557167Y0409689*
X0557202Y0409661*
X0557216Y0409648*
X0557271Y0409606*
X0557341Y0409571*
X055748Y0409516*
X0557639Y0409474*
X0557792Y0409446*
X0557931Y0409432*
X0557993Y0409425*
X0558049*
X055809Y0409418*
X0558153*
X0558292Y0409425*
X0558417Y0409432*
X0558535Y0409453*
X0558646Y0409474*
X0558743Y0409495*
X0558826Y0409529*
X0558902Y0409557*
X0558972Y0409592*
X0559034Y040962*
X0559083Y0409655*
X0559124Y0409682*
X0559159Y0409703*
X055918Y0409731*
X0559201Y0409745*
X0559208Y0409752*
X0559215Y0409759*
X0559249Y04098*
X0559277Y0409856*
X0559319Y0409974*
X055936Y0410106*
X0559381Y0410244*
X0559402Y0410369*
Y0410425*
X0559409Y0410473*
X0559416Y0410515*
Y0410543*
Y0410564*
Y041057*
X0560672Y0410501*
X0560665Y0410265*
X0560644Y041005*
X056061Y0409856*
X0560589Y0409772*
X0560568Y0409689*
X056054Y040962*
X0560519Y040955*
X0560499Y0409495*
X0560485Y0409453*
X0560464Y0409412*
X0560457Y0409384*
X0560443Y040937*
Y0409363*
X0560394Y0409273*
X0560332Y040919*
X0560207Y0409037*
X0560061Y0408905*
X0559923Y0408794*
X0559791Y0408704*
X0559735Y0408669*
X0559687Y0408641*
X0559645Y040862*
X0559617Y0408606*
X0559596Y0408593*
X0559589*
X0559353Y0408502*
X0559111Y0408433*
X0558875Y0408384*
X0558757Y0408364*
X0558646Y040835*
X0558548Y0408336*
X0558451Y0408329*
X0558368Y0408322*
X0558299*
X0558243Y0408315*
X055816*
X0557945Y0408322*
X0557736Y0408343*
X0557542Y0408371*
X0557362Y0408405*
X0557195Y0408454*
X0557043Y0408502*
X0556904Y0408558*
X0556779Y0408613*
X0556668Y0408669*
X055657Y0408724*
X0556487Y0408773*
X0556418Y0408822*
X0556362Y0408856*
X0556321Y0408884*
X05563Y0408905*
X0556293Y0408912*
X0556175Y040903*
X0556071Y0409148*
X0555981Y0409273*
X0555904Y0409391*
X0555835Y0409516*
X0555786Y0409634*
X0555738Y0409752*
X0555703Y0409863*
X0555675Y0409967*
X0555654Y0410064*
X0555641Y0410147*
X0555627Y0410223*
Y0410279*
X055562Y0410328*
Y0410355*
Y0410362*
X0555627Y0410487*
X0555641Y0410605*
X0555661Y0410723*
X0555689Y0410827*
X0555724Y0410924*
X0555765Y0411022*
X05558Y0411105*
X0555842Y0411181*
X055589Y0411251*
X0555925Y0411313*
X0555967Y0411362*
X0556002Y041141*
X0556029Y0411445*
X055605Y0411466*
X0556064Y041148*
X0556071Y0411487*
X0556133Y0411542*
X0556217Y0411605*
X0556314Y0411667*
X0556418Y0411736*
X0556536Y0411799*
X0556654Y0411861*
X055689Y0411986*
X0557008Y0412042*
X0557112Y0412097*
X0557216Y0412146*
X0557299Y0412188*
X0557376Y0412215*
X0557431Y0412243*
X0557466Y0412257*
X055748Y0412264*
X0557612Y0412319*
X0557729Y0412375*
X055784Y041243*
X0557938Y0412479*
X0558028Y0412521*
X0558104Y0412562*
X0558174Y0412597*
X0558229Y0412632*
X0558278Y0412666*
X0558326Y0412687*
X0558361Y0412715*
X0558382Y0412729*
X0558417Y0412757*
X055843Y0412764*
X05585Y0412833*
X0558548Y0412909*
X055859Y0412986*
X0558611Y0413062*
X0558625Y0413125*
X0558632Y0413173*
X0558639Y0413208*
Y0413222*
X0558632Y0413326*
X0558604Y0413423*
X0558569Y0413506*
X0558521Y0413576*
X0558479Y0413631*
X0558444Y0413673*
X0558417Y04137*
X055841Y0413707*
X0558361Y0413742*
X0558306Y041377*
X0558188Y0413819*
X0558056Y0413853*
X0557931Y0413881*
X0557813Y0413895*
X0557757*
X0557716Y0413902*
X0557625*
X0557431Y0413888*
X0557258Y041386*
X0557119Y0413825*
X0556994Y0413777*
X0556904Y0413728*
X0556841Y0413694*
X05568Y0413666*
X0556786Y0413652*
X0556688Y0413555*
X0556612Y0413437*
X0556557Y0413326*
X0556515Y0413208*
X055648Y0413111*
X0556466Y0413027*
X055646Y0412993*
X0556453Y0412972*
Y0412958*
Y0412951*
X055519Y0413006*
X055521Y0413166*
X0555238Y0413319*
X0555273Y0413458*
X0555321Y0413596*
X0555377Y0413721*
X0555432Y0413832*
X0555495Y0413943*
X055555Y0414034*
X0555613Y0414124*
X0555668Y0414193*
X0555724Y0414263*
X0555772Y0414311*
X0555814Y0414353*
X0555842Y0414388*
X0555863Y0414401*
X055587Y0414408*
X0555988Y0414505*
X0556119Y0414582*
X0556258Y0414658*
X0556404Y0414721*
X055655Y0414769*
X0556695Y0414811*
X0556834Y0414846*
X0556973Y0414873*
X0557105Y0414901*
X055723Y0414915*
X0557334Y0414929*
X0557431Y0414936*
X0557507Y0414943*
X0557619*
X055782Y0414936*
G37*
G36*
X0498823Y0412437D02*
X0498913Y0412569D01*
X0499017Y041268*
X0499128Y0412784*
X0499246Y0412868*
X0499364Y0412937*
X0499482Y0412999*
X04996Y0413048*
X0499711Y041309*
X0499822Y0413118*
X0499919Y0413138*
X0500009Y0413159*
X0500086Y0413166*
X0500155Y0413173*
X0500204Y041318*
X0500246*
X050044Y0413173*
X050062Y0413138*
X0500787Y0413097*
X0500953Y0413041*
X0501099Y0412972*
X0501238Y0412895*
X050137Y0412812*
X0501481Y0412729*
X0501585Y0412646*
X0501675Y0412562*
X0501752Y0412486*
X0501814Y0412417*
X0501862Y0412361*
X0501904Y0412319*
X0501925Y0412285*
X0501932Y0412278*
X0502043Y0412104*
X050214Y0411931*
X0502223Y0411757*
X05023Y0411584*
X0502355Y041141*
X0502411Y0411244*
X0502452Y0411084*
X0502487Y0410931*
X0502508Y0410786*
X0502529Y0410661*
X0502543Y0410543*
X0502557Y0410446*
Y0410369*
X0502563Y0410307*
Y0410272*
Y0410258*
X0502557Y0410085*
X0502543Y0409918*
X0502522Y0409765*
X0502494Y0409627*
X0502459Y0409495*
X0502425Y0409377*
X0502383Y0409266*
X0502341Y0409169*
X05023Y0409085*
X0502258Y0409009*
X0502223Y0408947*
X0502189Y0408891*
X0502161Y0408849*
X050214Y0408822*
X0502126Y0408808*
X0502119Y0408801*
X0502029Y0408718*
X0501939Y0408641*
X0501842Y0408579*
X0501745Y0408523*
X0501647Y0408475*
X050155Y0408433*
X050146Y0408398*
X050137Y0408378*
X050128Y0408357*
X0501203Y0408343*
X0501134Y0408329*
X0501071Y0408322*
X0501023Y0408315*
X0500953*
X0500801Y0408322*
X0500662Y0408336*
X0500537Y0408357*
X0500426Y0408384*
X0500336Y0408412*
X0500266Y0408433*
X0500246Y040844*
X0500225Y0408447*
X0500218Y0408454*
X0500211*
X0500086Y0408516*
X0499961Y0408593*
X049985Y0408669*
X0499746Y0408745*
X0499656Y0408815*
X0499593Y040887*
X0499565Y0408898*
X0499544Y0408912*
X0499538Y0408919*
X0499531Y0408926*
X0499635Y0408433*
X0498455*
X0497053Y0414839*
X0498302*
X0498823Y0412437*
G37*
G36*
X0551615Y0413173D02*
X0551747Y0413159D01*
X0551872Y0413138*
X0551976Y0413111*
X0552067Y0413083*
X0552136Y0413062*
X0552157Y0413055*
X0552177Y0413048*
X0552184Y0413041*
X0552191*
X0552316Y0412986*
X0552441Y0412916*
X0552559Y041284*
X055267Y0412764*
X0552761Y0412701*
X0552837Y0412646*
X0552865Y0412618*
X0552885Y0412604*
X0552892Y0412597*
X0552899Y041259*
X0552802Y0413076*
X0553982*
X0555321Y0406663*
X0554079*
X0553579Y0409058*
X0553489Y0408926*
X0553385Y0408815*
X0553274Y0408711*
X0553163Y0408627*
X0553045Y0408558*
X0552927Y0408496*
X0552816Y0408447*
X0552705Y0408405*
X0552601Y0408378*
X0552504Y0408357*
X0552414Y0408336*
X0552337Y0408329*
X0552275Y0408322*
X0552226Y0408315*
X0552184*
X0552018Y0408322*
X0551858Y040835*
X0551706Y0408384*
X055156Y0408433*
X0551421Y0408489*
X0551296Y0408551*
X0551178Y0408613*
X0551067Y0408683*
X055097Y0408752*
X0550887Y0408815*
X055081Y0408877*
X0550748Y0408933*
X0550699Y0408981*
X0550658Y0409016*
X0550637Y0409044*
X055063Y0409051*
X0550491Y0409217*
X0550373Y0409391*
X0550276Y0409571*
X0550186Y0409752*
X0550109Y0409925*
X0550047Y0410106*
X0549998Y0410272*
X0549957Y0410439*
X0549922Y0410591*
X0549901Y041073*
X054988Y0410855*
X0549873Y0410966*
X0549866Y0411056*
X054986Y0411119*
Y041116*
Y0411174*
X0549866Y0411355*
X054988Y0411528*
X0549901Y0411681*
X0549929Y0411834*
X0549964Y0411966*
X0549998Y041209*
X055004Y0412201*
X0550082Y0412299*
X0550123Y0412389*
X0550165Y0412465*
X05502Y0412528*
X0550234Y0412583*
X0550262Y0412618*
X0550283Y0412652*
X0550297Y0412666*
X0550304Y0412673*
X0550387Y0412764*
X0550484Y041284*
X0550574Y0412909*
X0550671Y0412965*
X0550776Y0413013*
X0550873Y0413055*
X0550963Y041309*
X0551053Y0413118*
X0551144Y0413138*
X055122Y0413152*
X0551296Y0413166*
X0551359Y0413173*
X0551407Y041318*
X0551477*
X0551615Y0413173*
G37*
G36*
X0527978Y0414936D02*
X0528165Y0414922D01*
X0528346Y0414894*
X0528512Y0414859*
X0528658Y0414818*
X0528797Y0414776*
X0528929Y0414728*
X0529039Y0414679*
X0529137Y0414623*
X0529227Y0414575*
X0529303Y0414533*
X0529359Y0414492*
X0529407Y0414457*
X0529442Y0414429*
X0529463Y0414415*
X052947Y0414408*
X0529574Y0414304*
X0529664Y04142*
X052974Y0414089*
X052981Y0413971*
X0529865Y041386*
X0529907Y0413749*
X0529949Y0413638*
X0529977Y0413534*
X0530004Y0413437*
X0530025Y0413346*
X0530032Y041327*
X0530046Y0413201*
Y0413138*
X0530053Y0413097*
Y0413069*
Y0413062*
X0530046Y0412895*
X0530025Y0412743*
X052999Y0412604*
X0529956Y0412486*
X0529921Y0412389*
X0529886Y0412319*
X0529879Y0412292*
X0529865Y0412271*
X0529858Y0412264*
Y0412257*
X0529782Y0412132*
X0529692Y0412021*
X0529602Y0411924*
X0529518Y0411847*
X0529442Y0411778*
X052938Y0411736*
X0529338Y0411702*
X0529331Y0411695*
X0529324*
X0529255Y0411653*
X0529178Y0411612*
X0529005Y0411521*
X0528824Y0411431*
X0528651Y0411341*
X0528568Y0411306*
X0528484Y0411271*
X0528415Y0411237*
X0528352Y0411209*
X0528304Y0411188*
X0528269Y0411167*
X0528241Y041116*
X0528234Y0411154*
X0528103Y0411098*
X0527978Y0411042*
X0527874Y0410994*
X0527776Y0410945*
X0527686Y0410904*
X0527617Y0410869*
X0527548Y0410834*
X0527492Y04108*
X052745Y0410772*
X0527409Y0410751*
X0527381Y041073*
X0527353Y0410716*
X0527325Y0410696*
X0527318Y0410688*
X0527242Y0410612*
X052718Y0410529*
X0527138Y0410446*
X052711Y0410369*
X0527096Y0410307*
X0527082Y0410251*
Y0410217*
Y0410203*
X0527096Y0410085*
X0527131Y0409981*
X0527173Y0409883*
X0527228Y04098*
X0527284Y0409738*
X0527325Y0409689*
X052736Y0409661*
X0527374Y0409648*
X0527429Y0409606*
X0527499Y0409571*
X0527638Y0409516*
X0527797Y0409474*
X052795Y0409446*
X0528089Y0409432*
X0528151Y0409425*
X0528207*
X0528248Y0409418*
X0528311*
X052845Y0409425*
X0528575Y0409432*
X0528693Y0409453*
X0528804Y0409474*
X0528901Y0409495*
X0528984Y0409529*
X052906Y0409557*
X052913Y0409592*
X0529192Y040962*
X0529241Y0409655*
X0529282Y0409682*
X0529317Y0409703*
X0529338Y0409731*
X0529359Y0409745*
X0529366Y0409752*
X0529373Y0409759*
X0529407Y04098*
X0529435Y0409856*
X0529477Y0409974*
X0529518Y0410106*
X0529539Y0410244*
X052956Y0410369*
Y0410425*
X0529567Y0410473*
X0529574Y0410515*
Y0410543*
Y0410564*
Y041057*
X053083Y0410501*
X0530823Y0410265*
X0530802Y041005*
X0530768Y0409856*
X0530747Y0409772*
X0530726Y0409689*
X0530698Y040962*
X0530677Y040955*
X0530657Y0409495*
X0530643Y0409453*
X0530622Y0409412*
X0530615Y0409384*
X0530601Y040937*
Y0409363*
X0530552Y0409273*
X053049Y040919*
X0530365Y0409037*
X0530219Y0408905*
X0530081Y0408794*
X0529949Y0408704*
X0529893Y0408669*
X0529845Y0408641*
X0529803Y040862*
X0529775Y0408606*
X0529754Y0408593*
X0529747*
X0529511Y0408502*
X0529269Y0408433*
X0529033Y0408384*
X0528915Y0408364*
X0528804Y040835*
X0528706Y0408336*
X0528609Y0408329*
X0528526Y0408322*
X0528457*
X0528401Y0408315*
X0528318*
X0528103Y0408322*
X0527894Y0408343*
X05277Y0408371*
X052752Y0408405*
X0527353Y0408454*
X0527201Y0408502*
X0527062Y0408558*
X0526937Y0408613*
X0526826Y0408669*
X0526728Y0408724*
X0526645Y0408773*
X0526576Y0408822*
X052652Y0408856*
X0526479Y0408884*
X0526458Y0408905*
X0526451Y0408912*
X0526333Y040903*
X0526229Y0409148*
X0526139Y0409273*
X0526062Y0409391*
X0525993Y0409516*
X0525944Y0409634*
X0525896Y0409752*
X0525861Y0409863*
X0525833Y0409967*
X0525812Y0410064*
X0525799Y0410147*
X0525785Y0410223*
Y0410279*
X0525778Y0410328*
Y0410355*
Y0410362*
X0525785Y0410487*
X0525799Y0410605*
X0525819Y0410723*
X0525847Y0410827*
X0525882Y0410924*
X0525923Y0411022*
X0525958Y0411105*
X0526Y0411181*
X0526048Y0411251*
X0526083Y0411313*
X0526125Y0411362*
X0526159Y041141*
X0526187Y0411445*
X0526208Y0411466*
X0526222Y041148*
X0526229Y0411487*
X0526291Y0411542*
X0526375Y0411605*
X0526472Y0411667*
X0526576Y0411736*
X0526694Y0411799*
X0526812Y0411861*
X0527048Y0411986*
X0527166Y0412042*
X052727Y0412097*
X0527374Y0412146*
X0527457Y0412188*
X0527534Y0412215*
X0527589Y0412243*
X0527624Y0412257*
X0527638Y0412264*
X052777Y0412319*
X0527887Y0412375*
X0527998Y041243*
X0528096Y0412479*
X0528186Y0412521*
X0528262Y0412562*
X0528332Y0412597*
X0528387Y0412632*
X0528436Y0412666*
X0528484Y0412687*
X0528519Y0412715*
X052854Y0412729*
X0528575Y0412757*
X0528588Y0412764*
X0528658Y0412833*
X0528706Y0412909*
X0528748Y0412986*
X0528769Y0413062*
X0528783Y0413125*
X052879Y0413173*
X0528797Y0413208*
Y0413222*
X052879Y0413326*
X0528762Y0413423*
X0528727Y0413506*
X0528679Y0413576*
X0528637Y0413631*
X0528602Y0413673*
X0528575Y04137*
X0528568Y0413707*
X0528519Y0413742*
X0528464Y041377*
X0528346Y0413819*
X0528214Y0413853*
X0528089Y0413881*
X0527971Y0413895*
X0527915*
X0527874Y0413902*
X0527783*
X0527589Y0413888*
X0527416Y041386*
X0527277Y0413825*
X0527152Y0413777*
X0527062Y0413728*
X0526999Y0413694*
X0526958Y0413666*
X0526944Y0413652*
X0526847Y0413555*
X052677Y0413437*
X0526715Y0413326*
X0526673Y0413208*
X0526638Y0413111*
X0526624Y0413027*
X0526617Y0412993*
X0526611Y0412972*
Y0412958*
Y0412951*
X0525348Y0413006*
X0525368Y0413166*
X0525396Y0413319*
X0525431Y0413458*
X0525479Y0413596*
X0525535Y0413721*
X052559Y0413832*
X0525653Y0413943*
X0525708Y0414034*
X0525771Y0414124*
X0525826Y0414193*
X0525882Y0414263*
X052593Y0414311*
X0525972Y0414353*
X0526Y0414388*
X0526021Y0414401*
X0526028Y0414408*
X0526146Y0414505*
X0526277Y0414582*
X0526416Y0414658*
X0526562Y0414721*
X0526708Y0414769*
X0526853Y0414811*
X0526992Y0414846*
X0527131Y0414873*
X0527263Y0414901*
X0527388Y0414915*
X0527492Y0414929*
X0527589Y0414936*
X0527665Y0414943*
X0527776*
X0527978Y0414936*
G37*
G36*
X0522467Y0413173D02*
X0522676Y0413145D01*
X052287Y0413111*
X052305Y0413062*
X0523224Y0412999*
X0523377Y0412937*
X0523522Y0412868*
X0523654Y0412798*
X0523772Y0412722*
X0523876Y0412652*
X0523959Y041259*
X0524036Y0412528*
X0524091Y0412479*
X0524133Y0412444*
X0524161Y0412417*
X0524168Y041241*
X0524293Y0412257*
X0524404Y0412097*
X0524501Y0411931*
X0524584Y0411764*
X0524653Y0411591*
X0524716Y0411417*
X0524758Y0411251*
X0524799Y0411091*
X0524827Y0410938*
X0524848Y04108*
X0524869Y0410675*
X0524876Y0410564*
X0524883Y0410473*
X0524889Y0410404*
Y0410362*
Y0410355*
Y0410349*
X0524876Y0410147*
X0524848Y0409953*
X0524813Y0409779*
X0524764Y0409627*
X0524744Y0409557*
X0524723Y0409495*
X0524702Y0409446*
X0524681Y0409398*
X0524667Y0409363*
X0524653Y0409335*
X0524647Y0409321*
Y0409314*
X0524542Y0409148*
X0524424Y0408995*
X0524299Y040887*
X0524175Y0408766*
X0524064Y0408683*
X0524015Y0408648*
X0523973Y040862*
X0523939Y04086*
X0523911Y0408586*
X0523897Y0408572*
X052389*
X0523696Y0408489*
X0523494Y0408426*
X05233Y0408378*
X052312Y040835*
X0523036Y0408336*
X052296Y0408329*
X0522891Y0408322*
X0522835*
X0522787Y0408315*
X0522724*
X0522502Y0408322*
X0522294Y040835*
X0522099Y0408391*
X0521912Y040844*
X0521739Y0408502*
X0521586Y0408572*
X052144Y0408648*
X0521308Y0408724*
X052119Y0408801*
X0521086Y0408877*
X0520996Y0408947*
X0520927Y0409009*
X0520871Y0409058*
X0520829Y0409099*
X0520802Y0409127*
X0520795Y0409134*
X052067Y0409294*
X0520559Y0409453*
X0520462Y040962*
X0520378Y0409786*
X0520309Y0409953*
X0520247Y0410112*
X0520198Y0410272*
X0520163Y0410418*
X0520135Y0410557*
X0520108Y0410682*
X0520094Y04108*
X0520087Y0410897*
X052008Y0410973*
X0520073Y0411035*
Y041107*
Y0411084*
X052008Y0411258*
X0520101Y0411424*
X0520129Y0411584*
X0520163Y0411729*
X0520205Y0411861*
X052026Y0411986*
X0520309Y0412104*
X0520365Y0412208*
X052042Y0412299*
X0520469Y0412382*
X0520517Y0412451*
X0520566Y0412507*
X0520601Y0412555*
X0520628Y0412583*
X0520649Y0412604*
X0520656Y0412611*
X0520767Y0412708*
X0520892Y0412798*
X0521017Y0412875*
X0521149Y0412937*
X0521281Y0412993*
X0521413Y0413041*
X0521544Y0413076*
X0521669Y0413111*
X0521787Y0413131*
X0521898Y0413152*
X0521995Y0413166*
X0522086Y0413173*
X0522155*
X0522204Y041318*
X0522252*
X0522467Y0413173*
G37*
G36*
X0534821Y0408433D02*
X053489Y040828D01*
X0534966Y0408142*
X053505Y0408024*
X0535126Y0407926*
X0535209Y0407836*
X0535286Y0407767*
X0535362Y0407711*
X0535438Y0407663*
X0535508Y0407628*
X053557Y04076*
X0535626Y0407579*
X0535674Y0407565*
X0535716Y0407559*
X0535744Y0407552*
X0535771*
X0535931Y0407565*
X0536007Y0407573*
X053607Y0407586*
X0536125Y04076*
X0536167Y0407607*
X0536202Y0407621*
X0536209*
X0536313Y0406691*
X0536132Y0406642*
X0535966Y0406608*
X0535813Y040658*
X0535681Y0406566*
X0535577Y0406552*
X0535528*
X0535494Y0406545*
X0535424*
X0535279Y0406552*
X0535147Y0406566*
X0535029Y0406594*
X0534932Y0406622*
X0534848Y0406642*
X0534786Y040667*
X0534751Y0406684*
X0534737Y0406691*
X0534633Y0406753*
X0534543Y0406816*
X053446Y0406885*
X053439Y0406948*
X0534328Y0407003*
X0534286Y0407052*
X0534258Y040708*
X0534251Y0407094*
X053421Y0407149*
X0534168Y0407205*
X0534078Y0407343*
X0533981Y0407489*
X0533891Y0407635*
X0533814Y0407767*
X053378Y0407829*
X0533745Y0407878*
X0533724Y040792*
X0533703Y0407954*
X0533696Y0407975*
X0533689Y0407982*
X0530823Y0413076*
X0532149*
X0533259Y0411008*
X0533412Y0410716*
X0533544Y0410439*
X0533606Y0410307*
X0533662Y0410189*
X0533717Y0410071*
X0533759Y040996*
X05338Y0409863*
X0533835Y0409772*
X053387Y0409696*
X0533891Y0409634*
X0533911Y0409578*
X0533925Y0409543*
X0533939Y0409516*
Y0409509*
X0533946Y0409585*
Y0409668*
X0533953Y0409759*
X0533967Y0409856*
X0533988Y0410064*
X0534009Y0410272*
X0534023Y0410369*
X0534029Y041046*
X0534043Y0410543*
X053405Y0410612*
X0534057Y0410675*
X0534064Y0410716*
X0534071Y0410751*
Y0410758*
X0534383Y0413076*
X0535626*
X0534821Y0408433*
G37*
G36*
X0515361Y0413811D02*
X0515514Y0413076D01*
X0516124*
X0516319Y0412146*
X0515701*
X0516103Y0410272*
X0516131Y0410133*
X0516159Y0410008*
X051618Y0409897*
X0516194Y0409793*
X0516208Y0409703*
X0516221Y040962*
X0516235Y040955*
X0516242Y0409488*
X0516249Y0409439*
X0516256Y0409398*
Y0409363*
X0516263Y0409335*
Y0409314*
Y0409301*
Y0409287*
X0516256Y0409203*
X0516249Y0409127*
X0516214Y0408981*
X0516166Y0408856*
X051611Y0408759*
X0516062Y0408676*
X0516013Y040862*
X0515978Y0408586*
X0515965Y0408572*
X0515902Y040853*
X0515833Y0408489*
X0515687Y0408426*
X051552Y0408378*
X0515361Y040835*
X0515222Y0408329*
X051516Y0408322*
X0515104*
X0515056Y0408315*
X0514868*
X0514743Y0408329*
X0514632Y0408336*
X0514535Y040835*
X0514445Y0408364*
X0514382Y0408371*
X0514341Y0408384*
X0514327*
X0514132Y0409314*
X051425Y0409301*
X0514341Y0409294*
X0514417Y0409287*
X0514472*
X0514514Y040928*
X0514556*
X0514639Y0409287*
X0514708Y0409294*
X0514764Y0409307*
X0514813Y0409321*
X0514847Y0409335*
X0514868Y0409342*
X0514882Y0409356*
X0514889*
X0514917Y0409391*
X0514937Y0409425*
X0514965Y0409502*
X0514972Y0409537*
X0514979Y0409564*
Y0409578*
Y0409585*
Y0409606*
X0514972Y0409634*
X0514965Y0409668*
X0514958Y040971*
X0514944Y0409807*
X0514924Y0409918*
X0514903Y0410015*
X0514882Y0410106*
X0514875Y041014*
Y0410168*
X0514868Y0410182*
Y0410189*
X0514452Y0412146*
X0513688*
X0513494Y0413076*
X0514264*
X0513931Y0414679*
X0515361Y0413811*
G37*
G36*
X0546952Y0413173D02*
X0547097Y0413166D01*
X0547243Y0413145*
X0547375Y0413125*
X05475Y0413097*
X0547611Y0413069*
X0547715Y0413034*
X0547812Y0413006*
X0547895Y0412972*
X0547972Y0412937*
X0548034Y0412909*
X0548083Y0412882*
X0548125Y0412861*
X0548159Y041284*
X0548173Y0412833*
X054818Y0412826*
X0548277Y0412757*
X054836Y0412687*
X0548444Y0412611*
X0548513Y0412528*
X0548638Y0412368*
X0548742Y0412215*
X0548818Y0412077*
X0548846Y0412014*
X0548867Y0411966*
X0548888Y0411924*
X0548902Y0411889*
X0548909Y0411868*
Y0411861*
X0547687Y0411764*
X0547653Y0411847*
X0547618Y0411924*
X0547576Y0411993*
X0547528Y0412049*
X0547486Y041209*
X0547451Y0412118*
X0547431Y0412139*
X0547424Y0412146*
X0547347Y0412194*
X0547257Y0412229*
X0547167Y041225*
X0547084Y0412271*
X0547007Y0412278*
X0546945Y0412285*
X0546889*
X0546778Y0412278*
X0546681Y0412264*
X0546598Y0412243*
X0546528Y0412215*
X054648Y0412188*
X0546438Y0412167*
X0546417Y0412153*
X054641Y0412146*
X0546355Y041209*
X0546313Y0412035*
X0546285Y0411979*
X0546265Y0411924*
X0546251Y0411875*
X0546244Y0411841*
Y0411813*
Y0411806*
Y0411743*
X0546258Y0411674*
X0546272Y0411605*
X0546285Y0411535*
X0546299Y041148*
X0546313Y0411431*
X054632Y0411403*
X0546327Y0411389*
X0546389Y0411369*
X0546466Y0411348*
X0546549Y0411334*
X0546639Y0411313*
X0546834Y0411285*
X0547035Y0411258*
X0547132Y0411244*
X0547222Y0411237*
X0547306Y041123*
X0547375Y0411223*
X0547437Y0411216*
X0547479Y0411209*
X0547521*
X0547715Y0411188*
X0547889Y0411167*
X0548048Y0411133*
X0548201Y0411098*
X0548333Y0411056*
X0548458Y0411022*
X0548562Y041098*
X0548659Y0410938*
X0548742Y0410897*
X0548812Y0410855*
X0548867Y041082*
X0548916Y0410786*
X054895Y0410758*
X0548978Y0410744*
X0548992Y041073*
X0548999Y0410723*
X0549068Y0410647*
X0549131Y0410564*
X0549186Y041048*
X0549235Y041039*
X0549277Y04103*
X0549311Y0410217*
X054936Y0410043*
X0549374Y0409967*
X0549388Y040989*
X0549395Y0409828*
X0549402Y0409772*
X0549408Y0409724*
Y0409689*
Y0409668*
Y0409661*
X0549402Y040955*
X0549395Y0409453*
X0549353Y0409259*
X0549291Y0409092*
X0549221Y0408954*
X0549186Y0408898*
X0549152Y0408843*
X0549117Y0408794*
X0549089Y0408759*
X0549068Y0408731*
X0549048Y0408711*
X0549041Y0408697*
X0549034Y040869*
X0548964Y0408627*
X0548888Y0408565*
X0548805Y0408516*
X0548728Y0408475*
X0548569Y0408405*
X0548416Y0408364*
X0548284Y0408336*
X0548229Y0408329*
X054818Y0408322*
X0548138Y0408315*
X0548083*
X0547951Y0408322*
X0547819Y0408343*
X0547694Y0408371*
X0547583Y0408398*
X0547493Y0408426*
X0547424Y0408454*
X0547396Y0408468*
X0547375Y0408475*
X0547368Y0408482*
X0547361*
X0547229Y0408551*
X0547111Y0408627*
X0547Y0408704*
X0546903Y040878*
X0546827Y0408849*
X0546771Y0408905*
X0546736Y040894*
X0546723Y0408954*
X0546716Y0408856*
X0546702Y0408759*
X0546688Y0408669*
X0546674Y0408593*
X054666Y0408523*
X0546646Y0408475*
X0546632Y0408447*
Y0408433*
X0545418*
X0545453Y0408565*
X0545473Y040869*
X0545494Y0408801*
X0545501Y0408898*
X0545508Y0408981*
X0545515Y0409044*
Y0409078*
Y0409092*
Y0409162*
X0545508Y0409238*
X0545501Y0409321*
X0545487Y0409412*
X054546Y0409606*
X0545425Y0409793*
X0545411Y0409883*
X054539Y0409974*
X0545376Y041005*
X0545362Y0410119*
X0545349Y0410175*
X0545342Y0410217*
X0545335Y0410244*
Y0410251*
X0545293Y0410432*
X0545258Y0410591*
X0545231Y0410737*
X0545203Y0410869*
X0545175Y0410987*
X0545154Y0411084*
X054514Y0411174*
X0545119Y0411251*
X0545113Y0411313*
X0545099Y0411369*
X0545092Y041141*
X0545085Y0411438*
Y0411466*
X0545078Y041148*
Y0411494*
X054505Y041166*
X0545043Y0411736*
Y0411806*
X0545036Y0411861*
Y0411903*
Y0411931*
Y0411938*
X0545043Y0412035*
X0545057Y0412125*
X0545078Y0412215*
X0545106Y0412299*
X0545175Y0412444*
X0545251Y0412576*
X0545328Y041268*
X0545369Y0412722*
X0545397Y0412757*
X0545425Y0412784*
X0545446Y0412805*
X054546Y0412812*
X0545467Y0412819*
X054555Y0412882*
X0545647Y0412937*
X0545751Y0412986*
X0545855Y0413027*
X0546077Y041309*
X0546292Y0413138*
X0546389Y0413152*
X0546487Y0413159*
X054657Y0413166*
X0546646Y0413173*
X0546709Y041318*
X0546792*
X0546952Y0413173*
G37*
G36*
X0541018Y0408433D02*
X0539776D01*
X0539484Y0409814*
X0538624Y0410577*
X0537978Y0408433*
X0536722*
X0537721Y0411396*
X0535855Y0413076*
X0537486*
X0539137Y0411487*
X0538436Y0414839*
X0539685*
X0541018Y0408433*
G37*
G36*
X0504437Y0413811D02*
X050459Y0413076D01*
X0505201*
X0505395Y0412146*
X0504777*
X050518Y0410272*
X0505208Y0410133*
X0505235Y0410008*
X0505256Y0409897*
X050527Y0409793*
X0505284Y0409703*
X0505298Y040962*
X0505312Y040955*
X0505319Y0409488*
X0505326Y0409439*
X0505333Y0409398*
Y0409363*
X0505339Y0409335*
Y0409314*
Y0409301*
Y0409287*
X0505333Y0409203*
X0505326Y0409127*
X0505291Y0408981*
X0505242Y0408856*
X0505187Y0408759*
X0505138Y0408676*
X050509Y040862*
X0505055Y0408586*
X0505041Y0408572*
X0504979Y040853*
X0504909Y0408489*
X0504763Y0408426*
X0504597Y0408378*
X0504437Y040835*
X0504298Y0408329*
X0504236Y0408322*
X050418*
X0504132Y0408315*
X0503944*
X050382Y0408329*
X0503709Y0408336*
X0503611Y040835*
X0503521Y0408364*
X0503459Y0408371*
X0503417Y0408384*
X0503403*
X0503209Y0409314*
X0503327Y0409301*
X0503417Y0409294*
X0503493Y0409287*
X0503549*
X0503591Y040928*
X0503632*
X0503716Y0409287*
X0503785Y0409294*
X050384Y0409307*
X0503889Y0409321*
X0503924Y0409335*
X0503944Y0409342*
X0503958Y0409356*
X0503965*
X0503993Y0409391*
X0504014Y0409425*
X0504042Y0409502*
X0504049Y0409537*
X0504056Y0409564*
Y0409578*
Y0409585*
Y0409606*
X0504049Y0409634*
X0504042Y0409668*
X0504035Y040971*
X0504021Y0409807*
X0504Y0409918*
X0503979Y0410015*
X0503958Y0410106*
X0503952Y041014*
Y0410168*
X0503944Y0410182*
Y0410189*
X0503528Y0412146*
X0502765*
X050257Y0413076*
X0503341*
X0503008Y0414679*
X0504437Y0413811*
G37*
%LNunisolder52_full-4*%
%LPC*%
G36*
X0546501Y0410591D02*
X0546494D01*
X0546528Y0410425*
X0546563Y0410265*
X0546605Y0410119*
X0546639Y0410008*
X0546674Y0409911*
X0546709Y0409835*
X054673Y0409786*
X0546743Y0409752*
X054675Y0409745*
X0546799Y0409668*
X0546862Y0409599*
X0546924Y0409537*
X0546979Y0409488*
X0547035Y0409446*
X0547084Y0409418*
X0547111Y0409398*
X0547125Y0409391*
X0547222Y0409349*
X0547313Y0409314*
X0547403Y0409294*
X0547486Y0409273*
X0547555Y0409266*
X0547611Y0409259*
X054766*
X054775Y0409266*
X0547833Y040928*
X0547902Y0409307*
X0547965Y0409335*
X0548013Y0409356*
X0548048Y0409384*
X0548069Y0409398*
X0548076Y0409405*
X0548125Y0409467*
X0548166Y0409529*
X0548194Y0409585*
X0548208Y0409648*
X0548222Y0409696*
X0548229Y0409738*
Y0409765*
Y0409772*
X0548222Y040987*
X0548194Y0409953*
X0548166Y0410022*
X0548125Y0410085*
X054809Y0410133*
X0548055Y0410168*
X0548034Y0410189*
X0548027Y0410196*
X0547965Y0410237*
X0547889Y0410272*
X0547805Y0410307*
X0547708Y0410342*
X0547507Y0410397*
X0547299Y0410446*
X0547201Y0410466*
X0547104Y041048*
X0547021Y0410494*
X0546945Y0410508*
X0546882Y0410515*
X0546834Y0410522*
X0546806Y0410529*
X0546792*
X0546723Y0410543*
X0546667Y041055*
X0546612Y0410564*
X054657Y041057*
X0546535Y0410577*
X0546515Y0410584*
X0546501Y0410591*
G37*
G36*
X05001Y0412257D02*
X0500009D01*
X049994Y0412243*
X0499822Y0412208*
X0499718Y041216*
X0499628Y0412104*
X0499551Y0412042*
X0499496Y0411993*
X0499461Y0411959*
X0499447Y0411952*
Y0411945*
X0499357Y041182*
X0499288Y0411688*
X0499239Y0411549*
X0499204Y0411417*
X0499184Y0411306*
X0499177Y0411251*
Y0411209*
X049917Y0411174*
Y0411147*
Y0411133*
Y0411126*
X0499177Y0410959*
X0499197Y04108*
X0499225Y041064*
X049926Y0410501*
X0499295Y0410383*
X0499309Y0410328*
X0499323Y0410286*
X0499336Y0410251*
X0499343Y0410223*
X049935Y041021*
Y0410203*
X049942Y0410036*
X0499496Y040989*
X0499572Y0409765*
X0499649Y0409668*
X0499718Y0409585*
X0499774Y0409529*
X0499808Y0409502*
X0499815Y0409488*
X0499822*
X0499933Y0409412*
X0500051Y0409356*
X0500155Y0409314*
X0500259Y0409287*
X0500343Y0409273*
X0500405Y0409266*
X0500433Y0409259*
X0500468*
X0500599Y0409273*
X0500717Y0409301*
X0500828Y0409349*
X0500919Y0409398*
X0500988Y0409446*
X0501044Y0409495*
X0501078Y0409523*
X0501092Y0409537*
X0501175Y0409648*
X0501238Y0409772*
X050128Y0409904*
X0501307Y0410029*
X0501328Y041014*
X0501335Y0410189*
Y041023*
X0501342Y0410265*
Y0410293*
Y0410307*
Y0410314*
X0501335Y0410446*
X0501328Y0410577*
X0501287Y041082*
X0501231Y0411049*
X0501196Y0411147*
X0501162Y0411244*
X0501134Y0411334*
X0501099Y041141*
X0501071Y0411473*
X0501044Y0411535*
X0501023Y0411577*
X0501002Y0411612*
X0500995Y0411632*
X0500988Y0411639*
X0500919Y041175*
X0500842Y0411841*
X0500766Y0411924*
X050069Y0411993*
X0500613Y0412056*
X0500537Y0412104*
X0500468Y0412146*
X0500391Y0412181*
X0500329Y0412208*
X0500266Y0412222*
X0500211Y0412236*
X0500162Y041225*
X0500128*
X05001Y0412257*
G37*
G36*
X0522294Y0412236D02*
X0522252D01*
X0522107Y0412222*
X0521968Y0412194*
X0521857Y0412153*
X052176Y0412104*
X0521683Y0412049*
X0521628Y0412007*
X0521593Y0411979*
X0521579Y0411966*
X0521489Y0411854*
X0521426Y0411736*
X0521378Y0411619*
X052135Y0411507*
X0521329Y0411403*
X0521322Y0411327*
X0521315Y0411292*
Y0411271*
Y0411258*
Y0411251*
X0521322Y0411084*
X0521336Y0410924*
X0521364Y0410772*
X0521392Y0410633*
X0521433Y0410494*
X0521475Y0410369*
X0521517Y0410258*
X0521565Y0410147*
X0521614Y0410057*
X0521655Y0409967*
X0521697Y0409897*
X0521739Y0409835*
X0521766Y0409786*
X0521794Y0409752*
X0521808Y0409731*
X0521815Y0409724*
X0521884Y0409648*
X0521954Y0409578*
X0522023Y0409523*
X0522099Y0409474*
X0522176Y0409432*
X0522245Y0409391*
X0522384Y0409342*
X0522502Y0409307*
X0522551Y0409301*
X0522599Y0409294*
X0522634Y0409287*
X0522683*
X0522828Y0409301*
X052296Y0409335*
X0523078Y0409377*
X0523175Y0409432*
X0523258Y0409488*
X0523314Y0409529*
X0523349Y0409564*
X0523363Y0409578*
X0523453Y0409696*
X0523522Y0409828*
X0523564Y040996*
X0523599Y0410085*
X0523619Y0410196*
X0523626Y0410244*
Y0410286*
X0523633Y0410321*
Y0410349*
Y0410362*
Y0410369*
X0523626Y0410522*
X0523605Y0410675*
X0523578Y0410827*
X0523543Y0410959*
X0523515Y0411077*
X0523501Y0411126*
X0523488Y0411167*
X0523474Y0411202*
X0523467Y041123*
X052346Y0411244*
Y0411251*
X052339Y0411417*
X0523307Y041157*
X0523231Y0411695*
X0523154Y0411792*
X0523085Y0411875*
X0523023Y0411931*
X0522988Y0411966*
X0522974Y0411979*
X0522849Y0412063*
X0522724Y0412125*
X0522606Y0412174*
X0522495Y0412201*
X0522398Y0412222*
X0522322Y0412229*
X0522294Y0412236*
G37*
G36*
X0552004Y0412285D02*
X0551969D01*
X055183Y0412271*
X0551706Y0412243*
X0551594Y0412194*
X0551504Y0412146*
X0551428Y041209*
X0551372Y0412042*
X0551345Y0412014*
X0551331Y0412*
X0551248Y0411889*
X0551185Y0411757*
X0551144Y0411625*
X0551109Y0411501*
X0551095Y0411382*
X0551088Y0411334*
Y0411285*
X0551081Y0411251*
Y0411223*
Y0411209*
Y0411202*
X0551088Y0411035*
X0551109Y0410862*
X0551144Y0410702*
X0551178Y041055*
X0551199Y041048*
X0551213Y0410418*
X0551227Y0410369*
X0551248Y0410321*
X0551255Y0410279*
X0551268Y0410251*
X0551275Y0410237*
Y041023*
X0551352Y041005*
X0551428Y0409897*
X0551511Y0409765*
X0551588Y0409661*
X055165Y0409578*
X0551706Y0409523*
X055174Y0409495*
X0551754Y0409481*
X0551858Y0409405*
X0551969Y0409356*
X0552067Y0409314*
X0552157Y0409287*
X055224Y0409273*
X0552295Y0409266*
X0552337Y0409259*
X0552351*
X055242Y0409266*
X0552483Y0409273*
X0552601Y0409307*
X0552705Y0409356*
X0552795Y0409412*
X0552872Y040946*
X0552927Y0409509*
X0552962Y0409543*
X0552976Y0409557*
X0553066Y0409682*
X0553128Y0409821*
X0553177Y040996*
X0553205Y0410099*
X0553226Y0410223*
X0553232Y0410272*
Y0410321*
X0553239Y0410355*
Y041039*
Y0410404*
Y0410411*
X0553232Y0410557*
X0553212Y0410702*
X0553191Y0410848*
X0553156Y041098*
X0553128Y0411098*
X0553114Y0411147*
X0553108Y0411188*
X0553094Y0411223*
X0553087Y0411251*
X055308Y0411265*
Y0411271*
X055301Y0411445*
X0552941Y0411598*
X0552865Y0411729*
X0552788Y0411841*
X0552726Y0411924*
X055267Y0411979*
X0552635Y0412014*
X0552622Y0412028*
X0552511Y0412111*
X0552393Y0412174*
X0552282Y0412222*
X0552184Y041225*
X0552094Y0412271*
X0552032Y0412278*
X0552004Y0412285*
G37*
%LNunisolder52_full-5*%
%LPD*%
G54D55*
X0626378Y0457678D02*
X0627854D01*
X0636024Y0425D02*
X0648622Y0412401D01*
X0626378Y0425D02*
X0636024D01*
X0530905Y0323819D02*
X0536319D01*
X0512795Y029122D02*
Y0323009D01*
X0642619Y0442913D02*
X0648622D01*
X0627854Y0457678D02*
X0642619Y0442913D01*
X0575Y0436713D02*
Y0447835D01*
Y0436713D02*
X0575886Y0435827D01*
X0626968Y0356299D02*
X0628937Y0354331D01*
X0626968Y0356299D02*
Y0379921D01*
X0481Y0287094D02*
X04814Y0286695D01*
X0529272Y0294744D02*
X0531555D01*
X054124Y0304429*
X0512795Y029122D02*
X0519272Y0284744D01*
X0512795Y0323009D02*
X0548819Y0359033D01*
X054855Y0359269D02*
X0548582D01*
X0548819Y0359033*
X0536319Y0323819D02*
X0539813Y0320325D01*
X0179091Y0364765D02*
Y0368665D01*
X0179891Y0369465*
X0215091Y0577165D02*
X0225339D01*
X0179891Y0369465D02*
Y0379365D01*
X0181591Y0381065*
G54D56*
X0557344Y0384941D02*
X0557383Y0384901D01*
X0573484*
X0575098Y0386516*
X0518602Y0358268D02*
Y0366539D01*
X055187Y0384941D02*
X0557344D01*
X0518602Y0366539D02*
X0528047Y0375984D01*
X0542913*
X055187Y0384941*
X0549902Y057313D02*
Y0591535D01*
X0540921Y0582555D02*
X0559327D01*
X0564642Y0500909D02*
X0583047D01*
X0573622Y0491484D02*
Y050989D01*
X0588264Y0500909D02*
X0606669D01*
X0597244Y0491484D02*
Y050989D01*
X0567791Y0595472D02*
X0586197D01*
X0576772Y0587598D02*
Y0604453D01*
X0442536Y0557963D02*
X0446162D01*
X0428151Y0543578D02*
X0442536Y0557963D01*
X0421798Y0532463D02*
X0437698Y0516563D01*
X0476798*
X0488898Y0504463*
X0509142*
X0365256Y03D02*
X0370472Y0305217D01*
Y0331162*
X0373244Y0333934D02*
Y0339213D01*
X0370472Y0331162D02*
X0373244Y0333934D01*
X0336521Y0296265D02*
X0343891D01*
X0319821Y0279565D02*
X0336521Y0296265D01*
X0334941D02*
Y0314374D01*
X0330991Y0318323D02*
X0334941Y0314374D01*
X0330991Y0318323D02*
Y0333165D01*
X0300191Y0279565D02*
X0319821D01*
X0354433Y0472647D02*
Y0519591D01*
X0354404Y0472619D02*
X0354433Y0472647D01*
X0354404Y0472619D02*
X0354925Y0472099D01*
X0345091Y0462265D02*
X0354925Y0472099D01*
X0355691Y0397465D02*
Y0397665D01*
X0354148Y0399209D02*
X0355691Y0397665D01*
X0339291Y0439965D02*
Y0442365D01*
X0337084Y0391558D02*
X0340591Y0395065D01*
Y0399209*
X0302291Y0356765D02*
X0337084Y0391558D01*
X0302291Y0325965D02*
Y0356765D01*
X0340591Y0399209D02*
X0354148D01*
X0303291Y0368365D02*
X0306169Y0365487D01*
X0322591Y0341565D02*
X0330991Y0333165D01*
X0302091Y0325765D02*
X0302291Y0325965D01*
X0276124Y0303633D02*
X0300191Y0279565D01*
X0275118Y0303633D02*
X0276124D01*
X0340591Y0399209D02*
Y0404565D01*
X0216991Y0502351D02*
Y0522813D01*
Y0502351D02*
X022575Y0493592D01*
X0215691Y0524113D02*
X0216991Y0522813D01*
X0215691Y0524213D02*
Y0539065D01*
X0225291Y0548665*
X0240891*
X0296291Y0305322D02*
X0300248Y0301365D01*
X0296291Y0318465D02*
X0302291Y0324465D01*
Y0325965*
X0255544Y0287018D02*
X0262791Y0294265D01*
X0300248Y0301365D02*
X0302191D01*
X0302291*
X0296291Y0305322D02*
Y0316665D01*
X0262791Y0312009D02*
X0267447Y0316665D01*
X0296291*
X0262791Y0294265D02*
Y0312009D01*
X0366891Y0345565D02*
Y0346565D01*
Y0345565D02*
X0373244Y0339213D01*
X0339291Y0442365D02*
X0345091Y0448165D01*
Y0462265*
X0355691Y0474665D02*
X0361991D01*
G54D57*
X0131392Y0420916D02*
X0141339D01*
G54D60*
X0573622Y0575083D02*
X0587134Y0561571D01*
X0630886*
X0644488Y0575173*
Y0591338*
X0648622Y0595472*
G54D61*
X0597244Y0575083D02*
X0620677D01*
X0620866Y0575272D02*
X0626968Y0581374D01*
Y0595472*
X0597244Y0594291D02*
X0598425Y0595472D01*
X0597244Y0575083D02*
Y0594291D01*
X0598425Y0595472D02*
X0626968D01*
G54D64*
X04535Y0322094D02*
X04935D01*
G54D65*
X0345391Y0285465D02*
X034712D01*
X0343738Y0289469D02*
X0348294D01*
X0339634Y0285365D02*
X0343738Y0289469D01*
X0353191Y0291537D02*
Y0308094D01*
X0351091Y0310194D02*
X0353191Y0308094D01*
X0351191Y0292365D02*
Y0307265D01*
X0347091Y0311365D02*
X0351191Y0307265D01*
X0326506Y0291765D02*
X0331041Y0296301D01*
Y0312758*
X0327091Y0316708D02*
X0331041Y0312758D01*
X0327091Y0316708D02*
Y0325865D01*
X0323591Y0291765D02*
X0326506D01*
X0348294Y0289469D02*
X0351191Y0292365D01*
X0229885Y0558765D02*
X0230472Y0558178D01*
X0334291Y0507365D02*
X0335991Y0509065D01*
X0309991Y0373265D02*
X0310591Y0373865D01*
X0311391Y0512665D02*
Y0518965D01*
X0303921Y0526436D02*
X0311391Y0518965D01*
X0243921Y0526436D02*
X0303921D01*
X0231991Y0538365D02*
X0243921Y0526436D01*
X0311391Y0512665D02*
X0319891Y0504165D01*
X0336591Y0466109D02*
Y0490865D01*
X0338591Y046528D02*
Y0491694D01*
X0334691Y0407765D02*
X0336591D01*
X0327391Y0373465D02*
Y037635D01*
X0344307Y0393265*
X0346291*
X0310591Y0373865D02*
X0313876D01*
X0336591Y0396581*
X0329791Y0452065D02*
X0331891Y0454165D01*
X0317991Y0452065D02*
X0329791D01*
X0309691Y0443765D02*
X0317991Y0452065D01*
X031052Y0441765D02*
X031879Y0450036D01*
X0308153Y0534846D02*
X0325024D01*
X0343207Y0319584D02*
X0345429D01*
X0325024Y0534846D02*
X0335991Y0523879D01*
X0294834Y0548165D02*
X0308153Y0534846D01*
X0291348Y0548165D02*
X0294834D01*
X0255291Y0542565D02*
X0285748D01*
X0291348Y0548165*
X0321191Y0331765D02*
X0327091Y0325865D01*
X0317591Y0291765D02*
X0323091Y0297265D01*
Y0307609*
X0324448Y0308965*
X0238091Y0566465D02*
X0240592Y0563965D01*
X0238091Y0566465D02*
Y0572968D01*
X0235739Y0575321D02*
X0238091Y0572968D01*
X0231291Y0566565D02*
X0247491Y0550365D01*
X0225291Y0566565D02*
X0231291D01*
X0221991Y0569865D02*
X0225291Y0566565D01*
X0247491Y0550365D02*
X0249191D01*
X0222691Y0558765D02*
X0229885D01*
X0209491Y0545565D02*
X0222691Y0558765D01*
X0243691Y0540065D02*
X0252791D01*
X0239091Y0544665D02*
X0243691Y0540065D01*
X0252791D02*
X0255291Y0542565D01*
X0249292Y0563965D02*
X0256827Y055643D01*
X0260135Y0550565D02*
X0276191D01*
X0256827Y0553873D02*
X0260135Y0550565D01*
X0235739Y0575321D02*
Y0577915D01*
X0232036Y0581618D02*
X0235739Y0577915D01*
X0256827Y0553873D02*
Y055643D01*
X0240592Y0563965D02*
X0249292D01*
X0313491Y0334865D02*
X0315691Y0337065D01*
X0325241Y0399015D02*
X0325391Y0399165D01*
X0316841Y0399015D02*
X0325241D01*
X0220891Y0504108D02*
X0226101Y0498898D01*
X0220891Y0504108D02*
Y0511865D01*
X0222391Y0513365*
X0229491Y0538365D02*
X0231991D01*
X0221591Y0535765D02*
Y053945D01*
X0226807Y0544665*
X0239091*
X0226101Y0498898D02*
X0228002D01*
X0231187Y0495713*
Y0491209D02*
Y0495713D01*
X022975Y0489772D02*
X0231187Y0491209D01*
X022975Y0473907D02*
Y0489772D01*
Y0473907D02*
X0232291Y0471365D01*
X0219691Y0352892D02*
Y0365365D01*
Y0352892D02*
X0227648Y0344935D01*
X023359Y0402036D02*
X0247691Y0416137D01*
Y0427737*
X026172Y0441765*
X0245691Y0416965D02*
Y0428565D01*
X0260891Y0443765*
X0232762Y0404036D02*
X0245691Y0416965D01*
X026172Y0441765D02*
X031052D01*
X0260891Y0443765D02*
X0309691D01*
X021139Y0402036D02*
X023359D01*
X0210562Y0404036D02*
X0232762D01*
X020572Y0396365D02*
X021139Y0402036D01*
X0204891Y0398365D02*
X0210562Y0404036D01*
X0175891Y0535065D02*
X0200991D01*
X0175491Y0534665D02*
X0175891Y0535065D01*
X0188691Y0569865D02*
X0221991D01*
X0182891Y0575665D02*
X0188691Y0569865D01*
X0208347Y0581618D02*
X0232036D01*
X0203894Y0577165D02*
X0208347Y0581618D01*
X0200191Y0577165D02*
X0203894D01*
X0208033Y046787D02*
Y0493461D01*
X0209491Y0543565D02*
Y0545565D01*
X0200991Y0535065D02*
X0209491Y0543565D01*
X0324448Y0308965D02*
X0324691D01*
X0313491Y0307565D02*
X0315491Y0305565D01*
X034712Y0285465D02*
X0353191Y0291537D01*
X0345429Y0319584D02*
X0351091Y0313922D01*
Y0310194D02*
Y0313922D01*
X0276191Y0550565D02*
X0278541Y0552915D01*
X0339448Y0286165D02*
X0339634D01*
X0313491Y0306765D02*
Y0307565D01*
Y0334865*
X0202691Y0398365D02*
X0204891D01*
X0200691Y0400365D02*
X0202691Y0398365D01*
X0197091Y0396365D02*
X020572D01*
X0335991Y0509065D02*
Y0523879D01*
X0326691Y0500765D02*
Y0509165D01*
Y0500765D02*
X0336591Y0490865D01*
X0328691Y0501594D02*
X0338591Y0491694D01*
X0328191Y0513665D02*
X0328691Y0513165D01*
Y0501594D02*
Y0513165D01*
X0319591Y0504265D02*
Y0505465D01*
X0323891Y0511965D02*
X0326691Y0509165D01*
X0323891Y0515465D02*
X0327991Y0519565D01*
X0323891Y0511965D02*
Y0515465D01*
X0355047Y0352113D02*
X0361439D01*
X0361891Y0352565*
X0360691Y0360565D02*
X0361491Y0361365D01*
X0355047Y0361018D02*
X0361439D01*
X0361891Y0360565*
X0342091Y0358665D02*
X0343591Y0357165D01*
X0342091Y0352765D02*
X0344891Y0355565D01*
X0351594*
X0355047Y0352113*
X0343591Y0357165D02*
X0343663D01*
X0344063Y0357565*
X0351594*
X0355047Y0361018*
X0335891Y046258D02*
X0338591Y046528D01*
X0329991Y0456065D02*
X0331891Y0454165D01*
X0329991Y0456065D02*
Y0461465D01*
X0332291Y0463765*
X0334248*
X0336591Y0466109*
X0335891Y0452465D02*
Y046258D01*
X0333462Y0450036D02*
X0335891Y0452465D01*
X031879Y0450036D02*
X0333462D01*
X0336591Y0396581D02*
Y0407765D01*
X0344291Y0540565D02*
X0348565Y0544839D01*
X0360891*
X0310291Y0392465D02*
X0316841Y0399015D01*
G54D67*
X0677165Y0505693D02*
Y0506086D01*
Y0483933D02*
Y0505693D01*
Y0544701D02*
Y0563902D01*
X0656894Y0309687D02*
X0679134Y0331926D01*
Y0435039*
X0658071Y0342187D02*
Y0385827D01*
X0627189Y030315D02*
Y0311305D01*
X0658071Y0342187*
G54D71*
X0222738Y0309055D02*
X0239075D01*
X0243699Y0313679*
Y0320861*
X0203227Y0328565D02*
X0222738Y0309055D01*
X0243699Y0320768D02*
Y0320861D01*
X021301Y0340565D02*
X023419Y0319386D01*
X0183878Y0340565D02*
X021301D01*
X0181678Y0338365D02*
X0183878Y0340565D01*
X0181557Y0330465D02*
X0183457Y0328565D01*
X0203227*
X0170869Y0500787D02*
X0172244D01*
X0169102Y0502555D02*
Y0518285D01*
Y0502555D02*
X0170869Y0500787D01*
G54D75*
X0277891Y0427065D02*
X0302459D01*
X0307891Y0432498*
Y0437065*
X0240891Y0548665D02*
X0245191Y0544365D01*
X0264091Y0386065D02*
X0267891D01*
X0257491Y0379465D02*
X0264091Y0386065D01*
X030981Y0538846D02*
X032668D01*
X0296491Y0552165D02*
X030981Y0538846D01*
X0289691Y0552165D02*
X0296491D01*
X0253635Y0546565D02*
X0284091D01*
X0289691Y0552165*
X0251434Y0544365D02*
X0253635Y0546565D01*
X0245191Y0544365D02*
X0251434D01*
X0267741Y0448115D02*
X0278091Y0458465D01*
X0259491Y0456365D02*
X0267741Y0448115D01*
X022575Y0493461D02*
Y0493592D01*
Y046787D02*
Y0493461D01*
X0254791Y0456365D02*
X0259491D01*
X0267791Y0448065D02*
Y0448165D01*
X0303491Y0458465D02*
X0307891Y0462865D01*
Y0468265*
X022575Y0386461D02*
Y0387361D01*
X0201476Y051565D02*
X0215491D01*
X0278091Y0458465D02*
X0303491D01*
X022575Y036087D02*
X0226198Y0361319D01*
X0267891Y0417065D02*
X0277891Y0427065D01*
X0252591Y0394465D02*
Y0401865D01*
X0267891Y0417165*
X0201476Y0514469D02*
Y051565D01*
X0187893Y0500886D02*
X0201476Y0514469D01*
X0187893Y0499494D02*
Y0500886D01*
X0267841Y0386115D02*
X0279462Y0397736D01*
X0298688*
X0307454Y0406503*
G54D85*
X0611713Y0585138D03*
G54D86*
X0576772Y0595472D03*
X0598425D03*
X0405673Y0361262D03*
X0427327D03*
Y0344727D03*
X0405673D03*
X0648622Y0595472D03*
X0626968D03*
X0253465Y0303633D03*
X0275118D03*
Y0287098D03*
X0253465D03*
G54D87*
X0479331Y0349803D03*
X0538287Y0358268D03*
X042276Y0387435D03*
X0560335Y0392027D03*
G54D88*
X0499016Y0349803D03*
X0518602Y0358268D03*
X054065Y0392027D03*
G54D89*
X0461Y0287094D03*
X0466Y0297094D03*
X0471Y0287094D03*
X0476Y0297094D03*
X0481Y0287094D03*
X0486Y0297094D03*
X0586063Y0285138D03*
X0596063D03*
G54D90*
X04535Y0322094D03*
X04935D03*
G54D91*
X0620866Y0575272D03*
X0644488Y0575173D03*
X0573622Y0500909D03*
X0597244D03*
X0549902Y0582555D03*
G54D92*
X0620866Y0501098D03*
X0644488Y0501D03*
X0573622Y0575083D03*
X0597244D03*
X0549902Y0508382D03*
G54D93*
X0642126Y0281496D03*
Y030315D03*
X0625591D03*
Y0281496D03*
G54D94*
X0677165Y0539114D03*
Y0565728D03*
Y0480531D03*
Y0507146D03*
G54D95*
X040884Y0401354D03*
G54D96*
X0675197Y0287402D03*
Y059252D03*
X0411417Y0470472D03*
Y0287402D03*
G54D97*
X0517851Y0461417D03*
X0421798Y0532463D03*
X0503498Y0532063D03*
G54D98*
X0517851Y0469291D03*
G54D99*
X0519272Y0284744D03*
X0200191Y0577165D03*
G54D100*
X0519272Y0294744D03*
X0529272Y0284744D03*
Y0294744D03*
X0539272Y0284744D03*
Y0294744D03*
X0549272Y0284744D03*
Y0294744D03*
X0559272Y0284744D03*
Y0294744D03*
X0421798Y0562463D03*
Y0572463D03*
Y0552463D03*
Y0542463D03*
X0503498Y0542063D03*
Y0552063D03*
Y0572063D03*
Y0562063D03*
X0267891Y0386065D03*
X0277891D03*
X0287891D03*
X0297891D03*
X0307891D03*
X0267891Y0406065D03*
X0277891D03*
X0287891D03*
X0297891D03*
X0307891D03*
Y0437165D03*
X0297891D03*
X0287891D03*
X0277891D03*
X0267891D03*
X0307891Y0417165D03*
X0297891D03*
X0287891D03*
X0277891D03*
X0267891D03*
Y0448265D03*
X0277891D03*
X0287891D03*
X0297891D03*
X0307891D03*
X0267891Y0468265D03*
X0277891D03*
X0287891D03*
X0297891D03*
X0307891D03*
X0356891Y0336565D03*
X0366891D03*
X0356891Y0346565D03*
X0366891D03*
X0356891Y0356565D03*
X0366891D03*
X0356891Y0366565D03*
X0366891D03*
X0356891Y0376565D03*
X0240191Y0577165D03*
X0230191D03*
X0220191D03*
X0210191D03*
G54D101*
X0606063Y0285138D03*
G54D102*
X024249Y0509027D03*
Y0489814D03*
G54D103*
X0208033Y0386461D03*
X022575D03*
Y036087D03*
X0208033D03*
Y0439961D03*
X022575D03*
Y041437D03*
X0208033D03*
Y0493461D03*
X022575D03*
Y046787D03*
X0208033D03*
G54D104*
X0366891Y0376565D03*
G54D105*
X0169102Y0517785D03*
G54D106*
X0187197Y049969D03*
G54D107*
X0369291Y0427165D03*
G54D108*
X0194291Y0551665D03*
Y0302665D03*
G54D109*
X0136614Y0427165D03*
Y0420866D03*
X0145276Y0424016D03*
X0136614Y0433465D03*
X0145276Y0430315D03*
G54D110*
X0140945Y0443504D03*
Y0410827D03*
G54D111*
X063061Y0395177D03*
X0471654Y0375689D03*
X0598917Y040876D03*
X0626378Y0425D03*
X0626279Y0416831D03*
X0492618Y0426181D03*
X0499213Y0470177D03*
X0548032Y0489862D03*
X0534941Y0489665D03*
X0537795Y0473622D03*
X0492126Y0369291D03*
X0481988Y0369094D03*
X0432185Y0407874D03*
X0456693Y0431693D03*
X0488287Y0396654D03*
X0492126Y0400591D03*
X0484154Y0400492D03*
X0685039Y046063D03*
X0677165D03*
Y0468504D03*
X0669291Y046063D03*
Y0468504D03*
X0449122Y040268D03*
X058563Y0503937D03*
X0611417Y0473032D03*
X0611024Y0440256D03*
X0613091Y0325197D03*
X0634449Y0380807D03*
X058376Y0422047D03*
X0619587Y0447638D03*
X0583858Y0454134D03*
X0578839Y045935D03*
X0561909Y034124D03*
X0577362Y0372342D03*
X0610236Y0379921D03*
X0582874Y0386024D03*
X0592224Y0393701D03*
X0575Y0447835D03*
X0628937Y0354331D03*
X0626968Y0379921D03*
X0593504Y0355315D03*
X0596457Y0330709D03*
X0602362D03*
X0608268D03*
X0614173D03*
X0620079D03*
X0625984D03*
X0474213Y035935D03*
X0488091Y0344488D03*
X04178Y0402394D03*
X0449022Y040948D03*
X0460803Y0396465D03*
X0454303D03*
X0447703D03*
X0526772Y0450394D03*
X0422342Y0413484D03*
X04327Y0414854D03*
X0401575Y0435039D03*
X044872Y0431693D03*
X0417323Y036998D03*
X0467815Y0317027D03*
X0453051Y029065D03*
X04806Y0323195D03*
X0449022Y041618D03*
X0433071Y0393701D03*
X04515Y0333794D03*
X04787Y0334295D03*
X0499016Y0334744D03*
X0490059Y0436122D03*
X0484449Y0420669D03*
X0493209Y0453051D03*
X0464567Y0431102D03*
X0472441Y0442913D03*
X0462598Y0452756D03*
X0472441Y0462598D03*
X0433071D03*
X0442913Y0472441D03*
X0462598D03*
X0482283D03*
X03986Y0418894D03*
Y0398294D03*
X0398524Y0377657D03*
X0404Y0331494D03*
X0418602Y031811D03*
X0401575Y0312992D03*
X04384Y0299095D03*
X0452461Y0274902D03*
X0430512Y0336417D03*
X0490256Y0275098D03*
X0526968Y0460335D03*
X0511417Y0458169D03*
X054872Y0456594D03*
X0506398Y0353051D03*
X0439272Y0422933D03*
X0423228Y0452756D03*
X043248Y044498D03*
X0476378Y0400787D03*
X0480217Y0396752D03*
X0442Y0379095D03*
X0661417Y0425197D03*
X0667323D03*
X0673228D03*
X0679134D03*
X0685039D03*
X0665354Y0366142D03*
X0659449D03*
X0653543D03*
X0647638D03*
X0641732D03*
X0647638Y0393701D03*
X0653543D03*
X0659449D03*
X0665354D03*
X0641732D03*
X0679134Y0452756D03*
X0673228D03*
X0667323D03*
X0661417D03*
X0685039D03*
X0626378Y0457678D03*
X0648622Y0442913D03*
Y0412401D03*
X0587598Y0355315D03*
X0590551Y0330709D03*
X0567913Y0458661D03*
X0575422Y0435553D03*
X0566142Y0417717D03*
X0565846Y0443504D03*
X0558957Y0311516D03*
X0574016Y0342323D03*
X0517913Y0302559D03*
X0508071Y0312795D03*
X0504528Y0288484D03*
X0490748Y0287894D03*
X0495374Y0298524D03*
X0524016Y0323721D03*
X0606398Y0487205D03*
X0685532Y0468405D03*
X0520768Y0340453D03*
X0516732Y0350295D03*
X0525787Y0358957D03*
X0559252Y0364173D03*
X0593504Y0325787D03*
X0588583Y0308071D03*
X0576772Y0289862D03*
X0600394Y0291929D03*
X0607382Y0275787D03*
X0430315Y0274902D03*
X0472441Y0482283D03*
X0452756D03*
X0489961Y0482185D03*
X0433071Y0482283D03*
X0413386Y0442913D03*
X0399606Y0450787D03*
X0431791Y0376772D03*
X0565945Y0488189D03*
X0608464Y0395079D03*
X0523228Y0275787D03*
X061122Y0355315D03*
X0605315D03*
X0599409D03*
X050689Y0299213D03*
X0599409Y0325787D03*
X0596457Y0320866D03*
X0590551D03*
X058061Y0415256D03*
X052185Y048376D03*
X0607283Y0408957D03*
X0587598Y0325787D03*
X0584646Y0320866D03*
X0581693Y0325787D03*
X0584646Y0330709D03*
X0618996Y0325098D03*
X0615748Y0320079D03*
X0576575Y028061D03*
X054124Y0304429D03*
X0535138Y0305315D03*
X0525886Y0300886D03*
X053435Y0289665D03*
X0524311Y0290551D03*
X0555118Y0289665D03*
X0544291Y0280413D03*
X0540158Y0343307D03*
X0575098Y0386516D03*
X0577461Y0357874D03*
X0559842Y0402362D03*
X0562303Y0378838D03*
X0551083Y0353445D03*
X054855Y0359269D03*
X0528543Y0349016D03*
X0509842Y0338287D03*
X054872Y0425098D03*
X0557874Y0378838D03*
X0531102Y0324311D03*
X0539764Y0320276D03*
X0547244Y0305315D03*
X0479626Y0382283D03*
X0457283Y0378543D03*
X0614173Y0551181D03*
Y0535433D03*
X0622047Y0543307D03*
X0629921Y0535433D03*
Y0551181D03*
X0637795Y0543307D03*
X0645669Y0535433D03*
Y0551181D03*
X0653543Y0559055D03*
Y0543307D03*
X0661417Y0551181D03*
Y0566929D03*
X0606299Y0543307D03*
X0590551D03*
X0574803D03*
X0559055D03*
X0598425Y0535433D03*
Y0551181D03*
X0582677Y0535433D03*
Y0551181D03*
X0566929Y0535433D03*
Y0551181D03*
X0574803Y0559055D03*
X0559055D03*
X0551181Y0566929D03*
X0559055Y0574803D03*
X0543307D03*
Y0559055D03*
X0551181Y0551181D03*
X0543307Y0543307D03*
X0551181Y0535433D03*
X0543307Y0527559D03*
X053622Y0551181D03*
Y0535433D03*
Y0519685D03*
Y0566929D03*
Y0582677D03*
Y0598425D03*
X0543307Y0605512D03*
X0559055D03*
X0551181Y0598425D03*
X0543307Y0590551D03*
X0559055D03*
X0574803Y0605512D03*
X0590551D03*
X0584842Y0587008D03*
X0566535Y0598032D03*
X0564173Y0565748D03*
X058563Y0488189D03*
X0625Y0487205D03*
X0567913Y0474409D03*
X0683071Y0524606D03*
X0637795Y0604331D03*
X0656496D03*
X0536614Y0504429D03*
X0454035Y0462992D03*
X0452953Y0442126D03*
X0533071Y0434252D03*
X0506988Y0518504D03*
X0435335Y0541142D03*
X0428151Y0543578D03*
X0453051Y0529626D03*
X0461122Y0554528D03*
X0479134Y0504528D03*
X046122Y052313D03*
X0496555Y0549311D03*
X0471358Y0563681D03*
X0484842Y0582972D03*
X0480709Y0548327D03*
X046063Y0582972D03*
X0413998Y0505563D03*
X0448228Y0504429D03*
X0471358Y0576279D03*
X0418198Y0513763D03*
X0470768Y0529232D03*
X0443996Y052313D03*
X0459842Y0504429D03*
X0436417D03*
X0459252Y0566831D03*
X0434941Y0561713D03*
X0480807Y0535138D03*
X048688Y0562361D03*
X0500689Y0582874D03*
X0513398Y0567363D03*
X0513583Y0557382D03*
X0412402Y0546358D03*
X0412298Y0567163D03*
X0421798Y0581863D03*
X0441898Y0582063D03*
X0432098Y0573763D03*
X0445177Y0565945D03*
X0422441Y0523327D03*
X0509142Y0504463D03*
X048879Y0504572D03*
X0515158Y0532382D03*
X0495866Y0538878D03*
X0507087Y051122D03*
X0445768Y0550984D03*
X0446162Y0557972D03*
X0345391Y0285465D03*
X0352559Y0285138D03*
X0365256Y03D03*
X0364567Y0309449D03*
X0364075Y0315551D03*
X0230472Y0558178D03*
X0282087Y0310236D03*
X0364567Y0491732D03*
X0354433Y0519591D03*
X0233071Y0368602D03*
X0370472Y0383169D03*
X0167618Y0351476D03*
X0186127Y0334442D03*
X0172933Y0364961D03*
X0165847Y0326772D03*
X0212795Y0293898D03*
X0211024Y0327559D03*
X0243699Y0320861D03*
X0222244Y0321555D03*
X0234485Y0318894D03*
X0199803Y0320472D03*
X0355691Y0397465D03*
X0353642Y0331004D03*
X0276772Y0364075D03*
X0333491Y0544265D03*
X0356201Y0525295D03*
X0369091Y0452765D03*
X0331391Y0413065D03*
X0346291Y0393265D03*
X0309991Y0373265D03*
X0327391Y0373465D03*
X0334691Y0407765D03*
X0340591Y0399209D03*
X0325391Y0398965D03*
X0340591Y0404565D03*
X0331891Y0454165D03*
X0364591Y0523965D03*
X0364469Y0535532D03*
X0369391Y0404565D03*
X0344291Y0540565D03*
X0377791Y0545865D03*
X0360891Y0544839D03*
X0356191Y0557465D03*
X0332891Y0572665D03*
X0347491Y0580165D03*
X0351083Y0459154D03*
X0332677Y0445768D03*
X0377591Y0443265D03*
X0318791Y0566865D03*
X0315091Y0544865D03*
X0341437Y0342618D03*
X0333491Y0373565D03*
X0302091Y0325765D03*
X0303291Y0368365D03*
X0318691Y0386665D03*
X0327191Y0347965D03*
X0322591Y0341565D03*
X0343491Y0320065D03*
X0347091Y0312265D03*
X0320191Y0527365D03*
X0301891Y0532565D03*
Y0520865D03*
X0317591Y0291765D03*
X0181102Y0351772D03*
X0369882Y0282382D03*
X028563Y0349508D03*
X0297391Y0368665D03*
X0227791Y0570865D03*
X0252491Y0555065D03*
X0256891Y0562065D03*
X0335096Y0507561D03*
X0348291Y0386665D03*
X0343602Y0469882D03*
X0225491Y0519665D03*
X0222891Y0514065D03*
X0229491Y0538365D03*
X0221591Y0536565D03*
X0232291Y0471365D03*
X0219691Y0365365D03*
X0232291Y0432365D03*
X0302191Y0301365D03*
X0341691Y0364865D03*
X0337598Y0321161D03*
X0302691Y0285465D03*
X0302191Y0307765D03*
X0327991Y0519565D03*
X0373228Y0532972D03*
X0254091Y0419065D03*
X0249691Y0423965D03*
X0251969Y0443405D03*
X0202891Y0407065D03*
X021437Y0390846D03*
X0248819Y035315D03*
X0267618Y0353937D03*
X0287402Y0365748D03*
X0249691Y0279665D03*
X0228791Y0284465D03*
X0198891Y0277065D03*
X0223091Y0274665D03*
X0212303Y0308071D03*
X0213878Y0345571D03*
X0239401Y0293265D03*
X0273091Y0546565D03*
X0191691Y0577165D03*
X0182991Y0575565D03*
X0220891Y0563065D03*
X0180391Y0539065D03*
X0175491Y0534665D03*
X0208465Y0535138D03*
X0263791Y0530765D03*
X0272191Y0537965D03*
X0242391Y0547365D03*
X0248891Y0550365D03*
X0256691Y0547665D03*
X0254091Y0536065D03*
X0279191Y0552565D03*
X0261591Y0554765D03*
X0265391Y0540465D03*
X0199391Y0470365D03*
X0189191Y0477065D03*
X0235591Y0514365D03*
X0263491Y0519565D03*
X0250791Y0504865D03*
X0252391Y0473665D03*
X0242249Y0567965D03*
X0312991Y0571665D03*
X0272991Y0579565D03*
X0246555Y0451575D03*
X0232191Y0451465D03*
X0236891Y0465565D03*
X0215391Y0433565D03*
X0190891Y0491065D03*
X0198691Y0499965D03*
X0167126Y0494095D03*
X0171544Y0500787D03*
X0215665Y0524213D03*
X0224791Y0554665D03*
X0203391Y0379765D03*
X0206004Y0423228D03*
X0181678Y0338365D03*
X0346891Y0478665D03*
X0281591Y0391365D03*
X0349891Y0407465D03*
X0254791Y0456365D03*
X0377591Y0411665D03*
X023189Y0397933D03*
X0272891Y0431865D03*
X0193799Y0515945D03*
X0203591Y0367165D03*
X0377658Y0374902D03*
X0176476Y0386811D03*
X0187205Y0284252D03*
X0373524Y0568209D03*
X0335728Y0501673D03*
X0214091Y0381065D03*
X0180591Y0315965D03*
X0158366Y0370866D03*
X0156595Y0329035D03*
Y0349311D03*
X0156891Y0474265D03*
X0184191Y0568065D03*
X0158071Y0543799D03*
X0156988Y0569291D03*
X0165791Y0579665D03*
X0169891Y0530065D03*
X0170591Y0548165D03*
X0235991Y0483765D03*
X0210091Y0562965D03*
X0195191Y0529865D03*
X0157776Y0520472D03*
X0257091Y0466065D03*
X0300991Y0567465D03*
X0201476Y051565D03*
X0182091Y0527965D03*
X0157382Y0497638D03*
X0258591Y0363365D03*
X0272791Y0462965D03*
X0268791Y0503465D03*
X0212191Y0477965D03*
X0341339Y0524902D03*
X0227648Y0344935D03*
X0232579Y0380906D03*
X0263391Y0574065D03*
X0286591Y0284765D03*
X0252953Y0322638D03*
X0264191Y0286565D03*
X0290891Y0391665D03*
X0268591Y0396565D03*
X0274705Y0338091D03*
X0279921Y0322638D03*
X0269591Y0296665D03*
X0265091Y0276065D03*
X0258661Y033937D03*
X0265191Y0377165D03*
X0257491Y0379465D03*
X0252591Y0394465D03*
X0259055Y0394291D03*
X0246491Y0398665D03*
X0250491Y0436265D03*
X0240091Y0421265D03*
X0257283Y043061D03*
X0153391Y0423965D03*
X0165591Y0419665D03*
Y0414265D03*
X0155807Y0437992D03*
X0166634Y0434055D03*
X0131004Y0436417D03*
X0206004Y0432087D03*
X0201083Y0447835D03*
X0208691Y0503065D03*
X0231491Y0503365D03*
X0219691Y0485465D03*
X0169407Y0472665D03*
X0184191Y0452265D03*
X0166091Y0452565D03*
X0215491Y0420865D03*
X0239862Y0357874D03*
X0202091Y0487565D03*
X032668Y0538846D03*
X0368012Y0292028D03*
X0315591Y0337065D03*
X0320991Y0330265D03*
X0343891Y0296265D03*
X0339491Y0286165D03*
X0323591Y0291765D03*
X0332591Y0281465D03*
X0291891Y0325465D03*
X0322891Y0317765D03*
X0322491Y0300965D03*
X0343891Y0302165D03*
X0324291Y0309265D03*
X0315491Y0305565D03*
X0274191Y0555965D03*
X0269291Y0562465D03*
X0293091Y0544165D03*
X0319891Y0504165D03*
X0322391Y0554565D03*
X0189191Y0395765D03*
X0181557Y0330465D03*
X0179091Y0364765D03*
X0181591Y0381065D03*
X0189991Y0376965D03*
X0161713Y0387795D03*
X015876Y0309055D03*
X0158366Y0286122D03*
X0269191Y0310065D03*
X0339391Y0439965D03*
X0327891Y0513665D03*
X0320191Y0517065D03*
X0344091Y0488065D03*
X0197191Y0395665D03*
X0200791Y0400365D03*
X0313791Y0358265D03*
X0361891Y0352565D03*
Y0360565D03*
X0377461Y0328543D03*
X0342091Y0358665D03*
Y0352765D03*
X0173891Y0569265D03*
X0171391Y0402865D03*
X0150984Y0404035D03*
X0131004Y0418012D03*
X023189Y0409154D03*
X0332591Y0467765D03*
X0333991Y0459765D03*
X0331371Y0432677D03*
X0364567Y0468898D03*
X0361991Y0474665D03*
X0348425Y050935D03*
X026624Y032874D03*
X0300891Y0391665D03*
X0310291Y0392465D03*
G54D112*
X0257691Y0499665D03*
G54D113*
X0620866Y0501098D02*
X064439D01*
X0637189Y0503937D02*
X0677165Y0543913D01*
M02*