%FSTAX23Y23*%
%MOIN*%
%SFA1B1*%

%IPPOS*%
%ADD9500C,0.028000*%
%ADD9501C,0.035430*%
%ADD9502C,0.043310*%
%ADD9503C,0.047240*%
%ADD9504C,0.055120*%
%ADD9505C,0.066930*%
%ADD9506C,0.068900*%
%ADD9507C,0.098430*%
%ADD9508C,0.125200*%
%ADD9509C,0.145670*%
%LNunisolder52_back-1*%
%LPD*%
G54D9500*
X04902Y0275D03*
X04907Y02878D03*
X05045Y02884D03*
X05068Y02992D03*
X04953Y02985D03*
X05179Y03025D03*
X05258Y03008D03*
X05243Y02905D03*
X05343Y02896D03*
X05351Y03053D03*
X05412Y03044D03*
X05472Y03053D03*
X05589Y03115D03*
X05551Y02896D03*
X05442Y02804D03*
X05232Y02757D03*
X05765Y02806D03*
X05767Y02898D03*
X06003Y02919D03*
X06073Y02757D03*
X05885Y0308D03*
X0453Y02906D03*
X04524Y02749D03*
X04303D03*
X04384Y0299D03*
X04186Y03181D03*
X04015Y03129D03*
X0404Y03314D03*
X04305Y03364D03*
X04515Y03337D03*
X04678Y0317D03*
X04572Y03785D03*
X0442Y0379D03*
X04317Y03767D03*
X0433Y03937D03*
X04321Y04078D03*
X04327Y04148D03*
X04223Y04134D03*
X04178Y04023D03*
X03986Y03982D03*
Y04188D03*
X04015Y0435D03*
X03996Y04507D03*
X04133Y04429D03*
X04232Y04527D03*
X04324Y04449D03*
X0433Y04625D03*
X0454Y04629D03*
X04625Y04527D03*
X04529Y04421D03*
X04566Y04316D03*
X04487D03*
X0449Y04161D03*
Y04094D03*
X04491Y04026D03*
X04477Y03964D03*
X04543D03*
X04608D03*
X04645Y04311D03*
X04392Y04229D03*
X04173Y03699D03*
X03985Y03776D03*
X04716Y03756D03*
X04796Y03822D03*
X04802Y03967D03*
X04841Y04004D03*
X04882Y03966D03*
X04921Y04005D03*
X04763Y04007D03*
X04844Y04206D03*
X04926Y04261D03*
X049Y04361D03*
X04932Y0453D03*
X05114Y04581D03*
X05269Y04603D03*
X05267Y04503D03*
X0533Y04342D03*
X05487Y0425D03*
X05661Y04177D03*
X05806Y04152D03*
X05837Y0422D03*
X05754Y04355D03*
X0575Y04478D03*
X05658Y04435D03*
X05679Y04586D03*
X05788Y04593D03*
X05838Y04541D03*
X05487Y04565D03*
X05598Y04023D03*
X05578Y03788D03*
X05623D03*
X05592Y03641D03*
X05485Y03592D03*
X0551Y03534D03*
X05401Y03433D03*
X05285Y0349D03*
X05257Y03589D03*
X05167Y03502D03*
X05063Y0353D03*
X05098Y03382D03*
X05207Y03404D03*
X0524Y03237D03*
X05311Y03243D03*
X05397Y03202D03*
X0508Y03127D03*
X0499Y03347D03*
X0488Y03444D03*
X04787Y03342D03*
X04806Y03231D03*
X04742Y03593D03*
X04819Y0369D03*
X04921Y03692D03*
X05773Y03723D03*
X05774Y03578D03*
X05875Y03553D03*
X05935D03*
X05994D03*
X06053D03*
X06112D03*
X06102Y03799D03*
X06084Y0395D03*
X06072Y04089D03*
X05989Y04087D03*
X05922Y03937D03*
X05828Y0386D03*
X0575Y03865D03*
X0574Y03423D03*
X05619Y03412D03*
X05846Y03307D03*
X05905D03*
X05964D03*
X06023D03*
X06082D03*
X06141D03*
X062D03*
X06189Y0325D03*
X0613Y03251D03*
X06157Y032D03*
X05964Y03208D03*
X05905D03*
X05846D03*
X05816Y03257D03*
X05875D03*
X05935D03*
X05994D03*
X0611Y04402D03*
X06195Y04476D03*
X04724Y04429D03*
Y04625D03*
X06263Y04576D03*
Y0425D03*
X06262Y04168D03*
X06306Y03951D03*
X06417Y03937D03*
X06476D03*
X06535D03*
X06594D03*
X06653D03*
Y03661D03*
X06594D03*
X06535D03*
X06476D03*
X06417D03*
X06344Y03808D03*
X06269Y03799D03*
X06289Y03543D03*
X06259Y03307D03*
X06486Y04124D03*
X06614Y04251D03*
X06673D03*
X06732D03*
X06791D03*
X0685D03*
Y04527D03*
X06791D03*
X06732D03*
X06673D03*
X06614D03*
X06692Y04606D03*
X06771D03*
Y04685D03*
X06692D03*
X06855Y04684D03*
X0685Y04606D03*
X06486Y04429D03*
X0625Y04872D03*
X06299Y05354D03*
X06456D03*
Y05511D03*
X06377Y05433D03*
X06535D03*
X06614Y05511D03*
Y05669D03*
X06535Y0559D03*
X06299Y05511D03*
X06377Y06043D03*
X06564D03*
X0683Y05246D03*
X06141Y05354D03*
X05984D03*
X05826D03*
Y05511D03*
X05905Y05433D03*
X05984Y05511D03*
X06062Y05433D03*
X0622D03*
X06141Y05511D03*
X05748Y05433D03*
Y0559D03*
X0559D03*
X05641Y05657D03*
X0559Y05748D03*
Y05905D03*
X05665Y0598D03*
X0559Y06055D03*
X05511Y05984D03*
X05433Y06055D03*
X05362Y05984D03*
X05433Y05905D03*
X05362Y05826D03*
X05433Y05748D03*
X05362Y05669D03*
X05433Y0559D03*
X05362Y05511D03*
X05433Y05433D03*
X05362Y05354D03*
X05433Y05275D03*
X05362Y05196D03*
X05366Y05044D03*
X05349Y04896D03*
X0548Y04898D03*
X05659Y04881D03*
X05679Y04744D03*
X05377Y04736D03*
X05218Y04837D03*
X04899Y04821D03*
X04822Y04724D03*
X04992Y04701D03*
X04724Y04822D03*
X05856Y04881D03*
Y05039D03*
X06063Y04872D03*
X06114Y0473D03*
X05669Y05354D03*
X05511D03*
Y05511D03*
Y05669D03*
X05669Y05511D03*
X0559Y05433D03*
X05848Y0587D03*
X05905Y06055D03*
X05748D03*
X04527Y04822D03*
X0433D03*
X04429Y04724D03*
X04625D03*
G54D9501*
X05192Y02847D03*
Y02947D03*
X05292D03*
Y02847D03*
X05392D03*
Y02947D03*
X05492D03*
Y02847D03*
X05592D03*
Y02947D03*
X05178Y04614D03*
Y04692D03*
G54D9502*
X04227Y03874D03*
X04088Y04013D03*
X04793Y03498D03*
X0499D03*
X05186Y03582D03*
X05382D03*
X05406Y0392D03*
X05603D03*
G54D9503*
X0471Y0287D03*
X0481D03*
X0476Y0297D03*
X0486D03*
X0586Y02851D03*
X0596D03*
X0606D03*
X0461Y0287D03*
X0466Y0297D03*
G54D9504*
X06255Y02814D03*
X06421D03*
Y03031D03*
X06255D03*
X04273Y03447D03*
Y03612D03*
X04056D03*
Y03447D03*
X06269Y05954D03*
X06486D03*
X05984D03*
X05767D03*
G54D9505*
X06444Y0501D03*
Y05751D03*
X06208Y05752D03*
X05972Y0575D03*
X05736D03*
X05499Y05825D03*
Y05083D03*
X05736Y05009D03*
X05972D03*
X06208Y0501D03*
G54D9506*
X06771Y05071D03*
Y05391D03*
G54D9507*
X06771Y04805D03*
Y05657D03*
G54D9508*
X04535Y0322D03*
X04935D03*
G54D9509*
X06751Y02874D03*
X04114D03*
X06751Y05925D03*
X04114Y04704D03*
M02*